<svg width="24" height="24" viewBox="0 0 24 24" fill="none" xmlns="http://www.w3.org/2000/svg">
<path d="M8.16667 6.41722L19 6.41782M8.16667 11.4172L19 11.4179M8.16667 16.4172L19 16.4179M4.41667 6.41667H4.425M4.41667 11.4167H4.425M4.41667 16.4167H4.425M4.83333 6.41667C4.83333 6.64678 4.64678 6.83333 4.41667 6.83333C4.18655 6.83333 4 6.64678 4 6.41667C4 6.18655 4.18655 6 4.41667 6C4.64678 6 4.83333 6.18655 4.83333 6.41667ZM4.83333 11.4167C4.83333 11.6467 4.64678 11.8333 4.41667 11.8333C4.18655 11.8333 4 11.6467 4 11.4167C4 11.1866 4.18655 11 4.41667 11C4.64678 11 4.83333 11.1866 4.83333 11.4167ZM4.83333 16.4167C4.83333 16.6467 4.64678 16.8333 4.41667 16.8333C4.18655 16.8333 4 16.6467 4 16.4167C4 16.1866 4.18655 16 4.41667 16C4.64678 16 4.83333 16.1866 4.83333 16.4167Z" stroke="#464749" stroke-width="1.5" stroke-linecap="round" stroke-linejoin="round"/>
<rect x="15" y="4" width="7" height="16" rx="3.5" fill="white"/>
<path d="M18.5 6.43848L18.5 12.501" stroke="#464749" stroke-width="2" stroke-linecap="round"/>
<circle cx="18.5" cy="16.5615" r="1" fill="#464749"/>
</svg>
