<svg width="24" height="24" viewBox="0 0 24 24" fill="none" xmlns="http://www.w3.org/2000/svg">
<path fill-rule="evenodd" clip-rule="evenodd" d="M10.4057 9.20836C9.25215 10.9923 9.47729 13.3353 10.9494 14.867C12.3978 16.3772 14.728 16.6134 16.45 15.4246C16.8119 15.1754 17.1347 14.8735 17.4072 14.5289C17.6752 14.1901 17.8931 13.8145 18.0543 13.4137C18.3849 12.5904 18.4704 11.6892 18.3005 10.8185C18.1334 9.95573 17.7183 9.16052 17.1063 8.52993C16.5035 7.90671 15.7272 7.47927 14.8782 7.30319C14.0326 7.13041 13.1545 7.21957 12.3608 7.55876C11.5597 7.90211 10.879 8.47642 10.4057 9.20836Z" stroke="#3B82F6" stroke-width="1.25" stroke-linecap="round" stroke-linejoin="round"/>
<path d="M17.9182 14.8242C17.5294 14.5408 16.9844 14.6264 16.701 15.0153C16.4177 15.4043 16.5033 15.9492 16.8922 16.2325L17.9182 14.8242ZM19.6141 18.2155C20.0029 18.4989 20.5479 18.4134 20.8313 18.0244C21.1146 17.6355 21.029 17.0906 20.6401 16.8072L19.6141 18.2155ZM6.18683 13.7358C6.66801 13.7358 7.05809 13.3459 7.05809 12.8646C7.05809 12.3834 6.66801 11.9933 6.18683 11.9933V13.7358ZM3.86345 11.9933C3.38227 11.9933 2.99219 12.3834 2.99219 12.8646C2.99219 13.3459 3.38227 13.7358 3.86345 13.7358V11.9933ZM6.18683 17.2209C6.66801 17.2209 7.05809 16.8309 7.05809 16.3496C7.05809 15.8685 6.66801 15.4784 6.18683 15.4784V17.2209ZM3.86345 15.4784C3.38227 15.4784 2.99219 15.8685 2.99219 16.3496C2.99219 16.8309 3.38227 17.2209 3.86345 17.2209V15.4784ZM7.34851 10.2508C7.8297 10.2508 8.21978 9.86075 8.21978 9.37957C8.21978 8.89838 7.8297 8.5083 7.34851 8.5083V10.2508ZM3.86345 8.5083C3.38227 8.5083 2.99219 8.89838 2.99219 9.37957C2.99219 9.86075 3.38227 10.2508 3.86345 10.2508V8.5083ZM16.8922 16.2325L19.6141 18.2155L20.6401 16.8072L17.9182 14.8242L16.8922 16.2325ZM6.18683 11.9933H3.86345V13.7358H6.18683V11.9933ZM6.18683 15.4784H3.86345V17.2209H6.18683V15.4784ZM7.34851 8.5083H3.86345V10.2508H7.34851V8.5083Z" fill="#3B82F6"/>
</svg>
