<svg width="24" height="24" viewBox="0 0 24 24" fill="none" xmlns="http://www.w3.org/2000/svg">
<path d="M4.5 5.42593C4.5 4.91456 4.90362 4.5 5.40151 4.5H9.00755C9.50544 4.5 9.90906 4.91456 9.90906 5.42593V9.12963C9.90906 9.641 9.50544 10.0556 9.00755 10.0556H5.40151C4.90362 10.0556 4.5 9.641 4.5 9.12963V5.42593Z" stroke="#3B82F6" stroke-width="1.25" stroke-linecap="round" stroke-linejoin="round"/>
<path d="M4.5 14.6837C4.5 14.1723 4.90362 13.7578 5.40151 13.7578H9.00755C9.50544 13.7578 9.90906 14.1723 9.90906 14.6837V18.3874C9.90906 18.8988 9.50544 19.3134 9.00755 19.3134H5.40151C4.90362 19.3134 4.5 18.8988 4.5 18.3874V14.6837Z" stroke="#3B82F6" stroke-width="1.25" stroke-linecap="round" stroke-linejoin="round"/>
<path d="M13.5156 5.42593C13.5156 4.91456 13.9192 4.5 14.4171 4.5H18.0232C18.5211 4.5 18.9247 4.91456 18.9247 5.42593V9.12963C18.9247 9.641 18.5211 10.0556 18.0232 10.0556H14.4171C13.9192 10.0556 13.5156 9.641 13.5156 9.12963V5.42593Z" stroke="#3B82F6" stroke-width="1.25" stroke-linecap="round" stroke-linejoin="round"/>
<rect x="12.6875" y="6.90625" width="6.81542" height="16" rx="3.40771" fill="white"/>
<path d="M16.0937 9.70215L16.0937 15.375" stroke="#3B82F6" stroke-width="2" stroke-linecap="round"/>
<circle cx="16.092" cy="19.1745" r="0.935733" fill="#3B82F6"/>
</svg>
