<svg width="24" height="24" viewBox="0 0 24 24" fill="none" xmlns="http://www.w3.org/2000/svg">
<path d="M4.1275 11.9973L6.21083 12.0065C6.36977 12.0064 6.52277 12.0669 6.63869 12.1756C6.75462 12.2844 6.82476 12.4332 6.83484 12.5918C6.84493 12.7504 6.7942 12.9069 6.69299 13.0295C6.59177 13.152 6.44767 13.2314 6.29 13.2515L6.205 13.2565L4.75 13.249V17.8332L6.20833 17.834C6.35922 17.8342 6.50494 17.889 6.61859 17.9882C6.73224 18.0875 6.80615 18.2245 6.82667 18.374L6.83333 18.459C6.83333 18.61 6.77863 18.7559 6.67936 18.8698C6.58009 18.9836 6.44296 19.0576 6.29333 19.0782L6.20833 19.084H4.125C3.97411 19.0838 3.82839 19.029 3.71474 18.9297C3.60109 18.8305 3.52719 18.6935 3.50667 18.544L3.5 18.459V12.6223C3.49989 12.4708 3.55484 12.3243 3.65464 12.2103C3.75444 12.0962 3.89228 12.0223 4.0425 12.0023L4.1275 11.9973ZM19.5375 16.584C19.6959 16.584 19.8483 16.6442 19.964 16.7523C20.0797 16.8604 20.1501 17.0084 20.1609 17.1664C20.1716 17.3244 20.1221 17.4806 20.0221 17.6034C19.9222 17.7262 19.7794 17.8066 19.6225 17.8282L19.5375 17.834H8.29C8.13172 17.8337 7.97943 17.7734 7.86388 17.6652C7.74833 17.5571 7.67813 17.4091 7.66744 17.2512C7.65676 17.0932 7.70639 16.9372 7.80632 16.8144C7.90625 16.6917 8.04903 16.6114 8.20583 16.5898L8.29 16.584H19.5375ZM19.5375 13.2507C19.6959 13.2507 19.8483 13.3109 19.964 13.419C20.0797 13.5271 20.1501 13.6751 20.1609 13.8331C20.1716 13.991 20.1221 14.1472 20.0221 14.2701C19.9222 14.3929 19.7794 14.4732 19.6225 14.4948L19.5375 14.5007H8.29C8.13172 14.5004 7.97943 14.4401 7.86388 14.3319C7.74833 14.2237 7.67813 14.0758 7.66744 13.9178C7.65676 13.7599 7.70639 13.6038 7.80632 13.4811C7.90625 13.3583 8.04903 13.2781 8.20583 13.2565L8.29 13.2507H19.5375ZM4.1275 4.08398L6.21083 4.09315C6.36977 4.09308 6.52277 4.15357 6.63869 4.26231C6.75462 4.37105 6.82476 4.51987 6.83484 4.67849C6.84493 4.83711 6.7942 4.99361 6.69299 5.11616C6.59177 5.23871 6.44767 5.31809 6.29 5.33815L6.205 5.34315L4.75 5.33648V9.91315H6.20833C6.35922 9.91336 6.50494 9.96815 6.61859 10.0674C6.73224 10.1666 6.80615 10.3037 6.82667 10.4532L6.8325 10.5382C6.83249 10.6892 6.7778 10.8351 6.67853 10.9489C6.57926 11.0627 6.44213 11.1368 6.2925 11.1573L6.2075 11.1632H4.12417C3.97328 11.1629 3.82756 11.1082 3.71391 11.0089C3.60026 10.9097 3.52635 10.7726 3.50583 10.6232L3.5 10.5382V4.70898C3.49989 4.55743 3.55484 4.411 3.65464 4.29695C3.75444 4.1829 3.89228 4.10899 4.0425 4.08898L4.1275 4.08398ZM19.5375 8.67065C19.6959 8.6707 19.8483 8.73085 19.964 8.83896C20.0797 8.94707 20.1501 9.09507 20.1609 9.25305C20.1716 9.41104 20.1221 9.56723 20.0221 9.69007C19.9222 9.81291 19.7794 9.89323 19.6225 9.91482L19.5375 9.92065H8.29C8.13172 9.92039 7.97943 9.86009 7.86388 9.75192C7.74833 9.64374 7.67813 9.49576 7.66744 9.33784C7.65676 9.17991 7.70639 9.02382 7.80632 8.90107C7.90625 8.77832 8.04903 8.69806 8.20583 8.67648L8.29 8.67065H19.5375ZM19.5417 5.33732C19.7 5.33737 19.8524 5.39752 19.9682 5.50563C20.0839 5.61374 20.1542 5.76173 20.165 5.91972C20.1758 6.0777 20.1262 6.23389 20.0263 6.35673C19.9264 6.47957 19.7835 6.5599 19.6267 6.58148L19.5417 6.58732H8.295C8.13665 6.58727 7.98422 6.52711 7.86851 6.41901C7.7528 6.3109 7.68244 6.1629 7.67165 6.00492C7.66085 5.84693 7.71043 5.69074 7.81036 5.5679C7.91029 5.44506 8.05312 5.36474 8.21 5.34315L8.295 5.33732H19.5417Z" fill="#3B82F6"/>
<rect x="14.8359" y="4" width="7" height="16" rx="3.5" fill="white"/>
<path d="M18.3359 6.43848L18.3359 12.501" stroke="#3B82F6" stroke-width="2" stroke-linecap="round"/>
<circle cx="18.3359" cy="16.5615" r="1" fill="#3B82F6"/>
</svg>
