<svg width="24" height="24" viewBox="0 0 24 24" fill="none" xmlns="http://www.w3.org/2000/svg">
<path d="M18.1675 10.3193V13.7554C18.1777 13.9631 18.0789 14.1753 17.8719 14.2921L11.9291 17.6453C11.3976 17.9452 10.748 17.9461 10.2156 17.6474L4.23502 14.2928C4.02322 14.1741 3.92423 13.9554 3.93892 13.7436V10.3311C3.92447 10.1226 4.02007 9.90729 4.2266 9.78689L10.1903 6.31007C10.7356 5.99219 11.4099 5.99305 11.9543 6.31234L17.8804 9.78766C18.0821 9.90597 18.1776 10.115 18.1675 10.3193Z" stroke="#3B82F6" stroke-width="1.25"/>
<path d="M4.23501 10.7981C3.8421 10.5776 3.83741 10.0138 4.2266 9.78689L10.1903 6.31007C10.7355 5.99219 11.4099 5.99305 11.9543 6.31235L17.8804 9.78766C18.2678 10.0149 18.2631 10.5766 17.872 10.7974L11.9291 14.1505C11.3975 14.4505 10.748 14.4513 10.2156 14.1526L4.23501 10.7981Z" stroke="#3B82F6" stroke-width="1.25"/>
<rect x="13.0547" y="4" width="7" height="16" rx="3.5" fill="white"/>
<path d="M16.5547 6.43848L16.5547 12.501" stroke="#3B82F6" stroke-width="2" stroke-linecap="round"/>
<circle cx="16.5547" cy="16.5615" r="1" fill="#3B82F6"/>
</svg>
