<svg width="24" height="24" viewBox="0 0 24 24" fill="none" xmlns="http://www.w3.org/2000/svg">
<path d="M6.7796 14.4688C6.7796 14.4688 6.589 17.7089 8.73324 20.0914C8.73324 20.0914 6.40372 20.6455 5.5407 17.8995C4.75448 15.3979 6.7796 14.4688 6.7796 14.4688Z" fill="url(#paint0_linear_26462_110995)"/>
<path d="M6.7796 14.4688C6.7796 14.4688 6.589 17.7089 8.73324 20.0914C8.73324 20.0914 6.40372 20.6455 5.5407 17.8995C4.75448 15.3979 6.7796 14.4688 6.7796 14.4688Z" stroke="#FFEAA5"/>
<path d="M9.42473 14.0391C9.42473 14.0391 9.25868 16.8618 11.1266 18.9373C11.1266 18.9373 9.09728 19.4199 8.34546 17.0278C7.66054 14.8485 9.42473 14.0391 9.42473 14.0391Z" fill="url(#paint1_linear_26462_110995)"/>
<path d="M9.42473 14.0391C9.42473 14.0391 9.25868 16.8618 11.1266 18.9373C11.1266 18.9373 9.09728 19.4199 8.34546 17.0278C7.66054 14.8485 9.42473 14.0391 9.42473 14.0391Z" stroke="#FFEAA5"/>
<path d="M4.51158 16.5098C4.51158 16.5098 4.38258 18.7027 5.8338 20.3152C5.8338 20.3152 4.45195 20.4004 3.86228 18.7684C3.42291 17.5523 4.51158 16.5098 4.51158 16.5098Z" fill="url(#paint2_linear_26462_110995)"/>
<path d="M4.51158 16.5098C4.51158 16.5098 4.38258 18.7027 5.8338 20.3152C5.8338 20.3152 4.45195 20.4004 3.86228 18.7684C3.42291 17.5523 4.51158 16.5098 4.51158 16.5098Z" stroke="#FFEAA5"/>
<path d="M11.6736 13.1924C11.6736 13.1924 6.88483 7.18848 3.59699 9.83305C0.309149 12.4776 11.6736 13.1924 11.6736 13.1924Z" fill="url(#paint3_linear_26462_110995)"/>
<path d="M11.6736 13.1924C11.6736 13.1924 6.88483 7.18848 3.59699 9.83305C0.309149 12.4776 11.6736 13.1924 11.6736 13.1924Z" stroke="#FFEAA5"/>
<path d="M13.3362 17.0084C14.1562 17.0084 14.8209 16.3437 14.8209 15.5237C14.8209 14.7038 14.1562 14.0391 13.3362 14.0391C12.5163 14.0391 11.8516 14.7038 11.8516 15.5237C11.8516 16.3437 12.5163 17.0084 13.3362 17.0084Z" fill="url(#paint4_linear_26462_110995)"/>
<path d="M13.3362 17.0084C14.1562 17.0084 14.8209 16.3437 14.8209 15.5237C14.8209 14.7038 14.1562 14.0391 13.3362 14.0391C12.5163 14.0391 11.8516 14.7038 11.8516 15.5237C11.8516 16.3437 12.5163 17.0084 13.3362 17.0084Z" stroke="#FFEAA5"/>
<path d="M18.3322 12.3793C18.3515 12.4566 18.4014 12.5258 18.4734 12.5755C18.5455 12.6252 18.6354 12.6523 18.728 12.6523C18.8207 12.6523 18.9106 12.6252 18.9826 12.5755C19.0547 12.5258 19.1045 12.4566 19.1239 12.3793C19.2491 11.8751 19.4207 11.5351 19.6581 11.2932C19.8896 11.0558 20.2134 10.8824 20.7104 10.7568C20.7941 10.7356 20.8674 10.692 20.9196 10.6324C20.9718 10.5728 21 10.5004 21 10.426C21 10.3516 20.9718 10.2793 20.9196 10.2196C20.8674 10.16 20.7941 10.1164 20.7104 10.0952C20.2328 9.97472 19.9117 9.81141 19.6765 9.57772C19.4369 9.34034 19.2545 8.99808 19.1239 8.47272C19.1045 8.39546 19.0547 8.32619 18.9826 8.27649C18.9106 8.22679 18.8207 8.19968 18.728 8.19968C18.6354 8.19968 18.5455 8.22679 18.4734 8.27649C18.4014 8.32619 18.3515 8.39546 18.3322 8.47272C18.2016 8.99854 18.0192 9.34034 17.7796 9.57772C17.5443 9.81141 17.2238 9.97472 16.7451 10.0952C16.6615 10.1164 16.5881 10.16 16.5359 10.2196C16.4837 10.2793 16.4555 10.3516 16.4555 10.426C16.4555 10.5004 16.4837 10.5728 16.5359 10.6324C16.5881 10.692 16.6615 10.7356 16.7451 10.7568C17.2232 10.8773 17.5443 11.0406 17.7796 11.2743C18.0192 11.5117 18.2016 11.8539 18.3322 12.3793ZM13.8515 10.8837C13.8728 10.959 13.9232 11.0259 13.9946 11.0738C14.0659 11.1217 14.1541 11.1477 14.2449 11.1477C14.3357 11.1477 14.4239 11.1217 14.4952 11.0738C14.5666 11.0259 14.617 10.959 14.6383 10.8837C14.9373 9.82935 15.2541 9.19359 15.7025 8.75012C16.145 8.31217 16.7532 8.02512 17.737 7.74174C17.8172 7.71863 17.8868 7.67466 17.9362 7.61603C17.9855 7.5574 18.0121 7.48705 18.0121 7.41489C18.0121 7.34272 17.9855 7.27237 17.9362 7.21374C17.8868 7.15511 17.8172 7.11115 17.737 7.08804C16.7095 6.79224 16.0932 6.47988 15.6582 6.03365C15.2163 5.58006 14.9232 4.95028 14.6383 3.94649C14.617 3.87126 14.5666 3.80432 14.4952 3.75645C14.4239 3.70857 14.3357 3.68255 14.2449 3.68255C14.1541 3.68255 14.0659 3.70857 13.9946 3.75645C13.9232 3.80432 13.8728 3.87126 13.8515 3.94649C13.5525 5.00042 13.2352 5.63618 12.7873 6.07965C12.3448 6.5176 11.7366 6.80466 10.7529 7.08804C10.6727 7.11115 10.603 7.15511 10.5536 7.21374C10.5043 7.27238 10.4777 7.34272 10.4777 7.41489C10.4777 7.48705 10.5043 7.5574 10.5536 7.61603C10.603 7.67466 10.6727 7.71863 10.7529 7.74174C11.782 8.038 12.3972 8.34898 12.8316 8.79521C13.273 9.24787 13.5655 9.8772 13.8515 10.8837Z" fill="url(#paint5_linear_26462_110995)"/>
<defs>
<linearGradient id="paint0_linear_26462_110995" x1="9.34155" y1="20.9558" x2="4.20024" y2="17.3279" gradientUnits="userSpaceOnUse">
<stop stop-color="#FFD02A" stop-opacity="0.14"/>
<stop offset="1" stop-color="#FACF39"/>
</linearGradient>
<linearGradient id="paint1_linear_26462_110995" x1="11.6566" y1="19.6902" x2="7.17772" y2="16.5298" gradientUnits="userSpaceOnUse">
<stop stop-color="#FFD02A" stop-opacity="0.14"/>
<stop offset="1" stop-color="#FACF39"/>
</linearGradient>
<linearGradient id="paint2_linear_26462_110995" x1="6.2081" y1="20.8655" x2="2.86659" y2="18.7048" gradientUnits="userSpaceOnUse">
<stop stop-color="#FFD02A" stop-opacity="0.14"/>
<stop offset="1" stop-color="#FACF39"/>
</linearGradient>
<linearGradient id="paint3_linear_26462_110995" x1="13.2375" y1="13.7746" x2="10.5989" y2="7.04572" gradientUnits="userSpaceOnUse">
<stop stop-color="#FFD02A" stop-opacity="0.14"/>
<stop offset="1" stop-color="#FACF39"/>
</linearGradient>
<linearGradient id="paint4_linear_26462_110995" x1="15.3563" y1="17.4372" x2="12.5386" y2="14.0967" gradientUnits="userSpaceOnUse">
<stop stop-color="#FFD02A" stop-opacity="0.14"/>
<stop offset="1" stop-color="#FACF39"/>
</linearGradient>
<linearGradient id="paint5_linear_26462_110995" x1="10.6619" y1="4.35298" x2="16.6581" y2="12.8573" gradientUnits="userSpaceOnUse">
<stop stop-color="#FFD02A"/>
<stop offset="1" stop-color="#FACF39" stop-opacity="0.3"/>
</linearGradient>
</defs>
</svg>
