<svg width="24" height="24" viewBox="0 0 24 24" fill="none" xmlns="http://www.w3.org/2000/svg">
<path d="M6.70465 8.65197C6.76348 8.49707 6.88141 8.37188 7.03252 8.3039C7.18363 8.23593 7.35555 8.23074 7.51048 8.28947L11.6638 9.86447L15.8171 8.28947C15.8943 8.25798 15.9771 8.24225 16.0604 8.24321C16.1438 8.24416 16.2261 8.26179 16.3026 8.29506C16.379 8.32832 16.4481 8.37654 16.5056 8.43689C16.5631 8.49723 16.608 8.56848 16.6376 8.64643C16.6672 8.72438 16.6809 8.80746 16.6778 8.89078C16.6748 8.9741 16.6552 9.05598 16.62 9.13159C16.5849 9.20719 16.535 9.27501 16.4732 9.33103C16.4115 9.38706 16.3391 9.43016 16.2605 9.45781L12.2888 10.9653V15.5411C12.2888 15.7069 12.223 15.8659 12.1058 15.9831C11.9885 16.1003 11.8296 16.1661 11.6638 16.1661C11.4981 16.1661 11.3391 16.1003 11.2219 15.9831C11.1047 15.8659 11.0388 15.7069 11.0388 15.5411V10.9661L7.06715 9.45697C6.91225 9.39814 6.78705 9.28021 6.71908 9.1291C6.6511 8.97799 6.64591 8.80607 6.70465 8.65114V8.65197Z" fill="#3B82F6"/>
<path d="M10.4873 4.09323C11.2403 3.78793 12.0826 3.78793 12.8356 4.09323L19.084 6.62657C19.3531 6.73558 19.5836 6.92247 19.7458 7.16327C19.9081 7.40408 19.9948 7.68785 19.9948 7.97823V16.0216C19.9948 16.3119 19.9081 16.5957 19.7458 16.8365C19.5836 17.0773 19.3531 17.2642 19.084 17.3732L12.8356 19.9066C12.0826 20.2119 11.2403 20.2119 10.4873 19.9066L4.23896 17.3732C3.96982 17.2642 3.73935 17.0773 3.57708 16.8365C3.41481 16.5957 3.32812 16.3119 3.32813 16.0216V7.97907C3.32812 7.68869 3.41481 7.40492 3.57708 7.16411C3.73935 6.9233 3.96982 6.73642 4.23896 6.6274L10.4873 4.09323ZM12.3656 5.25157C11.914 5.06857 11.4089 5.06857 10.9573 5.25157L4.70812 7.7849C4.66966 7.80051 4.63674 7.82725 4.61357 7.8617C4.59041 7.89614 4.57807 7.93672 4.57812 7.97823V16.0216C4.57807 16.0631 4.59041 16.1037 4.61357 16.1381C4.63674 16.1726 4.66966 16.1993 4.70812 16.2149L10.9573 18.7482C11.4089 18.9312 11.914 18.9312 12.3656 18.7482L18.6148 16.2149C18.6533 16.1993 18.6862 16.1726 18.7093 16.1381C18.7325 16.1037 18.7448 16.0631 18.7448 16.0216V7.97907C18.7448 7.93756 18.7325 7.89698 18.7093 7.86253C18.6862 7.82808 18.6533 7.80134 18.6148 7.78573L12.3656 5.2524V5.25157Z" fill="#3B82F6"/>
<rect x="13.6641" y="3.99902" width="7" height="16" rx="3.5" fill="white"/>
<path d="M17.1641 6.4375L17.1641 12.5" stroke="#3B82F6" stroke-width="2" stroke-linecap="round"/>
<circle cx="17.1641" cy="16.5605" r="1" fill="#3B82F6"/>
</svg>
