<svg width="24" height="24" viewBox="0 0 24 24" fill="none" xmlns="http://www.w3.org/2000/svg">
<path d="M11.1641 11.9993C11.1641 11.5391 10.791 11.166 10.3307 11.166H5.33073C4.87048 11.166 4.4974 11.5391 4.4974 11.9993V17.8327C4.4974 18.2929 4.87048 18.666 5.33073 18.666H10.3307C10.791 18.666 11.1641 18.2929 11.1641 17.8327V11.9993Z" stroke="#3B82F6" stroke-width="1.25" stroke-linecap="round"/>
<path d="M17.8281 6.16732C17.8281 5.70708 17.455 5.33398 16.9948 5.33398H14.4948C14.0346 5.33398 13.6615 5.70708 13.6615 6.16732V17.834C13.6615 18.2942 14.0346 18.6673 14.4948 18.6673H16.9948C17.455 18.6673 17.8281 18.2942 17.8281 17.834V6.16732Z" stroke="#3B82F6" stroke-width="1.25" stroke-linecap="round"/>
<path d="M11.1641 6.16732C11.1641 5.70708 10.791 5.33398 10.3307 5.33398H5.33073C4.87048 5.33398 4.4974 5.70708 4.4974 6.16732V7.83398C4.4974 8.29422 4.87048 8.66732 5.33073 8.66732H10.3307C10.791 8.66732 11.1641 8.29422 11.1641 7.83398V6.16732Z" stroke="#3B82F6" stroke-width="1.25" stroke-linecap="round"/>
<rect x="15.1641" y="4" width="7" height="16" rx="3.5" fill="white"/>
<path d="M18.6641 6.43848L18.6641 12.501" stroke="#3B82F6" stroke-width="2" stroke-linecap="round"/>
<circle cx="18.6641" cy="16.5615" r="1" fill="#3B82F6"/>
</svg>
