<svg width="16" height="16" viewBox="0 0 16 16" fill="none" xmlns="http://www.w3.org/2000/svg">
<g clip-path="url(#clip0_15145_83990)">
<path d="M8 0.9375C9.28919 0.9375 10.5504 1.29288 11.6443 1.952L11.0114 2.06363C10.7565 2.10856 10.5862 2.35169 10.6312 2.60666C10.6762 2.86159 10.9192 3.03184 11.1742 2.98688L12.9224 2.67859C13.1773 2.63366 13.3476 2.39053 13.3026 2.13556L12.9944 0.387437C12.9494 0.1325 12.7063 -0.03775 12.4513 0.00721875H12.4513C12.1964 0.0521875 12.0261 0.295312 12.0711 0.55025L12.1825 1.18197C10.9308 0.414219 9.48169 0 8 0C5.86312 0 3.85416 0.832156 2.34312 2.34313C0.832125 3.85416 0 5.86313 0 8C0 8.25888 0.209875 8.46875 0.46875 8.46875C0.727625 8.46875 0.9375 8.25888 0.9375 8C0.9375 4.10572 4.10572 0.9375 8 0.9375Z" fill="#374151"/>
<path d="M15.5325 7.53125C15.2736 7.53125 15.0638 7.74112 15.0638 8C15.0638 11.8943 11.8955 15.0625 8.00127 15.0625C6.71211 15.0625 5.45102 14.7071 4.35711 14.048L4.98983 13.9364C5.24477 13.8915 5.41502 13.6483 5.37005 13.3934C5.32508 13.1384 5.08198 12.9682 4.82702 13.0132L3.07883 13.3214C2.82389 13.3664 2.65364 13.6095 2.69861 13.8644L3.00686 15.6126C3.05183 15.8675 3.29495 16.0378 3.54989 15.9928C3.80483 15.9478 3.97511 15.7047 3.93014 15.4498L3.81864 14.8174C5.07042 15.5853 6.51945 16 8.00127 16C10.1381 16 12.1471 15.1678 13.6581 13.6569C15.1691 12.1458 16.0013 10.1369 16.0013 8C16.0013 7.74112 15.7914 7.53125 15.5325 7.53125Z" fill="#374151"/>
</g>
<path d="M8.11608 2.91025C7.73887 2.91025 7.40881 3.2286 7.40881 3.59242L7.40881 6.09372L3.63672 8.36762L3.63672 9.27718L7.40881 8.14023L7.40881 10.6415L6.46579 11.3237L6.46579 12.0059L8.11608 11.5511L9.76637 12.0059L9.76637 11.3237L8.82335 10.6415L8.82335 8.14023L12.5954 9.27718L12.5954 8.36762L8.82335 6.09372L8.82335 3.59242C8.82335 3.2286 8.49329 2.91025 8.11608 2.91025Z" fill="#374151"/>
<defs>
<clipPath id="clip0_15145_83990">
<rect width="16" height="16" fill="white"/>
</clipPath>
</defs>
</svg>
