<svg width="16" height="16" viewBox="0 0 16 16" fill="none" xmlns="http://www.w3.org/2000/svg">
<g clip-path="url(#clip0_15145_84056)">
<path d="M0.473671 6.86304L5.10156 2.22714L6.4547 3.58829C6.36713 3.92639 6.39249 4.28384 6.52692 4.60619C6.66135 4.92854 6.89748 5.1981 7.19933 5.37379V9.80952C6.95613 9.94993 6.75414 10.1518 6.61361 10.3949C6.47307 10.6381 6.39894 10.9139 6.39866 11.1947C6.39866 11.6194 6.56737 12.0267 6.86768 12.327C7.16799 12.6273 7.5753 12.796 8 12.796C8.42471 12.796 8.83202 12.6273 9.13233 12.327C9.43264 12.0267 9.60135 11.6194 9.60135 11.1947C9.60106 10.9139 9.52693 10.6381 9.3864 10.3949C9.24587 10.1518 9.04387 9.94993 8.80068 9.80952V5.91825L10.4581 7.59166C10.4105 7.71943 10.3913 7.85606 10.402 7.99199C10.402 8.30871 10.4959 8.61831 10.6719 8.88165C10.8479 9.14499 11.098 9.35024 11.3906 9.47145C11.6832 9.59265 12.0051 9.62436 12.3158 9.56257C12.6264 9.50078 12.9117 9.34827 13.1357 9.12432C13.3596 8.90036 13.5122 8.61503 13.5739 8.3044C13.6357 7.99377 13.604 7.67179 13.4828 7.37918C13.3616 7.08658 13.1564 6.83648 12.893 6.66052C12.6297 6.48456 12.3201 6.39065 12.0034 6.39065C11.8674 6.37997 11.7308 6.3991 11.603 6.44669L9.5453 4.38896C9.64125 4.01816 9.60112 3.62525 9.43218 3.28151C9.26325 2.93776 8.9767 2.66595 8.62453 2.51539C8.29879 2.38503 7.94044 2.35983 7.59967 2.44332L6.23852 1.09019L6.87105 0.46566C7.17109 0.167408 7.57695 0 8 0C8.42306 0 8.82892 0.167408 9.12895 0.46566L15.5343 6.87105C15.8326 7.17108 16 7.57695 16 8C16 8.42305 15.8326 8.82892 15.5343 9.12895L9.12895 15.5343C8.82892 15.8326 8.42306 16 8 16C7.57695 16 7.17109 15.8326 6.87105 15.5343L0.465664 9.12895C0.317301 8.9797 0.199811 8.80268 0.11991 8.60799C0.0400096 8.41331 -0.000733614 8.20478 9.99808e-06 7.99434C0.00075361 7.7839 0.0429695 7.57566 0.124244 7.38155C0.205518 7.18743 0.324257 7.01124 0.473671 6.86304Z" fill="#374151"/>
</g>
<defs>
<clipPath id="clip0_15145_84056">
<rect width="16" height="16" fill="white"/>
</clipPath>
</defs>
</svg>
