<svg width="16" height="16" viewBox="0 0 16 16" fill="none" xmlns="http://www.w3.org/2000/svg">
<path d="M14 2.5H4.00355C3.45147 2.5 3.00391 2.83579 3.00391 3.25C3.00391 3.66421 3.45147 4 4.00355 4H14C14.5521 4 14.9997 3.66421 14.9997 3.25C14.9997 2.83579 14.5521 2.5 14 2.5Z" fill="#374151"/>
<path d="M2.0049 3.49935C2.00377 3.23466 1.89772 2.98122 1.71 2.79459C1.32011 2.40701 0.69039 2.40701 0.300496 2.79459C0.112749 2.98122 0.00669296 3.23466 0.00559959 3.49935C-0.00186653 3.5641 -0.00186653 3.62952 0.00559959 3.69428C0.0169081 3.75941 0.0353391 3.82311 0.0605803 3.88421C0.0874146 3.94341 0.119185 4.00026 0.155547 4.05415C0.191441 4.11019 0.233332 4.16214 0.280503 4.2091C0.325987 4.25439 0.376251 4.29463 0.43045 4.32905C0.483088 4.36738 0.540162 4.39928 0.600391 4.42402C0.666648 4.45838 0.73728 4.48362 0.810317 4.49899C0.875075 4.50624 0.94049 4.50624 1.00525 4.49899C1.26922 4.49921 1.52257 4.395 1.71 4.2091C1.75717 4.16214 1.79906 4.11019 1.83496 4.05415C1.87132 4.00026 1.90309 3.94341 1.92992 3.88421C1.96182 3.82386 1.98697 3.76016 2.0049 3.69428C2.01236 3.62952 2.01236 3.5641 2.0049 3.49935Z" fill="#374151"/>
<path d="M2.0032 7.99739C2.01064 7.93263 2.01064 7.86722 2.0032 7.80246C1.98593 7.73795 1.96075 7.67585 1.92823 7.61753C1.90249 7.5562 1.87066 7.4976 1.83326 7.44259C1.79862 7.38717 1.75657 7.33672 1.70831 7.29264C1.31841 6.90506 0.688697 6.90506 0.298803 7.29264C0.111056 7.47926 0.00499962 7.7327 0.00390625 7.99739C0.00584307 8.12913 0.0312404 8.25943 0.0788799 8.38226C0.103934 8.44139 0.134048 8.49825 0.168848 8.5522C0.206866 8.60652 0.250413 8.65679 0.298803 8.70214C0.342975 8.75031 0.393394 8.79236 0.44875 8.8271C0.501388 8.86546 0.55843 8.89736 0.61869 8.92207C0.679637 8.94771 0.743396 8.96618 0.808623 8.97705C0.87257 8.99139 0.938015 8.9981 1.00355 8.99704C1.06831 9.00451 1.13373 9.00451 1.19849 8.99704C1.26209 8.98614 1.32419 8.96768 1.38342 8.94206C1.44531 8.91751 1.50403 8.88561 1.55836 8.84709C1.61372 8.81236 1.66414 8.77031 1.70831 8.72214C1.75648 8.67797 1.79853 8.62755 1.83326 8.57219C1.87169 8.51958 1.90358 8.46254 1.92823 8.40225C1.96237 8.3359 1.98758 8.2653 2.0032 8.19232C2.01089 8.12756 2.01089 8.06215 2.0032 7.99739Z" fill="#374151"/>
<path d="M2.00326 12.4954C2.01067 12.4307 2.01067 12.3653 2.00326 12.3005C1.98599 12.2344 1.96081 12.1706 1.92829 12.1106C1.90146 12.0514 1.86969 11.9945 1.83332 11.9406C1.79859 11.8853 1.75654 11.8349 1.70837 11.7907C1.31847 11.4031 0.688758 11.4031 0.298864 11.7907C0.250693 11.8349 0.208646 11.8853 0.173908 11.9406C0.137546 11.9945 0.105775 12.0514 0.0789412 12.1106C0.0530128 12.1714 0.0345505 12.2352 0.0239605 12.3005C0.0098717 12.3645 0.00318655 12.4299 0.00396753 12.4954C0.00509213 12.7601 0.111149 13.0136 0.298864 13.2002C0.343036 13.2484 0.393456 13.2904 0.448811 13.3251C0.501449 13.3635 0.558491 13.3954 0.618751 13.4201C0.679699 13.4458 0.743458 13.4642 0.808685 13.4751C0.872631 13.4894 0.938077 13.4961 1.00362 13.4951C1.06837 13.5026 1.13379 13.5026 1.19855 13.4951C1.26215 13.4842 1.32425 13.4657 1.38348 13.4401C1.44537 13.4156 1.5041 13.3837 1.55842 13.3451C1.61378 13.3104 1.6642 13.2684 1.70837 13.2202C1.75654 13.176 1.79859 13.1256 1.83332 13.0702C1.87178 13.0177 1.90367 12.9606 1.92829 12.9003C1.9624 12.8339 1.98761 12.7633 2.00326 12.6904C2.01095 12.6256 2.01095 12.5602 2.00326 12.4954Z" fill="#374151"/>
<path d="M14.9997 6.99805H4.00355C3.45147 6.99805 3.00391 7.33384 3.00391 7.74805C3.00391 8.16226 3.45147 8.49805 4.00355 8.49805H14.9997C15.5518 8.49805 15.9993 8.16226 15.9993 7.74805C15.9993 7.33384 15.5518 6.99805 14.9997 6.99805Z" fill="#374151"/>
<path d="M10.5013 11.4961H4.00355C3.45147 11.4961 3.00391 11.8319 3.00391 12.2461C3.00391 12.6603 3.45147 12.9961 4.00355 12.9961H10.5013C11.0534 12.9961 11.5009 12.6603 11.5009 12.2461C11.5009 11.8319 11.0534 11.4961 10.5013 11.4961Z" fill="#374151"/>
</svg>
