<svg width="16" height="16" viewBox="0 0 16 16" fill="none" xmlns="http://www.w3.org/2000/svg">
<path d="M14.3075 6.23313C12.8981 3.39126 9.74382 1.954 6.72375 2.47664L7.5291 1.00671C7.73044 0.680058 7.59621 0.255411 7.26065 0.0920857C6.92509 -0.103905 6.48886 0.0267551 6.32107 0.353406L4.67681 3.32593C4.67681 3.32593 4.30769 3.9139 4.87815 4.17523L7.93178 5.77582C8.03245 5.84115 8.16667 5.87381 8.26734 5.87381C8.50224 5.87381 8.77069 5.74315 8.87135 5.5145C9.07269 5.18784 8.93847 4.7632 8.6029 4.59987L7.02576 3.75058C9.40826 3.3586 11.8914 4.53454 12.9988 6.75577C14.341 9.46698 13.1666 12.7335 10.3814 14.0074C9.03914 14.6281 7.5291 14.7261 6.11974 14.2361C4.71037 13.7461 3.56946 12.7662 2.93189 11.4595C2.29432 10.1529 2.19365 8.68301 2.69699 7.31108C2.83122 6.95176 2.62988 6.55978 2.26076 6.42912C1.9252 6.36379 1.52252 6.55978 1.38829 6.9191C0.784281 8.65035 0.88495 10.4796 1.6903 12.1129C2.49565 13.7461 3.90502 14.9874 5.6835 15.608C6.4553 15.8693 7.22709 16 7.99889 16C9.03914 16 10.0794 15.7713 11.019 15.314C14.5088 13.6808 15.9853 9.59764 14.3075 6.23313Z" fill="#374151"/>
</svg>
