<svg width="16" height="16" viewBox="0 0 16 16" fill="none" xmlns="http://www.w3.org/2000/svg">
<path d="M3.9042 3.23754H5.61849C5.9042 3.23754 6.09468 3.04706 6.09468 2.76135C6.09468 2.47563 5.9042 2.28516 5.61849 2.28516H2.76135C2.47563 2.28516 2.28516 2.47563 2.28516 2.76135V5.61849C2.28516 5.9042 2.47563 6.09468 2.76135 6.09468C3.04706 6.09468 3.23754 5.9042 3.23754 5.61849V3.9042L6.71373 7.38039C6.9042 7.57087 7.18992 7.57087 7.38039 7.38039C7.57087 7.18992 7.57087 6.9042 7.38039 6.71373L3.9042 3.23754Z" fill="#374151"/>
<path d="M13.2385 9.90513C12.9528 9.90513 12.7623 10.0956 12.7623 10.3813V12.0956L9.28609 8.61942C9.09561 8.42894 8.8099 8.42894 8.61942 8.61942C8.42894 8.8099 8.42894 9.09561 8.61942 9.28609L12.0956 12.7623H10.3813C10.0956 12.7623 9.90513 12.9528 9.90513 13.2385C9.90513 13.5242 10.0956 13.7147 10.3813 13.7147H13.2385C13.5242 13.7147 13.7147 13.5242 13.7147 13.2385V10.3813C13.7147 10.0956 13.5242 9.90513 13.2385 9.90513Z" fill="#374151"/>
</svg>
