<svg width="20" height="20" viewBox="0 0 20 20" fill="none" xmlns="http://www.w3.org/2000/svg">
<path d="M10.0013 1.66699C5.4013 1.66699 1.66797 5.40033 1.66797 10.0003C1.66797 14.6003 5.4013 18.3337 10.0013 18.3337C14.6013 18.3337 18.3346 14.6003 18.3346 10.0003C18.3346 5.40033 14.6013 1.66699 10.0013 1.66699ZM13.3346 10.8337H10.8346V13.3337C10.8346 13.792 10.4596 14.167 10.0013 14.167C9.54297 14.167 9.16797 13.792 9.16797 13.3337V10.8337H6.66797C6.20964 10.8337 5.83464 10.4587 5.83464 10.0003C5.83464 9.54199 6.20964 9.16699 6.66797 9.16699H9.16797V6.66699C9.16797 6.20866 9.54297 5.83366 10.0013 5.83366C10.4596 5.83366 10.8346 6.20866 10.8346 6.66699V9.16699H13.3346C13.793 9.16699 14.168 9.54199 14.168 10.0003C14.168 10.4587 13.793 10.8337 13.3346 10.8337Z" fill="#000522"/>
</svg>
