<svg width="24" height="24" viewBox="0 0 24 24" fill="none" xmlns="http://www.w3.org/2000/svg">
<path fill-rule="evenodd" clip-rule="evenodd" d="M18.25 7.64143V5.11768C18.25 4.62018 18.0525 4.1433 17.7006 3.79143C17.3494 3.44018 16.8725 3.24268 16.375 3.24268C14.2106 3.24268 9.78938 3.24268 7.625 3.24268C7.12813 3.24268 6.65063 3.44018 6.29938 3.79143C5.9475 4.1433 5.75 4.62018 5.75 5.11768V18.8752C5.75 19.3727 5.9475 19.8496 6.29938 20.2008C6.65063 20.5527 7.12813 20.7502 7.625 20.7502C9.78938 20.7502 14.2106 20.7502 16.375 20.7502C16.72 20.7502 17 20.4702 17 20.1252C17 19.7802 16.72 19.5002 16.375 19.5002C14.2106 19.5002 9.78938 19.5002 7.625 19.5002C7.45938 19.5002 7.30062 19.4346 7.18312 19.3171C7.06625 19.2002 7 19.0408 7 18.8752V5.11768C7 4.95143 7.06625 4.79268 7.18312 4.6758C7.30062 4.5583 7.45938 4.49268 7.625 4.49268H16.375C16.5406 4.49268 16.7 4.5583 16.8169 4.6758C16.9344 4.79268 17 4.95143 17 5.11768V7.64143C17 7.98643 17.28 8.26643 17.625 8.26643C17.97 8.26643 18.25 7.98643 18.25 7.64143Z" fill="#3B82F6"/>
<path fill-rule="evenodd" clip-rule="evenodd" d="M11.3759 7.01629H10.7578C10.4128 7.01629 10.1328 7.29629 10.1328 7.64129C10.1328 7.98629 10.4128 8.26629 10.7578 8.26629H11.3741L11.3728 8.88192C11.3728 9.22692 11.6522 9.50754 11.9972 9.50816C12.3422 9.50879 12.6228 9.22879 12.6228 8.88379L12.6241 8.26629H13.2422C13.5872 8.26629 13.8672 7.98629 13.8672 7.64129C13.8672 7.29629 13.5872 7.01629 13.2422 7.01629H12.6259L12.6272 6.40004C12.6272 6.05504 12.3478 5.77442 12.0028 5.77442C11.6578 5.77379 11.3772 6.05317 11.3772 6.39817L11.3759 7.01629Z" fill="#3B82F6"/>
<path fill-rule="evenodd" clip-rule="evenodd" d="M19.5006 15.7583V11.3721C19.5006 10.3364 18.6612 9.49707 17.6256 9.49707H15.125C14.0894 9.49707 13.25 10.3364 13.25 11.3721V15.7583C13.25 15.9558 13.3431 16.1414 13.5012 16.2596L16.0162 18.1346C16.2394 18.3008 16.5444 18.2996 16.7662 18.1327L19.2525 16.2577C19.4088 16.1396 19.5006 15.9546 19.5006 15.7583ZM18.2506 11.3721V15.4471L16.3875 16.8521L14.5 15.4446V11.3721C14.5 11.0271 14.7794 10.7471 15.125 10.7471H17.6256C17.9712 10.7471 18.2506 11.0271 18.2506 11.3721Z" fill="#3B82F6"/>
<path fill-rule="evenodd" clip-rule="evenodd" d="M8.87437 12.6177L11.3769 12.6196C11.7219 12.6202 12.0019 12.3402 12.0025 11.9952C12.0025 11.6502 11.7231 11.3702 11.3781 11.3696L8.87562 11.3677C8.53062 11.3671 8.25063 11.6471 8.25 11.9921C8.25 12.3371 8.52937 12.6171 8.87437 12.6177Z" fill="#3B82F6"/>
<path fill-rule="evenodd" clip-rule="evenodd" d="M8.87438 15.1177L11.3769 15.1196C11.7219 15.1202 12.0019 14.8402 12.0025 14.4952C12.0025 14.1502 11.7225 13.8702 11.3775 13.8696L8.87563 13.8677C8.53063 13.8671 8.25 14.1471 8.25 14.4921C8.24938 14.8371 8.52938 15.1171 8.87438 15.1177Z" fill="#3B82F6"/>
<path fill-rule="evenodd" clip-rule="evenodd" d="M8.87437 17.6177L11.3769 17.6196C11.7219 17.6202 12.0019 17.3402 12.0025 16.9952C12.0025 16.6502 11.7231 16.3702 11.3781 16.3696L8.87562 16.3677C8.53062 16.3671 8.25063 16.6471 8.25 16.9921C8.25 17.3371 8.52937 17.6171 8.87437 17.6177Z" fill="#3B82F6"/>
</svg>
