<svg width="24" height="24" viewBox="0 0 24 24" fill="none" xmlns="http://www.w3.org/2000/svg">
<path d="M21.0859 19.5625L18.7969 17.2734C19.3281 16.375 19.6719 15.625 19.6719 14.5781C19.6719 12.0859 17.6484 10.0625 15.1562 10.0625C12.6641 10.0625 10.6406 12.0859 10.6406 14.5781C10.6406 17.0703 12.6719 19.3359 15.1562 19.0938C16.1719 18.9922 17.0859 18.8125 17.8516 18.2188L20.1406 20.5078C20.3594 20.7266 20.7891 20.6563 21.0156 20.4375C21.2344 20.2109 21.3047 19.7813 21.0859 19.5625ZM11.9688 14.5781C11.9688 12.8125 13.3984 11.3828 15.1641 11.3828C16.9297 11.3828 18.3594 12.8125 18.3594 14.5781C18.3594 16.3438 16.9297 17.7734 15.1641 17.7734C13.3984 17.7734 11.9688 16.3438 11.9688 14.5781Z" fill="#3B82F6"/>
<path d="M16.8203 4.875C16.8203 4.03906 16.1406 3.35156 15.2969 3.35156H4.30469C3.46094 3.35938 2.78125 4.03906 2.78125 4.875V11.0859V11.3281V19.1172C2.78125 19.9531 3.46094 20.6406 4.30469 20.6406H5.41406L5.42187 20.6328C5.46094 20.6406 5.5 20.6406 5.54688 20.6406H11.0078C11.375 20.6406 11.6719 20.3438 11.6719 19.9766C11.6719 19.6094 11.375 19.3125 11.0078 19.3125H6.53125H5.54688H4.875C4.45312 19.3125 4.11719 18.9688 4.11719 18.5547V11.3359V11.0938V5.44531C4.11719 5.02344 4.46094 4.6875 4.875 4.6875H14.7344C15.1563 4.6875 15.4922 5.03125 15.4922 5.44531V8.13281C15.4922 8.5 15.7891 8.79688 16.1562 8.79688C16.5234 8.79688 16.8203 8.5 16.8203 8.13281V4.875Z" fill="#3B82F6"/>
<path d="M5.34375 7.47656C5.34375 7.84375 5.64063 8.14062 6.00781 8.14062H13.6094C13.9766 8.14062 14.2734 7.84375 14.2734 7.47656C14.2734 7.10938 13.9766 6.8125 13.6094 6.8125H6.00781C5.64844 6.8125 5.34375 7.10938 5.34375 7.47656Z" fill="#3B82F6"/>
<path d="M5.34375 11.5078C5.34375 11.875 5.64063 12.1719 6.00781 12.1719H9.71875C10.0859 12.1719 10.3828 11.875 10.3828 11.5078C10.3828 11.1406 10.0859 10.8438 9.71875 10.8438H6.00781C5.64844 10.8438 5.34375 11.1406 5.34375 11.5078Z" fill="#3B82F6"/>
<path d="M5.34375 15.4297C5.34375 15.7969 5.64062 16.0938 6.00781 16.0938H8.41406C8.78125 16.0938 9.07812 15.7969 9.07812 15.4297C9.07812 15.0625 8.78125 14.7656 8.41406 14.7656H6.00781C5.64844 14.7656 5.34375 15.0625 5.34375 15.4297Z" fill="#3B82F6"/>
</svg>
