<svg width="24" height="24" viewBox="0 0 24 24" fill="none" xmlns="http://www.w3.org/2000/svg">
<path d="M9.91407 10.7502H11.9974C12.2184 10.7502 12.4303 10.6624 12.5866 10.5061C12.7428 10.3498 12.8306 10.1379 12.8306 9.91689C12.8306 9.69589 12.7428 9.48395 12.5866 9.32768C12.4303 9.1714 12.2184 9.08359 11.9974 9.08355H11.1641V8.66689C11.164 8.44589 11.0762 8.23397 10.9199 8.07771C10.7637 7.92146 10.5517 7.83368 10.3307 7.83368C10.1097 7.83368 9.8978 7.92146 9.74152 8.07771C9.58525 8.23397 9.49744 8.44589 9.4974 8.66689V9.12522C8.99109 9.22803 8.54104 9.5153 8.23462 9.93127C7.9282 10.3472 7.78727 10.8622 7.83919 11.3763C7.89111 11.8903 8.13218 12.3667 8.5156 12.713C8.89901 13.0593 9.39742 13.2507 9.91407 13.2502H10.7474C10.8579 13.2502 10.9639 13.2941 11.042 13.3723C11.1202 13.4504 11.1641 13.5564 11.1641 13.6669C11.1641 13.7774 11.1202 13.8834 11.042 13.9615C10.9639 14.0397 10.8579 14.0836 10.7474 14.0836H8.66407C8.44308 14.0836 8.23115 14.1714 8.0749 14.3277C7.91864 14.484 7.83086 14.6959 7.83086 14.9169C7.83086 15.1379 7.91864 15.3498 8.0749 15.5061C8.23115 15.6624 8.44308 15.7502 8.66407 15.7502H9.4974V16.1669C9.49744 16.3879 9.58525 16.5998 9.74152 16.7561C9.8978 16.9123 10.1097 17.0001 10.3307 17.0001C10.5517 17.0001 10.7637 16.9123 10.9199 16.7561C11.0762 16.5998 11.164 16.3879 11.1641 16.1669V15.7086C11.6704 15.6057 12.1204 15.3185 12.4269 14.9025C12.7333 14.4865 12.8742 13.9715 12.8223 13.4575C12.7704 12.9435 12.5293 12.4671 12.1459 12.1208C11.7625 11.7745 11.264 11.583 10.7474 11.5836H9.91407C9.80356 11.5836 9.69758 11.5397 9.61944 11.4615C9.5413 11.3834 9.4974 11.2774 9.4974 11.1669C9.4974 11.0564 9.5413 10.9504 9.61944 10.8723C9.69758 10.7941 9.80356 10.7502 9.91407 10.7502ZM19.4974 12.0002H16.9974V4.50022C16.998 4.35338 16.9598 4.20899 16.8866 4.08167C16.8134 3.95436 16.7079 3.84864 16.5807 3.77522C16.4541 3.70208 16.3103 3.66357 16.1641 3.66357C16.0178 3.66357 15.8741 3.70208 15.7474 3.77522L13.2474 5.20855L10.7474 3.77522C10.6207 3.70208 10.477 3.66357 10.3307 3.66357C10.1845 3.66357 10.0408 3.70208 9.91407 3.77522L7.41407 5.20855L4.91407 3.77522C4.78739 3.70208 4.64368 3.66357 4.4974 3.66357C4.35112 3.66357 4.20742 3.70208 4.08074 3.77522C3.95357 3.84864 3.84805 3.95436 3.77488 4.08167C3.70171 4.20899 3.66349 4.35338 3.66407 4.50022V17.8336C3.66407 18.4966 3.92746 19.1325 4.3963 19.6013C4.86514 20.0702 5.50103 20.3336 6.16407 20.3336H17.8307C18.4938 20.3336 19.1297 20.0702 19.5985 19.6013C20.0673 19.1325 20.3307 18.4966 20.3307 17.8336V12.8336C20.3307 12.6125 20.2429 12.4006 20.0867 12.2443C19.9304 12.088 19.7184 12.0002 19.4974 12.0002ZM6.16407 18.6669C5.94306 18.6669 5.73109 18.5791 5.57481 18.4228C5.41853 18.2665 5.33074 18.0546 5.33074 17.8336V5.94189L6.9974 6.89189C7.12602 6.95906 7.26897 6.99415 7.41407 6.99415C7.55917 6.99415 7.70212 6.95906 7.83074 6.89189L10.3307 5.45855L12.8307 6.89189C12.9594 6.95906 13.1023 6.99415 13.2474 6.99415C13.3925 6.99415 13.5355 6.95906 13.6641 6.89189L15.3307 5.94189V17.8336C15.333 18.1178 15.3837 18.3997 15.4807 18.6669H6.16407ZM18.6641 17.8336C18.664 18.0545 18.5762 18.2665 18.4199 18.4227C18.2637 18.579 18.0517 18.6668 17.8307 18.6668C17.6097 18.6668 17.3978 18.579 17.2415 18.4227C17.0852 18.2665 16.9974 18.0545 16.9974 17.8336V13.6669H18.6641V17.8336Z" fill="#3B82F6"/>
</svg>
