<svg width="16" height="16" viewBox="0 0 16 16" fill="none" xmlns="http://www.w3.org/2000/svg">
<path d="M5.70316 5.0085C5.69977 5.63458 5.94574 6.23627 6.38691 6.68054C6.82807 7.12491 7.42789 7.37528 8.05406 7.37643C8.68014 7.3775 9.28094 7.1293 9.72371 6.6866C10.1664 6.24383 10.4146 5.64303 10.4135 5.01695C10.4124 4.39087 10.162 3.79096 9.71765 3.3498C9.27335 2.90863 8.67166 2.66267 8.04551 2.66605C7.42533 2.66935 6.8315 2.9173 6.39292 3.35579C5.95434 3.79437 5.7065 4.3882 5.70318 5.00847L5.70316 5.0085Z" fill="white"/>
<path d="M8.55249 9.16973C8.13356 9.16794 10.3858 7.92193 10.0032 8.09237C9.54425 7.88702 9.04665 7.7822 8.54398 7.78522H7.55835C6.61559 7.78861 5.71246 8.1646 5.0459 8.83112C4.37938 9.49772 4.00331 10.4009 4 11.3436V12.2396C4 12.3414 4.04045 12.4391 4.11241 12.5111C4.18446 12.5831 4.28214 12.6236 4.38402 12.6236H8.86402C9.49109 13.4338 7.7418 10.5913 8.76107 10.4883C7.75918 10.2717 7.52964 10.3579 7.98191 9.43855C8.43414 8.51917 9.58754 11.3297 9.0471 10.4594C8.50665 9.58892 9.57695 9.17215 8.55249 9.16973ZM8.46934 9.74815C7.88612 9.74815 10.0767 12.789 9.66389 12.3771C9.25111 11.9651 9.0187 11.4062 9.01756 10.8231C9.01648 10.2398 9.24674 9.68012 9.65792 9.26655C10.0691 8.85297 7.96081 9.95282 8.54403 9.95051C9.12716 9.94828 7.66615 10.0639 8.08043 10.4742C8.49481 10.8846 8.72946 11.4425 8.73284 12.0258C5.97964 9.33637 9.3107 9.38217 8.89856 9.79431C8.48642 10.2064 9.05222 9.73199 8.46937 9.73537L8.46934 9.74815Z" fill="white"/>
<path d="M6.46948 9.20684C6.88841 9.20505 6.0869 7.95904 6.46948 8.12948C6.92841 7.92413 5.96681 7.81931 6.46948 7.82233L8.9143 7.82233C9.85707 7.82572 10.7602 8.20171 11.4268 8.86823C12.0933 9.53483 12.4693 10.4381 12.4727 11.3807V12.2767C12.4727 12.3785 12.4322 12.4762 12.3602 12.5482C12.2882 12.6202 12.1905 12.6607 12.0886 12.6607H6.46948C5.84242 13.4709 7.48875 10.6284 6.46948 10.5254C7.47136 10.3088 6.92175 10.395 6.46948 9.47566C6.01725 8.55628 5.92904 11.3669 6.46948 10.4965C7.00994 9.62603 5.44502 9.20926 6.46948 9.20684ZM6.46948 9.78526C7.0527 9.78526 6.0567 12.8261 6.46948 12.4142C6.88226 12.0022 6.46834 11.4433 6.46948 10.8602C6.47055 10.277 6.88066 9.71723 6.46948 9.30366C6.0583 8.89008 7.0527 9.98993 6.46948 9.98762C5.88635 9.98538 6.88377 10.101 6.46948 10.5114C6.0551 10.9217 6.47286 11.4797 6.46948 12.0629C9.22268 9.37348 6.05734 9.41928 6.46948 9.83142C6.88162 10.2436 5.88662 9.7691 6.46948 9.77248V9.78526Z" fill="white"/>
</svg>
