<svg width="24" height="24" viewBox="0 0 24 24" fill="none" xmlns="http://www.w3.org/2000/svg">
<path d="M12 14.5C13.3807 14.5 14.5 13.3807 14.5 12C14.5 10.6193 13.3807 9.5 12 9.5C10.6193 9.5 9.5 10.6193 9.5 12C9.5 13.3807 10.6193 14.5 12 14.5Z" stroke="#3B82F6" stroke-width="1.25" stroke-linecap="round" stroke-linejoin="round"/>
<path d="M12.0026 6.99984C12.9231 6.99984 13.6693 6.25365 13.6693 5.33317C13.6693 4.4127 12.9231 3.6665 12.0026 3.6665C11.0821 3.6665 10.3359 4.4127 10.3359 5.33317C10.3359 6.25365 11.0821 6.99984 12.0026 6.99984Z" stroke="#3B82F6" stroke-width="1.25" stroke-linecap="round" stroke-linejoin="round"/>
<path d="M18.6667 13.6668C19.5871 13.6668 20.3333 12.9206 20.3333 12.0002C20.3333 11.0797 19.5871 10.3335 18.6667 10.3335C17.7462 10.3335 17 11.0797 17 12.0002C17 12.9206 17.7462 13.6668 18.6667 13.6668Z" stroke="#3B82F6" stroke-width="1.25" stroke-linecap="round" stroke-linejoin="round"/>
<path d="M5.33073 13.6668C6.2512 13.6668 6.9974 12.9206 6.9974 12.0002C6.9974 11.0797 6.2512 10.3335 5.33073 10.3335C4.41025 10.3335 3.66406 11.0797 3.66406 12.0002C3.66406 12.9206 4.41025 13.6668 5.33073 13.6668Z" stroke="#3B82F6" stroke-width="1.25" stroke-linecap="round" stroke-linejoin="round"/>
<path d="M12.0026 20.3333C12.9231 20.3333 13.6693 19.5871 13.6693 18.6667C13.6693 17.7462 12.9231 17 12.0026 17C11.0821 17 10.3359 17.7462 10.3359 18.6667C10.3359 19.5871 11.0821 20.3333 12.0026 20.3333Z" stroke="#3B82F6" stroke-width="1.25" stroke-linecap="round" stroke-linejoin="round"/>
<path d="M12 7V9.5" stroke="#3B82F6" stroke-width="1.25" stroke-linecap="round" stroke-linejoin="round"/>
<path d="M14.5 12H17" stroke="#3B82F6" stroke-width="1.25" stroke-linecap="round" stroke-linejoin="round"/>
<path d="M12 14.5V17" stroke="#3B82F6" stroke-width="1.25" stroke-linecap="round" stroke-linejoin="round"/>
<path d="M9.5 12H7" stroke="#3B82F6" stroke-width="1.25" stroke-linecap="round" stroke-linejoin="round"/>
</svg>
