<svg width="16" height="16" viewBox="0 0 16 16" fill="none" xmlns="http://www.w3.org/2000/svg">
<path d="M8.0013 11.3327C8.35492 11.3327 8.69406 11.1922 8.94411 10.9422C9.19416 10.6921 9.33464 10.353 9.33464 9.99935C9.33464 9.25935 8.73464 8.66602 8.0013 8.66602C7.64768 8.66602 7.30854 8.80649 7.05849 9.05654C6.80844 9.30659 6.66797 9.64573 6.66797 9.99935C6.66797 10.353 6.80844 10.6921 7.05849 10.9422C7.30854 11.1922 7.64768 11.3327 8.0013 11.3327ZM12.0013 5.33268C12.3549 5.33268 12.6941 5.47316 12.9441 5.72321C13.1942 5.97326 13.3346 6.31239 13.3346 6.66602V13.3327C13.3346 13.6863 13.1942 14.0254 12.9441 14.2755C12.6941 14.5255 12.3549 14.666 12.0013 14.666H4.0013C3.64768 14.666 3.30854 14.5255 3.05849 14.2755C2.80844 14.0254 2.66797 13.6863 2.66797 13.3327V6.66602C2.66797 5.92602 3.26797 5.33268 4.0013 5.33268H4.66797V3.99935C4.66797 3.11529 5.01916 2.26745 5.64428 1.64233C6.2694 1.01721 7.11725 0.666016 8.0013 0.666016C8.43904 0.666016 8.87249 0.752235 9.27691 0.919751C9.68133 1.08727 10.0488 1.3328 10.3583 1.64233C10.6679 1.95185 10.9134 2.31932 11.0809 2.72374C11.2484 3.12816 11.3346 3.56161 11.3346 3.99935V5.33268H12.0013ZM8.0013 1.99935C7.47087 1.99935 6.96216 2.21006 6.58709 2.58514C6.21202 2.96021 6.0013 3.46892 6.0013 3.99935V5.33268H10.0013V3.99935C10.0013 3.46892 9.79059 2.96021 9.41552 2.58514C9.04044 2.21006 8.53174 1.99935 8.0013 1.99935Z" fill="white"/>
</svg>
