<svg width="24" height="24" viewBox="0 0 24 24" fill="none" xmlns="http://www.w3.org/2000/svg">
<g clip-path="url(#clip0_29709_99623)">
<path fill-rule="evenodd" clip-rule="evenodd" d="M14.4964 17.8332C14.4964 18.7118 13.8165 19.4316 12.9541 19.4953L12.8298 19.4998H11.1631C10.2844 19.4998 9.56461 18.82 9.50099 17.9576L9.49642 17.8332H14.4964ZM11.9966 3.6665C15.1511 3.6665 17.7208 6.17049 17.8265 9.2993L17.8299 9.49984V12.6364L19.3483 15.6733C19.6385 16.2537 19.2503 16.9318 18.6241 16.995L18.5284 16.9998H5.46473C4.81574 16.9998 4.38283 16.3494 4.60633 15.761L4.64483 15.6733L6.16322 12.6364V9.49984C6.16322 6.27818 8.77489 3.6665 11.9966 3.6665ZM11.9966 5.33317C9.75593 5.33317 7.92837 7.10176 7.83373 9.3191L7.82988 9.49984V12.6364C7.82988 12.8434 7.79133 13.0481 7.71666 13.2403L7.65393 13.3818L6.67825 15.3332H17.3148L16.3392 13.3818C16.2466 13.1966 16.1896 12.9963 16.1704 12.7911L16.1633 12.6364V9.49984C16.1633 7.19865 14.2978 5.33317 11.9966 5.33317Z" fill="#3B82F6"/>
</g>
<defs>
<clipPath id="clip0_29709_99623">
<rect width="20" height="20" fill="white" transform="translate(2 2)"/>
</clipPath>
</defs>
</svg>
