<svg width="24" height="24" viewBox="0 0 24 24" fill="none" xmlns="http://www.w3.org/2000/svg">
<path d="M16.1693 19.5V17.8333C16.1693 16.9493 15.8181 16.1014 15.193 15.4763C14.5678 14.8512 13.72 14.5 12.8359 14.5H6.16927C5.28522 14.5 4.43737 14.8512 3.81225 15.4763C3.18713 16.1014 2.83594 16.9493 2.83594 17.8333V19.5" stroke="#3B82F6" stroke-width="1.5" stroke-linecap="round" stroke-linejoin="round"/>
<path d="M9.4974 11.1667C11.3383 11.1667 12.8307 9.67428 12.8307 7.83333C12.8307 5.99238 11.3383 4.5 9.4974 4.5C7.65645 4.5 6.16406 5.99238 6.16406 7.83333C6.16406 9.67428 7.65645 11.1667 9.4974 11.1667Z" stroke="#3B82F6" stroke-width="1.5" stroke-linecap="round" stroke-linejoin="round"/>
<path d="M21.1641 19.5001V17.8334C21.1635 17.0948 20.9177 16.3774 20.4652 15.7937C20.0127 15.2099 19.3792 14.793 18.6641 14.6084" stroke="#3B82F6" stroke-width="1.5" stroke-linecap="round" stroke-linejoin="round"/>
<path d="M15.3359 4.6084C16.053 4.79198 16.6885 5.20898 17.1423 5.79366C17.5961 6.37833 17.8425 7.09742 17.8425 7.83757C17.8425 8.57771 17.5961 9.2968 17.1423 9.88147C16.6885 10.4661 16.053 10.8831 15.3359 11.0667" stroke="#3B82F6" stroke-width="1.5" stroke-linecap="round" stroke-linejoin="round"/>
</svg>
