<svg width="40" height="40" viewBox="0 0 40 40" fill="none" xmlns="http://www.w3.org/2000/svg">
<rect width="40" height="40" rx="2" fill="#FED931"/>
<path d="M28.1372 9.67188H23.7451V11.5666H28.1372C28.3073 11.5666 28.451 11.7112 28.451 11.8824V31.4613C28.451 31.6325 28.3073 31.7771 28.1372 31.7771H11.1961C11.0261 31.7771 10.8824 31.6325 10.8824 31.4613V11.8824C10.8824 11.7112 11.026 11.5666 11.1961 11.5666H15.5882V9.67188H11.1961C9.98512 9.67188 9 10.6635 9 11.8824V31.4613C9 32.68 9.98512 33.6719 11.1961 33.6719H28.1372C29.3479 33.6719 30.3333 32.68 30.3333 31.4613V11.8824C30.3333 10.6634 29.3479 9.67188 28.1372 9.67188V9.67188Z" fill="#000522"/>
<path d="M17.6784 14.8771H13.8772C13.3927 14.8771 13 15.3088 13 15.8416V20.0213C13 20.5541 13.3927 20.9858 13.8772 20.9858H17.6784C18.1628 20.9858 18.5556 20.5541 18.5556 20.0213V15.8416C18.5556 15.3088 18.1629 14.8771 17.6784 14.8771V14.8771ZM16.8012 19.0567H14.7544V16.8061H16.8012V19.0567V19.0567ZM25.4561 16.9669H21.1287C20.6442 16.9669 20.2515 17.3987 20.2515 17.9314C20.2515 18.4642 20.6442 18.896 21.1287 18.896H25.4561C25.9406 18.896 26.3333 18.4642 26.3333 17.9314C26.3333 17.3987 25.9406 16.9669 25.4561 16.9669ZM17.6784 23.5579H13.8772C13.3927 23.5579 13 23.9897 13 24.5225V28.7021C13 29.2348 13.3927 29.6667 13.8772 29.6667H17.6784C18.1628 29.6667 18.5556 29.2348 18.5556 28.7021V24.5225C18.5556 23.9897 18.1629 23.5579 17.6784 23.5579ZM16.8012 27.7376H14.7544V25.487H16.8012V27.7376V27.7376ZM25.4561 25.6477H21.1287C20.6442 25.6477 20.2515 26.0795 20.2515 26.6123C20.2515 27.145 20.6442 27.5768 21.1287 27.5768H25.4561C25.9406 27.5768 26.3333 27.145 26.3333 26.6123C26.3333 26.0795 25.9406 25.6477 25.4561 25.6477ZM23.4678 7H15.8655C15.381 7 14.9883 7.43182 14.9883 7.96454V12.1442C14.9883 12.6769 15.381 13.1088 15.8655 13.1088H23.4678C23.9523 13.1088 24.345 12.6769 24.345 12.1442V7.96454C24.345 7.43182 23.9523 7 23.4678 7ZM22.5907 11.1797H16.7427V8.92907H22.5907V11.1797Z" fill="#000522"/>
</svg>
