<svg width="32" height="32" viewBox="0 0 32 32" fill="none" xmlns="http://www.w3.org/2000/svg">
<path d="M15.5 11.3711C13.2909 11.3711 11.5 13.162 11.5 15.3711C11.5 17.5802 13.2909 19.3711 15.5 19.3711C17.7091 19.3711 19.5 17.5802 19.5 15.3711C19.5 13.162 17.7091 11.3711 15.5 11.3711ZM13.5 15.3711C13.5 14.2665 14.3954 13.3711 15.5 13.3711C16.6046 13.3711 17.5 14.2665 17.5 15.3711C17.5 16.4757 16.6046 17.3711 15.5 17.3711C14.3954 17.3711 13.5 16.4757 13.5 15.3711Z" fill="#000522"/>
<path d="M20.736 8.16385C19.966 8.30369 19.2278 7.79545 19.0874 7.02867L18.5679 4.19711C18.5163 3.91573 18.2992 3.69321 18.0182 3.63369C17.1964 3.45961 16.3537 3.37109 15.5 3.37109C14.6458 3.37109 13.8026 3.45973 12.9803 3.63401C12.6992 3.69359 12.4821 3.91623 12.4306 4.19773L11.9126 7.02879C11.8988 7.10407 11.8788 7.17821 11.8529 7.25039C11.5895 7.98437 10.7784 8.36675 10.0412 8.10445L7.3223 7.13645C7.05206 7.04023 6.75022 7.11581 6.55782 7.32785C5.4201 8.58177 4.55784 10.0614 4.0344 11.6732C3.9461 11.9452 4.03124 12.2433 4.25004 12.4283L6.45388 14.2913C6.51252 14.3409 6.56704 14.3952 6.61686 14.4536C7.12354 15.0477 7.05056 15.9384 6.45386 16.4429L4.25004 18.3059C4.03124 18.4909 3.9461 18.789 4.0344 19.0609C4.55784 20.6728 5.4201 22.1524 6.55782 23.4064C6.75022 23.6184 7.05206 23.694 7.3223 23.5978L10.0414 22.6296C10.1137 22.604 10.1882 22.584 10.2639 22.5702C11.034 22.4304 11.7722 22.9386 11.9126 23.7054L12.4306 26.5364C12.4821 26.818 12.6992 27.0406 12.9803 27.1002C13.8026 27.2744 14.6458 27.363 15.5 27.363C16.3537 27.363 17.1964 27.2746 18.0182 27.1004C18.2992 27.041 18.5163 26.8184 18.5679 26.537L19.0874 23.7056C19.1012 23.63 19.1212 23.556 19.1471 23.4838C19.4105 22.7498 20.2216 22.3674 20.9588 22.6296L23.6776 23.5978C23.948 23.694 24.2498 23.6184 24.4422 23.4064C25.58 22.1524 26.4422 20.6728 26.9656 19.0609C27.054 18.789 26.9688 18.4909 26.75 18.3059L24.5462 16.4428C24.4874 16.3933 24.433 16.339 24.3832 16.2805C23.8764 15.6864 23.9494 14.7958 24.5462 14.2913L26.75 12.4283C26.9688 12.2433 27.054 11.9452 26.9656 11.6732C26.4422 10.0614 25.58 8.58177 24.4422 7.32785C24.2498 7.11581 23.948 7.04023 23.6776 7.13645L20.9586 8.10449C20.8862 8.13023 20.8118 8.15011 20.736 8.16385ZM7.49726 9.32171L9.37044 9.98859C11.1403 10.6184 13.0974 9.70349 13.7354 7.92599C13.7981 7.75133 13.8465 7.57139 13.8799 7.38875L14.2348 5.44945C14.6514 5.39743 15.0737 5.37109 15.5 5.37109C15.926 5.37109 16.3479 5.39739 16.7643 5.44933L17.1202 7.38953C17.4611 9.24879 19.2453 10.4673 21.0934 10.1317C21.2754 10.0986 21.455 10.0507 21.6294 9.98865L23.5028 9.32171C24.0128 9.98887 24.4368 10.7167 24.7638 11.4885L23.2548 12.764C21.8132 13.9829 21.635 16.1402 22.8614 17.5783C22.9816 17.7194 23.1134 17.8505 23.255 17.9702L24.7638 19.2457C24.4368 20.0174 24.0128 20.7452 23.5028 21.4124L21.6292 20.7454C19.8594 20.1156 17.9026 21.0306 17.2646 22.8082C17.2019 22.9828 17.1535 23.1628 17.1201 23.3454L16.7643 25.2848C16.3479 25.3368 15.926 25.363 15.5 25.363C15.0737 25.363 14.6514 25.3368 14.2348 25.2846L13.8799 23.3452C13.5393 21.4856 11.7549 20.2668 9.9066 20.6024C9.72454 20.6356 9.545 20.6834 9.37056 20.7456L7.49726 21.4124C6.98714 20.7452 6.56322 20.0174 6.23628 19.2457L7.74514 17.9702C9.18686 16.7512 9.36508 14.594 8.13866 13.1559C8.01834 13.0148 7.88664 12.8836 7.74508 12.764L6.23628 11.4885C6.56322 10.7167 6.98714 9.98887 7.49726 9.32171Z" fill="#000522"/>
</svg>
