<svg width="22" height="22" viewBox="0 0 22 22" fill="none" xmlns="http://www.w3.org/2000/svg">
<g clip-path="url(#clip0_13462_8276)">
<path d="M8.47911 0H1.60411C0.719559 0 0 0.719559 0 1.60411V5.72911C0 6.61383 0.719559 7.33339 1.60411 7.33339H8.47911C9.36383 7.33339 10.0834 6.61383 10.0834 5.72911V1.60411C10.0834 0.719559 9.36383 0 8.47911 0Z" fill="#93C5FD"/>
<path d="M8.47911 9.16699H1.60411C0.719559 9.16699 0 9.88655 0 10.7713V20.3963C0 21.2808 0.719559 22.0004 1.60411 22.0004H8.47911C9.36383 22.0004 10.0834 21.2808 10.0834 20.3963V10.7713C10.0834 9.88655 9.36383 9.16699 8.47911 9.16699Z" fill="#60A5FA"/>
<path d="M20.3972 14.667H13.5222C12.6375 14.667 11.918 15.3866 11.918 16.2713V20.3963C11.918 21.2808 12.6375 22.0004 13.5222 22.0004H20.3972C21.2818 22.0004 22.0014 21.2808 22.0014 20.3963V16.2713C22.0014 15.3866 21.2818 14.667 20.3972 14.667Z" fill="#93C5FD"/>
<path d="M20.3972 0H13.5222C12.6375 0 11.918 0.719559 11.918 1.60411V11.2291C11.918 12.1138 12.6375 12.8334 13.5222 12.8334H20.3972C21.2818 12.8334 22.0014 12.1138 22.0014 11.2291V1.60411C22.0014 0.719559 21.2818 0 20.3972 0Z" fill="#60A5FA"/>
</g>
<defs>
<clipPath id="clip0_13462_8276">
<rect width="22" height="22" fill="white"/>
</clipPath>
</defs>
</svg>
