<svg width="28" height="28" viewBox="0 0 28 28" fill="none" xmlns="http://www.w3.org/2000/svg">
<path d="M11.3 23H16.7C21.2 23 23 21.2 23 16.7V11.3C23 6.8 21.2 5 16.7 5H11.3C6.8 5 5 6.8 5 11.3V16.7C5 21.2 6.8 23 11.3 23Z" stroke="#374151" stroke-width="1.25" stroke-linecap="round" stroke-linejoin="round"/>
<path d="M17.2148 19.8491V15" stroke="#374151" stroke-miterlimit="10" stroke-linecap="round" stroke-linejoin="round"/>
<path d="M17.2148 9.90526V8.15039" stroke="#374151" stroke-miterlimit="10" stroke-linecap="round" stroke-linejoin="round"/>
<path d="M17.2148 14.5854C18.5071 14.5854 19.5547 13.5378 19.5547 12.2456C19.5547 10.9533 18.5071 9.90576 17.2148 9.90576C15.9226 9.90576 14.875 10.9533 14.875 12.2456C14.875 13.5378 15.9226 14.5854 17.2148 14.5854Z" stroke="#374151" stroke-miterlimit="10" stroke-linecap="round" stroke-linejoin="round"/>
<path d="M11 19.8496V18.0947" stroke="#374151" stroke-miterlimit="10" stroke-linecap="round" stroke-linejoin="round"/>
<path d="M11 14V8.15039" stroke="#374151" stroke-miterlimit="10" stroke-linecap="round" stroke-linejoin="round"/>
<path d="M11 18C12.1046 18 13 17.1045 13 16C13 14.8955 12.1046 14 11 14C9.89543 14 9 14.8955 9 16C9 17.1045 9.89543 18 11 18Z" stroke="#374151" stroke-miterlimit="10" stroke-linecap="round" stroke-linejoin="round"/>
</svg>
