<svg width="28" height="23" viewBox="0 0 28 23" fill="none" xmlns="http://www.w3.org/2000/svg">
<path d="M10.5435 1.88762C11.0918 1.62354 11.7306 1.62354 12.279 1.88762L18.6833 4.97177C19.2317 5.23585 19.63 5.73527 19.7654 6.32866L21.3471 13.2587C21.4826 13.8521 21.3404 14.4748 20.9609 14.9507L16.529 20.5081C16.1495 20.984 15.574 21.2612 14.9654 21.2612H7.85712C7.24847 21.2612 6.67294 20.984 6.29346 20.5081L1.86154 14.9507C1.48206 14.4748 1.33991 13.8521 1.47535 13.2587L3.05708 6.32866C3.19252 5.73527 3.5908 5.23585 4.13917 4.97177L10.5435 1.88762Z" stroke="white" stroke-width="1.5"/>
<path d="M13.3438 2.25003L15.9761 0.982348C16.5245 0.718265 17.1633 0.718265 17.7117 0.982348L24.116 4.06649C24.6643 4.33058 25.0626 4.83 25.198 5.42339L26.7798 12.3534C26.9152 12.9468 26.7731 13.5696 26.3936 14.0454L21.9617 19.6029C21.5822 20.0787 21.0067 20.3559 20.398 20.3559H17.2959" stroke="white" stroke-width="0.8"/>
</svg>
