<svg width="26" height="22" viewBox="0 0 26 22" fill="none" xmlns="http://www.w3.org/2000/svg">
<g clip-path="url(#clip0_12569_11888)">
<path d="M20.8181 5.57668C20.733 5.42923 20.6098 5.30386 20.4572 5.21577L11.9177 0.285452C11.6126 0.109277 11.2367 0.109277 10.9316 0.285452L2.39216 5.21577C2.23963 5.30386 2.11637 5.42928 2.03125 5.57668L11.4247 11.0001L20.8181 5.57668Z" fill="#DBEAFE"/>
<path d="M11.4258 21.8463C11.596 21.8463 11.7663 21.8023 11.9188 21.7142L20.4583 16.7838C20.7634 16.6076 20.9513 16.2821 20.9513 15.9299V6.06919C20.9513 5.89302 20.9043 5.72362 20.8192 5.57617L11.4258 10.9996V21.8463Z" fill="#93C5FD"/>
<path d="M10.931 21.7142C11.0836 21.8023 11.2538 21.8463 11.4241 21.8463V10.9996L2.03059 5.57617C1.94547 5.72362 1.89844 5.89302 1.89844 6.06919V15.9299C1.89844 16.2822 2.08639 16.6077 2.39146 16.7838L10.931 21.7142Z" fill="#3B82F6"/>
<path fill-rule="evenodd" clip-rule="evenodd" d="M18.598 13.5551L18.7239 16.759C18.7277 16.8543 18.7684 16.9444 18.8374 17.0103C18.9064 17.0762 18.9983 17.1126 19.0937 17.112L19.458 17.1093C19.5519 17.1087 19.642 17.0721 19.7098 17.0071C19.7775 16.9421 19.8178 16.8536 19.8223 16.7598L19.9796 13.5514C19.982 13.5014 19.9742 13.4513 19.9566 13.4044C19.939 13.3575 19.912 13.3147 19.8773 13.2786C19.8425 13.2425 19.8007 13.2139 19.7545 13.1945C19.7083 13.1752 19.6586 13.1655 19.6085 13.166L18.961 13.1731C18.9119 13.1737 18.8634 13.184 18.8184 13.2037C18.7733 13.2233 18.7327 13.2517 18.6988 13.2873C18.665 13.3229 18.6386 13.3649 18.6213 13.4109C18.6039 13.4569 18.596 13.5059 18.5979 13.555L18.598 13.5551Z" fill="#ECEFF1"/>
<path fill-rule="evenodd" clip-rule="evenodd" d="M19.9795 13.5524L19.8223 16.7608C19.8178 16.8546 19.7775 16.9431 19.7097 17.0081C19.642 17.0731 19.5518 17.1097 19.4579 17.1103L19.0937 17.113C18.9983 17.1136 18.9063 17.0771 18.8373 17.0113C18.7683 16.9454 18.7276 16.8553 18.7238 16.76L18.5979 13.556C18.596 13.507 18.6039 13.458 18.6213 13.412C18.6386 13.366 18.6649 13.324 18.6988 13.2884C18.7327 13.2528 18.7733 13.2244 18.8184 13.2048C18.8634 13.1851 18.9119 13.1748 18.961 13.1742L19.6085 13.1671C19.6586 13.1666 19.7083 13.1763 19.7545 13.1956C19.8007 13.215 19.8425 13.2436 19.8773 13.2797C19.912 13.3158 19.939 13.3586 19.9566 13.4055C19.9742 13.4524 19.982 13.5025 19.9796 13.5525L19.9795 13.5524ZM18.3605 10.5604L15.8867 14.7765L13.6117 18.6543C13.4988 18.8453 13.4352 19.0614 13.4268 19.2831C13.4183 19.5048 13.4652 19.7251 13.5633 19.9241C13.7623 20.3358 14.1214 20.5752 14.54 20.5752H24.0375C24.4561 20.5752 24.8152 20.3358 25.0142 19.9241C25.1123 19.7251 25.1592 19.5048 25.1508 19.2831C25.1423 19.0614 25.0787 18.8453 24.9658 18.6543L22.6908 14.7765L20.2171 10.5604C20.0057 10.2001 19.6742 10 19.2887 10C18.9032 10 18.5717 10.2001 18.3604 10.5604H18.3605ZM19.2908 17.9791C19.4208 17.9826 19.5469 18.0244 19.6533 18.0991C19.7597 18.1739 19.8417 18.2784 19.889 18.3995C19.9364 18.5207 19.9469 18.6531 19.9194 18.7802C19.8919 18.9073 19.8276 19.0235 19.7344 19.1142C19.6412 19.2049 19.5234 19.2662 19.3956 19.2903C19.2678 19.3144 19.1357 19.3003 19.0159 19.2498C18.896 19.1992 18.7938 19.1145 18.7218 19.0061C18.6499 18.8978 18.6115 18.7706 18.6115 18.6405C18.6139 18.4627 18.6868 18.2932 18.8142 18.1691C18.9416 18.0451 19.113 17.9767 19.2909 17.9791H19.2908Z" fill="#FE646F"/>
<path fill-rule="evenodd" clip-rule="evenodd" d="M19.9683 18.6411C19.9719 18.5059 19.9351 18.3728 19.8627 18.2587C19.7902 18.1445 19.6853 18.0546 19.5615 18.0004C19.4377 17.9462 19.3005 17.9301 19.1675 17.9543C19.0345 17.9785 18.9117 18.0417 18.8149 18.136C18.718 18.2304 18.6515 18.3514 18.6238 18.4837C18.5961 18.616 18.6085 18.7536 18.6594 18.8788C18.7103 19.0041 18.7974 19.1113 18.9095 19.1867C19.0217 19.2622 19.1538 19.3025 19.289 19.3025C19.4668 19.3049 19.6382 19.2365 19.7656 19.1125C19.893 18.9884 19.9659 18.8189 19.9683 18.6411Z" fill="#ECEFF1"/>
</g>
<defs>
<clipPath id="clip0_12569_11888">
<rect width="24.8477" height="21.6935" fill="white" transform="translate(0.578125 0.15332)"/>
</clipPath>
</defs>
</svg>
