<svg width="22" height="22" viewBox="0 0 22 22" fill="none" xmlns="http://www.w3.org/2000/svg">
<path fill-rule="evenodd" clip-rule="evenodd" d="M3.21062 18.5625C6.21225 18.5625 15.7898 18.5625 18.7914 18.5542C19.6488 18.5542 20.4181 18.0187 20.7157 17.2123C20.7171 17.2095 20.7178 17.2068 20.7185 17.204C21.1028 16.1239 21.3125 14.9614 21.3125 13.75C21.3125 8.05819 16.6918 3.4375 11 3.4375C5.30819 3.4375 0.6875 8.05819 0.6875 13.75C0.6875 14.9593 0.896499 16.1198 1.27119 17.2019C1.27256 17.2061 1.27394 17.2109 1.276 17.215C1.57506 18.0249 2.34781 18.5625 3.21131 18.5625H3.21062ZM3.21062 17.1875C2.92737 17.1875 2.67369 17.0142 2.57056 16.7509C2.24331 15.8049 2.0625 14.7984 2.0625 13.75C2.0625 8.81719 6.06719 4.8125 11 4.8125C15.9328 4.8125 19.9375 8.81719 19.9375 13.75C19.9375 14.7978 19.7567 15.8036 19.4253 16.7379C19.3256 17.0033 19.0726 17.1792 18.7894 17.1792C18.7887 17.1792 18.788 17.1792 18.7873 17.1792C15.7871 17.1875 6.21156 17.1875 3.21062 17.1875Z" fill="#374151"/>
<path fill-rule="evenodd" clip-rule="evenodd" d="M4.93625 14.9882C4.85513 14.5881 4.8125 14.1742 4.8125 13.75C4.8125 10.3352 7.58519 7.5625 11 7.5625C11.8793 7.5625 12.7167 7.74606 13.4743 8.07812C13.8222 8.23006 14.2278 8.07125 14.3797 7.72338C14.5317 7.3755 14.3729 6.96987 14.0257 6.81794C13.0989 6.413 12.0752 6.1875 11 6.1875C6.82619 6.1875 3.4375 9.57619 3.4375 13.75C3.4375 14.2677 3.48975 14.7737 3.58944 15.2618C3.66506 15.6337 4.02806 15.8744 4.4 15.7988C4.77194 15.7231 5.01188 15.3601 4.93625 14.9882Z" fill="#374151"/>
<path fill-rule="evenodd" clip-rule="evenodd" d="M16.6709 11.2756C17.003 12.0332 17.1865 12.8706 17.1865 13.7499C17.1865 14.1741 17.1439 14.588 17.0628 14.9881C16.9872 15.36 17.2271 15.723 17.599 15.7986C17.971 15.8743 18.334 15.6336 18.4096 15.2617C18.5093 14.7736 18.5615 14.2676 18.5615 13.7499C18.5615 12.6746 18.336 11.651 17.9311 10.7242C17.7792 10.377 17.3735 10.2182 17.0257 10.3701C16.6778 10.5221 16.519 10.9277 16.6709 11.2756Z" fill="#374151"/>
<path fill-rule="evenodd" clip-rule="evenodd" d="M11.8889 11.8889L15.3746 8.40324C15.6427 8.13512 16.0786 8.13512 16.3467 8.40324C16.6148 8.67137 16.6148 9.10724 16.3467 9.37537L12.8611 12.861C12.9903 13.1298 13.0625 13.4316 13.0625 13.7499C13.0625 14.8884 12.1385 15.8124 11 15.8124C9.8615 15.8124 8.9375 14.8884 8.9375 13.7499C8.9375 12.6114 9.8615 11.6874 11 11.6874C11.3183 11.6874 11.6201 11.7596 11.8889 11.8889ZM11 13.0624C11.3795 13.0624 11.6875 13.3704 11.6875 13.7499C11.6875 14.1294 11.3795 14.4374 11 14.4374C10.6205 14.4374 10.3125 14.1294 10.3125 13.7499C10.3125 13.3704 10.6205 13.0624 11 13.0624Z" fill="#374151"/>
</svg>
