<svg width="16" height="16" viewBox="0 0 16 16" fill="none" xmlns="http://www.w3.org/2000/svg">
<g clip-path="url(#clip0_19817_66080)">
<path d="M8 2.06602C9.76667 2.56602 11.7 3.16602 12.6667 3.49935V8.73268C12.6667 9.86602 11.4333 11.866 8 13.866C4.56667 11.8327 3.33333 9.86602 3.33333 8.73268V3.49935C4.3 3.13268 6.23333 2.56602 8 2.06602ZM8 0.666016C8 0.666016 2 2.36602 2 2.66602V8.73268C2 11.7993 6.43333 14.4993 7.66667 15.2327C7.76533 15.2986 7.88133 15.3338 8 15.3338C8.11867 15.3338 8.23467 15.2986 8.33333 15.2327C9.6 14.5327 14 11.7993 14 8.73268V2.66602C14 2.36602 8 0.666016 8 0.666016Z" fill="#3B82F6"/>
<path d="M6.53428 9.79974L4.86761 8.16641C4.75212 8.04836 4.68208 7.89328 4.66988 7.72859C4.65768 7.56389 4.70411 7.40018 4.80095 7.26641C4.8549 7.18607 4.92655 7.11917 5.01038 7.07083C5.09422 7.0225 5.18802 6.99402 5.28458 6.98758C5.38114 6.98115 5.47789 6.99692 5.5674 7.0337C5.65691 7.07048 5.7368 7.12728 5.80095 7.19974L7.00095 8.39974L10.2009 5.19974C10.3293 5.10345 10.4881 5.05671 10.6482 5.06808C10.8083 5.07946 10.9589 5.1482 11.0723 5.26167C11.1858 5.37514 11.2546 5.52574 11.2659 5.68581C11.2773 5.84589 11.2306 6.00469 11.1343 6.13307L7.46761 9.79974C7.40828 9.8644 7.33617 9.91603 7.25583 9.95135C7.1755 9.98666 7.0887 10.0049 7.00095 10.0049C6.91319 10.0049 6.82639 9.98666 6.74606 9.95135C6.66572 9.91603 6.59361 9.8644 6.53428 9.79974Z" fill="#3B82F6"/>
</g>
<defs>
<clipPath id="clip0_19817_66080">
<rect width="16" height="16" fill="white"/>
</clipPath>
</defs>
</svg>
