<svg width="22" height="22" viewBox="0 0 22 22" fill="none" xmlns="http://www.w3.org/2000/svg">
<path d="M8.61885 3.99384C8.05635 4.32926 7.05634 8.69912 6.62665 10.8421C4.71258 11.1217 2.52508 12.0148 5.68915 12.6591C9.53292 13.4417 14.5564 12.892 16.5877 12.5193C18.9314 11.8205 17.7595 11.541 16.1189 10.8422C15.6501 3.71436 14.5955 3.1553 14.0095 3.01545C13.4236 2.87578 12.9158 3.71435 12.6033 4.27345C11.9001 5.95058 10.9626 6.2301 10.7282 6.09025C10.4501 5.92436 9.32198 3.57455 8.61885 3.99384Z" stroke="#374151"/>
<path d="M10.9442 15.151C10.3252 14.4853 6.81726 14.5962 5.14069 14.7349H5.01172V15.567C5.52759 15.7057 5.78552 16.8152 5.78552 17.6474C5.78552 18.3131 6.30139 18.7569 6.55933 18.8956C7.0752 19.0343 8.10694 19.0343 8.88074 18.8956C11.2022 18.0635 10.6863 15.9831 11.0732 15.8444C11.3827 15.7334 11.632 15.7982 11.718 15.8444C12.2339 19.3117 14.8132 19.0343 16.1029 18.8956C17.3926 18.7569 17.1347 16.9539 17.2636 16.3992C17.3668 15.9553 17.7365 15.6595 17.9085 15.567V14.7349C12.6208 13.9029 12.6208 15.0122 12.1049 15.151C11.5891 15.2898 11.718 15.2896 10.9442 15.151Z" fill="#374151"/>
</svg>
