<svg width="22" height="22" viewBox="0 0 22 22" fill="none" xmlns="http://www.w3.org/2000/svg">
<path d="M4.61864 14.0195C4.61864 14.0195 4.38569 17.9798 7.00643 20.8917C7.00643 20.8917 4.15923 21.5689 3.10443 18.2127C2.14349 15.1552 4.61864 14.0195 4.61864 14.0195Z" fill="url(#paint0_linear_25623_97001)"/>
<path d="M4.61864 14.0195C4.61864 14.0195 4.38569 17.9798 7.00643 20.8917C7.00643 20.8917 4.15923 21.5689 3.10443 18.2127C2.14349 15.1552 4.61864 14.0195 4.61864 14.0195Z" stroke="#FFEAA5"/>
<path d="M7.85982 13.4961C7.85982 13.4961 7.65688 16.946 9.93994 19.4828C9.93994 19.4828 7.45961 20.0727 6.54072 17.149C5.7036 14.4854 7.85982 13.4961 7.85982 13.4961Z" fill="url(#paint1_linear_25623_97001)"/>
<path d="M7.85982 13.4961C7.85982 13.4961 7.65688 16.946 9.93994 19.4828C9.93994 19.4828 7.45961 20.0727 6.54072 17.149C5.7036 14.4854 7.85982 13.4961 7.85982 13.4961Z" stroke="#FFEAA5"/>
<path d="M1.85096 16.5156C1.85096 16.5156 1.6933 19.1959 3.467 21.1667C3.467 21.1667 1.77808 21.2709 1.05737 19.2762C0.520357 17.7899 1.85096 16.5156 1.85096 16.5156Z" fill="url(#paint2_linear_25623_97001)"/>
<path d="M1.85096 16.5156C1.85096 16.5156 1.6933 19.1959 3.467 21.1667C3.467 21.1667 1.77808 21.2709 1.05737 19.2762C0.520357 17.7899 1.85096 16.5156 1.85096 16.5156Z" stroke="#FFEAA5"/>
<path d="M10.6011 12.4615C10.6011 12.4615 4.74813 5.12338 0.729656 8.35563C-3.28882 11.5879 10.6011 12.4615 10.6011 12.4615Z" fill="url(#paint3_linear_25623_97001)"/>
<path d="M10.6011 12.4615C10.6011 12.4615 4.74813 5.12338 0.729656 8.35563C-3.28882 11.5879 10.6011 12.4615 10.6011 12.4615Z" stroke="#FFEAA5"/>
<path d="M12.6349 17.1253C13.6371 17.1253 14.4495 16.3129 14.4495 15.3107C14.4495 14.3085 13.6371 13.4961 12.6349 13.4961C11.6327 13.4961 10.8203 14.3085 10.8203 15.3107C10.8203 16.3129 11.6327 17.1253 12.6349 17.1253Z" fill="url(#paint4_linear_25623_97001)"/>
<path d="M12.6349 17.1253C13.6371 17.1253 14.4495 16.3129 14.4495 15.3107C14.4495 14.3085 13.6371 13.4961 12.6349 13.4961C11.6327 13.4961 10.8203 14.3085 10.8203 15.3107C10.8203 16.3129 11.6327 17.1253 12.6349 17.1253Z" stroke="#FFEAA5"/>
<path d="M18.7354 11.4631C18.7591 11.5576 18.82 11.6423 18.9081 11.703C18.9961 11.7637 19.106 11.7969 19.2192 11.7969C19.3325 11.7969 19.4424 11.7637 19.5304 11.703C19.6185 11.6423 19.6794 11.5576 19.703 11.4631C19.8561 10.8469 20.0658 10.4314 20.356 10.1357C20.639 9.84553 21.0347 9.63356 21.6422 9.48006C21.7444 9.4542 21.8341 9.40087 21.8979 9.32802C21.9616 9.25517 21.9961 9.1667 21.9961 9.0758C21.9961 8.9849 21.9616 8.89643 21.8979 8.82358C21.8341 8.75073 21.7444 8.6974 21.6422 8.67154C21.0584 8.52423 20.666 8.32462 20.3784 8.039C20.0856 7.74887 19.8627 7.33055 19.703 6.68845C19.6794 6.59401 19.6185 6.50935 19.5304 6.44861C19.4424 6.38787 19.3325 6.35473 19.2192 6.35473C19.106 6.35473 18.9961 6.38787 18.9081 6.44861C18.82 6.50935 18.7591 6.59401 18.7354 6.68845C18.5758 7.33111 18.3529 7.74887 18.0601 8.039C17.7725 8.32462 17.3807 8.52423 16.7957 8.67154C16.6934 8.6974 16.6037 8.75073 16.54 8.82358C16.4762 8.89643 16.4417 8.9849 16.4417 9.0758C16.4417 9.1667 16.4762 9.25517 16.54 9.32802C16.6037 9.40087 16.6934 9.4542 16.7957 9.48006C17.38 9.62738 17.7725 9.82698 18.0601 10.1126C18.3529 10.4027 18.5758 10.8211 18.7354 11.4631ZM13.2591 9.63525C13.2851 9.72721 13.3467 9.80902 13.4339 9.86753C13.5211 9.92604 13.6289 9.95785 13.7399 9.95785C13.8509 9.95785 13.9586 9.92604 14.0458 9.86753C14.133 9.80902 14.1946 9.72721 14.2207 9.63525C14.5861 8.34655 14.9733 7.56951 15.5214 7.02749C16.0622 6.49222 16.8056 6.14138 18.0079 5.79502C18.106 5.76678 18.1911 5.71304 18.2514 5.64138C18.3118 5.56972 18.3442 5.48374 18.3442 5.39554C18.3442 5.30734 18.3118 5.22136 18.2514 5.1497C18.1911 5.07804 18.106 5.0243 18.0079 4.99605C16.7521 4.63452 15.9989 4.25275 15.4673 3.70736C14.9271 3.15297 14.569 2.38324 14.2207 1.15639C14.1946 1.06444 14.133 0.982626 14.0458 0.924114C13.9586 0.865602 13.8509 0.833791 13.7399 0.833791C13.6289 0.833791 13.5211 0.865602 13.4339 0.924114C13.3467 0.982626 13.2851 1.06444 13.2591 1.15639C12.8937 2.44453 12.5058 3.22157 11.9584 3.76359C11.4175 4.29886 10.6742 4.6497 9.47181 4.99606C9.37379 5.0243 9.28863 5.07804 9.22831 5.1497C9.16799 5.22136 9.13555 5.30734 9.13555 5.39554C9.13555 5.48374 9.16799 5.56972 9.22831 5.64138C9.28863 5.71304 9.37379 5.76678 9.47181 5.79502C10.7296 6.15712 11.4815 6.53721 12.0125 7.0826C12.552 7.63586 12.9095 8.40503 13.2591 9.63525Z" fill="url(#paint5_linear_25623_97001)"/>
<defs>
<linearGradient id="paint0_linear_25623_97001" x1="7.74992" y1="21.9481" x2="1.46609" y2="17.514" gradientUnits="userSpaceOnUse">
<stop stop-color="#FFD02A" stop-opacity="0.14"/>
<stop offset="1" stop-color="#FACF39"/>
</linearGradient>
<linearGradient id="paint1_linear_25623_97001" x1="10.5876" y1="20.403" x2="5.11348" y2="16.5403" gradientUnits="userSpaceOnUse">
<stop stop-color="#FFD02A" stop-opacity="0.14"/>
<stop offset="1" stop-color="#FACF39"/>
</linearGradient>
<linearGradient id="paint2_linear_25623_97001" x1="3.92448" y1="21.8393" x2="-0.159586" y2="19.1985" gradientUnits="userSpaceOnUse">
<stop stop-color="#FFD02A" stop-opacity="0.14"/>
<stop offset="1" stop-color="#FACF39"/>
</linearGradient>
<linearGradient id="paint3_linear_25623_97001" x1="12.5125" y1="13.1731" x2="9.28758" y2="4.94889" gradientUnits="userSpaceOnUse">
<stop stop-color="#FFD02A" stop-opacity="0.14"/>
<stop offset="1" stop-color="#FACF39"/>
</linearGradient>
<linearGradient id="paint4_linear_25623_97001" x1="15.1039" y1="17.6494" x2="11.6601" y2="13.5666" gradientUnits="userSpaceOnUse">
<stop stop-color="#FFD02A" stop-opacity="0.14"/>
<stop offset="1" stop-color="#FACF39"/>
</linearGradient>
<linearGradient id="paint5_linear_25623_97001" x1="9.36059" y1="1.6532" x2="16.6894" y2="12.0474" gradientUnits="userSpaceOnUse">
<stop stop-color="#FFD02A"/>
<stop offset="1" stop-color="#FACF39" stop-opacity="0.3"/>
</linearGradient>
</defs>
</svg>
