<svg width="16" height="17" viewBox="0 0 16 17" fill="none" xmlns="http://www.w3.org/2000/svg">
<g clip-path="url(#clip0_19224_60787)">
<path d="M4.4 4.2C4.08174 4.2 3.77652 4.32643 3.55147 4.55147C3.32643 4.77652 3.2 5.08174 3.2 5.4V12.6C3.2 12.9183 3.32643 13.2235 3.55147 13.4485C3.77652 13.6736 4.08174 13.8 4.4 13.8H11.6C11.9183 13.8 12.2235 13.6736 12.4485 13.4485C12.6736 13.2235 12.8 12.9183 12.8 12.6V5.4C12.8 5.08174 12.6736 4.77652 12.4485 4.55147C12.2235 4.32643 11.9183 4.2 11.6 4.2H4.4ZM4.4 3H11.6C12.2365 3 12.847 3.25286 13.2971 3.70294C13.7471 4.15303 14 4.76348 14 5.4V12.6C14 13.2365 13.7471 13.847 13.2971 14.2971C12.847 14.7471 12.2365 15 11.6 15H4.4C3.76348 15 3.15303 14.7471 2.70294 14.2971C2.25286 13.847 2 13.2365 2 12.6V5.4C2 4.76348 2.25286 4.15303 2.70294 3.70294C3.15303 3.25286 3.76348 3 4.4 3Z" fill="#F98080"/>
<path d="M8 1C8.15155 1 8.2969 1.0602 8.40406 1.16737C8.51123 1.27453 8.57143 1.41988 8.57143 1.57143V3.85714H7.42857V1.57143C7.42857 1.41988 7.48878 1.27453 7.59594 1.16737C7.7031 1.0602 7.84845 1 8 1ZM10.8571 1C11.0087 1 11.154 1.0602 11.2612 1.16737C11.3684 1.27453 11.4286 1.41988 11.4286 1.57143V3.85714H10.2857V1.57143C10.2857 1.41988 10.3459 1.27453 10.4531 1.16737C10.5602 1.0602 10.7056 1 10.8571 1ZM5.14286 1C5.29441 1 5.43975 1.0602 5.54692 1.16737C5.65408 1.27453 5.71429 1.41988 5.71429 1.57143V3.85714H4.57143V1.57143C4.57143 1.41988 4.63163 1.27453 4.7388 1.16737C4.84596 1.0602 4.9913 1 5.14286 1ZM8 17C7.84845 17 7.7031 16.9398 7.59594 16.8326C7.48878 16.7255 7.42857 16.5801 7.42857 16.4286V14.1429H8.57143V16.4286C8.57143 16.5801 8.51123 16.7255 8.40406 16.8326C8.2969 16.9398 8.15155 17 8 17ZM10.8571 17C10.7056 17 10.5602 16.9398 10.4531 16.8326C10.3459 16.7255 10.2857 16.5801 10.2857 16.4286V14.1429H11.4286V16.4286C11.4286 16.5801 11.3684 16.7255 11.2612 16.8326C11.154 16.9398 11.0087 17 10.8571 17ZM5.14286 17C4.9913 17 4.84596 16.9398 4.7388 16.8326C4.63163 16.7255 4.57143 16.5801 4.57143 16.4286V14.1429H5.71429V16.4286C5.71429 16.5801 5.65408 16.7255 5.54692 16.8326C5.43975 16.9398 5.29441 17 5.14286 17ZM0 9C0 8.84845 0.0602039 8.7031 0.167368 8.59594C0.274531 8.48878 0.419876 8.42857 0.571429 8.42857H2.85714V9.57143H0.571429C0.419876 9.57143 0.274531 9.51123 0.167368 9.40406C0.0602039 9.2969 0 9.15155 0 9ZM0 6.14286C0 5.9913 0.0602039 5.84596 0.167368 5.7388C0.274531 5.63163 0.419876 5.57143 0.571429 5.57143H2.85714V6.71429H0.571429C0.419876 6.71429 0.274531 6.65408 0.167368 6.54692C0.0602039 6.43975 0 6.29441 0 6.14286ZM0 11.8571C0 11.7056 0.0602039 11.5602 0.167368 11.4531C0.274531 11.3459 0.419876 11.2857 0.571429 11.2857H2.85714V12.4286H0.571429C0.419876 12.4286 0.274531 12.3684 0.167368 12.2612C0.0602039 12.154 0 12.0087 0 11.8571ZM16 9C16 9.15155 15.9398 9.2969 15.8326 9.40406C15.7255 9.51123 15.5801 9.57143 15.4286 9.57143H13.1429V8.42857H15.4286C15.5801 8.42857 15.7255 8.48878 15.8326 8.59594C15.9398 8.7031 16 8.84845 16 9ZM16 6.14286C16 6.29441 15.9398 6.43975 15.8326 6.54692C15.7255 6.65408 15.5801 6.71429 15.4286 6.71429H13.1429V5.57143H15.4286C15.5801 5.57143 15.7255 5.63163 15.8326 5.7388C15.9398 5.84596 16 5.9913 16 6.14286ZM16 11.8571C16 12.0087 15.9398 12.154 15.8326 12.2612C15.7255 12.3684 15.5801 12.4286 15.4286 12.4286H13.1429V11.2857H15.4286C15.5801 11.2857 15.7255 11.3459 15.8326 11.4531C15.9398 11.5602 16 11.7056 16 11.8571Z" fill="#F98080"/>
</g>
<defs>
<clipPath id="clip0_19224_60787">
<rect width="16" height="16" fill="white" transform="translate(0 0.988281)"/>
</clipPath>
</defs>
</svg>
