<svg width="24" height="24" viewBox="0 0 24 24" fill="none" xmlns="http://www.w3.org/2000/svg">
<path fill-rule="evenodd" clip-rule="evenodd" d="M6.375 15.7588C6.20924 15.7588 6.05028 15.8246 5.93307 15.9418C5.81586 16.059 5.75 16.218 5.75 16.3838C5.75 16.5495 5.81586 16.7085 5.93307 16.8257C6.05028 16.9429 6.20924 17.0088 6.375 17.0088H8.875C9.04076 17.0088 9.19972 16.9429 9.31693 16.8257C9.43414 16.7085 9.5 16.5495 9.5 16.3838C9.5 16.218 9.43414 16.059 9.31693 15.9418C9.19972 15.8246 9.04076 15.7588 8.875 15.7588H6.375Z" fill="#374151"/>
<path fill-rule="evenodd" clip-rule="evenodd" d="M16.3749 13.884C16.3643 13.8849 16.3537 13.8862 16.3431 13.8877C16.3182 13.8891 16.2933 13.8919 16.2687 13.8963C16.2464 13.9004 16.2244 13.9057 16.2027 13.9122C16.1808 13.9183 16.1592 13.9256 16.1381 13.9341C16.1155 13.9434 16.0935 13.954 16.0721 13.9659C16.0528 13.9767 16.0341 13.9885 16.016 14.0013C15.9974 14.0145 15.9794 14.0288 15.9623 14.044C15.9523 14.0515 15.9425 14.0592 15.933 14.0672L14.683 15.3172C14.5658 15.4344 14.5 15.5934 14.5 15.7591C14.5 15.9248 14.5658 16.0838 14.683 16.201C14.8002 16.3182 14.9592 16.384 15.1249 16.384C15.2906 16.384 15.4496 16.3182 15.5668 16.201L15.7499 16.0177V18.259C15.7499 18.4247 15.8157 18.5837 15.933 18.7009C16.0502 18.8181 16.2091 18.884 16.3749 18.884C16.5406 18.884 16.6996 18.8181 16.8168 18.7009C16.934 18.5837 16.9999 18.4247 16.9999 18.259V16.0177L17.183 16.2009C17.3002 16.318 17.4591 16.3839 17.6249 16.3839C17.7906 16.3839 17.9496 16.318 18.0668 16.2009C18.184 16.0836 18.2498 15.9247 18.2498 15.759C18.2498 15.5932 18.184 15.4343 18.0668 15.3171L16.8351 14.0854C16.7654 14.01 16.6782 13.953 16.5812 13.9194C16.5808 13.9194 16.5804 13.9194 16.5799 13.9194C16.5791 13.9189 16.5783 13.9185 16.5774 13.9181C16.537 13.9045 16.4953 13.8951 16.4529 13.89C16.4472 13.8891 16.4416 13.8883 16.4359 13.8875C16.4156 13.8853 16.3953 13.8842 16.3749 13.884Z" fill="#374151"/>
<path fill-rule="evenodd" clip-rule="evenodd" d="M6.375 10.7588C6.20924 10.7588 6.05028 10.8246 5.93307 10.9418C5.81586 11.059 5.75 11.218 5.75 11.3838C5.75 11.5495 5.81586 11.7085 5.93307 11.8257C6.05028 11.9429 6.20924 12.0088 6.375 12.0088H8.875C9.04076 12.0088 9.19972 11.9429 9.31693 11.8257C9.43414 11.7085 9.5 11.5495 9.5 11.3838C9.5 11.218 9.43414 11.059 9.31693 10.9418C9.19972 10.8246 9.04076 10.7588 8.875 10.7588H6.375Z" fill="#374151"/>
<path fill-rule="evenodd" clip-rule="evenodd" d="M6.375 5.75879C6.20924 5.75879 6.05028 5.82463 5.93307 5.94184C5.81586 6.05905 5.75 6.21803 5.75 6.38379C5.75 6.54955 5.81586 6.70851 5.93307 6.82572C6.05028 6.94293 6.20924 7.00879 6.375 7.00879H8.875C9.04076 7.00879 9.19972 6.94293 9.31693 6.82572C9.43414 6.70851 9.5 6.54955 9.5 6.38379C9.5 6.21803 9.43414 6.05905 9.31693 5.94184C9.19972 5.82463 9.04076 5.75879 8.875 5.75879H6.375Z" fill="#374151"/>
<path fill-rule="evenodd" clip-rule="evenodd" d="M5.125 3.25879C4.09706 3.25879 3.25 4.10585 3.25 5.13379V7.63379C3.25 8.11271 3.43547 8.55076 3.73584 8.88379C3.43547 9.21681 3.25 9.65486 3.25 10.1338V12.6338C3.25 13.1127 3.43547 13.5508 3.73584 13.8838C3.43547 14.2168 3.25 14.6549 3.25 15.1338V17.6338C3.25 18.6617 4.09706 19.5088 5.125 19.5088H13.3196C14.1093 20.2812 15.1882 20.7588 16.375 20.7588C18.7838 20.7588 20.75 18.7926 20.75 16.3838C20.75 14.6453 19.7255 13.137 18.25 12.4324V10.1338C18.25 9.65486 18.0645 9.21681 17.7642 8.88379C18.0645 8.55076 18.25 8.11271 18.25 7.63379V5.13379C18.25 4.10585 17.4029 3.25879 16.375 3.25879H5.125ZM5.125 4.50879H16.375C16.7321 4.50879 17 4.77673 17 5.13379V7.63379C17 7.99085 16.7321 8.25879 16.375 8.25879H5.125C4.76794 8.25879 4.5 7.99085 4.5 7.63379V5.13379C4.5 4.77673 4.76794 4.50879 5.125 4.50879ZM5.125 9.50879H16.375C16.7321 9.50879 17 9.77673 17 10.1338V12.054C16.7956 12.0245 16.5874 12.0088 16.375 12.0088C15.1882 12.0088 14.1093 12.4864 13.3196 13.2588H5.125C4.76794 13.2588 4.5 12.9908 4.5 12.6338V10.1338C4.5 9.77671 4.76794 9.50879 5.125 9.50879ZM16.375 13.2588C18.1083 13.2588 19.5 14.6505 19.5 16.3838C19.5 18.1171 18.1083 19.5088 16.375 19.5088C15.4745 19.5088 14.6672 19.1325 14.0984 18.5286C14.0684 18.4857 14.0331 18.4467 13.9934 18.4126C13.5296 17.8677 13.25 17.16 13.25 16.3838C13.25 15.5986 13.5369 14.8841 14.0105 14.3367C14.0247 14.3215 14.0382 14.3056 14.0508 14.289C14.6217 13.6553 15.4495 13.2588 16.375 13.2588ZM5.125 14.5088H12.4236C12.1519 15.0777 12 15.7135 12 16.3838C12 17.0541 12.1519 17.6899 12.4236 18.2588H5.125C4.76794 18.2588 4.5 17.9909 4.5 17.6338V15.1338C4.5 14.7767 4.76794 14.5088 5.125 14.5088Z" fill="#374151"/>
</svg>
