<svg width="21" height="20" viewBox="0 0 21 20" fill="none" xmlns="http://www.w3.org/2000/svg">
<path d="M7.81189 14.5192L5.69651 16.25V12.7885H3.58113C3.30061 12.7885 3.03158 12.6668 2.83323 12.4505C2.63487 12.2341 2.52344 11.9406 2.52344 11.6346V2.40385C2.52344 2.09782 2.63487 1.80434 2.83323 1.58795C3.03158 1.37157 3.30061 1.25 3.58113 1.25H15.2157C15.4962 1.25 15.7653 1.37157 15.9636 1.58795C16.162 1.80434 16.2734 2.09782 16.2734 2.40385V5.83834" stroke="#3B82F6" stroke-linecap="round" stroke-linejoin="round"/>
<path d="M5.02344 5H13.7734" stroke="#3B82F6" stroke-linecap="round" stroke-linejoin="round"/>
<path d="M5.02344 8.75H7.52344" stroke="#3B82F6" stroke-linecap="round" stroke-linejoin="round"/>
<path d="M18.7734 15.4167H16.5859V18.75L13.3047 15.4167H10.0234V8.75H18.7734V15.4167Z" stroke="#3B82F6" stroke-linecap="round" stroke-linejoin="round"/>
<path d="M16.2734 12.5H12.5234" stroke="#3B82F6" stroke-linecap="round" stroke-linejoin="round"/>
</svg>
