<svg width="16" height="16" viewBox="0 0 16 16" fill="none" xmlns="http://www.w3.org/2000/svg">
<path fill-rule="evenodd" clip-rule="evenodd" d="M7.48818 0.00655361C7.43718 0.0125536 7.26318 0.0305536 7.10218 0.0465536C5.22918 0.233554 3.34218 1.19955 2.06618 2.62555C0.655179 4.20255 -0.0618209 6.15955 0.0041791 8.24455C0.119179 11.8456 2.59418 14.8946 6.10518 15.7626C8.16418 16.2716 10.4282 15.9086 12.2222 14.7826C14.0122 13.6576 15.2652 11.9246 15.7662 9.87855C15.9382 9.17755 15.9782 8.82055 15.9782 7.99155C15.9782 7.16255 15.9382 6.80555 15.7662 6.10455C14.9742 2.86955 12.3102 0.489554 8.99518 0.0555536C8.71118 0.0185536 7.67818 -0.0144464 7.48818 0.00655361ZM8.84818 1.55455C9.96218 1.69855 11.0052 2.12755 11.9392 2.82555C12.2682 3.07155 12.9152 3.71855 13.1612 4.04755C13.7222 4.79855 14.1372 5.68155 14.3252 6.52655C14.5392 7.49155 14.5392 8.49155 14.3252 9.45655C13.9112 11.3176 12.6002 12.9696 10.8622 13.8196C10.2342 14.1266 9.58618 14.3276 8.87518 14.4356C8.45118 14.5006 7.53918 14.5006 7.11518 14.4356C5.16718 14.1396 3.52318 13.0766 2.48818 11.4426C2.27418 11.1056 1.99418 10.5176 1.85418 10.1106C1.61318 9.41355 1.50918 8.77255 1.50918 7.99155C1.50918 6.95255 1.71018 6.06655 2.15518 5.15155C2.49518 4.45355 2.84118 3.97155 3.40818 3.40455C3.97518 2.83755 4.45718 2.49155 5.15518 2.15155C6.30818 1.59055 7.56218 1.38855 8.84818 1.55455ZM7.70118 4.28155C7.47718 4.35455 7.35018 4.48255 7.28818 4.69655C7.25218 4.81855 7.24818 5.09755 7.25418 6.80755C7.26218 8.77755 7.26218 8.77855 7.32018 8.88755C7.39318 9.02455 7.53318 9.14855 7.66618 9.19555C7.79818 9.24155 8.19218 9.24155 8.32418 9.19555C8.45718 9.14855 8.59718 9.02455 8.67018 8.88755C8.72818 8.77855 8.72818 8.77755 8.73618 6.80755C8.74418 4.65555 8.74418 4.65355 8.59118 4.47255C8.46718 4.32455 8.33418 4.27555 8.03518 4.26755C7.88818 4.26355 7.73818 4.26955 7.70118 4.28155ZM7.78118 10.5216C7.59218 10.5836 7.40518 10.7446 7.31418 10.9236C7.24418 11.0636 7.23218 11.3166 7.28918 11.4866C7.38318 11.7716 7.69218 11.9916 7.99518 11.9916C8.29818 11.9916 8.60718 11.7716 8.70118 11.4866C8.75818 11.3166 8.74618 11.0636 8.67618 10.9236C8.61118 10.7956 8.45518 10.6376 8.32818 10.5716C8.21218 10.5116 7.89918 10.4826 7.78118 10.5216Z" fill="#F87171"/>
</svg>
