<svg width="16" height="16" viewBox="0 0 16 16" fill="none" xmlns="http://www.w3.org/2000/svg">
<g clip-path="url(#clip0_19230_61093)">
<path d="M15.1118 0H14.2229C13.732 0 13.334 0.397969 13.334 0.888889V15.1111C13.334 15.602 13.732 16 14.2229 16H15.1118C15.6027 16 16.0007 15.602 16.0007 15.1111V0.888889C16.0007 0.397969 15.6027 0 15.1118 0Z" fill="#3B82F6"/>
<path d="M10.6664 4.44531H9.77756C9.28664 4.44531 8.88867 4.84328 8.88867 5.3342V15.112C8.88867 15.6029 9.28664 16.0009 9.77756 16.0009H10.6664C11.1574 16.0009 11.5553 15.6029 11.5553 15.112V5.3342C11.5553 4.84328 11.1574 4.44531 10.6664 4.44531Z" fill="#3B82F6"/>
<path d="M6.22309 8H5.3342C4.84328 8 4.44531 8.39797 4.44531 8.88889V15.1111C4.44531 15.602 4.84328 16 5.3342 16H6.22309C6.71401 16 7.11198 15.602 7.11198 15.1111V8.88889C7.11198 8.39797 6.71401 8 6.22309 8Z" fill="#93C5FD"/>
<path d="M1.77689 11.5547H0.889778C0.398367 11.5547 0 11.9531 0 12.4445V15.1094C0 15.6008 0.398367 15.9991 0.889778 15.9991H1.77689C2.2683 15.9991 2.66667 15.6008 2.66667 15.1094V12.4445C2.66667 11.9531 2.2683 11.5547 1.77689 11.5547Z" fill="#BFDBFE"/>
</g>
<defs>
<clipPath id="clip0_19230_61093">
<rect width="16" height="16" fill="white"/>
</clipPath>
</defs>
</svg>
