<svg width="16" height="17" viewBox="0 0 16 17" fill="none" xmlns="http://www.w3.org/2000/svg">
<g clip-path="url(#clip0_19224_60795)">
<path fill-rule="evenodd" clip-rule="evenodd" d="M5.72386 1.6543H12.6667C13.403 1.6543 14 2.25125 14 2.98763V14.9876C14 15.724 13.403 16.321 12.6667 16.321H3.33333C2.59695 16.321 2 15.724 2 14.9876V5.37815L5.72386 1.6543ZM3.33333 5.93044V14.9876H12.6667V2.98763H6.27614L3.33333 5.93044ZM10.6667 3.6543H12V7.6543H10.6667V3.6543ZM8.66667 3.6543H10V7.6543H8.66667V3.6543ZM6.66667 3.6543H8V7.6543H6.66667V3.6543ZM4.66667 5.6543H6V8.32096H4.66667V5.6543Z" fill="#F87171"/>
</g>
<defs>
<clipPath id="clip0_19224_60795">
<rect width="16" height="16" fill="white" transform="translate(0 0.988281)"/>
</clipPath>
</defs>
</svg>
