<svg width="21" height="20" viewBox="0 0 21 20" fill="none" xmlns="http://www.w3.org/2000/svg">
<path d="M6.13411 7.50065H14.4674M6.13411 10.834H14.4674M17.8008 16.6673L15.0305 15.2821C14.8205 15.1771 14.7155 15.1247 14.6054 15.0877C14.5078 15.0548 14.4072 15.0311 14.3051 15.0167C14.1901 15.0007 14.0727 15.0006 13.8379 15.0006H5.46745C4.53402 15.0006 4.06731 15.0006 3.7108 14.819C3.39719 14.6592 3.14222 14.4042 2.98244 14.0907C2.80078 13.7342 2.80078 13.2674 2.80078 12.334V6.00065C2.80078 5.06723 2.80078 4.60052 2.98244 4.244C3.14222 3.93039 3.39719 3.67543 3.7108 3.51564C4.06731 3.33398 4.53403 3.33398 5.46745 3.33398H15.1341C16.0675 3.33398 16.5343 3.33398 16.8908 3.51564C17.2044 3.67543 17.4594 3.93039 17.6191 4.244C17.8008 4.60052 17.8008 5.06723 17.8008 6.00065V16.6673Z" stroke="#3B82F6" stroke-linecap="round" stroke-linejoin="round"/>
</svg>
