<svg width="14" height="16" viewBox="0 0 14 16" fill="none" xmlns="http://www.w3.org/2000/svg">
<path d="M13.7443 3.81697L7.24911 0.0669611C7.09439 -0.0223204 6.90383 -0.0223204 6.74911 0.0669611L0.253907 3.81697C0.099219 3.90628 0.00390625 4.07135 0.00390625 4.24997V11.75C0.00390625 11.9286 0.099219 12.0937 0.253907 12.183L6.74911 15.933C6.82649 15.9777 6.91277 16 6.99911 16C7.08546 16 7.17174 15.9777 7.24911 15.933L13.7443 12.183C13.899 12.0937 13.9943 11.9286 13.9943 11.75V4.24997C13.9943 4.07135 13.899 3.90628 13.7443 3.81697ZM1.00391 5.11597L6.49911 8.28864V14.634L1.00391 11.4613V5.11597ZM12.9943 11.4613L7.49911 14.634V8.28864L10.4967 6.55795C10.7358 6.41988 10.8178 6.11407 10.6797 5.87494C10.5417 5.63579 10.2358 5.55388 9.99671 5.69194L6.99911 7.42264L1.50391 4.24997L6.99911 1.07731L12.9943 4.53863V11.4613Z" fill="#3B82F6"/>
</svg>
