<svg width="22" height="22" viewBox="0 0 22 22" fill="none" xmlns="http://www.w3.org/2000/svg">
<g clip-path="url(#clip0_19224_60803)">
<path d="M9.16636 11.917C9.56007 12.4432 10.0623 12.8787 10.639 13.1938C11.2158 13.509 11.8536 13.6963 12.5091 13.7433C13.1647 13.7902 13.8227 13.6956 14.4384 13.4659C15.0542 13.2363 15.6134 12.8767 16.078 12.412L18.828 9.66199C19.6629 8.79753 20.1249 7.63977 20.1145 6.43803C20.104 5.2363 19.622 4.08674 18.7722 3.23695C17.9225 2.38717 16.7729 1.90515 15.5711 1.8947C14.3694 1.88425 13.2116 2.34624 12.3472 3.18113L10.7705 4.74863M12.833 10.0837C12.4393 9.5573 11.9371 9.12187 11.3603 8.80677C10.7836 8.49165 10.1458 8.30427 9.49022 8.25732C8.83472 8.21036 8.17674 8.30495 7.56096 8.53465C6.94519 8.76436 6.38601 9.12381 5.92136 9.58865L3.17136 12.3387C2.33647 13.2031 1.8745 14.3608 1.88494 15.5626C1.89538 16.7643 2.37741 17.9138 3.2272 18.7637C4.07698 19.6134 5.22654 20.0954 6.42827 20.1058C7.63001 20.1163 8.78777 19.6544 9.65219 18.8195L11.2197 17.252" stroke="#9F9F9F" stroke-width="2" stroke-linecap="round" stroke-linejoin="round"/>
</g>
<defs>
<clipPath id="clip0_19224_60803">
<rect width="22" height="22" fill="white"/>
</clipPath>
</defs>
</svg>
