<svg width="16" height="16" viewBox="0 0 16 16" fill="none" xmlns="http://www.w3.org/2000/svg">
<path fill-rule="evenodd" clip-rule="evenodd" d="M7.49209 0.0148544C7.44109 0.0208544 7.26709 0.0388544 7.10609 0.0548544C5.23309 0.241854 3.34609 1.20785 2.07009 2.63385C0.659086 4.21085 -0.0579146 6.16785 0.00808535 8.25285C0.123085 11.8539 2.59809 14.9029 6.10909 15.7709C8.16809 16.2799 10.4321 15.9169 12.2261 14.7909C14.0161 13.6659 15.2691 11.9329 15.7701 9.88685C15.9421 9.18585 15.9821 8.82885 15.9821 7.99985C15.9821 7.17085 15.9421 6.81385 15.7701 6.11285C14.9781 2.87785 12.3141 0.497854 8.99909 0.0638544C8.71509 0.0268544 7.68209 -0.00614561 7.49209 0.0148544ZM8.85209 1.56285C9.96609 1.70685 11.0091 2.13585 11.9431 2.83385C12.2721 3.07985 12.9191 3.72685 13.1651 4.05585C13.7261 4.80685 14.1411 5.68985 14.3291 6.53485C14.5431 7.49985 14.5431 8.49985 14.3291 9.46485C13.9151 11.3259 12.6041 12.9779 10.8661 13.8279C10.2381 14.1349 9.59009 14.3359 8.87909 14.4439C8.45509 14.5089 7.54309 14.5089 7.11909 14.4439C5.17109 14.1479 3.52709 13.0849 2.49209 11.4509C2.27809 11.1139 1.99809 10.5259 1.85809 10.1189C1.61709 9.42185 1.51309 8.78085 1.51309 7.99985C1.51309 6.96085 1.71409 6.07485 2.15909 5.15985C2.49909 4.46185 2.84509 3.97985 3.41209 3.41285C3.97909 2.84585 4.46109 2.49985 5.15909 2.15985C6.31209 1.59885 7.56608 1.39685 8.85209 1.56285ZM7.70509 4.28985C7.48109 4.36285 7.35409 4.49085 7.29209 4.70485C7.25609 4.82685 7.25209 5.10585 7.25809 6.81585C7.26609 8.78585 7.26609 8.78685 7.32409 8.89585C7.39709 9.03285 7.53709 9.15685 7.67009 9.20385C7.80209 9.24985 8.19609 9.24985 8.32809 9.20385C8.46109 9.15685 8.60109 9.03285 8.67409 8.89585C8.73209 8.78685 8.73209 8.78585 8.74009 6.81585C8.74809 4.66385 8.74809 4.66185 8.59509 4.48085C8.47109 4.33285 8.33809 4.28385 8.03909 4.27585C7.89209 4.27185 7.74209 4.27785 7.70509 4.28985ZM7.78509 10.5299C7.59609 10.5919 7.40909 10.7529 7.31809 10.9319C7.24809 11.0719 7.23609 11.3249 7.29309 11.4949C7.38709 11.7799 7.69609 11.9999 7.99909 11.9999C8.30209 11.9999 8.61109 11.7799 8.70509 11.4949C8.76209 11.3249 8.75008 11.0719 8.68009 10.9319C8.61509 10.8039 8.45909 10.6459 8.33209 10.5799C8.21609 10.5199 7.90309 10.4909 7.78509 10.5299Z" fill="#3B82F6"/>
</svg>
