<svg width="21" height="20" viewBox="0 0 21 20" fill="none" xmlns="http://www.w3.org/2000/svg">
<path d="M17.8 4.99913C17.8009 4.52969 17.6697 4.06948 17.4213 3.67116C17.1728 3.27284 16.8173 2.95251 16.3953 2.74684C15.9733 2.54118 15.5019 2.45848 15.0351 2.50821C14.5684 2.55795 14.125 2.73811 13.7558 3.02807C13.3866 3.31803 13.1065 3.70608 12.9476 4.1478C12.7887 4.58952 12.7574 5.06706 12.8572 5.52576C12.957 5.98447 13.184 6.40579 13.5121 6.74152C13.8402 7.07725 14.2562 7.31381 14.7125 7.42413V8.74913C14.7145 8.86343 14.6838 8.97592 14.624 9.07336C14.5642 9.1708 14.4778 9.24913 14.375 9.29913L10.9125 11.0991L7.46251 9.34913C7.3526 9.29445 7.26167 9.20802 7.20149 9.10103C7.14131 8.99404 7.11466 8.87144 7.12501 8.74913V7.42413C7.71417 7.27201 8.22762 6.91024 8.56913 6.40662C8.91064 5.90301 9.05675 5.29214 8.98008 4.6885C8.90341 4.08487 8.60922 3.52992 8.15265 3.12768C7.69609 2.72543 7.10849 2.50351 6.50001 2.50351C5.89152 2.50351 5.30393 2.72543 4.84736 3.12768C4.39079 3.52992 4.0966 4.08487 4.01993 4.6885C3.94326 5.29214 4.08937 5.90301 4.43088 6.40662C4.77239 6.91024 5.28584 7.27201 5.87501 7.42413V8.74913C5.87572 9.09549 5.97174 9.43498 6.15253 9.73042C6.33332 10.0259 6.59192 10.2659 6.90001 10.4241L10.3 12.1741V13.8241C9.71084 13.9763 9.19739 14.338 8.85588 14.8416C8.51437 15.3452 8.36826 15.9561 8.44493 16.5598C8.5216 17.1634 8.81579 17.7183 9.27236 18.1206C9.72893 18.5228 10.3165 18.7447 10.925 18.7447C11.5335 18.7447 12.1211 18.5228 12.5777 18.1206C13.0342 17.7183 13.3284 17.1634 13.4051 16.5598C13.4818 15.9561 13.3356 15.3452 12.9941 14.8416C12.6526 14.338 12.1392 13.9763 11.55 13.8241V12.1741L14.925 10.4741C15.2427 10.3144 15.508 10.0671 15.6897 9.76146C15.8713 9.45579 15.9616 9.10451 15.95 8.74913V7.39913C16.4786 7.25681 16.9459 6.94493 17.2801 6.51137C17.6143 6.07781 17.7969 5.54654 17.8 4.99913ZM5.30001 4.99913C5.30001 4.66761 5.4317 4.34967 5.66612 4.11525C5.90054 3.88083 6.21849 3.74913 6.55001 3.74913C6.88153 3.74913 7.19947 3.88083 7.43389 4.11525C7.66831 4.34967 7.80001 4.66761 7.80001 4.99913C7.80001 5.33065 7.66831 5.64859 7.43389 5.88301C7.19947 6.11743 6.88153 6.24913 6.55001 6.24913C6.21849 6.24913 5.90054 6.11743 5.66612 5.88301C5.4317 5.64859 5.30001 5.33065 5.30001 4.99913ZM12.1375 16.2491C12.1375 16.5807 12.0058 16.8986 11.7714 17.133C11.537 17.3674 11.219 17.4991 10.8875 17.4991C10.556 17.4991 10.238 17.3674 10.0036 17.133C9.7692 16.8986 9.63751 16.5807 9.63751 16.2491C9.63751 15.9176 9.7692 15.5997 10.0036 15.3652C10.238 15.1308 10.556 14.9991 10.8875 14.9991C11.219 14.9991 11.537 15.1308 11.7714 15.3652C12.0058 15.5997 12.1375 15.9176 12.1375 16.2491ZM15.3 6.24913C14.9685 6.24913 14.6505 6.11743 14.4161 5.88301C14.1817 5.64859 14.05 5.33065 14.05 4.99913C14.05 4.66761 14.1817 4.34967 14.4161 4.11525C14.6505 3.88083 14.9685 3.74913 15.3 3.74913C15.6315 3.74913 15.9495 3.88083 16.1839 4.11525C16.4183 4.34967 16.55 4.66761 16.55 4.99913C16.55 5.33065 16.4183 5.64859 16.1839 5.88301C15.9495 6.11743 15.6315 6.24913 15.3 6.24913Z" fill="#3B82F6"/>
</svg>
