<svg width="14" height="14" viewBox="0 0 14 14" fill="none" xmlns="http://www.w3.org/2000/svg">
<path d="M7.0001 4.10959C5.8693 4.10959 4.94922 3.18775 4.94922 2.05479C4.94922 0.921836 5.8693 0 7.0001 0C8.1309 0 9.05098 0.921836 9.05098 2.05479C9.05098 3.18775 8.1309 4.10959 7.0001 4.10959Z" fill="#797D83"/>
<path d="M0.274171 11.7397C-0.291024 10.7584 0.0458393 9.49946 1.02523 8.9328C2.02472 8.35513 3.26979 8.71894 3.82676 9.68488C4.3934 10.6676 4.05755 11.9237 3.07611 12.4918C2.09278 13.0599 0.840459 12.7218 0.274171 11.7397Z" fill="#3F4855"/>
<path d="M10.9264 12.4918C9.94562 11.9241 9.60879 10.6682 10.1758 9.68489C10.7327 8.71897 11.9777 8.35511 12.9773 8.93281C13.9566 9.49949 14.2935 10.7584 13.7283 11.7397C13.1628 12.7206 11.9111 13.0607 10.9264 12.4918Z" fill="#4E555F"/>
<path d="M1.67421 7.53653L0.855469 7.49158C0.962005 5.54755 1.99868 3.74799 3.62815 2.67725L4.07838 3.36431C2.6656 4.29262 1.76713 5.85256 1.67421 7.53653Z" fill="#464749"/>
<path d="M12.3241 7.53699C12.2312 5.85302 11.3327 4.29308 9.91992 3.3648L10.3702 2.67773C11.9997 3.74847 13.0363 5.54804 13.1428 7.49206L12.3241 7.53699Z" fill="#464749"/>
<path d="M7.00006 13.9998C6.02428 13.9998 5.09138 13.7774 4.22656 13.3396L4.59668 12.606C6.09478 13.3653 7.90532 13.3653 9.40342 12.606L9.77353 13.3396C8.90875 13.7774 7.97584 13.9998 7.00006 13.9998Z" fill="#464749"/>
</svg>
