<svg width="21" height="20" viewBox="0 0 21 20" fill="none" xmlns="http://www.w3.org/2000/svg">
<path d="M16.9661 18.3327V13.3327C16.9661 9.65077 13.9814 6.66602 10.2995 6.66602C7.83187 6.66602 5.6774 8.00667 4.5247 9.99935M3.63281 18.3327V13.3327" stroke="#3B82F6" stroke-linecap="round"/>
<path d="M12.2109 9.58398C13.0465 9.92223 13.7138 10.5894 14.052 11.425" stroke="#3B82F6" stroke-linecap="round"/>
<path d="M10.3008 1.66602V4.16602" stroke="#3B82F6" stroke-linecap="round"/>
<path d="M17.8008 5L16.5508 6.25" stroke="#3B82F6" stroke-linecap="round"/>
<path d="M2.80078 5L4.05078 6.25" stroke="#3B82F6" stroke-linecap="round"/>
<path d="M11.5508 14.584C11.5508 15.2743 10.9911 15.834 10.3008 15.834C9.61045 15.834 9.05078 15.2743 9.05078 14.584C9.05078 13.8937 9.61045 13.334 10.3008 13.334C10.9911 13.334 11.5508 13.8937 11.5508 14.584Z" stroke="#3B82F6"/>
<path d="M10.3008 15.834V18.334" stroke="#3B82F6" stroke-linecap="round"/>
<path d="M1.96875 18.334H11.9687M18.6354 18.334H15.3021" stroke="#3B82F6" stroke-linecap="round"/>
</svg>
