<svg width="21" height="20" viewBox="0 0 21 20" fill="none" xmlns="http://www.w3.org/2000/svg">
<path d="M12.8008 4.16602V6.66602" stroke="#3B82F6" stroke-linecap="round"/>
<path d="M12.8008 13.334V15.834" stroke="#3B82F6" stroke-linecap="round"/>
<path d="M12.8008 9.16602V10.8327" stroke="#3B82F6" stroke-linecap="round"/>
<path d="M4.00348 8.71243C3.46258 8.11084 2.77449 7.44492 2.86797 6.64131C3.10074 4.6402 4.01899 4.16602 6.67548 4.16602H13.9288C16.5853 4.16602 17.5036 4.6402 17.7363 6.64131C17.8298 7.44492 17.1417 8.11084 16.6008 8.71243C16.3375 9.00535 16.1355 9.4191 16.1355 9.99935C16.1355 10.5796 16.3375 10.9933 16.6008 11.2863C17.1417 11.8878 17.8298 12.5538 17.7363 13.3573C17.5036 15.3585 16.5853 15.8327 13.9288 15.8327H6.67548C4.01899 15.8327 3.10074 15.3585 2.86797 13.3573C2.77449 12.5538 3.46258 11.8878 4.00348 11.2863C4.26682 10.9933 4.46881 10.5796 4.46881 9.99935C4.46881 9.4191 4.26682 9.00535 4.00348 8.71243Z" stroke="#3B82F6"/>
</svg>
