<svg width="16" height="16" viewBox="0 0 16 16" fill="none" xmlns="http://www.w3.org/2000/svg">
<path fill-rule="evenodd" clip-rule="evenodd" d="M12.2065 15.9073L6.71522 10.4076C6.71522 10.4076 3.88373 11.4014 1.57825 9.09227C-1.06385 6.44615 0.405431 3.36337 0.405431 3.36337C0.405431 3.36337 3.14892 6.07942 3.86767 6.7995C4.43985 7.37269 5.10105 7.29138 6.22434 6.16641C7.07426 5.31516 7.30614 4.45721 6.75638 3.90644C5.99078 3.13985 3.29414 0.470307 3.29414 0.470307C3.29414 0.470307 6.56096 -1.08899 9.15254 1.5066C11.456 3.81342 10.5853 6.53148 10.5318 6.58535C10.5104 6.60643 12.9889 9.09795 15.9997 12.1081L12.2065 15.9073Z" fill="#4ADE80"/>
</svg>
