<svg xmlns="http://www.w3.org/2000/svg" xmlns:xlink="http://www.w3.org/1999/xlink" width="24" zoomAndPan="magnify" viewBox="0 0 810 809.999993" height="24" preserveAspectRatio="xMidYMid meet" version="1.0"><defs><g/><clipPath id="d44bb3e6e1"><path d="M 25.886719 258.449219 L 784.136719 258.449219 L 784.136719 501.449219 L 25.886719 501.449219 Z M 25.886719 258.449219 " clip-rule="nonzero"/></clipPath><clipPath id="48bbfe6dd7"><path d="M 64.136719 258.449219 L 745.863281 258.449219 C 756.007812 258.449219 765.738281 262.476562 772.910156 269.652344 C 780.082031 276.824219 784.113281 286.554688 784.113281 296.699219 L 784.113281 463.199219 C 784.113281 473.34375 780.082031 483.070312 772.910156 490.246094 C 765.738281 497.417969 756.007812 501.449219 745.863281 501.449219 L 64.136719 501.449219 C 53.992188 501.449219 44.261719 497.417969 37.089844 490.246094 C 29.917969 483.070312 25.886719 473.34375 25.886719 463.199219 L 25.886719 296.699219 C 25.886719 286.554688 29.917969 276.824219 37.089844 269.652344 C 44.261719 262.476562 53.992188 258.449219 64.136719 258.449219 Z M 64.136719 258.449219 " clip-rule="nonzero"/></clipPath></defs><g clip-path="url(#d44bb3e6e1)"><g clip-path="url(#48bbfe6dd7)"><path stroke-linecap="butt" transform="matrix(0.75, 0, 0, 0.75, 25.8866, 258.448483)" fill="none" stroke-linejoin="miter" d="M 51.000161 0.000981003 L 959.968956 0.000981003 C 973.494999 0.000981003 986.468958 5.370773 996.031458 14.938482 C 1005.593959 24.500982 1010.968959 37.474941 1010.968959 51.000984 L 1010.968959 273.000995 C 1010.968959 286.527037 1005.593959 299.495788 996.031458 309.063497 C 986.468958 318.625997 973.494999 324.000997 959.968956 324.000997 L 51.000161 324.000997 C 37.474118 324.000997 24.500159 318.625997 14.937659 309.063497 C 5.375158 299.495788 0.00015807 286.527037 0.00015807 273.000995 L 0.00015807 51.000984 C 0.00015807 37.474941 5.375158 24.500982 14.937659 14.938482 C 24.500159 5.370773 37.474118 0.000981003 51.000161 0.000981003 Z M 51.000161 0.000981003 " stroke="#FF8C00" stroke-width="25" stroke-opacity="1" stroke-miterlimit="4"/></g></g><g fill="#FF8C00" fill-opacity="1"><g transform="translate(133.616053, 440.403445)"><g><path d="M 109.046875 0 L 85.421875 0 L 76.859375 -26.1875 L 33.34375 -26.1875 L 24.796875 0 L 1.703125 0 L 40.953125 -113.625 L 69.796875 -113.625 Z M 54.015625 -89.921875 L 39.40625 -45.078125 L 70.640625 -45.078125 L 55.953125 -89.921875 Z M 54.015625 -89.921875 "/></g></g><g transform="translate(244.368546, 440.403445)"><g><path d="M 37.234375 -113.625 L 37.234375 -18.8125 L 88.296875 -18.8125 L 88.296875 0 L 14.765625 0 L 14.765625 -113.625 Z M 37.234375 -113.625 "/></g></g><g transform="translate(336.390266, 440.403445)"><g><path d="M 58.671875 -113.625 C 66.804688 -113.625 73.765625 -112.132812 79.546875 -109.15625 C 85.328125 -106.175781 89.691406 -102.003906 92.640625 -96.640625 C 95.597656 -91.273438 97.078125 -85.046875 97.078125 -77.953125 C 97.078125 -70.859375 95.597656 -64.640625 92.640625 -59.296875 C 89.691406 -53.960938 85.328125 -49.804688 79.546875 -46.828125 C 73.765625 -43.847656 66.804688 -42.359375 58.671875 -42.359375 L 37.234375 -42.359375 L 37.234375 0 L 14.765625 0 L 14.765625 -113.625 Z M 55.71875 -60.15625 C 68.207031 -60.15625 74.453125 -66.085938 74.453125 -77.953125 C 74.453125 -89.867188 68.207031 -95.828125 55.71875 -95.828125 L 37.234375 -95.828125 L 37.234375 -60.15625 Z M 55.71875 -60.15625 "/></g></g><g transform="translate(440.225585, 440.403445)"><g><path d="M 88.140625 -70.875 L 88.140625 -113.625 L 110.515625 -113.625 L 110.515625 0 L 88.140625 0 L 88.140625 -51.765625 L 37.234375 -51.765625 L 37.234375 0 L 14.765625 0 L 14.765625 -113.625 L 37.234375 -113.625 L 37.234375 -70.875 Z M 88.140625 -70.875 "/></g></g><g transform="translate(565.589635, 440.403445)"><g><path d="M 109.046875 0 L 85.421875 0 L 76.859375 -26.1875 L 33.34375 -26.1875 L 24.796875 0 L 1.703125 0 L 40.953125 -113.625 L 69.796875 -113.625 Z M 54.015625 -89.921875 L 39.40625 -45.078125 L 70.640625 -45.078125 L 55.953125 -89.921875 Z M 54.015625 -89.921875 "/></g></g></g></svg>