<svg width="24" height="24" viewBox="0 0 24 24" fill="none" xmlns="http://www.w3.org/2000/svg">
<g clip-path="url(#clip0_29709_99442)">
<path d="M15.75 19.5H9.5V18.25H15.75V8.25H5.75V14.5H4.5V8.25C4.50035 7.91859 4.63216 7.60085 4.8665 7.3665C5.10085 7.13215 5.41859 7.00035 5.75 7H15.75C16.0814 7.00035 16.3992 7.13215 16.6335 7.3665C16.8678 7.60085 16.9997 7.91859 17 8.25V18.25C16.9997 18.5814 16.8678 18.8992 16.6335 19.1335C16.3992 19.3678 16.0814 19.4997 15.75 19.5Z" fill="#3B82F6"/>
<path d="M19.5 15.75H18.25V14.5H19.5V4.5H9.5V5.75H8.25V4.5C8.25035 4.16859 8.38215 3.85085 8.6165 3.6165C8.85085 3.38216 9.16859 3.25035 9.5 3.25H19.5C19.8314 3.25035 20.1492 3.38216 20.3835 3.6165C20.6178 3.85085 20.7497 4.16859 20.75 4.5V14.5C20.7497 14.8314 20.6178 15.1492 20.3835 15.3835C20.1492 15.6178 19.8314 15.7497 19.5 15.75Z" fill="#3B82F6"/>
<path d="M8.25 10.75V12H11.1163L3.875 19.2413L4.75875 20.125L12 12.8837V15.75H13.25V10.75H8.25Z" fill="#3B82F6"/>
</g>
<defs>
<clipPath id="clip0_29709_99442">
<rect width="20" height="20" fill="white" transform="translate(2 2)"/>
</clipPath>
</defs>
</svg>
