<svg width="37" height="16" viewBox="0 0 37 16" fill="none" xmlns="http://www.w3.org/2000/svg">
<rect y="0.5" width="37" height="15" rx="3" fill="#FACF39"/>
<path d="M9.38867 8.28711H7.57715L7.56738 7.39355H9.14941C9.41634 7.39355 9.64258 7.35449 9.82812 7.27637C10.0169 7.19499 10.1602 7.07943 10.2578 6.92969C10.3555 6.77669 10.4043 6.59277 10.4043 6.37793C10.4043 6.1403 10.3587 5.94661 10.2676 5.79688C10.1764 5.64714 10.0365 5.53809 9.84766 5.46973C9.66211 5.40137 9.42448 5.36719 9.13477 5.36719H7.94824V11.5H6.72266V4.39062H9.13477C9.52539 4.39062 9.8737 4.42806 10.1797 4.50293C10.4889 4.5778 10.751 4.69499 10.9658 4.85449C11.1839 5.01074 11.3483 5.20931 11.459 5.4502C11.5729 5.69108 11.6299 5.97754 11.6299 6.30957C11.6299 6.60254 11.5599 6.87109 11.4199 7.11523C11.2799 7.35612 11.0732 7.55306 10.7998 7.70605C10.5264 7.85905 10.1862 7.9502 9.7793 7.97949L9.38867 8.28711ZM9.33496 11.5H7.19141L7.74316 10.5283H9.33496C9.61165 10.5283 9.84277 10.4827 10.0283 10.3916C10.2139 10.2972 10.3522 10.1686 10.4434 10.0059C10.5378 9.83984 10.585 9.64616 10.585 9.4248C10.585 9.19368 10.5443 8.99349 10.4629 8.82422C10.3815 8.65169 10.2529 8.51986 10.0771 8.42871C9.90137 8.33431 9.67188 8.28711 9.38867 8.28711H8.01172L8.02148 7.39355H9.81348L10.0918 7.73047C10.4824 7.74349 10.8031 7.82975 11.0537 7.98926C11.3076 8.14876 11.4964 8.35547 11.6201 8.60938C11.7438 8.86328 11.8057 9.13672 11.8057 9.42969C11.8057 9.88216 11.7064 10.2614 11.5078 10.5674C11.3125 10.8734 11.0309 11.1061 10.6631 11.2656C10.2952 11.4219 9.85254 11.5 9.33496 11.5ZM17.6943 10.5283V11.5H13.9199V10.5283H17.6943ZM14.2666 4.39062V11.5H13.041V4.39062H14.2666ZM17.2012 7.35938V8.31641H13.9199V7.35938H17.2012ZM17.6699 4.39062V5.36719H13.9199V4.39062H17.6699ZM21.7178 4.39062V11.5H20.502V4.39062H21.7178ZM23.9492 4.39062V5.36719H18.29V4.39062H23.9492ZM27.1865 5.33789L25.0625 11.5H23.7783L26.4541 4.39062H27.2744L27.1865 5.33789ZM28.9639 11.5L26.835 5.33789L26.7422 4.39062H27.5674L30.2529 11.5H28.9639ZM28.8613 8.86328V9.83496H24.9941V8.86328H28.8613Z" fill="#374151"/>
</svg>
