<svg xmlns="http://www.w3.org/2000/svg" viewBox="0 0 40 40" width="50" height="50"><defs><path id="a" gradientUnits="userSpaceOnUse" x1="28.593" y1="14.226" x2="16.672" y2="23.532" gradientTransform="scale(4)" d=""><stop offset=".176" stop-color="#0052cc"/><stop offset="1" stop-color="#2684ff"/></path></defs><path d="M5.963 6.25c-0.599 0 -1.048 0.549 -0.95 1.099l4.047 24.778c0.1 0.649 0.649 1.098 1.298 1.098h19.581c0.451 0 0.85 -0.35 0.95 -0.799l4.097 -25.027c0.099 -0.599 -0.35 -1.099 -0.95 -1.099zM23.147 24.133H16.903l-1.649 -8.842h9.442zm0 0" fill="#2684ff"/><path d="M33.638 15.292H24.646L23.147 24.133H16.903l-7.344 8.741s0.35 0.3 0.85 0.3h19.581c0.45 0 0.85 -0.35 0.95 -0.799zm0 0" fill="url(#a)"/></svg>
