<svg width="20" height="18" viewBox="0 0 20 18" fill="none" xmlns="http://www.w3.org/2000/svg">
<path id="Vector" d="M18.1739 18C18.0189 17.9999 17.8668 17.9596 17.7339 17.8835L14.0183 15.7664C12.7343 16.2285 11.3725 16.463 10 16.4584C4.48611 16.4584 0 12.7668 0 8.22918C0 3.69159 4.48611 0 10 0C15.5139 0 20 3.69159 20 8.22918C20 10.2309 19.1378 12.1246 17.5578 13.6202L18.9706 16.8469C19.115 17.1773 19.0228 17.5595 18.7422 17.7951C18.5811 17.9306 18.3783 18 18.1739 18ZM14.0933 14.0125C14.2461 14.0125 14.3983 14.0516 14.5333 14.1289L16.3622 15.1703L15.73 13.7271C15.6589 13.5651 15.6432 13.3858 15.6851 13.2147C15.7269 13.0437 15.8243 12.8895 15.9633 12.7742C17.4522 11.5433 18.2722 9.92912 18.2722 8.22918C18.2722 4.608 14.5611 1.66129 10 1.66129C5.43889 1.66129 1.72778 4.608 1.72778 8.22918C1.72778 11.8504 5.43889 14.7971 10 14.7971C11.3206 14.7971 12.5839 14.5551 13.7567 14.0781C13.8644 14.0342 13.9789 14.0125 14.0933 14.0125ZM4.96056 8.30753C4.96217 8.02272 5.08207 7.7501 5.29404 7.5493C5.506 7.3485 5.79278 7.23586 6.09167 7.236C6.39059 7.2388 6.67621 7.35424 6.88607 7.55711C7.09594 7.75998 7.213 8.03378 7.21167 8.31865C7.21167 8.91424 6.71167 9.39812 6.09167 9.40076C5.79298 9.40077 5.50642 9.28814 5.29459 9.08746C5.08276 8.88679 4.96287 8.61439 4.96111 8.32976V8.30806L4.96056 8.30753ZM8.70389 8.30753C8.70389 8.919 9.22 9.41506 9.85611 9.41506C10.1629 9.41366 10.4566 9.2962 10.6726 9.08851C10.8885 8.88083 11.0091 8.59991 11.0078 8.30753C11.0091 8.01515 10.8885 7.73423 10.6726 7.52655C10.4566 7.31886 10.1629 7.2014 9.85611 7.2C9.70414 7.20062 9.55379 7.22977 9.41364 7.28576C9.27349 7.34176 9.14629 7.42351 9.03929 7.52636C8.9323 7.6292 8.84761 7.75112 8.79006 7.88516C8.73251 8.01919 8.70323 8.16271 8.70389 8.30753ZM12.4478 8.30753C12.4494 8.02272 12.5693 7.7501 12.7813 7.5493C12.9932 7.3485 13.28 7.23586 13.5789 7.236C13.8778 7.2388 14.1634 7.35424 14.3733 7.55711C14.5832 7.75998 14.7002 8.03378 14.6989 8.31865C14.6989 8.91424 14.1989 9.39812 13.5789 9.40076C13.28 9.40091 12.9932 9.28826 12.7813 9.08746C12.5693 8.88666 12.4494 8.61405 12.4478 8.32924V8.30753Z" fill="#B9B9B9"/>
</svg>
