<svg width="18" height="18" viewBox="0 0 18 18" fill="none" xmlns="http://www.w3.org/2000/svg">
<g clip-path="url(#clip0_34670_41102)">
<path fill-rule="evenodd" clip-rule="evenodd" d="M18 9C18 13.9705 13.9705 18 9 18C4.02943 18 0 13.9705 0 9C0 4.02943 4.02943 0 9 0C13.9705 0 18 4.02943 18 9ZM12.6273 6.2727C12.8909 6.5363 12.8909 6.9637 12.6273 7.22727L8.12727 11.7273C7.86366 11.9909 7.43634 11.9909 7.1727 11.7273L5.3727 9.92727C5.1091 9.66366 5.1091 9.23634 5.3727 8.97273C5.6363 8.70912 6.0637 8.70912 6.3273 8.97273L7.65 10.2954L9.66132 8.28405L11.6727 6.2727C11.9363 6.0091 12.3637 6.0091 12.6273 6.2727Z" fill="#22C55E"/>
</g>
<defs>
<clipPath id="clip0_34670_41102">
<rect width="18" height="18" fill="white"/>
</clipPath>
</defs>
</svg>
