<svg width="20" height="21" viewBox="0 0 20 21" fill="none" xmlns="http://www.w3.org/2000/svg">
<path d="M5.71484 5.71205C5.71484 5.39646 5.97068 5.14062 6.28627 5.14062H18.0006C18.3161 5.14062 18.572 5.39646 18.572 5.71205V5.99777C18.572 6.31335 18.3161 6.5692 18.0006 6.5692H6.28627C5.97068 6.5692 5.71484 6.31335 5.71484 5.99777V5.71205Z" fill="#3B82F6"/>
<path d="M5.71484 15.7121C5.71484 15.3965 5.97068 15.1406 6.28627 15.1406H18.0006C18.3161 15.1406 18.572 15.3965 18.572 15.7121V15.9978C18.572 16.3134 18.3161 16.5692 18.0006 16.5692H6.28627C5.97068 16.5692 5.71484 16.3134 5.71484 15.9978V15.7121Z" fill="#3B82F6"/>
<path d="M5.71484 10.7121C5.71484 10.3965 5.97068 10.1406 6.28627 10.1406H18.0006C18.3161 10.1406 18.572 10.3965 18.572 10.7121V10.9978C18.572 11.3134 18.3161 11.5692 18.0006 11.5692H6.28627C5.97068 11.5692 5.71484 11.3134 5.71484 10.9978V10.7121Z" fill="#3B82F6"/>
<path d="M3.57254 5.85658C3.57254 6.44832 3.09285 6.92801 2.50112 6.92801C1.90938 6.92801 1.42969 6.44832 1.42969 5.85658C1.42969 5.26485 1.90938 4.78516 2.50112 4.78516C3.09285 4.78516 3.57254 5.26485 3.57254 5.85658Z" fill="#3B82F6"/>
<path d="M3.57254 15.8566C3.57254 16.4484 3.09285 16.928 2.50112 16.928C1.90938 16.928 1.42969 16.4484 1.42969 15.8566C1.42969 15.2649 1.90938 14.7852 2.50112 14.7852C3.09285 14.7852 3.57254 15.2649 3.57254 15.8566Z" fill="#3B82F6"/>
<path d="M3.57254 10.8566C3.57254 11.4484 3.09285 11.928 2.50112 11.928C1.90938 11.928 1.42969 11.4484 1.42969 10.8566C1.42969 10.2649 1.90938 9.78516 2.50112 9.78516C3.09285 9.78516 3.57254 10.2649 3.57254 10.8566Z" fill="#3B82F6"/>
</svg>
