<svg xmlns="http://www.w3.org/2000/svg" width="20" height="20" viewBox="0 0 20 20" fill="none">
  <path d="M14.8453 6.90291C14.5752 5.82313 13.9521 4.86456 13.0749 4.17939C12.1977 3.49422 11.1168 3.12174 10.0038 3.12109C8.89071 3.12045 7.80935 3.49167 6.93139 4.17582C6.05343 4.85997 5.42919 5.81782 5.15781 6.89728C3.87771 7.01742 2.69308 7.62606 1.84999 8.5968C1.00691 9.56752 0.570179 10.8257 0.630513 12.11C0.690847 13.3944 1.24361 14.6061 2.17399 15.4935C3.10436 16.3809 4.34083 16.8758 5.62656 16.8754H7.50156C7.66732 16.8754 7.82629 16.8096 7.9435 16.6923C8.06071 16.5751 8.12656 16.4162 8.12656 16.2504C8.12656 16.0846 8.06071 15.9257 7.9435 15.8085C7.82629 15.6913 7.66732 15.6254 7.50156 15.6254H5.62656C5.13411 15.6268 4.64619 15.5313 4.19067 15.3441C3.73515 15.157 3.32094 14.882 2.97171 14.5348C2.2664 13.8336 1.86853 12.8809 1.86562 11.8863C1.86272 10.8918 2.25503 9.9368 2.95624 9.23149C3.65745 8.52618 4.61013 8.12831 5.60469 8.12541C5.76506 8.13748 5.92419 8.08955 6.05123 7.99093C6.17826 7.89231 6.26413 7.75001 6.29219 7.59166C6.41945 6.6992 6.86443 5.88261 7.54539 5.29187C8.22635 4.70112 9.09757 4.37589 9.99906 4.37589C10.9006 4.37589 11.7718 4.70112 12.4527 5.29187C13.1337 5.88261 13.5787 6.6992 13.7059 7.59166C13.7386 7.74451 13.8234 7.88129 13.9457 7.97863C14.068 8.07597 14.2203 8.12785 14.3766 8.12541C15.3711 8.12541 16.325 8.52049 17.0282 9.22376C17.7315 9.92702 18.1266 10.8808 18.1266 11.8754C18.1266 12.87 17.7315 13.8238 17.0282 14.5271C16.325 15.2303 15.3711 15.6254 14.3766 15.6254H12.5016C12.3358 15.6254 12.1768 15.6913 12.0596 15.8085C11.9424 15.9257 11.8766 16.0846 11.8766 16.2504C11.8766 16.4162 11.9424 16.5751 12.0596 16.6923C12.1768 16.8096 12.3358 16.8754 12.5016 16.8754H14.3766C15.6529 16.862 16.8758 16.3611 17.7947 15.4752C18.7135 14.5892 19.2588 13.3854 19.3187 12.1104C19.3787 10.8355 18.9487 9.58582 18.117 8.61761C17.2853 7.6494 16.1148 7.03593 14.8453 6.90291Z" fill="#737373"/>
  <path d="M12.6833 12.3167C12.8011 12.4306 12.959 12.4936 13.1229 12.4922C13.2868 12.4907 13.4435 12.425 13.5594 12.3091C13.6753 12.1932 13.741 12.0365 13.7424 11.8726C13.7439 11.7087 13.6809 11.5509 13.567 11.433L10.442 8.30799C10.3248 8.19082 10.1659 8.125 10.0001 8.125C9.8344 8.125 9.67546 8.19082 9.55826 8.30799L6.43326 11.433C6.31941 11.5509 6.25641 11.7087 6.25784 11.8726C6.25926 12.0365 6.32499 12.1932 6.44087 12.3091C6.55675 12.425 6.71351 12.4907 6.87738 12.4922C7.04125 12.4936 7.19913 12.4306 7.31701 12.3167L9.37513 10.2586V18.1249C9.37513 18.2906 9.44098 18.4496 9.55819 18.5668C9.6754 18.684 9.83437 18.7499 10.0001 18.7499C10.1659 18.7499 10.3249 18.684 10.4421 18.5668C10.5593 18.4496 10.6251 18.2906 10.6251 18.1249V10.2586L12.6833 12.3167Z" fill="#737373"/>
</svg>