<svg width="14" height="14" viewBox="0 0 14 14" fill="none" xmlns="http://www.w3.org/2000/svg">
<g clip-path="url(#clip0_19677_61807)">
<path d="M11.6667 5.25H6.41667C5.77233 5.25 5.25 5.77233 5.25 6.41667V11.6667C5.25 12.311 5.77233 12.8333 6.41667 12.8333H11.6667C12.311 12.8333 12.8333 12.311 12.8333 11.6667V6.41667C12.8333 5.77233 12.311 5.25 11.6667 5.25Z" stroke="#9F9F9F" stroke-width="1.25" stroke-linecap="round" stroke-linejoin="round"/>
<path d="M2.91797 8.7513H2.33464C2.02522 8.7513 1.72847 8.62839 1.50968 8.40959C1.29089 8.1908 1.16797 7.89406 1.16797 7.58464V2.33464C1.16797 2.02522 1.29089 1.72847 1.50968 1.50968C1.72847 1.29089 2.02522 1.16797 2.33464 1.16797H7.58464C7.89406 1.16797 8.1908 1.29089 8.40959 1.50968C8.62839 1.72847 8.7513 2.02522 8.7513 2.33464V2.91797" stroke="#9F9F9F" stroke-width="1.25" stroke-linecap="round" stroke-linejoin="round"/>
</g>
<defs>
<clipPath id="clip0_19677_61807">
<rect width="14" height="14" fill="white"/>
</clipPath>
</defs>
</svg>
