<svg width="24" height="24" viewBox="-1.259 0 24 24" xmlns="http://www.w3.org/2000/svg" preserveAspectRatio="xMidYMid"><path d="M1.204 6.728H17.081c1.75 0 3.312 -0.802 4.361 -2.055C19.255 1.832 15.823 0 11.961 0 7.232 0 3.145 2.745 1.204 6.728" fill="#F0BF1A"/><path d="M15.736 8.597H0.483A11.958 11.958 0 0 0 0 11.961c0 1.168 0.171 2.297 0.483 3.364h15.253c1.831 0 3.364 -1.495 3.364 -3.364 0 -1.869 -1.495 -3.364 -3.364 -3.364" fill="#07A5DE"/><path d="M21.483 19.196c-1.042 -1.224 -2.592 -2.003 -4.327 -2.003H1.204C3.145 21.176 7.232 23.921 11.961 23.921c3.886 0 7.337 -1.854 9.522 -4.725" fill="#3EBEB0"/><path d="M0.483 8.597a11.956 11.956 0 0 0 0 6.728h9.982c0.262 -1.009 0.411 -2.13 0.411 -3.364 0 -1.233 -0.149 -2.355 -0.411 -3.364z" fill="#231F20"/><path d="M5.943 1.607c-2.018 1.196 -3.7 2.99 -4.747 5.121h8.821c-0.897 -2.056 -2.317 -3.775 -4.074 -5.121" fill="#D7A229"/><path d="M6.317 22.501c1.719 -1.383 3.102 -3.214 3.962 -5.308H1.196c1.121 2.243 2.915 4.111 5.121 5.308" fill="#019B8F"/></svg>