<svg xmlns="http://www.w3.org/2000/svg" xml:space="preserve" width="24" height="24" style="shape-rendering:geometricPrecision;text-rendering:geometricPrecision;image-rendering:optimizeQuality;fill-rule:evenodd;clip-rule:evenodd" viewBox="0 0 24 24"><defs><style>.fil0{fill:none}</style></defs><g id="Layer_x0020_1"><path class="fil0" d="M0 0h24v24H0z"/><path class="fil0" d="M3 3h18v18h-18z"/><path class="fil0" d="M3 3h18v18h-18z"/><path d="M12 3c4.971 0 9 4.029 9 9S16.971 21 12 21 3 16.971 3 12 7.029 3 12 3" style="fill:#ffd54f"/><path d="M15.066 8.25c0.518 0 0.938 0.42 0.938 0.938 0 0.518 -0.42 0.938 -0.938 0.938s-0.938 -0.42 -0.938 -0.938 0.42 -0.938 0.938 -0.938m-6.131 0c0.518 0 0.938 0.42 0.938 0.938 0 0.518 -0.42 0.938 -0.938 0.938s-0.938 -0.42 -0.938 -0.938 0.42 -0.938 0.938 -0.938M7.669 13.902c0.669 3.665 8.086 3.516 8.662 0 -1.405 1.82 -6.023 2.689 -8.662 0" style="fill:#5d4037"/></g></svg>