<svg xmlns="http://www.w3.org/2000/svg" xml:space="preserve" width="24" height="24" style="shape-rendering:geometricPrecision;text-rendering:geometricPrecision;image-rendering:optimizeQuality;fill-rule:evenodd;clip-rule:evenodd" viewBox="0 0 24 24"><defs><style>.fil1{fill:none}.fil2{fill:#5d4037}</style></defs><g id="Layer_x0020_1"><path d="M12 3c4.971 0 9 4.029 9 9S16.971 21 12 21 3 16.971 3 12 7.029 3 12 3" style="fill:#ffd54f"/><path class="fil1" d="M0 0h24v24H0z"/><path class="fil1" d="M3 3h18v18h-18z"/><path class="fil2" d="M7.95 17.15c0.619 -5.569 7.744 -5.569 8.25 0 -1.355 -3.378 -5.756 -4.561 -8.25 0m7.368 -9.275c0.518 0 0.938 0.42 0.938 0.938 0 0.518 -0.42 0.938 -0.938 0.938s-0.938 -0.42 -0.938 -0.938 0.42 -0.938 0.938 -0.938m-6.637 0c0.518 0 0.938 0.42 0.938 0.938 0 0.518 -0.42 0.938 -0.938 0.938s-0.938 -0.42 -0.938 -0.938 0.42 -0.938 0.938 -0.938"/></g></svg>