<svg width="37" height="38" viewBox="0 0 37 38" fill="none" xmlns="http://www.w3.org/2000/svg">
<path fill-rule="evenodd" clip-rule="evenodd" d="M21.4997 21.7917H20.2505L19.8078 21.3518C21.3574 19.4946 22.2903 17.0834 22.2903 14.4605C22.2903 8.6119 17.689 3.87109 12.0123 3.87109C6.33574 3.87109 1.73438 8.6119 1.73438 14.4605C1.73438 20.3091 6.33574 25.0499 12.0123 25.0499C14.5581 25.0499 16.8983 24.0888 18.7009 22.4922L19.1279 22.9484V24.2354L27.034 32.3648L29.39 29.9374L21.4997 21.7917ZM12.0123 21.7917C8.07509 21.7917 4.89683 18.5171 4.89683 14.4605C4.89683 10.404 8.07509 7.12938 12.0123 7.12938C15.9496 7.12938 19.1279 10.404 19.1279 14.4605C19.1279 18.5171 15.9496 21.7917 12.0123 21.7917Z" fill="#FACF39"/>
<g opacity="0.2">
<path fill-rule="evenodd" clip-rule="evenodd" d="M26.656 22.8229H25.4068L24.964 22.383C26.5136 20.5258 27.4466 18.1147 27.4466 15.4918C27.4466 9.64315 22.8452 4.90234 17.1686 4.90234C11.492 4.90234 6.89062 9.64315 6.89062 15.4918C6.89062 21.3404 11.492 26.0812 17.1686 26.0812C19.7144 26.0812 22.0546 25.12 23.8572 23.5234L24.2841 23.9796V25.2666L32.1903 33.396L34.5463 30.9686L26.656 22.8229ZM17.1686 22.8229C13.2313 22.8229 10.0531 19.5483 10.0531 15.4918C10.0531 11.4352 13.2313 8.16063 17.1686 8.16063C21.1059 8.16063 24.2841 11.4352 24.2841 15.4918C24.2841 19.5483 21.1059 22.8229 17.1686 22.8229Z" fill="#FACF39"/>
</g>
</svg>
