<svg width="24" height="24" viewBox="0 0 24 24" fill="none" xmlns="http://www.w3.org/2000/svg">
<g filter="url(#filter0_d_29163_95381)">
<rect x="2" y="1" width="20" height="20" rx="4" fill="#4A7ED2"/>
<g clip-path="url(#clip0_29163_95381)">
<path d="M6.66613 11.6661C6.56949 11.665 6.47377 11.6849 6.3856 11.7245C6.29743 11.764 6.21892 11.8223 6.15551 11.8952C6.09209 11.9682 6.04529 12.054 6.01835 12.1468C5.9914 12.2396 5.98496 12.3372 5.99946 12.4327C6.03081 12.5944 6.11819 12.7399 6.24623 12.8436C6.37426 12.9472 6.53475 13.0024 6.69946 12.9994H9.06612L5.56613 16.4994C5.43468 16.615 5.35401 16.7778 5.34154 16.9524C5.32907 17.127 5.38579 17.2996 5.49946 17.4327C5.55805 17.5088 5.63404 17.5697 5.72105 17.6103C5.80805 17.6509 5.90353 17.67 5.99946 17.6661C6.1753 17.6636 6.34304 17.5917 6.46613 17.4661L9.99946 13.9327V16.2994C9.99645 16.4641 10.0516 16.6246 10.1553 16.7526C10.2589 16.8807 10.4044 16.968 10.5661 16.9994C10.6617 17.0139 10.7592 17.0075 10.852 16.9805C10.9449 16.9536 11.0307 16.9068 11.1036 16.8433C11.1765 16.7799 11.2348 16.7014 11.2744 16.6132C11.314 16.5251 11.3339 16.4294 11.3328 16.3327V12.3327C11.3328 12.1559 11.2626 11.9863 11.1375 11.8613C11.0125 11.7363 10.8429 11.6661 10.6661 11.6661H6.66613Z" fill="white"/>
<path d="M18.568 4.59924C18.5106 4.51833 18.4358 4.45125 18.3492 4.40289C18.2626 4.35454 18.1662 4.32613 18.0672 4.31974C17.9682 4.31335 17.869 4.32915 17.7769 4.36597C17.6848 4.40279 17.602 4.45971 17.5347 4.53258L14.0013 8.06591V5.69924C14.0044 5.53454 13.9492 5.37405 13.8455 5.24601C13.7419 5.11797 13.5964 5.03059 13.4347 4.99924C13.3391 4.98474 13.2416 4.99119 13.1488 5.01813C13.056 5.04508 12.9701 5.09188 12.8972 5.15529C12.8243 5.21871 12.766 5.29722 12.7264 5.38539C12.6868 5.47356 12.6669 5.56927 12.668 5.66591V9.66591C12.668 9.84272 12.7382 10.0123 12.8633 10.1373C12.9883 10.2623 13.1579 10.3326 13.3347 10.3326H17.3013C17.4661 10.3356 17.6265 10.2804 17.7546 10.1768C17.8826 10.0731 17.97 9.92763 18.0013 9.76591C18.0158 9.67036 18.0094 9.5728 17.9825 9.47999C17.9555 9.38718 17.9087 9.30134 17.8453 9.22842C17.7819 9.15549 17.7034 9.09722 17.6152 9.05765C17.527 9.01808 17.4313 8.99815 17.3347 8.99924H14.9347L18.468 5.49924C18.5781 5.37928 18.6471 5.2274 18.6651 5.06559C18.6831 4.90377 18.6491 4.74044 18.568 4.59924Z" fill="white"/>
</g>
</g>
<defs>
<filter id="filter0_d_29163_95381" x="0" y="0" width="24" height="24" filterUnits="userSpaceOnUse" color-interpolation-filters="sRGB">
<feFlood flood-opacity="0" result="BackgroundImageFix"/>
<feColorMatrix in="SourceAlpha" type="matrix" values="0 0 0 0 0 0 0 0 0 0 0 0 0 0 0 0 0 0 127 0" result="hardAlpha"/>
<feOffset dy="1"/>
<feGaussianBlur stdDeviation="1"/>
<feColorMatrix type="matrix" values="0 0 0 0 0.0627451 0 0 0 0 0.0941176 0 0 0 0 0.156863 0 0 0 0.05 0"/>
<feBlend mode="normal" in2="BackgroundImageFix" result="effect1_dropShadow_29163_95381"/>
<feBlend mode="normal" in="SourceGraphic" in2="effect1_dropShadow_29163_95381" result="shape"/>
</filter>
<clipPath id="clip0_29163_95381">
<rect width="16" height="16" fill="white" transform="translate(4 3)"/>
</clipPath>
</defs>
</svg>
