<svg width="24" height="25" viewBox="0 0 24 25" fill="none" xmlns="http://www.w3.org/2000/svg"><g clip-path="url(#a)"><path d="M5.44 13.485v-8.125H1.89c-1.045 0 -1.89 0.85 -1.89 1.895V24.05c0 0.845 1.02 1.265 1.615 0.67l3.905 -3.905h11.12c1.045 0 1.89 -0.845 1.89 -1.89V15.375H7.335c-1.045 0 -1.895 -0.845 -1.895 -1.89" fill="#00AC47"/><path d="M22.08 0H7.335c-1.045 0 -1.89 0.845 -1.89 1.89v3.47h11.195c1.045 0 1.89 0.845 1.89 1.89v8.12h3.55c1.045 0 1.89 -0.845 1.89 -1.89V1.89C23.97 0.845 23.125 0 22.08 0" fill="#5BB974"/><path d="M16.64 5.36h-11.2v8.12c0 1.045 0.845 1.89 1.89 1.89H18.525V7.255a1.885 1.885 0 0 0 -1.885 -1.895" fill="#00832D"/></g><defs><clipPath id="a"><path fill="#fff" d="M0 0h23.97v25H0z"/></clipPath></defs></svg>