<svg xmlns="http://www.w3.org/2000/svg" viewBox="0 0 24 24" width="24" height="24"><path d="M11.998 0C5.373 0 0 5.394 0 12.048a12.045 12.045 0 0 0 8.208 11.431c.6.111.819-.261.819-.581 0-.286-.011-1.044-.017-2.049-3.338.728-4.042-1.615-4.042-1.615-.544-1.392-1.332-1.763-1.332-1.763-1.091-.747.081-.732.081-.732 1.205.086 1.838 1.242 1.838 1.242 1.071 1.841 2.809 1.309 3.494 1.001.108-.778.419-1.309.762-1.611-2.664-.304-5.466-1.338-5.466-5.954 0-1.316.468-2.391 1.236-3.234-.124-.304-.535-1.53.117-3.188 0 0 1.008-.324 3.3 1.234a11.4 11.4 0 0 1 3.005-.405 11.6 11.6 0 0 1 3.005.407c2.29-1.558 3.297-1.234 3.297-1.234.654 1.659.243 2.883.12 3.188.77.843 1.233 1.918 1.233 3.234 0 4.627-2.805 5.646-5.478 5.944.43.372.815 1.107.815 2.231 0 1.611-.015 2.91-.015 3.304 0 .323.216.698.825.579A12.045 12.045 0 0 0 24 12.048C24 5.394 18.627 0 11.998 0"/></svg>