<svg width="32" height="18" viewBox="0 0 32 18" fill="none" xmlns="http://www.w3.org/2000/svg">
<g opacity="0.75">
<path d="M4.3555 0.904297H1.08862C0.661197 0.904297 0.430829 1.40586 0.709335 1.73009L6.64066 8.63522C6.80101 8.8219 6.80168 9.09751 6.64224 9.28496L0.700809 16.2703C0.424625 16.5951 0.655395 17.0943 1.08168 17.0943H4.35402C4.50163 17.0943 4.64169 17.0291 4.73669 16.9161L11.1562 9.28283C11.3133 9.0961 11.3126 8.8233 11.1547 8.63733L4.7366 1.08062C4.6416 0.968768 4.50225 0.904297 4.3555 0.904297Z" fill="#BBF7D0"/>
<path d="M14.6407 0.904297H11.3738C10.9464 0.904297 10.716 1.40586 10.9945 1.73009L16.9258 8.63522C17.0862 8.8219 17.0868 9.09751 16.9274 9.28496L10.986 16.2703C10.7098 16.5951 10.9406 17.0943 11.3668 17.0943H14.6392C14.7868 17.0943 14.9268 17.0291 15.0218 16.9161L21.4414 9.28283C21.5984 9.0961 21.5978 8.8233 21.4398 8.63733L15.0218 1.08062C14.9268 0.968768 14.7874 0.904297 14.6407 0.904297Z" fill="#86EFAC"/>
<path d="M24.9297 0.904297H21.6628C21.2354 0.904297 21.005 1.40586 21.2836 1.73009L27.2149 8.63522C27.3752 8.8219 27.3759 9.09751 27.2165 9.28496L21.275 16.2703C20.9988 16.5951 21.2296 17.0943 21.6559 17.0943H24.9282C25.0758 17.0943 25.2159 17.0291 25.3109 16.9161L31.7305 9.28283C31.8875 9.0961 31.8868 8.8233 31.7289 8.63733L25.3108 1.08062C25.2158 0.968768 25.0765 0.904297 24.9297 0.904297Z" fill="#22C55E"/>
</g>
</svg>
