<svg width="20" height="20" viewBox="0 0 20 20" fill="none" xmlns="http://www.w3.org/2000/svg">
<path d="M12.4375 9.48438C13.3594 8.75781 13.9531 7.64062 13.9531 6.375C13.9531 4.19531 12.1797 2.42188 10 2.42188C7.82031 2.42188 6.05469 4.20312 6.05469 6.375C6.05469 7.63281 6.64844 8.75781 7.57031 9.48438C5.14063 10.4531 3.42188 12.8281 3.42188 15.5938V16.9141C3.42188 17.2734 3.71875 17.5703 4.07813 17.5703H15.9297C16.2891 17.5703 16.5859 17.2734 16.5859 16.9141V15.5938C16.5859 12.8281 14.8672 10.4531 12.4375 9.48438ZM10 3.74219C11.4531 3.74219 12.6328 4.92187 12.6328 6.375C12.6328 7.82812 11.4531 9.00781 10 9.00781C8.54687 9.00781 7.36719 7.82812 7.36719 6.375C7.36719 4.92187 8.54687 3.74219 10 3.74219ZM15.2734 16.2578H4.73438V15.6016C4.73438 12.6953 7.09375 10.3359 10.0078 10.3359C12.9141 10.3359 15.2734 12.6953 15.2734 15.6016V16.2578Z" fill="white"/>
<path d="M5.59375 9.71108C5.60937 9.67201 5.60937 9.62514 5.61719 9.58607C5.625 9.56264 5.63281 9.5392 5.63281 9.50795C5.64062 9.45326 5.63281 9.40639 5.625 9.3517C5.625 9.32826 5.625 9.29701 5.625 9.27357C5.625 9.25795 5.60938 9.25014 5.60938 9.23451C5.60156 9.20326 5.58594 9.17983 5.57031 9.14858C5.54688 9.09389 5.51562 9.0392 5.46875 8.99233C5.46094 8.98451 5.45312 8.98451 5.45312 8.9767C5.39062 8.9142 5.32812 8.86733 5.25 8.82826C4.53906 8.50795 4.07812 7.80483 4.07812 7.02358C4.07812 6.10951 4.69531 5.32045 5.58594 5.1017C5.9375 5.01576 6.15625 4.65639 6.07031 4.30483C5.98437 3.95326 5.625 3.73451 5.27344 3.82045C3.78906 4.17983 2.75781 5.49233 2.75781 7.02358C2.75781 7.85951 3.07812 8.64076 3.61719 9.23451C1.89844 10.1329 0.78125 11.9142 0.78125 13.922V14.9376C0.78125 15.297 1.07812 15.5939 1.4375 15.5939C1.79687 15.5939 2.09375 15.297 2.09375 14.9376V13.922C2.09375 12.1017 3.32031 10.5392 5.07812 10.0939C5.29687 10.0626 5.5 9.92983 5.59375 9.71108Z" fill="white"/>
<path d="M16.3895 9.24203C16.9286 8.64828 17.2489 7.86703 17.2489 7.03109C17.2489 5.54672 16.2489 4.23422 14.8114 3.85141C14.4598 3.75766 14.1004 3.96859 14.0067 4.31234C13.9129 4.66391 14.1239 5.02328 14.4676 5.11703C15.327 5.35141 15.9286 6.13266 15.9286 7.02328C15.9286 7.80453 15.4676 8.50766 14.7567 8.82797C14.6786 8.85922 14.6082 8.91391 14.5457 8.97641C14.5379 8.98422 14.5379 8.98422 14.5301 8.99203C14.4911 9.03891 14.4598 9.09359 14.4286 9.14828C14.4129 9.17953 14.3973 9.20297 14.3895 9.23422C14.3895 9.24984 14.3739 9.25766 14.3739 9.27328C14.3661 9.29672 14.3739 9.32797 14.3739 9.35141C14.3661 9.39828 14.3661 9.45297 14.3661 9.50766C14.3661 9.53109 14.3739 9.56234 14.3817 9.58578C14.3895 9.62484 14.3895 9.67172 14.4051 9.71078C14.4989 9.92953 14.702 10.0623 14.9129 10.0936C16.6707 10.5389 17.8973 12.1014 17.8973 13.9217V14.9373C17.8973 15.2967 18.1942 15.5936 18.5536 15.5936C18.9129 15.5936 19.2098 15.2967 19.2098 14.9373V13.9217C19.2176 11.9139 18.1004 10.1327 16.3895 9.24203Z" fill="white"/>
</svg>
