<svg width="180" height="188" viewBox="0 0 180 188" fill="none" xmlns="http://www.w3.org/2000/svg">
<g opacity="0.7">
<path opacity="0.2" d="M71.8217 156.534L68.807 136.196L84.9132 123.416L104.034 130.975L107.049 151.313L90.9425 164.093L71.8217 156.534Z" fill="#FACF39"/>
<path d="M48.3998 127.015L45.3852 106.677L61.4913 93.8967L80.6122 101.455L83.6268 121.793L67.5206 134.573L48.3998 127.015Z" fill="#F3F3F3"/>
<path opacity="0.2" d="M99.4076 86.5423L96.393 66.2039L112.499 53.4241L131.62 60.9825L134.635 81.3208L118.528 94.1007L99.4076 86.5423Z" fill="#FACF39"/>
<path d="M24.9701 97.4876L21.9555 77.1493L38.0617 64.3694L57.1825 71.9278L60.1971 92.2661L44.0909 105.046L24.9701 97.4876Z" fill="#F3F3F3"/>
<path opacity="0.2" d="M85.6107 121.546L82.5961 101.208L98.7023 88.428L117.823 95.9864L120.838 116.325L104.732 129.105L85.6107 121.546Z" fill="#FACF39"/>
<path d="M109.048 151.077L106.034 130.739L122.14 117.959L141.261 125.518L144.275 145.856L128.169 158.636L109.048 151.077Z" fill="#F3F3F3"/>
<path opacity="0.2" d="M62.1889 92.0188L59.1742 71.6805L75.2804 58.9006L94.4012 66.459L97.4158 86.7973L81.3097 99.5772L62.1889 92.0188Z" fill="#FACF39"/>
<path opacity="0.2" d="M38.7592 62.4876L35.7445 42.1493L51.8507 29.3694L70.9715 36.9278L73.9862 57.2661L57.88 70.046L38.7592 62.4876Z" fill="#FACF39"/>
</g>
<g filter="url(#filter0_d_19451_67473)">
<rect x="31.2266" y="72.5273" width="104.421" height="11.4211" rx="2" transform="rotate(-3.17489 31.2266 72.5273)" fill="#FACF39"/>
<rect x="32.0078" y="86.5625" width="104.421" height="48.9474" rx="2" transform="rotate(-3.17489 32.0078 86.5625)" fill="white"/>
<g opacity="0.3">
<path d="M75.0984 98.8118C74.2045 98.0118 74.1283 96.6385 74.9283 95.7445C75.7283 94.8506 77.1016 94.7744 77.9956 95.5744L96.3091 111.963C97.2031 112.763 97.2793 114.136 96.4793 115.03C95.6792 115.924 94.306 116 93.412 115.2L75.0984 98.8118Z" fill="#FACF39"/>
<mask id="mask0_19451_67473" style="mask-type:luminance" maskUnits="userSpaceOnUse" x="74" y="95" width="24" height="21">
<path d="M75.0984 98.8118C74.2045 98.0118 74.1283 96.6385 74.9283 95.7445C75.7283 94.8506 77.1016 94.7744 77.9956 95.5744L96.3091 111.963C97.2031 112.763 97.2793 114.136 96.4793 115.03C95.6792 115.924 94.306 116 93.412 115.2L75.0984 98.8118Z" fill="#FACF39"/>
</mask>
<g mask="url(#mask0_19451_67473)">
<path d="M108.241 80.2064L56.1875 83.0938L59.0749 135.147L111.128 132.26L108.241 80.2064Z" fill="#FACF39"/>
</g>
</g>
<path d="M83.8193 110.742L77.0735 118.28C76.2735 119.174 74.9003 119.251 74.0063 118.451C73.1123 117.651 73.0361 116.277 73.8361 115.383L80.5819 107.845L73.0438 101.1C72.1498 100.299 72.0737 98.9262 72.8737 98.0322C73.6737 97.1382 75.047 97.0621 75.9409 97.8621L83.479 104.608L90.2248 97.0698C91.0248 96.1758 92.3981 96.0996 93.292 96.8996C94.186 97.6997 94.2622 99.0729 93.4622 99.9669L86.7164 107.505L94.2545 114.251C95.1485 115.051 95.2247 116.424 94.4246 117.318C93.6246 118.212 92.2514 118.288 91.3574 117.488L83.8193 110.742Z" fill="#FACF39"/>
<mask id="mask1_19451_67473" style="mask-type:luminance" maskUnits="userSpaceOnUse" x="72" y="96" width="23" height="24">
<path d="M83.8193 110.742L77.0735 118.28C76.2735 119.174 74.9003 119.251 74.0063 118.451C73.1123 117.651 73.0361 116.277 73.8361 115.383L80.5819 107.845L73.0438 101.1C72.1498 100.299 72.0737 98.9262 72.8737 98.0322C73.6737 97.1382 75.047 97.0621 75.9409 97.8621L83.479 104.608L90.2248 97.0698C91.0248 96.1758 92.3981 96.0996 93.292 96.8996C94.186 97.6997 94.2622 99.0729 93.4622 99.9669L86.7164 107.505L94.2545 114.251C95.1485 115.051 95.2247 116.424 94.4246 117.318C93.6246 118.212 92.2514 118.288 91.3574 117.488L83.8193 110.742Z" fill="#FACF39"/>
</mask>
<g mask="url(#mask1_19451_67473)">
<path d="M56.1751 83.0951L59.0625 135.148L111.116 132.261L108.228 80.2078L56.1751 83.0951Z" fill="#FACF39"/>
</g>
</g>
<defs>
<filter id="filter0_d_19451_67473" x="21.3359" y="57.8516" width="127.539" height="88.4766" filterUnits="userSpaceOnUse" color-interpolation-filters="sRGB">
<feFlood flood-opacity="0" result="BackgroundImageFix"/>
<feColorMatrix in="SourceAlpha" type="matrix" values="0 0 0 0 0 0 0 0 0 0 0 0 0 0 0 0 0 0 127 0" result="hardAlpha"/>
<feOffset dy="1"/>
<feGaussianBlur stdDeviation="5"/>
<feComposite in2="hardAlpha" operator="out"/>
<feColorMatrix type="matrix" values="0 0 0 0 0 0 0 0 0 0 0 0 0 0 0 0 0 0 0.1 0"/>
<feBlend mode="normal" in2="BackgroundImageFix" result="effect1_dropShadow_19451_67473"/>
<feBlend mode="normal" in="SourceGraphic" in2="effect1_dropShadow_19451_67473" result="shape"/>
</filter>
</defs>
</svg>
