<svg width="40" height="40" viewBox="0 0 40 40" fill="none" xmlns="http://www.w3.org/2000/svg">
<path d="M19.8828 3.4873C20.2611 3.46822 20.6382 3.54393 20.9795 3.70703L32.8125 9.3584C33.1186 9.50468 33.3878 9.71792 33.5996 9.98145C33.8113 10.2449 33.9605 10.5524 34.0361 10.8809L36.96 23.583C37.0356 23.9119 37.0347 24.2541 36.959 24.583C36.8832 24.9117 36.7345 25.2198 36.5225 25.4834L28.3359 35.6699C28.1239 35.933 27.8548 36.1451 27.5488 36.291C27.2426 36.437 26.9071 36.5129 26.5674 36.5127L13.4355 36.5156C13.0957 36.5157 12.7593 36.4402 12.4531 36.2939C12.147 36.1477 11.8779 35.9344 11.666 35.6709L3.47754 25.4863C3.43179 25.429 3.38852 25.3691 3.34863 25.3076C3.18404 25.0557 3.07229 24.7731 3.01953 24.4775C2.96681 24.182 2.97363 23.8785 3.04102 23.5859L5.95996 10.8838C6.03565 10.5552 6.18562 10.2479 6.39746 9.98438C6.60937 9.7208 6.87839 9.5076 7.18457 9.36133L19.0156 3.70703C19.287 3.57734 19.582 3.50246 19.8828 3.4873ZM20.001 7.6875C19.5289 7.68772 19.1679 8.10873 19.168 8.59961C19.168 8.60695 19.1685 8.61366 19.1689 8.61816C19.1684 8.67061 19.1659 8.75058 19.168 8.80566C19.1729 8.93902 19.1896 9.05629 19.209 9.16699L19.2656 9.49219C19.3249 9.98387 19.3714 10.3762 19.3438 10.7383C19.3202 10.8429 19.2393 10.951 19.1514 11.0361L19.1162 11.0703L19.1133 11.1191L19.1025 11.3115C18.7079 11.3488 18.3106 11.4099 17.9141 11.5C16.0882 11.9147 14.5109 12.8458 13.2988 14.1025C13.2319 14.0553 13.1598 14.0043 13.1328 13.9844L13.0928 13.9541L13.042 13.9609C12.9356 13.9753 12.865 13.9943 12.7852 13.9727L12.7012 13.9355C12.5515 13.834 12.4074 13.7135 12.2578 13.5742L11.7725 13.0938C11.6272 12.9394 11.4935 12.7593 11.2988 12.5918L11.1377 12.4629C10.9684 12.328 10.7675 12.2568 10.5713 12.25C10.3187 12.2414 10.0687 12.3397 9.9043 12.5459C9.61011 12.9152 9.7151 13.4606 10.0986 13.7666C10.102 13.7693 10.106 13.7708 10.1084 13.7725V13.7734L10.1104 13.7744H10.1094C10.1521 13.8091 10.2143 13.861 10.2598 13.8945C10.367 13.9737 10.4689 14.0333 10.5674 14.0869C10.6673 14.1413 10.7582 14.1861 10.8555 14.2432V14.2441C11.2786 14.5055 11.6163 14.7143 11.8828 14.9629V14.9639C11.916 14.9994 11.9419 15.0554 11.96 15.124C11.9781 15.1929 11.9847 15.2551 11.9932 15.3066L12 15.3506L12.0332 15.3799L12.1807 15.5117C11.0093 17.3202 10.4618 19.531 10.7607 21.7891L10.5664 21.8467L10.5273 21.8574L10.5029 21.8896C10.4607 21.9442 10.4181 22.0027 10.3701 22.0566C10.3227 22.11 10.2826 22.1419 10.2529 22.1553C9.90536 22.2637 9.51182 22.3056 9.01758 22.3574L8.6875 22.374C8.57501 22.3795 8.45641 22.3892 8.3252 22.4141C8.26863 22.4248 8.18774 22.4453 8.13379 22.458L8.12598 22.46H8.125C8.12108 22.4609 8.1172 22.4623 8.11523 22.4629L8.11328 22.4639C7.64212 22.5779 7.31782 23.0191 7.42188 23.4756C7.52562 23.93 8.00507 24.1875 8.47754 24.0889C8.4786 24.0887 8.4808 24.089 8.48242 24.0889C8.48511 24.0885 8.48981 24.0871 8.49512 24.0859H8.49609C8.50096 24.0848 8.50535 24.0831 8.50879 24.082C8.56208 24.0703 8.64256 24.0537 8.69727 24.0391C8.94533 23.9726 9.1447 23.8691 9.34277 23.793C9.81171 23.6247 10.1852 23.4898 10.5459 23.4365C10.5942 23.4331 10.6525 23.4477 10.7158 23.4756C10.7802 23.5041 10.8328 23.5375 10.8809 23.5645L10.9199 23.5859L10.9629 23.5791L11.167 23.543C11.8875 25.6922 13.3414 27.4352 15.1777 28.5527L15.0908 28.7646L15.0713 28.8105L15.0889 28.8574C15.1111 28.9149 15.1333 28.9779 15.1455 29.0381C15.1578 29.0989 15.1569 29.1449 15.1484 29.1758C15.0159 29.5161 14.7898 29.8795 14.5225 30.2979C14.4044 30.4738 14.2576 30.6459 14.1377 30.873C14.1088 30.9279 14.0681 31.0192 14.0449 31.0674L14.0439 31.0693C13.8386 31.5094 13.9826 32.038 14.4043 32.2412C14.8025 32.4329 15.2718 32.2501 15.5049 31.8633L15.5488 31.7832L15.5498 31.7822L15.5518 31.7783C15.5759 31.729 15.6161 31.6496 15.6396 31.5957C15.6931 31.4733 15.7284 31.3602 15.7588 31.252C15.7898 31.1414 15.8132 31.0422 15.8477 30.9336C15.9392 30.7021 16.0192 30.4472 16.0947 30.2422C16.1751 30.0243 16.2588 29.8406 16.373 29.7041C16.4138 29.6555 16.4869 29.6301 16.6152 29.5957L16.667 29.582L16.6924 29.5352L16.7998 29.3389C18.4393 29.9468 20.2661 30.1038 22.0908 29.6895C22.4796 29.6012 22.8559 29.4877 23.2207 29.3545C23.2611 29.4277 23.3058 29.5094 23.3213 29.5361L23.3457 29.5781L23.3906 29.5928C23.4925 29.6259 23.5645 29.6398 23.627 29.6934L23.6875 29.7637C23.7783 29.92 23.8554 30.0911 23.9297 30.2812L24.1592 30.9248C24.2231 31.1271 24.2654 31.3485 24.3682 31.584C24.3923 31.6392 24.4333 31.7188 24.458 31.7695L24.501 31.8496C24.7336 32.2378 25.2048 32.4212 25.6035 32.2295C26.0254 32.0262 26.1697 31.4969 25.9639 31.0566L25.9629 31.0557L25.8691 30.8604C25.8069 30.7425 25.7403 30.6449 25.6748 30.5537C25.6082 30.4611 25.5464 30.3811 25.4834 30.2871H25.4844C25.2156 29.8666 25.0013 29.5304 24.8691 29.1895C24.8291 29.0579 24.8718 28.9901 24.9219 28.8564L24.9482 28.7861L24.8994 28.7305C24.907 28.7392 24.9053 28.7402 24.8945 28.7158C24.8862 28.697 24.876 28.6718 24.8652 28.6436C24.8575 28.6233 24.8483 28.6008 24.8398 28.5781C26.7481 27.4214 28.1622 25.6153 28.8525 23.5303C28.9305 23.5436 29.0141 23.5577 29.0479 23.5645L29.0977 23.5742L29.1406 23.5459C29.2599 23.4672 29.3182 23.4103 29.4551 23.4199C29.8159 23.4728 30.1895 23.6063 30.6582 23.7744V23.7754C30.7645 23.8161 30.8571 23.8587 30.9629 23.9033C31.0666 23.9471 31.1777 23.9899 31.3066 24.0244C31.3595 24.0386 31.4429 24.0538 31.4922 24.0645C31.496 24.0658 31.5015 24.0679 31.5078 24.0693L31.5215 24.0723C31.5228 24.0724 31.5244 24.0722 31.5254 24.0723C31.998 24.1712 32.4783 23.9138 32.582 23.459C32.686 23.0025 32.3611 22.5611 31.8896 22.4473H31.8906L31.8887 22.4463L31.6787 22.3975C31.5476 22.3726 31.4288 22.3629 31.3164 22.3574C31.2015 22.3518 31.0988 22.3503 30.9854 22.3408C30.4898 22.2889 30.0954 22.2469 29.7471 22.1377C29.703 22.1191 29.657 22.0808 29.6123 22.0283C29.5659 21.9737 29.5334 21.9211 29.5029 21.8779L29.4775 21.8418L29.4355 21.8291L29.25 21.7754C29.3832 20.7207 29.3393 19.6263 29.0879 18.5312C28.834 17.4255 28.3905 16.4116 27.8018 15.5127C27.8699 15.4516 27.9479 15.3819 27.9746 15.3574L28.0107 15.3252L28.0146 15.2764C28.0275 15.1338 28.0186 15.0517 28.1143 14.9492C28.3802 14.701 28.7177 14.4931 29.1396 14.2324C29.2377 14.1747 29.3295 14.129 29.4307 14.0742C29.5296 14.0206 29.6318 13.9602 29.7393 13.8809C29.7871 13.8455 29.8559 13.7862 29.8984 13.752L29.8994 13.7529C30.2829 13.4468 30.3873 12.9015 30.0928 12.5322C29.8167 12.1866 29.3126 12.1467 28.9346 12.3955L28.8613 12.4492C28.8164 12.4848 28.7461 12.5387 28.7002 12.5781C28.5053 12.7459 28.3707 12.9249 28.2246 13.0801C27.8752 13.4351 27.5975 13.7193 27.2959 13.9238C27.2538 13.9482 27.1936 13.9607 27.123 13.9629C27.0519 13.965 26.9905 13.9573 26.9365 13.9541L26.8926 13.9512L26.8564 13.9775L26.6738 14.1074C25.1496 12.5454 23.1049 11.5393 20.9004 11.3174C20.8958 11.2339 20.8911 11.1432 20.8896 11.1084L20.8877 11.0586L20.8516 11.0234L20.7227 10.8975C20.6901 10.8573 20.6676 10.812 20.6572 10.7441C20.6286 10.38 20.6785 9.98526 20.7383 9.48926L20.7373 9.48828C20.7533 9.37687 20.7744 9.27877 20.7939 9.16699C20.8133 9.05628 20.831 8.93902 20.8359 8.80566C20.8382 8.74603 20.8342 8.65156 20.834 8.59863C20.8335 8.10812 20.4729 7.68745 20.001 7.6875ZM15.5215 31.8203C15.5197 31.8219 15.5178 31.8232 15.5166 31.8242C15.518 31.823 15.52 31.8207 15.5225 31.8184L15.5215 31.8203ZM19.9824 24.0908C20.0599 24.088 20.1396 24.104 20.2158 24.1406C20.3158 24.1888 20.3926 24.2642 20.4404 24.3535L20.4756 24.4189H20.4902L22.1816 27.4766C21.9975 27.5339 21.8099 27.5873 21.6182 27.6309C20.3152 27.9267 19.0169 27.8503 17.832 27.4736L19.5215 24.4209H19.5254L19.5605 24.3545C19.6467 24.1935 19.8102 24.0974 19.9824 24.0908ZM23.2041 22.584L23.2783 22.5977L23.2842 22.5889L26.749 23.1748C26.2233 24.5602 25.2764 25.7629 24.0254 26.5977L22.6797 23.3457L22.6846 23.3398L22.6562 23.2734C22.5511 23.029 22.6568 22.7416 22.8984 22.625C22.9612 22.5948 23.0265 22.5784 23.0898 22.5752C23.1264 22.5734 23.1647 22.5768 23.2041 22.584ZM16.8887 22.5908C17.1134 22.5942 17.3149 22.7505 17.3672 22.9795C17.3917 23.087 17.3802 23.1933 17.3398 23.2871L17.3105 23.3545L17.3213 23.3682L15.9912 26.584C14.788 25.776 13.8243 24.6079 13.2773 23.1865L16.71 22.6035L16.7168 22.6123L16.79 22.5996C16.8232 22.5935 16.8571 22.5904 16.8887 22.5908ZM20.5098 19.5449L21.1426 20.3359L20.915 21.3232L20.001 21.7637L19.083 21.3223L18.8555 20.335L19.4912 19.5449H20.5098ZM16.3857 19.2734L16.3828 19.29L16.4375 19.3379C16.6381 19.5126 16.6672 19.8156 16.5 20.0254C16.4314 20.1113 16.3396 20.1694 16.2412 20.1963L16.1709 20.2148L16.167 20.2275L12.8164 21.1953C12.6812 19.6691 13.0371 18.1894 13.7715 16.9346L16.3857 19.2734ZM26.21 16.9355C26.5781 17.561 26.8598 18.2525 27.0312 18.999C27.2003 19.7352 27.2501 20.4697 27.1953 21.1826L23.832 20.2139L23.8291 20.1982L23.7549 20.1777L23.6631 20.1426C23.4623 20.0419 23.3482 19.8131 23.4004 19.584C23.4249 19.4767 23.4817 19.3862 23.5586 19.3193L23.6133 19.2715L23.6113 19.2627L26.21 16.9355ZM18.7832 16.9424L18.7666 16.9512L18.7637 17.0254C18.7522 17.2912 18.5337 17.5028 18.2656 17.5029C18.1556 17.5029 18.0539 17.4682 17.9717 17.4082L17.9102 17.3623L17.9014 17.3662L15.042 15.3379C15.9453 14.4857 17.0826 13.8549 18.3867 13.5586C18.5844 13.5137 18.7829 13.48 18.9805 13.4521L18.7832 16.9424ZM21.0215 13.4521C22.4976 13.665 23.8628 14.3321 24.9346 15.3389L22.0898 17.3564L22.0791 17.3525L22.0215 17.3945C21.8067 17.5512 21.5042 17.5116 21.3369 17.3018C21.268 17.2153 21.2318 17.1143 21.2275 17.0127L21.2246 16.9395L21.2197 16.9365L21.0215 13.4521Z" fill="#326CE5"/>
</svg>
