<svg width="73" height="40" viewBox="0 0 73 40" fill="none" xmlns="http://www.w3.org/2000/svg">
<path fill-rule="evenodd" clip-rule="evenodd" d="M71.2394 10.5148C72.1096 10.5148 72.671 9.89216 72.671 9.12869C72.671 8.90128 72.6092 8.66849 72.4857 8.45187L68.0733 0.849922C67.8039 0.378864 67.3211 0.140625 66.8383 0.140625C66.3555 0.140625 65.8671 0.378864 65.5976 0.849922L61.1909 8.45187C61.0674 8.67388 61 8.90128 61 9.12869C61 9.89216 61.5614 10.5148 62.4315 10.5148H71.2394Z" fill="white"/>
<path fill-rule="evenodd" clip-rule="evenodd" d="M71.2394 10.5148C72.1096 10.5148 72.671 9.89216 72.671 9.12869C72.671 8.90128 72.6092 8.66849 72.4857 8.45187L68.0733 0.849922C67.8039 0.378864 67.3211 0.140625 66.8383 0.140625C66.3555 0.140625 65.8671 0.378864 65.5976 0.849922L61.1909 8.45187C61.0674 8.67388 61 8.90128 61 9.12869C61 9.89216 61.5614 10.5148 62.4315 10.5148H71.2394ZM66.8432 6.78964C66.512 6.78964 66.3211 6.61096 66.3099 6.2915L66.2313 3.58425C66.2201 3.24855 66.4671 3.01573 66.8376 3.01573C67.1968 3.01573 67.4607 3.25397 67.4495 3.58967L67.3596 6.2861C67.3484 6.61638 67.1632 6.78964 66.8432 6.78964ZM66.1478 8.04078C66.1478 8.39814 66.4621 8.66344 66.8439 8.66344C67.22 8.66344 67.5343 8.40353 67.5343 8.04078C67.5343 7.68342 67.2256 7.41812 66.8439 7.41812C66.4565 7.41812 66.1478 7.68342 66.1478 8.04078Z" fill="#FC1683"/>
<path fill-rule="evenodd" clip-rule="evenodd" d="M56.477 12.3019C56.9396 12.8487 56.8714 13.6669 56.3247 14.1295L50.4624 21.6284L44.1789 20.8529L32.7553 27.6261L18.8153 31.8927L10.6968 36.7115L2.42703 39.027C1.73736 39.2201 1.02174 38.8176 0.828631 38.1279C0.635525 37.4383 1.03806 36.7226 1.72773 36.5295L9.66761 34.3064L17.7589 29.5037L31.6995 25.2369L43.6178 18.1704L49.6536 18.9153L54.6494 12.1496C55.1961 11.687 56.0144 11.7552 56.477 12.3019Z" fill="#AAB1C5"/>
</svg>
