<svg width="72" height="37" viewBox="0 0 72 37" fill="none" xmlns="http://www.w3.org/2000/svg">
<path d="M65.9691 0.140625C62.7491 0.140625 60.1357 2.75396 60.1357 5.97396C60.1357 9.19396 62.7491 11.8073 65.9691 11.8073C69.1891 11.8073 71.8024 9.19396 71.8024 5.97396C71.8024 2.75396 69.1891 0.140625 65.9691 0.140625ZM64.8024 8.89063L61.8857 5.97396L62.7082 5.15146L64.8024 7.23979L69.2299 2.81229L70.0524 3.64063L64.8024 8.89063Z" fill="#12BEAC"/>
<path fill-rule="evenodd" clip-rule="evenodd" d="M42.9791 16.0293L49.4991 16.8339H67.5742C68.2904 16.8339 68.871 17.4145 68.871 18.1307C68.871 18.8469 68.2904 19.4275 67.5742 19.4275H49.3396L43.5402 18.7118L32.1166 25.485L18.1766 29.7516L10.0581 34.5704L1.78836 36.8859C1.09869 37.079 0.383065 36.6765 0.189959 35.9868C-0.00314665 35.2971 0.399393 34.5815 1.08906 34.3884L9.02895 32.1652L17.1202 27.3626L31.0608 23.0958L42.9791 16.0293Z" fill="#AAB1C5"/>
</svg>
