<svg width="73" height="36" viewBox="0 0 73 36" fill="none" xmlns="http://www.w3.org/2000/svg">
<path d="M66.9691 0.140625C63.7491 0.140625 61.1357 2.75396 61.1357 5.97396C61.1357 9.19396 63.7491 11.8073 66.9691 11.8073C70.1891 11.8073 72.8024 9.19396 72.8024 5.97396C72.8024 2.75396 70.1891 0.140625 66.9691 0.140625ZM65.8024 8.89063L62.8857 5.97396L63.7082 5.15146L65.8024 7.23979L70.2299 2.81229L71.0524 3.64063L65.8024 8.89063Z" fill="#12BEAC"/>
<path fill-rule="evenodd" clip-rule="evenodd" d="M63.2941 22.4121L69.5636 31.8164C69.9609 32.4123 69.7999 33.2175 69.2039 33.6147C68.608 34.012 67.8029 33.851 67.4056 33.2551L62.0042 25.1529L53.9494 25.9862L46.8553 35.5633L38.7882 26.4879L30.1877 32.6311L18.7779 30.0756L10.4208 35.036L1.31529 29.0824C0.715863 28.6905 0.547656 27.8868 0.939589 27.2874C1.33152 26.6879 2.13518 26.5197 2.73461 26.9117L10.4871 31.9806L18.3397 27.3196L29.6235 29.8469L39.1778 23.0223L46.6721 31.4534L52.5457 23.524L63.2941 22.4121Z" fill="#AAB1C5"/>
</svg>
