<svg width="68" height="40" viewBox="0 0 68 40" fill="none" xmlns="http://www.w3.org/2000/svg">
<path fill-rule="evenodd" clip-rule="evenodd" d="M66.0138 10.5148C66.884 10.5148 67.4454 9.89216 67.4454 9.12869C67.4454 8.90128 67.3836 8.66849 67.2601 8.45187L62.8477 0.849922C62.5783 0.378864 62.0955 0.140625 61.6127 0.140625C61.1299 0.140625 60.6415 0.378864 60.3721 0.849922L55.9653 8.45187C55.8418 8.67388 55.7744 8.90128 55.7744 9.12869C55.7744 9.89216 56.3358 10.5148 57.2059 10.5148H66.0138Z" fill="white"/>
<path fill-rule="evenodd" clip-rule="evenodd" d="M66.0138 10.5148C66.884 10.5148 67.4454 9.89216 67.4454 9.12869C67.4454 8.90128 67.3836 8.66849 67.2601 8.45187L62.8477 0.849922C62.5783 0.378864 62.0955 0.140625 61.6127 0.140625C61.1299 0.140625 60.6415 0.378864 60.3721 0.849922L55.9653 8.45187C55.8418 8.67388 55.7744 8.90128 55.7744 9.12869C55.7744 9.89216 56.3358 10.5148 57.2059 10.5148H66.0138ZM61.6176 6.78964C61.2864 6.78964 61.0955 6.61096 61.0843 6.2915L61.0057 3.58425C60.9945 3.24855 61.2415 3.01573 61.612 3.01573C61.9713 3.01573 62.2351 3.25397 62.2239 3.58967L62.1341 6.2861C62.1228 6.61638 61.9376 6.78964 61.6176 6.78964ZM60.9222 8.04078C60.9222 8.39814 61.2365 8.66344 61.6183 8.66344C61.9944 8.66344 62.3088 8.40353 62.3088 8.04078C62.3088 7.68342 62 7.41812 61.6183 7.41812C61.2309 7.41812 60.9222 7.68342 60.9222 8.04078Z" fill="#FC1683"/>
<path fill-rule="evenodd" clip-rule="evenodd" d="M61.278 15.084C61.9942 15.084 62.5747 15.6646 62.5747 16.3808V22.4113H51.9914V26.1984H40.4459V30.3641H29.3815V34.3405H17.355V39.0743H1.62636C0.910175 39.0743 0.32959 38.4937 0.32959 37.7775C0.32959 37.0613 0.910175 36.4808 1.62636 36.4808H14.7614V31.747H26.788V27.7706H37.8524V23.6048H49.3979V19.8178H59.9812V16.3808C59.9812 15.6646 60.5618 15.084 61.278 15.084Z" fill="#AAB1C5"/>
</svg>
