<svg xmlns="http://www.w3.org/2000/svg" width="16" height="16" viewBox="0 0 16 16" fill="none">
<path d="M8.63636 1L8.637 2.94855C10.9395 3.23596 12.7644 5.06104 13.0515 7.36364H15V8.63636L13.0515 8.637C12.7641 10.9393 10.9393 12.7641 8.637 13.0515L8.63636 15H7.36364V13.0515C5.06104 12.7644 3.23596 10.9395 2.94855 8.637L1 8.63636V7.36364H2.94848C3.23562 5.06082 5.06082 3.23562 7.36364 2.94848V1H8.63636ZM8 4.18182C5.89128 4.18182 4.18182 5.89128 4.18182 8C4.18182 10.1087 5.89128 11.8182 8 11.8182C10.1087 11.8182 11.8182 10.1087 11.8182 8C11.8182 5.89128 10.1087 4.18182 8 4.18182ZM8 6.72727C8.70293 6.72727 9.27273 7.29707 9.27273 8C9.27273 8.70293 8.70293 9.27273 8 9.27273C7.29707 9.27273 6.72727 8.70293 6.72727 8C6.72727 7.29707 7.29707 6.72727 8 6.72727Z" fill="#374151"/>
</svg>