<svg width="302" height="284" viewBox="0 0 302 284" fill="none" xmlns="http://www.w3.org/2000/svg">
<path d="M113.904 137.293C113.904 137.293 110.589 193.645 147.881 235.081C147.881 235.081 107.367 244.717 92.3577 196.96C78.6839 153.453 113.904 137.293 113.904 137.293Z" fill="#FACF39"/>
<path d="M160.025 129.864C160.025 129.864 157.138 178.956 189.624 215.052C189.624 215.052 154.33 223.447 141.255 181.843C129.343 143.942 160.025 129.864 160.025 129.864Z" fill="#FACF39"/>
<path d="M74.5409 172.804C74.5409 172.804 72.2974 210.944 97.5365 238.987C97.5365 238.987 73.5039 240.469 63.2486 212.086C55.607 190.937 74.5409 172.804 74.5409 172.804Z" fill="#FACF39"/>
<path d="M199.051 115.127C199.051 115.127 115.765 10.7092 58.5839 56.7028C1.4027 102.696 199.051 115.127 199.051 115.127Z" fill="#FACF39"/>
<path d="M227.977 181.507C242.238 181.507 253.799 169.946 253.799 155.685C253.799 141.425 242.238 129.864 227.977 129.864C213.717 129.864 202.156 141.425 202.156 155.685C202.156 169.946 213.717 181.507 227.977 181.507Z" fill="#FACF39"/>
</svg>
