<svg width="24" height="24" viewBox="0 0 24 24" fill="none" xmlns="http://www.w3.org/2000/svg"><path d="m7.552 22.138-.26-1.646-1.636.245.244 1.664z" fill="url(#a)"/><path d="m20.516 17.48-.261-1.663-7.27 1.138.26 1.646z" fill="url(#b)"/><path d="m10.667 19.004 1.635-.245-.243-1.663-1.653.245z" fill="url(#c)"/><path d="m10.13 21.752-.26-1.663-1.636.263.244 1.645z" fill="url(#d)"/><path d="M5.258 18.145 5.5 19.81l1.653-.263-.261-1.663z" fill="url(#e)"/><path d="m13.383 19.546.26 1.664 7.271-1.138-.26-1.646z" fill="url(#f)"/><path d="m11.066 21.595 1.635-.245-.244-1.664-1.652.263z" fill="url(#g)"/><path d="m7.836 17.743.26 1.664 1.636-.263-.244-1.646z" fill="url(#h)"/><path d="M5.8 17.095 3.781 3.84l-.696.105L5.12 17.218z" fill="url(#i)"/><path d="M6.77 16.955 4.58 2.703l-.696.123L6.057 17.06z" fill="url(#j)"/><path d="M8.39 16.71 6.094 1.6l-.696.105 2.296 15.11z" fill="url(#k)"/><path d="M9.347 16.553 7.243 2.791l-.696.105 2.105 13.762z" fill="url(#l)"/><path d="M10.963 16.307 9.103 4.068l-.697.105 1.861 12.239z" fill="url(#m)"/><path d="M11.917 16.15 9.97 3.456l-.696.105 1.949 12.694z" fill="url(#n)"/><defs><linearGradient id="a" x1="7.392" y1="26.622" x2="3.47" y2="1.301" gradientUnits="userSpaceOnUse"><stop stop-color="#FAED1E"/><stop offset="1" stop-color="#F15B2B"/></linearGradient><linearGradient id="b" x1="17.942" y1="24.988" x2="14.019" y2="-.333" gradientUnits="userSpaceOnUse"><stop stop-color="#FAED1E"/><stop offset="1" stop-color="#F15B2B"/></linearGradient><linearGradient id="c" x1="12.549" y1="25.823" x2="8.627" y2=".502" gradientUnits="userSpaceOnUse"><stop stop-color="#FAED1E"/><stop offset="1" stop-color="#F15B2B"/></linearGradient><linearGradient id="d" x1="9.973" y1="26.222" x2="6.05" y2=".901" gradientUnits="userSpaceOnUse"><stop stop-color="#FAED1E"/><stop offset="1" stop-color="#F15B2B"/></linearGradient><linearGradient id="e" x1="7.392" y1="26.621" x2="3.47" y2="1.3" gradientUnits="userSpaceOnUse"><stop stop-color="#FAED1E"/><stop offset="1" stop-color="#F15B2B"/></linearGradient><linearGradient id="f" x1="17.94" y1="24.988" x2="14.018" y2="-.333" gradientUnits="userSpaceOnUse"><stop stop-color="#FAED1E"/><stop offset="1" stop-color="#F15B2B"/></linearGradient><linearGradient id="g" x1="12.547" y1="25.823" x2="8.624" y2=".502" gradientUnits="userSpaceOnUse"><stop stop-color="#FAED1E"/><stop offset="1" stop-color="#F15B2B"/></linearGradient><linearGradient id="h" x1="9.974" y1="26.223" x2="6.052" y2=".901" gradientUnits="userSpaceOnUse"><stop stop-color="#FAED1E"/><stop offset="1" stop-color="#F15B2B"/></linearGradient><linearGradient id="i" x1="6.844" y1="26.203" x2="3.124" y2="2.188" gradientUnits="userSpaceOnUse"><stop stop-color="#FAED1E"/><stop offset="1" stop-color="#F15B2B"/></linearGradient><linearGradient id="j" x1="7.899" y1="26.721" x2="3.905" y2=".938" gradientUnits="userSpaceOnUse"><stop stop-color="#FAED1E"/><stop offset="1" stop-color="#F15B2B"/></linearGradient><linearGradient id="k" x1="9.624" y1="27.053" x2="5.389" y2="-.285" gradientUnits="userSpaceOnUse"><stop stop-color="#FAED1E"/><stop offset="1" stop-color="#F15B2B"/></linearGradient><linearGradient id="l" x1="10.441" y1="25.997" x2="6.581" y2="1.074" gradientUnits="userSpaceOnUse"><stop stop-color="#FAED1E"/><stop offset="1" stop-color="#F15B2B"/></linearGradient><linearGradient id="m" x1="11.891" y1="24.698" x2="8.462" y2="2.558" gradientUnits="userSpaceOnUse"><stop stop-color="#FAED1E"/><stop offset="1" stop-color="#F15B2B"/></linearGradient><linearGradient id="n" x1="12.894" y1="24.87" x2="9.333" y2="1.881" gradientUnits="userSpaceOnUse"><stop stop-color="#FAED1E"/><stop offset="1" stop-color="#F15B2B"/></linearGradient></defs></svg>
