<svg width="16" height="15" viewBox="0 0 16 15" fill="none" xmlns="http://www.w3.org/2000/svg">
<path d="M14.7843 -0.000842634H4.97306C4.45463 -0.000842634 4.03223 0.421557 4.03223 0.959157V4.28072C4.03223 4.81832 4.45463 5.24072 4.99223 5.24072C5.52983 5.24072 5.95223 4.81832 5.95223 4.28072V1.91916H13.8242V13.0552L5.95223 13.055V10.6935C5.95223 10.1559 5.52983 9.73346 4.99223 9.73346C4.45463 9.73346 4.03223 10.1559 4.03223 10.6935V14.015C4.03223 14.5526 4.4355 14.975 4.97306 14.975H14.7843C15.3219 14.975 15.7443 14.5526 15.7443 14.015V0.959023C15.7443 0.421423 15.3219 -0.000976562 14.7843 -0.000976562V-0.000842634Z" fill="#1B73F9"/>
<path d="M7.44963 9.82948C7.27687 10.0022 7.16169 10.2519 7.18084 10.5015C7.18084 10.7512 7.27687 11.0007 7.46879 11.1736C7.64156 11.3464 7.89119 11.4424 8.14086 11.4424C8.39052 11.4424 8.64002 11.3464 8.83206 11.1545L11.8465 8.12086C12.2114 7.75603 12.2114 7.14169 11.8465 6.77689L8.81292 3.74316C8.64002 3.57039 8.39052 3.45508 8.14086 3.45508C7.89119 3.45508 7.64169 3.55111 7.46879 3.72387C7.29602 3.89664 7.18084 4.14627 7.18084 4.39594C7.18084 4.64561 7.27687 4.89511 7.44963 5.06801L8.8512 6.46957L0.96 6.52716C0.4224 6.52716 0 6.96873 0 7.48716C0 8.02476 0.441566 8.44716 0.96 8.44716L8.832 8.42801L7.44963 9.82948Z" fill="#1B73F9"/>
</svg>
