<svg xmlns="http://www.w3.org/2000/svg" viewBox="0 0 11.52 11.52" width="24" height="24"><path fill="#5059c9" d="M10.56 5.28V7.2a1.44 1.44 0 1 1-2.88 0V4.8h2.4a.48.48 0 0 1 .48.48M9.12 3.84a.96.96 0 1 0 0-1.92.96.96 0 0 0 0 1.92"/><path fill="#7b83eb" d="M8.4 5.28v2.64a2.4 2.4 0 0 1-2.56 2.395C4.565 10.232 3.6 9.116 3.6 7.838V4.8h4.32a.48.48 0 0 1 .48.48M6 4.08A1.44 1.44 0 1 0 6 1.2a1.44 1.44 0 0 0 0 2.88"/><path fill="#7b83eb" d="M7.44 2.64A1.44 1.44 0 0 1 6 4.08a1.44 1.44 0 0 1-1.44-1.44 1.44 1.44 0 0 1 2.88 0"/><path d="M6.24 7.997V4.8H3.6v3.038c0 .368.082.722.227 1.042h1.53a.883.883 0 0 0 .883-.883" opacity=".05"/><path d="M3.6 4.8v3.038c0 .278.048.548.133.802h1.598a.75.75 0 0 0 .749-.749V4.8z" opacity=".07"/><path d="M5.92 4.8H3.6v3.038q.002.289.066.562h1.64a.614.614 0 0 0 .614-.614z" opacity=".09"/><path fill="url(#a)" d="M5.28 8.16H1.44a.48.48 0 0 1-.48-.48V3.84a.48.48 0 0 1 .48-.48h3.84a.48.48 0 0 1 .48.48v3.84a.48.48 0 0 1-.48.48"/><path fill="#fff" d="M4.336 4.56H2.384v.413h.731V6.96h.49V4.973h.731z"/></svg>