<svg width="224" height="92" viewBox="0 0 224 92" fill="none" xmlns="http://www.w3.org/2000/svg">
<g filter="url(#filter0_d_34448_101861)">
<rect x="25" y="21" width="174" height="42" rx="21" fill="white" shape-rendering="crispEdges"/>
<rect x="25.25" y="21.25" width="173.5" height="41.5" rx="20.75" stroke="#D0D0D0" stroke-width="0.5" shape-rendering="crispEdges"/>
<path d="M47.3292 40.2559C47.3292 40.2559 46.9089 47.1271 51.6373 52.1794C51.6373 52.1794 46.5003 53.3544 44.5971 47.5312C42.8634 42.2263 47.3292 40.2559 47.3292 40.2559Z" fill="#FACF39"/>
<path d="M53.1756 39.3496C53.1756 39.3496 52.8095 45.3354 56.9287 49.7368C56.9287 49.7368 52.4535 50.7604 50.7956 45.6875C49.2852 41.0661 53.1756 39.3496 53.1756 39.3496Z" fill="#FACF39"/>
<path d="M42.336 44.584C42.336 44.584 42.0516 49.2344 45.2518 52.6538C45.2518 52.6538 42.2045 52.8346 40.9042 49.3737C39.9353 46.7949 42.336 44.584 42.336 44.584Z" fill="#FACF39"/>
<path d="M58.1272 37.5508C58.1272 37.5508 47.5668 24.8188 40.3165 30.427C33.0661 36.0351 58.1272 37.5508 58.1272 37.5508Z" fill="#FACF39"/>
<path d="M61.7955 45.6465C63.6037 45.6465 65.0696 44.2369 65.0696 42.498C65.0696 40.7592 63.6037 39.3496 61.7955 39.3496C59.9873 39.3496 58.5215 40.7592 58.5215 42.498C58.5215 44.2369 59.9873 45.6465 61.7955 45.6465Z" fill="#FACF39"/>
<path d="M79.5105 36.1582C81.0333 36.1582 82.264 36.6241 83.202 37.556C84.1404 38.473 84.6094 39.7599 84.6094 41.4165V48.6271H81.3793V41.838C81.3793 40.8618 81.1255 40.1148 80.618 39.5972C80.1104 39.0647 79.4183 38.7984 78.5415 38.7984C77.6497 38.7984 76.942 39.0647 76.4189 39.5972C75.9114 40.1148 75.6576 40.8618 75.6576 41.838V48.6271H72.4277V36.3357H75.6576V37.8666C76.0884 37.3341 76.6345 36.92 77.2957 36.6241C77.9727 36.3135 78.711 36.1582 79.5105 36.1582ZM98.8247 36.3357V48.6271H95.5716V47.0741C95.1563 47.6065 94.6102 48.0281 93.9335 48.3387C93.272 48.6345 92.5492 48.7824 91.7648 48.7824C90.7652 48.7824 89.8805 48.5828 89.1116 48.1834C88.3426 47.7692 87.7348 47.1702 87.2889 46.3863C86.8581 45.5876 86.6429 44.6409 86.6429 43.5464V36.3357H89.8729V43.1027C89.8729 44.0789 90.1267 44.8332 90.6343 45.3657C91.1419 45.8834 91.834 46.1422 92.7107 46.1422C93.603 46.1422 94.3027 45.8834 94.8103 45.3657C95.3178 44.8332 95.5716 44.0789 95.5716 43.1027V36.3357H98.8247ZM100.258 42.4371C100.258 41.1946 100.512 40.0927 101.019 39.1312C101.542 38.1698 102.25 37.4303 103.142 36.9126C104.034 36.3949 105.026 36.136 106.118 36.136C106.949 36.136 107.741 36.3135 108.495 36.6685C109.248 37.0087 109.848 37.4672 110.294 38.0441V32.209H113.57V48.6271H110.294V46.8078C109.894 47.4143 109.333 47.9024 108.61 48.2721C107.887 48.6419 107.049 48.8268 106.095 48.8268C105.019 48.8268 104.034 48.5606 103.142 48.0281C102.25 47.4956 101.542 46.7487 101.019 45.7872C100.512 44.811 100.258 43.6943 100.258 42.4371ZM110.317 42.4814C110.317 41.7271 110.164 41.0837 109.856 40.5512C109.548 40.0039 109.133 39.5897 108.61 39.3087C108.087 39.0129 107.526 38.865 106.926 38.865C106.326 38.865 105.772 39.0055 105.265 39.2865C104.757 39.5676 104.342 39.9817 104.019 40.529C103.711 41.0615 103.557 41.6975 103.557 42.4371C103.557 43.1766 103.711 43.8274 104.019 44.3895C104.342 44.9367 104.757 45.3583 105.265 45.6541C105.788 45.9499 106.341 46.0979 106.926 46.0979C107.526 46.0979 108.087 45.9573 108.61 45.6763C109.133 45.3805 109.548 44.9663 109.856 44.4339C110.164 43.8866 110.317 43.2358 110.317 42.4814ZM120.809 36.136C121.763 36.136 122.601 36.3209 123.324 36.6907C124.047 37.0457 124.616 37.5116 125.031 38.0885V36.3357H128.284V48.7159C128.284 49.8548 128.046 50.868 127.569 51.7555C127.092 52.6577 126.377 53.3677 125.423 53.8854C124.47 54.4179 123.316 54.6841 121.962 54.6841C120.148 54.6841 118.655 54.2773 117.486 53.4638C116.333 52.6503 115.679 51.541 115.525 50.1358H118.732C118.902 50.6979 119.263 51.1416 119.817 51.467C120.386 51.8072 121.07 51.9773 121.87 51.9773C122.808 51.9773 123.57 51.7037 124.154 51.1564C124.739 50.6239 125.031 49.8104 125.031 48.7159V46.8078C124.616 47.3847 124.039 47.8654 123.3 48.25C122.578 48.6345 121.747 48.8268 120.809 48.8268C119.732 48.8268 118.748 48.5606 117.856 48.0281C116.964 47.4956 116.256 46.7487 115.733 45.7872C115.225 44.811 114.972 43.6943 114.972 42.4371C114.972 41.1946 115.225 40.0927 115.733 39.1312C116.256 38.1698 116.956 37.4303 117.832 36.9126C118.725 36.3949 119.717 36.136 120.809 36.136ZM125.031 42.4814C125.031 41.7271 124.877 41.0837 124.569 40.5512C124.262 40.0039 123.847 39.5897 123.324 39.3087C122.801 39.0129 122.239 38.865 121.639 38.865C121.039 38.865 120.486 39.0055 119.978 39.2865C119.471 39.5676 119.055 39.9817 118.732 40.529C118.425 41.0615 118.271 41.6975 118.271 42.4371C118.271 43.1766 118.425 43.8274 118.732 44.3895C119.055 44.9367 119.471 45.3583 119.978 45.6541C120.501 45.9499 121.055 46.0979 121.639 46.0979C122.239 46.0979 122.801 45.9573 123.324 45.6763C123.847 45.3805 124.262 44.9663 124.569 44.4339C124.877 43.8866 125.031 43.2358 125.031 42.4814ZM142.398 42.2152C142.398 42.6589 142.367 43.0583 142.305 43.4133H132.961C133.038 44.3007 133.361 44.9959 133.93 45.4988C134.5 46.0017 135.199 46.2532 136.03 46.2532C137.23 46.2532 138.083 45.7576 138.591 44.7667H142.075C141.705 45.9499 140.998 46.9261 139.952 47.6953C138.906 48.4496 137.622 48.8268 136.099 48.8268C134.869 48.8268 133.761 48.568 132.777 48.0503C131.808 47.5178 131.046 46.7708 130.493 45.8094C129.954 44.848 129.685 43.7387 129.685 42.4814C129.685 41.2094 129.954 40.0927 130.493 39.1312C131.031 38.1698 131.785 37.4303 132.754 36.9126C133.723 36.3949 134.838 36.136 136.099 36.136C137.314 36.136 138.399 36.3875 139.352 36.8904C140.321 37.3933 141.067 38.1107 141.59 39.0425C142.129 39.9595 142.398 41.0171 142.398 42.2152ZM139.052 41.3277C139.037 40.529 138.737 39.893 138.152 39.4197C137.568 38.9316 136.853 38.6875 136.007 38.6875C135.207 38.6875 134.53 38.9241 133.976 39.3975C133.438 39.856 133.108 40.4994 132.984 41.3277H139.052Z" fill="#1B2D4A"/>
<path d="M147.064 38.1328C147.479 37.5412 148.049 37.0605 148.771 36.6907C149.51 36.3209 150.348 36.136 151.286 36.136C152.378 36.136 153.363 36.3949 154.239 36.9126C155.132 37.4303 155.831 38.1698 156.339 39.1312C156.862 40.0778 157.123 41.1798 157.123 42.4371C157.123 43.6943 156.862 44.811 156.339 45.7872C155.831 46.7487 155.132 47.4956 154.239 48.0281C153.363 48.5606 152.378 48.8268 151.286 48.8268C150.333 48.8268 149.494 48.6493 148.771 48.2943C148.064 47.9245 147.495 47.4512 147.064 46.8744V48.6271H143.834V32.209H147.064V38.1328ZM153.824 42.4371C153.824 41.6975 153.662 41.0615 153.339 40.529C153.032 39.9817 152.617 39.5676 152.094 39.2865C151.586 39.0055 151.032 38.865 150.432 38.865C149.848 38.865 149.294 39.0129 148.771 39.3087C148.264 39.5897 147.848 40.0039 147.525 40.5512C147.218 41.0984 147.064 41.7418 147.064 42.4814C147.064 43.221 147.218 43.8644 147.525 44.4117C147.848 44.9589 148.264 45.3805 148.771 45.6763C149.294 45.9573 149.848 46.0979 150.432 46.0979C151.032 46.0979 151.586 45.9499 152.094 45.6541C152.617 45.3583 153.032 44.9367 153.339 44.3895C153.662 43.8422 153.824 43.1914 153.824 42.4371ZM170.429 42.2152C170.429 42.6589 170.399 43.0583 170.337 43.4133H160.993C161.07 44.3007 161.393 44.9959 161.962 45.4988C162.531 46.0017 163.231 46.2532 164.062 46.2532C165.261 46.2532 166.115 45.7576 166.623 44.7667H170.106C169.737 45.9499 169.03 46.9261 167.984 47.6953C166.938 48.4496 165.654 48.8268 164.131 48.8268C162.901 48.8268 161.793 48.568 160.809 48.0503C159.84 47.5178 159.078 46.7708 158.524 45.8094C157.986 44.848 157.717 43.7387 157.717 42.4814C157.717 41.2094 157.986 40.0927 158.524 39.1312C159.063 38.1698 159.816 37.4303 160.785 36.9126C161.754 36.3949 162.87 36.136 164.131 36.136C165.346 36.136 166.43 36.3875 167.384 36.8904C168.353 37.3933 169.099 38.1107 169.622 39.0425C170.16 39.9595 170.429 41.0171 170.429 42.2152ZM167.084 41.3277C167.069 40.529 166.769 39.893 166.184 39.4197C165.6 38.9316 164.885 38.6875 164.039 38.6875C163.239 38.6875 162.562 38.9241 162.008 39.3975C161.47 39.856 161.139 40.4994 161.016 41.3277H167.084ZM183.746 42.2152C183.746 42.6589 183.715 43.0583 183.654 43.4133H174.31C174.387 44.3007 174.71 44.9959 175.279 45.4988C175.848 46.0017 176.548 46.2532 177.378 46.2532C178.578 46.2532 179.432 45.7576 179.939 44.7667H183.423C183.054 45.9499 182.347 46.9261 181.3 47.6953C180.255 48.4496 178.97 48.8268 177.448 48.8268C176.217 48.8268 175.11 48.568 174.125 48.0503C173.156 47.5178 172.395 46.7708 171.841 45.8094C171.303 44.848 171.034 43.7387 171.034 42.4814C171.034 41.2094 171.303 40.0927 171.841 39.1312C172.38 38.1698 173.133 37.4303 174.102 36.9126C175.071 36.3949 176.187 36.136 177.448 36.136C178.663 36.136 179.747 36.3875 180.701 36.8904C181.67 37.3933 182.416 38.1107 182.939 39.0425C183.477 39.9595 183.746 41.0171 183.746 42.2152ZM180.401 41.3277C180.386 40.529 180.086 39.893 179.501 39.4197C178.917 38.9316 178.201 38.6875 177.355 38.6875C176.556 38.6875 175.879 38.9241 175.325 39.3975C174.787 39.856 174.456 40.4994 174.333 41.3277H180.401Z" fill="#9F9F9F"/>
</g>
<defs>
<filter id="filter0_d_34448_101861" x="0" y="0" width="224" height="92" filterUnits="userSpaceOnUse" color-interpolation-filters="sRGB">
<feFlood flood-opacity="0" result="BackgroundImageFix"/>
<feColorMatrix in="SourceAlpha" type="matrix" values="0 0 0 0 0 0 0 0 0 0 0 0 0 0 0 0 0 0 127 0" result="hardAlpha"/>
<feOffset dy="4"/>
<feGaussianBlur stdDeviation="12.5"/>
<feComposite in2="hardAlpha" operator="out"/>
<feColorMatrix type="matrix" values="0 0 0 0 0.683333 0 0 0 0 0.683333 0 0 0 0 0.683333 0 0 0 0.24 0"/>
<feBlend mode="normal" in2="BackgroundImageFix" result="effect1_dropShadow_34448_101861"/>
<feBlend mode="normal" in="SourceGraphic" in2="effect1_dropShadow_34448_101861" result="shape"/>
</filter>
</defs>
</svg>
