<svg width="157" height="31" viewBox="0 0 157 31" fill="none" xmlns="http://www.w3.org/2000/svg">
<path d="M10.4581 14.8555C10.4581 14.8555 9.94265 23.6184 15.7417 30.0618C15.7417 30.0618 9.44157 31.5602 7.10758 24.1339C4.98127 17.3684 10.4581 14.8555 10.4581 14.8555Z" fill="#FACF39"/>
<path d="M17.6273 13.6992C17.6273 13.6992 17.1782 21.3331 22.23 26.9462C22.23 26.9462 16.7417 28.2516 14.7085 21.7821C12.8561 15.8883 17.6273 13.6992 17.6273 13.6992Z" fill="#FACF39"/>
<path d="M4.33541 20.3789C4.33541 20.3789 3.98654 26.3096 7.91129 30.6705C7.91129 30.6705 4.17414 30.901 2.57941 26.4873C1.39113 23.1985 4.33541 20.3789 4.33541 20.3789Z" fill="#FACF39"/>
<path d="M23.6997 11.4089C23.6997 11.4089 10.7486 -4.82841 1.85673 2.32372C-7.03511 9.47585 23.6997 11.4089 23.6997 11.4089Z" fill="#FACF39"/>
<path d="M28.195 21.7298C30.4125 21.7298 32.2102 19.9321 32.2102 17.7145C32.2102 15.4969 30.4125 13.6992 28.195 13.6992C25.9774 13.6992 24.1797 15.4969 24.1797 17.7145C24.1797 19.9321 25.9774 21.7298 28.195 21.7298Z" fill="#FACF39"/>
<path d="M49.1998 8.95423C52.3362 8.95423 54.0632 10.5796 54.0632 13.4747V22.2619H50.3935V14.262C50.3935 12.5224 49.3141 11.8875 48.057 11.8875C46.546 11.8875 45.1746 12.6494 45.1492 15.062V22.2616H41.4922V9.20817H45.1492V10.6558C46.0635 9.57641 47.4729 8.95423 49.1998 8.95423ZM65.0022 9.20844H68.6592V22.2618H65.1927L65.1038 20.6873C64.1895 21.8427 62.742 22.5158 60.9516 22.5158C57.8152 22.5158 56.0883 20.8777 56.0883 17.9953V9.20811H59.7579V17.208C59.7579 18.9349 60.8373 19.5698 62.1071 19.5698C63.6181 19.5698 64.9895 18.8079 65.0022 16.408L65.0022 9.20844ZM80.4489 2.75781H84.1059V22.2618H80.6394L80.5505 20.5603C79.8013 21.8428 78.2268 22.5665 76.4491 22.5665C73.0079 22.5665 70.1636 20.0269 70.1636 15.7603C70.1636 11.4937 73.0206 8.95404 76.4491 8.95404C78.1633 8.95404 79.6743 9.60163 80.4489 10.7825L80.4489 2.75781ZM77.2873 19.5318C79.2301 19.5318 80.7411 18.0461 80.7411 15.7605C80.7411 13.4749 79.2173 11.9765 77.2873 11.9765C75.3445 11.9765 73.8208 13.4114 73.8208 15.7605C73.8208 18.0969 75.3446 19.5318 77.2873 19.5318ZM95.6293 9.20844H99.1086V21.284C99.1086 26.3632 96.3531 28.4205 92.1879 28.4205C88.4421 28.4205 86.4104 26.846 85.4577 24.3699L88.4926 23.0747C89.229 24.7635 90.2956 25.5762 92.048 25.5762C94.359 25.5762 95.4383 24.1286 95.4383 21.551V20.0272C94.6764 21.0684 93.1781 21.8049 91.4766 21.8049C88.2386 21.8049 85.5212 19.2526 85.5212 15.3543C85.5212 11.4434 88.2512 8.95456 91.5019 8.95456C93.3304 8.95456 94.8288 9.76722 95.5398 10.9354L95.6293 9.20844ZM92.417 18.8461C94.3217 18.8461 95.7947 17.2969 95.7947 15.3541C95.7947 13.3987 94.3471 11.8495 92.417 11.8495C90.4997 11.8495 89.0521 13.3352 89.0521 15.3541C89.0521 17.3477 90.525 18.8461 92.417 18.8461ZM113.934 15.5446L113.896 16.4208H104.22C104.372 18.5921 105.82 19.6334 107.559 19.6334C108.867 19.6334 109.883 19.0239 110.378 17.8684L113.73 18.3636C112.867 21.0048 110.518 22.5158 107.585 22.5158C103.369 22.5158 100.613 20.0271 100.613 15.7349C100.613 11.4428 103.445 8.9287 107.47 8.9287C111.165 8.9287 113.921 10.9732 113.934 15.5446ZM107.496 11.5197C105.833 11.5197 104.677 12.2942 104.322 14.0339H110.315C110.125 12.3704 108.994 11.5197 107.496 11.5197ZM123.133 8.95423C126.562 8.95423 129.406 11.4938 129.406 15.7605C129.406 20.0271 126.562 22.5667 123.133 22.5667C121.33 22.5667 119.756 21.8429 119.019 20.5605L118.93 22.262H115.464V2.75801H119.121V10.7956C119.883 9.6147 121.406 8.95423 123.133 8.95423ZM122.282 19.5318C124.225 19.5318 125.749 18.0969 125.749 15.7605C125.749 13.4114 124.225 11.9765 122.282 11.9765C120.352 11.9765 118.828 13.4749 118.828 15.7605C118.828 18.0461 120.339 19.5318 122.282 19.5318ZM143.19 15.5446L143.152 16.4208H133.476C133.628 18.5921 135.076 19.6334 136.815 19.6334C138.123 19.6334 139.139 19.0239 139.634 17.8684L142.986 18.3636C142.123 21.0048 139.774 22.5158 136.841 22.5158C132.625 22.5158 129.869 20.0271 129.869 15.7349C129.869 11.4428 132.701 8.9287 136.726 8.9287C140.421 8.9287 143.177 10.9732 143.19 15.5446ZM136.752 11.5197C135.089 11.5197 133.933 12.2942 133.578 14.0339H139.571C139.381 12.3704 138.25 11.5197 136.752 11.5197ZM156.999 15.5446L156.961 16.4208H147.285C147.437 18.5921 148.885 19.6334 150.624 19.6334C151.932 19.6334 152.948 19.0239 153.443 17.8684L156.795 18.3636C155.932 21.0048 153.583 22.5158 150.65 22.5158C146.434 22.5158 143.678 20.0271 143.678 15.7349C143.678 11.4428 146.51 8.9287 150.535 8.9287C154.23 8.9287 156.986 10.9732 156.999 15.5446ZM150.561 11.5197C148.898 11.5197 147.742 12.2942 147.387 14.0339H153.38C153.19 12.3704 152.059 11.5197 150.561 11.5197Z" fill="white"/>
</svg>
