<svg width="111" height="21" viewBox="0 0 111 21" fill="none" xmlns="http://www.w3.org/2000/svg">
<path d="M7.09971 10.0078C7.09971 10.0078 6.74138 16.0994 10.7726 20.5785C10.7726 20.5785 6.39305 21.6201 4.77058 16.4577C3.29248 11.7547 7.09971 10.0078 7.09971 10.0078Z" fill="#FACF39"/>
<path d="M12.0877 9.20312C12.0877 9.20312 11.7755 14.5098 15.2873 18.4117C15.2873 18.4117 11.4721 19.3192 10.0587 14.8219C8.77104 10.7249 12.0877 9.20312 12.0877 9.20312Z" fill="#FACF39"/>
<path d="M2.84677 13.8438C2.84677 13.8438 2.60425 17.9665 5.33254 20.9979C5.33254 20.9979 2.73467 21.1582 1.62609 18.09C0.800063 15.8038 2.84677 13.8438 2.84677 13.8438Z" fill="#FACF39"/>
<path d="M16.3064 7.6118C16.3064 7.6118 7.30348 -3.6755 1.12234 1.29629C-5.0588 6.26808 16.3064 7.6118 16.3064 7.6118Z" fill="#FACF39"/>
<path d="M19.4357 14.7855C20.9773 14.7855 22.2269 13.5359 22.2269 11.9943C22.2269 10.4528 20.9773 9.20312 19.4357 9.20312C17.8942 9.20312 16.6445 10.4528 16.6445 11.9943C16.6445 13.5359 17.8942 14.7855 19.4357 14.7855Z" fill="#FACF39"/>
<path d="M35.5845 5.90508C37.7648 5.90508 38.9653 7.03493 38.9653 9.04746V15.1559H36.4143V9.59476C36.4143 8.38546 35.664 7.94414 34.7901 7.94414C33.7397 7.94414 32.7864 8.47377 32.7687 10.1509V15.1556H30.2266V6.08161H32.7687V7.0879C33.4043 6.33759 34.384 5.90508 35.5845 5.90508ZM46.5695 6.08179H49.1117V15.1558H46.7019L46.6401 14.0613C46.0046 14.8645 44.9983 15.3323 43.7537 15.3323C41.5735 15.3323 40.373 14.1937 40.373 12.19V6.08157H42.924V11.6427C42.924 12.8432 43.6743 13.2845 44.557 13.2845C45.6074 13.2845 46.5607 12.7548 46.5695 11.0866L46.5695 6.08179ZM57.3072 1.59766H59.8494V15.1558H57.4396L57.3779 13.973C56.8571 14.8645 55.7625 15.3676 54.5268 15.3676C52.1346 15.3676 50.1574 13.6022 50.1574 10.6363C50.1574 7.67036 52.1435 5.90495 54.5268 5.90495C55.7184 5.90495 56.7688 6.35512 57.3072 7.17603L57.3072 1.59766ZM55.1094 13.258C56.46 13.258 57.5104 12.2253 57.5104 10.6364C57.5104 9.04759 56.4511 8.00601 55.1094 8.00601C53.7589 8.00601 52.6997 9.00344 52.6997 10.6364C52.6997 12.2606 53.759 13.258 55.1094 13.258ZM67.8599 6.08179H70.2785V14.4761C70.2785 18.0069 68.363 19.437 65.4676 19.437C62.8637 19.437 61.4514 18.3425 60.7891 16.6212L62.8988 15.7209C63.4107 16.8949 64.1522 17.4598 65.3703 17.4598C66.9768 17.4598 67.7271 16.4535 67.7271 14.6617V13.6024C67.1975 14.3262 66.1559 14.8382 64.9731 14.8382C62.7222 14.8382 60.8332 13.064 60.8332 10.3541C60.8332 7.63542 62.731 5.90531 64.9907 5.90531C66.2618 5.90531 67.3034 6.47023 67.7977 7.28232L67.8599 6.08179ZM65.6269 12.7814C66.9509 12.7814 67.9748 11.7045 67.9748 10.354C67.9748 8.99463 66.9685 7.91775 65.6269 7.91775C64.294 7.91775 63.2877 8.95052 63.2877 10.354C63.2877 11.7398 64.3116 12.7814 65.6269 12.7814ZM80.5841 10.4864L80.5576 11.0955H73.8314C73.9373 12.6048 74.9436 13.3287 76.1529 13.3287C77.062 13.3287 77.7682 12.905 78.1124 12.1017L80.4428 12.446C79.8426 14.282 78.2096 15.3324 76.1706 15.3324C73.24 15.3324 71.3244 13.6023 71.3244 10.6187C71.3244 7.63502 73.2928 5.88733 76.091 5.88733C78.6597 5.88733 80.5753 7.30858 80.5841 10.4864ZM76.109 7.68843C74.9527 7.68843 74.1494 8.22687 73.9023 9.43617H78.0686C77.9362 8.27984 77.1505 7.68843 76.109 7.68843ZM86.9791 5.90508C89.3624 5.90508 91.3396 7.67049 91.3396 10.6364C91.3396 13.6024 89.3624 15.3678 86.9791 15.3678C85.7257 15.3678 84.6312 14.8646 84.1192 13.9731L84.0574 15.156H81.6477V1.59779H84.1898V7.18511C84.7195 6.36421 85.7787 5.90508 86.9791 5.90508ZM86.3875 13.258C87.7381 13.258 88.7973 12.2606 88.7973 10.6364C88.7973 9.00344 87.738 8.00601 86.3875 8.00601C85.0458 8.00601 83.9866 9.04759 83.9866 10.6364C83.9866 12.2253 85.037 13.258 86.3875 13.258ZM100.921 10.4864L100.895 11.0955H94.1686C94.2746 12.6048 95.2808 13.3287 96.4901 13.3287C97.3993 13.3287 98.1054 12.905 98.4497 12.1017L100.78 12.446C100.18 14.282 98.5468 15.3324 96.5078 15.3324C93.5772 15.3324 91.6617 13.6023 91.6617 10.6187C91.6617 7.63502 93.6301 5.88733 96.4283 5.88733C98.9969 5.88733 100.913 7.30858 100.921 10.4864ZM96.4462 7.68843C95.2899 7.68843 94.4867 8.22687 94.2395 9.43617H98.4058C98.2734 8.27984 97.4878 7.68843 96.4462 7.68843ZM110.521 10.4864L110.494 11.0955H103.768C103.874 12.6048 104.88 13.3287 106.089 13.3287C106.999 13.3287 107.705 12.905 108.049 12.1017L110.379 12.446C109.779 14.282 108.146 15.3324 106.107 15.3324C103.177 15.3324 101.261 13.6023 101.261 10.6187C101.261 7.63502 103.229 5.88733 106.028 5.88733C108.596 5.88733 110.512 7.30858 110.521 10.4864ZM106.046 7.68843C104.889 7.68843 104.086 8.22687 103.839 9.43617H108.005C107.873 8.27984 107.087 7.68843 106.046 7.68843Z" fill="#374151"/>
</svg>
