<?xml version="1.0" encoding="UTF-8" standalone="no"?>
<svg
   width="407.52399"
   height="100"
   fill="none"
   version="1.1"
   id="svg3"
   sodipodi:docname="observe-logo-large.svg"
   inkscape:version="1.3.2 (091e20e, 2023-11-25)"
   xmlns:inkscape="http://www.inkscape.org/namespaces/inkscape"
   xmlns:sodipodi="http://sodipodi.sourceforge.net/DTD/sodipodi-0.dtd"
   xmlns="http://www.w3.org/2000/svg"
   xmlns:svg="http://www.w3.org/2000/svg">
  <defs
     id="defs3" />
  <sodipodi:namedview
     id="namedview3"
     pagecolor="#ffffff"
     bordercolor="#000000"
     borderopacity="0.25"
     inkscape:showpageshadow="2"
     inkscape:pageopacity="0.0"
     inkscape:pagecheckerboard="0"
     inkscape:deskcolor="#d1d1d1"
     inkscape:zoom="1.1649457"
     inkscape:cx="188.4208"
     inkscape:cy="17.597387"
     inkscape:window-width="1392"
     inkscape:window-height="1212"
     inkscape:window-x="0"
     inkscape:window-y="25"
     inkscape:window-maximized="0"
     inkscape:current-layer="svg3" />
  <mask
     id="a"
     maskUnits="userSpaceOnUse"
     x="0"
     y="0"
     width="139"
     height="34">
    <path
       d="M 138.55,0 H 0 v 34 h 138.55 z"
       fill="#ffffff"
       id="path1" />
  </mask>
  <g
     mask="url(#a)"
     id="g3"
     transform="matrix(2.9413495,0,0,2.9413495,0,-0.00588245)">
    <path
       d="M 0,6.014 3.15,9.171 A 16.917,16.917 0 0 1 14.847,4.543 c 4.347,0.019 8.52,1.712 11.657,4.73 L 29.542,6.008 A 21.167,21.167 0 0 0 14.769,0.002 21.167,21.167 0 0 0 0,6.016 Z"
       fill="#00a259"
       id="path2" />
    <path
       d="m 5.909,17.56 a 10.536,10.536 0 0 1 3.686,-3.853 9.604,9.604 0 0 1 10.115,0 10.731,10.731 0 0 1 3.711,3.866 10.568,10.568 0 0 1 1.057,7.897 10.54,10.54 0 0 1 -4.755,6.383 9.837,9.837 0 0 1 -10.128,0.015 10.248,10.248 0 0 1 -3.686,-3.796 10.844,10.844 0 0 1 0,-10.514 v 0.001 z m 2.828,8.904 a 7.155,7.155 0 0 0 2.516,2.652 6.482,6.482 0 0 0 3.493,0.989 6.32,6.32 0 0 0 3.427,-0.972 7.017,7.017 0 0 0 2.46,-2.653 7.88,7.88 0 0 0 -0.013,-7.383 7.137,7.137 0 0 0 -2.501,-2.681 6.556,6.556 0 0 0 -6.921,0 7.07,7.07 0 0 0 -2.474,2.681 7.679,7.679 0 0 0 -0.911,3.698 7.426,7.426 0 0 0 0.923,3.668 h 10e-4 z m 33.62,-2.201 c 0.626,0.827 0.957,1.84 0.94,2.878 0,1.995 -0.65,3.477 -1.945,4.446 a 7.785,7.785 0 0 1 -4.8,1.454 H 30.381 V 12.495 h 5.41 c 2.068,0 3.672,0.437 4.813,1.312 1.141,0.874 1.712,2.158 1.713,3.851 a 5.536,5.536 0 0 1 -0.666,2.781 4.999,4.999 0 0 1 -1.89,1.877 6.218,6.218 0 0 1 2.597,1.947 z m -8.796,-3.02 h 2.747 a 2.538,2.538 0 0 0 2.053,-0.82 3.074,3.074 0 0 0 0.694,-2.06 2.473,2.473 0 0 0 -0.83,-2.032 3.54,3.54 0 0 0 -2.298,-0.677 h -2.366 z m 5.466,8.029 a 2.42,2.42 0 0 0 1.006,-2.102 2.272,2.272 0 0 0 -1.102,-2.117 5.3,5.3 0 0 0 -2.732,-0.649 h -2.638 v 5.586 h 2.855 a 4.377,4.377 0 0 0 2.61,-0.718 z m 15.69,-13.986 a 3.649,3.649 0 0 0 -2.326,0.677 2.243,2.243 0 0 0 -0.856,1.863 2.318,2.318 0 0 0 1.074,1.933 13.98,13.98 0 0 0 3.003,1.538 c 0.883,0.311 1.727,0.723 2.516,1.228 a 5.47,5.47 0 0 1 1.726,1.877 5.95,5.95 0 0 1 0.678,2.991 5.567,5.567 0 0 1 -0.802,2.987 5.546,5.546 0 0 1 -2.27,2.094 7.456,7.456 0 0 1 -3.537,0.79 c -1.202,0 -2.397,-0.196 -3.537,-0.579 a 10.807,10.807 0 0 1 -3.1,-1.594 L 48.7,28.523 a 8.987,8.987 0 0 0 2.38,1.312 c 0.809,0.326 1.67,0.503 2.541,0.522 a 4.476,4.476 0 0 0 2.529,-0.72 2.467,2.467 0 0 0 1.088,-2.214 2.515,2.515 0 0 0 -0.911,-1.977 8.937,8.937 0 0 0 -2.543,-1.439 c -0.963,-0.359 -1.9,-0.788 -2.8,-1.284 a 5.92,5.92 0 0 1 -1.918,-1.778 4.879,4.879 0 0 1 -0.802,-2.866 5.286,5.286 0 0 1 1.647,-4.05 6.518,6.518 0 0 1 4.337,-1.651 c 1.164,-0.02 2.324,0.137 3.44,0.465 0.977,0.306 1.907,0.747 2.761,1.312 l -1.196,2.511 a 9.8,9.8 0 0 0 -4.537,-1.38 z M 79.19,12.492 v 3.162 h -9.953 v 5.476 h 8.866 v 3.161 h -8.865 v 5.586 H 79.57 v 3.161 H 66.055 V 12.493 H 79.19 Z M 96.128,33.041 91.67,25.9 h -3.181 v 7.14 H 85.308 V 12.495 h 5.574 c 2.211,0 3.983,0.583 5.315,1.749 1.333,1.165 2,2.784 2,4.854 a 8.048,8.048 0 0 1 -0.775,3.514 5.417,5.417 0 0 1 -2.435,2.498 l 4.813,7.931 h -3.67 z m -7.64,-10.302 h 2.828 c 1.268,0 2.189,-0.362 2.76,-1.087 0.56,-0.69 0.863,-1.553 0.857,-2.441 A 4.216,4.216 0 0 0 94.607,17.616 3.208,3.208 0 0 0 93.493,16.233 3.42,3.42 0 0 0 91.426,15.654 H 88.49 Z M 120.085,12.492 111.22,34 102.354,12.492 h 3.779 l 5.221,13.492 5.004,-13.492 z m 18.085,0 v 3.162 h -9.952 v 5.476 h 8.865 v 3.161 h -8.865 v 5.586 h 10.333 v 3.161 H 125.035 V 12.493 h 13.135 z"
       fill="#000000"
       id="path3" />
  </g>
</svg>
