<svg width="14" height="14" viewBox="0 0 14 14" fill="none" xmlns="http://www.w3.org/2000/svg">
<path d="M11.9013 5.94703C11.8213 5.77846 11.6931 5.63601 11.5321 5.53677C11.3711 5.43754 11.1841 5.38575 10.9937 5.38762H8.82223L9.87521 1.21778C9.93117 1.00496 9.91183 0.779954 9.82031 0.579198C9.72879 0.378441 9.57046 0.213692 9.37096 0.111634C9.17145 0.00957669 8.94246 -0.0238125 8.72107 0.0168745C8.49968 0.0575615 8.29886 0.169942 8.15113 0.335814L2.2391 6.99416L2.22952 7.00351C2.10831 7.14641 2.03138 7.32004 2.00775 7.50405C1.98412 7.68807 2.01477 7.87483 2.09611 8.04247C2.17744 8.2101 2.30609 8.35164 2.46697 8.45052C2.62786 8.54939 2.81431 8.60149 3.00447 8.6007H5.17594L4.12296 12.7705C4.06283 12.9856 4.08054 13.2142 4.17309 13.418C4.26564 13.6218 4.42739 13.7883 4.63108 13.8894C4.77421 13.9619 4.93314 13.9999 5.09445 14C5.23922 14.0005 5.38227 13.9695 5.51327 13.9094C5.64426 13.8493 5.7599 13.7616 5.85183 13.6525L11.7734 6.98325C11.8941 6.84051 11.9702 6.66704 11.9929 6.48339C12.0156 6.29974 11.9838 6.1136 11.9013 5.94703ZM5.31815 12.582L6.29284 8.73783C6.33238 8.5939 6.33759 8.44304 6.30806 8.29685C6.27853 8.15065 6.21505 8.01299 6.12248 7.89444C6.02992 7.77588 5.91074 7.67958 5.77408 7.61293C5.63742 7.54628 5.48692 7.51105 5.33413 7.50994H3.26172L8.68002 1.40632L7.70533 5.25049C7.66579 5.39442 7.66058 5.54528 7.69011 5.69148C7.71964 5.83768 7.78312 5.97533 7.87569 6.09389C7.96825 6.21244 8.08743 6.30874 8.22409 6.37539C8.36075 6.44204 8.51125 6.47727 8.66404 6.47838H10.7364L5.31815 12.582Z" fill="#60A5FA"/>
</svg>
