<svg width="20" height="21" viewBox="0 0 20 21" fill="none" xmlns="http://www.w3.org/2000/svg">
<g id="Icons/phone-call" clip-path="url(#clip0_8957_13497)">
<path id="Vector" d="M12.5435 4.66732C13.3574 4.82612 14.1055 5.2242 14.6919 5.8106C15.2783 6.397 15.6763 7.14504 15.8351 7.95898M12.5435 1.33398C14.2345 1.52185 15.8115 2.27913 17.0153 3.48149C18.2192 4.68385 18.9785 6.25983 19.1685 7.95065M18.3351 14.6007V17.1007C18.3361 17.3327 18.2886 17.5625 18.1956 17.7751C18.1026 17.9878 17.9662 18.1786 17.7952 18.3355C17.6242 18.4924 17.4223 18.6119 17.2024 18.6862C16.9826 18.7606 16.7496 18.7882 16.5185 18.7673C13.9542 18.4887 11.491 17.6124 9.32682 16.209C7.31334 14.9295 5.60626 13.2225 4.32682 11.209C2.91846 9.03499 2.04202 6.55981 1.76848 3.98398C1.74766 3.75354 1.77505 3.52128 1.8489 3.302C1.92275 3.08272 2.04146 2.88123 2.19745 2.71034C2.35345 2.53945 2.54332 2.40291 2.75498 2.30942C2.96663 2.21593 3.19543 2.16754 3.42682 2.16732H5.92682C6.33124 2.16334 6.72331 2.30655 7.02995 2.57026C7.33659 2.83397 7.53688 3.20019 7.59348 3.60065C7.699 4.40071 7.89469 5.18626 8.17682 5.94232C8.28894 6.24059 8.3132 6.56475 8.24674 6.87638C8.18028 7.18802 8.02587 7.47408 7.80182 7.70065L6.74348 8.75898C7.92978 10.8453 9.65719 12.5727 11.7435 13.759L12.8018 12.7007C13.0284 12.4766 13.3144 12.3222 13.6261 12.2557C13.9377 12.1893 14.2619 12.2135 14.5601 12.3257C15.3162 12.6078 16.1018 12.8035 16.9018 12.909C17.3066 12.9661 17.6763 13.17 17.9406 13.4819C18.2049 13.7938 18.3453 14.192 18.3351 14.6007Z" stroke="#B9B9B9" stroke-width="1.25" stroke-linecap="round" stroke-linejoin="round"/>
</g>
<defs>
<clipPath id="clip0_8957_13497">
<rect width="20" height="20" fill="white" transform="translate(0 0.5)"/>
</clipPath>
</defs>
</svg>
