<svg width="24" height="24" viewBox="-0.364 0 24 24" xmlns="http://www.w3.org/2000/svg" preserveAspectRatio="xMidYMid">
  <path d="M23.183 14.371c-.14-.423-.505-.717-.978-.788a2.3 2.3 0 0 0-.78.043 7 7 0 0 1-1.202.158c1.076-1.817 1.951-3.889 2.455-5.839.815-3.154.379-4.59-.129-5.24C21.202.986 19.238.062 16.868.034a10 10 0 0 0-2.952.414A11 11 0 0 0 12.19.29c-1.14-.018-2.147.23-3.007.741A14 14 0 0 0 7.059.498c-2.077-.341-3.75-.075-4.974.79C.602 2.334-.085 4.153.042 6.694c.04.807.492 3.261 1.202 5.589.408 1.338.844 2.449 1.294 3.303.639 1.21 1.322 1.923 2.09 2.179.43.143 1.212.244 2.033-.441.104.126.243.252.428.368.234.148.521.268.807.34 1.031.258 1.997.193 2.821-.168l.012.407q.008.296.018.568c.049 1.216.132 2.161.377 2.823l.051.151c.122.374.327 1.001.847 1.492.539.508 1.19.664 1.787.664.299 0 .585-.039.835-.093.893-.191 1.907-.483 2.64-1.527.693-.987 1.031-2.474 1.092-4.817l.022-.19.015-.124.163.014.042.003c.909.041 2.021-.151 2.704-.469.54-.25 2.269-1.163 1.861-2.396"/>
  <path d="M21.628 14.611c-2.704.558-2.89-.358-2.89-.358 2.855-4.236 4.048-9.612 3.018-10.928-2.809-3.59-7.673-1.892-7.754-1.848l-.026.005a9.6 9.6 0 0 0-1.804-.188c-1.223-.02-2.151.321-2.855.855 0 0-8.675-3.574-8.272 4.495.086 1.717 2.46 12.988 5.293 9.584 1.035-1.245 2.035-2.298 2.035-2.298.497.33 1.091.498 1.715.438l.048-.041c-.015.155-.008.306.019.485-.73.815-.515.958-1.974 1.259-1.476.304-.609.846-.043.987.686.172 2.274.415 3.347-1.087l-.043.171c.286.229.487 1.489.453 2.632s-.056 1.927.169 2.54.45 1.991 2.367 1.581c1.602-.343 2.432-1.233 2.548-2.717.082-1.055.267-.899.279-1.842l.149-.447c.172-1.43.027-1.892 1.014-1.677l.24.021c.726.033 1.677-.117 2.235-.376 1.202-.558 1.914-1.489.729-1.244z" fill="#336791"/>
  <path d="M9.825 7.411c-.244-.034-.464-.003-.576.082a.2.2 0 0 0-.087.141c-.014.1.056.212.1.269a.75.75 0 0 0 .478.298q.038.005.077.005c.295 0 .563-.23.587-.399.03-.212-.279-.354-.578-.395m8.07.006c-.023-.166-.319-.214-.601-.175s-.553.166-.53.333c.018.13.252.351.53.351q.035 0 .071-.005a.68.68 0 0 0 .385-.211c.098-.103.155-.218.145-.293" fill="#FFF"/>
  <path d="M22.527 14.548c-.103-.312-.435-.412-.986-.298-1.637.338-2.223.104-2.415-.038 1.272-1.938 2.319-4.281 2.884-6.467.267-1.035.415-1.997.427-2.781.013-.86-.133-1.492-.435-1.879C20.784 1.528 18.995.693 16.831.67c-1.488-.017-2.745.364-2.989.471A7.4 7.4 0 0 0 12.16.925c-1.117-.018-2.083.249-2.882.795a13 13 0 0 0-2.342-.614c-1.897-.305-3.405-.074-4.481.688C1.171 2.704.578 4.33.693 6.627c.039.773.479 3.15 1.174 5.427.915 2.997 1.909 4.693 2.955 5.042.122.041.264.069.419.069.382 0 .85-.172 1.336-.757a48 48 0 0 1 1.842-2.084c.411.221.863.344 1.325.356l.003.036a11 11 0 0 0-.234.289c-.32.406-.387.491-1.417.703-.293.061-1.072.221-1.083.767-.012.596.92.847 1.027.873q.556.139 1.067.138c.828 0 1.556-.272 2.138-.798-.018 2.126.071 4.221.326 4.859.209.523.72 1.8 2.333 1.799q.354.001.784-.089c1.684-.361 2.415-1.105 2.698-2.746.151-.877.411-2.971.533-4.094.258.08.59.117.949.117.748 0 1.612-.159 2.153-.41.608-.283 1.706-.976 1.507-1.578m-4.01-7.589a7 7 0 0 1-.1.947c-.052.338-.106.687-.119 1.111-.013.413.038.842.088 1.257.101.838.204 1.701-.196 2.553a3 3 0 0 1-.177-.364c-.05-.121-.158-.314-.307-.582-.582-1.043-1.944-3.486-1.247-4.483.208-.297.735-.602 2.058-.438m-1.604-5.617c1.939.043 3.474.768 4.56 2.156.833 1.065-.084 5.909-2.74 10.088l-.081-.102-.034-.042c.686-1.133.552-2.255.433-3.249-.049-.408-.095-.793-.084-1.155.012-.384.063-.713.112-1.031.06-.392.122-.798.105-1.276a.5.5 0 0 0 .011-.18c-.043-.459-.567-1.831-1.634-3.074a7.36 7.36 0 0 0-2.598-1.953 8.7 8.7 0 0 1 1.949-.183M6.061 15.98c-.536.645-.907.521-1.029.481-.794-.265-1.715-1.942-2.526-4.602-.703-2.302-1.113-4.616-1.146-5.265-.103-2.053.395-3.483 1.479-4.252 1.764-1.251 4.664-.502 5.83-.122l-.051.049C6.706 4.2 6.751 7.5 6.756 7.702c0 .078.006.188.015.34.033.555.094 1.588-.069 2.758-.152 1.087.183 2.151.919 2.919a3 3 0 0 0 .238.224 49 49 0 0 0-1.798 2.039m2.044-2.727c-.593-.619-.863-1.48-.739-2.363.173-1.236.109-2.312.075-2.89l-.012-.208c.279-.248 1.574-.941 2.497-.73.421.096.678.383.785.877.552 2.555.073 3.62-.312 4.475-.079.176-.154.343-.218.515l-.05.133c-.126.337-.243.65-.315.948a2.38 2.38 0 0 1-1.711-.758m.097 3.445a1.5 1.5 0 0 1-.447-.192c.081-.038.226-.09.476-.142 1.212-.25 1.4-.426 1.809-.945.094-.119.2-.254.347-.418.219-.245.319-.204.501-.128.147.061.291.246.349.449.028.096.058.278-.043.42-.854 1.196-2.099 1.181-2.993.957m6.345 5.905c-1.483.318-2.008-.439-2.355-1.304-.223-.559-.333-3.077-.255-5.859a.3.3 0 0 0-.014-.106 1.4 1.4 0 0 0-.041-.197c-.116-.405-.398-.743-.737-.884-.135-.056-.381-.158-.678-.082.063-.261.173-.555.292-.874l.05-.134c.056-.151.127-.308.201-.474.403-.895.955-2.122.356-4.892-.224-1.038-.974-1.544-2.109-1.427-.681.07-1.304.345-1.615.503l-.185.098c.087-1.045.414-2.999 1.64-4.235.772-.778 1.799-1.163 3.052-1.142 2.467.04 4.049 1.307 4.942 2.362.769.909 1.186 1.825 1.352 2.319-1.25-.127-2.101.12-2.532.736-.938 1.341.513 3.943 1.21 5.194.128.229.238.427.273.511.227.55.521.918.736 1.186.066.082.13.162.178.232-.379.109-1.059.361-.997 1.622-.05.633-.406 3.595-.586 4.642-.238 1.383-.747 1.898-2.178 2.205m6.191-7.085c-.387.18-1.035.315-1.651.344-.68.032-1.026-.076-1.108-.143-.038-.786.254-.868.564-.955q.073-.02.142-.043.043.035.094.069c.547.361 1.521.4 2.898.116l.015-.003a3.7 3.7 0 0 1-.954.616" fill="#FFF"/>
</svg>
