<svg width="48" height="48" viewBox="0 0 48 48" fill="none" xmlns="http://www.w3.org/2000/svg">
<path d="M24.0002 4C12.9549 4 4 12.9539 4 23.9998C4 35.0453 12.9549 44 24.0002 44C35.0455 44 44 35.0453 44 23.9998C44 12.9539 35.0452 4 24.0002 4ZM24.0002 41.4319C20.8576 41.4319 18.3097 39.3326 18.3097 36.7437H29.6907C29.6907 39.3323 27.1428 41.4319 24.0002 41.4319ZM33.399 35.1911H14.6003V31.7823H33.3994V35.1911H33.399ZM33.3316 30.0278H14.6539C14.5918 29.9562 14.5283 29.8856 14.4683 29.8129C12.544 27.4764 12.0908 26.2566 11.6507 25.0135C11.6433 24.9725 13.984 25.4917 15.6439 25.8652C15.6439 25.8652 16.498 26.0628 17.7467 26.2905C16.5478 24.885 15.8359 23.0984 15.8359 21.2722C15.8359 17.2631 18.9107 13.7597 17.8015 10.928C18.8811 11.0159 20.0359 13.2067 20.1139 16.632C21.2617 15.0459 21.7421 12.1492 21.7421 10.3732C21.7421 8.53433 22.9537 6.39828 24.1657 6.32522C23.0853 8.10585 24.4456 9.63235 25.6548 13.4191C26.1083 14.8415 26.0504 17.2352 26.4005 18.7532C26.5167 15.6004 27.0588 11 29.0589 9.41176C28.1765 11.4119 29.1895 13.9147 29.8823 15.1179C31.0001 17.0591 31.6777 18.5298 31.6777 21.3114C31.6777 23.1764 30.9891 24.9323 29.8276 26.3049C31.1483 26.0572 32.0603 25.8337 32.0603 25.8337L36.3493 24.9969C36.3496 24.9965 35.7263 27.5597 33.3316 30.0278Z" fill="#DA4E31"/>
</svg>
