<svg height="24" width="24" xmlns="http://www.w3.org/2000/svg" viewBox="0 0 5.753 5.753" xml:space="preserve" fill="#f03d3d"><g stroke-width="0"/><g stroke-linecap="round" stroke-linejoin="round"/><path style="fill:#f03d3d" d="m3.154 0.298 0.649 1.315a0.31 0.31 0 0 0 0.233 0.169l1.451 0.211c0.254 0.037 0.356 0.349 0.172 0.528l-1.05 1.023a0.31 0.31 0 0 0 -0.089 0.274l0.248 1.445c0.043 0.253 -0.222 0.446 -0.45 0.327l-1.298 -0.682a0.311 0.311 0 0 0 -0.288 0l-1.298 0.682c-0.227 0.12 -0.493 -0.074 -0.45 -0.327l0.248 -1.445a0.31 0.31 0 0 0 -0.089 -0.274L0.094 2.522c-0.184 -0.179 -0.082 -0.492 0.172 -0.528l1.451 -0.211a0.31 0.31 0 0 0 0.233 -0.169l0.649 -1.315c0.114 -0.23 0.442 -0.23 0.555 0"/></svg>