<svg xmlns="http://www.w3.org/2000/svg" width="17" height="17" viewBox="0 0 17 17" fill="none">
  <path d="M12.75 5.66602C13.9236 5.66602 14.875 4.71462 14.875 3.54102C14.875 2.36741 13.9236 1.41602 12.75 1.41602C11.5764 1.41602 10.625 2.36741 10.625 3.54102C10.625 4.71462 11.5764 5.66602 12.75 5.66602Z" stroke="#737373" stroke-width="1.5" stroke-linecap="round" stroke-linejoin="round"/>
  <path d="M4.25 10.625C5.4236 10.625 6.375 9.6736 6.375 8.5C6.375 7.32639 5.4236 6.375 4.25 6.375C3.07639 6.375 2.125 7.32639 2.125 8.5C2.125 9.6736 3.07639 10.625 4.25 10.625Z" stroke="#737373" stroke-width="1.5" stroke-linecap="round" stroke-linejoin="round"/>
  <path d="M12.75 15.584C13.9236 15.584 14.875 14.6326 14.875 13.459C14.875 12.2854 13.9236 11.334 12.75 11.334C11.5764 11.334 10.625 12.2854 10.625 13.459C10.625 14.6326 11.5764 15.584 12.75 15.584Z" stroke="#737373" stroke-width="1.5" stroke-linecap="round" stroke-linejoin="round"/>
  <path d="M6.08594 9.57031L10.9239 12.3895" stroke="#737373" stroke-width="1.5" stroke-linecap="round" stroke-linejoin="round"/>
  <path d="M10.9168 4.61133L6.08594 7.43049" stroke="#737373" stroke-width="1.5" stroke-linecap="round" stroke-linejoin="round"/>
</svg>