<svg width="24" height="24" viewBox="-3.292 0 26.25 26.25" xmlns="http://www.w3.org/2000/svg"><g stroke-width="0"/><g stroke-linecap="round" stroke-linejoin="round"/><path d="M8.274 26.233c-2.457 -0.177 -4.886 -0.795 -6.375 -1.624 -0.849 -0.471 -1.495 -1.051 -1.749 -1.567L0 22.734V3.454l0.119 -0.242c0.534 -1.084 2.237 -2.06 4.614 -2.646C5.54 0.366 6.705 0.168 7.656 0.068c0.971 -0.102 3.543 -0.086 4.511 0.027 2.573 0.302 4.762 0.979 6.111 1.889 0.52 0.351 1.054 0.912 1.235 1.299l0.155 0.332 -0.013 9.611 -0.013 9.611 -0.124 0.253c-0.068 0.139 -0.275 0.413 -0.459 0.608 -1.122 1.189 -3.529 2.069 -6.685 2.444 -0.643 0.076 -3.438 0.138 -4.099 0.091zM12.803 17.973c-0.009 -0.025 -0.377 -0.352 -0.816 -0.728 -0.44 -0.375 -0.818 -0.7 -0.841 -0.722s0.058 -0.098 0.18 -0.17c0.123 -0.072 0.357 -0.271 0.521 -0.444 0.48 -0.503 0.706 -1.125 0.706 -1.94q0 -1.202 -0.734 -1.943c-0.494 -0.498 -1.06 -0.712 -1.884 -0.712 -1.271 0 -2.248 0.742 -2.559 1.944 -0.107 0.414 -0.106 1.25 0.001 1.616 0.281 0.957 1.046 1.652 1.999 1.815 0.323 0.055 0.366 0.079 0.586 0.32 0.131 0.143 0.399 0.427 0.596 0.633l0.358 0.373h0.952c0.523 0 0.944 -0.02 0.935 -0.045m-3.265 -2.666c-0.229 -0.119 -0.316 -0.212 -0.446 -0.478 -0.101 -0.205 -0.118 -0.322 -0.12 -0.807 -0.001 -0.493 0.015 -0.599 0.12 -0.814 0.173 -0.35 0.41 -0.516 0.778 -0.542 0.512 -0.037 0.807 0.214 0.962 0.818 0.19 0.74 -0.019 1.527 -0.474 1.788 -0.239 0.137 -0.595 0.153 -0.819 0.036M5.317 16.68c0.998 -0.189 1.565 -0.77 1.565 -1.603 0 -0.739 -0.366 -1.17 -1.377 -1.621 -0.579 -0.259 -0.788 -0.421 -0.788 -0.61 0 -0.158 0.199 -0.329 0.43 -0.372 0.226 -0.042 0.826 0.062 1.18 0.205l0.297 0.12v-1.314l-0.323 -0.071c-0.199 -0.044 -0.618 -0.071 -1.095 -0.069 -0.677 0 -0.81 0.017 -1.064 0.118 -0.744 0.295 -1.097 0.799 -1.092 1.555 0.005 0.709 0.379 1.151 1.309 1.549 0.549 0.234 0.769 0.413 0.769 0.624 0 0.449 -0.747 0.504 -1.539 0.114l-0.433 -0.214c-0.021 -0.011 -0.039 0.296 -0.039 0.682 0 0.698 0.001 0.702 0.128 0.75 0.476 0.181 1.528 0.262 2.071 0.159m11.411 -0.648v-0.593H14.925V11.367h-1.598v5.258h3.403zM11.162 5.643c1.588 -0.11 2.779 -0.318 3.826 -0.668 1.044 -0.349 1.66 -0.771 1.798 -1.231 0.053 -0.177 0.05 -0.244 -0.025 -0.439 -0.333 -0.872 -2.193 -1.542 -5.034 -1.813 -1.216 -0.116 -3.426 -0.079 -4.585 0.078 -1.768 0.239 -3.204 0.682 -3.842 1.188 -1.291 1.022 0.074 2.147 3.249 2.676 1.377 0.229 3.16 0.31 4.614 0.21" fill="#00bcf2"/></svg>