<svg width="21" height="21" viewBox="0 0 21 21" fill="none" xmlns="http://www.w3.org/2000/svg">
<g clip-path="url(#clip0_17794_55025)">
<path d="M10.0722 8.30688C10.2097 7.89438 10.7922 7.89438 10.9297 8.30688L11.736 10.7281C11.9135 11.2604 12.2125 11.744 12.6093 12.1406C13.0061 12.5372 13.4899 12.836 14.0222 13.0131L16.4422 13.8194C16.8547 13.9569 16.8547 14.5394 16.4422 14.6769L14.021 15.4831C13.4887 15.6606 13.0051 15.9596 12.6085 16.3564C12.2119 16.7533 11.9132 17.237 11.736 17.7694L10.9297 20.1894C10.9001 20.2797 10.8427 20.3584 10.7657 20.4141C10.6887 20.4699 10.5961 20.4999 10.501 20.4999C10.4059 20.4999 10.3133 20.4699 10.2363 20.4141C10.1593 20.3584 10.1019 20.2797 10.0722 20.1894L9.26599 17.7681C9.08865 17.236 8.78984 16.7525 8.39323 16.3559C7.99662 15.9593 7.5131 15.6605 6.98099 15.4831L4.55973 14.6769C4.46941 14.6472 4.39075 14.5898 4.33499 14.5128C4.27922 14.4358 4.2492 14.3432 4.2492 14.2481C4.2492 14.1531 4.27922 14.0604 4.33499 13.9834C4.39075 13.9064 4.46941 13.849 4.55973 13.8194L6.98099 13.0131C7.5131 12.8358 7.99662 12.537 8.39323 12.1404C8.78984 11.7438 9.08865 11.2602 9.26599 10.7281L10.0722 8.30688ZM5.24348 1.93313C5.26141 1.879 5.29594 1.83189 5.34216 1.7985C5.38839 1.76511 5.44396 1.74714 5.50098 1.74714C5.55801 1.74714 5.61358 1.76511 5.65981 1.7985C5.70603 1.83189 5.74056 1.879 5.75848 1.93313L6.24223 3.38563C6.45848 4.03313 6.96599 4.54063 7.61349 4.75688L9.06599 5.24063C9.12012 5.25855 9.16722 5.29308 9.20061 5.33931C9.234 5.38553 9.25197 5.44111 9.25197 5.49813C9.25197 5.55515 9.234 5.61072 9.20061 5.65695C9.16722 5.70318 9.12012 5.7377 9.06599 5.75563L7.61349 6.23938C7.29414 6.34577 7.00397 6.52508 6.76595 6.7631C6.52794 7.00111 6.34863 7.29129 6.24223 7.61063L5.75848 9.06313C5.74056 9.11726 5.70603 9.16437 5.65981 9.19775C5.61358 9.23114 5.55801 9.24911 5.50098 9.24911C5.44396 9.24911 5.38839 9.23114 5.34216 9.19775C5.29594 9.16437 5.26141 9.11726 5.24348 9.06313L4.75973 7.61063C4.65334 7.29129 4.47403 7.00111 4.23602 6.7631C3.998 6.52508 3.70783 6.34577 3.38848 6.23938L1.93598 5.75563C1.88185 5.7377 1.83475 5.70318 1.80136 5.65695C1.76797 5.61072 1.75 5.55515 1.75 5.49813C1.75 5.44111 1.76797 5.38553 1.80136 5.33931C1.83475 5.29308 1.88185 5.25855 1.93598 5.24063L3.38848 4.75688C3.70783 4.65048 3.998 4.47117 4.23602 4.23316C4.47403 3.99515 4.65334 3.70497 4.75973 3.38563L5.24348 1.93313ZM14.0797 0.621878C14.0921 0.586286 14.1152 0.555423 14.1459 0.53358C14.1766 0.511737 14.2133 0.5 14.251 0.5C14.2887 0.5 14.3254 0.511737 14.3561 0.53358C14.3868 0.555423 14.4099 0.586286 14.4222 0.621878L14.7447 1.58938C14.8885 2.02188 15.2272 2.36063 15.6597 2.50438L16.6272 2.82688C16.6628 2.83922 16.6937 2.86234 16.7155 2.89303C16.7374 2.92372 16.7491 2.96046 16.7491 2.99813C16.7491 3.0358 16.7374 3.07253 16.7155 3.10322C16.6937 3.13392 16.6628 3.15704 16.6272 3.16938L15.6597 3.49188C15.4466 3.56278 15.2529 3.6824 15.0941 3.84123C14.9353 4.00006 14.8156 4.19374 14.7447 4.40688L14.4222 5.37438C14.4099 5.40997 14.3868 5.44083 14.3561 5.46268C14.3254 5.48452 14.2887 5.49626 14.251 5.49626C14.2133 5.49626 14.1766 5.48452 14.1459 5.46268C14.1152 5.44083 14.0921 5.40997 14.0797 5.37438L13.7572 4.40688C13.6863 4.19374 13.5667 4.00006 13.4079 3.84123C13.2491 3.6824 13.0554 3.56278 12.8422 3.49188L11.876 3.16938C11.8404 3.15704 11.8095 3.13392 11.7877 3.10322C11.7658 3.07253 11.7541 3.0358 11.7541 2.99813C11.7541 2.96046 11.7658 2.92372 11.7877 2.89303C11.8095 2.86234 11.8404 2.83922 11.876 2.82688L12.8435 2.50438C13.276 2.36063 13.6147 2.02188 13.7585 1.58938L14.0797 0.623128V0.621878Z" fill="#FACF39"/>
</g>
<defs>
<clipPath id="clip0_17794_55025">
<rect width="20" height="20" fill="white" transform="translate(0.5 0.5)"/>
</clipPath>
</defs>
</svg>
