<svg width="11" height="10" viewBox="0 0 11 10" fill="none" xmlns="http://www.w3.org/2000/svg">
<path d="M8.83333 8.33333H0.5V1.25C0.5 0.918479 0.631696 0.600537 0.866116 0.366116C1.10054 0.131696 1.41848 0 1.75 0L7.58333 0C7.91485 0 8.2328 0.131696 8.46722 0.366116C8.70164 0.600537 8.83333 0.918479 8.83333 1.25V8.33333ZM1.33333 7.5H8V1.25C8 1.13949 7.9561 1.03351 7.87796 0.955372C7.79982 0.877232 7.69384 0.833333 7.58333 0.833333H1.75C1.63949 0.833333 1.53351 0.877232 1.45537 0.955372C1.37723 1.03351 1.33333 1.13949 1.33333 1.25V7.5ZM9.66667 1.74333V9.16667H2.16667V10H10.5V2.91667C10.4989 2.65906 10.4183 2.40807 10.2691 2.19804C10.12 1.98801 9.90954 1.8292 9.66667 1.74333Z" fill="white"/>
</svg>
