<svg xmlns="http://www.w3.org/2000/svg" viewBox="0 0 24 24"><path d="M3 2c-1.105 0-2 .9-2 2v16c0 1.1.895 2 2 2h18c1.105 0 2-.9 2-2V4c0-1.1-.895-2-2-2H3z" fill="#374151" class="fill-2c3e50"></path><path d="M3 21c-1.105 0-2-.9-2-2V7h22v12c0 1.1-.895 2-2 2H3z" fill="#374151" class="fill-34495e"></path><path d="M4 4.5v1.1L6 8l-2 2.3v1.1L7 8 4 4.5z" fill="#ffffff" class="fill-ecf0f1"></path><path d="M3 2a2 2 0 0 0-2 2v12h22V4a2 2 0 0 0-2-2H3z" fill="#374151" class="fill-34495e"></path><path d="M4 5.125V6.25L7 8 4 9.75v1.125L9 8 4 5.125zM9 10v1h5v-1H9z" fill="#ffffff" class="fill-ecf0f1"></path></svg>