<svg width="16" height="16" viewBox="0 0 16 16" fill="none" xmlns="http://www.w3.org/2000/svg">
<path d="M11.3307 8.66675L8.66406 14.6667C8.13363 14.6667 7.62492 14.456 7.24985 14.081C6.87478 13.7059 6.66406 13.1972 6.66406 12.6667V10.0001L2.89073 10.0001C2.69746 10.0023 2.50602 9.96241 2.32968 9.88327C2.15334 9.80413 1.99632 9.68759 1.86949 9.54174C1.74266 9.39588 1.64906 9.2242 1.59517 9.03858C1.54128 8.85296 1.52839 8.65784 1.5574 8.46675L2.4774 2.46675C2.52561 2.14881 2.68711 1.85901 2.93212 1.65074C3.17714 1.44248 3.48918 1.32978 3.81073 1.33341L11.3307 1.33341M11.3307 8.66675L11.3307 1.33341M11.3307 8.66675H13.3307C13.6844 8.66675 14.0235 8.52627 14.2735 8.27622C14.5236 8.02617 14.6641 7.68704 14.6641 7.33341V2.66675C14.6641 2.31313 14.5236 1.97399 14.2735 1.72394C14.0235 1.47389 13.6844 1.33341 13.3307 1.33341H11.3307" stroke="#EF4444" stroke-width="1.5" stroke-linecap="round" stroke-linejoin="round"/>
</svg>
