<svg width="16" height="16" viewBox="0 0 16 16" fill="none" xmlns="http://www.w3.org/2000/svg">
<path d="M4.66927 7.33325L7.33594 1.33325C7.86637 1.33325 8.37508 1.54397 8.75015 1.91904C9.12522 2.29411 9.33594 2.80282 9.33594 3.33325V5.99992H13.1093C13.3025 5.99773 13.494 6.03759 13.6703 6.11673C13.8467 6.19587 14.0037 6.31241 14.1305 6.45826C14.2573 6.60412 14.3509 6.7758 14.4048 6.96142C14.4587 7.14704 14.4716 7.34216 14.4426 7.53325L13.5226 13.5333C13.4744 13.8512 13.3129 14.141 13.0679 14.3493C12.8229 14.5575 12.5108 14.6702 12.1893 14.6666H4.66927M4.66927 7.33325V14.6666M4.66927 7.33325H2.66927C2.31565 7.33325 1.97651 7.47373 1.72646 7.72378C1.47641 7.97383 1.33594 8.31296 1.33594 8.66659V13.3333C1.33594 13.6869 1.47641 14.026 1.72646 14.2761C1.97651 14.5261 2.31565 14.6666 2.66927 14.6666H4.66927" stroke="#22C55E" stroke-width="1.5" stroke-linecap="round" stroke-linejoin="round"/>
</svg>
