<svg width="129" height="128" viewBox="0 0 129 128" fill="none" xmlns="http://www.w3.org/2000/svg">
<ellipse cx="61.2857" cy="65.8777" rx="45.731" ry="47.5144" fill="#FFFAE8"/>
<path d="M107.02 65.8777C107.02 92.1192 86.5458 113.392 61.2892 113.392C60.953 113.392 96.0447 90.0733 88.9603 52.9033C84.0542 27.1617 60.2766 18.3633 61.2892 18.3633C86.5458 18.3633 107.02 39.6362 107.02 65.8777Z" fill="#FFE688"/>
<g filter="url(#filter0_dd_18824_64148)">
<path d="M72.3283 83.0114L60.9759 53.2055C60.6776 52.4224 60.0447 51.0164 59.901 50.3854C59.901 50.3854 61.8545 49.5044 62.5895 49.1456C63.2774 48.8061 64.0538 47.4114 64.9372 45.0103C65.8206 42.6093 66.6196 40.1297 67.3156 37.5226C68.3158 33.998 69.1149 31.5184 69.7126 30.0838C70.0257 29.3324 70.1985 28.3557 70.2212 27.2708C70.2438 26.186 70.2469 25.3356 70.1645 24.6902C70.0821 24.0448 69.9163 23.0374 69.7143 21.6487C69.4367 20.3477 69.2709 19.3403 69.1984 18.5776C69.0787 17.8343 69.1102 16.9157 69.18 15.8115C69.2497 14.7072 69.4696 13.7111 69.8112 12.8914C70.1528 12.0717 70.7004 11.5069 71.5012 11.1776C72.8673 10.6159 74.1479 10.2592 75.3618 10.1563C76.5757 10.0535 77.6199 10.077 78.5129 10.2759C79.4058 10.4748 80.2605 10.8593 81.0112 11.3997C81.7805 11.9891 82.4183 12.5194 82.8962 13.0588C83.3741 13.5982 83.8421 14.2549 84.2905 15.146C84.786 16.0178 85.0941 16.6837 85.3276 17.1537L86.0173 18.9646C86.4647 20.1392 86.7708 21.3719 86.9355 22.6627C87.1003 23.9536 87.1718 24.9997 87.1502 25.8011C87.1285 26.6025 87.0401 27.6578 86.9134 28.8986C86.8938 29.1331 86.8457 29.4359 86.8064 29.9049C86.7671 30.3739 86.7091 30.794 86.7268 31.1264C86.6973 31.4782 86.7522 31.9084 86.7787 32.407L99.1674 27.3132C101.476 26.3642 103.837 26.4123 106.203 27.477C108.57 28.5417 110.22 30.2976 111.133 32.6957C112.14 35.3386 112.234 38.0171 111.331 40.6527C112.277 41.8488 112.96 42.9266 113.332 43.9054C114.321 46.2159 114.482 48.6405 113.824 51.062C114.995 52.5619 115.703 54.4218 115.894 56.4946C116.141 58.4309 115.852 60.2478 115.15 61.8383C116.756 65.197 117.065 68.2966 116.143 71.1667C115.106 74.31 112.652 76.7344 108.713 78.4102L102.967 80.7731C100.988 81.5866 98.7751 82.2134 96.2335 82.6924C93.7389 83.152 91.734 83.4669 90.2944 83.5494C88.8077 83.6512 86.794 83.7999 84.216 83.8975C80.0385 84.0868 77.4222 84.37 76.3673 84.7471C75.595 85.0081 73.0511 85.0432 72.9987 85.0276C72.7714 84.4309 72.6452 83.8434 72.3283 83.0114Z" fill="#FDD7BD"/>
<path d="M20.6105 87.6184C17.7228 81.7993 16.4729 75.9791 15.9388 71.7239C15.442 67.7664 17.9307 64.1989 21.5975 62.6913L50.2377 50.9154C55.3456 48.8152 61.08 51.2966 63.0457 56.4578L71.3992 78.3898C73.3649 83.5509 70.8177 89.4374 65.7098 91.5376L39.2775 102.406C36.2436 103.653 32.8183 103.318 30.4758 101.069C27.6026 98.3107 23.6946 93.8332 20.6105 87.6184Z" fill="#FFECA6"/>
<path d="M44.9062 53.0312L50.2602 50.8299C55.3681 48.7297 61.1025 51.2111 63.0683 56.3723L71.4217 78.3042C73.3875 83.4654 70.8402 89.3519 65.7323 91.4521L60.3784 93.6534L44.9062 53.0312Z" fill="#FACF39"/>
</g>
<defs>
<filter id="filter0_dd_18824_64148" x="3.875" y="8.09766" width="124.781" height="117.027" filterUnits="userSpaceOnUse" color-interpolation-filters="sRGB">
<feFlood flood-opacity="0" result="BackgroundImageFix"/>
<feColorMatrix in="SourceAlpha" type="matrix" values="0 0 0 0 0 0 0 0 0 0 0 0 0 0 0 0 0 0 127 0" result="hardAlpha"/>
<feMorphology radius="3" operator="erode" in="SourceAlpha" result="effect1_dropShadow_18824_64148"/>
<feOffset dy="10"/>
<feGaussianBlur stdDeviation="7.5"/>
<feColorMatrix type="matrix" values="0 0 0 0 0 0 0 0 0 0 0 0 0 0 0 0 0 0 0.1 0"/>
<feBlend mode="normal" in2="BackgroundImageFix" result="effect1_dropShadow_18824_64148"/>
<feColorMatrix in="SourceAlpha" type="matrix" values="0 0 0 0 0 0 0 0 0 0 0 0 0 0 0 0 0 0 127 0" result="hardAlpha"/>
<feMorphology radius="4" operator="erode" in="SourceAlpha" result="effect2_dropShadow_18824_64148"/>
<feOffset dy="4"/>
<feGaussianBlur stdDeviation="3"/>
<feColorMatrix type="matrix" values="0 0 0 0 0 0 0 0 0 0 0 0 0 0 0 0 0 0 0.1 0"/>
<feBlend mode="normal" in2="effect1_dropShadow_18824_64148" result="effect2_dropShadow_18824_64148"/>
<feBlend mode="normal" in="SourceGraphic" in2="effect2_dropShadow_18824_64148" result="shape"/>
</filter>
</defs>
</svg>
