<svg width="18" height="18" viewBox="0 0 18 18" fill="none" xmlns="http://www.w3.org/2000/svg">
<path d="M11.2511 4.25043C11.0984 4.40621 11.0129 4.61564 11.0129 4.83376C11.0129 5.05189 11.0984 5.26132 11.2511 5.4171L12.5844 6.75043C12.7402 6.90312 12.9496 6.98865 13.1678 6.98865C13.3859 6.98865 13.5953 6.90312 13.7511 6.75043L16.8928 3.60876C17.3118 4.53476 17.4387 5.56646 17.2565 6.56639C17.0743 7.56631 16.5917 8.48697 15.873 9.20566C15.1543 9.92436 14.2336 10.407 13.2337 10.5891C12.2338 10.7713 11.2021 10.6445 10.2761 10.2254L4.51777 15.9838C4.18625 16.3153 3.73661 16.5015 3.26777 16.5015C2.79893 16.5015 2.34929 16.3153 2.01777 15.9838C1.68625 15.6522 1.5 15.2026 1.5 14.7338C1.5 14.2649 1.68625 13.8153 2.01777 13.4838L7.7761 7.72543C7.35707 6.79944 7.2302 5.76774 7.41239 4.76781C7.59457 3.76788 8.07717 2.84723 8.79587 2.12853C9.51456 1.40984 10.4352 0.927238 11.4351 0.745049C12.4351 0.56286 13.4668 0.689735 14.3928 1.10876L11.2594 4.2421L11.2511 4.25043Z" stroke="#737373" stroke-width="1.25" stroke-linecap="round" stroke-linejoin="round"/>
</svg>
