<svg width="257" height="76" viewBox="0 0 257 76" fill="none" xmlns="http://www.w3.org/2000/svg">
<path d="M76.8703 3.55L71.9953 21H67.8703L64.5953 8.575L61.1703 21L57.0703 21.025L52.3703 3.55H56.1203L59.1953 17.1L62.7453 3.55H66.6453L69.9953 17.025L73.0953 3.55H76.8703ZM92.0307 13.775C92.0307 14.275 91.9973 14.725 91.9307 15.125H81.8057C81.889 16.125 82.239 16.9083 82.8557 17.475C83.4723 18.0417 84.2307 18.325 85.1307 18.325C86.4307 18.325 87.3557 17.7667 87.9057 16.65H91.6807C91.2807 17.9833 90.514 19.0833 89.3807 19.95C88.2473 20.8 86.8557 21.225 85.2057 21.225C83.8723 21.225 82.6723 20.9333 81.6057 20.35C80.5557 19.75 79.7307 18.9083 79.1307 17.825C78.5473 16.7417 78.2557 15.4917 78.2557 14.075C78.2557 12.6417 78.5473 11.3833 79.1307 10.3C79.714 9.21667 80.5307 8.38333 81.5807 7.8C82.6307 7.21667 83.839 6.925 85.2057 6.925C86.5223 6.925 87.6973 7.20833 88.7307 7.775C89.7807 8.34167 90.589 9.15 91.1557 10.2C91.739 11.2333 92.0307 12.425 92.0307 13.775ZM88.4057 12.775C88.389 11.875 88.064 11.1583 87.4307 10.625C86.7973 10.075 86.0223 9.8 85.1057 9.8C84.239 9.8 83.5057 10.0667 82.9057 10.6C82.3223 11.1167 81.964 11.8417 81.8307 12.775H88.4057ZM98.0854 2.5V21H94.5854V2.5H98.0854ZM100.643 14.075C100.643 12.6417 100.935 11.3917 101.518 10.325C102.102 9.24167 102.91 8.40833 103.943 7.825C104.977 7.225 106.16 6.925 107.493 6.925C109.21 6.925 110.627 7.35833 111.743 8.225C112.877 9.075 113.635 10.275 114.018 11.825H110.243C110.043 11.225 109.702 10.7583 109.218 10.425C108.752 10.075 108.168 9.9 107.468 9.9C106.468 9.9 105.677 10.2667 105.093 11C104.51 11.7167 104.218 12.7417 104.218 14.075C104.218 15.3917 104.51 16.4167 105.093 17.15C105.677 17.8667 106.468 18.225 107.468 18.225C108.885 18.225 109.81 17.5917 110.243 16.325H114.018C113.635 17.825 112.877 19.0167 111.743 19.9C110.61 20.7833 109.193 21.225 107.493 21.225C106.16 21.225 104.977 20.9333 103.943 20.35C102.91 19.75 102.102 18.9167 101.518 17.85C100.935 16.7667 100.643 15.5083 100.643 14.075ZM122.732 21.225C121.399 21.225 120.199 20.9333 119.132 20.35C118.066 19.75 117.224 18.9083 116.607 17.825C116.007 16.7417 115.707 15.4917 115.707 14.075C115.707 12.6583 116.016 11.4083 116.632 10.325C117.266 9.24167 118.124 8.40833 119.207 7.825C120.291 7.225 121.499 6.925 122.832 6.925C124.166 6.925 125.374 7.225 126.457 7.825C127.541 8.40833 128.391 9.24167 129.007 10.325C129.641 11.4083 129.957 12.6583 129.957 14.075C129.957 15.4917 129.632 16.7417 128.982 17.825C128.349 18.9083 127.482 19.75 126.382 20.35C125.299 20.9333 124.082 21.225 122.732 21.225ZM122.732 18.175C123.366 18.175 123.957 18.025 124.507 17.725C125.074 17.4083 125.524 16.9417 125.857 16.325C126.191 15.7083 126.357 14.9583 126.357 14.075C126.357 12.7583 126.007 11.75 125.307 11.05C124.624 10.3333 123.782 9.975 122.782 9.975C121.782 9.975 120.941 10.3333 120.257 11.05C119.591 11.75 119.257 12.7583 119.257 14.075C119.257 15.3917 119.582 16.4083 120.232 17.125C120.899 17.825 121.732 18.175 122.732 18.175ZM149.725 6.95C151.425 6.95 152.791 7.475 153.825 8.525C154.875 9.55833 155.4 11.0083 155.4 12.875V21H151.9V13.35C151.9 12.2667 151.625 11.4417 151.075 10.875C150.525 10.2917 149.775 10 148.825 10C147.875 10 147.116 10.2917 146.55 10.875C146 11.4417 145.725 12.2667 145.725 13.35V21H142.225V13.35C142.225 12.2667 141.95 11.4417 141.4 10.875C140.85 10.2917 140.1 10 139.15 10C138.183 10 137.416 10.2917 136.85 10.875C136.3 11.4417 136.025 12.2667 136.025 13.35V21H132.525V7.15H136.025V8.825C136.475 8.24167 137.05 7.78333 137.75 7.45C138.466 7.11667 139.25 6.95 140.1 6.95C141.183 6.95 142.15 7.18333 143 7.65C143.85 8.1 144.508 8.75 144.975 9.6C145.425 8.8 146.075 8.15833 146.925 7.675C147.791 7.19167 148.725 6.95 149.725 6.95ZM171.596 13.775C171.596 14.275 171.563 14.725 171.496 15.125H161.371C161.454 16.125 161.804 16.9083 162.421 17.475C163.038 18.0417 163.796 18.325 164.696 18.325C165.996 18.325 166.921 17.7667 167.471 16.65H171.246C170.846 17.9833 170.079 19.0833 168.946 19.95C167.813 20.8 166.421 21.225 164.771 21.225C163.438 21.225 162.238 20.9333 161.171 20.35C160.121 19.75 159.296 18.9083 158.696 17.825C158.113 16.7417 157.821 15.4917 157.821 14.075C157.821 12.6417 158.113 11.3833 158.696 10.3C159.279 9.21667 160.096 8.38333 161.146 7.8C162.196 7.21667 163.404 6.925 164.771 6.925C166.088 6.925 167.263 7.20833 168.296 7.775C169.346 8.34167 170.154 9.15 170.721 10.2C171.304 11.2333 171.596 12.425 171.596 13.775ZM167.971 12.775C167.954 11.875 167.629 11.1583 166.996 10.625C166.363 10.075 165.588 9.8 164.671 9.8C163.804 9.8 163.071 10.0667 162.471 10.6C161.888 11.1167 161.529 11.8417 161.396 12.775H167.971ZM184.183 10.025V16.725C184.183 17.1917 184.291 17.5333 184.508 17.75C184.741 17.95 185.124 18.05 185.658 18.05H187.283V21H185.083C182.133 21 180.658 19.5667 180.658 16.7V10.025H179.008V7.15H180.658V3.725H184.183V7.15H187.283V10.025H184.183ZM195.95 21.225C194.617 21.225 193.417 20.9333 192.35 20.35C191.284 19.75 190.442 18.9083 189.825 17.825C189.225 16.7417 188.925 15.4917 188.925 14.075C188.925 12.6583 189.234 11.4083 189.85 10.325C190.484 9.24167 191.342 8.40833 192.425 7.825C193.509 7.225 194.717 6.925 196.05 6.925C197.384 6.925 198.592 7.225 199.675 7.825C200.759 8.40833 201.609 9.24167 202.225 10.325C202.859 11.4083 203.175 12.6583 203.175 14.075C203.175 15.4917 202.85 16.7417 202.2 17.825C201.567 18.9083 200.7 19.75 199.6 20.35C198.517 20.9333 197.3 21.225 195.95 21.225ZM195.95 18.175C196.584 18.175 197.175 18.025 197.725 17.725C198.292 17.4083 198.742 16.9417 199.075 16.325C199.409 15.7083 199.575 14.9583 199.575 14.075C199.575 12.7583 199.225 11.75 198.525 11.05C197.842 10.3333 197 9.975 196 9.975C195 9.975 194.159 10.3333 193.475 11.05C192.809 11.75 192.475 12.7583 192.475 14.075C192.475 15.3917 192.8 16.4083 193.45 17.125C194.117 17.825 194.95 18.175 195.95 18.175Z" fill="#374151"/>
<path d="M15.7145 52.4038C15.7145 52.4038 16.5097 65.281 25.5441 73.6213C25.5441 73.6213 17.1841 76.9576 12.7205 66.5506C8.65412 57.0697 15.7145 52.4038 15.7145 52.4038Z" fill="#FACF39"/>
<path d="M25.3256 49.4089C25.3256 49.4089 26.0184 60.6268 33.8887 67.8925C33.8887 67.8925 26.6059 70.7989 22.7175 61.7328C19.175 53.4735 25.3256 49.4089 25.3256 49.4089Z" fill="#FACF39"/>
<path d="M8.28852 61.577C8.28852 61.577 8.82676 70.2922 14.9412 75.9369C14.9412 75.9369 9.86941 76.9556 6.93268 70.8083C4.74444 66.2278 8.28852 61.577 8.28852 61.577Z" fill="#FACF39"/>
<path d="M33.2335 44.9578C33.2335 44.9578 12.7406 23.6366 1.80392 35.6935C-9.13276 47.7504 33.2335 44.9578 33.2335 44.9578Z" fill="#FACF39"/>
<path d="M41.1524 59.1939C44.1853 58.789 46.3362 55.8383 45.9566 52.6034C45.5769 49.3685 42.8104 47.0744 39.7775 47.4793C36.7446 47.8843 34.5937 50.835 34.9734 54.0699C35.353 57.3047 38.1195 59.5989 41.1524 59.1939Z" fill="#FACF39"/>
<path d="M74.9881 42.8205C80.2732 42.8205 83.1833 45.5593 83.1833 50.4378V65.2451H76.9995V51.7645C76.9995 48.8331 75.1807 47.7633 73.0624 47.7633C70.5161 47.7633 68.2052 49.0471 68.1624 53.1126V65.2445H62V43.2484H68.1624V45.6877C69.703 43.8689 72.078 42.8205 74.9881 42.8205ZM101.617 43.2488H107.779V65.245H101.938L101.788 62.5917C100.247 64.5388 97.8079 65.6729 94.7909 65.6729C89.5058 65.6729 86.5958 62.9127 86.5958 58.0555V43.2483H92.7795V56.7288C92.7795 59.6389 94.5983 60.7087 96.738 60.7087C99.2842 60.7087 101.595 59.4248 101.617 55.3808L101.617 43.2488ZM127.646 32.3789H133.808V65.245H127.967L127.817 62.3777C126.554 64.5389 123.901 65.7584 120.906 65.7584C115.107 65.7584 110.314 61.4789 110.314 54.2893C110.314 47.0996 115.128 42.8201 120.906 42.8201C123.794 42.8201 126.34 43.9114 127.646 45.9013L127.646 32.3789ZM122.318 60.6446C125.592 60.6446 128.138 58.1411 128.138 54.2896C128.138 50.4381 125.57 47.9133 122.318 47.9133C119.044 47.9133 116.477 50.3311 116.477 54.2896C116.477 58.2267 119.044 60.6446 122.318 60.6446ZM153.226 43.2488H159.089V63.5973C159.089 72.1561 154.446 75.623 147.427 75.623C141.115 75.623 137.691 72.9697 136.086 68.7972L141.2 66.6147C142.441 69.4606 144.238 70.83 147.191 70.83C151.086 70.83 152.904 68.3907 152.904 64.0471V61.4794C151.62 63.234 149.096 64.475 146.228 64.475C140.772 64.475 136.193 60.1742 136.193 53.6052C136.193 47.0149 140.793 42.821 146.271 42.821C149.352 42.821 151.877 44.1904 153.075 46.159L153.226 43.2488ZM147.813 59.4891C151.023 59.4891 153.505 56.8787 153.505 53.6049C153.505 50.3097 151.065 47.6993 147.813 47.6993C144.582 47.6993 142.143 50.2028 142.143 53.6049C142.143 56.9642 144.625 59.4891 147.813 59.4891ZM184.071 53.9259L184.006 55.4023H167.702C167.958 59.0612 170.398 60.8158 173.329 60.8158C175.533 60.8158 177.245 59.7888 178.079 57.8417L183.728 58.6762C182.273 63.1268 178.315 65.673 173.372 65.673C166.268 65.673 161.624 61.4792 161.624 54.2466C161.624 47.014 166.396 42.7774 173.179 42.7774C179.406 42.7774 184.049 46.2226 184.071 53.9259ZM173.223 47.1434C170.42 47.1434 168.472 48.4487 167.873 51.3801H177.973C177.652 48.5771 175.747 47.1434 173.223 47.1434ZM199.573 42.8205C205.35 42.8205 210.143 47.0999 210.143 54.2896C210.143 61.4793 205.35 65.7588 199.573 65.7588C196.534 65.7588 193.881 64.5391 192.64 62.3781L192.49 65.2453H186.649V32.3792H192.811V45.9233C194.095 43.9334 196.663 42.8205 199.573 42.8205ZM198.139 60.6446C201.412 60.6446 203.98 58.2267 203.98 54.2896C203.98 50.3311 201.412 47.9133 198.139 47.9133C194.886 47.9133 192.319 50.4381 192.319 54.2896C192.319 58.1411 194.865 60.6446 198.139 60.6446ZM233.37 53.9259L233.305 55.4023H217.001C217.257 59.0612 219.697 60.8158 222.628 60.8158C224.832 60.8158 226.544 59.7888 227.378 57.8417L233.027 58.6762C231.572 63.1268 227.614 65.673 222.671 65.673C215.567 65.673 210.924 61.4792 210.924 54.2466C210.924 47.014 215.695 42.7774 222.478 42.7774C228.705 42.7774 233.348 46.2226 233.37 53.9259ZM222.522 47.1434C219.719 47.1434 217.772 48.4487 217.172 51.3801H227.272C226.951 48.5771 225.046 47.1434 222.522 47.1434ZM256.639 53.9259L256.575 55.4023H240.27C240.527 59.0612 242.966 60.8158 245.898 60.8158C248.101 60.8158 249.813 59.7888 250.648 57.8417L256.297 58.6762C254.842 63.1268 250.883 65.673 245.94 65.673C238.836 65.673 234.193 61.4792 234.193 54.2466C234.193 47.014 238.965 42.7774 245.748 42.7774C251.974 42.7774 256.618 46.2226 256.639 53.9259ZM245.791 47.1434C242.988 47.1434 241.041 48.4487 240.442 51.3801H250.541C250.22 48.5771 248.316 47.1434 245.791 47.1434Z" fill="#374151"/>
</svg>
