<svg width="16" height="16" viewBox="0 0 16 16" fill="none" xmlns="http://www.w3.org/2000/svg">
<path d="M6.45765 5.27131C6.25432 2.99111 7.93887 0.977722 10.2202 0.774291C10.7455 0.727448 11.258 0.780833 11.7377 0.919156C11.9061 0.967699 12.0385 1.09799 12.0897 1.26547C12.1409 1.43296 12.104 1.61499 11.9916 1.74934L10.1941 3.89788L11.6482 5.11331L13.4457 2.96492C13.5581 2.83055 13.7308 2.76204 13.9048 2.7828C14.0788 2.80358 14.2305 2.91081 14.3081 3.06786C14.5291 3.51515 14.6723 4.00965 14.7191 4.53463C14.9224 6.81484 13.2378 8.82823 10.9565 9.03165C10.564 9.06665 10.1787 9.04571 9.80885 8.97519L5.1056 14.6712C4.43489 15.4835 3.25892 15.6587 2.38054 15.077C1.36935 14.4075 1.15358 13.0136 1.91503 12.0698L6.6491 6.20162C6.55168 5.90558 6.48644 5.59417 6.45765 5.27131ZM10.3123 1.80646C8.60124 1.95904 7.33783 3.46908 7.49032 5.17923C7.51936 5.50486 7.59738 5.81334 7.71612 6.09861C7.78909 6.27392 7.76027 6.47507 7.64103 6.62288L2.72207 12.7202C2.34406 13.1888 2.45118 13.8807 2.95318 14.2131C3.38923 14.5018 3.97305 14.4149 4.30601 14.0116L9.21378 8.06792C9.34422 7.90995 9.5555 7.8436 9.75288 7.89861C10.1038 7.99643 10.4784 8.03391 10.8645 7.99948C12.5754 7.84692 13.8389 6.33687 13.6864 4.62672C13.6777 4.52928 13.6646 4.43336 13.6473 4.33913L12.1109 6.17554C12.0228 6.28096 11.8963 6.34705 11.7593 6.35926C11.6224 6.37147 11.4862 6.32881 11.3807 6.24066L9.13131 4.36048C8.9117 4.17692 8.88256 3.85017 9.06622 3.63064L10.6029 1.79395C10.5068 1.79365 10.4099 1.79776 10.3123 1.80646Z" fill="white"/>
</svg>
