<svg width="24" height="24" viewBox="0 0 24 24" fill="none" xmlns="http://www.w3.org/2000/svg">
<path d="M4.59375 5.51968C4.59375 5.00831 5.00831 4.59375 5.51968 4.59375H9.22338C9.73475 4.59375 10.1493 5.00831 10.1493 5.51968V9.22338C10.1493 9.73475 9.73475 10.1493 9.22338 10.1493H5.51968C5.00831 10.1493 4.59375 9.73475 4.59375 9.22338V5.51968Z" stroke="#3B82F6" stroke-width="1.25" stroke-linecap="round" stroke-linejoin="round"/>
<path d="M4.59375 14.7775C4.59375 14.2661 5.00831 13.8516 5.51968 13.8516H9.22338C9.73475 13.8516 10.1493 14.2661 10.1493 14.7775V18.4812C10.1493 18.9926 9.73475 19.4071 9.22338 19.4071H5.51968C5.00831 19.4071 4.59375 18.9926 4.59375 18.4812V14.7775Z" stroke="#3B82F6" stroke-width="1.25" stroke-linecap="round" stroke-linejoin="round"/>
<path d="M13.8516 5.51968C13.8516 5.00831 14.2661 4.59375 14.7775 4.59375H18.4812C18.9926 4.59375 19.4071 5.00831 19.4071 5.51968V9.22338C19.4071 9.73475 18.9926 10.1493 18.4812 10.1493H14.7775C14.2661 10.1493 13.8516 9.73475 13.8516 9.22338V5.51968Z" stroke="#3B82F6" stroke-width="1.25" stroke-linecap="round" stroke-linejoin="round"/>
<path d="M13.8516 14.7775C13.8516 14.2661 14.2661 13.8516 14.7775 13.8516H18.4812C18.9926 13.8516 19.4071 14.2661 19.4071 14.7775V18.4812C19.4071 18.9926 18.9926 19.4071 18.4812 19.4071H14.7775C14.2661 19.4071 13.8516 18.9926 13.8516 18.4812V14.7775Z" stroke="#3B82F6" stroke-width="1.25" stroke-linecap="round" stroke-linejoin="round"/>
</svg>
