<svg width="24" height="24" viewBox="0 0 24 24" fill="none" xmlns="http://www.w3.org/2000/svg">
<path d="M19.1128 10.3174V13.7534C19.123 13.9611 19.0242 14.1734 18.8172 14.2902L12.8745 17.6434C12.3429 17.9433 11.6933 17.9441 11.161 17.6454L5.18033 14.2909C4.96854 14.1721 4.86955 13.9534 4.88424 13.7417V10.3292C4.86978 10.1206 4.96539 9.90534 5.17191 9.78494L11.1356 6.30812C11.6809 5.99023 12.3552 5.9911 12.8996 6.31038L18.8257 9.78571C19.0274 9.90402 19.1229 10.113 19.1128 10.3174Z" stroke="#3B82F6" stroke-width="1.25"/>
<path d="M5.18032 10.7961C4.78742 10.5757 4.78272 10.0118 5.17192 9.78493L11.1356 6.30812C11.6809 5.99023 12.3552 5.9911 12.8996 6.31039L18.8257 9.78571C19.2131 10.0129 19.2084 10.5747 18.8173 10.7954L12.8744 14.1485C12.3429 14.4485 11.6933 14.4494 11.1609 14.1507L5.18032 10.7961Z" stroke="#3B82F6" stroke-width="1.25"/>
</svg>
