<svg width="24" height="24" viewBox="0 0 24 24" fill="none" xmlns="http://www.w3.org/2000/svg">
<path d="M7.04059 8.651C7.09942 8.4961 7.21735 8.3709 7.36846 8.30292C7.51957 8.23495 7.69149 8.22976 7.84642 8.2885L11.9998 9.8635L16.1531 8.2885C16.2303 8.257 16.313 8.24127 16.3964 8.24223C16.4797 8.24319 16.5621 8.26082 16.6385 8.29408C16.715 8.32734 16.784 8.37557 16.8415 8.43591C16.8991 8.49626 16.9439 8.5675 16.9735 8.64545C17.0031 8.7234 17.0168 8.80649 17.0138 8.88981C17.0108 8.97313 16.9911 9.055 16.956 9.13061C16.9208 9.20622 16.8709 9.27403 16.8092 9.33006C16.7474 9.38608 16.6751 9.42918 16.5964 9.45683L12.6248 10.9643V15.5402C12.6248 15.7059 12.5589 15.8649 12.4417 15.9821C12.3245 16.0993 12.1655 16.1652 11.9998 16.1652C11.834 16.1652 11.675 16.0993 11.5578 15.9821C11.4406 15.8649 11.3748 15.7059 11.3748 15.5402V10.9652L7.40309 9.456C7.24819 9.39716 7.12299 9.27923 7.05502 9.12812C6.98704 8.97701 6.98185 8.8051 7.04059 8.65016V8.651Z" fill="#3B82F6"/>
<path d="M10.8232 4.09616C11.5762 3.79086 12.4186 3.79086 13.1716 4.09616L19.4199 6.6295C19.689 6.73851 19.9195 6.9254 20.0818 7.1662C20.244 7.40701 20.3307 7.69078 20.3307 7.98116V16.0245C20.3307 16.3149 20.244 16.5986 20.0818 16.8395C19.9195 17.0803 19.689 17.2671 19.4199 17.3762L13.1716 19.9095C12.4186 20.2148 11.5762 20.2148 10.8232 19.9095L4.5749 17.3762C4.30576 17.2671 4.07529 17.0803 3.91302 16.8395C3.75075 16.5986 3.66406 16.3149 3.66406 16.0245V7.982C3.66406 7.69162 3.75075 7.40785 3.91302 7.16704C4.07529 6.92623 4.30576 6.73935 4.5749 6.63033L10.8232 4.09616ZM12.7016 5.2545C12.25 5.0715 11.7448 5.0715 11.2932 5.2545L5.04406 7.78783C5.0056 7.80344 4.97267 7.83018 4.94951 7.86463C4.92635 7.89907 4.91401 7.93965 4.91406 7.98116V16.0245C4.91401 16.066 4.92635 16.1066 4.94951 16.141C4.97267 16.1755 5.0056 16.2022 5.04406 16.2178L11.2932 18.7512C11.7448 18.9342 12.25 18.9342 12.7016 18.7512L18.9507 16.2178C18.9892 16.2022 19.0221 16.1755 19.0453 16.141C19.0684 16.1066 19.0808 16.066 19.0807 16.0245V7.982C19.0808 7.94049 19.0684 7.89991 19.0453 7.86546C19.0221 7.83101 18.9892 7.80427 18.9507 7.78866L12.7016 5.25533V5.2545Z" fill="#3B82F6"/>
</svg>
