<svg width="24" height="24" viewBox="0 0 24 24" fill="none" xmlns="http://www.w3.org/2000/svg">
<path d="M5.94531 16.544V7.45312" stroke="#3B82F6" stroke-width="1.25" stroke-linecap="round"/>
<path d="M18.0547 12V16.5455" stroke="#3B82F6" stroke-width="1.25" stroke-linecap="round"/>
<path d="M12.0059 10.4825C15.3531 10.4825 18.0665 9.12577 18.0665 7.45218C18.0665 5.77859 15.3531 4.42188 12.0059 4.42188C8.65874 4.42188 5.94531 5.77859 5.94531 7.45218C5.94531 9.12577 8.65874 10.4825 12.0059 10.4825Z" stroke="#3B82F6" stroke-width="1.25"/>
<path d="M18.0665 12C18.0665 13.6736 15.3531 15.0303 12.0059 15.0303C8.65874 15.0303 5.94531 13.6736 5.94531 12" stroke="#3B82F6" stroke-width="1.25" stroke-linecap="round"/>
<path d="M18.0665 16.5469C18.0665 18.2204 15.3531 19.5772 12.0059 19.5772C8.65874 19.5772 5.94531 18.2204 5.94531 16.5469" stroke="#3B82F6" stroke-width="1.25"/>
</svg>
