<svg width="24" height="24" viewBox="0 0 24 24" fill="none" xmlns="http://www.w3.org/2000/svg">
<path d="M5.89062 15.6839V9.32031" stroke="#3B82F6" stroke-linecap="round"/>
<path d="M14.3594 12.5V15.6818" stroke="#3B82F6" stroke-linecap="round"/>
<path d="M10.133 11.4377C12.4761 11.4377 14.3755 10.488 14.3755 9.31652C14.3755 8.14501 12.4761 7.19531 10.133 7.19531C7.79002 7.19531 5.89062 8.14501 5.89062 9.31652C5.89062 10.488 7.79002 11.4377 10.133 11.4377Z" stroke="#3B82F6"/>
<path d="M14.3755 12.5C14.3755 13.6715 12.4761 14.6212 10.133 14.6212C7.79002 14.6212 5.89062 13.6715 5.89062 12.5" stroke="#3B82F6" stroke-linecap="round"/>
<path d="M14.3755 15.6797C14.3755 16.8512 12.4761 17.8009 10.133 17.8009C7.79002 17.8009 5.89062 16.8512 5.89062 15.6797" stroke="#3B82F6"/>
<rect x="9.875" y="4" width="11" height="16" rx="4" fill="white"/>
<path d="M14.5568 13.1111C16.6655 13.1111 18.375 14.8522 18.375 17H14.5568M12.375 9.22222C12.375 10.4495 13.3519 11.4444 14.5568 11.4444C15.7618 11.4444 16.7386 10.4495 16.7386 9.22222C16.7386 7.99492 15.7618 7 14.5568 7C13.3519 7 12.375 7.99492 12.375 9.22222Z" stroke="#3B82F6" stroke-width="1.25" stroke-linecap="round" stroke-linejoin="round"/>
</svg>
