<svg width="24" height="24" viewBox="0 0 24 24" fill="none" xmlns="http://www.w3.org/2000/svg">
<path d="M6.00044 6.12787L6 15.75C6 17.7382 7.5473 19.3651 9.50344 19.492L9.75 19.5L16.3716 19.5011C16.0624 20.3744 15.2293 21 14.25 21H9C6.51472 21 4.5 18.9853 4.5 16.5V8.25C4.5 7.27017 5.12631 6.43663 6.00044 6.12787ZM17.25 3C18.4926 3 19.5 4.00736 19.5 5.25V15.75C19.5 16.9926 18.4926 18 17.25 18H9.75C8.50736 18 7.5 16.9926 7.5 15.75V5.25C7.5 4.00736 8.50736 3 9.75 3H17.25Z" fill="#687D95"/>
</svg>
