<svg width="32" height="32" viewBox="0 0 32 32" fill="none" xmlns="http://www.w3.org/2000/svg">
<path d="M16 8V24" stroke="#3B82F6" stroke-width="1.75" stroke-linecap="round"/>
<path d="M20 12.6693C20 10.8283 18.2092 9.33594 16 9.33594C13.7908 9.33594 12 10.8283 12 12.6693C12 14.5102 13.7908 16.0026 16 16.0026C18.2092 16.0026 20 17.495 20 19.3359C20 21.1769 18.2092 22.6693 16 22.6693C13.7908 22.6693 12 21.1769 12 19.3359" stroke="#3B82F6" stroke-width="1.75" stroke-linecap="round"/>
<path d="M9.33464 4.44782C11.2958 3.31336 13.5728 2.66406 16.0013 2.66406C23.365 2.66406 29.3346 8.6336 29.3346 15.9974C29.3346 23.3611 23.365 29.3307 16.0013 29.3307C8.6375 29.3307 2.66797 23.3611 2.66797 15.9974C2.66797 13.5689 3.31726 11.2919 4.45173 9.33073" stroke="#3B82F6" stroke-width="1.75" stroke-linecap="round"/>
</svg>
