<svg width="14" height="14" viewBox="0 0 14 14" fill="none" xmlns="http://www.w3.org/2000/svg">
<path d="M6.66657 0.000114223C4.89849 0.000114223 3.20286 0.702457 1.95257 1.95269C0.702343 3.20291 0 4.89869 0 6.66669C0 8.43469 0.702343 10.1304 1.95257 11.3807C3.2028 12.6309 4.89857 13.3333 6.66657 13.3333C8.43457 13.3333 10.1303 12.6309 11.3806 11.3807C12.6308 10.1305 13.3331 8.43469 13.3331 6.66669C13.3331 5.49649 13.0251 4.34683 12.4401 3.33326C11.8549 2.31986 11.0133 1.47823 9.99988 0.893086C8.98637 0.308028 7.83671 0 6.66646 0L6.66657 0.000114223ZM6.66657 12.0001C5.25206 12.0001 3.89549 11.4382 2.89543 10.4379C1.8952 9.43783 1.33326 8.08126 1.33326 6.6668C1.33326 5.25234 1.8952 3.89571 2.89543 2.89566C3.89554 1.89543 5.25211 1.33349 6.66657 1.33349C8.08103 1.33349 9.43766 1.89543 10.4377 2.89566C11.4379 3.89577 11.9999 5.25234 11.9999 6.6668C11.9999 7.60297 11.7535 8.52271 11.2853 9.33343C10.8172 10.1443 10.144 10.8175 9.33314 11.2855C8.52243 11.7537 7.60269 12.0002 6.66651 12.0002L6.66657 12.0001Z" fill="#000522"/>
<path d="M6.66663 5.33594C6.48984 5.33594 6.3202 5.40625 6.1952 5.53125C6.0702 5.65625 6 5.82579 6 6.00268V9.33611V9.33599C6 9.57416 6.12701 9.79425 6.33326 9.91334C6.53951 10.0324 6.79374 10.0324 7 9.91334C7.20625 9.79425 7.33326 9.57417 7.33326 9.33599V6.00285C7.33326 5.82595 7.26306 5.65642 7.13806 5.53142C7.01306 5.40642 6.84343 5.33611 6.66663 5.33611V5.33594Z" fill="#000522"/>
<path d="M6.19332 3.52537C6.07144 3.65305 6.00247 3.82214 6.00001 3.99868C5.9989 4.1758 6.06854 4.34611 6.19332 4.47199C6.25816 4.53081 6.33249 4.57825 6.41329 4.61195C6.57468 4.68327 6.75861 4.68327 6.91998 4.61195C7.00078 4.57824 7.07511 4.53081 7.13996 4.47199C7.19866 4.40704 7.24598 4.3326 7.27991 4.25202C7.3173 4.17289 7.3356 4.08606 7.33326 3.99867C7.33438 3.8211 7.26451 3.65044 7.13917 3.52455C7.01395 3.39866 6.84363 3.3279 6.66606 3.32813C6.48849 3.32824 6.31829 3.39922 6.19329 3.52533L6.19332 3.52537Z" fill="#000522"/>
</svg>
