<svg width="25" height="24" viewBox="0 0 25 24" fill="none" xmlns="http://www.w3.org/2000/svg">
<path d="M12.4542 22.4135C12.5263 22.4667 12.6119 22.4933 12.6971 22.4933C12.7824 22.4933 12.868 22.4667 12.94 22.4135L14.8229 21.0263C18.6251 18.2247 20.8945 13.7329 20.8945 9.01078V7.32832C20.8945 7.14374 20.7712 6.98198 20.5931 6.93308C17.7064 6.1402 16.7542 5.188 15.9614 2.3014C15.9126 2.12317 15.7508 2 15.5662 2H9.82832C9.64374 2 9.48215 2.12334 9.43326 2.3014C8.64038 5.18791 7.68817 6.14016 4.80157 6.93308C4.62334 6.98198 4.5 7.14374 4.5 7.32832V9.01078C4.5 13.7334 6.76951 18.225 10.5716 21.0263L12.4542 22.4135ZM5.31941 9.01078V7.63809C8.16289 6.80459 9.3045 5.66294 10.1377 2.81977H15.2564C16.0896 5.66307 17.2312 6.80468 20.0748 7.63809V9.01078C20.0748 13.4738 17.9298 17.7191 14.3369 20.3662L12.6969 21.5744L11.057 20.3662C7.46421 17.7188 5.31906 13.4738 5.31906 9.01078H5.31941Z" fill="#687D95"/>
<path d="M17.2049 12.2431C17.2049 9.75713 15.1825 7.73438 12.6962 7.73438C10.2103 7.73438 8.1875 9.75687 8.1875 12.2431C8.1875 14.7291 10.21 16.7518 12.6962 16.7518C15.1822 16.7518 17.2049 14.7292 17.2049 12.2431ZM9.00739 12.2431C9.00739 10.2091 10.6621 8.55426 12.6962 8.55426C14.7304 8.55426 16.3851 10.2091 16.3851 12.2431C16.3851 14.2771 14.7304 15.9319 12.6962 15.9319C10.6621 15.9319 9.00739 14.2771 9.00739 12.2431Z" fill="#687D95"/>
<path d="M13.1163 14.7032V14.2172C13.5878 14.0474 13.928 13.5975 13.928 13.0556C13.928 12.3821 13.3801 11.8342 12.6903 11.8342C12.4687 11.8342 12.2886 11.6541 12.2886 11.4162C12.2886 11.1945 12.4687 11.0144 12.7064 11.0144C12.9281 11.0144 13.1082 11.1945 13.1082 11.4162C13.1082 11.6426 13.2916 11.826 13.518 11.826C13.7446 11.826 13.9278 11.6424 13.9278 11.4162C13.9278 10.8901 13.5914 10.4445 13.1161 10.273L13.1163 9.78481C13.1163 9.55838 12.9329 9.375 12.7064 9.375C12.4798 9.375 12.2966 9.55855 12.2966 9.78481V10.2656C11.8166 10.4312 11.4688 10.8846 11.4688 11.4324C11.4688 12.1059 12.0167 12.6538 12.7064 12.6538C12.9281 12.6538 13.1082 12.8339 13.1082 13.0719C13.1082 13.2935 12.9281 13.4736 12.6903 13.4736C12.4687 13.4736 12.2886 13.2935 12.2886 13.0719C12.2886 12.8454 12.1052 12.662 11.8788 12.662C11.6521 12.662 11.4689 12.8456 11.4689 13.0719C11.4689 13.6038 11.8131 14.0527 12.2966 14.2198L12.2965 14.7032C12.2965 14.9297 12.4799 15.1131 12.7063 15.1131C12.9329 15.1131 13.1163 14.9297 13.1163 14.7032L13.1163 14.7032Z" fill="#687D95"/>
</svg>
