<svg width="24" height="20" viewBox="0 0 24 20" fill="none" xmlns="http://www.w3.org/2000/svg">
<g clip-path="url(#clip0_913_730)">
<path d="M7.53615 20C6.62342 20 5.69218 19.3648 5.66751 18.156C5.66751 18.0389 5.66751 17.9278 5.66751 17.8107C5.66751 17.7552 5.66751 17.6195 5.66751 17.6133C5.66135 17.6133 4.39092 17.6133 3.76187 17.6133C3.09582 17.6133 2.4236 17.6133 1.75755 17.6133C1.51704 17.6133 1.32585 17.5948 1.15317 17.5517C0.456289 17.379 0.00608839 16.7869 0.00608839 16.0407C0.00608839 14.6038 0.00608839 13.173 0.00608839 11.736V9.97842C0.00608839 9.41721 0.00608839 8.86217 0.00608839 8.30096C0.0184227 6.91335 0.0184227 5.47641 -7.87383e-05 4.06414C-0.00624587 3.59544 0.160267 3.14524 0.462456 2.84305C0.764645 2.54086 1.17784 2.38051 1.66505 2.38051H1.67121C2.18309 2.38051 2.70112 2.38051 3.213 2.38051C3.65703 2.38051 4.0949 2.38051 4.53893 2.38051C4.90279 2.38051 5.64901 2.38051 5.66135 2.38051C5.66135 2.36818 5.66135 2.35584 5.66135 2.34351C5.66135 2.29417 5.66135 2.24483 5.66135 2.1955C5.66135 1.98582 5.66135 1.7638 5.69218 1.54178C5.80319 0.653716 6.52474 0.00616713 7.40664 0.00616713C8.94843 0 10.5704 0 12.2355 0C13.5676 0 14.8935 0 16.2256 0C17.2617 0 18.0079 0.733888 18.0388 1.77613V1.78847C18.0449 1.97965 18.0511 2.177 18.0388 2.37434C18.7233 2.36818 19.3955 2.36818 19.9074 2.36818H21.8439C22.0412 2.36818 22.2756 2.37434 22.5038 2.44218C23.1575 2.63336 23.5954 3.21307 23.5954 3.89146C23.6015 8.78816 23.6015 12.5439 23.5954 16.0777C23.5954 16.9658 22.9108 17.5948 21.9364 17.601C21.48 17.601 20.9805 17.6072 20.3761 17.6072C20.0123 17.6072 19.6546 17.6072 19.2907 17.6072C18.933 17.6072 18.5691 17.6072 18.2115 17.6072H18.1683C18.1498 17.6072 18.1251 17.6072 18.1066 17.6072C18.0819 17.6072 18.0634 17.6072 18.0388 17.6072C18.0449 17.7983 18.0449 17.9957 18.0388 18.2054C18.0018 19.2476 17.2556 19.9753 16.2256 19.9815C15.8926 19.9815 15.5596 19.9815 15.2327 19.9815C14.6037 19.9815 13.9685 19.9815 13.3394 19.9815C12.7104 19.9815 12.0752 19.9815 11.4461 19.9815C9.87966 19.9815 8.67707 19.9877 7.56082 19.9938L7.53615 20ZM7.41898 18.2609C7.44981 18.267 7.51149 18.2732 7.641 18.2732H16.0591C16.1886 18.2732 16.2503 18.267 16.2811 18.2609C16.2873 18.2362 16.2935 18.1745 16.2935 18.0512C16.2935 12.6796 16.2935 7.30805 16.2935 1.93648C16.2935 1.8193 16.2873 1.7638 16.2811 1.73296C16.2565 1.7268 16.1948 1.72063 16.0715 1.72063H11.9457H7.62866C7.50532 1.72063 7.44365 1.7268 7.41898 1.73296C7.41281 1.7638 7.40048 1.82547 7.40048 1.95498C7.40048 1.95498 7.40048 15.9975 7.40048 18.0512C7.40664 18.1745 7.41281 18.23 7.41898 18.2609ZM18.0326 14.9676C18.0449 15.2698 18.0449 15.572 18.0326 15.8742C18.7172 15.868 19.3832 15.868 19.8889 15.868C20.1788 15.868 21.8686 15.868 21.8809 15.868C21.8809 15.8557 21.8809 15.8434 21.8809 15.8372C21.8809 14.3139 21.8809 12.7845 21.8809 11.2612V8.54147C21.8809 7.0737 21.8809 5.60592 21.8809 4.13814C21.8809 4.13198 21.8809 4.12581 21.8809 4.11964C21.8747 4.11964 21.5664 4.11964 21.5664 4.11964H19.9012C19.3894 4.11964 18.7172 4.11964 18.0326 4.11348C18.0388 4.69935 18.0388 5.2914 18.0388 5.86494C18.0388 6.11779 18.0388 6.37064 18.0388 6.6235H18.5568C18.7788 6.6235 19.007 6.6235 19.229 6.6235C19.6114 6.6235 19.9198 6.6235 20.2096 6.61733H20.2219C20.2898 6.61733 20.4995 6.61733 20.6475 6.77151C20.7461 6.87635 20.7893 7.01819 20.777 7.19704C20.7646 7.41289 20.7646 7.5794 20.777 7.72741C20.7831 7.80142 20.8078 8.02343 20.6475 8.19611C20.5056 8.35029 20.3144 8.36879 20.1788 8.36879H20.1603C19.8581 8.36263 19.5621 8.36263 19.34 8.36263H18.563C18.3841 8.36263 18.2115 8.36263 18.0326 8.36263C18.0388 9.38637 18.0388 10.3361 18.0326 11.2488C18.2115 11.2427 18.3718 11.2427 18.526 11.2427C18.711 11.2427 18.8837 11.2427 19.0502 11.2488C20.0061 11.2797 20.7955 12.0752 20.8202 13.025C20.8448 14.0241 20.1294 14.8504 19.1612 14.943C18.9638 14.9615 18.748 14.9738 18.4828 14.9738C18.3348 14.9738 18.1806 14.9738 18.0326 14.9676ZM1.72055 4.16281C1.72055 5.67993 1.72055 7.20321 1.72055 8.72032V11.2427C1.72055 12.7845 1.72055 14.3262 1.72055 15.8619C1.72055 15.868 1.72055 15.868 1.72055 15.8742C2.3496 15.8742 2.98481 15.8742 3.61386 15.8742C4.29841 15.8742 4.98296 15.8742 5.66751 15.8742C5.66135 15.5782 5.66135 15.276 5.66751 14.9676C5.59968 14.9676 5.53184 14.9676 5.45783 14.9676C5.34682 14.9676 5.23581 14.9738 5.11864 14.9738C4.85962 14.9738 4.66227 14.9676 4.47109 14.9491C3.47202 14.8504 2.74429 14.0241 2.7813 13.0311C2.81213 12.0444 3.62003 11.2612 4.62527 11.2488H4.77328C4.92129 11.2488 5.06313 11.2427 5.21115 11.2427C5.38383 11.2427 5.52567 11.2427 5.66135 11.255C5.65518 10.5766 5.65518 9.88591 5.65518 9.21986C5.65518 8.9485 5.65518 8.67098 5.65518 8.39963C5.65518 8.3873 5.65518 8.38113 5.65518 8.36879C5.64284 8.36879 5.24198 8.36879 5.06313 8.36879C4.84112 8.36879 4.6191 8.36879 4.39092 8.36879C4.00239 8.36879 3.68786 8.36879 3.39801 8.37496H3.38568C3.31167 8.37496 3.09582 8.37496 2.94781 8.21462C2.84913 8.10977 2.80597 7.96176 2.8183 7.78292C2.83063 7.5979 2.83063 7.41906 2.8183 7.25254C2.81213 7.17854 2.79363 6.96269 2.94781 6.79618C3.10199 6.62966 3.33017 6.62966 3.40418 6.62966H3.42268C3.71253 6.63583 4.00239 6.63583 4.22441 6.63583H4.95829C5.24198 6.63583 5.464 6.63583 5.66751 6.642C5.65518 5.63059 5.66135 4.85353 5.66751 4.13198C4.96446 4.13814 4.27991 4.13814 3.7557 4.13814C3.45351 4.13814 1.73288 4.13814 1.71438 4.13814C1.72055 4.13198 1.72055 4.15048 1.72055 4.16281ZM5.12481 12.9818C4.93362 12.9818 4.78561 12.9818 4.64994 12.988C4.53276 12.9941 4.53276 13.0188 4.52659 13.099C4.52659 13.1792 4.5451 13.2285 4.66227 13.2347C4.71778 13.2347 4.77945 13.2408 4.85962 13.2408C4.91512 13.2408 4.97063 13.2408 5.02613 13.2408C5.08164 13.2408 5.14331 13.2408 5.19881 13.2408H5.50717C5.57501 13.2408 5.63668 13.2408 5.68601 13.2347C5.68601 13.173 5.67985 13.0866 5.66751 12.988C5.65518 12.9818 5.20498 12.9818 5.12481 12.9818ZM18.415 13.2285C18.4766 13.2285 18.5383 13.2285 18.6 13.2285C18.6555 13.2285 18.7172 13.2285 18.7727 13.2285C18.8528 13.2285 18.9145 13.2285 18.97 13.2223C19.044 13.2162 19.0934 13.1668 19.0934 13.1052C19.0934 13.025 19.0625 12.988 18.9762 12.988C18.8405 12.9818 18.6925 12.9818 18.5013 12.9818C18.4088 12.9818 18.3225 12.9818 18.23 12.9818C18.1621 12.9818 18.0881 12.9818 18.0203 12.9818C18.0018 13.1052 18.0018 13.173 18.0018 13.2162C18.0388 13.2223 18.1004 13.2285 18.2053 13.2347L18.415 13.2285Z" fill="white"/>
<path d="M12.6488 16.7437C12.4946 16.7437 12.3404 16.7437 12.1863 16.7437C12.0383 16.7437 11.8841 16.7437 11.7361 16.7437H11.7299C11.5819 16.7437 11.4339 16.7437 11.2859 16.7437C11.1378 16.7437 10.9837 16.7437 10.8357 16.7437C10.6198 16.7437 10.441 16.7437 10.2745 16.7376C9.22604 16.7129 8.38731 15.9173 8.28247 14.8442C8.18996 13.8637 8.88068 12.9263 9.86125 12.7104C10.0463 12.6672 10.2436 12.6487 10.4533 12.6487C11.0145 12.6426 11.477 12.6426 11.9149 12.6426C12.3158 12.6426 12.6858 12.6426 13.0435 12.6487C13.9994 12.6549 14.758 13.1421 15.0663 13.9562C15.313 14.5976 15.2328 15.2821 14.8628 15.8433C14.4866 16.3984 13.8822 16.7252 13.1977 16.7437C13.0373 16.7437 12.8585 16.7437 12.6488 16.7437ZM11.7607 14.3817C11.292 14.3817 10.8172 14.3817 10.3485 14.3879C10.1449 14.3879 10.0031 14.5112 10.0031 14.6901C10.0031 14.7764 10.0278 14.8504 10.0771 14.8997C10.1388 14.9614 10.2374 14.9984 10.3485 14.9984C10.5273 14.9984 10.7062 14.9984 10.8912 14.9984C11.0392 14.9984 11.1872 14.9984 11.3352 14.9984C11.4709 14.9984 11.6004 14.9984 11.7361 14.9984C11.8779 14.9984 12.0197 14.9984 12.1616 14.9984C12.3034 14.9984 12.4453 14.9984 12.5871 14.9984C12.7721 14.9984 12.9572 14.9984 13.1422 14.9984C13.3642 14.9984 13.4814 14.8936 13.4814 14.7024C13.4814 14.6346 13.469 14.5421 13.4012 14.4804C13.3457 14.4187 13.2532 14.3879 13.136 14.3879C12.6796 14.3879 12.2171 14.3817 11.7607 14.3817Z" fill="white"/>
<path d="M15.1773 6.79614C14.9245 6.79614 14.6469 6.78998 14.3016 6.78998C14.1104 6.78998 13.9192 6.78998 13.728 6.78998C13.543 6.78998 13.3518 6.78998 13.1668 6.78998H8.70799C8.4613 6.78998 8.28862 6.78998 8.14678 6.64813C8.0111 6.50629 8.0111 6.33977 8.0111 6.08692C8.0111 6.02525 8.0111 5.96358 8.0111 5.90191C8.0111 5.78473 8.0111 5.67372 8.0111 5.55655C8.00494 5.36537 8.07894 5.24819 8.14678 5.18652C8.20845 5.12485 8.32563 5.04468 8.51064 5.04468H8.54764C8.56615 5.04468 8.59081 5.04468 8.60932 5.04468C8.63398 5.04468 8.65865 5.04468 8.68332 5.04468H15.0848C15.3068 5.04468 15.4733 5.04468 15.6028 5.17419C15.7385 5.30986 15.7385 5.47638 15.7385 5.69223C15.7385 5.74773 15.7385 5.8094 15.7385 5.86491C15.7385 5.98208 15.7324 6.09309 15.7447 6.2041C15.757 6.38294 15.7138 6.52479 15.6152 6.62963C15.4672 6.78998 15.2575 6.78998 15.1896 6.78998L15.1773 6.79614Z" fill="white"/>
<path d="M10.2128 10.3176C10.0463 10.3176 9.91065 10.2683 9.81814 10.1696C9.67629 10.0216 9.68246 9.82424 9.68246 9.76257C9.68863 9.52822 9.68863 9.33704 9.68246 9.16436C9.67629 8.99168 9.71946 8.856 9.81814 8.75116C9.95998 8.60315 10.1635 8.60315 10.2252 8.60315H10.2375C10.441 8.60315 10.6569 8.60932 10.9282 8.60932C11.0824 8.60932 11.2304 8.60932 11.3846 8.60932C11.5326 8.60932 11.6806 8.60932 11.8286 8.60932H11.8348C11.9828 8.60932 12.1308 8.60932 12.2727 8.60932C12.4207 8.60932 12.5625 8.60932 12.7105 8.60932C12.9757 8.60932 13.1916 8.60932 13.3889 8.60315H13.4074C13.4752 8.60315 13.6788 8.60315 13.8268 8.75733C13.9254 8.856 13.9686 8.99785 13.9624 9.17669C13.9563 9.34321 13.9563 9.50972 13.9563 9.68856V9.80574C13.9563 9.95992 13.9131 10.0894 13.8206 10.1819C13.7281 10.2744 13.5986 10.3238 13.4444 10.3238C12.9017 10.3238 12.3652 10.3238 11.8286 10.3238C11.2921 10.3176 10.7555 10.3176 10.2128 10.3176Z" fill="white"/>
</g>
<defs>
<clipPath id="clip0_913_730">
<rect width="23.5954" height="20" fill="white"/>
</clipPath>
</defs>
</svg>
