<svg width="24" height="24" viewBox="0 0 24 24" fill="none" xmlns="http://www.w3.org/2000/svg">
<path d="M5.05469 11.9991C5.05469 8.72549 5.05469 7.08867 6.07168 6.07168C7.08867 5.05469 8.72549 5.05469 11.9991 5.05469C15.2727 5.05469 16.9096 5.05469 17.9266 6.07168C18.9436 7.08867 18.9436 8.72549 18.9436 11.9991" stroke="#3B82F6" stroke-width="1.25"/>
<path d="M5.05469 13.3895C5.05469 11.4449 5.05469 10.4726 5.43314 9.72985C5.76603 9.07651 6.29722 8.54532 6.95056 8.21244C7.69331 7.83398 8.66562 7.83398 10.6102 7.83398H13.388C15.3327 7.83398 16.305 7.83398 17.0477 8.21244C17.7011 8.54532 18.2323 9.07651 18.5651 9.72985C18.9436 10.4726 18.9436 11.4449 18.9436 13.3895C18.9436 15.3342 18.9436 16.3065 18.5651 17.0493C18.2323 17.7026 17.7011 18.2338 17.0477 18.5666C16.305 18.9451 15.3327 18.9451 13.388 18.9451H10.6102C8.66562 18.9451 7.69331 18.9451 6.95056 18.5666C6.29722 18.2338 5.76603 17.7026 5.43314 17.0493C5.05469 16.3065 5.05469 15.3342 5.05469 13.3895Z" stroke="#3B82F6" stroke-width="1.25"/>
<path d="M12.0017 11.3047V15.4714M12.0017 15.4714L13.7378 13.7352M12.0017 15.4714L10.2656 13.7352" stroke="#3B82F6" stroke-width="1.25" stroke-linecap="round" stroke-linejoin="round"/>
</svg>
