<svg width="24" height="24" viewBox="0 0 24 24" fill="none" xmlns="http://www.w3.org/2000/svg">
<path d="M18.1874 10.1015C18.1874 13.523 15.4136 16.2967 11.9921 16.2967C8.57056 16.2967 5.79688 13.523 5.79688 10.1015C5.79688 6.67995 8.57056 3.90625 11.9921 3.90625C15.4136 3.90625 18.1874 6.67995 18.1874 10.1015Z" stroke="#3B82F6" stroke-linecap="round" stroke-linejoin="round"/>
<path d="M12.2482 6.7375L13.1015 8.45418C13.1206 8.4976 13.1509 8.53517 13.1892 8.56307C13.2276 8.59096 13.2727 8.60817 13.3199 8.61295L15.2152 8.90072C15.2693 8.90777 15.3204 8.93011 15.3624 8.96511C15.4043 9.00011 15.4354 9.04633 15.4521 9.09837C15.4687 9.15042 15.4702 9.20613 15.4564 9.25898C15.4426 9.31185 15.4139 9.35967 15.3739 9.39687L13.9748 10.7266C13.9539 10.7664 13.943 10.8106 13.943 10.8556C13.943 10.9005 13.9539 10.9448 13.9748 10.9846L14.2427 12.8699C14.2541 12.9244 14.2495 12.9811 14.2294 13.033C14.2093 13.0849 14.1745 13.1299 14.1293 13.1624C14.0842 13.195 14.0305 13.2138 13.9749 13.2164C13.9193 13.2191 13.8641 13.2056 13.816 13.1775L12.1291 12.2845C12.0854 12.2647 12.0381 12.2545 11.9902 12.2545C11.9423 12.2545 11.8949 12.2647 11.8512 12.2845L10.1643 13.1775C10.1162 13.2056 10.061 13.2191 10.0054 13.2164C9.94981 13.2138 9.89616 13.195 9.851 13.1624C9.80582 13.1299 9.77107 13.0849 9.75096 13.033C9.73083 12.9811 9.72621 12.9244 9.73764 12.8699L10.0552 10.9846C10.0688 10.9408 10.0714 10.8943 10.0628 10.8493C10.0541 10.8043 10.0345 10.7621 10.0056 10.7266L8.60642 9.38695C8.56931 9.34936 8.54326 9.30227 8.53112 9.25086C8.519 9.19943 8.52126 9.14567 8.53766 9.09546C8.55404 9.04525 8.58396 9.00051 8.62408 8.96616C8.66422 8.93181 8.71303 8.90917 8.76518 8.90072L10.6605 8.62287C10.7077 8.6181 10.7527 8.60088 10.7911 8.573C10.8294 8.5451 10.8597 8.50752 10.8788 8.46411L11.7322 6.74742C11.755 6.69882 11.791 6.65758 11.836 6.62837C11.8811 6.59916 11.9334 6.58312 11.9871 6.58208C12.0408 6.58106 12.0937 6.59506 12.1398 6.62253C12.1859 6.65 12.2235 6.68982 12.2482 6.7375Z" stroke="#3B82F6" stroke-linecap="round" stroke-linejoin="round"/>
<path d="M6.63003 13.1406L3.875 17.9125L6.85188 17.1148L7.64953 20.0917L10.0399 15.9515" stroke="#3B82F6" stroke-linecap="round" stroke-linejoin="round"/>
<path d="M17.3708 13.1406L20.1258 17.9125L17.149 17.1148L16.3513 20.0917L13.9609 15.9515" stroke="#3B82F6" stroke-linecap="round" stroke-linejoin="round"/>
</svg>
