<svg width="24" height="24" viewBox="0 0 24 24" fill="none" xmlns="http://www.w3.org/2000/svg">
<path d="M5.94531 16.546V7.45508" stroke="#3B82F6" stroke-width="1.25" stroke-linecap="round"/>
<path d="M18.0547 12V16.5455" stroke="#3B82F6" stroke-width="1.25" stroke-linecap="round"/>
<path d="M12.0059 10.4844C15.3531 10.4844 18.0665 9.12772 18.0665 7.45413C18.0665 5.78054 15.3531 4.42383 12.0059 4.42383C8.65874 4.42383 5.94531 5.78054 5.94531 7.45413C5.94531 9.12772 8.65874 10.4844 12.0059 10.4844Z" stroke="#3B82F6" stroke-width="1.25"/>
<path d="M18.0665 12C18.0665 13.6736 15.3531 15.0303 12.0059 15.0303C8.65874 15.0303 5.94531 13.6736 5.94531 12" stroke="#3B82F6" stroke-width="1.25" stroke-linecap="round"/>
<path d="M18.0665 16.5449C18.0665 18.2185 15.3531 19.5752 12.0059 19.5752C8.65874 19.5752 5.94531 18.2185 5.94531 16.5449" stroke="#3B82F6" stroke-width="1.25"/>
</svg>
