<svg width="24" height="24" viewBox="0 0 24 24" fill="none" xmlns="http://www.w3.org/2000/svg">
<path d="M15.3307 8.6665V6.33317C15.3307 5.39975 15.3307 4.93304 15.1491 4.57652C14.9893 4.26291 14.7343 4.00795 14.4207 3.84816C14.0642 3.6665 13.5975 3.6665 12.6641 3.6665H6.33073C5.39731 3.6665 4.9306 3.6665 4.57408 3.84816C4.26047 4.00795 4.0055 4.26291 3.84572 4.57652C3.66406 4.93304 3.66406 5.39975 3.66406 6.33317V12.6665C3.66406 13.5999 3.66406 14.0667 3.84572 14.4232C4.0055 14.7368 4.26047 14.9918 4.57408 15.1515C4.9306 15.3332 5.39731 15.3332 6.33073 15.3332H8.66406M11.9974 14.4998L13.6641 16.1665L17.4141 12.4165M11.3307 20.3332H17.6641C18.5975 20.3332 19.0642 20.3332 19.4207 20.1515C19.7343 19.9918 19.9893 19.7368 20.1491 19.4232C20.3307 19.0667 20.3307 18.5999 20.3307 17.6665V11.3332C20.3307 10.3998 20.3307 9.93304 20.1491 9.57652C19.9893 9.26291 19.7343 9.00795 19.4207 8.84816C19.0642 8.6665 18.5975 8.6665 17.6641 8.6665H11.3307C10.3973 8.6665 9.9306 8.6665 9.57408 8.84816C9.26047 9.00795 9.0055 9.26291 8.84572 9.57652C8.66406 9.93304 8.66406 10.3998 8.66406 11.3332V17.6665C8.66406 18.5999 8.66406 19.0667 8.84572 19.4232C9.0055 19.7368 9.26047 19.9918 9.57408 20.1515C9.9306 20.3332 10.3973 20.3332 11.3307 20.3332Z" stroke="#3B82F6" stroke-width="1.2" stroke-linecap="round" stroke-linejoin="round"/>
</svg>
