<svg width="24" height="24" viewBox="0 0 24 24" fill="none" xmlns="http://www.w3.org/2000/svg">
<mask id="path-2-inside-1_26620_106175" fill="white">
<path d="M17.0468 6.58798C17.2728 6.34563 17.2608 5.96397 17.0022 5.75677C15.6803 4.6976 14.0515 4.08195 12.349 4.00761C10.4459 3.92453 8.57573 4.52319 7.07471 5.69591C5.57369 6.86864 4.54036 8.53847 4.1606 10.4051C3.78084 12.2716 4.07956 14.2125 5.00304 15.8785C5.92652 17.5445 7.41414 18.8263 9.19834 19.4934C10.9825 20.1605 12.9462 20.169 14.7362 19.5175C16.5261 18.8661 18.0249 17.5973 18.9628 15.9394C19.802 14.4562 20.1431 12.7486 19.9453 11.0663C19.9067 10.7372 19.5893 10.5248 19.264 10.588V10.588C18.9388 10.6512 18.7291 10.9662 18.7634 11.2958C18.9093 12.6967 18.6169 14.114 17.9184 15.3485C17.1211 16.7577 15.8472 17.8361 14.3257 18.3899C12.8043 18.9437 11.1352 18.9364 9.61859 18.3694C8.10202 17.8023 6.83754 16.7128 6.05259 15.2967C5.26763 13.8806 5.01371 12.2309 5.33651 10.6443C5.65931 9.0577 6.53763 7.63834 7.8135 6.64153C9.08937 5.64471 10.6791 5.13585 12.2966 5.20647C13.7136 5.26834 15.0706 5.77135 16.1813 6.63746C16.4426 6.84122 16.8208 6.83033 17.0468 6.58798V6.58798Z"/>
</mask>
<path d="M17.0468 6.58798C17.2728 6.34563 17.2608 5.96397 17.0022 5.75677C15.6803 4.6976 14.0515 4.08195 12.349 4.00761C10.4459 3.92453 8.57573 4.52319 7.07471 5.69591C5.57369 6.86864 4.54036 8.53847 4.1606 10.4051C3.78084 12.2716 4.07956 14.2125 5.00304 15.8785C5.92652 17.5445 7.41414 18.8263 9.19834 19.4934C10.9825 20.1605 12.9462 20.169 14.7362 19.5175C16.5261 18.8661 18.0249 17.5973 18.9628 15.9394C19.802 14.4562 20.1431 12.7486 19.9453 11.0663C19.9067 10.7372 19.5893 10.5248 19.264 10.588V10.588C18.9388 10.6512 18.7291 10.9662 18.7634 11.2958C18.9093 12.6967 18.6169 14.114 17.9184 15.3485C17.1211 16.7577 15.8472 17.8361 14.3257 18.3899C12.8043 18.9437 11.1352 18.9364 9.61859 18.3694C8.10202 17.8023 6.83754 16.7128 6.05259 15.2967C5.26763 13.8806 5.01371 12.2309 5.33651 10.6443C5.65931 9.0577 6.53763 7.63834 7.8135 6.64153C9.08937 5.64471 10.6791 5.13585 12.2966 5.20647C13.7136 5.26834 15.0706 5.77135 16.1813 6.63746C16.4426 6.84122 16.8208 6.83033 17.0468 6.58798V6.58798Z" stroke="#3B82F6" stroke-width="2" mask="url(#path-2-inside-1_26620_106175)"/>
<circle cx="12.0026" cy="11.9977" r="2.04167" fill="#3B82F6" stroke="#3B82F6" stroke-width="1.25"/>
</svg>
