<svg width="24" height="24" viewBox="0 0 24 24" fill="none" xmlns="http://www.w3.org/2000/svg">
<path d="M12 11.9993C12 11.5391 12.3731 11.166 12.8333 11.166H17.8333C18.2936 11.166 18.6667 11.5391 18.6667 11.9993V17.8327C18.6667 18.2929 18.2936 18.666 17.8333 18.666H12.8333C12.3731 18.666 12 18.2929 12 17.8327V11.9993Z" stroke="#3B82F6" stroke-width="1.25" stroke-linecap="round"/>
<path d="M5.33594 6.16732C5.33594 5.70708 5.70904 5.33398 6.16927 5.33398H8.66927C9.1295 5.33398 9.5026 5.70708 9.5026 6.16732V17.834C9.5026 18.2942 9.1295 18.6673 8.66927 18.6673H6.16927C5.70904 18.6673 5.33594 18.2942 5.33594 17.834V6.16732Z" stroke="#3B82F6" stroke-width="1.25" stroke-linecap="round"/>
<path d="M12 6.16732C12 5.70708 12.3731 5.33398 12.8333 5.33398H17.8333C18.2936 5.33398 18.6667 5.70708 18.6667 6.16732V7.83398C18.6667 8.29422 18.2936 8.66732 17.8333 8.66732H12.8333C12.3731 8.66732 12 8.29422 12 7.83398V6.16732Z" stroke="#3B82F6" stroke-width="1.25" stroke-linecap="round"/>
</svg>
