<svg width="24" height="24" viewBox="0 0 24 24" fill="none" xmlns="http://www.w3.org/2000/svg">
<path d="M15.9983 19.9965C18.2064 19.9965 19.9965 18.2064 19.9965 15.9983C19.9965 13.7901 18.2064 12 15.9983 12C13.7901 12 12 13.7901 12 15.9983C12 18.2064 13.7901 19.9965 15.9983 19.9965Z" stroke="#3B82F6" stroke-linecap="round" stroke-linejoin="round"/>
<path d="M14.4688 16H17.5443" stroke="#3B82F6" stroke-linecap="round" stroke-linejoin="round"/>
<path d="M10.7741 9.2201C14.511 9.2201 17.5404 8.05241 17.5404 6.612C17.5404 5.1716 14.511 4.00391 10.7741 4.00391C7.03718 4.00391 4.00781 5.1716 4.00781 6.612C4.00781 8.05241 7.03718 9.2201 10.7741 9.2201Z" stroke="#3B82F6" stroke-width="1.25" stroke-linecap="round" stroke-linejoin="round"/>
<path d="M17.5391 8.92612V6.61328" stroke="#3B82F6" stroke-width="1.25" stroke-linecap="round" stroke-linejoin="round"/>
<path d="M4.00781 6.61328V14.9297C4.00781 16.0738 5.90237 17.0333 8.54738 17.3901" stroke="#3B82F6" stroke-width="1.25" stroke-linecap="round" stroke-linejoin="round"/>
<path d="M8.91645 13.23C6.08691 12.9593 4.00781 11.9998 4.00781 10.7695" stroke="#3B82F6" stroke-width="1.25" stroke-linecap="round" stroke-linejoin="round"/>
</svg>
