<svg width="24" height="26" viewBox="0 0 24 26" fill="none" xmlns="http://www.w3.org/2000/svg">
<path d="M7.38186 14.9785C7.38186 14.9785 7.07583 20.1809 10.5186 24.0062C10.5186 24.0062 6.77835 24.8958 5.3927 20.487C4.13035 16.4704 7.38186 14.9785 7.38186 14.9785Z" fill="white"/>
<path d="M11.1818 13.6387C11.1818 13.6387 10.9152 18.1707 13.9144 21.5032C13.9144 21.5032 10.656 22.2781 9.44893 18.4373C8.34924 14.9383 11.1818 13.6387 11.1818 13.6387Z" fill="white"/>
<path d="M3.74149 18.2568C3.74149 18.2568 3.53437 21.7778 5.86443 24.3668C5.86443 24.3668 3.64575 24.5036 2.69899 21.8833C1.99353 19.9308 3.74149 18.2568 3.74149 18.2568Z" fill="white"/>
<path d="M13.9263 12.9321C13.9263 12.9321 6.23744 3.29231 0.958521 7.5384C-4.3204 11.7845 13.9263 12.9321 13.9263 12.9321Z" fill="white"/>
<path d="M17.915 19.0606C19.2316 19.0606 20.2988 17.9933 20.2988 16.6768C20.2988 15.3602 19.2316 14.293 17.915 14.293C16.5985 14.293 15.5312 15.3602 15.5312 16.6768C15.5312 17.9933 16.5985 19.0606 17.915 19.0606Z" fill="white"/>
<path d="M20.5985 11.0884C20.6232 11.1869 20.6868 11.2752 20.7786 11.3386C20.8705 11.402 20.9851 11.4365 21.1032 11.4365C21.2214 11.4365 21.336 11.402 21.4278 11.3386C21.5197 11.2752 21.5833 11.1869 21.6079 11.0884C21.7675 10.4455 21.9863 10.0121 22.2891 9.70357C22.5843 9.40091 22.9971 9.17979 23.6308 9.01966C23.7374 8.99268 23.831 8.93704 23.8975 8.86105C23.9641 8.78505 24 8.69276 24 8.59794C24 8.50311 23.9641 8.41082 23.8975 8.33483C23.831 8.25883 23.7374 8.2032 23.6308 8.17622C23.0219 8.02254 22.6125 7.81432 22.3125 7.51636C22.007 7.2137 21.7744 6.77732 21.6079 6.10749C21.5833 6.00897 21.5197 5.92065 21.4278 5.85729C21.336 5.79392 21.2214 5.75935 21.1032 5.75935C20.9851 5.75935 20.8705 5.79392 20.7786 5.85729C20.6868 5.92065 20.6232 6.00897 20.5985 6.10749C20.432 6.77791 20.1995 7.2137 19.894 7.51636C19.594 7.81432 19.1853 8.02254 18.575 8.17622C18.4683 8.2032 18.3748 8.25883 18.3082 8.33483C18.2417 8.41082 18.2058 8.50311 18.2058 8.59794C18.2058 8.69277 18.2417 8.78505 18.3082 8.86105C18.3748 8.93704 18.4683 8.99268 18.575 9.01966C19.1846 9.17333 19.594 9.38155 19.894 9.67952C20.1995 9.98217 20.432 10.4186 20.5985 11.0884ZM14.8856 9.18155C14.9128 9.27747 14.9771 9.36282 15.0681 9.42386C15.1591 9.48489 15.2715 9.51808 15.3872 9.51808C15.503 9.51808 15.6154 9.48489 15.7064 9.42386C15.7974 9.36282 15.8616 9.27747 15.8888 9.18155C16.27 7.8372 16.6739 7.0266 17.2457 6.46117C17.8099 5.90279 18.5853 5.53679 19.8396 5.17548C19.9419 5.14601 20.0307 5.08996 20.0936 5.0152C20.1566 4.94045 20.1904 4.85075 20.1904 4.75874C20.1904 4.66673 20.1566 4.57704 20.0936 4.50228C20.0307 4.42753 19.9419 4.37147 19.8396 4.34201C18.5296 3.96486 17.7438 3.5666 17.1892 2.99766C16.6257 2.41933 16.2521 1.61636 15.8888 0.336527C15.8616 0.240599 15.7974 0.155255 15.7064 0.094217C15.6154 0.0331787 15.503 -7.32934e-06 15.3872 -7.31922e-06C15.2715 -7.3091e-06 15.1591 0.0331788 15.0681 0.0942171C14.9771 0.155255 14.9128 0.240599 14.8856 0.336527C14.5045 1.68029 14.0999 2.49089 13.5288 3.05631C12.9646 3.6147 12.1892 3.9807 10.9348 4.34201C10.8326 4.37147 10.7438 4.42753 10.6808 4.50228C10.6179 4.57704 10.5841 4.66673 10.5841 4.75874C10.5841 4.85075 10.6179 4.94045 10.6808 5.0152C10.7438 5.08996 10.8326 5.14601 10.9348 5.17548C12.247 5.55321 13.0313 5.94971 13.5852 6.51866C14.1481 7.09581 14.521 7.8982 14.8856 9.18155Z" fill="white"/>
</svg>
