<svg width="16" height="16" viewBox="0 0 16 16" fill="none" xmlns="http://www.w3.org/2000/svg">
<g clip-path="url(#clip0_31418_72341)">
<path d="M5.33203 7H10.6654" stroke="#374151" stroke-width="1.15" stroke-linecap="round"/>
<path d="M5.33203 9.33203H8.9987" stroke="#374151" stroke-width="1.15" stroke-linecap="round"/>
<path d="M11.332 2.22391C10.3514 1.65668 9.21296 1.33203 7.9987 1.33203C4.3168 1.33203 1.33203 4.3168 1.33203 7.9987C1.33203 9.06516 1.58244 10.0731 2.02767 10.967C2.14599 11.2046 2.18537 11.4761 2.11678 11.7324L1.7197 13.2165C1.54733 13.8607 2.1367 14.45 2.78093 14.2777L4.26496 13.8806C4.52132 13.812 4.79284 13.8514 5.03038 13.9697C5.92428 14.415 6.93223 14.6654 7.9987 14.6654C11.6806 14.6654 14.6654 11.6806 14.6654 7.9987C14.6654 6.78443 14.3407 5.64594 13.7735 4.66536" stroke="#374151" stroke-width="1.15" stroke-linecap="round"/>
</g>
<defs>
<clipPath id="clip0_31418_72341">
<rect width="16" height="16" fill="white"/>
</clipPath>
</defs>
</svg>
