<svg width="18" height="18" viewBox="0 0 18 18" fill="none" xmlns="http://www.w3.org/2000/svg">
<path d="M3.87969 1.68734C3.68404 1.69224 3.49806 1.77341 3.36144 1.91353C3.22482 2.05366 3.14838 2.24164 3.14844 2.43734V15.5998C3.14838 15.7955 3.22482 15.9835 3.36144 16.1237C3.49806 16.2638 3.68404 16.345 3.87969 16.3498H14.1172C14.3161 16.3498 14.5069 16.2708 14.6475 16.1302C14.7882 15.9895 14.8672 15.7988 14.8672 15.5998V5.43359H11.8672C11.6715 5.4287 11.4856 5.34753 11.3489 5.2074C11.2123 5.06728 11.1359 4.8793 11.1359 4.68359V1.68359L3.87969 1.68734Z" stroke="#3B82F6" stroke-width="1.25" stroke-linecap="round" stroke-linejoin="round"/>
<path d="M11.1055 1.6875L14.8517 5.43375" stroke="#3B82F6" stroke-width="1.25" stroke-linecap="round" stroke-linejoin="round"/>
<path d="M5.94141 8.61328H12.0614" stroke="#3B82F6" stroke-width="1.25" stroke-linecap="round" stroke-linejoin="round"/>
<path d="M5.94141 13.1523H12.0614" stroke="#3B82F6" stroke-width="1.25" stroke-linecap="round" stroke-linejoin="round"/>
<path d="M5.94141 10.8828H12.0614" stroke="#3B82F6" stroke-width="1.25" stroke-linecap="round" stroke-linejoin="round"/>
</svg>
