<svg width="20" height="20" viewBox="0 0 20 20" fill="none" xmlns="http://www.w3.org/2000/svg">
<path d="M0.832031 13.3346V5.83464V5.41797C0.832031 3.3469 2.51096 1.66797 4.58203 1.66797H4.9987M19.1654 13.3346V5.83464V5.41797C19.1654 3.3469 17.4864 1.66797 15.4154 1.66797H14.9987M8.33203 14.168C8.33203 14.168 8.33203 12.5013 9.9987 12.5013C11.6654 12.5013 11.6654 14.168 11.6654 14.168M4.58203 17.5013C6.6531 17.5013 8.33203 15.8224 8.33203 13.7513C8.33203 11.6802 6.6531 10.0013 4.58203 10.0013C2.51096 10.0013 0.832031 11.6802 0.832031 13.7513C0.832031 15.8224 2.51096 17.5013 4.58203 17.5013ZM15.4154 17.5013C17.4864 17.5013 19.1654 15.8224 19.1654 13.7513C19.1654 11.6802 17.4864 10.0013 15.4154 10.0013C13.3443 10.0013 11.6654 11.6802 11.6654 13.7513C11.6654 15.8224 13.3443 17.5013 15.4154 17.5013Z" stroke="#3B82F6" stroke-width="1.25"/>
</svg>
