<svg width="120" height="24" viewBox="0 0 120 24" fill="none" xmlns="http://www.w3.org/2000/svg">
<rect width="120" height="24" rx="4" fill="#E9FFF0"/>
<path d="M15.9987 18.6654C19.6806 18.6654 22.6654 15.6806 22.6654 11.9987C22.6654 8.3168 19.6806 5.33203 15.9987 5.33203C12.3168 5.33203 9.33203 8.3168 9.33203 11.9987C9.33203 15.6806 12.3168 18.6654 15.9987 18.6654Z" stroke="#16A34A" stroke-width="1.15" stroke-linecap="round" stroke-linejoin="round"/>
<path d="M16 14.6654L18.6667 11.9987L16 9.33203" stroke="#16A34A" stroke-width="1.15" stroke-linecap="round" stroke-linejoin="round"/>
<path d="M13.332 12H18.6654" stroke="#16A34A" stroke-width="1.15" stroke-linecap="round" stroke-linejoin="round"/>
<path d="M32.3379 7.46875V16H30.8672V7.46875H32.3379ZM35.8184 11.2012V12.3672H31.9629V11.2012H35.8184ZM36.3047 7.46875V8.64062H31.9629V7.46875H36.3047ZM38.8477 9.66016V16H37.4297V9.66016H38.8477ZM37.3359 7.99609C37.3359 7.78125 37.4062 7.60352 37.5469 7.46289C37.6914 7.31836 37.8906 7.24609 38.1445 7.24609C38.3945 7.24609 38.5918 7.31836 38.7363 7.46289C38.8809 7.60352 38.9531 7.78125 38.9531 7.99609C38.9531 8.20703 38.8809 8.38281 38.7363 8.52344C38.5918 8.66406 38.3945 8.73438 38.1445 8.73438C37.8906 8.73438 37.6914 8.66406 37.5469 8.52344C37.4062 8.38281 37.3359 8.20703 37.3359 7.99609ZM41.7949 11.0137V16H40.3828V9.66016H41.7129L41.7949 11.0137ZM41.543 12.5957L41.0859 12.5898C41.0898 12.1406 41.1523 11.7285 41.2734 11.3535C41.3984 10.9785 41.5703 10.6562 41.7891 10.3867C42.0117 10.1172 42.2773 9.91016 42.5859 9.76562C42.8945 9.61719 43.2383 9.54297 43.6172 9.54297C43.9219 9.54297 44.1973 9.58594 44.4434 9.67188C44.6934 9.75391 44.9062 9.88867 45.082 10.0762C45.2617 10.2637 45.3984 10.5078 45.4922 10.8086C45.5859 11.1055 45.6328 11.4707 45.6328 11.9043V16H44.2148V11.8984C44.2148 11.5938 44.1699 11.3535 44.0801 11.1777C43.9941 10.998 43.8672 10.8711 43.6992 10.7969C43.5352 10.7188 43.3301 10.6797 43.084 10.6797C42.8418 10.6797 42.625 10.7305 42.4336 10.832C42.2422 10.9336 42.0801 11.0723 41.9473 11.248C41.8184 11.4238 41.7188 11.627 41.6484 11.8574C41.5781 12.0879 41.543 12.334 41.543 12.5957ZM50.6484 14.7285V11.7051C50.6484 11.4785 50.6074 11.2832 50.5254 11.1191C50.4434 10.9551 50.3184 10.8281 50.1504 10.7383C49.9863 10.6484 49.7793 10.6035 49.5293 10.6035C49.2988 10.6035 49.0996 10.6426 48.9316 10.7207C48.7637 10.7988 48.6328 10.9043 48.5391 11.0371C48.4453 11.1699 48.3984 11.3203 48.3984 11.4883H46.9922C46.9922 11.2383 47.0527 10.9961 47.1738 10.7617C47.2949 10.5273 47.4707 10.3184 47.7012 10.1348C47.9316 9.95117 48.207 9.80664 48.5273 9.70117C48.8477 9.5957 49.207 9.54297 49.6055 9.54297C50.082 9.54297 50.5039 9.62305 50.8711 9.7832C51.2422 9.94336 51.5332 10.1855 51.7441 10.5098C51.959 10.8301 52.0664 11.2324 52.0664 11.7168V14.5352C52.0664 14.8242 52.0859 15.084 52.125 15.3145C52.168 15.541 52.2285 15.7383 52.3066 15.9062V16H50.8594C50.793 15.8477 50.7402 15.6543 50.7012 15.4199C50.666 15.1816 50.6484 14.9512 50.6484 14.7285ZM50.8535 12.1445L50.8652 13.0176H49.8516C49.5898 13.0176 49.3594 13.043 49.1602 13.0938C48.9609 13.1406 48.7949 13.2109 48.6621 13.3047C48.5293 13.3984 48.4297 13.5117 48.3633 13.6445C48.2969 13.7773 48.2637 13.9277 48.2637 14.0957C48.2637 14.2637 48.3027 14.418 48.3809 14.5586C48.459 14.6953 48.5723 14.8027 48.7207 14.8809C48.873 14.959 49.0566 14.998 49.2715 14.998C49.5605 14.998 49.8125 14.9395 50.0273 14.8223C50.2461 14.7012 50.418 14.5547 50.543 14.3828C50.668 14.207 50.7344 14.041 50.7422 13.8848L51.1992 14.5117C51.1523 14.6719 51.0723 14.8438 50.959 15.0273C50.8457 15.2109 50.6973 15.3867 50.5137 15.5547C50.334 15.7188 50.1172 15.8535 49.8633 15.959C49.6133 16.0645 49.3242 16.1172 48.9961 16.1172C48.582 16.1172 48.2129 16.0352 47.8887 15.8711C47.5645 15.7031 47.3105 15.4785 47.127 15.1973C46.9434 14.9121 46.8516 14.5898 46.8516 14.2305C46.8516 13.8945 46.9141 13.5977 47.0391 13.3398C47.168 13.0781 47.3555 12.8594 47.6016 12.6836C47.8516 12.5078 48.1562 12.375 48.5156 12.2852C48.875 12.1914 49.2852 12.1445 49.7461 12.1445H50.8535ZM55.0547 7V16H53.6367V7H55.0547ZM59.7305 7.46875H62.748C63.3965 7.46875 63.9492 7.56641 64.4062 7.76172C64.8633 7.95703 65.2129 8.24609 65.4551 8.62891C65.7012 9.00781 65.8242 9.47656 65.8242 10.0352C65.8242 10.4609 65.7461 10.8359 65.5898 11.1602C65.4336 11.4844 65.2129 11.7578 64.9277 11.9805C64.6426 12.1992 64.3027 12.3691 63.9082 12.4902L63.4629 12.707H60.75L60.7383 11.541H62.7715C63.123 11.541 63.416 11.4785 63.6504 11.3535C63.8848 11.2285 64.0605 11.0586 64.1777 10.8438C64.2988 10.625 64.3594 10.3789 64.3594 10.1055C64.3594 9.80859 64.3008 9.55078 64.1836 9.33203C64.0703 9.10938 63.8945 8.93945 63.6562 8.82227C63.418 8.70117 63.1152 8.64062 62.748 8.64062H61.2012V16H59.7305V7.46875ZM64.5996 16L62.5957 12.168L64.1367 12.1621L66.1699 15.9238V16H64.5996ZM69.9434 16.1172C69.4746 16.1172 69.0508 16.041 68.6719 15.8887C68.2969 15.7324 67.9766 15.5156 67.7109 15.2383C67.4492 14.9609 67.248 14.6348 67.1074 14.2598C66.9668 13.8848 66.8965 13.4805 66.8965 13.0469V12.8125C66.8965 12.3164 66.9688 11.8672 67.1133 11.4648C67.2578 11.0625 67.459 10.7188 67.7168 10.4336C67.9746 10.1445 68.2793 9.92383 68.6309 9.77148C68.9824 9.61914 69.3633 9.54297 69.7734 9.54297C70.2266 9.54297 70.623 9.61914 70.9629 9.77148C71.3027 9.92383 71.584 10.1387 71.8066 10.416C72.0332 10.6895 72.2012 11.0156 72.3105 11.3945C72.4238 11.7734 72.4805 12.1914 72.4805 12.6484V13.252H67.582V12.2383H71.0859V12.127C71.0781 11.873 71.0273 11.6348 70.9336 11.4121C70.8438 11.1895 70.7051 11.0098 70.5176 10.873C70.3301 10.7363 70.0801 10.668 69.7676 10.668C69.5332 10.668 69.3242 10.7188 69.1406 10.8203C68.9609 10.918 68.8105 11.0605 68.6895 11.248C68.5684 11.4355 68.4746 11.6621 68.4082 11.9277C68.3457 12.1895 68.3145 12.4844 68.3145 12.8125V13.0469C68.3145 13.3242 68.3516 13.582 68.4258 13.8203C68.5039 14.0547 68.6172 14.2598 68.7656 14.4355C68.9141 14.6113 69.0938 14.75 69.3047 14.8516C69.5156 14.9492 69.7559 14.998 70.0254 14.998C70.3652 14.998 70.668 14.9297 70.9336 14.793C71.1992 14.6562 71.4297 14.4629 71.625 14.2129L72.3691 14.9336C72.2324 15.1328 72.0547 15.3242 71.8359 15.5078C71.6172 15.6875 71.3496 15.834 71.0332 15.9473C70.7207 16.0605 70.3574 16.1172 69.9434 16.1172ZM77.1387 14.2832C77.1387 14.1426 77.1035 14.0156 77.0332 13.9023C76.9629 13.7852 76.8281 13.6797 76.6289 13.5859C76.4336 13.4922 76.1445 13.4062 75.7617 13.3281C75.4258 13.2539 75.1172 13.166 74.8359 13.0645C74.5586 12.959 74.3203 12.832 74.1211 12.6836C73.9219 12.5352 73.7676 12.3594 73.6582 12.1562C73.5488 11.9531 73.4941 11.7188 73.4941 11.4531C73.4941 11.1953 73.5508 10.9512 73.6641 10.7207C73.7773 10.4902 73.9395 10.2871 74.1504 10.1113C74.3613 9.93555 74.6172 9.79688 74.918 9.69531C75.2227 9.59375 75.5625 9.54297 75.9375 9.54297C76.4688 9.54297 76.9238 9.63281 77.3027 9.8125C77.6855 9.98828 77.9785 10.2285 78.1816 10.5332C78.3848 10.834 78.4863 11.1738 78.4863 11.5527H77.0742C77.0742 11.3848 77.0312 11.2285 76.9453 11.084C76.8633 10.9355 76.7383 10.8164 76.5703 10.7266C76.4023 10.6328 76.1914 10.5859 75.9375 10.5859C75.6953 10.5859 75.4941 10.625 75.334 10.7031C75.1777 10.7773 75.0605 10.875 74.9824 10.9961C74.9082 11.1172 74.8711 11.25 74.8711 11.3945C74.8711 11.5 74.8906 11.5957 74.9297 11.6816C74.9727 11.7637 75.043 11.8398 75.1406 11.9102C75.2383 11.9766 75.3711 12.0391 75.5391 12.0977C75.7109 12.1562 75.9258 12.2129 76.1836 12.2676C76.668 12.3691 77.084 12.5 77.4316 12.6602C77.7832 12.8164 78.0527 13.0195 78.2402 13.2695C78.4277 13.5156 78.5215 13.8281 78.5215 14.207C78.5215 14.4883 78.4609 14.7461 78.3398 14.9805C78.2227 15.2109 78.0508 15.4121 77.8242 15.584C77.5977 15.752 77.3262 15.8828 77.0098 15.9766C76.6973 16.0703 76.3457 16.1172 75.9551 16.1172C75.3809 16.1172 74.8945 16.0156 74.4961 15.8125C74.0977 15.6055 73.7949 15.3418 73.5879 15.0215C73.3848 14.6973 73.2832 14.3613 73.2832 14.0137H74.6484C74.6641 14.2754 74.7363 14.4844 74.8652 14.6406C74.998 14.793 75.1621 14.9043 75.3574 14.9746C75.5566 15.041 75.7617 15.0742 75.9727 15.0742C76.2266 15.0742 76.4395 15.041 76.6113 14.9746C76.7832 14.9043 76.9141 14.8105 77.0039 14.6934C77.0938 14.5723 77.1387 14.4355 77.1387 14.2832ZM81.1758 10.8789V18.4375H79.7637V9.66016H81.0645L81.1758 10.8789ZM85.3066 12.7715V12.8945C85.3066 13.3555 85.252 13.7832 85.1426 14.1777C85.0371 14.5684 84.8789 14.9102 84.668 15.2031C84.4609 15.4922 84.2051 15.7168 83.9004 15.877C83.5957 16.0371 83.2441 16.1172 82.8457 16.1172C82.4512 16.1172 82.1055 16.0449 81.8086 15.9004C81.5156 15.752 81.2676 15.543 81.0645 15.2734C80.8613 15.0039 80.6973 14.6875 80.5723 14.3242C80.4512 13.957 80.3652 13.5547 80.3145 13.1172V12.6426C80.3652 12.1777 80.4512 11.7559 80.5723 11.377C80.6973 10.998 80.8613 10.6719 81.0645 10.3984C81.2676 10.125 81.5156 9.91406 81.8086 9.76562C82.1016 9.61719 82.4434 9.54297 82.834 9.54297C83.2324 9.54297 83.5859 9.62109 83.8945 9.77734C84.2031 9.92969 84.4629 10.1484 84.6738 10.4336C84.8848 10.7148 85.043 11.0547 85.1484 11.4531C85.2539 11.8477 85.3066 12.2871 85.3066 12.7715ZM83.8945 12.8945V12.7715C83.8945 12.4785 83.8672 12.207 83.8125 11.957C83.7578 11.7031 83.6719 11.4805 83.5547 11.2891C83.4375 11.0977 83.2871 10.9492 83.1035 10.8438C82.9238 10.7344 82.707 10.6797 82.4531 10.6797C82.2031 10.6797 81.9883 10.7227 81.8086 10.8086C81.6289 10.8906 81.4785 11.0059 81.3574 11.1543C81.2363 11.3027 81.1426 11.4766 81.0762 11.6758C81.0098 11.8711 80.9629 12.084 80.9355 12.3145V13.4512C80.9824 13.7324 81.0625 13.9902 81.1758 14.2246C81.2891 14.459 81.4492 14.6465 81.6562 14.7871C81.8672 14.9238 82.1367 14.9922 82.4648 14.9922C82.7188 14.9922 82.9355 14.9375 83.1152 14.8281C83.2949 14.7188 83.4414 14.5684 83.5547 14.377C83.6719 14.1816 83.7578 13.957 83.8125 13.7031C83.8672 13.4492 83.8945 13.1797 83.8945 12.8945ZM86.2383 12.9004V12.7656C86.2383 12.3086 86.3047 11.8848 86.4375 11.4941C86.5703 11.0996 86.7617 10.7578 87.0117 10.4688C87.2656 10.1758 87.5742 9.94922 87.9375 9.78906C88.3047 9.625 88.7188 9.54297 89.1797 9.54297C89.6445 9.54297 90.0586 9.625 90.4219 9.78906C90.7891 9.94922 91.0996 10.1758 91.3535 10.4688C91.6074 10.7578 91.8008 11.0996 91.9336 11.4941C92.0664 11.8848 92.1328 12.3086 92.1328 12.7656V12.9004C92.1328 13.3574 92.0664 13.7812 91.9336 14.1719C91.8008 14.5625 91.6074 14.9043 91.3535 15.1973C91.0996 15.4863 90.791 15.7129 90.4277 15.877C90.0645 16.0371 89.6523 16.1172 89.1914 16.1172C88.7266 16.1172 88.3105 16.0371 87.9434 15.877C87.5801 15.7129 87.2715 15.4863 87.0176 15.1973C86.7637 14.9043 86.5703 14.5625 86.4375 14.1719C86.3047 13.7812 86.2383 13.3574 86.2383 12.9004ZM87.6504 12.7656V12.9004C87.6504 13.1855 87.6797 13.4551 87.7383 13.709C87.7969 13.9629 87.8887 14.1855 88.0137 14.377C88.1387 14.5684 88.2988 14.7188 88.4941 14.8281C88.6895 14.9375 88.9219 14.9922 89.1914 14.9922C89.4531 14.9922 89.6797 14.9375 89.8711 14.8281C90.0664 14.7188 90.2266 14.5684 90.3516 14.377C90.4766 14.1855 90.5684 13.9629 90.627 13.709C90.6895 13.4551 90.7207 13.1855 90.7207 12.9004V12.7656C90.7207 12.4844 90.6895 12.2188 90.627 11.9688C90.5684 11.7148 90.4746 11.4902 90.3457 11.2949C90.2207 11.0996 90.0605 10.9473 89.8652 10.8379C89.6738 10.7246 89.4453 10.668 89.1797 10.668C88.9141 10.668 88.6836 10.7246 88.4883 10.8379C88.2969 10.9473 88.1387 11.0996 88.0137 11.2949C87.8887 11.4902 87.7969 11.7148 87.7383 11.9688C87.6797 12.2188 87.6504 12.4844 87.6504 12.7656ZM94.7168 11.0137V16H93.3047V9.66016H94.6348L94.7168 11.0137ZM94.4648 12.5957L94.0078 12.5898C94.0117 12.1406 94.0742 11.7285 94.1953 11.3535C94.3203 10.9785 94.4922 10.6562 94.7109 10.3867C94.9336 10.1172 95.1992 9.91016 95.5078 9.76562C95.8164 9.61719 96.1602 9.54297 96.5391 9.54297C96.8438 9.54297 97.1191 9.58594 97.3652 9.67188C97.6152 9.75391 97.8281 9.88867 98.0039 10.0762C98.1836 10.2637 98.3203 10.5078 98.4141 10.8086C98.5078 11.1055 98.5547 11.4707 98.5547 11.9043V16H97.1367V11.8984C97.1367 11.5938 97.0918 11.3535 97.002 11.1777C96.916 10.998 96.7891 10.8711 96.6211 10.7969C96.457 10.7188 96.252 10.6797 96.0059 10.6797C95.7637 10.6797 95.5469 10.7305 95.3555 10.832C95.1641 10.9336 95.002 11.0723 94.8691 11.248C94.7402 11.4238 94.6406 11.627 94.5703 11.8574C94.5 12.0879 94.4648 12.334 94.4648 12.5957ZM103.553 14.2832C103.553 14.1426 103.518 14.0156 103.447 13.9023C103.377 13.7852 103.242 13.6797 103.043 13.5859C102.848 13.4922 102.559 13.4062 102.176 13.3281C101.84 13.2539 101.531 13.166 101.25 13.0645C100.973 12.959 100.734 12.832 100.535 12.6836C100.336 12.5352 100.182 12.3594 100.072 12.1562C99.9629 11.9531 99.9082 11.7188 99.9082 11.4531C99.9082 11.1953 99.9648 10.9512 100.078 10.7207C100.191 10.4902 100.354 10.2871 100.564 10.1113C100.775 9.93555 101.031 9.79688 101.332 9.69531C101.637 9.59375 101.977 9.54297 102.352 9.54297C102.883 9.54297 103.338 9.63281 103.717 9.8125C104.1 9.98828 104.393 10.2285 104.596 10.5332C104.799 10.834 104.9 11.1738 104.9 11.5527H103.488C103.488 11.3848 103.445 11.2285 103.359 11.084C103.277 10.9355 103.152 10.8164 102.984 10.7266C102.816 10.6328 102.605 10.5859 102.352 10.5859C102.109 10.5859 101.908 10.625 101.748 10.7031C101.592 10.7773 101.475 10.875 101.396 10.9961C101.322 11.1172 101.285 11.25 101.285 11.3945C101.285 11.5 101.305 11.5957 101.344 11.6816C101.387 11.7637 101.457 11.8398 101.555 11.9102C101.652 11.9766 101.785 12.0391 101.953 12.0977C102.125 12.1562 102.34 12.2129 102.598 12.2676C103.082 12.3691 103.498 12.5 103.846 12.6602C104.197 12.8164 104.467 13.0195 104.654 13.2695C104.842 13.5156 104.936 13.8281 104.936 14.207C104.936 14.4883 104.875 14.7461 104.754 14.9805C104.637 15.2109 104.465 15.4121 104.238 15.584C104.012 15.752 103.74 15.8828 103.424 15.9766C103.111 16.0703 102.76 16.1172 102.369 16.1172C101.795 16.1172 101.309 16.0156 100.91 15.8125C100.512 15.6055 100.209 15.3418 100.002 15.0215C99.7988 14.6973 99.6973 14.3613 99.6973 14.0137H101.062C101.078 14.2754 101.15 14.4844 101.279 14.6406C101.412 14.793 101.576 14.9043 101.771 14.9746C101.971 15.041 102.176 15.0742 102.387 15.0742C102.641 15.0742 102.854 15.041 103.025 14.9746C103.197 14.9043 103.328 14.8105 103.418 14.6934C103.508 14.5723 103.553 14.4355 103.553 14.2832ZM108.967 16.1172C108.498 16.1172 108.074 16.041 107.695 15.8887C107.32 15.7324 107 15.5156 106.734 15.2383C106.473 14.9609 106.271 14.6348 106.131 14.2598C105.99 13.8848 105.92 13.4805 105.92 13.0469V12.8125C105.92 12.3164 105.992 11.8672 106.137 11.4648C106.281 11.0625 106.482 10.7188 106.74 10.4336C106.998 10.1445 107.303 9.92383 107.654 9.77148C108.006 9.61914 108.387 9.54297 108.797 9.54297C109.25 9.54297 109.646 9.61914 109.986 9.77148C110.326 9.92383 110.607 10.1387 110.83 10.416C111.057 10.6895 111.225 11.0156 111.334 11.3945C111.447 11.7734 111.504 12.1914 111.504 12.6484V13.252H106.605V12.2383H110.109V12.127C110.102 11.873 110.051 11.6348 109.957 11.4121C109.867 11.1895 109.729 11.0098 109.541 10.873C109.354 10.7363 109.104 10.668 108.791 10.668C108.557 10.668 108.348 10.7188 108.164 10.8203C107.984 10.918 107.834 11.0605 107.713 11.248C107.592 11.4355 107.498 11.6621 107.432 11.9277C107.369 12.1895 107.338 12.4844 107.338 12.8125V13.0469C107.338 13.3242 107.375 13.582 107.449 13.8203C107.527 14.0547 107.641 14.2598 107.789 14.4355C107.938 14.6113 108.117 14.75 108.328 14.8516C108.539 14.9492 108.779 14.998 109.049 14.998C109.389 14.998 109.691 14.9297 109.957 14.793C110.223 14.6562 110.453 14.4629 110.648 14.2129L111.393 14.9336C111.256 15.1328 111.078 15.3242 110.859 15.5078C110.641 15.6875 110.373 15.834 110.057 15.9473C109.744 16.0605 109.381 16.1172 108.967 16.1172Z" fill="#16A34A"/>
</svg>
