<svg width="20" height="20" viewBox="0 0 20 20" fill="none" xmlns="http://www.w3.org/2000/svg">
<path d="M1.66797 10.0013C1.66797 6.07293 1.66797 4.10874 2.88836 2.88836C4.10874 1.66797 6.07293 1.66797 10.0013 1.66797C13.9296 1.66797 15.8939 1.66797 17.1142 2.88836C18.3346 4.10874 18.3346 6.07293 18.3346 10.0013C18.3346 13.9296 18.3346 15.8939 17.1142 17.1142C15.8939 18.3346 13.9296 18.3346 10.0013 18.3346C6.07293 18.3346 4.10874 18.3346 2.88836 17.1142C1.66797 15.8939 1.66797 13.9296 1.66797 10.0013Z" stroke="#3B82F6" stroke-width="1.25"/>
<path d="M8 6.875C8 5.83947 8.89547 5 10 5C11.1045 5 12 5.83947 12 6.875C12 7.56245 11.6053 8.1635 11.017 8.4899C10.5099 8.7711 10 9.1977 10 9.75V11" stroke="#3B82F6" stroke-width="1.25" stroke-linecap="round"/>
<path d="M10 15C10.5523 15 11 14.5523 11 14C11 13.4477 10.5523 13 10 13C9.44772 13 9 13.4477 9 14C9 14.5523 9.44772 15 10 15Z" fill="#3B82F6"/>
</svg>
