<svg width="18" height="18" viewBox="0 0 18 18" fill="none" xmlns="http://www.w3.org/2000/svg">
<path fill-rule="evenodd" clip-rule="evenodd" d="M13.3524 3.89751L13.3501 3.89414C12.5026 3.15527 11.4823 2.64238 10.3837 2.40303C9.28512 2.16369 8.14389 2.20565 7.06586 2.52501C5.9905 2.84989 5.0154 3.44282 4.23216 4.2481C3.44892 5.05338 2.88327 6.04456 2.58836 7.12851C1.97735 7.55444 1.47552 8.11859 1.12369 8.77506C0.771861 9.43154 0.579974 10.1618 0.563638 10.9064C0.547303 11.6511 0.706981 12.389 1.02968 13.0603C1.35238 13.7316 1.82899 14.3172 2.42073 14.7695C3.24817 15.3997 4.25837 15.7433 5.29848 15.7483H12.6335C13.6542 15.7579 14.651 15.4393 15.4769 14.8396C16.3029 14.2399 16.9144 13.3907 17.2212 12.4171C17.5241 11.4446 17.5046 10.4003 17.1657 9.43972C16.8267 8.47919 16.1864 7.6539 15.3402 7.08689C15.0026 5.85275 14.3116 4.74418 13.3524 3.89751ZM4.54586 12.65C4.7821 12.7569 5.03861 12.83 5.29961 12.83L12.6324 12.8323C13.6449 12.8323 14.4661 12.0166 14.4661 11.0109C14.4661 10.0051 13.6449 9.18951 12.6324 9.18951V8.82614C12.6425 8.27628 12.5276 7.73131 12.2963 7.23239C12.0649 6.73346 11.7232 6.29364 11.297 5.94614H11.2947C9.78836 4.73339 7.57661 4.92014 6.27161 6.34439L6.25586 6.36126C7.37636 6.58626 8.38998 7.20614 9.09648 8.12526L6.97136 10.238C6.80749 9.87728 6.53119 9.57932 6.18383 9.38875C5.83646 9.19817 5.43672 9.12523 5.04444 9.18084C4.65215 9.23644 4.28843 9.41761 4.00771 9.69721C3.727 9.97682 3.54439 10.3398 3.48723 10.7319C3.43166 11.1232 3.50503 11.5219 3.69624 11.8678C3.88744 12.2136 4.18608 12.4878 4.54698 12.6489L4.54586 12.65Z" fill="#3B82F6"/>
</svg>
