<svg width="20" height="20" viewBox="0 0 20 20" fill="none" xmlns="http://www.w3.org/2000/svg">
<path d="M8.33203 9.16536C8.33203 8.70511 8.70511 8.33203 9.16536 8.33203H10.832C11.2923 8.33203 11.6654 8.70511 11.6654 9.16536C11.6654 9.62561 11.2923 9.9987 10.832 9.9987H9.16536C8.70511 9.9987 8.33203 9.62561 8.33203 9.16536Z" fill="#3B82F6"/>
<path d="M9.16536 11.668C8.70511 11.668 8.33203 12.0411 8.33203 12.5013C8.33203 12.9616 8.70511 13.3346 9.16536 13.3346H10.832C11.2923 13.3346 11.6654 12.9616 11.6654 12.5013C11.6654 12.0411 11.2923 11.668 10.832 11.668H9.16536Z" fill="#3B82F6"/>
<path fill-rule="evenodd" clip-rule="evenodd" d="M7.57742 3.95895C7.01208 3.36166 6.66536 2.5553 6.66536 1.66797H8.33203C8.33203 2.58844 9.0782 3.33464 9.9987 3.33464C10.9192 3.33464 11.6654 2.58844 11.6654 1.66797H13.332C13.332 2.5553 12.9853 3.36166 12.4199 3.95895C13.4805 4.54706 14.3048 5.50955 14.7142 6.66797H15.832C16.2923 6.66797 16.6654 7.04107 16.6654 7.5013C16.6654 7.96154 16.2923 8.33464 15.832 8.33464H14.9987V10.0013H15.832C16.2923 10.0013 16.6654 10.3744 16.6654 10.8346C16.6654 11.2949 16.2923 11.668 15.832 11.668H14.9987V13.3346H15.832C16.2923 13.3346 16.6654 13.7077 16.6654 14.168C16.6654 14.6282 16.2923 15.0013 15.832 15.0013H14.7142C14.0278 16.9433 12.1757 18.3346 9.9987 18.3346C7.82166 18.3346 5.9696 16.9433 5.28321 15.0013H4.16536C3.70513 15.0013 3.33203 14.6282 3.33203 14.168C3.33203 13.7077 3.70513 13.3346 4.16536 13.3346H4.9987V11.668H4.16536C3.70513 11.668 3.33203 11.2949 3.33203 10.8346C3.33203 10.3744 3.70513 10.0013 4.16536 10.0013H4.9987V8.33464H4.16536C3.70513 8.33464 3.33203 7.96154 3.33203 7.5013C3.33203 7.04107 3.70513 6.66797 4.16536 6.66797H5.28321C5.69265 5.50955 6.51687 4.54706 7.57742 3.95895ZM6.66536 13.3346V8.33464C6.66536 6.49369 8.15775 5.0013 9.9987 5.0013C11.8396 5.0013 13.332 6.49369 13.332 8.33464V13.3346C13.332 15.1756 11.8396 16.668 9.9987 16.668C8.15775 16.668 6.66536 15.1756 6.66536 13.3346Z" fill="#3B82F6"/>
</svg>
