<svg width="20" height="20" viewBox="0 0 20 20" fill="none" xmlns="http://www.w3.org/2000/svg">
<path d="M6.6425 1.56957C6.80619 1.75658 6.88893 2.00094 6.87252 2.24893C6.85611 2.49692 6.74191 2.72825 6.555 2.89207L4.86125 4.37457L6.555 5.85707C6.65121 5.93708 6.73043 6.03555 6.78798 6.14666C6.84554 6.25777 6.88027 6.37927 6.89012 6.50402C6.89998 6.62876 6.88477 6.75422 6.84538 6.87299C6.80599 6.99176 6.74322 7.10144 6.66077 7.19557C6.57832 7.2897 6.47786 7.36637 6.36532 7.42107C6.25277 7.47576 6.13042 7.50737 6.00546 7.51404C5.88051 7.5207 5.75548 7.50228 5.63776 7.45987C5.52003 7.41745 5.41199 7.3519 5.32 7.26707L2.82 5.07957C2.71962 4.99158 2.63918 4.88317 2.58408 4.76159C2.52897 4.64 2.50047 4.50806 2.50047 4.37457C2.50047 4.24108 2.52897 4.10913 2.58408 3.98755C2.63918 3.86597 2.71962 3.75756 2.82 3.66957L5.32 1.48207C5.50701 1.31838 5.75137 1.23564 5.99936 1.25205C6.24736 1.26845 6.47868 1.38266 6.6425 1.56957ZM8.9825 1.56957C8.81881 1.75658 8.73607 2.00094 8.75248 2.24893C8.76889 2.49692 8.88309 2.72825 9.07 2.89207L10.7638 4.37457L9.07 5.85707C8.97379 5.93708 8.89457 6.03555 8.83702 6.14666C8.77946 6.25777 8.74473 6.37927 8.73488 6.50402C8.72502 6.62876 8.74023 6.75422 8.77962 6.87299C8.81901 6.99176 8.88178 7.10144 8.96423 7.19557C9.04668 7.2897 9.14714 7.36637 9.25968 7.42107C9.37223 7.47576 9.49458 7.50737 9.61954 7.51404C9.74449 7.5207 9.86952 7.50228 9.98724 7.45987C10.105 7.41745 10.213 7.3519 10.305 7.26707L12.805 5.07957C12.9054 4.99158 12.9858 4.88317 13.0409 4.76159C13.096 4.64 13.1245 4.50806 13.1245 4.37457C13.1245 4.24108 13.096 4.10913 13.0409 3.98755C12.9858 3.86597 12.9054 3.75756 12.805 3.66957L10.305 1.48207C10.118 1.31838 9.87363 1.23564 9.62564 1.25205C9.37764 1.26845 9.14632 1.38266 8.9825 1.56957ZM3.4375 9.37457C3.18886 9.37457 2.9504 9.47334 2.77459 9.64916C2.59877 9.82497 2.5 10.0634 2.5 10.3121C2.5 10.5607 2.59877 10.7992 2.77459 10.975C2.9504 11.1508 3.18886 11.2496 3.4375 11.2496H16.5625C16.8111 11.2496 17.0496 11.1508 17.2254 10.975C17.4012 10.7992 17.5 10.5607 17.5 10.3121C17.5 10.0634 17.4012 9.82497 17.2254 9.64916C17.0496 9.47334 16.8111 9.37457 16.5625 9.37457H3.4375ZM2.5 14.0621C2.5 13.8134 2.59877 13.575 2.77459 13.3992C2.9504 13.2233 3.18886 13.1246 3.4375 13.1246H16.5625C16.8111 13.1246 17.0496 13.2233 17.2254 13.3992C17.4012 13.575 17.5 13.8134 17.5 14.0621C17.5 14.3107 17.4012 14.5492 17.2254 14.725C17.0496 14.9008 16.8111 14.9996 16.5625 14.9996H3.4375C3.18886 14.9996 2.9504 14.9008 2.77459 14.725C2.59877 14.5492 2.5 14.3107 2.5 14.0621ZM3.4375 16.8746C3.18886 16.8746 2.9504 16.9733 2.77459 17.1492C2.59877 17.325 2.5 17.5634 2.5 17.8121C2.5 18.0607 2.59877 18.2992 2.77459 18.475C2.9504 18.6508 3.18886 18.7496 3.4375 18.7496H11.5625C11.8111 18.7496 12.0496 18.6508 12.2254 18.475C12.4012 18.2992 12.5 18.0607 12.5 17.8121C12.5 17.5634 12.4012 17.325 12.2254 17.1492C12.0496 16.9733 11.8111 16.8746 11.5625 16.8746H3.4375Z" fill="#3B82F6"/>
</svg>
