<svg width="340" height="340" viewBox="0 0 340 340" fill="none" xmlns="http://www.w3.org/2000/svg">
<path d="M307.869 129.709V200.352C307.869 200.352 339.04 201.198 339.04 163.696C339.04 126.194 307.869 129.709 307.869 129.709Z" fill="white"/>
<path d="M32.1309 129.709V200.352C32.1309 200.352 0.960407 201.198 0.960407 163.696C0.960407 126.194 32.1309 129.709 32.1309 129.709Z" fill="white"/>
<path d="M313.864 172.781C313.864 276.839 249.454 304.656 170 304.656C90.5467 304.656 26.1367 276.839 26.1367 172.781C26.1367 76.9658 90.5467 40.9062 170 40.9062C249.454 40.9062 313.864 76.9658 313.864 172.781Z" fill="#FACF39"/>
<path d="M283.893 172.782C283.893 255.082 232.902 277.083 170.001 277.083C107.101 277.083 56.1094 255.082 56.1094 172.782C56.1094 97.0003 107.101 68.4805 170.001 68.4805C232.902 68.4805 283.893 97.0003 283.893 172.782Z" fill="white"/>
<path opacity="0.1" d="M313.864 173.151C313.864 277.257 249.454 305.087 170 305.087C90.5467 305.087 26.1367 277.257 26.1367 173.151C26.1367 129.032 36.442 248.426 170 248.426C303.559 248.426 313.864 129.032 313.864 173.151Z" fill="black"/>
<path d="M75.291 152.633C75.291 133.303 90.961 117.633 110.291 117.633H229.711C249.041 117.633 264.711 133.303 264.711 152.633V169.565C264.711 180.61 255.757 189.565 244.711 189.565H95.291C84.2453 189.565 75.291 180.61 75.291 169.565V152.633Z" fill="#1B2D4A"/>
<path d="M86.0801 151.746C86.0801 139.527 95.9855 129.621 108.205 129.621H231.796C244.016 129.621 253.921 139.527 253.921 151.746V151.746C253.921 158.728 248.261 164.388 241.278 164.388H98.7226C91.7404 164.388 86.0801 158.728 86.0801 151.746V151.746Z" fill="#233654"/>
<circle cx="217.956" cy="157.194" r="15.483" stroke="white" stroke-width="5"/>
<circle cx="122.045" cy="157.194" r="15.483" stroke="white" stroke-width="5"/>
<path d="M315.064 132.017V44.5" stroke="white" stroke-width="4" stroke-linecap="round"/>
<circle cx="315.064" cy="44.5011" r="9.59091" fill="white"/>
<path d="M26.1387 132.017V44.5" stroke="white" stroke-width="4" stroke-linecap="round"/>
<circle cx="26.1378" cy="44.5011" r="9.59091" fill="white"/>
</svg>
