<svg width="323" height="166" viewBox="0 0 323 166" fill="none" xmlns="http://www.w3.org/2000/svg">
<path d="M200.5 8.50125C200.497 5.16646 205.5 2.66452 208.833 4.33085" stroke="#646464" stroke-width="0.5" stroke-linecap="round"/>
<path d="M198 7.66669C197.996 2.93695 205 -0.611559 209.667 1.7518" stroke="#646464" stroke-width="0.5" stroke-linecap="round"/>
<path d="M224.59 65C220.602 47.5 218.012 31.5 211.001 15.5" stroke="#646464" stroke-width="1.5"/>
<circle cx="5" cy="5" r="4.5" transform="matrix(-1 0 0 1 214 7)" fill="#646464" stroke="#646464"/>
<path d="M233 8.50125C233.003 5.16646 228 2.66452 224.667 4.33085" stroke="#646464" stroke-width="0.5" stroke-linecap="round"/>
<path d="M235.5 7.66669C235.504 2.93695 228.5 -0.611559 223.833 1.7518" stroke="#646464" stroke-width="0.5" stroke-linecap="round"/>
<path d="M210.484 61C214.473 43.5 215.99 31.5 223.001 15.5" stroke="#646464" stroke-width="1.5"/>
<circle cx="225" cy="12" r="4.5" fill="#646464" stroke="#646464"/>
<path d="M22.4707 165.316C19.8387 165.316 17.7707 164.564 16.2667 163.06C14.7627 161.556 14.0107 159.363 14.0107 156.48V79.776C14.0107 76.8933 14.7627 74.7627 16.2667 73.384C17.7707 71.88 19.8387 71.128 22.4707 71.128C25.1027 71.128 27.108 71.88 28.4867 73.384C29.9907 74.7627 30.7427 76.8933 30.7427 79.776V95.192L28.6747 92.372C31.3067 85.228 35.568 79.8387 41.4587 76.204C47.4747 72.5693 54.3054 70.752 61.9507 70.752C69.3454 70.752 75.424 72.068 80.1867 74.7C84.9494 77.332 88.5214 81.3427 90.9027 86.732C93.2841 92.1213 94.4747 98.952 94.4747 107.224V156.48C94.4747 159.363 93.7227 161.556 92.2187 163.06C90.84 164.564 88.772 165.316 86.0147 165.316C83.2574 165.316 81.1267 164.564 79.6227 163.06C78.1187 161.556 77.3667 159.363 77.3667 156.48V108.164C77.3667 100.017 75.8001 94.064 72.6667 90.304C69.5334 86.544 64.52 84.664 57.6267 84.664C49.6054 84.664 43.1507 87.1707 38.2627 92.184C33.5 97.072 31.1187 103.715 31.1187 112.112V156.48C31.1187 162.371 28.236 165.316 22.4707 165.316ZM144.909 165.692C137.514 165.692 131.31 164.313 126.297 161.556C121.409 158.799 117.774 154.725 115.393 149.336C113.011 143.947 111.821 137.179 111.821 129.032V79.776C111.821 76.8933 112.51 74.7627 113.889 73.384C115.393 71.88 117.523 71.128 120.281 71.128C123.038 71.128 125.169 71.88 126.673 73.384C128.177 74.7627 128.929 76.8933 128.929 79.776V129.032C128.929 136.803 130.495 142.568 133.629 146.328C136.762 149.963 141.713 151.78 148.481 151.78C156.001 151.78 162.079 149.273 166.717 144.26C171.479 139.247 173.861 132.604 173.861 124.332V79.776C173.861 76.8933 174.55 74.7627 175.929 73.384C177.433 71.88 179.563 71.128 182.321 71.128C185.078 71.128 187.209 71.88 188.713 73.384C190.217 74.7627 190.969 76.8933 190.969 79.776V156.48C190.969 162.371 188.211 165.316 182.697 165.316C179.939 165.316 177.809 164.564 176.305 163.06C174.926 161.556 174.237 159.363 174.237 156.48V140.124L176.681 143.32C174.174 150.589 170.101 156.167 164.461 160.052C158.946 163.812 152.429 165.692 144.909 165.692ZM257.037 165.692C248.765 165.692 241.684 163.624 235.793 159.488C229.903 155.352 225.955 149.775 223.949 142.756L226.017 139.936V156.48C226.017 159.363 225.265 161.556 223.761 163.06C222.383 164.564 220.315 165.316 217.557 165.316C214.925 165.316 212.857 164.564 211.353 163.06C209.849 161.556 209.097 159.363 209.097 156.48V38.792C209.097 35.9093 209.849 33.7787 211.353 32.4C212.857 30.896 214.925 30.144 217.557 30.144C220.315 30.144 222.445 30.896 223.949 32.4C225.453 33.7787 226.205 35.9093 226.205 38.792V93.124H224.137C226.143 86.356 230.091 80.9667 235.981 76.956C241.872 72.82 248.891 70.752 257.037 70.752C265.184 70.752 272.265 72.6947 278.281 76.58C284.423 80.34 289.123 85.792 292.381 92.936C295.765 99.9547 297.457 108.352 297.457 118.128C297.457 127.779 295.765 136.239 292.381 143.508C288.997 150.652 284.297 156.167 278.281 160.052C272.265 163.812 265.184 165.692 257.037 165.692ZM253.089 152.156C258.479 152.156 263.179 150.84 267.189 148.208C271.325 145.576 274.521 141.753 276.777 136.74C279.033 131.727 280.161 125.523 280.161 118.128C280.161 107.099 277.717 98.7013 272.829 92.936C267.941 87.1707 261.361 84.288 253.089 84.288C247.575 84.288 242.749 85.604 238.613 88.236C234.603 90.7427 231.469 94.5027 229.213 99.516C227.083 104.529 226.017 110.733 226.017 118.128C226.017 129.157 228.461 137.617 233.349 143.508C238.237 149.273 244.817 152.156 253.089 152.156Z" fill="#1B2D4A"/>
<rect x="306" y="71" width="17" height="93" rx="8" fill="#1B2D4A"/>
</svg>
