<svg width="20" height="20" viewBox="0 0 20 20" fill="none" xmlns="http://www.w3.org/2000/svg">
<path d="M16.8618 8.57096C16.7498 8.3422 16.5703 8.14887 16.3449 8.01419C16.1195 7.87952 15.8578 7.80923 15.5912 7.81177H12.5511L14.0253 2.1527C14.1036 1.86388 14.0766 1.55851 13.9484 1.28605C13.8203 1.0136 13.5986 0.79001 13.3193 0.651504C13.04 0.512997 12.7194 0.467683 12.4095 0.522901C12.0996 0.578119 11.8184 0.730635 11.6116 0.955748L3.33474 9.99208L3.32132 10.0048C3.15163 10.1987 3.04393 10.4343 3.01085 10.6841C2.97777 10.9338 3.02068 11.1873 3.13455 11.4148C3.24842 11.6423 3.42853 11.8344 3.65376 11.9686C3.879 12.1027 4.14003 12.1734 4.40626 12.1724H7.44632L5.97215 17.8315C5.88797 18.1233 5.91275 18.4336 6.04232 18.7102C6.1719 18.9868 6.39834 19.2127 6.68351 19.3498C6.8839 19.4483 7.10639 19.4998 7.33223 19.5C7.5349 19.5006 7.73518 19.4586 7.91857 19.3771C8.10196 19.2955 8.26387 19.1764 8.39256 19.0284L16.6828 9.97727C16.8517 9.78355 16.9583 9.54812 16.9901 9.29888C17.0218 9.04964 16.9773 8.79703 16.8618 8.57096ZM7.64541 17.5756L9.00997 12.3585C9.06534 12.1631 9.07263 11.9584 9.03128 11.76C8.98994 11.5616 8.90107 11.3748 8.77148 11.2139C8.64189 11.053 8.47503 10.9223 8.28371 10.8318C8.09239 10.7414 7.88169 10.6936 7.66778 10.6921H4.76641L12.352 2.40858L10.9875 7.62567C10.9321 7.82101 10.9248 8.02573 10.9662 8.22415C11.0075 8.42256 11.0964 8.60938 11.226 8.77028C11.3555 8.93117 11.5224 9.06186 11.7137 9.15231C11.905 9.24277 12.1157 9.29058 12.3297 9.29209H15.231L7.64541 17.5756Z" fill="#3B82F6"/>
</svg>
