<svg width="16" height="16" viewBox="0 0 16 16" fill="none" xmlns="http://www.w3.org/2000/svg">
<path d="M6 3.5C5.72386 3.5 5.5 3.72386 5.5 4C5.5 4.27614 5.72386 4.5 6 4.5H10C10.2761 4.5 10.5 4.27614 10.5 4C10.5 3.72386 10.2761 3.5 10 3.5H6Z" fill="#B9B9B9"/>
<path fill-rule="evenodd" clip-rule="evenodd" d="M7.96167 0.833984C6.57996 0.833978 5.49144 0.833964 4.64085 0.949564C3.76748 1.06826 3.07073 1.3171 2.52323 1.87054C1.97646 2.42323 1.73128 3.12533 1.6142 4.00559C1.49999 4.86432 1.49999 5.96373 1.5 7.36138V10.76C1.49999 11.7651 1.49999 12.5608 1.56401 13.1599C1.62727 13.7519 1.76298 14.286 2.15056 14.6432C2.46151 14.9298 2.85474 15.1104 3.27443 15.1585C3.79941 15.2185 4.28959 14.9679 4.77245 14.6258C5.26109 14.2797 5.85383 13.7554 6.60169 13.0939L6.62603 13.0724C6.97273 12.7657 7.20747 12.5588 7.40333 12.4156C7.5926 12.2772 7.7082 12.2271 7.8056 12.2075C7.93393 12.1817 8.06607 12.1817 8.1944 12.2075C8.2918 12.2271 8.4074 12.2772 8.59667 12.4156C8.79253 12.5588 9.02727 12.7657 9.374 13.0724L9.39833 13.094C10.1462 13.7554 10.7389 14.2797 11.2275 14.6258C11.7104 14.9679 12.2006 15.2185 12.7255 15.1585C13.1453 15.1104 13.5385 14.9298 13.8495 14.6432C14.237 14.286 14.3727 13.7519 14.436 13.1599C14.5 12.5608 14.5 11.7651 14.5 10.76V7.36132C14.5 5.96373 14.5 4.86432 14.3858 4.00559C14.2687 3.12533 14.0235 2.42323 13.4768 1.87054C12.9293 1.3171 12.2325 1.06826 11.3591 0.949564C10.5085 0.833964 9.42007 0.833978 8.03833 0.833984H7.96167ZM3.23413 2.57383C3.56531 2.23906 4.01501 2.04381 4.77552 1.94046C5.55097 1.83507 6.5715 1.83398 8 1.83398C9.42847 1.83398 10.4491 1.83507 11.2245 1.94046C11.985 2.04381 12.4347 2.23906 12.7659 2.57383C13.0978 2.90934 13.2919 3.36611 13.3945 4.13744C13.4989 4.9226 13.5 5.95547 13.5 7.39898V10.7279C13.5 11.7721 13.4993 12.5141 13.4417 13.0536C13.3826 13.6065 13.2736 13.814 13.1717 13.9079C13.0159 14.0515 12.8199 14.1411 12.6119 14.1649C12.4788 14.1801 12.2557 14.1287 11.8055 13.8098C11.3665 13.4988 10.8141 13.0111 10.0365 12.3233L10.0191 12.3079C9.6942 12.0206 9.4248 11.7823 9.18693 11.6084C8.93827 11.4265 8.68747 11.2868 8.39187 11.2272C8.1332 11.1751 7.8668 11.1751 7.60813 11.2272C7.31253 11.2868 7.06173 11.4265 6.81307 11.6084C6.57522 11.7823 6.30581 12.0206 5.98097 12.3079L5.96351 12.3233C5.18591 13.0111 4.63351 13.4988 4.19443 13.8098C3.74431 14.1287 3.52121 14.1801 3.38812 14.1649C3.18013 14.1411 2.98411 14.0515 2.82825 13.9079C2.72642 13.814 2.61743 13.6065 2.55835 13.0536C2.50069 12.5141 2.5 11.7721 2.5 10.7279V7.39898C2.5 5.95547 2.50104 4.9226 2.60547 4.13744C2.70806 3.36611 2.90222 2.90934 3.23413 2.57383Z" fill="#B9B9B9"/>
</svg>