<svg width="20" height="20" viewBox="0 0 20 20" fill="none" xmlns="http://www.w3.org/2000/svg">
<g clip-path="url(#clip0_30234_133412)">
<path d="M10 2.58203C12.2083 3.20703 14.625 3.95703 15.8333 4.3737V10.9154C15.8333 12.332 14.2917 14.832 10 17.332C5.70833 14.7904 4.16667 12.332 4.16667 10.9154V4.3737C5.375 3.91536 7.79167 3.20703 10 2.58203ZM10 0.832031C10 0.832031 2.5 2.95703 2.5 3.33203V10.9154C2.5 14.7487 8.04167 18.1237 9.58333 19.0404C9.70667 19.1228 9.85167 19.1668 10 19.1668C10.1483 19.1668 10.2933 19.1228 10.4167 19.0404C12 18.1654 17.5 14.7487 17.5 10.9154V3.33203C17.5 2.95703 10 0.832031 10 0.832031Z" fill="#3B82F6"/>
<path d="M8.16101 12.2487L6.07768 10.207C5.93331 10.0595 5.84577 9.86563 5.83052 9.65975C5.81527 9.45388 5.8733 9.24925 5.99435 9.08203C6.06179 8.98161 6.15135 8.89798 6.25614 8.83757C6.36094 8.77715 6.47819 8.74155 6.59889 8.7335C6.71959 8.72546 6.84052 8.74518 6.95241 8.79115C7.0643 8.83712 7.16417 8.90812 7.24435 8.9987L8.74435 10.4987L12.7443 6.4987C12.9048 6.37834 13.1033 6.31991 13.3034 6.33413C13.5035 6.34835 13.6918 6.43427 13.8336 6.57611C13.9754 6.71795 14.0614 6.9062 14.0756 7.10629C14.0898 7.30638 14.0314 7.50489 13.911 7.66537L9.32768 12.2487C9.25352 12.3295 9.16337 12.3941 9.06295 12.4382C8.96254 12.4824 8.85404 12.5051 8.74435 12.5051C8.63465 12.5051 8.52616 12.4824 8.42574 12.4382C8.32532 12.3941 8.23517 12.3295 8.16101 12.2487Z" fill="#3B82F6"/>
</g>
<defs>
<clipPath id="clip0_30234_133412">
<rect width="20" height="20" fill="white"/>
</clipPath>
</defs>
</svg>
