<svg width="36" height="36" viewBox="0 0 36 36" fill="none" xmlns="http://www.w3.org/2000/svg">
<path d="M25 13.334C26.933 13.334 28.5 11.767 28.5 9.83398C28.5 7.90099 26.933 6.33398 25 6.33398C23.067 6.33398 21.5 7.90099 21.5 9.83398C21.5 11.767 23.067 13.334 25 13.334Z" stroke="#3B82F6" stroke-width="2" stroke-linecap="round" stroke-linejoin="round"/>
<path d="M11 21.5C12.933 21.5 14.5 19.933 14.5 18C14.5 16.067 12.933 14.5 11 14.5C9.067 14.5 7.5 16.067 7.5 18C7.5 19.933 9.067 21.5 11 21.5Z" stroke="#3B82F6" stroke-width="2" stroke-linecap="round" stroke-linejoin="round"/>
<path d="M25 29.666C26.933 29.666 28.5 28.099 28.5 26.166C28.5 24.233 26.933 22.666 25 22.666C23.067 22.666 21.5 24.233 21.5 26.166C21.5 28.099 23.067 29.666 25 29.666Z" stroke="#3B82F6" stroke-width="2" stroke-linecap="round" stroke-linejoin="round"/>
<path d="M14.0215 19.7617L21.9898 24.4051" stroke="#3B82F6" stroke-width="2" stroke-linecap="round" stroke-linejoin="round"/>
<path d="M21.9782 11.5957L14.0215 16.239" stroke="#3B82F6" stroke-width="2" stroke-linecap="round" stroke-linejoin="round"/>
</svg>