<svg width="14" height="14" viewBox="0 0 14 14" fill="none" xmlns="http://www.w3.org/2000/svg">
<path d="M8.63638 4.25416L8.63635 4.25417L8.6383 4.25873C8.7899 4.61284 9.1161 4.85799 9.50056 4.89327C9.50086 4.8933 9.50115 4.89333 9.50145 4.89335L13.3548 5.25773C13.3549 5.25773 13.355 5.25774 13.3551 5.25775C13.6109 5.28256 13.7105 5.60231 13.5369 5.76617L10.6356 8.31452L10.6349 8.31508C10.3436 8.57218 10.222 8.95522 10.3075 9.33116L10.3074 9.33117L10.3086 9.33583L11.1697 12.9129C11.2287 13.173 10.9595 13.3609 10.7415 13.233L7.5269 11.344L7.52691 11.3439L7.5248 11.3427C7.19868 11.1539 6.80127 11.1539 6.47515 11.3427L6.47515 11.3427L6.47305 11.344L3.25856 13.233C3.04382 13.359 2.7717 13.1659 2.82989 12.9143C2.82999 12.9139 2.83008 12.9135 2.83018 12.9131L3.70219 9.33689L3.70223 9.3369L3.70354 9.33116C3.78898 8.95522 3.66744 8.57218 3.37607 8.31508L3.37544 8.31452L0.471839 5.76422C0.281257 5.59147 0.391166 5.28124 0.633874 5.25775C0.633939 5.25774 0.634005 5.25773 0.634071 5.25773L4.48757 4.89335C4.48785 4.89333 4.48814 4.8933 4.48842 4.89327C4.86085 4.85911 5.21022 4.6226 5.35458 4.24942L6.72288 0.905908L6.72289 0.905912L6.72399 0.903147C6.81921 0.665097 7.15876 0.665097 7.25398 0.903147L7.25396 0.903155L7.2555 0.906887L8.63638 4.25416Z" stroke="#D0D0D0" stroke-width="0.75"/>
</svg>
