<svg width="14" height="14" viewBox="0 0 14 14" fill="none" xmlns="http://www.w3.org/2000/svg">
<g clip-path="url(#clip0_25940_97878)">
<path d="M13.3907 4.88445L9.5354 4.51989C9.29236 4.4978 9.08236 4.34314 8.98304 4.11115L7.60216 0.763876C7.38121 0.211521 6.59676 0.211521 6.37582 0.763876L5.00597 4.11115C4.9176 4.34314 4.69666 4.4978 4.45362 4.51989L0.598179 4.88445C0.0237289 4.93968 -0.20826 5.65774 0.222577 6.04439L3.12797 8.59627C3.31577 8.76198 3.3931 9.00502 3.33786 9.24805L2.46514 12.8272C2.33257 13.3907 2.94017 13.8546 3.44833 13.5564L6.66304 11.6673C6.87294 11.5457 7.12702 11.5457 7.33691 11.6673L10.5517 13.5564C11.0599 13.8546 11.6675 13.4018 11.5348 12.8272L10.6731 9.24805C10.6179 9.00502 10.6952 8.76198 10.883 8.59627L13.7884 6.04439C14.2082 5.65774 13.9652 4.93968 13.3907 4.88445Z" fill="#FCE288"/>
</g>
<defs>
<clipPath id="clip0_25940_97878">
<rect width="14" height="14" fill="white"/>
</clipPath>
</defs>
</svg>
