<svg width="16" height="16" viewBox="0 0 16 16" fill="none" xmlns="http://www.w3.org/2000/svg">
<path d="M4.66927 7.33301L7.33594 1.33301C7.86637 1.33301 8.37508 1.54372 8.75015 1.91879C9.12522 2.29387 9.33594 2.80257 9.33594 3.33301V5.99967H13.1093C13.3025 5.99749 13.494 6.03734 13.6703 6.11649C13.8467 6.19563 14.0037 6.31216 14.1305 6.45802C14.2573 6.60387 14.3509 6.77556 14.4048 6.96118C14.4587 7.1468 14.4716 7.34191 14.4426 7.53301L13.5226 13.533C13.4744 13.8509 13.3129 14.1407 13.0679 14.349C12.8229 14.5573 12.5108 14.67 12.1893 14.6663H4.66927M4.66927 7.33301V14.6663M4.66927 7.33301H2.66927C2.31565 7.33301 1.97651 7.47348 1.72646 7.72353C1.47641 7.97358 1.33594 8.31272 1.33594 8.66634V13.333C1.33594 13.6866 1.47641 14.0258 1.72646 14.2758C1.97651 14.5259 2.31565 14.6663 2.66927 14.6663H4.66927" stroke="#22C55E" stroke-width="1.5" stroke-linecap="round" stroke-linejoin="round"/>
</svg>
