<svg width="16" height="16" viewBox="0 0 16 16" fill="none" xmlns="http://www.w3.org/2000/svg">
<path d="M11.3307 8.66699L8.66406 14.667C8.13363 14.667 7.62492 14.4563 7.24985 14.0812C6.87478 13.7061 6.66406 13.1974 6.66406 12.667V10.0003L2.89073 10.0003C2.69746 10.0025 2.50602 9.96266 2.32968 9.88351C2.15334 9.80437 1.99632 9.68784 1.86949 9.54198C1.74266 9.39613 1.64906 9.22444 1.59517 9.03882C1.54128 8.8532 1.52839 8.65809 1.5574 8.46699L2.4774 2.46699C2.52561 2.14905 2.68711 1.85925 2.93212 1.65099C3.17714 1.44272 3.48918 1.33002 3.81073 1.33366L11.3307 1.33366M11.3307 8.66699L11.3307 1.33366M11.3307 8.66699H13.3307C13.6844 8.66699 14.0235 8.52652 14.2735 8.27647C14.5236 8.02642 14.6641 7.68728 14.6641 7.33366V2.66699C14.6641 2.31337 14.5236 1.97423 14.2735 1.72418C14.0235 1.47413 13.6844 1.33366 13.3307 1.33366H11.3307" stroke="#EF4444" stroke-width="1.5" stroke-linecap="round" stroke-linejoin="round"/>
</svg>
