<svg width="24" height="24" viewBox="0 0 24 24" fill="none" xmlns="http://www.w3.org/2000/svg">
<g clip-path="url(#clip0_30843_44992)">
<path d="M23.9028 11.7216C23.9562 11.6428 23.992 11.5504 23.987 11.4481C23.9702 11.132 23.9399 10.8155 23.8955 10.5071C23.8597 10.2594 23.6306 10.0878 23.3829 10.1227C23.1352 10.1584 22.9631 10.3876 22.9985 10.6353C23.0392 10.9169 23.0668 11.2063 23.0822 11.4956C23.0872 11.5894 23.1266 11.6704 23.1796 11.7402C23.1298 11.8126 23.0945 11.8955 23.0945 11.9897C23.0945 17.233 18.8283 21.4991 13.585 21.4991C8.73974 21.4991 4.73672 17.8538 4.15574 13.163L6.47242 15.4796C6.56072 15.5679 6.67664 15.6123 6.79257 15.6123C6.90849 15.6123 7.02442 15.5679 7.11272 15.4796C7.28977 15.3026 7.28977 15.0164 7.11272 14.8393L4.08374 11.8104C4.08826 11.5817 4.09415 11.3516 4.11453 11.1266C4.13717 10.8775 3.95377 10.6575 3.70426 10.6348C3.46109 10.6099 3.23513 10.796 3.21249 11.0451C3.1903 11.2919 3.18351 11.5427 3.17898 11.7932L0.132792 14.8393C-0.0442642 15.0164 -0.0442642 15.3026 0.132792 15.4796C0.221094 15.5679 0.337019 15.6123 0.452943 15.6123C0.568868 15.6123 0.684792 15.5679 0.773094 15.4796L3.222 13.0307C3.74592 18.2867 8.19317 22.4048 13.585 22.4048C19.3283 22.4048 24.0001 17.7329 24.0001 11.9897C24.0001 11.8873 23.9598 11.7977 23.9028 11.7216Z" fill="black"/>
<path d="M16.7362 3.0142C17.0043 3.10839 17.2742 3.21707 17.5382 3.33752C17.5993 3.3656 17.6627 3.37828 17.7256 3.37828C17.8977 3.37828 18.0621 3.28001 18.1382 3.11337C18.2419 2.8856 18.1413 2.61707 17.914 2.51337C17.6247 2.3816 17.3294 2.2625 17.0364 2.16016C16.8005 2.07548 16.5419 2.20182 16.4595 2.4373C16.3762 2.67322 16.5003 2.93133 16.7362 3.0142Z" fill="black"/>
<path d="M14.202 2.49977C14.4882 2.51788 14.7771 2.54958 15.061 2.59396C15.0846 2.59758 15.1081 2.59939 15.1308 2.59939C15.3499 2.59939 15.5429 2.43954 15.5777 2.21584C15.6162 1.9686 15.4469 1.7372 15.1996 1.69871C14.8885 1.65071 14.5724 1.61539 14.2591 1.59547C14.0136 1.58143 13.7945 1.7689 13.7782 2.01886C13.7632 2.26837 13.9525 2.48392 14.202 2.49977Z" fill="black"/>
<path d="M19.7168 4.72146C19.8019 4.79346 19.9056 4.82833 20.0089 4.82833C20.1379 4.82833 20.2656 4.77353 20.3553 4.66802C20.5165 4.47648 20.493 4.19074 20.3019 4.02999C20.061 3.82666 19.8087 3.6324 19.5524 3.45308C19.3477 3.30953 19.0652 3.35934 18.9216 3.56448C18.7785 3.76916 18.8279 4.05172 19.033 4.19527C19.2667 4.35829 19.4972 4.5358 19.7168 4.72146Z" fill="black"/>
<path d="M21.4495 6.64206C21.5369 6.77066 21.6795 6.83994 21.824 6.83994C21.9114 6.83994 22.0006 6.81413 22.0789 6.76115C22.2854 6.62032 22.3389 6.33866 22.198 6.13172C22.0219 5.87315 21.8308 5.61866 21.6306 5.37504C21.4712 5.18168 21.1869 5.15451 20.9931 5.313C20.8002 5.4724 20.7725 5.75723 20.931 5.95059C21.114 6.17338 21.2888 6.40568 21.4495 6.64206Z" fill="black"/>
<path d="M22.2887 8.15137C22.4046 8.41356 22.5096 8.68435 22.6007 8.9556C22.6645 9.14488 22.8407 9.26443 23.0299 9.26443C23.0775 9.26443 23.1264 9.25673 23.1739 9.24088C23.4108 9.16118 23.5389 8.90443 23.4592 8.66714C23.3587 8.36918 23.2437 8.07258 23.1169 7.78503C23.0155 7.5568 22.7501 7.45401 22.5196 7.55363C22.2914 7.65552 22.1877 7.92269 22.2887 8.15137Z" fill="black"/>
<path d="M8.98076 3.60459C9.0514 3.60459 9.12295 3.58829 9.18997 3.55342C9.44355 3.42074 9.7071 3.29848 9.97291 3.18889C10.2043 3.0938 10.3148 2.82934 10.2197 2.59795C10.1251 2.3661 9.8588 2.2547 9.62876 2.35116C9.33714 2.4707 9.04868 2.60519 8.77065 2.7501C8.54921 2.86602 8.46318 3.13953 8.57865 3.36142C8.6597 3.51629 8.81774 3.60459 8.98076 3.60459Z" fill="black"/>
<path d="M4.83097 7.2086C4.90433 7.25343 4.98584 7.27471 5.06599 7.27471C5.21904 7.27471 5.36803 7.19728 5.45316 7.05736C5.60259 6.81147 5.7647 6.57056 5.93497 6.34053C6.0835 6.13947 6.04138 5.856 5.84078 5.70702C5.63972 5.55804 5.35625 5.60105 5.20727 5.80121C5.0207 6.05343 4.84274 6.31788 4.67927 6.58687C4.54931 6.80015 4.61723 7.07864 4.83097 7.2086Z" fill="black"/>
<path d="M11.5304 2.69245C11.5612 2.69245 11.5924 2.68928 11.6237 2.68294C11.9035 2.62453 12.1906 2.57789 12.4768 2.54393C12.7254 2.51494 12.9029 2.28989 12.8739 2.04174C12.8454 1.79404 12.6222 1.61608 12.3717 1.6446C12.0588 1.68128 11.7441 1.73245 11.438 1.79676C11.193 1.84793 11.0363 2.08838 11.088 2.33291C11.1323 2.54574 11.3207 2.69245 11.5304 2.69245Z" fill="black"/>
<path d="M3.86601 9.74273C3.90677 9.75405 3.94797 9.75948 3.98828 9.75948C4.18662 9.75948 4.3682 9.62862 4.4239 9.42846C4.50088 9.15224 4.5919 8.87601 4.69424 8.60839C4.78299 8.37473 4.66616 8.11299 4.4325 8.02379C4.2002 7.93503 3.93711 8.05231 3.8479 8.28552C3.73605 8.57896 3.63597 8.8819 3.5522 9.18484C3.48428 9.4262 3.62556 9.67616 3.86601 9.74273Z" fill="black"/>
<path d="M6.77288 5.17241C6.88382 5.17241 6.99522 5.13166 7.08261 5.0497C7.29182 4.85362 7.51235 4.66479 7.73922 4.48774C7.93665 4.33377 7.97152 4.0494 7.81756 3.85241C7.66359 3.65453 7.37922 3.61966 7.18224 3.77407C6.93363 3.96789 6.69182 4.17483 6.46359 4.38902C6.2811 4.56019 6.27159 4.84683 6.44276 5.02887C6.53197 5.12441 6.65197 5.17241 6.77288 5.17241Z" fill="black"/>
<path d="M18.4889 13.9072L16.0833 11.5023C16.1336 11.2567 16.1586 11.0065 16.1578 10.7558C16.1576 10.0683 15.9844 9.39189 15.6543 8.78916C15.3241 8.18644 14.8476 7.67683 14.2689 7.30744C13.6901 6.93805 13.0278 6.7208 12.343 6.67577C11.6583 6.63075 10.9733 6.75939 10.3513 7.04982C10.2725 7.08588 10.2037 7.14068 10.1508 7.20944C10.098 7.27821 10.0626 7.35887 10.048 7.44441C10.0333 7.52887 10.0392 7.61561 10.0652 7.6973C10.0911 7.77899 10.1363 7.8532 10.197 7.91366L12.5121 10.2279L11.5541 11.1877L9.24431 8.86814C9.18347 8.80832 9.10916 8.76401 9.02766 8.73896C8.94615 8.7139 8.85983 8.70883 8.77597 8.72417C8.69112 8.73835 8.61097 8.77293 8.54238 8.82493C8.47379 8.87694 8.4188 8.94483 8.38213 9.02278C8.09129 9.648 7.963 10.3368 8.0092 11.025C8.0554 11.7132 8.27459 12.3786 8.64638 12.9592C9.01817 13.5397 9.53047 14.0166 10.1356 14.3456C10.7408 14.6745 11.4192 14.8447 12.1076 14.8404C12.3579 14.8412 12.6076 14.8162 12.8527 14.7657L15.253 17.1759C15.3025 17.2259 15.3613 17.2656 15.4262 17.2926C15.4911 17.3197 15.5606 17.3337 15.6309 17.3337C15.7011 17.3337 15.7707 17.3197 15.8356 17.2926C15.9004 17.2656 15.9593 17.2259 16.0087 17.1759C16.0586 17.1264 16.0982 17.0674 16.1252 17.0024C16.1523 16.9374 16.1662 16.8677 16.1662 16.7973C16.1662 16.7269 16.1523 16.6572 16.1252 16.5923C16.0982 16.5273 16.0586 16.4683 16.0087 16.4187L13.4009 13.8059C13.3357 13.741 13.2549 13.6942 13.1663 13.6699C13.0777 13.6456 12.9844 13.6447 12.8953 13.6672C12.6383 13.7362 12.3736 13.772 12.1076 13.7739C11.7096 13.7774 11.3147 13.702 10.9459 13.552C10.577 13.4019 10.2415 13.1802 9.95849 12.8997C9.67552 12.6192 9.45075 12.2853 9.29712 11.9174C9.14349 11.5494 9.06405 11.1546 9.06336 10.7558C9.06267 10.5772 9.07691 10.3988 9.10594 10.2226L11.1922 12.3182C11.2417 12.3681 11.3006 12.4078 11.3654 12.4349C11.4303 12.462 11.4998 12.4759 11.5701 12.4759C11.6403 12.4759 11.7099 12.462 11.7748 12.4349C11.8396 12.4078 11.8985 12.3681 11.948 12.3182L13.6404 10.6065C13.7363 10.5071 13.7899 10.3742 13.7899 10.2359C13.7899 10.0976 13.7363 9.96472 13.6404 9.86529L11.5701 7.77502C11.746 7.74623 11.924 7.73196 12.1023 7.73236C12.9017 7.73377 13.6679 8.05293 14.2327 8.61978C14.7974 9.18663 15.1146 9.95485 15.1146 10.7558C15.1128 11.0223 15.077 11.2875 15.0082 11.545C14.9857 11.6342 14.9866 11.7277 15.0108 11.8165C15.0351 11.9053 15.0818 11.9863 15.1466 12.0516L17.7544 14.6644C17.8546 14.7648 17.9905 14.8212 18.1323 14.8212C18.274 14.8212 18.4099 14.7648 18.5101 14.6644C18.6104 14.564 18.6667 14.4278 18.6667 14.2858C18.6667 14.1438 18.6104 14.0076 18.5101 13.9072H18.4889Z" fill="black"/>
</g>
<defs>
<clipPath id="clip0_30843_44992">
<rect width="24" height="24" fill="white"/>
</clipPath>
</defs>
</svg>
