<svg width="16" height="16" viewBox="0 0 16 16" fill="none" xmlns="http://www.w3.org/2000/svg">
<path d="M11.3346 14V12.6667C11.3346 11.9594 11.0537 11.2811 10.5536 10.781C10.0535 10.281 9.37521 10 8.66797 10H3.33464C2.62739 10 1.94911 10.281 1.44902 10.781C0.94892 11.2811 0.667969 11.9594 0.667969 12.6667V14" stroke="#374151" stroke-width="1.15" stroke-linecap="round" stroke-linejoin="round"/>
<path d="M5.9987 7.33333C7.47146 7.33333 8.66537 6.13943 8.66537 4.66667C8.66537 3.19391 7.47146 2 5.9987 2C4.52594 2 3.33203 3.19391 3.33203 4.66667C3.33203 6.13943 4.52594 7.33333 5.9987 7.33333Z" stroke="#374151" stroke-width="1.15" stroke-linecap="round" stroke-linejoin="round"/>
<path d="M15.332 13.9993V12.6659C15.3316 12.0751 15.1349 11.5011 14.7729 11.0341C14.4109 10.5672 13.9041 10.2336 13.332 10.0859" stroke="#374151" stroke-width="1.15" stroke-linecap="round" stroke-linejoin="round"/>
<path d="M10.668 2.08594C11.2416 2.2328 11.75 2.5664 12.1131 3.03414C12.4761 3.50188 12.6732 4.07716 12.6732 4.66927C12.6732 5.26138 12.4761 5.83666 12.1131 6.3044C11.75 6.77214 11.2416 7.10574 10.668 7.2526" stroke="#374151" stroke-width="1.15" stroke-linecap="round" stroke-linejoin="round"/>
</svg>
