<svg width="14" height="14" viewBox="0 0 14 14" fill="none" xmlns="http://www.w3.org/2000/svg">
<g clip-path="url(#clip0_28865_107936)">
<path d="M13.4193 7.00016C13.4193 10.544 10.5464 13.4168 7.0026 13.4168C3.45878 13.4168 0.585938 10.544 0.585938 7.00016C0.585938 3.45634 3.45878 0.583496 7.0026 0.583496C10.5464 0.583496 13.4193 3.45634 13.4193 7.00016ZM1.75659 7.00016C1.75659 9.89746 4.10531 12.2462 7.0026 12.2462C9.8999 12.2462 12.2486 9.89746 12.2486 7.00016C12.2486 4.10287 9.8999 1.75415 7.0026 1.75415C4.10531 1.75415 1.75659 4.10287 1.75659 7.00016Z" fill="#9F9F9F"/>
<path d="M6.9974 2.9165C6.67522 2.9165 6.41406 3.17767 6.41406 3.49984V7.27208C6.41406 7.27208 6.41406 7.42415 6.48797 7.53855C6.53744 7.63555 6.61455 7.71985 6.71588 7.77835L9.41076 9.33428C9.68977 9.49534 10.0465 9.39973 10.2076 9.12072C10.3687 8.84171 10.2731 8.48495 9.9941 8.32389L7.58073 6.93054V3.49984C7.58073 3.17767 7.31957 2.9165 6.9974 2.9165Z" fill="#9F9F9F"/>
</g>
<defs>
<clipPath id="clip0_28865_107936">
<rect width="14" height="14" fill="white"/>
</clipPath>
</defs>
</svg>
