<svg width="20" height="20" viewBox="0 0 20 20" fill="none" xmlns="http://www.w3.org/2000/svg">
<path d="M4 8.94512C4 6.81336 4 5.7475 4.25168 5.38892C4.50335 5.03034 5.50555 4.68729 7.50994 4.00118L7.89181 3.87046C8.93667 3.51281 9.45907 3.33398 10 3.33398C10.5409 3.33398 11.0633 3.51281 12.1082 3.87046L12.4901 4.00118C14.4945 4.68729 15.4967 5.03034 15.7483 5.38892C16 5.7475 16 6.81336 16 8.94512C16 9.26705 16 9.61625 16 9.99492C16 13.7536 13.174 15.5777 11.4009 16.3522C10.92 16.5623 10.6795 16.6673 10 16.6673C9.32047 16.6673 9.08 16.5623 8.59904 16.3522C6.82597 15.5777 4 13.7536 4 9.99492C4 9.61625 4 9.26705 4 8.94512Z" stroke="#60A5FA" stroke-width="1.25"/>
<path d="M10 7.33398V10.0007" stroke="#60A5FA" stroke-width="1.25" stroke-linecap="round"/>
<path d="M9.99967 12.6673C10.3679 12.6673 10.6663 12.3688 10.6663 12.0007C10.6663 11.6325 10.3679 11.334 9.99967 11.334C9.63148 11.334 9.33301 11.6325 9.33301 12.0007C9.33301 12.3688 9.63148 12.6673 9.99967 12.6673Z" fill="#60A5FA"/>
</svg>
