<svg width="20" height="20" viewBox="0 0 20 20" fill="none" xmlns="http://www.w3.org/2000/svg">
<g clip-path="url(#clip0_32607_78727)">
<path d="M6.4 5.21172C6.08174 5.21172 5.77652 5.33815 5.55147 5.56319C5.32643 5.78823 5.2 6.09346 5.2 6.41172V13.6117C5.2 13.93 5.32643 14.2352 5.55147 14.4602C5.77652 14.6853 6.08174 14.8117 6.4 14.8117H13.6C13.9183 14.8117 14.2235 14.6853 14.4485 14.4602C14.6736 14.2352 14.8 13.93 14.8 13.6117V6.41172C14.8 6.09346 14.6736 5.78823 14.4485 5.56319C14.2235 5.33815 13.9183 5.21172 13.6 5.21172H6.4ZM6.4 4.01172H13.6C14.2365 4.01172 14.847 4.26458 15.2971 4.71466C15.7471 5.16475 16 5.7752 16 6.41172V13.6117C16 14.2482 15.7471 14.8587 15.2971 15.3088C14.847 15.7589 14.2365 16.0117 13.6 16.0117H6.4C5.76348 16.0117 5.15303 15.7589 4.70294 15.3088C4.25286 14.8587 4 14.2482 4 13.6117V6.41172C4 5.7752 4.25286 5.16475 4.70294 4.71466C5.15303 4.26458 5.76348 4.01172 6.4 4.01172Z" fill="#60A5FA"/>
<path d="M10 2.01172C10.1516 2.01172 10.2969 2.07192 10.4041 2.17909C10.5112 2.28625 10.5714 2.4316 10.5714 2.58315V4.86886H9.42857V2.58315C9.42857 2.4316 9.48878 2.28625 9.59594 2.17909C9.7031 2.07192 9.84845 2.01172 10 2.01172ZM12.8571 2.01172C13.0087 2.01172 13.154 2.07192 13.2612 2.17909C13.3684 2.28625 13.4286 2.4316 13.4286 2.58315V4.86886H12.2857V2.58315C12.2857 2.4316 12.3459 2.28625 12.4531 2.17909C12.5602 2.07192 12.7056 2.01172 12.8571 2.01172ZM7.14286 2.01172C7.29441 2.01172 7.43975 2.07192 7.54692 2.17909C7.65408 2.28625 7.71429 2.4316 7.71429 2.58315V4.86886H6.57143V2.58315C6.57143 2.4316 6.63163 2.28625 6.7388 2.17909C6.84596 2.07192 6.99131 2.01172 7.14286 2.01172ZM10 18.0117C9.84845 18.0117 9.7031 17.9515 9.59594 17.8444C9.48878 17.7372 9.42857 17.5918 9.42857 17.4403V15.1546H10.5714V17.4403C10.5714 17.5918 10.5112 17.7372 10.4041 17.8444C10.2969 17.9515 10.1516 18.0117 10 18.0117ZM12.8571 18.0117C12.7056 18.0117 12.5602 17.9515 12.4531 17.8444C12.3459 17.7372 12.2857 17.5918 12.2857 17.4403V15.1546H13.4286V17.4403C13.4286 17.5918 13.3684 17.7372 13.2612 17.8444C13.154 17.9515 13.0087 18.0117 12.8571 18.0117ZM7.14286 18.0117C6.99131 18.0117 6.84596 17.9515 6.7388 17.8444C6.63163 17.7372 6.57143 17.5918 6.57143 17.4403V15.1546H7.71429V17.4403C7.71429 17.5918 7.65408 17.7372 7.54692 17.8444C7.43975 17.9515 7.29441 18.0117 7.14286 18.0117ZM2 10.0117C2 9.86017 2.0602 9.71482 2.16737 9.60766C2.27453 9.50049 2.41988 9.44029 2.57143 9.44029H4.85714V10.5831H2.57143C2.41988 10.5831 2.27453 10.5229 2.16737 10.4158C2.0602 10.3086 2 10.1633 2 10.0117ZM2 7.15458C2 7.00302 2.0602 6.85768 2.16737 6.75052C2.27453 6.64335 2.41988 6.58315 2.57143 6.58315H4.85714V7.726H2.57143C2.41988 7.726 2.27453 7.6658 2.16737 7.55864C2.0602 7.45147 2 7.30613 2 7.15458ZM2 12.8689C2 12.7173 2.0602 12.572 2.16737 12.4648C2.27453 12.3576 2.41988 12.2974 2.57143 12.2974H4.85714V13.4403H2.57143C2.41988 13.4403 2.27453 13.3801 2.16737 13.2729C2.0602 13.1658 2 13.0204 2 12.8689ZM18 10.0117C18 10.1633 17.9398 10.3086 17.8326 10.4158C17.7255 10.5229 17.5801 10.5831 17.4286 10.5831H15.1429V9.44029H17.4286C17.5801 9.44029 17.7255 9.50049 17.8326 9.60766C17.9398 9.71482 18 9.86017 18 10.0117ZM18 7.15458C18 7.30613 17.9398 7.45147 17.8326 7.55864C17.7255 7.6658 17.5801 7.726 17.4286 7.726H15.1429V6.58315H17.4286C17.5801 6.58315 17.7255 6.64335 17.8326 6.75052C17.9398 6.85768 18 7.00302 18 7.15458ZM18 12.8689C18 13.0204 17.9398 13.1658 17.8326 13.2729C17.7255 13.3801 17.5801 13.4403 17.4286 13.4403H15.1429V12.2974H17.4286C17.5801 12.2974 17.7255 12.3576 17.8326 12.4648C17.9398 12.572 18 12.7173 18 12.8689Z" fill="#60A5FA"/>
</g>
<defs>
<clipPath id="clip0_32607_78727">
<rect width="16" height="16" fill="white" transform="translate(2 2)"/>
</clipPath>
</defs>
</svg>
