<svg width="20" height="20" viewBox="0 0 20 20" fill="none" xmlns="http://www.w3.org/2000/svg">
<g clip-path="url(#clip0_32612_81404)">
<path fill-rule="evenodd" clip-rule="evenodd" d="M9.20883 1.9375H10.7912C11.8169 1.93749 12.6436 1.93747 13.2939 2.02489C13.9689 2.11566 14.5373 2.30982 14.9888 2.76126C15.2126 2.98512 15.3732 3.23772 15.4893 3.51784C16.1883 3.60541 16.7752 3.79776 17.2388 4.2613C17.6902 4.71274 17.8844 5.28114 17.9751 5.95623C18.0625 6.60645 18.0625 7.43319 18.0625 8.45889V11.5412C18.0625 12.5669 18.0625 13.3936 17.9751 14.0438C17.8844 14.7189 17.6902 15.2873 17.2388 15.7388C16.7752 16.2023 16.1883 16.3946 15.4893 16.4822C15.3732 16.7623 15.2126 17.0149 14.9888 17.2388C14.5373 17.6902 13.9689 17.8844 13.2939 17.9751C12.6436 18.0625 11.8169 18.0625 10.7912 18.0625H9.20883C8.18316 18.0625 7.35642 18.0625 6.70619 17.9751C6.03111 17.8844 5.4627 17.6902 5.01126 17.2388C4.78743 17.0149 4.62685 16.7623 4.51076 16.4822C3.81171 16.3946 3.22482 16.2023 2.76126 15.7388C2.30982 15.2873 2.11566 14.7189 2.02489 14.0438C1.93747 13.3936 1.93749 12.5669 1.9375 11.5412V8.45889C1.93749 7.43319 1.93747 6.60645 2.02489 5.95623C2.11566 5.28114 2.30982 4.71274 2.76126 4.2613C3.22482 3.79776 3.81169 3.60541 4.51072 3.51784C4.62682 3.23772 4.78741 2.98512 5.01126 2.76126C5.4627 2.30982 6.03111 2.11566 6.70619 2.02489C7.35642 1.93747 8.18316 1.93749 9.20883 1.9375ZM4.24633 4.70535C3.91812 4.78445 3.7135 4.90005 3.55676 5.0568C3.34919 5.26437 3.21385 5.5558 3.13986 6.10613C3.06369 6.67264 3.0625 7.42348 3.0625 8.50008V11.5001C3.0625 12.5766 3.06369 13.3275 3.13986 13.8939C3.21385 14.4443 3.34919 14.7357 3.55676 14.9432C3.71351 15.1 3.91812 15.2157 4.24634 15.2947C4.18748 14.6863 4.18749 13.9401 4.1875 13.0412V6.95884C4.18749 6.05989 4.18748 5.31377 4.24633 4.70535ZM15.7537 15.2947C16.0819 15.2157 16.2865 15.1 16.4432 14.9432C16.6508 14.7357 16.7862 14.4443 16.8602 13.8939C16.9363 13.3275 16.9375 12.5766 16.9375 11.5001V8.50008C16.9375 7.42348 16.9363 6.67264 16.8602 6.10613C16.7862 5.5558 16.6508 5.26437 16.4432 5.0568C16.2865 4.90005 16.0819 4.78445 15.7537 4.70535C15.8125 5.31377 15.8125 6.0599 15.8125 6.95885V13.0412C15.8125 13.9401 15.8125 14.6863 15.7537 15.2947ZM6.85609 3.13986C6.30576 3.21385 6.01433 3.34919 5.80676 3.55676C5.59919 3.76433 5.46385 4.05576 5.38986 4.60609C5.31369 5.1726 5.3125 5.92344 5.3125 7V13C5.3125 14.0766 5.31369 14.8274 5.38986 15.3939C5.46385 15.9443 5.59919 16.2356 5.80676 16.4432C6.01433 16.6508 6.30576 16.7862 6.85609 16.8602C7.4226 16.9363 8.17344 16.9375 9.25 16.9375H10.75C11.8266 16.9375 12.5774 16.9363 13.1439 16.8602C13.6943 16.7862 13.9856 16.6508 14.1932 16.4432C14.4008 16.2356 14.5362 15.9443 14.6102 15.3939C14.6863 14.8274 14.6875 14.0766 14.6875 13V7C14.6875 5.92344 14.6863 5.1726 14.6102 4.60609C14.5362 4.05576 14.4008 3.76433 14.1932 3.55676C13.9856 3.34919 13.6943 3.21385 13.1439 3.13986C12.5774 3.06369 11.8266 3.0625 10.75 3.0625H9.25C8.17344 3.0625 7.4226 3.06369 6.85609 3.13986ZM7.1875 7.75C7.1875 7.43934 7.43934 7.1875 7.75 7.1875H12.25C12.5607 7.1875 12.8125 7.43934 12.8125 7.75C12.8125 8.06067 12.5607 8.3125 12.25 8.3125H7.75C7.43934 8.3125 7.1875 8.06067 7.1875 7.75ZM7.1875 10.75C7.1875 10.4394 7.43934 10.1875 7.75 10.1875H12.25C12.5607 10.1875 12.8125 10.4394 12.8125 10.75C12.8125 11.0607 12.5607 11.3125 12.25 11.3125H7.75C7.43934 11.3125 7.1875 11.0607 7.1875 10.75ZM7.1875 13.75C7.1875 13.4394 7.43934 13.1875 7.75 13.1875H10C10.3107 13.1875 10.5625 13.4394 10.5625 13.75C10.5625 14.0607 10.3107 14.3125 10 14.3125H7.75C7.43934 14.3125 7.1875 14.0607 7.1875 13.75Z" fill="#60A5FA"/>
</g>
<defs>
<clipPath id="clip0_32612_81404">
<rect width="18" height="18" fill="white" transform="translate(1 1)"/>
</clipPath>
</defs>
</svg>
