<svg width="20" height="20" viewBox="0 0 20 20" fill="none" xmlns="http://www.w3.org/2000/svg">
<g clip-path="url(#clip0_32607_78661)">
<path d="M2.3876 3H6.6124C6.7152 3 6.81379 3.04084 6.88648 3.11352C6.95916 3.18621 7 3.2848 7 3.3876C7 3.49039 6.95916 3.58898 6.88648 3.66167C6.81379 3.73436 6.7152 3.77519 6.6124 3.77519H3.3062L6.72481 7.26357C6.76044 7.29996 6.78855 7.34301 6.80754 7.39027C6.82653 7.43753 6.83603 7.48807 6.83549 7.53899C6.83495 7.58992 6.82438 7.64025 6.80439 7.68709C6.78441 7.73394 6.75539 7.77639 6.71899 7.81202C6.6826 7.84765 6.63954 7.87576 6.59229 7.89475C6.54503 7.91374 6.49449 7.92324 6.44356 7.9227C6.39264 7.92216 6.34231 7.91159 6.29547 7.8916C6.24862 7.87161 6.20617 7.84259 6.17054 7.8062L2.77519 4.34109V7.6124C2.77519 7.7152 2.73436 7.81379 2.66167 7.88648C2.58898 7.95916 2.49039 8 2.3876 8C2.2848 8 2.18621 7.95916 2.11352 7.88648C2.04084 7.81379 2 7.7152 2 7.6124V3.3876C2 3.2848 2.04084 3.18621 2.11352 3.11352C2.18621 3.04084 2.2848 3 2.3876 3Z" fill="#60A5FA"/>
<path d="M12.25 6.06892L16.75 8.72839C16.8263 8.77371 16.8896 8.83897 16.9335 8.91756C16.9774 8.99615 17.0003 9.08528 17 9.17592V14.8344C17.0003 14.925 16.9774 15.0141 16.9335 15.0927C16.8896 15.1713 16.8263 15.2366 16.75 15.2819L12.25 17.9311C12.174 17.9762 12.0878 18 12 18C11.9122 18 11.826 17.9762 11.75 17.9311L7.25 15.2819C7.1737 15.2366 7.11039 15.1713 7.06649 15.0927C7.02259 15.0141 6.99965 14.925 7 14.8344V9.17592C6.99965 9.08528 7.02259 8.99615 7.06649 8.91756C7.11039 8.83897 7.1737 8.77371 7.25 8.72839L11.75 6.06892C11.826 6.02377 11.9122 6 12 6C12.0878 6 12.174 6.02377 12.25 6.06892ZM12.52 16.537L16.02 14.4794V10.035L12.52 12.0926V16.537ZM12.02 11.3519L15.615 9.22736L12.02 7.12345L8.415 9.24279L12.02 11.3519ZM8.02 14.4846L11.52 16.5422V12.0926L8.02 10.035V14.4846Z" fill="#60A5FA"/>
</g>
<defs>
<clipPath id="clip0_32607_78661">
<rect width="16" height="16" fill="white" transform="matrix(-1 0 0 1 18 2)"/>
</clipPath>
</defs>
</svg>
