<svg width="20" height="20" viewBox="0 0 20 20" fill="none" xmlns="http://www.w3.org/2000/svg">
<g clip-path="url(#clip0_32612_81410)">
<path d="M5.71429 11.1434C4.29429 11.1434 3.14286 12.2949 3.14286 13.7149C3.14286 15.1349 4.29429 16.2863 5.71429 16.2863C7.13429 16.2863 8.28571 15.1349 8.28571 13.7149C8.28571 12.2949 7.13429 11.1434 5.71429 11.1434ZM5.71429 15.7149C4.61143 15.7149 3.71429 14.8177 3.71429 13.7149C3.71429 12.612 4.61143 11.7149 5.71429 11.7149C6.81714 11.7149 7.71429 12.612 7.71429 13.7149C7.71429 14.8177 6.81714 15.7149 5.71429 15.7149ZM14.2857 11.1434C12.8657 11.1434 11.7143 12.2949 11.7143 13.7149C11.7143 15.1349 12.8657 16.2863 14.2857 16.2863C15.7057 16.2863 16.8571 15.1349 16.8571 13.7149C16.8571 12.2949 15.7057 11.1434 14.2857 11.1434ZM14.2857 15.7149C13.1829 15.7149 12.2857 14.8177 12.2857 13.7149C12.2857 12.612 13.1829 11.7149 14.2857 11.7149C15.3886 11.7149 16.2857 12.612 16.2857 13.7149C16.2857 14.8177 15.3886 15.7149 14.2857 15.7149ZM16.9349 2.57486C16.4029 2.53943 15.9411 2.87029 15.7771 3.33943C15.7137 3.52286 15.8554 3.71486 16.0497 3.71486C16.1731 3.71486 16.2777 3.63429 16.3206 3.51829C16.4069 3.28286 16.644 3.12001 16.9143 3.14629C17.2114 3.17543 17.4286 3.44229 17.4286 3.74058V11.7417C16.7714 10.6971 15.6114 10.0006 14.2857 10.0006C13.32 10.0006 12.4434 10.372 11.7829 10.976L11.5589 10.848C10.5926 10.296 9.40686 10.296 8.44057 10.848L8.21657 10.976C7.55657 10.372 6.68 10.0006 5.71429 10.0006C4.38857 10.0006 3.22857 10.6971 2.57143 11.7417V3.74058C2.57143 3.44229 2.78857 3.17543 3.08571 3.14629C3.356 3.12001 3.59314 3.28286 3.67943 3.51829C3.72171 3.63429 3.82686 3.71486 3.95029 3.71486C4.14514 3.71486 4.28686 3.52286 4.22229 3.33943C4.05886 2.87029 3.59714 2.53943 3.06457 2.57486C2.45829 2.61486 2 3.14572 2 3.75372C2 5.50743 2 10.7931 2 13.6383C2 15.6623 3.58686 17.372 5.60971 17.4274C7.70914 17.4851 9.42857 15.8011 9.42857 13.7149C9.42857 12.8406 9.12457 12.0389 8.61943 11.4046L8.72457 11.3446C9.51486 10.8931 10.4857 10.8931 11.276 11.3446L11.3811 11.4046C10.84 12.084 10.5303 12.9549 10.5766 13.9011C10.6686 15.7731 12.184 17.3091 14.0554 17.4223C16.2109 17.5526 18 15.8429 18 13.7149V3.75486C18 3.14686 17.5417 2.61486 16.9349 2.57486ZM8.85714 13.7149C8.85714 15.448 7.44743 16.8577 5.71429 16.8577C3.98114 16.8577 2.57143 15.448 2.57143 13.7149C2.57143 11.9817 3.98114 10.572 5.71429 10.572C7.44743 10.572 8.85714 11.9817 8.85714 13.7149ZM14.2857 16.8577C12.5526 16.8577 11.1429 15.448 11.1429 13.7149C11.1429 11.9817 12.5526 10.572 14.2857 10.572C16.0189 10.572 17.4286 11.9817 17.4286 13.7149C17.4286 15.448 16.0189 16.8577 14.2857 16.8577Z" fill="#60A5FA"/>
</g>
<defs>
<clipPath id="clip0_32612_81410">
<rect width="16" height="16" fill="white" transform="translate(2 2)"/>
</clipPath>
</defs>
</svg>
