<svg width="20" height="20" viewBox="0 0 20 20" fill="none" xmlns="http://www.w3.org/2000/svg">
<g clip-path="url(#clip0_32607_78735)">
<path d="M6.29588 4.45776C6.64711 4.22307 7.01811 4.02345 7.40352 3.86049C8.33879 3.46507 8.80641 3.26736 9.40307 3.66287C9.99967 4.05838 9.99967 4.70588 9.99967 6.00089V7.33423C9.99967 8.5913 9.99967 9.21983 10.3902 9.61036C10.7807 10.0009 11.4093 10.0009 12.6663 10.0009H13.9997C15.2947 10.0009 15.9422 10.0009 16.3377 10.5975C16.7332 11.1942 16.5355 11.6618 16.1401 12.597C15.9771 12.9824 15.7775 13.3534 15.5428 13.7047C14.8103 14.801 13.7691 15.6555 12.5509 16.1601C11.3327 16.6647 9.99227 16.7967 8.69907 16.5394C7.40587 16.2822 6.21798 15.6473 5.28563 14.715C4.35328 13.7826 3.71834 12.5947 3.46111 11.3015C3.20388 10.0083 3.33589 8.66783 3.84048 7.44967C4.34507 6.23149 5.19955 5.19031 6.29588 4.45776Z" stroke="#60A5FA" stroke-width="1.25"/>
<path d="M11.667 3.54297C14.0097 4.14594 15.854 5.99026 16.457 8.33294" stroke="#BFDBFE" stroke-width="1.5" stroke-linecap="round"/>
</g>
<defs>
<clipPath id="clip0_32607_78735">
<rect width="16" height="16" fill="white" transform="translate(2 2)"/>
</clipPath>
</defs>
</svg>
