<svg width="93" height="22" viewBox="0 0 93 22" fill="none" xmlns="http://www.w3.org/2000/svg">
<path d="M6.67484 5.72159C9.17 5.72159 10.5439 7.01464 10.5439 9.31786V16.3086H7.62445V9.94421C7.62445 8.56024 6.76577 8.05518 5.76568 8.05518C4.56356 8.05518 3.47254 8.6613 3.45232 10.5806V16.3083H0.542969V5.92362H3.45232V7.07525C4.17968 6.21657 5.30096 5.72159 6.67484 5.72159ZM19.2465 5.92383H22.1559V16.3085H19.3981L19.3273 15.0559C18.6 15.9751 17.4484 16.5105 16.024 16.5105C13.5289 16.5105 12.155 15.2074 12.155 12.9143V5.92357H15.0744V12.2879C15.0744 13.6618 15.9331 14.1669 16.9433 14.1669C18.1454 14.1669 19.2364 13.5608 19.2465 11.6515L19.2465 5.92383ZM31.5352 0.791992H34.4446V16.3085H31.6868L31.616 14.9549C31.0201 15.9752 29.7674 16.5509 28.3531 16.5509C25.6155 16.5509 23.3527 14.5305 23.3527 11.1362C23.3527 7.74185 25.6256 5.72144 28.3531 5.72144C29.7169 5.72144 30.919 6.23663 31.5352 7.17611L31.5352 0.791992ZM29.02 14.1366C30.5656 14.1366 31.7677 12.9547 31.7677 11.1363C31.7677 9.31801 30.5555 8.12598 29.02 8.12598C27.4744 8.12598 26.2622 9.26748 26.2622 11.1363C26.2622 12.9951 27.4744 14.1366 29.02 14.1366ZM43.6121 5.92383H46.3801V15.5306C46.3801 19.5714 44.188 21.2081 40.8743 21.2081C37.8942 21.2081 36.2779 19.9555 35.5201 17.9856L37.9344 16.9552C38.5203 18.2988 39.3689 18.9453 40.763 18.9453C42.6015 18.9453 43.4602 17.7937 43.4602 15.743V14.5307C42.854 15.3591 41.662 15.945 40.3084 15.945C37.7323 15.945 35.5705 13.9145 35.5705 10.8132C35.5705 7.70186 37.7424 5.72185 40.3285 5.72185C41.7832 5.72185 42.9752 6.36837 43.5409 7.29776L43.6121 5.92383ZM41.0566 13.5911C42.5718 13.5911 43.7437 12.3587 43.7437 10.8131C43.7437 9.2574 42.592 8.02497 41.0566 8.02497C39.5312 8.02497 38.3795 9.20692 38.3795 10.8131C38.3795 12.3991 39.5513 13.5911 41.0566 13.5911ZM58.1742 10.9646L58.1439 11.6617H50.4462C50.5674 13.3891 51.719 14.2175 53.103 14.2175C54.1435 14.2175 54.9516 13.7326 55.3456 12.8133L58.0125 13.2073C57.3256 15.3085 55.4567 16.5106 53.1232 16.5106C49.7693 16.5106 47.5771 14.5306 47.5771 11.116C47.5771 7.70141 49.8298 5.70128 53.0322 5.70128C55.9718 5.70128 58.1642 7.32781 58.1742 10.9646ZM53.0527 7.76253C51.7294 7.76253 50.8101 8.37875 50.5273 9.76272H55.2954C55.1439 8.43937 54.2447 7.76253 53.0527 7.76253ZM65.493 5.72159C68.2205 5.72159 70.4833 7.742 70.4833 11.1363C70.4833 14.5307 68.2205 16.5511 65.493 16.5511C64.0585 16.5511 62.8059 15.9753 62.22 14.955L62.1493 16.3087H59.3915V0.792148H62.3008V7.18651C62.9069 6.24704 64.1191 5.72159 65.493 5.72159ZM64.8159 14.1366C66.3615 14.1366 67.5738 12.9951 67.5738 11.1363C67.5738 9.26748 66.3615 8.12598 64.8159 8.12598C63.2804 8.12598 62.0682 9.31801 62.0682 11.1363C62.0682 12.9547 63.2703 14.1366 64.8159 14.1366ZM81.449 10.9646L81.4187 11.6617H73.721C73.8422 13.3891 74.9938 14.2175 76.3778 14.2175C77.4183 14.2175 78.2264 13.7326 78.6204 12.8133L81.2873 13.2073C80.6004 15.3085 78.7315 16.5106 76.398 16.5106C73.0441 16.5106 70.8519 14.5306 70.8519 11.116C70.8519 7.70141 73.1046 5.70128 76.307 5.70128C79.2466 5.70128 81.4389 7.32781 81.449 10.9646ZM76.3275 7.76253C75.0042 7.76253 74.0849 8.37875 73.8021 9.76272H78.5702C78.4187 8.43937 77.5195 7.76253 76.3275 7.76253ZM92.4349 10.9646L92.4045 11.6617H84.7068C84.828 13.3891 85.9796 14.2175 87.3636 14.2175C88.4041 14.2175 89.2122 13.7326 89.6062 12.8133L92.2731 13.2073C91.5862 15.3085 89.7173 16.5106 87.3838 16.5106C84.03 16.5106 81.8377 14.5306 81.8377 11.116C81.8377 7.70141 84.0904 5.70128 87.2928 5.70128C90.2324 5.70128 92.4248 7.32781 92.4349 10.9646ZM87.3134 7.76253C85.99 7.76253 85.0708 8.37875 84.7879 9.76272H89.556C89.4045 8.43937 88.5053 7.76253 87.3134 7.76253Z" fill="white"/>
</svg>
