<svg width="92" height="21" viewBox="0 0 92 21" fill="none" xmlns="http://www.w3.org/2000/svg">
<path d="M6.13187 4.9296C8.62704 4.9296 10.0009 6.22265 10.0009 8.52587V15.5166H7.08149V9.15222C7.08149 7.76825 6.2228 7.26318 5.22271 7.26318C4.02059 7.26318 2.92957 7.86931 2.90935 9.78865V15.5163H0V5.13163H2.90935V6.28326C3.63671 5.42458 4.75799 4.9296 6.13187 4.9296ZM18.7035 5.13183H21.6129V15.5165H18.8551L18.7844 14.2639C18.057 15.1831 16.9054 15.7186 15.4811 15.7186C12.9859 15.7186 11.612 14.4154 11.612 12.1223V5.13157H14.5314V11.4959C14.5314 12.8698 15.3901 13.3749 16.4003 13.3749C17.6024 13.3749 18.6934 12.7688 18.7035 10.8595L18.7035 5.13183ZM30.9922 0H33.9016V15.5165H31.1438L31.0731 14.1629C30.4771 15.1832 29.2244 15.7589 27.8102 15.7589C25.0725 15.7589 22.8097 13.7385 22.8097 10.3442C22.8097 6.94985 25.0826 4.92945 27.8102 4.92945C29.1739 4.92945 30.376 5.44464 30.9922 6.38412L30.9922 0ZM28.477 13.3446C30.0226 13.3446 31.2247 12.1627 31.2247 10.3444C31.2247 8.52602 30.0125 7.33399 28.477 7.33399C26.9314 7.33399 25.7192 8.47549 25.7192 10.3444C25.7192 12.2031 26.9315 13.3446 28.477 13.3446ZM43.0692 5.13183H45.8371V14.7386C45.8371 18.7794 43.645 20.4161 40.3313 20.4161C37.3513 20.4161 35.735 19.1635 34.9771 17.1936L37.3915 16.1632C37.9774 17.5068 38.8259 18.1533 40.22 18.1533C42.0586 18.1533 42.9172 17.0017 42.9172 14.951V13.7387C42.3111 14.5671 41.119 15.153 39.7654 15.153C37.1894 15.153 35.0276 13.1225 35.0276 10.0212C35.0276 6.90987 37.1995 4.92986 39.7856 4.92986C41.2402 4.92986 42.4323 5.57638 42.9979 6.50577L43.0692 5.13183ZM40.5136 12.7991C42.0289 12.7991 43.2007 11.5667 43.2007 10.0211C43.2007 8.46541 42.0491 7.23298 40.5136 7.23298C38.9882 7.23298 37.8366 8.41492 37.8366 10.0211C37.8366 11.6071 39.0084 12.7991 40.5136 12.7991ZM57.6313 10.1726L57.601 10.8697H49.9032C50.0244 12.5971 51.176 13.4255 52.56 13.4255C53.6005 13.4255 54.4086 12.9406 54.8026 12.0213L57.4695 12.4153C56.7826 14.5165 54.9138 15.7186 52.5802 15.7186C49.2264 15.7186 47.0341 13.7387 47.0341 10.324C47.0341 6.90942 49.2868 4.90929 52.4892 4.90929C55.4289 4.90929 57.6212 6.53582 57.6313 10.1726ZM52.5098 6.97054C51.1864 6.97054 50.2672 7.58676 49.9843 8.97073H54.7524C54.6009 7.64737 53.7018 6.97054 52.5098 6.97054ZM64.95 4.9296C67.6775 4.9296 69.9403 6.95001 69.9403 10.3444C69.9403 13.7387 67.6775 15.7591 64.95 15.7591C63.5156 15.7591 62.2629 15.1833 61.677 14.163L61.6063 15.5167H58.8485V0.000155376H61.7578V6.39452C62.364 5.45504 63.5761 4.9296 64.95 4.9296ZM64.273 13.3446C65.8186 13.3446 67.0308 12.2031 67.0308 10.3444C67.0308 8.47549 65.8185 7.33399 64.273 7.33399C62.7375 7.33399 61.5253 8.52602 61.5253 10.3444C61.5253 12.1627 62.7274 13.3446 64.273 13.3446ZM80.9061 10.1726L80.8758 10.8697H73.178C73.2992 12.5971 74.4508 13.4255 75.8348 13.4255C76.8753 13.4255 77.6834 12.9406 78.0774 12.0213L80.7443 12.4153C80.0574 14.5165 78.1885 15.7186 75.855 15.7186C72.5012 15.7186 70.3089 13.7387 70.3089 10.324C70.3089 6.90942 72.5616 4.90929 75.764 4.90929C78.7037 4.90929 80.896 6.53582 80.9061 10.1726ZM75.7846 6.97054C74.4612 6.97054 73.542 7.58676 73.2591 8.97073H78.0272C77.8757 7.64737 76.9766 6.97054 75.7846 6.97054ZM91.8919 10.1726L91.8616 10.8697H84.1638C84.2851 12.5971 85.4367 13.4255 86.8206 13.4255C87.8611 13.4255 88.6693 12.9406 89.0632 12.0213L91.7301 12.4153C91.0432 14.5165 89.1744 15.7186 86.8408 15.7186C83.487 15.7186 81.2947 13.7387 81.2947 10.324C81.2947 6.90942 83.5475 4.90929 86.7498 4.90929C89.6895 4.90929 91.8818 6.53582 91.8919 10.1726ZM86.7704 6.97054C85.447 6.97054 84.5278 7.58676 84.2449 8.97073H89.0131C88.8615 7.64737 87.9624 6.97054 86.7704 6.97054Z" fill="#FACF39"/>
</svg>
