<svg width="28" height="28" viewBox="0 0 28 28" fill="none" xmlns="http://www.w3.org/2000/svg">
<path d="M20.9667 23.7982H7.03383C6.31929 23.829 5.6094 23.6691 4.97703 23.335C4.34466 23.0009 3.81256 22.5046 3.43525 21.8971C3.05795 21.2895 2.84902 20.5924 2.82993 19.8775C2.81084 19.1625 2.98228 18.4555 3.32662 17.8286L10.293 5.7214C10.6792 5.08388 11.2233 4.55676 11.8727 4.1909C12.5221 3.82504 13.2548 3.63281 14.0002 3.63281C14.7455 3.63281 15.4783 3.82504 16.1277 4.1909C16.7771 4.55676 17.3213 5.08388 17.7075 5.7214L24.6739 17.8286C25.0182 18.4555 25.1896 19.1625 25.1705 19.8775C25.1515 20.5924 24.9426 21.2895 24.5652 21.8971C24.1879 22.5046 23.6557 23.0009 23.0233 23.335C22.391 23.6691 21.6811 23.829 20.9667 23.7982Z" stroke="#DFB624" stroke-width="1.6" stroke-linecap="round" stroke-linejoin="round"/>
<path d="M12.7466 19.2095C12.7466 19.0439 12.7794 18.8798 12.8431 18.7269C12.9069 18.5739 13.0003 18.4351 13.118 18.3186C13.2356 18.202 13.3752 18.1098 13.5287 18.0474C13.6822 17.985 13.8464 17.9537 14.0122 17.9551C14.2566 17.9596 14.4942 18.0359 14.6955 18.1746C14.8966 18.3134 15.0526 18.5085 15.1436 18.7353C15.2346 18.9622 15.2566 19.2109 15.2071 19.4502C15.1575 19.6895 15.0384 19.909 14.8648 20.0811C14.6912 20.2531 14.4707 20.3702 14.2309 20.4177C13.9911 20.4651 13.7427 20.4408 13.5167 20.3478C13.2906 20.2548 13.097 20.0972 12.9601 19.8947C12.8231 19.6923 12.7488 19.454 12.7466 19.2095ZM13.1498 16.1519L12.993 10.3055C12.9781 10.165 12.9929 10.0229 13.0365 9.88847C13.0801 9.75404 13.1515 9.63027 13.246 9.52521C13.3405 9.42014 13.4561 9.33614 13.5851 9.27863C13.7143 9.22113 13.854 9.19141 13.9954 9.19141C14.1367 9.19141 14.2765 9.22113 14.4055 9.27863C14.5347 9.33614 14.6501 9.42014 14.7447 9.52521C14.8392 9.63027 14.9106 9.75404 14.9542 9.88847C14.9978 10.0229 15.0127 10.165 14.9978 10.3055L14.8522 16.1519C14.8522 16.3776 14.7625 16.5942 14.6029 16.7538C14.4432 16.9134 14.2267 17.0031 14.001 17.0031C13.7752 17.0031 13.5587 16.9134 13.3991 16.7538C13.2395 16.5942 13.1498 16.3776 13.1498 16.1519Z" fill="#DFB624"/>
</svg>
