<svg width="28" height="28" viewBox="0 0 28 28" fill="none" xmlns="http://www.w3.org/2000/svg">
<path d="M11 22H8C5.79086 22 4 20.2091 4 18V9C4 6.79086 5.79086 5 8 5H19C21.2091 5 23 6.79086 23 9V12" stroke="#6155F5" stroke-width="1.5" stroke-linecap="round" stroke-linejoin="round"/>
<path d="M10 4V6" stroke="#6155F5" stroke-width="1.5" stroke-linecap="round" stroke-linejoin="round"/>
<path d="M17 4V6" stroke="#6155F5" stroke-width="1.5" stroke-linecap="round" stroke-linejoin="round"/>
<path d="M4 10H23" stroke="#6155F5" stroke-width="1.5" stroke-linecap="round" stroke-linejoin="round"/>
<path d="M20 18L19 19" stroke="#6155F5" stroke-width="1.5" stroke-linecap="round" stroke-linejoin="round"/>
<path d="M19 24C21.7614 24 24 21.7614 24 19C24 16.2386 21.7614 14 19 14C16.2386 14 14 16.2386 14 19C14 21.7614 16.2386 24 19 24Z" stroke="#6155F5" stroke-width="1.5" stroke-linecap="round" stroke-linejoin="round"/>
</svg>
