<svg width="26" height="26" viewBox="0 0 26 26" fill="none" xmlns="http://www.w3.org/2000/svg">
<path d="M5.41797 13V19.5C5.41797 19.5 5.41797 22.75 13.0013 22.75C20.5846 22.75 20.5846 19.5 20.5846 19.5V13" stroke="#0088FF" stroke-width="1.5"/>
<path d="M5.41797 6.5V13C5.41797 13 5.41797 16.25 13.0013 16.25C20.5846 16.25 20.5846 13 20.5846 13V6.5" stroke="#0088FF" stroke-width="1.5"/>
<path d="M13.0013 3.25C20.5846 3.25 20.5846 6.5 20.5846 6.5C20.5846 6.5 20.5846 9.75 13.0013 9.75C5.41797 9.75 5.41797 6.5 5.41797 6.5C5.41797 6.5 5.41797 3.25 13.0013 3.25Z" stroke="#0088FF" stroke-width="1.5"/>
</svg>
