<svg width="20" height="20" viewBox="0 0 20 20" fill="none" xmlns="http://www.w3.org/2000/svg">
<path fill-rule="evenodd" clip-rule="evenodd" d="M8.3377 2.87132C8.59212 3.10456 8.60937 3.49992 8.37612 3.75437L4.75282 7.70703H16.6654C17.0105 7.70703 17.2904 7.98686 17.2904 8.33203C17.2904 8.6772 17.0105 8.95703 16.6654 8.95703H3.33205C3.08419 8.95703 2.85976 8.81053 2.75995 8.5837C2.66015 8.35687 2.70384 8.09242 2.87132 7.90971L7.45466 2.90971C7.6879 2.65526 8.08326 2.63807 8.3377 2.87132Z" fill="#FFCC00"/>
<path fill-rule="evenodd" clip-rule="evenodd" d="M17.2374 11.4163C17.1377 11.1895 16.9132 11.043 16.6654 11.043H3.33203C2.98686 11.043 2.70703 11.3228 2.70703 11.668C2.70703 12.0131 2.98686 12.293 3.33203 12.293H15.2446L11.6214 16.2456C11.3881 16.5001 11.4053 16.8955 11.6597 17.1287C11.9142 17.362 12.3095 17.3447 12.5428 17.0903L17.1261 12.0903C17.2936 11.9076 17.3373 11.6432 17.2374 11.4163Z" fill="#FFCC00"/>
</svg>
