<svg width="28" height="28" viewBox="0 0 28 28" fill="none" xmlns="http://www.w3.org/2000/svg">
<path d="M9 11H19M9 15H19M23 22L19.6757 20.3378C19.4237 20.2118 19.2977 20.1488 19.1656 20.1044C19.0484 20.065 18.9277 20.0365 18.8052 20.0193C18.6672 20 18.5263 20 18.2446 20H8.2C7.07989 20 6.51984 20 6.09202 19.782C5.71569 19.5903 5.40973 19.2843 5.21799 18.908C5 18.4802 5 17.9201 5 16.8V9.2C5 8.07989 5 7.51984 5.21799 7.09202C5.40973 6.71569 5.71569 6.40973 6.09202 6.21799C6.51984 6 7.0799 6 8.2 6H19.8C20.9201 6 21.4802 6 21.908 6.21799C22.2843 6.40973 22.5903 6.71569 22.782 7.09202C23 7.51984 23 8.0799 23 9.2V22Z" stroke="#34C759" stroke-width="1.75" stroke-linecap="round" stroke-linejoin="round"/>
</svg>
