<svg width="20" height="20" viewBox="0 0 20 20" fill="none" xmlns="http://www.w3.org/2000/svg">
<g clip-path="url(#clip0_34824_46662)">
<path d="M16.1751 13.4444V10.5624C16.1751 10.265 16.0569 9.97973 15.8464 9.76942C15.6359 9.55912 15.3504 9.44097 15.0527 9.44097H10.5629V6.55895C11.0919 6.42248 11.553 6.09792 11.8597 5.64612C12.1663 5.19431 12.2975 4.64628 12.2287 4.10474C12.1598 3.56321 11.8957 3.06535 11.4857 2.70448C11.0757 2.34362 10.5481 2.14453 10.0017 2.14453C9.45528 2.14453 8.92764 2.34362 8.51767 2.70448C8.10769 3.06535 7.84352 3.56321 7.77467 4.10474C7.70582 4.64628 7.83702 5.19431 8.14368 5.64612C8.45034 6.09792 8.91141 6.42248 9.44045 6.55895V9.44097H4.95066C4.65296 9.44097 4.36747 9.55912 4.15697 9.76942C3.94647 9.97973 3.82821 10.265 3.82821 10.5624V13.4444C3.29917 13.5809 2.8381 13.9054 2.53144 14.3572C2.22478 14.809 2.09358 15.3571 2.16243 15.8986C2.23128 16.4401 2.49545 16.938 2.90543 17.2989C3.3154 17.6597 3.84304 17.8588 4.38943 17.8588C4.93583 17.8588 5.46346 17.6597 5.87344 17.2989C6.28342 16.938 6.54759 16.4401 6.61644 15.8986C6.68528 15.3571 6.55408 14.809 6.24742 14.3572C5.94076 13.9054 5.4797 13.5809 4.95066 13.4444V10.5624H15.0527V13.4444C14.5236 13.5809 14.0626 13.9054 13.7559 14.3572C13.4493 14.809 13.3181 15.3571 13.3869 15.8986C13.4558 16.4401 13.7199 16.938 14.1299 17.2989C14.5399 17.6597 15.0675 17.8588 15.6139 17.8588C16.1603 17.8588 16.6879 17.6597 17.0979 17.2989C17.5079 16.938 17.7721 16.4401 17.8409 15.8986C17.9098 15.3571 17.7786 14.809 17.4719 14.3572C17.1652 13.9054 16.7042 13.5809 16.1751 13.4444ZM5.51188 15.6087C5.51188 15.8305 5.44605 16.0473 5.32271 16.2317C5.19938 16.4162 5.02408 16.5599 4.81897 16.6448C4.61387 16.7296 4.38819 16.7518 4.17045 16.7086C3.95272 16.6653 3.75272 16.5585 3.59574 16.4017C3.43876 16.2448 3.33186 16.045 3.28855 15.8275C3.24524 15.61 3.26747 15.3845 3.35243 15.1796C3.43738 14.9747 3.58125 14.7995 3.76583 14.6763C3.95042 14.5531 4.16743 14.4873 4.38943 14.4873C4.68712 14.4873 4.97262 14.6055 5.18312 14.8158C5.39362 15.0261 5.51188 15.3113 5.51188 15.6087ZM8.87922 4.39463C8.87922 4.17283 8.94506 3.95602 9.06839 3.77161C9.19173 3.58719 9.36703 3.44346 9.57213 3.35858C9.77723 3.27371 10.0029 3.2515 10.2207 3.29477C10.4384 3.33804 10.6384 3.44484 10.7954 3.60167C10.9523 3.7585 11.0592 3.95832 11.1026 4.17585C11.1459 4.39338 11.1236 4.61886 11.0387 4.82377C10.9537 5.02868 10.8099 5.20382 10.6253 5.32705C10.4407 5.45027 10.2237 5.51604 10.0017 5.51604C9.70398 5.51604 9.41848 5.39789 9.20798 5.18758C8.99748 4.97728 8.87922 4.69204 8.87922 4.39463ZM15.6139 16.7301C15.3919 16.7301 15.1749 16.6644 14.9903 16.5411C14.8057 16.4179 14.6619 16.2428 14.5769 16.0379C14.492 15.8329 14.4697 15.6075 14.513 15.3899C14.5563 15.1724 14.6632 14.9726 14.8202 14.8158C14.9772 14.6589 15.1772 14.5521 15.3949 14.5089C15.6127 14.4656 15.8384 14.4878 16.0435 14.5727C16.2486 14.6575 16.4239 14.8013 16.5472 14.9857C16.6705 15.1701 16.7364 15.3869 16.7364 15.6087C16.7364 15.9061 16.6181 16.1914 16.4076 16.4017C16.1971 16.612 15.9116 16.7301 15.6139 16.7301Z" fill="#FF8D28"/>
</g>
<defs>
<clipPath id="clip0_34824_46662">
<rect width="20" height="20" fill="white"/>
</clipPath>
</defs>
</svg>
