<svg width="28" height="28" viewBox="0 0 28 28" fill="none" xmlns="http://www.w3.org/2000/svg">
<g clip-path="url(#clip0_34824_46018)">
<path d="M12.2047 22.1664C11.3946 23.3266 10.1582 24.1189 8.76566 24.3703C7.37315 24.6217 5.93774 24.3117 4.77306 23.5081C3.86424 22.8526 3.18177 21.9307 2.82019 20.8701C2.45862 19.8095 2.43583 18.6627 2.75499 17.5885C3.07416 16.5144 3.71947 15.5661 4.60154 14.875C5.4836 14.184 6.55876 13.7843 7.67806 13.7314V15.3998C7.13005 15.443 6.59857 15.6078 6.12229 15.8823C5.646 16.1568 5.23689 16.534 4.92472 16.9864C4.37396 17.7806 4.16047 18.7607 4.33104 19.712C4.50162 20.6633 5.04234 21.5081 5.83473 22.0614C6.63195 22.5967 7.60886 22.7942 8.55139 22.6105C9.49392 22.4268 10.3252 21.8769 10.8631 21.0814C11.2095 20.5804 11.4333 20.0049 11.5164 19.4014V18.2348H18.0264L18.1081 18.1064C18.3299 17.735 18.6567 17.4375 19.0472 17.2514C19.4378 17.0652 19.8746 16.9987 20.3029 17.0602C20.7311 17.1218 21.1316 17.3086 21.4539 17.5971C21.7763 17.8857 22.0061 18.2631 22.1144 18.682C22.2228 19.1008 22.2048 19.5424 22.0629 19.951C21.9209 20.3597 21.6612 20.7173 21.3165 20.9787C20.9719 21.2402 20.5575 21.3939 20.1257 21.4205C19.6939 21.4471 19.2639 21.3453 18.8897 21.1281C18.4307 20.8761 18.0846 20.459 17.9214 19.9614H13.1731C13.0072 20.7558 12.6774 21.5068 12.2047 22.1664ZM20.6981 13.8364C21.4312 13.8671 22.15 14.0494 22.809 14.3719C23.4681 14.6943 24.0532 15.1499 24.5274 15.7099C25.0015 16.2699 25.3544 16.9221 25.5638 17.6253C25.7732 18.3285 25.8345 19.0675 25.7439 19.7957C25.6533 20.5238 25.4127 21.2252 25.0374 21.8557C24.662 22.4862 24.16 23.032 23.5631 23.4587C22.9661 23.8853 22.2872 24.1836 21.5692 24.3347C20.8512 24.4858 20.1097 24.4864 19.3914 24.3364C18.5717 24.2409 17.7849 23.9588 17.0912 23.5119C16.3975 23.0649 15.8155 22.465 15.3897 21.7581L16.8364 20.9998C17.1357 21.4632 17.5333 21.855 18.0011 22.1474C18.4689 22.4397 18.9954 22.6255 19.5431 22.6914C20.0073 22.7489 20.4783 22.7143 20.9291 22.5898C21.38 22.4652 21.8019 22.253 22.1708 21.9654C22.5397 21.6778 22.8483 21.3203 23.0791 20.9134C23.3098 20.5065 23.4581 20.0582 23.5156 19.5939C23.573 19.1297 23.5385 18.6587 23.4139 18.2078C23.2893 17.757 23.0772 17.3351 22.7895 16.9662C22.5019 16.5973 22.1444 16.2887 21.7375 16.0579C21.3306 15.8272 20.8823 15.6789 20.4181 15.6214C19.8148 15.5535 19.2041 15.6254 18.6331 15.8314L17.6414 16.3448L14.6314 10.7331H14.3747C13.793 10.713 13.2431 10.4626 12.846 10.0371C12.6494 9.82636 12.4962 9.57898 12.3952 9.30906C12.2941 9.03914 12.2473 8.75197 12.2572 8.46394C12.2672 8.17591 12.3338 7.89265 12.4532 7.63036C12.5726 7.36806 12.7425 7.13186 12.9533 6.93523C13.3788 6.53812 13.9447 6.32633 14.5264 6.34644C15.1113 6.37067 15.6638 6.62175 16.0667 7.04644C16.4696 7.47114 16.6913 8.03606 16.6847 8.62144C16.6625 9.11644 16.4734 9.58934 16.1481 9.9631L18.3647 14.0581C19.1178 13.8187 19.9134 13.7431 20.6981 13.8364ZM9.62639 10.6631C9.35521 10.0219 9.21298 9.33361 9.20781 8.63746C9.20264 7.94132 9.33464 7.25097 9.59627 6.60583C9.8579 5.9607 10.244 5.37341 10.7326 4.8775C11.2212 4.3816 11.8027 3.98678 12.4439 3.7156C13.0851 3.44442 13.7734 3.30219 14.4695 3.29702C15.1657 3.29185 15.856 3.42385 16.5012 3.68548C17.1463 3.94711 17.7336 4.33325 18.2295 4.82184C18.7254 5.31044 19.1202 5.89193 19.3914 6.5331C19.719 7.28953 19.8683 8.11113 19.8279 8.93445C19.7874 9.75777 19.5582 10.5608 19.1581 11.2814L17.7114 10.4998C17.9652 10.0103 18.1064 9.47024 18.1245 8.91916C18.1427 8.36808 18.0374 7.81991 17.8164 7.31477C17.6624 6.85055 17.4144 6.42306 17.0878 6.05898C16.7613 5.6949 16.3632 5.40205 15.9183 5.19871C15.4735 4.99538 14.9916 4.88592 14.5026 4.87718C14.0136 4.86844 13.528 4.96061 13.0762 5.14792C12.6244 5.33523 12.2161 5.61366 11.8767 5.96584C11.5373 6.31802 11.2742 6.73638 11.1037 7.1948C10.9333 7.65322 10.8592 8.14186 10.886 8.6302C10.9128 9.11855 11.0401 9.59612 11.2597 10.0331C11.5808 10.7749 12.1334 11.3929 12.8347 11.7948L13.2897 12.0398L9.70806 17.8731C9.75415 17.943 9.79323 18.0172 9.82473 18.0948C10.0161 18.4815 10.0892 18.9161 10.0348 19.3442C9.98042 19.7722 9.80097 20.1747 9.51893 20.5013C9.23689 20.8279 8.86478 21.064 8.44919 21.1801C8.0336 21.2962 7.593 21.2872 7.18253 21.1541C6.77205 21.021 6.40996 20.7698 6.14156 20.4319C5.87317 20.0941 5.71039 19.6845 5.67362 19.2546C5.63685 18.8247 5.72772 18.3934 5.93484 18.0149C6.14197 17.6363 6.45615 17.3273 6.83806 17.1264C7.27675 16.8892 7.78647 16.8188 8.27306 16.9281L10.9681 12.5298C10.3858 12.0167 9.92711 11.3786 9.62639 10.6631Z" fill="#FF8D28"/>
</g>
<defs>
<clipPath id="clip0_34824_46018">
<rect width="28" height="28" fill="white"/>
</clipPath>
</defs>
</svg>
