<svg width="15" height="15" viewBox="0 0 15 15" fill="none" xmlns="http://www.w3.org/2000/svg">
<path d="M4 7.5L7 10L11 5M7.5 14.5C6.58075 14.5 5.6705 14.3189 4.82122 13.9672C3.97194 13.6154 3.20026 13.0998 2.55025 12.4497C1.90024 11.7997 1.38463 11.0281 1.03284 10.1788C0.68106 9.32951 0.5 8.41925 0.5 7.5C0.5 6.58075 0.68106 5.6705 1.03284 4.82122C1.38463 3.97194 1.90024 3.20026 2.55025 2.55025C3.20026 1.90024 3.97194 1.38463 4.82122 1.03284C5.6705 0.68106 6.58075 0.5 7.5 0.5C9.35652 0.5 11.137 1.2375 12.4497 2.55025C13.7625 3.86301 14.5 5.64348 14.5 7.5C14.5 9.35652 13.7625 11.137 12.4497 12.4497C11.137 13.7625 9.35652 14.5 7.5 14.5Z" stroke="#20B684"/>
</svg>
