<svg width="16" height="16" viewBox="0 0 16 16" fill="none" xmlns="http://www.w3.org/2000/svg">
<path d="M2.85375 2.28344H11.9966V8.56906H13.1395V1.14062H1.71094V14.8548H7.99656V13.712H2.85375V2.28344Z" fill="#737373"/>
<path d="M3.99609 3.42578H10.8533V4.56859H3.99609V3.42578ZM3.99609 5.71156H9.71031V6.85437H3.99609V5.71156ZM3.99609 7.99719H7.42469V9.14H3.99609V7.99719ZM11.4234 9.14016C9.84547 9.14016 8.56625 10.4194 8.56625 11.9973C8.56625 13.5753 9.84547 14.8545 11.4234 14.8545C13.0014 14.8545 14.2806 13.5753 14.2806 11.9973C14.2806 10.4194 13.0014 9.14016 11.4234 9.14016ZM11.4234 13.7116C10.4781 13.7116 9.70922 12.9425 9.70922 11.9973C9.70922 11.052 10.4783 10.2831 11.4234 10.2831C12.3688 10.2831 13.1377 11.0522 13.1377 11.9973C13.1377 12.9425 12.3686 13.7116 11.4234 13.7116Z" fill="#737373"/>
<path d="M11.2173 12.1519L10.5525 11.5561L9.98047 12.1945L11.2933 13.3706L12.9023 11.5195L12.2556 10.957L11.2173 12.1519Z" fill="#737373"/>
</svg>
