<svg width="20" height="20" viewBox="0 0 20 20" fill="none" xmlns="http://www.w3.org/2000/svg">
<path fill-rule="evenodd" clip-rule="evenodd" d="M9.58268 16.8854H2.45768C2.41352 16.8854 2.37102 16.8671 2.34018 16.8363C2.30852 16.8046 2.29102 16.7629 2.29102 16.7188V15.5096C2.29102 14.8179 2.78518 14.2079 3.54685 13.6896C4.90685 12.7613 7.10768 12.1763 9.58268 12.1763C9.92768 12.1763 10.2077 11.8963 10.2077 11.5513C10.2077 11.2071 9.92768 10.9263 9.58268 10.9263C6.81435 10.9263 4.36352 11.6188 2.84185 12.6563C1.68102 13.4479 1.04102 14.4538 1.04102 15.5096V16.7188C1.04102 17.0938 1.19018 17.4546 1.45602 17.7204C1.72185 17.9854 2.08185 18.1354 2.45768 18.1354H9.58268C9.92768 18.1346 10.2077 17.8546 10.2077 17.5096C10.2077 17.1654 9.92768 16.8846 9.58268 16.8854Z" fill="#3B82F6"/>
<path fill-rule="evenodd" clip-rule="evenodd" d="M9.58333 1.0415C7.05333 1.0415 5 3.09484 5 5.62484C5 8.15484 7.05333 10.2082 9.58333 10.2082C12.1133 10.2082 14.1667 8.15484 14.1667 5.62484C14.1667 3.09484 12.1133 1.0415 9.58333 1.0415ZM9.58333 2.2915C11.4233 2.2915 12.9167 3.78484 12.9167 5.62484C12.9167 7.46484 11.4233 8.95817 9.58333 8.95817C7.74333 8.95817 6.25 7.46484 6.25 5.62484C6.25 3.78484 7.74333 2.2915 9.58333 2.2915Z" fill="#3B82F6"/>
<path fill-rule="evenodd" clip-rule="evenodd" d="M14.5836 11.6147C12.9452 11.6147 11.6152 12.9447 11.6152 14.5831C11.6152 16.2214 12.9452 17.5522 14.5836 17.5522C16.2219 17.5522 17.5527 16.2214 17.5527 14.5831C17.5527 12.9447 16.2219 11.6147 14.5836 11.6147ZM14.5836 12.8647C15.5319 12.8647 16.3027 13.6347 16.3027 14.5831C16.3027 15.5314 15.5319 16.3022 14.5836 16.3022C13.6352 16.3022 12.8644 15.5314 12.8644 14.5831C12.8644 13.6347 13.6352 12.8647 14.5836 12.8647Z" fill="#3B82F6"/>
<path fill-rule="evenodd" clip-rule="evenodd" d="M15.207 12.2388V10.833C15.207 10.488 14.927 10.208 14.582 10.208C14.237 10.208 13.957 10.488 13.957 10.833V12.2397C13.957 12.5838 14.237 12.8647 14.582 12.8647C14.927 12.8638 15.207 12.5838 15.207 12.2388Z" fill="#3B82F6"/>
<path fill-rule="evenodd" clip-rule="evenodd" d="M16.6819 13.3681L17.6761 12.3731C17.9202 12.1298 17.9202 11.7331 17.6761 11.4898C17.4327 11.2456 17.0361 11.2456 16.7927 11.4898L15.7977 12.4839C15.5544 12.7281 15.5544 13.1239 15.7977 13.3681C16.0419 13.6114 16.4377 13.6114 16.6819 13.3681Z" fill="#3B82F6"/>
<path fill-rule="evenodd" clip-rule="evenodd" d="M16.9269 15.208H18.3336C18.6786 15.208 18.9586 14.928 18.9586 14.583C18.9586 14.238 18.6786 13.958 18.3336 13.958H16.9269C16.5827 13.958 16.3027 14.238 16.3027 14.583C16.3019 14.928 16.5827 15.208 16.9269 15.208Z" fill="#3B82F6"/>
<path fill-rule="evenodd" clip-rule="evenodd" d="M15.7977 16.6824L16.7927 17.6766C17.0361 17.9207 17.4327 17.9207 17.6761 17.6766C17.9202 17.4332 17.9202 17.0366 17.6761 16.7932L16.6819 15.7982C16.4377 15.5549 16.0419 15.5549 15.7977 15.7982C15.5544 16.0424 15.5544 16.4382 15.7977 16.6824Z" fill="#3B82F6"/>
<path fill-rule="evenodd" clip-rule="evenodd" d="M13.957 16.9263V18.3329C13.957 18.6779 14.237 18.9579 14.582 18.9579C14.927 18.9579 15.207 18.6779 15.207 18.3329V16.9263C15.207 16.5821 14.927 16.3021 14.582 16.3013C14.237 16.3013 13.957 16.5821 13.957 16.9263Z" fill="#3B82F6"/>
<path fill-rule="evenodd" clip-rule="evenodd" d="M12.4839 15.7982L11.4898 16.7932C11.2456 17.0366 11.2456 17.4332 11.4898 17.6766C11.7331 17.9207 12.1298 17.9207 12.3731 17.6766L13.3681 16.6824C13.6114 16.4382 13.6114 16.0424 13.3681 15.7982C13.1239 15.5549 12.7281 15.5549 12.4839 15.7982Z" fill="#3B82F6"/>
<path fill-rule="evenodd" clip-rule="evenodd" d="M12.2379 13.958H10.832C10.487 13.958 10.207 14.238 10.207 14.583C10.207 14.928 10.487 15.208 10.832 15.208H12.2379C12.5829 15.208 12.8637 14.928 12.8629 14.583C12.8629 14.238 12.5829 13.958 12.2379 13.958Z" fill="#3B82F6"/>
<path fill-rule="evenodd" clip-rule="evenodd" d="M13.3681 12.4839L12.3731 11.4898C12.1298 11.2456 11.7331 11.2456 11.4898 11.4898C11.2456 11.7331 11.2456 12.1298 11.4898 12.3731L12.4839 13.3681C12.7281 13.6114 13.1239 13.6114 13.3681 13.3681C13.6114 13.1239 13.6114 12.7281 13.3681 12.4839Z" fill="#3B82F6"/>
</svg>
