<svg width="21" height="21" viewBox="0 0 21 21" fill="none" xmlns="http://www.w3.org/2000/svg">
<g clip-path="url(#clip0_13569_15754)">
<path d="M10.5 1.23047C12.1921 1.23047 13.8474 1.6969 15.2832 2.562L14.4525 2.70851C14.1179 2.76749 13.8944 3.08659 13.9534 3.42124C14.0125 3.75584 14.3315 3.9793 14.6662 3.92027L16.9607 3.51565C17.2953 3.45667 17.5187 3.13757 17.4597 2.80293L17.0551 0.508512C16.9961 0.173906 16.677 -0.0495469 16.3424 0.00947461H16.3423C16.0077 0.0684961 15.7843 0.387598 15.8433 0.722203L15.9895 1.55133C14.3467 0.543662 12.4447 0 10.5 0C7.69535 0 5.05858 1.09221 3.07535 3.07535C1.09216 5.05858 0 7.69535 0 10.5C0 10.8398 0.275461 11.1152 0.615234 11.1152C0.955008 11.1152 1.23047 10.8398 1.23047 10.5C1.23047 5.38876 5.38876 1.23047 10.5 1.23047Z" fill="#3B82F6"/>
<path d="M20.3852 9.88477C20.0454 9.88477 19.77 10.1602 19.77 10.5C19.77 15.6112 15.6117 19.7695 10.5004 19.7695C8.80842 19.7695 7.15324 19.3031 5.71749 18.438L6.54793 18.2915C6.88253 18.2326 7.10599 17.9135 7.04697 17.5788C6.98794 17.2442 6.66888 17.0207 6.33424 17.0798L4.03974 17.4844C3.70514 17.5434 3.48168 17.8625 3.5407 18.1971L3.94528 20.4915C4.0043 20.8261 4.32341 21.0495 4.65801 20.9905C4.99262 20.9315 5.21611 20.6124 5.15709 20.2778L5.01075 19.4478C6.65371 20.4558 8.55556 21 10.5004 21C13.3051 21 15.9419 19.9078 17.9251 17.9246C19.9083 15.9414 21.0004 13.3046 21.0004 10.5C21.0004 10.1602 20.725 9.88477 20.3852 9.88477Z" fill="#3B82F6"/>
</g>
<path d="M10.6526 3.81202C10.1575 3.81202 9.72431 4.22985 9.72431 4.70737L9.72431 7.99031L4.77344 10.9748L4.77344 12.1686L9.72431 10.6764L9.72431 13.9593L8.48659 14.8547L8.48659 15.75L10.6526 15.1531L12.8186 15.75L12.8186 14.8547L11.5809 13.9593L11.5809 10.6764L16.5318 12.1686L16.5318 10.9748L11.5809 7.99031L11.5809 4.70737C11.5809 4.22985 11.1477 3.81202 10.6526 3.81202Z" fill="#3B82F6"/>
<defs>
<clipPath id="clip0_13569_15754">
<rect width="21" height="21" fill="white"/>
</clipPath>
</defs>
</svg>
