<svg width="94" height="94" viewBox="0 0 94 94" fill="none" xmlns="http://www.w3.org/2000/svg">
<path d="M47.0028 93.3809C38.5327 93.3795 30.2247 91.0589 22.9799 86.6709C15.7352 82.2829 9.83013 75.9949 5.90535 68.4891C1.98057 60.9832 0.185881 52.546 0.71593 44.0925C1.24598 35.6391 4.08054 27.4921 8.91215 20.5353C9.33857 19.9232 9.9907 19.5055 10.7251 19.3741C11.4595 19.2428 12.2159 19.4086 12.8281 19.835C13.4402 20.2614 13.8579 20.9136 13.9893 21.6479C14.1206 22.3823 13.9548 23.1388 13.5284 23.7509C7.75817 32.0601 5.28559 42.2188 6.59178 52.2504C7.89797 62.2819 12.8895 71.4688 20.5951 78.0233C28.3007 84.5778 38.1692 88.0311 48.2804 87.7114C58.3916 87.3916 68.0222 83.3216 75.2982 76.2933C82.5743 69.265 86.9754 59.7811 87.6451 49.6871C88.3148 39.5931 85.2053 29.6109 78.9216 21.6829C72.6378 13.7549 63.6294 8.44825 53.6491 6.79544C43.6688 5.14263 33.4305 7.26193 24.9265 12.7409C24.2995 13.1452 23.5375 13.2839 22.8082 13.1263C22.0789 12.9688 21.4421 12.528 21.0378 11.9009C20.6335 11.2739 20.4949 10.5119 20.6524 9.7826C20.8099 9.05332 21.2507 8.41649 21.8778 8.0122C27.9384 4.10635 34.8261 1.66723 41.9941 0.888507C49.1621 0.109783 56.4129 1.0129 63.1709 3.52615C69.9288 6.0394 76.0078 10.0936 80.9251 15.3668C85.8424 20.6399 89.4626 26.9869 91.4983 33.9037C93.534 40.8205 93.9291 48.1167 92.6523 55.2129C91.3754 62.3091 88.4617 69.0099 84.1426 74.7833C79.8235 80.5566 74.2179 85.2435 67.7709 88.4719C61.3238 91.7002 54.2129 93.381 47.0028 93.3809V93.3809Z" fill="#20B684"/>
<path d="M17.4066 17.8388C16.8413 17.8388 16.289 17.6685 15.8219 17.35C15.3548 17.0316 14.9945 16.5797 14.788 16.0534C14.5816 15.5271 14.5385 14.9508 14.6644 14.3997C14.7904 13.8485 15.0795 13.3481 15.4941 12.9638L16.0135 12.4913C16.2869 12.237 16.6082 12.0397 16.9587 11.9109C17.3091 11.7821 17.6817 11.7244 18.0547 11.7411C18.4277 11.7578 18.7937 11.8486 19.1312 12.0083C19.4688 12.1679 19.7711 12.3931 20.0207 12.6708C20.2703 12.9485 20.4621 13.2732 20.5849 13.6258C20.7077 13.9784 20.759 14.3519 20.736 14.7245C20.7129 15.0972 20.6159 15.4615 20.4505 15.7963C20.2851 16.1311 20.0548 16.4296 19.7729 16.6744L19.3172 17.0906C18.7973 17.5717 18.115 17.8389 17.4066 17.8388Z" fill="#D5DEED"/>
<path d="M61.8047 36.4352C61.5996 36.2285 61.3556 36.0644 61.0868 35.9524C60.818 35.8404 60.5297 35.7827 60.2385 35.7827C59.9473 35.7827 59.659 35.8404 59.3902 35.9524C59.1214 36.0644 58.8774 36.2285 58.6723 36.4352L42.2385 52.8911L35.3341 45.9646C35.1212 45.759 34.8698 45.5972 34.5944 45.4887C34.319 45.3802 34.0249 45.3269 33.7289 45.332C33.4329 45.3372 33.1409 45.4005 32.8694 45.5185C32.5979 45.6365 32.3523 45.8069 32.1466 46.0198C31.9409 46.2327 31.7792 46.484 31.6707 46.7594C31.5621 47.0349 31.5089 47.329 31.514 47.6249C31.5191 47.9209 31.5825 48.213 31.7005 48.4845C31.8185 48.756 31.9888 49.0016 32.2017 49.2073L40.6723 57.6779C40.8774 57.8846 41.1214 58.0487 41.3902 58.1607C41.659 58.2727 41.9473 58.3304 42.2385 58.3304C42.5297 58.3304 42.818 58.2727 43.0868 58.1607C43.3556 58.0487 43.5996 57.8846 43.8047 57.6779L61.8047 39.6779C62.0286 39.4713 62.2073 39.2206 62.3295 38.9415C62.4517 38.6625 62.5148 38.3612 62.5148 38.0565C62.5148 37.7519 62.4517 37.4506 62.3295 37.1715C62.2073 36.8925 62.0286 36.6418 61.8047 36.4352Z" fill="#20B684"/>
</svg>
