<svg width="18" height="18" viewBox="0 0 18 18" fill="none" xmlns="http://www.w3.org/2000/svg">
<g clip-path="url(#clip0_13569_15546)">
<path d="M9 5.29102C7.54618 5.29102 6.36328 4.10811 6.36328 2.6543C6.36328 1.20048 7.54618 0.0175781 9 0.0175781C10.4538 0.0175781 11.6367 1.20048 11.6367 2.6543C11.6367 4.10811 10.4538 5.29102 9 5.29102Z" fill="#3B82F6"/>
<path d="M0.352488 15.0821C-0.374156 13.823 0.0589335 12.2075 1.31809 11.4804C2.60309 10.7391 4.20382 11.2059 4.91988 12.4454C5.64839 13.7065 5.2166 15.3183 3.95481 16.0472C2.69059 16.7763 1.08054 16.3424 0.352488 15.0821Z" fill="#3B82F6"/>
<path d="M14.0457 16.0472C12.7847 15.3188 12.3517 13.7072 13.0806 12.4454C13.7966 11.206 15.3973 10.7391 16.6824 11.4804C17.9415 12.2075 18.3746 13.823 17.648 15.0822C16.9208 16.3408 15.3117 16.7773 14.0457 16.0472Z" fill="#3B82F6"/>
<path d="M2.15418 9.68858L1.10156 9.63089C1.23853 7.13631 2.57134 4.8271 4.66627 3.45312L5.24511 4.33477C3.42877 5.52597 2.27364 7.5277 2.15418 9.68858Z" fill="#3B82F6"/>
<path d="M15.8448 9.68854C15.7254 7.52766 14.5703 5.52594 12.7539 4.33477L13.3328 3.45312C15.4277 4.8271 16.7605 7.1363 16.8975 9.63089L15.8448 9.68854Z" fill="#3B82F6"/>
<path d="M8.99935 17.9824C7.74484 17.9824 6.54545 17.6971 5.43359 17.1352L5.90943 16.1938C7.83547 17.1682 10.1632 17.1682 12.0892 16.1938L12.5651 17.1352C11.4533 17.6971 10.2539 17.9824 8.99935 17.9824Z" fill="#3B82F6"/>
</g>
<defs>
<clipPath id="clip0_13569_15546">
<rect width="18" height="18" fill="white"/>
</clipPath>
</defs>
</svg>
