<svg width="16" height="16" viewBox="0 0 16 16" fill="none" xmlns="http://www.w3.org/2000/svg">
<path d="M13.4387 3.68195L10.6046 1.13323C10.5111 1.04826 10.3894 1.00103 10.263 1.0007H4.03395C3.61416 0.988269 3.2064 1.14185 2.89912 1.42814C2.59185 1.71442 2.40984 2.11031 2.39258 2.52993V13.7443C2.40984 14.1639 2.59185 14.5598 2.89912 14.8461C3.2064 15.1324 3.61416 15.286 4.03395 15.2735H11.9656C12.3854 15.286 12.7931 15.1324 13.1004 14.8461C13.4077 14.5598 13.5897 14.1639 13.6069 13.7443V4.05916C13.6068 3.98803 13.5917 3.91772 13.5627 3.85276C13.5338 3.78779 13.4915 3.72961 13.4387 3.68195ZM12.3377 4.05916H10.5485C10.4133 4.05916 10.2836 4.00546 10.188 3.90986C10.0924 3.81427 10.0387 3.68461 10.0387 3.54942V2.02019H10.0693L12.3377 4.05916ZM12.5875 13.7443C12.5707 13.8936 12.4963 14.0304 12.3802 14.1256C12.264 14.2209 12.1152 14.2669 11.9656 14.254H4.03395C3.88429 14.2669 3.73552 14.2209 3.61934 14.1256C3.50317 14.0304 3.42879 13.8936 3.41207 13.7443V2.52993C3.42879 2.38065 3.50317 2.24381 3.61934 2.14859C3.73552 2.05336 3.88429 2.00729 4.03395 2.02019H9.01925V3.54942C9.01925 3.955 9.18036 4.34396 9.46715 4.63075C9.75393 4.91754 10.1429 5.07865 10.5485 5.07865H12.5875V13.7443ZM10.5485 7.11763C10.5485 7.25282 10.4948 7.38247 10.3992 7.47807C10.3036 7.57366 10.1739 7.62737 10.0387 7.62737H5.96078C5.82559 7.62737 5.69594 7.57366 5.60034 7.47807C5.50475 7.38247 5.45104 7.25282 5.45104 7.11763C5.45104 6.98243 5.50475 6.85278 5.60034 6.75718C5.69594 6.66159 5.82559 6.60788 5.96078 6.60788H10.0387C10.1739 6.60788 10.3036 6.66159 10.3992 6.75718C10.4948 6.85278 10.5485 6.98243 10.5485 7.11763ZM10.5485 9.66634C10.5485 9.80154 10.4948 9.93119 10.3992 10.0268C10.3036 10.1224 10.1739 10.1761 10.0387 10.1761H5.96078C5.82559 10.1761 5.69594 10.1224 5.60034 10.0268C5.50475 9.93119 5.45104 9.80154 5.45104 9.66634C5.45104 9.53115 5.50475 9.4015 5.60034 9.3059C5.69594 9.2103 5.82559 9.1566 5.96078 9.1566H10.0387C10.1739 9.1566 10.3036 9.2103 10.3992 9.3059C10.4948 9.4015 10.5485 9.53115 10.5485 9.66634ZM10.5485 12.2151C10.5485 12.3503 10.4948 12.4799 10.3992 12.5755C10.3036 12.6711 10.1739 12.7248 10.0387 12.7248H5.96078C5.82559 12.7248 5.69594 12.6711 5.60034 12.5755C5.50475 12.4799 5.45104 12.3503 5.45104 12.2151C5.45104 12.0799 5.50475 11.9502 5.60034 11.8546C5.69594 11.759 5.82559 11.7053 5.96078 11.7053H10.0387C10.1739 11.7053 10.3036 11.759 10.3992 11.8546C10.4948 11.9502 10.5485 12.0799 10.5485 12.2151Z" fill="#374151"/>
</svg>
