<svg width="20" height="20" viewBox="0 0 20 20" fill="none" xmlns="http://www.w3.org/2000/svg">
<path fill-rule="evenodd" clip-rule="evenodd" d="M9.11967 1.04297H10.8803C12.4118 1.04295 13.6248 1.04294 14.5742 1.17059C15.5512 1.30194 16.342 1.5787 16.9657 2.20234C17.5893 2.82598 17.866 3.61677 17.9974 4.59379C18.125 5.54313 18.125 6.75616 18.125 8.28763V11.715C18.125 13.2465 18.125 14.4595 17.9974 15.4088C17.866 16.3858 17.5893 17.1766 16.9657 17.8003C16.342 18.4239 15.5512 18.7006 14.5742 18.8321C13.6248 18.9596 12.4118 18.9596 10.8803 18.9596H9.11967C7.58819 18.9596 6.37516 18.9596 5.42582 18.8321C4.4488 18.7006 3.65801 18.4239 3.03437 17.8003C2.41073 17.1766 2.13397 16.3858 2.00262 15.4088C1.87498 14.4595 1.87498 13.2465 1.875 11.715V8.28762C1.87498 6.75615 1.87498 5.54313 2.00262 4.59379C2.13397 3.61677 2.41073 2.82598 3.03437 2.20234C3.65801 1.5787 4.4488 1.30194 5.42582 1.17059C6.37516 1.04294 7.58818 1.04295 9.11967 1.04297ZM5.59238 2.40944C4.75397 2.52215 4.27093 2.73354 3.91825 3.08622C3.56558 3.43889 3.35418 3.92194 3.24147 4.76034C3.12633 5.61673 3.125 6.74562 3.125 8.33464V11.668C3.125 13.257 3.12633 14.3859 3.24147 15.2423C3.35418 16.0806 3.56558 16.5637 3.91825 16.9164C4.27093 17.2691 4.75397 17.4805 5.59238 17.5931C6.44876 17.7083 7.57765 17.7096 9.16667 17.7096H10.8333C12.4223 17.7096 13.5512 17.7083 14.4077 17.5931C15.246 17.4805 15.7291 17.2691 16.0817 16.9164C16.4344 16.5637 16.6458 16.0806 16.7585 15.2423C16.8737 14.3859 16.875 13.257 16.875 11.668V8.33464C16.875 6.74562 16.8737 5.61673 16.7585 4.76034C16.6458 3.92194 16.4344 3.43889 16.0817 3.08622C15.7291 2.73354 15.246 2.52215 14.4077 2.40944C13.5512 2.29429 12.4223 2.29297 10.8333 2.29297H9.16667C7.57765 2.29297 6.44876 2.29429 5.59238 2.40944ZM6.04167 6.66797C6.04167 6.32279 6.32149 6.04297 6.66667 6.04297H13.3333C13.6785 6.04297 13.9583 6.32279 13.9583 6.66797C13.9583 7.01314 13.6785 7.29297 13.3333 7.29297H6.66667C6.32149 7.29297 6.04167 7.01314 6.04167 6.66797ZM6.04167 10.0013C6.04167 9.65614 6.32149 9.3763 6.66667 9.3763H13.3333C13.6785 9.3763 13.9583 9.65614 13.9583 10.0013C13.9583 10.3465 13.6785 10.6263 13.3333 10.6263H6.66667C6.32149 10.6263 6.04167 10.3465 6.04167 10.0013ZM6.04167 13.3346C6.04167 12.9895 6.32149 12.7096 6.66667 12.7096H10.8333C11.1785 12.7096 11.4583 12.9895 11.4583 13.3346C11.4583 13.6798 11.1785 13.9596 10.8333 13.9596H6.66667C6.32149 13.9596 6.04167 13.6798 6.04167 13.3346Z" fill="#3B82F6"/>
</svg>
