<svg width="30" height="30" viewBox="0 0 30 30" fill="none" xmlns="http://www.w3.org/2000/svg">
<path fill-rule="evenodd" clip-rule="evenodd" d="M7.5 13.125C8.23869 13.125 8.97014 12.9795 9.65259 12.6968C10.3351 12.4141 10.9551 11.9998 11.4775 11.4775C11.9998 10.9551 12.4141 10.3351 12.6968 9.65259C12.9795 8.97014 13.125 8.23869 13.125 7.5C13.125 6.76131 12.9795 6.02986 12.6968 5.34741C12.4141 4.66495 11.9998 4.04485 11.4775 3.52252C10.9551 3.00019 10.3351 2.58586 9.65259 2.30318C8.97014 2.02049 8.23869 1.875 7.5 1.875C6.00816 1.875 4.57742 2.46763 3.52252 3.52252C2.46763 4.57742 1.875 6.00816 1.875 7.5C1.875 8.99184 2.46763 10.4226 3.52252 11.4775C4.57742 12.5324 6.00816 13.125 7.5 13.125ZM7.5 9.375C7.99728 9.375 8.47419 9.17746 8.82582 8.82582C9.17746 8.47419 9.375 7.99728 9.375 7.5C9.375 7.00272 9.17746 6.52581 8.82582 6.17417C8.47419 5.82254 7.99728 5.625 7.5 5.625C7.00272 5.625 6.52581 5.82254 6.17417 6.17417C5.82254 6.52581 5.625 7.00272 5.625 7.5C5.625 7.99728 5.82254 8.47419 6.17417 8.82582C6.52581 9.17746 7.00272 9.375 7.5 9.375ZM7.5 28.125C8.99184 28.125 10.4226 27.5324 11.4775 26.4775C12.5324 25.4226 13.125 23.9918 13.125 22.5C13.125 21.0082 12.5324 19.5774 11.4775 18.5225C10.4226 17.4676 8.99184 16.875 7.5 16.875C6.00816 16.875 4.57742 17.4676 3.52252 18.5225C2.46763 19.5774 1.875 21.0082 1.875 22.5C1.875 23.9918 2.46763 25.4226 3.52252 26.4775C4.57742 27.5324 6.00816 28.125 7.5 28.125ZM7.5 24.375C7.99728 24.375 8.47419 24.1775 8.82582 23.8258C9.17746 23.4742 9.375 22.9973 9.375 22.5C9.375 22.0027 9.17746 21.5258 8.82582 21.1742C8.47419 20.8225 7.99728 20.625 7.5 20.625C7.00272 20.625 6.52581 20.8225 6.17417 21.1742C5.82254 21.5258 5.625 22.0027 5.625 22.5C5.625 22.9973 5.82254 23.4742 6.17417 23.8258C6.52581 24.1775 7.00272 24.375 7.5 24.375ZM26.25 15C26.25 15.7387 26.1045 16.4701 25.8218 17.1526C25.5391 17.8351 25.1248 18.4551 24.6025 18.9775C24.0801 19.4998 23.4601 19.9141 22.7776 20.1968C22.0951 20.4795 21.3637 20.625 20.625 20.625C19.8863 20.625 19.1549 20.4795 18.4724 20.1968C17.7899 19.9141 17.1699 19.4998 16.6475 18.9775C16.1252 18.4551 15.7109 17.8351 15.4282 17.1526C15.1455 16.4701 15 15.7387 15 15C15 13.5082 15.5926 12.0774 16.6475 11.0225C17.7024 9.96763 19.1332 9.375 20.625 9.375C22.1168 9.375 23.5476 9.96763 24.6025 11.0225C25.6574 12.0774 26.25 13.5082 26.25 15ZM22.5 15C22.5 15.4973 22.3025 15.9742 21.9508 16.3258C21.5992 16.6775 21.1223 16.875 20.625 16.875C20.1277 16.875 19.6508 16.6775 19.2992 16.3258C18.9475 15.9742 18.75 15.4973 18.75 15C18.75 14.5027 18.9475 14.0258 19.2992 13.6742C19.6508 13.3225 20.1277 13.125 20.625 13.125C21.1223 13.125 21.5992 13.3225 21.9508 13.6742C22.3025 14.0258 22.5 14.5027 22.5 15Z" fill="#2563EB"/>
</svg>
