<svg width="18" height="18" viewBox="0 0 18 18" fill="none" xmlns="http://www.w3.org/2000/svg">
<g clip-path="url(#clip0_13569_15503)">
<path d="M15.9939 5.79113L15.9939 5.79114C16.6275 6.31496 17 7.12223 17 7.97967V14.2298C17 15.77 15.8262 17 14.4 17H12.6H12.5942H12.5884H12.5825H12.5767H12.5709H12.5651H12.5593H12.5535H12.5478H12.542H12.5362H12.5304H12.5246H12.5189H12.5131H12.5074H12.5016H12.4959H12.4901H12.4844H12.4787H12.4729H12.4672H12.4615H12.4558H12.4501H12.4444H12.4387H12.433H12.4273H12.4216H12.416H12.4103H12.4046H12.399H12.3933H12.3877H12.382H12.3764H12.3707H12.3651H12.3595H12.3539H12.3483H12.3427H12.3371H12.3315H12.3259H12.3203H12.3147H12.3091H12.3036H12.298H12.2925H12.2869H12.2814H12.2758H12.2703H12.2648H12.2592H12.2537H12.2482H12.2427H12.2372H12.2317H12.2263H12.2208H12.2153H12.2098H12.2044H12.1989H12.1935H12.188H12.1826H12.1772H12.1718H12.1663H12.1609H12.1555H12.1501H12.1448H12.1394H12.134H12.1286H12.1233H12.1179H12.1126H12.1072H12.1019H12.0966H12.0912H12.0859H12.0806H12.0753H12.07H12.0647H12.0594H12.0542H12.0489H12.0436H12.0384H12.0331H12.0279H12.0227H12.0175H12.0122H12.007H12.0018H11.9966H11.9914H11.9863H11.9811H11.9759H11.9708H11.9656H11.9605H11.9553H11.9502H11.9451H11.94H11.9349H11.9298H11.9247H11.9196H11.9145H11.9095H11.9044H11.8993H11.8943H11.8893H11.8842H11.8792H11.8742H11.8692H11.8642H11.8592H11.8542H11.8493H11.8443H11.8394H11.8344H11.8295H11.8245H11.8196H11.8147H11.8098H11.8049H11.8L11.8 13.273C11.8 11.6299 10.5441 10.3028 9 10.3028C7.45594 10.3028 6.2 11.6299 6.2 13.273V17H6.19998H6.19509H6.19019H6.18529H6.18037H6.17545H6.17052H6.16558H6.16064H6.15568H6.15072H6.14575H6.14077H6.13578H6.13078H6.12578H6.12077H6.11575H6.11072H6.10568H6.10064H6.09559H6.09053H6.08546H6.08039H6.07531H6.07022H6.06512H6.06001H6.0549H6.04978H6.04465H6.03952H6.03437H6.02922H6.02407H6.0189H6.01373H6.00855H6.00336H5.99816H5.99296H5.98775H5.98254H5.97731H5.97208H5.96684H5.9616H5.95635H5.95109H5.94582H5.94055H5.93526H5.92998H5.92468H5.91938H5.91407H5.90876H5.90344H5.89811H5.89277H5.88743H5.88208H5.87673H5.87136H5.86599H5.86062H5.85524H5.84985H5.84445H5.83905H5.83364H5.82823H5.82281H5.81738H5.81195H5.80651H5.80106H5.79561H5.79015H5.78468H5.77921H5.77374H5.76825H5.76276H5.75727H5.75177H5.74626H5.74074H5.73522H5.7297H5.72417H5.71863H5.71309H5.70754H5.70198H5.69642H5.69086H5.68528H5.67971H5.67412H5.66853H5.66294H5.65734H5.65173H5.64612H5.6405H5.63488H5.62925H5.62362H5.61798H5.61234H5.60669H5.60103H5.59537H5.58971H5.58404H5.57836H5.57268H5.567H5.56131H5.55561H5.54991H5.5442H5.53849H5.53278H5.52706H5.52133H5.5156H5.50986H5.50412H5.49838H5.49263H5.48687H5.48111H5.47535H5.46958H5.46381H5.45803H5.45225H5.44646H5.44067H5.43487H5.42907H5.42326H5.41745H5.41164H5.40582H5.4H3.6C2.17383 17 1 15.7699 1 14.2298V7.97967C1 7.12222 1.37254 6.31496 2.00609 5.79113L6.85353 1.78321C6.85354 1.78321 6.85354 1.78321 6.85354 1.78321C8.11658 0.738936 9.8834 0.738926 11.1465 1.7832C11.1465 1.78321 11.1465 1.78321 11.1465 1.78322L15.9939 5.79113Z" stroke="#3B82F6" stroke-width="2"/>
</g>
<defs>
<clipPath id="clip0_13569_15503">
<rect width="18" height="18" fill="white"/>
</clipPath>
</defs>
</svg>
