<svg width="24" height="24" viewBox="0 0 24 24" fill="none" xmlns="http://www.w3.org/2000/svg">
<path fill-rule="evenodd" clip-rule="evenodd" d="M7.72647 14.6799C6.58411 13.6984 5.76817 12.5765 5.38538 11.9971C5.76817 11.4176 6.58411 10.2958 7.72647 9.31428C8.90588 8.30096 10.3622 7.49707 12.0004 7.49707C13.6386 7.49707 15.0949 8.30096 16.2743 9.31428C17.4167 10.2958 18.2326 11.4176 18.6154 11.9971C18.2326 12.5765 17.4167 13.6984 16.2743 14.6799C15.0949 15.6932 13.6386 16.4971 12.0004 16.4971C10.3622 16.4971 8.90588 15.6932 7.72647 14.6799ZM12.0004 5.99707C9.86102 5.99707 8.06824 7.04304 6.74896 8.17653C5.42488 9.31414 4.50604 10.6003 4.09827 11.2244C3.79016 11.6959 3.79016 12.2982 4.09827 12.7697C4.50604 13.3939 5.42488 14.68 6.74896 15.8176C8.06824 16.9511 9.86102 17.9971 12.0004 17.9971C14.1397 17.9971 15.9325 16.9511 17.2519 15.8176C18.5759 14.68 19.4947 13.3939 19.9025 12.7697C20.2106 12.2982 20.2106 11.6959 19.9025 11.2244C19.4947 10.6003 18.5759 9.31414 17.2519 8.17653C15.9325 7.04304 14.1397 5.99707 12.0004 5.99707ZM10.5004 11.9971C10.5004 11.1686 11.172 10.4971 12.0004 10.4971C12.8288 10.4971 13.5004 11.1686 13.5004 11.9971C13.5004 12.8255 12.8288 13.4971 12.0004 13.4971C11.172 13.4971 10.5004 12.8255 10.5004 11.9971ZM12.0004 8.99707C10.3435 8.99707 9.0004 10.3402 9.0004 11.9971C9.0004 13.6539 10.3435 14.9971 12.0004 14.9971C13.6573 14.9971 15.0004 13.6539 15.0004 11.9971C15.0004 10.3402 13.6573 8.99707 12.0004 8.99707Z" fill="#3B82F6"/>
</svg>
