<svg width="17" height="16" viewBox="0 0 17 16" fill="none" xmlns="http://www.w3.org/2000/svg">
<g clip-path="url(#clip0_27511_84540)">
<path fill-rule="evenodd" clip-rule="evenodd" d="M5.02422 10.3821C4.00879 9.50966 3.28351 8.51246 2.94326 7.9974C3.28351 7.48233 4.00879 6.48512 5.02422 5.61269C6.07259 4.71196 7.36707 3.9974 8.82324 3.9974C10.2794 3.9974 11.574 4.71196 12.6223 5.61269C13.6378 6.48512 14.363 7.48233 14.7033 7.9974C14.363 8.51246 13.6378 9.50966 12.6223 10.3821C11.574 11.2829 10.2794 11.9974 8.82324 11.9974C7.36707 11.9974 6.07259 11.2829 5.02422 10.3821ZM8.82324 2.66406C6.9216 2.66406 5.32802 3.59381 4.15532 4.60136C2.97836 5.61257 2.16162 6.7558 1.79915 7.3106C1.52528 7.72973 1.52528 8.26506 1.79915 8.6842C2.16162 9.239 2.97836 10.3822 4.15532 11.3935C5.32802 12.401 6.9216 13.3307 8.82324 13.3307C10.7249 13.3307 12.3185 12.401 13.4912 11.3935C14.6682 10.3822 15.4849 9.239 15.8474 8.6842C16.1212 8.26506 16.1212 7.72973 15.8474 7.3106C15.4849 6.7558 14.6682 5.61257 13.4912 4.60136C12.3185 3.59381 10.7249 2.66406 8.82324 2.66406ZM7.48991 7.9974C7.48991 7.261 8.08691 6.66406 8.82324 6.66406C9.55964 6.66406 10.1566 7.261 10.1566 7.9974C10.1566 8.7338 9.55964 9.33073 8.82324 9.33073C8.08691 9.33073 7.48991 8.7338 7.48991 7.9974ZM8.82324 5.33073C7.35051 5.33073 6.1566 6.52464 6.1566 7.9974C6.1566 9.47013 7.35051 10.6641 8.82324 10.6641C10.296 10.6641 11.4899 9.47013 11.4899 7.9974C11.4899 6.52464 10.296 5.33073 8.82324 5.33073Z" fill="#737373"/>
</g>
<defs>
<clipPath id="clip0_27511_84540">
<rect width="16" height="16" fill="white" transform="translate(0.820312)"/>
</clipPath>
</defs>
</svg>
