<svg width="16" height="16" viewBox="0 0 16 16" fill="none" xmlns="http://www.w3.org/2000/svg">
<path d="M12 5.3335C12 4.27263 11.5786 3.25521 10.8284 2.50507C10.0783 1.75492 9.06087 1.3335 8 1.3335C6.93913 1.3335 5.92172 1.75492 5.17157 2.50507C4.42143 3.25521 4 4.27263 4 5.3335C4 10.0002 2 11.3335 2 11.3335H14C14 11.3335 12 10.0002 12 5.3335Z" stroke="#374151" stroke-width="1.5" stroke-linecap="round" stroke-linejoin="round"/>
<path d="M9.15237 14C9.03516 14.2021 8.86693 14.3698 8.66452 14.4864C8.46211 14.6029 8.23262 14.6643 7.99904 14.6643C7.76545 14.6643 7.53596 14.6029 7.33355 14.4864C7.13114 14.3698 6.96291 14.2021 6.8457 14" stroke="#374151" stroke-width="1.5" stroke-linecap="round" stroke-linejoin="round"/>
</svg>
