<svg width="24" height="24" viewBox="0 0 24 24" fill="none" xmlns="http://www.w3.org/2000/svg">
<path d="M17.319 10.7926C17.2322 10.5979 17.0931 10.4333 16.9185 10.3187C16.7438 10.204 16.541 10.1442 16.3344 10.1464H13.9788L15.1211 5.32957C15.1818 5.08373 15.1608 4.82382 15.0616 4.59191C14.9623 4.36001 14.7905 4.1697 14.5741 4.05181C14.3577 3.93391 14.1093 3.89534 13.8691 3.94234C13.6289 3.98934 13.4111 4.11916 13.2508 4.31077L6.8375 12.0022L6.8271 12.013C6.69562 12.178 6.61217 12.3786 6.58653 12.5912C6.5609 12.8037 6.59415 13.0195 6.68238 13.2131C6.77061 13.4068 6.91017 13.5703 7.0847 13.6845C7.25922 13.7987 7.46148 13.8589 7.66777 13.858H10.0234L8.8811 18.6748C8.81587 18.9232 8.83508 19.1873 8.93548 19.4227C9.03588 19.6581 9.21134 19.8504 9.4323 19.9672C9.58758 20.051 9.75997 20.0948 9.93497 20.095C10.092 20.0955 10.2472 20.0598 10.3893 19.9903C10.5314 19.9209 10.6568 19.8195 10.7566 19.6936L17.1803 11.9896C17.3112 11.8247 17.3938 11.6243 17.4184 11.4121C17.4429 11.2 17.4084 10.985 17.319 10.7926ZM10.1776 18.457L11.235 14.0164C11.2779 13.8501 11.2835 13.6758 11.2515 13.507C11.2194 13.3381 11.1506 13.1791 11.0502 13.0421C10.9498 12.9052 10.8205 12.7939 10.6722 12.7169C10.524 12.64 10.3607 12.5993 10.195 12.598H7.94684L13.8246 5.54737L12.7672 9.98797C12.7243 10.1542 12.7187 10.3285 12.7507 10.4974C12.7828 10.6663 12.8516 10.8253 12.952 10.9622C13.0524 11.0992 13.1817 11.2104 13.33 11.2874C13.4782 11.3644 13.6415 11.4051 13.8072 11.4064H16.0554L10.1776 18.457Z" fill="#3B82F6"/>
</svg>
