<svg width="17" height="16" viewBox="0 0 17 16" fill="none" xmlns="http://www.w3.org/2000/svg">
<path d="M8.8151 8.39049C9.66872 8.39049 10.3607 7.69854 10.3607 6.84492C10.3607 5.99131 9.66872 5.29934 8.8151 5.29934C7.96148 5.29934 7.26953 5.99131 7.26953 6.84492C7.26953 7.69854 7.96148 8.39049 8.8151 8.39049ZM8.8151 8.39049V10.7088M14.9974 8.0041C14.9974 11.4516 10.778 13.9497 9.31077 14.7142C9.15212 14.7969 9.07275 14.8382 8.96271 14.8596C8.87693 14.8763 8.75328 14.8763 8.6675 14.8596C8.55746 14.8382 8.47809 14.7969 8.31944 14.7142C6.8522 13.9497 2.63281 11.4516 2.63281 8.0041V5.0811C2.63281 4.46325 2.63281 4.15433 2.73386 3.88878C2.82313 3.65418 2.96819 3.44486 3.1565 3.27891C3.36966 3.09105 3.65892 2.98258 4.23743 2.76564L8.38095 1.21182C8.54162 1.15157 8.62191 1.12145 8.7046 1.1095C8.77786 1.09892 8.85235 1.09892 8.92561 1.1095C9.0083 1.12145 9.08859 1.15157 9.24926 1.21182L13.3928 2.76564C13.9713 2.98258 14.2605 3.09105 14.4737 3.27891C14.662 3.44486 14.8071 3.65418 14.8963 3.88878C14.9974 4.15433 14.9974 4.46325 14.9974 5.0811V8.0041Z" stroke="#737373" stroke-width="1.25" stroke-linecap="round" stroke-linejoin="round"/>
</svg>
