<svg width="24" height="24" viewBox="0 0 24 24" fill="none" xmlns="http://www.w3.org/2000/svg">
<path d="M11.9941 12.4393C12.9545 12.4393 13.7329 11.6609 13.7329 10.7005C13.7329 9.74023 12.9545 8.96175 11.9941 8.96175C11.0338 8.96175 10.2554 9.74023 10.2554 10.7005C10.2554 11.6609 11.0338 12.4393 11.9941 12.4393ZM11.9941 12.4393V15.0475M18.9492 12.0046C18.9492 15.883 14.2024 18.6934 12.5518 19.5535C12.3733 19.6465 12.284 19.693 12.1602 19.7171C12.0637 19.7359 11.9246 19.7359 11.8281 19.7171C11.7043 19.693 11.615 19.6465 11.4365 19.5535C9.78587 18.6934 5.03906 15.883 5.03906 12.0046V8.71624C5.03906 8.02116 5.03906 7.67362 5.15274 7.37487C5.25317 7.11095 5.41636 6.87547 5.62821 6.68877C5.86802 6.47743 6.19343 6.35541 6.84425 6.11134L11.5057 4.3633C11.6865 4.29552 11.7768 4.26163 11.8698 4.24819C11.9522 4.23628 12.036 4.23628 12.1185 4.24819C12.2115 4.26163 12.3018 4.29552 12.4826 4.3633L17.144 6.11134C17.7948 6.35541 18.1203 6.47743 18.36 6.68877C18.5719 6.87547 18.7351 7.11095 18.8355 7.37487C18.9492 7.67362 18.9492 8.02116 18.9492 8.71624V12.0046Z" stroke="#3B82F6" stroke-width="1.25" stroke-linecap="round" stroke-linejoin="round"/>
</svg>
