<svg width="16" height="16" viewBox="0 0 16 16" fill="none" xmlns="http://www.w3.org/2000/svg">
<g clip-path="url(#clip0_13569_15812)">
<path d="M7.9874 10C9.14542 10 10.0842 9.10457 10.0842 8C10.0842 6.89543 9.14542 6 7.9874 6C6.82938 6 5.89062 6.89543 5.89062 8C5.89062 9.10457 6.82938 10 7.9874 10Z" stroke="#374151" stroke-width="1.25" stroke-linecap="round" stroke-linejoin="round"/>
<path d="M13.1571 10.0003C13.0641 10.2014 13.0363 10.4245 13.0774 10.6407C13.1185 10.857 13.2266 11.0565 13.3877 11.2137L13.4297 11.2537C13.5596 11.3775 13.6627 11.5245 13.7331 11.6864C13.8034 11.8483 13.8396 12.0218 13.8396 12.197C13.8396 12.3722 13.8034 12.5457 13.7331 12.7076C13.6627 12.8694 13.5596 13.0165 13.4297 13.1403C13.2998 13.2643 13.1457 13.3626 12.976 13.4297C12.8063 13.4968 12.6244 13.5314 12.4407 13.5314C12.257 13.5314 12.0751 13.4968 11.9054 13.4297C11.7357 13.3626 11.5815 13.2643 11.4517 13.1403L11.4098 13.1003C11.2451 12.9466 11.0358 12.8435 10.8091 12.8043C10.5824 12.7651 10.3485 12.7916 10.1377 12.8803C9.93102 12.9648 9.75471 13.1052 9.63053 13.284C9.50635 13.4629 9.43971 13.6725 9.43881 13.887V14.0003C9.43881 14.3539 9.29154 14.6931 9.02939 14.9431C8.76724 15.1932 8.41169 15.3337 8.04096 15.3337C7.67023 15.3337 7.31468 15.1932 7.05253 14.9431C6.79039 14.6931 6.64311 14.3539 6.64311 14.0003V13.9403C6.6377 13.7197 6.56282 13.5057 6.4282 13.3261C6.29358 13.1466 6.10545 13.0098 5.88827 12.9337C5.67747 12.8449 5.44362 12.8184 5.21689 12.8577C4.99017 12.8969 4.78095 13 4.61623 13.1537L4.57429 13.1937C4.44447 13.3176 4.29031 13.416 4.12061 13.4831C3.95091 13.5502 3.76902 13.5847 3.58532 13.5847C3.40162 13.5847 3.21972 13.5502 3.05002 13.4831C2.88033 13.416 2.72616 13.3176 2.59634 13.1937C2.46637 13.0698 2.36327 12.9228 2.29292 12.7609C2.22257 12.599 2.18637 12.4255 2.18637 12.2503C2.18637 12.0751 2.22257 11.9016 2.29292 11.7397C2.36327 11.5779 2.46637 11.4308 2.59634 11.307L2.63827 11.267C2.7994 11.1099 2.90749 10.9103 2.9486 10.6941C2.98971 10.4778 2.96196 10.2547 2.86892 10.0537C2.78032 9.85648 2.63321 9.68831 2.44569 9.56986C2.25818 9.45141 2.03845 9.38785 1.81354 9.38699H1.69472C1.32399 9.38699 0.968443 9.24652 0.706296 8.99647C0.444148 8.74642 0.296875 8.40728 0.296875 8.05366C0.296875 7.70004 0.444148 7.3609 0.706296 7.11085C0.968443 6.8608 1.32399 6.72033 1.69472 6.72033H1.75763C1.98897 6.71516 2.21333 6.64374 2.40155 6.51533C2.58976 6.38693 2.73313 6.20748 2.813 6.00033C2.90604 5.79925 2.93379 5.5762 2.89268 5.35993C2.85157 5.14367 2.74349 4.94411 2.58236 4.78699L2.54042 4.74699C2.41046 4.62316 2.30735 4.47611 2.23701 4.31425C2.16666 4.15238 2.13045 3.97888 2.13045 3.80366C2.13045 3.62844 2.16666 3.45494 2.23701 3.29307C2.30735 3.13121 2.41046 2.98416 2.54042 2.86033C2.67025 2.73636 2.82441 2.63801 2.99411 2.57091C3.16381 2.50381 3.3457 2.46928 3.5294 2.46928C3.7131 2.46928 3.895 2.50381 4.0647 2.57091C4.23439 2.63801 4.38856 2.73636 4.51838 2.86033L4.56032 2.90033C4.72504 3.05402 4.93425 3.15712 5.16098 3.19633C5.38771 3.23554 5.62155 3.20907 5.83236 3.12033H5.88827C6.09499 3.03582 6.2713 2.8955 6.39548 2.71664C6.51966 2.53778 6.5863 2.32818 6.5872 2.11366V2.00033C6.5872 1.6467 6.73447 1.30757 6.99662 1.05752C7.25877 0.807468 7.61431 0.666992 7.98505 0.666992C8.35578 0.666992 8.71133 0.807468 8.97348 1.05752C9.23562 1.30757 9.3829 1.6467 9.3829 2.00033V2.06033C9.38379 2.27485 9.45044 2.48444 9.57462 2.6633C9.6988 2.84216 9.8751 2.98248 10.0818 3.06699C10.2926 3.15574 10.5265 3.18221 10.7532 3.143C10.9799 3.10378 11.1891 3.00068 11.3539 2.84699L11.3958 2.80699C11.5256 2.68302 11.6798 2.58468 11.8495 2.51758C12.0192 2.45048 12.2011 2.41594 12.3848 2.41594C12.5685 2.41594 12.7504 2.45048 12.9201 2.51758C13.0898 2.58468 13.2439 2.68302 13.3738 2.80699C13.5037 2.93082 13.6068 3.07787 13.6772 3.23974C13.7475 3.4016 13.7837 3.5751 13.7837 3.75033C13.7837 3.92555 13.7475 4.09905 13.6772 4.26091C13.6068 4.42278 13.5037 4.56983 13.3738 4.69366L13.3318 4.73366C13.1707 4.89078 13.0626 5.09034 13.0215 5.3066C12.9804 5.52286 13.0081 5.74592 13.1012 5.94699V6.00033C13.1898 6.19751 13.3369 6.36567 13.5244 6.48412C13.7119 6.60257 13.9316 6.66614 14.1566 6.66699H14.2754C14.6461 6.66699 15.0017 6.80747 15.2638 7.05752C15.5259 7.30757 15.6732 7.6467 15.6732 8.00033C15.6732 8.35395 15.5259 8.69309 15.2638 8.94313C15.0017 9.19318 14.6461 9.33366 14.2754 9.33366H14.2125C13.9876 9.33451 13.7678 9.39808 13.5803 9.51653C13.3928 9.63498 13.2457 9.80315 13.1571 10.0003Z" stroke="#374151" stroke-width="1.25" stroke-linecap="round" stroke-linejoin="round"/>
</g>
<defs>
<clipPath id="clip0_13569_15812">
<rect width="16" height="16" fill="white"/>
</clipPath>
</defs>
</svg>
