<svg width="24" height="24" viewBox="0 0 24 24" fill="none" xmlns="http://www.w3.org/2000/svg">
<g clip-path="url(#clip0_30472_116579)">
<path d="M20.9251 11.5779C20.6304 9.30948 19.483 7.23837 17.7161 5.78555C15.9492 4.33273 13.6953 3.60722 11.4127 3.7565C9.1301 3.90578 6.98997 4.91864 5.42733 6.5892C3.86468 8.25977 2.99679 10.4627 3.00006 12.7502C2.99573 13.9746 3.24385 15.1867 3.72892 16.3109C4.21398 17.4351 4.92559 18.4473 5.81931 19.2842C6.50281 19.917 7.40342 20.2628 8.3348 20.2502H15.6601C16.644 20.2525 17.5894 19.8675 18.2918 19.1784C19.2928 18.2045 20.0523 17.01 20.5095 15.6903C20.9667 14.3707 21.109 12.9624 20.9251 11.5779V11.5779ZM17.2433 18.1029C16.8213 18.5187 16.2524 18.7512 15.6601 18.7502H8.3348C7.78676 18.7614 7.25518 18.5626 6.84906 18.1944C6.10451 17.497 5.51167 16.6536 5.10752 15.7169C4.70337 14.7803 4.49658 13.7703 4.50006 12.7502C4.50079 11.6943 4.72414 10.6505 5.15551 9.68687C5.58688 8.72319 6.21659 7.8613 7.00355 7.15742C8.37091 5.92435 10.1483 5.24445 11.9896 5.25017C12.2837 5.25029 12.5777 5.26682 12.8701 5.29967C14.2768 5.46304 15.6084 6.02159 16.7108 6.91061C17.8131 7.79963 18.641 8.98275 19.0987 10.3229C19.5563 11.6631 19.6249 13.1055 19.2966 14.4831C18.9682 15.8607 18.2563 17.117 17.2433 18.1067V18.1029ZM8.85531 15.9639C8.99753 16.1032 9.07861 16.2932 9.08072 16.4922C9.08283 16.6912 9.00579 16.8829 8.86655 17.0252C8.72732 17.1674 8.53728 17.2485 8.33826 17.2506C8.13924 17.2527 7.94753 17.1757 7.80531 17.0364C6.95403 16.2026 6.37033 15.1341 6.12861 13.9672C5.8869 12.8003 5.99812 11.5879 6.44809 10.4845C6.89807 9.38109 7.66642 8.43665 8.6552 7.77158C9.64399 7.10651 10.8084 6.75093 12.0001 6.75017C12.2869 6.75008 12.5734 6.77039 12.8573 6.81092C12.9548 6.82498 13.0486 6.85811 13.1333 6.90843C13.218 6.95875 13.292 7.02526 13.351 7.10418C13.41 7.18309 13.4528 7.27285 13.4771 7.36834C13.5014 7.46382 13.5067 7.56316 13.4926 7.66067C13.4796 7.75871 13.4472 7.85319 13.3973 7.93853C13.3473 8.02388 13.2808 8.09837 13.2016 8.15763C13.1224 8.21688 13.0322 8.25971 12.9363 8.28359C12.8403 8.30747 12.7405 8.31191 12.6428 8.29667C11.7042 8.1626 10.7472 8.32844 9.90837 8.77052C9.06958 9.2126 8.39186 9.90834 7.97192 10.7584C7.55199 11.6085 7.4113 12.5696 7.56994 13.5043C7.72858 14.4391 8.17843 15.3 8.85531 15.9639V15.9639ZM17.9393 11.8929C17.9798 12.1769 18.0001 12.4633 18.0001 12.7502C18.0025 13.5494 17.8438 14.341 17.5335 15.0775C17.2232 15.8141 16.7677 16.4806 16.1941 17.0372C16.0516 17.1764 15.8597 17.2534 15.6606 17.2511C15.4614 17.2489 15.2713 17.1676 15.1321 17.0252C14.9928 16.8827 14.9159 16.6908 14.9181 16.4917C14.9204 16.2925 15.0016 16.1024 15.1441 15.9632C15.6508 15.4692 16.0335 14.8624 16.2608 14.1923C16.4881 13.5221 16.5537 12.8077 16.4521 12.1074C16.4236 11.9104 16.4746 11.7101 16.5938 11.5507C16.713 11.3913 16.8907 11.2857 17.0877 11.2573C17.2847 11.2288 17.485 11.2798 17.6444 11.399C17.8038 11.5182 17.9094 11.6959 17.9378 11.8929H17.9393ZM13.4446 12.3662C13.5348 12.6907 13.515 13.0361 13.3883 13.3482C13.2616 13.6603 13.0351 13.9217 12.7441 14.0915C12.4532 14.2614 12.1142 14.33 11.7801 14.2868C11.446 14.2437 11.1356 14.091 10.8974 13.8528C10.6592 13.6146 10.5066 13.3042 10.4634 12.9701C10.4202 12.636 10.4889 12.297 10.6587 12.0061C10.8285 11.7151 11.0899 11.4886 11.402 11.3619C11.7142 11.2352 12.0595 11.2154 12.3841 11.3057L15.2198 8.46992C15.289 8.39829 15.3717 8.34115 15.4633 8.30184C15.5548 8.26253 15.6532 8.24185 15.7528 8.24098C15.8523 8.24011 15.9511 8.25909 16.0433 8.2968C16.1354 8.33451 16.2192 8.3902 16.2896 8.46062C16.36 8.53104 16.4157 8.61478 16.4534 8.70695C16.4911 8.79912 16.5101 8.89788 16.5092 8.99747C16.5084 9.09705 16.4877 9.19547 16.4484 9.28697C16.4091 9.37847 16.3519 9.46123 16.2803 9.53042L13.4446 12.3662Z" fill="#3B82F6"/>
</g>
<defs>
<clipPath id="clip0_30472_116579">
<rect width="18" height="18" fill="white" transform="translate(3 3)"/>
</clipPath>
</defs>
</svg>
