<svg width="21" height="21" viewBox="0 0 21 21" fill="none" xmlns="http://www.w3.org/2000/svg">
<path d="M20.1134 14.2352C20.6437 14.0299 21 13.5073 21 12.9347V10.2857C21 9.5005 20.3612 8.86169 19.576 8.86169H19.4306C19.8617 8.30367 19.8219 7.49677 19.3104 6.9852L17.4372 5.11204C17.0324 4.70723 16.4109 4.58959 15.8907 4.81936C15.6113 4.9428 15.2784 4.8805 15.0623 4.66445C14.8463 4.44836 14.784 4.11544 14.9073 3.83606C15.1371 3.31588 15.0195 2.69436 14.6146 2.28951L12.7415 0.416356C12.1864 -0.138744 11.283 -0.138826 10.7277 0.416356L2.28245 8.86169H1.42396C0.638771 8.86169 0 9.5005 0 10.2857V12.9347C0 13.5073 0.3563 14.0299 0.886612 14.2352C1.17143 14.3455 1.36282 14.6249 1.36282 14.9305C1.36282 15.2361 1.17143 15.5155 0.886612 15.6258C0.3563 15.8312 0 16.3539 0 16.9263V19.5754C0 20.3605 0.638771 20.9993 1.42396 20.9993H19.576C20.3612 20.9993 21 20.3605 21 19.5754V16.9263C21 16.3539 20.6437 15.8312 20.1134 15.6258C19.8286 15.5155 19.6372 15.2361 19.6372 14.9305C19.6372 14.6249 19.8286 14.3455 20.1134 14.2352ZM11.6012 1.28991C11.6748 1.21633 11.7945 1.21633 11.868 1.28987L13.7412 3.16303C13.7881 3.20993 13.8026 3.27981 13.7773 3.337C13.4494 4.07946 13.6148 4.96397 14.1888 5.53793C14.7628 6.11193 15.6473 6.27725 16.3898 5.94936C16.4469 5.92416 16.5168 5.93866 16.5637 5.98556L18.4368 7.85867C18.5104 7.93226 18.5104 8.052 18.4369 8.1255L17.7007 8.86169H14.4822L9.25581 3.63529L11.6012 1.28991ZM8.38233 4.50876L12.7353 8.86169H4.02937L8.38233 4.50876ZM1.23529 19.5754V16.9263C1.23529 16.86 1.27445 16.8003 1.33272 16.7777C2.08958 16.4846 2.59807 15.7423 2.59807 14.9305C2.59807 14.1187 2.08954 13.3764 1.33264 13.0832C1.27441 13.0607 1.23529 13.001 1.23529 12.9347V10.2857C1.23529 10.1816 1.31995 10.097 1.42396 10.097H15.4412V19.764H1.42396C1.31995 19.764 1.23529 19.6794 1.23529 19.5754ZM19.7647 12.9347C19.7647 13.001 19.7256 13.0607 19.6673 13.0833C18.9105 13.3764 18.4019 14.1187 18.4019 14.9305C18.4019 15.7423 18.9104 16.4846 19.6673 16.7777C19.7255 16.8003 19.7647 16.8601 19.7647 16.9263V19.5754C19.7647 19.6794 19.68 19.764 19.576 19.764H16.6765V10.097H19.576C19.68 10.097 19.7647 10.1816 19.7647 10.2857V12.9347Z" fill="#3B82F6"/>
<path d="M4.32422 11.7339H13.5889V12.9692H4.32422V11.7339Z" fill="#3B82F6"/>
<path d="M4.32422 14.2061H13.5889V15.4413H4.32422V14.2061Z" fill="#3B82F6"/>
<path d="M4.32422 16.6753H13.5889V17.9106H4.32422V16.6753Z" fill="#3B82F6"/>
</svg>
