<svg width="24" height="24" viewBox="0 0 24 24" fill="none" xmlns="http://www.w3.org/2000/svg">
<path d="M9.32136 4.11805C8.68859 4.49539 7.56366 9.41139 7.08029 11.8222C4.92709 12.1367 2.46632 13.1415 6.02566 13.8662C10.3496 14.7467 16.0007 14.1283 18.2857 13.709C20.9222 12.9229 19.604 12.6084 17.7584 11.8223C17.231 3.80364 16.0446 3.17471 15.3855 3.01738C14.7263 2.86026 14.1551 3.80363 13.8035 4.4326C13.0126 6.31934 11.9579 6.6338 11.6943 6.47647C11.3814 6.28985 10.1123 3.64636 9.32136 4.11805Z" stroke="#3B82F6"/>
<path d="M11.9392 16.6705C11.2429 15.9216 7.29673 16.0464 5.4107 16.2025H5.26562V17.1385C5.84594 17.2946 6.1361 18.5428 6.1361 19.4789C6.1361 20.2278 6.71641 20.7271 7.00657 20.8831C7.58689 21.0392 8.74752 21.0392 9.61799 20.8831C12.2294 19.947 11.6491 17.6066 12.0843 17.4506C12.4325 17.3258 12.713 17.3986 12.8097 17.4506C13.39 21.3512 16.2916 21.0392 17.7424 20.8831C19.1932 20.7271 18.903 18.6988 19.0481 18.0747C19.1642 17.5754 19.5801 17.2425 19.7735 17.1385V16.2025C13.8253 15.2664 13.8253 16.5144 13.245 16.6705C12.6646 16.8267 12.8097 16.8264 11.9392 16.6705Z" fill="#3B82F6"/>
</svg>
