<svg width="16" height="17" viewBox="0 0 16 17" fill="none" xmlns="http://www.w3.org/2000/svg">
<path d="M5.52913 1.99386C4.96661 2.3293 3.96658 6.69927 3.53688 8.84233C1.62275 9.12187 -0.564801 10.015 2.59935 10.6593C6.44322 11.442 11.4668 10.8923 13.4981 10.5195C15.842 9.82073 14.6701 9.54121 13.0294 8.84237C12.5606 1.71438 11.5059 1.15531 10.9199 1.01545C10.334 0.875777 9.82614 1.71437 9.51363 2.27348C8.81049 3.95066 7.87295 4.23019 7.63857 4.09033C7.36047 3.92444 6.23228 1.57457 5.52913 1.99386Z" stroke="#737373"/>
<path d="M7.85453 13.1525C7.23547 12.4867 3.72747 12.5977 2.05085 12.7364H1.92188V13.5685C2.43776 13.7072 2.6957 14.8168 2.6957 15.6489C2.6957 16.3147 3.21158 16.7585 3.46952 16.8972C3.98541 17.0359 5.01717 17.0359 5.791 16.8972C8.11247 16.065 7.59659 13.9846 7.9835 13.8459C8.29303 13.7349 8.54237 13.7997 8.62835 13.8459C9.14424 17.3133 11.7237 17.0359 13.0134 16.8972C14.3031 16.7585 14.0451 14.9555 14.1741 14.4007C14.2773 13.9568 14.647 13.661 14.819 13.5685V12.7364C9.53115 11.9043 9.53115 13.0137 9.01527 13.1525C8.49938 13.2913 8.62835 13.2911 7.85453 13.1525Z" fill="#737373"/>
</svg>
