<svg width="16" height="16" viewBox="0 0 16 16" fill="none" xmlns="http://www.w3.org/2000/svg">
<circle cx="8" cy="8" r="7.5" fill="white" stroke="#374151"/>
<path d="M5.66194 12.4264L3.41068 13.5935C3.35541 13.5934 3.12421 13.7767 3.01312 13.8696C4.50847 14.8578 5.99207 15.8953 7.82597 15.9272C9.64633 15.959 11.9839 14.8584 12.6453 14.0316C12.5275 13.9294 12.3993 13.8371 12.2567 13.7636L9.88924 12.5384C9.58334 12.3801 9.39391 12.0641 9.39989 11.7222L9.41612 10.7934C9.48458 10.7188 9.563 10.6228 9.64708 10.5093C9.98054 10.0592 10.2355 9.56222 10.4154 9.03928C10.7233 8.95095 10.9539 8.67445 10.9597 8.34117L10.977 7.34973C10.9808 7.13164 10.8864 6.93506 10.7367 6.79596L10.7618 5.36276C10.7618 5.36276 11.0978 3.1376 8.05075 3.08449C5.00374 3.03138 5.26176 5.2669 5.26176 5.2669L5.2367 6.7001C5.08201 6.83389 4.98101 7.02707 4.9772 7.24515L4.95987 8.2366C4.9553 8.49774 5.08977 8.72998 5.29476 8.8664C5.52581 9.94916 6.1666 10.7367 6.1666 10.7367L6.15077 11.6426C6.14472 11.9725 5.9572 12.2733 5.66194 12.4264Z" fill="#374151"/>
</svg>
