<svg width="22" height="23" viewBox="0 0 22 23" fill="none" xmlns="http://www.w3.org/2000/svg">
<path d="M17.7478 9.94124C17.6377 9.70326 17.4612 9.50213 17.2395 9.36203C17.0179 9.22192 16.7605 9.1488 16.4982 9.15144H13.5084L14.9582 3.26424C15.0353 2.96378 15.0087 2.6461 14.8827 2.36266C14.7567 2.07922 14.5387 1.84662 14.264 1.70253C13.9893 1.55844 13.674 1.5113 13.3692 1.56875C13.0643 1.62619 12.7878 1.78485 12.5844 2.01904L4.44444 11.4196L4.43124 11.4328C4.26436 11.6346 4.15844 11.8797 4.12591 12.1395C4.09337 12.3993 4.13557 12.663 4.24756 12.8997C4.35955 13.1364 4.53668 13.3362 4.75819 13.4758C4.9797 13.6154 5.23642 13.6889 5.49824 13.6878H8.48804L7.03824 19.575C6.95546 19.8786 6.97983 20.2015 7.10726 20.4892C7.23469 20.7769 7.45739 21.0119 7.73784 21.1546C7.93492 21.2571 8.15373 21.3106 8.37584 21.3108C8.57516 21.3115 8.77213 21.2678 8.95249 21.183C9.13284 21.0981 9.29207 20.9742 9.41864 20.8202L17.5718 11.4042C17.7379 11.2027 17.8428 10.9578 17.874 10.6985C17.9052 10.4392 17.8614 10.1764 17.7478 9.94124ZM8.68384 19.3088L10.0258 13.8814C10.0803 13.6782 10.0875 13.4653 10.0468 13.2588C10.0061 13.0524 9.91874 12.8581 9.79129 12.6907C9.66385 12.5233 9.49975 12.3874 9.31159 12.2933C9.12343 12.1992 8.91622 12.1494 8.70584 12.1478H5.85244L13.3126 3.53044L11.9706 8.95784C11.9162 9.16105 11.909 9.37403 11.9497 9.58044C11.9903 9.78685 12.0777 9.98121 12.2052 10.1486C12.3326 10.316 12.4967 10.4519 12.6849 10.546C12.8731 10.6401 13.0803 10.6899 13.2906 10.6914H16.144L8.68384 19.3088Z" fill="white"/>
</svg>
