<!DOCTYPE svg PUBLIC "-//W3C//DTD SVG 1.1//EN" "http://www.w3.org/Graphics/SVG/1.1/DTD/svg11.dtd">

<!-- Uploaded to: SVG Repo, www.svgrepo.com, Transformed by: SVG Repo Mixer Tools -->
<svg width="20px" height="20px" viewBox="0 0 1024 1024" class="icon" version="1.1" xmlns="http://www.w3.org/2000/svg" fill="#ffffff" stroke="#ffffff">

<g id="SVGRepo_bgCarrier" stroke-width="0"/>

<g id="SVGRepo_tracerCarrier" stroke-linecap="round" stroke-linejoin="round"/>

<g id="SVGRepo_iconCarrier">



<path d="M865 386.5c11 0 20-9 20-20s-9-20-20-20h-69.7v-56.8c0-38.6-31.4-70-70-70h-27.8v-67.3c0-11-9-20-20-20s-20 9-20 20v67.3H611v-67.3c0-11-9-20-20-20s-20 9-20 20v67.3h-46.5v-67.3c0-11-9-20-20-20s-20 9-20 20v67.3H438v-67.3c0-11-9-20-20-20s-20 9-20 20v67.3h-85.8c-38.6 0-70 31.4-70 70v56.8h-69.7c-11 0-20 9-20 20s9 20 20 20h69.7V433h-69.7c-11 0-20 9-20 20s9 20 20 20h69.7v46.5h-69.7c-11 0-20 9-20 20s9 20 20 20h69.7V606h-69.7c-11 0-20 9-20 20s9 20 20 20h69.7v56.8c0 38.6 31.4 70 70 70H343v72.5c0 11 9 20 20 20s20-9 20-20v-72.5h46.5v72.5c0 11 9 20 20 20s20-9 20-20v-72.5H516v72.5c0 11 9 20 20 20s20-9 20-20v-72.5h46.5v72.5c0 11 9 20 20 20s20-9 20-20v-72.5h82.8c38.6 0 70-31.4 70-70V646H865c11 0 20-9 20-20s-9-20-20-20h-69.7v-46.5H865c11 0 20-9 20-20s-9-20-20-20h-69.7V473H865c11 0 20-9 20-20s-9-20-20-20h-69.7v-46.5H865zM755.3 702.7c0 16.5-13.5 30-30 30H312.2c-16.5 0-30-13.5-30-30v-413c0-16.5 13.5-30 30-30h413.1c16.5 0 30 13.5 30 30v413z" fill="#737373"/>

<path d="M407.6 521.4h50.3l11 28.6h27.6l-50.4-125.8h-26.9l-49 125.8h27l10.4-28.6z m24.8-67.9l17.3 46.7h-34.3l17-46.7zM535.4 502.6H552c11.5 0 20.3-0.6 26.4-1.8 4.5-1 8.9-3 13.2-6 4.3-3 7.9-7.1 10.7-12.4s4.2-11.8 4.2-19.5c0-10-2.4-18.2-7.3-24.5-4.9-6.3-10.9-10.4-18.1-12.3-4.7-1.3-14.8-1.9-30.2-1.9H510V550h25.4v-47.4z m0-57.1h12.3c9.2 0 15.2 0.3 18.3 0.9 4.1 0.7 7.5 2.6 10.2 5.6 2.7 3 4 6.8 4 11.3 0 3.7-1 7-2.9 9.8-1.9 2.8-4.6 4.9-7.9 6.2-3.4 1.3-10.1 2-20.1 2h-13.9v-35.8zM626.5 424.2h25.4V550h-25.4z" fill="#737373"/>

</g>

</svg>