<svg width="16" height="16" viewBox="0 0 16 16" fill="none" xmlns="http://www.w3.org/2000/svg">
<g clip-path="url(#clip0_13093_11793)">
<path d="M13.75 10.2375C13.6675 10.2375 13.5875 10.1975 13.54 10.1225C13.465 10.0075 13.5 9.8525 13.615 9.7775C14.4825 9.2225 15 8.2775 15 7.25C15 5.595 13.655 4.25 12 4.25C11.7725 4.25 11.5425 4.2775 11.3 4.335C11.2275 4.3525 11.1525 4.335 11.0925 4.2925C11.0325 4.2475 10.9975 4.18 10.9925 4.105C10.915 2.505 9.6025 1.25 8 1.25C6.3975 1.25 5.085 2.505 5.0075 4.105C5.005 4.18 4.9675 4.2475 4.9075 4.2925C4.8475 4.3375 4.7725 4.3525 4.7 4.335C4.4575 4.2775 4.2275 4.25 4 4.25C2.345 4.25 1 5.595 1 7.25C1 8.2775 1.5175 9.2225 2.385 9.7775C2.5 9.8525 2.535 10.0075 2.46 10.1225C2.385 10.2375 2.23 10.2725 2.115 10.1975C1.1025 9.55 0.5 8.4475 0.5 7.25C0.5 5.32 2.07 3.75 4 3.75C4.1775 3.75 4.3525 3.765 4.5325 3.7925C4.7575 2.065 6.2275 0.75 8 0.75C9.7725 0.75 11.2425 2.065 11.4675 3.7925C11.6475 3.7625 11.825 3.75 12 3.75C13.93 3.75 15.5 5.32 15.5 7.25C15.5 8.4475 14.895 9.55 13.885 10.1975C13.8425 10.225 13.7975 10.2375 13.75 10.2375Z" fill="#374151"/>
<path d="M11.75 7.25H4.25C3.56 7.25 3 7.81 3 8.5V14C3 14.69 3.56 15.25 4.25 15.25H11.75C12.44 15.25 13 14.69 13 14V8.5C13 7.81 12.44 7.25 11.75 7.25ZM12.5 14C12.5 14.4125 12.1625 14.75 11.75 14.75H4.25C3.8375 14.75 3.5 14.4125 3.5 14V8.5C3.5 8.0875 3.8375 7.75 4.25 7.75H11.75C12.1625 7.75 12.5 8.0875 12.5 8.5V14Z" fill="#374151"/>
<path d="M9 9.5H7.75C7.6125 9.5 7.5 9.6125 7.5 9.75V12.75C7.5 12.8875 7.6125 13 7.75 13C7.8875 13 8 12.8875 8 12.75V11.5H9C9.5525 11.5 10 11.0525 10 10.5C10 9.9475 9.5525 9.5 9 9.5ZM9 11H8V10H9C9.275 10 9.5 10.225 9.5 10.5C9.5 10.775 9.275 11 9 11Z" fill="#374151"/>
<path d="M10.75 9.5C10.6125 9.5 10.5 9.6125 10.5 9.75V12.75C10.5 12.8875 10.6125 13 10.75 13C10.8875 13 11 12.8875 11 12.75V9.75C11 9.6125 10.8875 9.5 10.75 9.5Z" fill="#374151"/>
<path d="M5.98742 9.67C5.95242 9.5675 5.85742 9.5 5.74992 9.5C5.64242 9.5 5.54742 9.57 5.51242 9.67L4.51242 12.67C4.46992 12.8 4.53992 12.9425 4.66992 12.985C4.80242 13.03 4.94242 12.9575 4.98492 12.8275L5.34492 11.7475H6.15242L6.51242 12.8275C6.54742 12.9325 6.64492 12.9975 6.74992 12.9975C6.77492 12.9975 6.80242 12.9925 6.82992 12.985C6.95992 12.9425 7.03242 12.8 6.98742 12.67L5.98742 9.67ZM5.51492 11.25L5.75242 10.54L5.98992 11.25H5.51742H5.51492Z" fill="#374151"/>
</g>
<defs>
<clipPath id="clip0_13093_11793">
<rect width="16" height="16" fill="white"/>
</clipPath>
</defs>
</svg>
