<svg width="20" height="20" viewBox="0 0 20 20" fill="none" xmlns="http://www.w3.org/2000/svg">
<g clip-path="url(#clip0_13093_12145)">
<path d="M12.4871 17.3119L16.1406 13.6584L16.1824 13.6166C16.642 13.1601 16.9407 12.5665 17.0337 11.9254C17.1266 11.2843 17.0087 10.6304 16.6977 10.0621C16.3867 9.49385 15.8994 9.04205 15.3093 8.77477C14.7192 8.50749 14.0583 8.43922 13.426 8.58024L11.361 6.51526C11.279 6.43322 11.1677 6.38712 11.0517 6.38712C10.9356 6.38712 10.8244 6.43322 10.7423 6.51526C10.6582 6.571 10.5574 6.59593 10.4569 6.58584C10.3565 6.57574 10.2627 6.53125 10.1913 6.45989C10.12 6.38853 10.0755 6.29469 10.0654 6.19428C10.0553 6.09387 10.0802 5.99305 10.136 5.90892C10.218 5.82687 10.2641 5.71559 10.2641 5.59956C10.2641 5.48353 10.218 5.37225 10.136 5.2902L8.50564 3.65988C8.21847 3.37271 7.82899 3.21138 7.42288 3.21139C7.01677 3.21139 6.62729 3.37271 6.34012 3.65988L5.2883 4.7117C5.20625 4.79375 5.16016 4.90503 5.16016 5.02106C5.16016 5.13709 5.20625 5.24837 5.2883 5.33042C5.41144 5.46792 5.47722 5.64736 5.47214 5.83187C5.46706 6.01637 5.3915 6.19193 5.26099 6.32244C5.13047 6.45296 4.95492 6.52852 4.77041 6.5336C4.58591 6.53868 4.40646 6.47289 4.26896 6.34976C4.18691 6.26771 4.07564 6.22162 3.9596 6.22162C3.84357 6.22162 3.73229 6.26771 3.65024 6.34976L2.59842 7.40158C2.31126 7.68874 2.14993 8.07822 2.14993 8.48433C2.14993 8.89045 2.31126 9.27993 2.59842 9.56709L4.22256 11.1912C4.30461 11.2733 4.41589 11.3194 4.53192 11.3194C4.64795 11.3194 4.75923 11.2733 4.84128 11.1912C4.92541 11.1355 5.02622 11.1106 5.12664 11.1207C5.22705 11.1307 5.32089 11.1752 5.39225 11.2466C5.46361 11.318 5.5081 11.4118 5.51819 11.5122C5.52829 11.6126 5.50335 11.7134 5.44762 11.7976C5.36557 11.8796 5.31948 11.9909 5.31948 12.1069C5.31948 12.223 5.36557 12.3342 5.44762 12.4163L10.3231 17.2918C10.6076 17.5812 10.9952 17.7458 11.4009 17.7496C11.8067 17.7534 12.1973 17.5959 12.4871 17.3119ZM15.5621 10.0079C15.858 10.3038 16.0595 10.6808 16.1411 11.0913C16.2227 11.5017 16.1807 11.9271 16.0205 12.3137C15.8602 12.7002 15.5889 13.0306 15.2409 13.263C14.8929 13.4953 14.4837 13.6192 14.0653 13.619C13.6468 13.6188 13.2378 13.4944 12.89 13.2617C12.5422 13.029 12.2713 12.6984 12.1114 12.3117C11.9516 11.9249 11.9101 11.4995 11.9921 11.0891C12.0741 10.6788 12.276 10.302 12.5722 10.0064C12.9693 9.6109 13.507 9.38898 14.0675 9.38927C14.6279 9.38956 15.1654 9.61203 15.5621 10.0079ZM6.31228 12.0744C6.42237 11.8314 6.45573 11.5605 6.40793 11.2979C6.36013 11.0354 6.23344 10.7936 6.04474 10.6049C5.85604 10.4162 5.6143 10.2895 5.35175 10.2417C5.08921 10.1939 4.81833 10.2273 4.57523 10.3374L3.20167 8.96384C3.0786 8.84077 3.00946 8.67385 3.00946 8.4998C3.00946 8.32575 3.0786 8.15883 3.20167 8.03576L3.98745 7.24999C4.29011 7.41444 4.63783 7.47662 4.97873 7.42724C5.31963 7.37786 5.63542 7.21958 5.87899 6.97602C6.12255 6.73245 6.28083 6.41666 6.33021 6.07576C6.37958 5.73487 6.31741 5.38714 6.15296 5.08448L6.93873 4.29871C7.0618 4.17563 7.22872 4.10649 7.40277 4.10649C7.57682 4.10649 7.74374 4.17563 7.86681 4.2987L9.23418 5.66607C9.12409 5.90917 9.09072 6.18005 9.13852 6.4426C9.18632 6.70514 9.31302 6.94688 9.50172 7.13558C9.69042 7.32428 9.93216 7.45098 10.1947 7.49878C10.4573 7.54658 10.7281 7.51321 10.9712 7.40312L12.518 8.94992C11.9609 9.28856 11.5299 9.80025 11.2908 10.4069C11.0518 11.0134 11.0179 11.6816 11.1943 12.3093C11.3707 12.937 11.7477 13.4897 12.2677 13.883C12.7877 14.2763 13.4221 14.4886 14.0741 14.4875L11.8684 16.6932C11.7453 16.8163 11.5784 16.8854 11.4043 16.8854C11.2303 16.8854 11.0634 16.8163 10.9403 16.6932L6.31228 12.0744Z" fill="#374151"/>
<path d="M7.04527 10.2039L7.47991 9.76924C7.56196 9.68719 7.60806 9.57591 7.60806 9.45988C7.60806 9.34385 7.56196 9.23257 7.47991 9.15052C7.39787 9.06848 7.28659 9.02238 7.17056 9.02238C7.05452 9.02238 6.94324 9.06848 6.8612 9.15052L6.42655 9.58517C6.3445 9.66722 6.29841 9.7785 6.29841 9.89453C6.29841 10.0106 6.3445 10.1218 6.42655 10.2039C6.50859 10.2859 6.61987 10.332 6.73591 10.332C6.85194 10.332 6.96322 10.2859 7.04527 10.2039Z" fill="#374151"/>
<path d="M8.68589 8.56717L9.12054 8.13252C9.20259 8.05048 9.24868 7.9392 9.24868 7.82316C9.24868 7.70713 9.20259 7.59585 9.12054 7.5138C9.03849 7.43176 8.92721 7.38566 8.81118 7.38566C8.69515 7.38566 8.58387 7.43176 8.50182 7.5138L8.06717 7.94845C7.98512 8.0305 7.93903 8.14178 7.93903 8.25781C7.93903 8.37385 7.98512 8.48512 8.06717 8.56717C8.14922 8.64922 8.2605 8.69531 8.37653 8.69531C8.49256 8.69531 8.60384 8.64922 8.68589 8.56717Z" fill="#374151"/>
<path d="M14.0675 10.8829L13.3978 10.2131C13.3157 10.1311 13.2044 10.085 13.0884 10.085C12.9724 10.085 12.8611 10.1311 12.779 10.2131C12.697 10.2952 12.6509 10.4065 12.6509 10.5225C12.6509 10.6385 12.697 10.7498 12.779 10.8319L13.455 11.5078L12.779 12.1838C12.697 12.2658 12.6509 12.3771 12.6509 12.4931C12.6509 12.6092 12.697 12.7204 12.779 12.8025C12.8611 12.8845 12.9724 12.9306 13.0884 12.9306C13.2044 12.9306 13.3157 12.8845 13.3978 12.8025L14.0737 12.1265L14.7481 12.8009C14.8302 12.883 14.9414 12.9291 15.0575 12.9291C15.1735 12.9291 15.2848 12.883 15.3668 12.8009C15.4489 12.7189 15.495 12.6076 15.495 12.4916C15.495 12.3755 15.4489 12.2643 15.3668 12.1822L14.6862 11.5016L15.3622 10.8257C15.4442 10.7436 15.4903 10.6323 15.4903 10.5163C15.4903 10.4003 15.4442 10.289 15.3622 10.207C15.2801 10.1249 15.1689 10.0788 15.0528 10.0788C14.9368 10.0788 14.8255 10.1249 14.7435 10.207L14.0675 10.8829Z" fill="#374151"/>
</g>
<defs>
<clipPath id="clip0_13093_12145">
<rect width="14" height="14" fill="white" transform="translate(0 10) rotate(-45)"/>
</clipPath>
</defs>
</svg>
