<svg width="14" height="14" viewBox="0 0 14 14" fill="none" xmlns="http://www.w3.org/2000/svg">
<path fill-rule="evenodd" clip-rule="evenodd" d="M12.4565 12.8522H1.36762C0.886134 12.8522 0.492188 12.4582 0.492188 11.9768V2.05512C0.492188 1.57363 0.886134 1.17969 1.36762 1.17969H12.4565C12.938 1.17969 13.3319 1.57363 13.3319 2.05512V11.9768C13.3319 12.4582 12.938 12.8522 12.4565 12.8522ZM12.4565 12.2686C12.617 12.2686 12.7483 12.1372 12.7483 11.9768V2.05512C12.7483 1.89463 12.617 1.76331 12.4565 1.76331H1.36762C1.20713 1.76331 1.07581 1.89463 1.07581 2.05512V11.9768C1.07581 12.1372 1.20713 12.2686 1.36762 12.2686H12.4565Z" fill="#374151"/>
<path fill-rule="evenodd" clip-rule="evenodd" d="M2.32754 4.30267C2.21374 4.18886 2.21374 4.00385 2.32754 3.89004C2.44135 3.77624 2.62634 3.77624 2.74015 3.89004L5.65827 6.80817C5.77237 6.92197 5.77237 7.10698 5.65827 7.22079L2.74015 10.1389C2.62634 10.2527 2.44135 10.2527 2.32754 10.1389C2.21374 10.0251 2.21374 9.8401 2.32754 9.72629L5.03935 7.01448L2.32754 4.30267Z" fill="#374151"/>
<path fill-rule="evenodd" clip-rule="evenodd" d="M11.2881 9.64062C11.4491 9.64062 11.5799 9.77136 11.5799 9.93244C11.5799 10.0935 11.4491 10.2243 11.2881 10.2243H8.36994C8.20886 10.2243 8.07812 10.0935 8.07812 9.93244C8.07812 9.77136 8.20886 9.64062 8.36994 9.64062H11.2881Z" fill="#374151"/>
</svg>
