<svg width="14" height="14" viewBox="0 0 14 14" fill="none" xmlns="http://www.w3.org/2000/svg">
<path d="M12.538 10.4089C12.2957 10.2286 11.9531 10.279 11.7728 10.5213C11.6737 10.6545 11.5676 10.7853 11.4575 10.9098C11.2574 11.1361 11.2787 11.4817 11.505 11.6818C11.609 11.7737 11.7382 11.8189 11.867 11.8189C12.0182 11.8189 12.1688 11.7565 12.2769 11.6342C12.4073 11.4867 12.5329 11.3319 12.6504 11.1741C12.8306 10.9318 12.7804 10.5892 12.538 10.4089Z" fill="#374151"/>
<path d="M13.4507 7.84466C13.1557 7.78043 12.8642 7.96759 12.8 8.26269C12.7646 8.42503 12.7219 8.58767 12.673 8.74615C12.5838 9.03474 12.7454 9.34093 13.034 9.4301C13.0878 9.4467 13.1422 9.4546 13.1956 9.4546C13.4292 9.4546 13.6454 9.30383 13.718 9.069C13.7761 8.88093 13.8268 8.68791 13.8687 8.49533C13.933 8.20023 13.7458 7.90891 13.4507 7.84466Z" fill="#374151"/>
<path d="M9.90154 12.1593C9.75634 12.2404 9.60601 12.3161 9.45474 12.3844C9.17947 12.5087 9.05711 12.8327 9.18141 13.1079C9.27274 13.3102 9.47178 13.4298 9.68014 13.4298C9.75539 13.4298 9.83187 13.4142 9.9049 13.3813C10.0844 13.3002 10.2626 13.2104 10.4347 13.1143C10.6985 12.967 10.7929 12.6339 10.6456 12.3702C10.4984 12.1065 10.1653 12.0121 9.90154 12.1593Z" fill="#374151"/>
<path d="M6.45459 2.625V6.77348L4.44923 8.77882C4.23567 8.9924 4.23567 9.33866 4.44923 9.55221C4.55603 9.65902 4.69595 9.71239 4.83595 9.71239C4.9759 9.71239 5.11587 9.65899 5.22267 9.55221L7.38819 7.3867C7.49073 7.28416 7.54834 7.14503 7.54834 7V2.625C7.54834 2.32296 7.30351 2.07812 7.00147 2.07812C6.69943 2.07812 6.45459 2.32296 6.45459 2.625Z" fill="#374151"/>
<path d="M13.4531 1.17578C13.1511 1.17578 12.9062 1.42062 12.9062 1.72266V3.24122C11.6333 1.24491 9.41038 0 7 0C5.13023 0 3.37239 0.728137 2.05023 2.05023C0.728137 3.37239 0 5.13023 0 7C0 8.86977 0.728137 10.6276 2.05023 11.9498C3.37239 13.2719 5.13023 14 7 14C7.00462 14 7.00908 13.9994 7.01367 13.9993C7.01827 13.9994 7.02272 14 7.02734 14C7.22444 14 7.42347 13.9917 7.61898 13.9753C7.91995 13.9501 8.14352 13.6857 8.11833 13.3847C8.09309 13.0838 7.82904 12.8601 7.52771 12.8854C7.36244 12.8992 7.19411 12.9062 7.02734 12.9062C7.02272 12.9062 7.01827 12.9068 7.01367 12.9069C7.00908 12.9068 7.00462 12.9062 7 12.9062C3.74328 12.9062 1.09375 10.2567 1.09375 7C1.09375 3.74328 3.74328 1.09375 7 1.09375C9.09885 1.09375 11.0293 2.21246 12.0842 3.99219H10.5805C10.2784 3.99219 10.0336 4.23702 10.0336 4.53906C10.0336 4.8411 10.2784 5.08594 10.5805 5.08594H12.25C12.583 5.08594 12.8946 4.99234 13.1599 4.83019C13.177 4.82046 13.1934 4.80998 13.209 4.79869C13.685 4.48558 14 3.94699 14 3.33594V1.72266C14 1.42062 13.7552 1.17578 13.4531 1.17578Z" fill="#374151"/>
</svg>
