<svg width="14" height="14" viewBox="0 0 14 14" fill="none" xmlns="http://www.w3.org/2000/svg">
<path d="M12.2544 2.1875H3.5075C3.02443 2.1875 2.63281 2.57912 2.63281 3.06219C2.63281 3.54527 3.02443 3.93688 3.5075 3.93688H12.2544C12.7375 3.93688 13.1291 3.54527 13.1291 3.06219C13.1291 2.57912 12.7375 2.1875 12.2544 2.1875Z" fill="white"/>
<path d="M1.75428 3.06242C1.7533 2.83081 1.6605 2.60905 1.49625 2.44576C1.15509 2.10662 0.604091 2.10662 0.262934 2.44576C0.0986557 2.60905 0.00585634 2.83081 0.00489964 3.06242C-0.00163321 3.11908 -0.00163321 3.17632 0.00489964 3.23298C0.0147946 3.28997 0.0309217 3.34571 0.0530077 3.39917C0.0764878 3.45097 0.104287 3.50072 0.136104 3.54787C0.16751 3.59691 0.204166 3.64236 0.24544 3.68345C0.285239 3.72308 0.329219 3.75829 0.376644 3.78841C0.422702 3.82195 0.472641 3.84986 0.525342 3.87151C0.583317 3.90157 0.64512 3.92366 0.709027 3.93711C0.765691 3.94345 0.822928 3.94345 0.879592 3.93711C1.11057 3.9373 1.33225 3.84611 1.49625 3.68345C1.53752 3.64236 1.57418 3.59691 1.60559 3.54787C1.6374 3.50072 1.6652 3.45097 1.68868 3.39917C1.71659 3.34636 1.73859 3.29063 1.75428 3.23298C1.76082 3.17632 1.76082 3.11908 1.75428 3.06242Z" fill="white"/>
<path d="M1.7572 6.99601C1.7637 6.93935 1.7637 6.88211 1.7572 6.82544C1.74208 6.769 1.72005 6.71466 1.6916 6.66363C1.66907 6.60997 1.64122 6.55869 1.6085 6.51055C1.57819 6.46206 1.54139 6.41792 1.49916 6.37935C1.15801 6.04022 0.607004 6.04022 0.265847 6.37935C0.101569 6.54265 0.00876919 6.76441 0.0078125 6.99601C0.00950722 7.11128 0.0317299 7.22529 0.0734144 7.33277C0.0953364 7.38451 0.121687 7.43426 0.152137 7.48146C0.185402 7.529 0.223506 7.57298 0.265847 7.61267C0.304497 7.65482 0.348615 7.69161 0.397051 7.722C0.443109 7.75557 0.493021 7.78348 0.545748 7.8051C0.599077 7.82754 0.654866 7.8437 0.71194 7.85321C0.767893 7.86575 0.825158 7.87163 0.882505 7.8707C0.939169 7.87723 0.996406 7.87723 1.05307 7.8707C1.10872 7.86116 1.16306 7.84501 1.21489 7.82259C1.26904 7.80111 1.32043 7.7732 1.36796 7.7395C1.4164 7.7091 1.46051 7.67231 1.49916 7.63016C1.54131 7.59151 1.5781 7.54739 1.6085 7.49896C1.64212 7.45293 1.67003 7.40301 1.6916 7.35026C1.72147 7.2922 1.74353 7.23043 1.7572 7.16657C1.76392 7.10991 1.76392 7.05267 1.7572 6.99601Z" fill="white"/>
<path d="M1.75725 10.9335C1.76373 10.8768 1.76373 10.8196 1.75725 10.7629C1.74214 10.7051 1.7201 10.6493 1.69165 10.5968C1.66817 10.545 1.64037 10.4952 1.60855 10.4481C1.57816 10.3996 1.54137 10.3555 1.49922 10.3169C1.15806 9.97772 0.607058 9.97772 0.2659 10.3169C0.223751 10.3555 0.186959 10.3996 0.156564 10.4481C0.124747 10.4952 0.0969481 10.545 0.0734681 10.5968C0.0507807 10.65 0.0346262 10.7058 0.02536 10.7629C0.0130323 10.819 0.00718276 10.8762 0.00786612 10.9335C0.00885015 11.1651 0.10165 11.3869 0.2659 11.5502C0.304551 11.5923 0.348668 11.6291 0.397104 11.6595C0.443162 11.6931 0.493074 11.721 0.545802 11.7426C0.599131 11.765 0.65492 11.7812 0.711994 11.7907C0.767947 11.8033 0.825212 11.8091 0.882559 11.8082C0.939222 11.8147 0.99646 11.8147 1.05312 11.8082C1.10878 11.7987 1.16312 11.7825 1.21494 11.7601C1.26909 11.7386 1.32048 11.7107 1.36801 11.677C1.41645 11.6466 1.46057 11.6098 1.49922 11.5677C1.54137 11.529 1.57816 11.4849 1.60855 11.4365C1.6422 11.3905 1.67011 11.3405 1.69165 11.2878C1.7215 11.2297 1.74356 11.1679 1.75725 11.1041C1.76398 11.0474 1.76398 10.9902 1.75725 10.9335Z" fill="white"/>
<path d="M13.1291 6.12109H3.5075C3.02443 6.12109 2.63281 6.51271 2.63281 6.99579C2.63281 7.47886 3.02443 7.87048 3.5075 7.87048H13.1291C13.6122 7.87048 14.0038 7.47886 14.0038 6.99579C14.0038 6.51271 13.6122 6.12109 13.1291 6.12109Z" fill="white"/>
<path d="M9.19301 10.0586H3.5075C3.02443 10.0586 2.63281 10.4502 2.63281 10.9333C2.63281 11.4164 3.02443 11.808 3.5075 11.808H9.19301C9.67608 11.808 10.0677 11.4164 10.0677 10.9333C10.0677 10.4502 9.67608 10.0586 9.19301 10.0586Z" fill="white"/>
</svg>
