<svg width="15" height="14" viewBox="0 0 15 14" fill="none" xmlns="http://www.w3.org/2000/svg">
<g clip-path="url(#clip0_13086_11098)">
<path d="M12.7544 2.1875H4.0075C3.52443 2.1875 3.13281 2.57912 3.13281 3.06219C3.13281 3.54527 3.52443 3.93688 4.0075 3.93688H12.7544C13.2375 3.93688 13.6291 3.54527 13.6291 3.06219C13.6291 2.57912 13.2375 2.1875 12.7544 2.1875Z" fill="#374151"/>
<path d="M2.25428 3.06242C2.2533 2.83081 2.1605 2.60905 1.99625 2.44576C1.65509 2.10662 1.10409 2.10662 0.762934 2.44576C0.598656 2.60905 0.505856 2.83081 0.5049 3.06242C0.498367 3.11908 0.498367 3.17632 0.5049 3.23298C0.514795 3.28997 0.530922 3.34571 0.553008 3.39917C0.576488 3.45097 0.604287 3.50072 0.636104 3.54787C0.66751 3.59691 0.704166 3.64236 0.74544 3.68345C0.785239 3.72308 0.829219 3.75829 0.876644 3.78841C0.922702 3.82195 0.972641 3.84986 1.02534 3.87151C1.08332 3.90157 1.14512 3.92366 1.20903 3.93711C1.26569 3.94345 1.32293 3.94345 1.37959 3.93711C1.61057 3.9373 1.83225 3.84611 1.99625 3.68345C2.03752 3.64236 2.07418 3.59691 2.10559 3.54787C2.1374 3.50072 2.1652 3.45097 2.18868 3.39917C2.21659 3.34636 2.23859 3.29063 2.25428 3.23298C2.26082 3.17632 2.26082 3.11908 2.25428 3.06242Z" fill="#374151"/>
<path d="M2.2572 6.99601C2.2637 6.93935 2.2637 6.88211 2.2572 6.82544C2.24208 6.769 2.22005 6.71466 2.1916 6.66363C2.16907 6.60997 2.14122 6.55869 2.1085 6.51055C2.07819 6.46206 2.04139 6.41792 1.99916 6.37935C1.65801 6.04022 1.107 6.04022 0.765847 6.37935C0.601569 6.54265 0.508769 6.76441 0.507812 6.99601C0.509507 7.11128 0.53173 7.22529 0.573414 7.33277C0.595336 7.38451 0.621687 7.43426 0.652137 7.48146C0.685402 7.529 0.723506 7.57298 0.765847 7.61267C0.804497 7.65482 0.848615 7.69161 0.897051 7.722C0.943109 7.75557 0.993021 7.78348 1.04575 7.8051C1.09908 7.82754 1.15487 7.8437 1.21194 7.85321C1.26789 7.86575 1.32516 7.87163 1.3825 7.8707C1.43917 7.87723 1.49641 7.87723 1.55307 7.8707C1.60872 7.86116 1.66306 7.84501 1.71489 7.82259C1.76904 7.80111 1.82043 7.7732 1.86796 7.7395C1.9164 7.7091 1.96051 7.67231 1.99916 7.63016C2.04131 7.59151 2.0781 7.54739 2.1085 7.49896C2.14212 7.45293 2.17003 7.40301 2.1916 7.35026C2.22147 7.2922 2.24353 7.23043 2.2572 7.16657C2.26392 7.10991 2.26392 7.05267 2.2572 6.99601Z" fill="#374151"/>
<path d="M2.25725 10.9335C2.26373 10.8768 2.26373 10.8196 2.25725 10.7629C2.24214 10.7051 2.2201 10.6493 2.19165 10.5968C2.16817 10.545 2.14037 10.4952 2.10855 10.4481C2.07816 10.3996 2.04137 10.3555 1.99922 10.3169C1.65806 9.97772 1.10706 9.97772 0.7659 10.3169C0.723751 10.3555 0.686959 10.3996 0.656564 10.4481C0.624747 10.4952 0.596948 10.545 0.573468 10.5968C0.550781 10.65 0.534626 10.7058 0.52536 10.7629C0.513032 10.819 0.507183 10.8762 0.507866 10.9335C0.50885 11.1651 0.60165 11.3869 0.7659 11.5502C0.804551 11.5923 0.848668 11.6291 0.897104 11.6595C0.943162 11.6931 0.993074 11.721 1.0458 11.7426C1.09913 11.765 1.15492 11.7812 1.21199 11.7907C1.26795 11.8033 1.32521 11.8091 1.38256 11.8082C1.43922 11.8147 1.49646 11.8147 1.55312 11.8082C1.60878 11.7987 1.66312 11.7825 1.71494 11.7601C1.76909 11.7386 1.82048 11.7107 1.86801 11.677C1.91645 11.6466 1.96057 11.6098 1.99922 11.5677C2.04137 11.529 2.07816 11.4849 2.10855 11.4365C2.1422 11.3905 2.17011 11.3405 2.19165 11.2878C2.2215 11.2297 2.24356 11.1679 2.25725 11.1041C2.26398 11.0474 2.26398 10.9902 2.25725 10.9335Z" fill="#374151"/>
<path d="M13.6291 6.12109H4.0075C3.52443 6.12109 3.13281 6.51271 3.13281 6.99579C3.13281 7.47886 3.52443 7.87048 4.0075 7.87048H13.6291C14.1122 7.87048 14.5038 7.47886 14.5038 6.99579C14.5038 6.51271 14.1122 6.12109 13.6291 6.12109Z" fill="#374151"/>
<path d="M9.69301 10.0586H4.0075C3.52443 10.0586 3.13281 10.4502 3.13281 10.9333C3.13281 11.4164 3.52443 11.808 4.0075 11.808H9.69301C10.1761 11.808 10.5677 11.4164 10.5677 10.9333C10.5677 10.4502 10.1761 10.0586 9.69301 10.0586Z" fill="#374151"/>
</g>
<defs>
<clipPath id="clip0_13086_11098">
<rect width="14" height="14" fill="white" transform="translate(0.5)"/>
</clipPath>
</defs>
</svg>
