<svg width="14" height="14" viewBox="0 0 14 14" fill="none" xmlns="http://www.w3.org/2000/svg">
<path d="M9.71858 5.41704C10.5585 5.94193 10.9784 6.20437 11.1224 6.54043C11.2481 6.83385 11.2481 7.16606 11.1224 7.45953C10.9784 7.79553 10.5585 8.05797 9.71858 8.58292L5.77397 11.0483C4.84183 11.6309 4.37576 11.9222 3.99114 11.8912C3.65589 11.8643 3.34857 11.694 3.14804 11.424C2.91797 11.1142 2.91797 10.5646 2.91797 9.46538V4.53456C2.91797 3.43534 2.91797 2.88574 3.14804 2.57597C3.34857 2.30596 3.65589 2.13563 3.99114 2.10867C4.37576 2.07776 4.84183 2.36905 5.77397 2.95164L9.71858 5.41704Z" stroke="#3B82F6" stroke-width="1.5" stroke-linejoin="round"/>
</svg>
