<svg width="14" height="14" viewBox="0 0 14 14" fill="none" xmlns="http://www.w3.org/2000/svg">
<g clip-path="url(#clip0_13093_11721)">
<path d="M11.2344 7.18763V5.87891C11.2344 3.96971 9.96536 2.35154 8.22659 1.82301V1.23047C8.22659 0.551988 7.67461 0 6.99613 0C6.31765 0 5.76566 0.551988 5.76566 1.23047V1.82301C4.02687 2.35154 2.75784 3.96968 2.75784 5.87891V7.18763C2.75784 8.86468 2.1186 10.4549 0.957887 11.6653C0.844137 11.784 0.812173 11.959 0.876649 12.1101C0.941126 12.2613 1.0896 12.3594 1.25394 12.3594H4.98661C5.17714 13.2943 6.00576 14 6.99613 14C7.98652 14 8.81509 13.2943 9.00564 12.3594H12.7383C12.9026 12.3594 13.0511 12.2613 13.1156 12.1101C13.1801 11.959 13.1481 11.784 13.0344 11.6653C11.8736 10.4549 11.2344 8.86465 11.2344 7.18763ZM6.58597 1.23047C6.58597 1.00431 6.76997 0.820312 6.99613 0.820312C7.22229 0.820312 7.40628 1.00431 7.40628 1.23047V1.66053C7.27129 1.64752 7.13449 1.64062 6.99613 1.64062C6.85777 1.64062 6.72097 1.64752 6.58597 1.66053V1.23047ZM6.99613 13.1797C6.46142 13.1797 6.00552 12.8368 5.8362 12.3594H8.15605C7.98674 12.8368 7.53083 13.1797 6.99613 13.1797ZM2.13796 11.5391C3.07205 10.2869 3.57816 8.77166 3.57816 7.18763V5.87891C3.57816 3.99424 5.11146 2.46094 6.99613 2.46094C8.88079 2.46094 10.4141 3.99424 10.4141 5.87891V7.18763C10.4141 8.77166 10.9202 10.2869 11.8543 11.5391H2.13796Z" fill="#374151"/>
<path d="M12.3303 5.88067C12.3303 6.10719 12.5139 6.29083 12.7404 6.29083C12.967 6.29083 13.1506 6.10719 13.1506 5.88067C13.1506 4.23731 12.5106 2.69231 11.3486 1.53028C11.1885 1.37013 10.9288 1.3701 10.7686 1.53028C10.6084 1.69046 10.6084 1.95014 10.7686 2.11032C11.7757 3.11742 12.3303 4.45642 12.3303 5.88067Z" fill="#374151"/>
<path d="M1.25391 6.29081C1.48042 6.29081 1.66406 6.10717 1.66406 5.88065C1.66406 4.45643 2.2187 3.11743 3.22577 2.11033C3.38595 1.95015 3.38595 1.69047 3.22577 1.53029C3.06562 1.37011 2.80591 1.37011 2.64573 1.53029C1.4837 2.69232 0.84375 4.23729 0.84375 5.88065C0.84375 6.10717 1.02739 6.29081 1.25391 6.29081Z" fill="#374151"/>
</g>
<defs>
<clipPath id="clip0_13093_11721">
<rect width="14" height="14" fill="white"/>
</clipPath>
</defs>
</svg>
