<svg width="15" height="14" viewBox="0 0 15 14" fill="none" xmlns="http://www.w3.org/2000/svg">
<g clip-path="url(#clip0_13086_11094)">
<path d="M7.37867 0.0820312C3.57985 0.0820312 0.5 3.19752 0.5 7.04089C0.5 10.8841 3.57985 13.9999 7.37867 13.9999C11.1775 13.9999 14.2572 10.8841 14.2572 7.04089C14.2572 3.19752 11.1774 0.0820312 7.37867 0.0820312ZM7.37867 13.1063C6.29784 13.1063 5.42154 12.3759 5.42154 11.4751H9.33581C9.33581 12.3758 8.45951 13.1063 7.37867 13.1063ZM10.6112 10.9349H4.14576V9.74879H10.6113L10.6112 10.9349ZM10.588 9.13831H4.16421C4.14284 9.11338 4.12099 9.08882 4.10036 9.06352C3.43855 8.25054 3.28269 7.82612 3.13132 7.39359C3.12877 7.37935 3.93381 7.56 4.5047 7.68993C4.5047 7.68993 4.79846 7.7587 5.22793 7.83791C4.81557 7.34889 4.57073 6.72724 4.57073 6.09184C4.57073 4.69687 5.62826 3.47789 5.24674 2.49261C5.61807 2.52319 6.01525 3.28545 6.04207 4.47729C6.43683 3.9254 6.60204 2.91752 6.60204 2.29956C6.60204 1.65973 7.01876 0.916505 7.4356 0.891084C7.06404 1.51065 7.53186 2.04179 7.94774 3.35938C8.10372 3.85429 8.08381 4.68717 8.20423 5.21536C8.24417 4.11833 8.43062 2.51766 9.11852 1.96503C8.81505 2.66098 9.16344 3.5318 9.40172 3.95045C9.78615 4.62589 10.0192 5.13763 10.0192 6.10547C10.0192 6.75438 9.78239 7.36535 9.38291 7.84294C9.83714 7.75673 10.1508 7.679 10.1508 7.679L11.6259 7.38782C11.626 7.3877 11.4117 8.27952 10.588 9.13831Z" fill="#374151"/>
</g>
<defs>
<clipPath id="clip0_13086_11094">
<rect width="14" height="14" fill="white" transform="translate(0.5)"/>
</clipPath>
</defs>
</svg>
