<svg width="14" height="14" viewBox="0 0 14 14" fill="none" xmlns="http://www.w3.org/2000/svg">
<g clip-path="url(#clip0_13238_21102)">
<path d="M6.87867 0.0820312C3.07985 0.0820312 0 3.19752 0 7.04089C0 10.8841 3.07985 13.9999 6.87867 13.9999C10.6775 13.9999 13.7572 10.8841 13.7572 7.04089C13.7572 3.19752 10.6774 0.0820312 6.87867 0.0820312ZM6.87867 13.1063C5.79784 13.1063 4.92154 12.3759 4.92154 11.4751H8.83581C8.83581 12.3758 7.95951 13.1063 6.87867 13.1063ZM10.1112 10.9349H3.64576V9.74879H10.1113L10.1112 10.9349ZM10.088 9.13831H3.66421C3.64284 9.11338 3.62099 9.08882 3.60036 9.06352C2.93855 8.25054 2.78269 7.82612 2.63132 7.39359C2.62877 7.37935 3.43381 7.56 4.0047 7.68993C4.0047 7.68993 4.29846 7.7587 4.72793 7.83791C4.31557 7.34889 4.07073 6.72724 4.07073 6.09184C4.07073 4.69687 5.12826 3.47789 4.74674 2.49261C5.11807 2.52319 5.51525 3.28545 5.54207 4.47729C5.93683 3.9254 6.10204 2.91752 6.10204 2.29956C6.10204 1.65973 6.51876 0.916505 6.9356 0.891084C6.56404 1.51065 7.03186 2.04179 7.44774 3.35938C7.60372 3.85429 7.58381 4.68717 7.70423 5.21536C7.74417 4.11833 7.93062 2.51766 8.61852 1.96503C8.31505 2.66098 8.66344 3.5318 8.90172 3.95045C9.28615 4.62589 9.51922 5.13763 9.51922 6.10547C9.51922 6.75438 9.28239 7.36535 8.8829 7.84294C9.33714 7.75673 9.6508 7.679 9.6508 7.679L11.1259 7.38782C11.126 7.3877 10.9117 8.27952 10.088 9.13831Z" fill="white"/>
</g>
<defs>
<clipPath id="clip0_13238_21102">
<rect width="14" height="14" fill="white"/>
</clipPath>
</defs>
</svg>
