<svg width="14" height="14" viewBox="0 0 14 14" fill="none" xmlns="http://www.w3.org/2000/svg">
<path d="M7.36034 13.1683C9.96087 13.1683 11.9991 12.2068 11.9991 10.981V2.81678C11.9991 2.81397 11.9991 2.81116 11.9991 2.80835C11.9991 1.58259 9.96087 0.621094 7.36034 0.621094C4.76544 0.621094 2.73281 1.57696 2.72156 2.79992C2.72156 2.80273 2.71875 2.80554 2.71875 2.80835V10.9782C2.72156 12.2068 4.75981 13.1683 7.36034 13.1683ZM7.36034 12.606C4.95942 12.606 3.28384 11.7485 3.28384 10.981V9.3167C4.06259 9.99424 5.57793 10.4441 7.36034 10.4441C9.14276 10.4441 10.6581 9.99424 11.4368 9.3167V10.981C11.4368 11.7485 9.76126 12.606 7.36034 12.606ZM11.4368 5.53258C11.4368 6.3029 9.76126 7.15756 7.36034 7.15756C4.95942 7.15756 3.28384 6.30009 3.28384 5.53258V3.86824C4.06259 4.54578 5.58074 4.99842 7.36034 4.99842C9.13995 4.99842 10.6553 4.5486 11.4368 3.87105V5.53258ZM7.36034 7.71984C9.14276 7.71984 10.6581 7.27001 11.4368 6.59247V8.25681C11.4368 9.02432 9.76126 9.88179 7.36034 9.88179C4.95942 9.88179 3.28384 9.02432 3.28384 8.25681V6.59247C4.06259 7.27001 5.57793 7.71984 7.36034 7.71984ZM7.36034 1.18337C9.76126 1.18337 11.434 2.03803 11.4368 2.80554V2.80835V2.81397C11.4256 3.58148 9.75564 4.43333 7.36034 4.43333C4.95942 4.43333 3.28384 3.57586 3.28384 2.80835C3.28384 2.04084 4.95942 1.18337 7.36034 1.18337Z" fill="#374151"/>
</svg>
