<svg width="14" height="14" viewBox="0 0 14 14" fill="none" xmlns="http://www.w3.org/2000/svg">
<path d="M13 9.50001C13 9.69742 12.8321 9.85715 12.625 9.85715H2.28027L3.89014 11.3904C4.03667 11.5299 4.03667 11.7559 3.89014 11.8954C3.81692 11.9651 3.72092 12 3.62501 12C3.52911 12 3.43311 11.9651 3.35989 11.8954L1.1099 9.75251C0.963367 9.61295 0.963367 9.38697 1.1099 9.24751L3.35989 7.10465C3.50642 6.9651 3.7437 6.9651 3.89014 7.10465C4.03657 7.24421 4.03667 7.47019 3.89014 7.60965L2.28027 9.14286H12.625C12.8321 9.14286 13 9.3026 13 9.50001ZM12.8901 4.24752L10.6401 2.10466C10.4936 1.96511 10.2563 1.96511 10.1099 2.10466C9.96343 2.24422 9.96333 2.4702 10.1099 2.60966L11.7197 4.14287H1.37502C1.16793 4.14287 1.00002 4.30261 1.00002 4.50002C1.00002 4.69743 1.16793 4.85716 1.37502 4.85716H11.7197L10.1099 6.39037C9.96333 6.52992 9.96333 6.7559 10.1099 6.89537C10.1831 6.9651 10.2791 7.00001 10.375 7.00001C10.4709 7.00001 10.5669 6.9651 10.6401 6.89537L12.8901 4.75252C13.0366 4.61305 13.0366 4.38698 12.8901 4.24752Z" fill="#374151"/>
</svg>
