<svg width="14" height="14" viewBox="0 0 14 14" fill="none" xmlns="http://www.w3.org/2000/svg">
<path d="M3.41667 2.83333H4.91667C5.16667 2.83333 5.33333 2.66667 5.33333 2.41667C5.33333 2.16667 5.16667 2 4.91667 2H2.41667C2.16667 2 2 2.16667 2 2.41667V4.91667C2 5.16667 2.16667 5.33333 2.41667 5.33333C2.66667 5.33333 2.83333 5.16667 2.83333 4.91667V3.41667L5.875 6.45833C6.04167 6.625 6.29167 6.625 6.45833 6.45833C6.625 6.29167 6.625 6.04167 6.45833 5.875L3.41667 2.83333Z" fill="#374151"/>
<path d="M11.5807 8.66797C11.3307 8.66797 11.1641 8.83464 11.1641 9.08464V10.5846L8.1224 7.54297C7.95573 7.3763 7.70573 7.3763 7.53906 7.54297C7.3724 7.70964 7.3724 7.95964 7.53906 8.1263L10.5807 11.168H9.08073C8.83073 11.168 8.66406 11.3346 8.66406 11.5846C8.66406 11.8346 8.83073 12.0013 9.08073 12.0013H11.5807C11.8307 12.0013 11.9974 11.8346 11.9974 11.5846V9.08464C11.9974 8.83464 11.8307 8.66797 11.5807 8.66797Z" fill="#374151"/>
</svg>
