<svg width="14" height="14" viewBox="0 0 14 14" fill="none" xmlns="http://www.w3.org/2000/svg">
<path d="M12.1953 1.09375H10.9375V0.4375C10.9375 0.195891 10.7416 0 10.5 0C10.2584 0 10.0625 0.195891 10.0625 0.4375V1.09375H3.9375V0.4375C3.9375 0.195891 3.74164 0 3.5 0C3.25836 0 3.0625 0.195891 3.0625 0.4375V1.09375H1.80469C0.809566 1.09375 0 1.90332 0 2.89844V12.1953C0 13.1904 0.809566 14 1.80469 14H12.1953C13.1904 14 14 13.1904 14 12.1953V2.89844C14 1.90332 13.1904 1.09375 12.1953 1.09375ZM1.80469 1.96875H3.0625V2.40625C3.0625 2.64786 3.25836 2.84375 3.5 2.84375C3.74164 2.84375 3.9375 2.64786 3.9375 2.40625V1.96875H10.0625V2.40625C10.0625 2.64786 10.2584 2.84375 10.5 2.84375C10.7416 2.84375 10.9375 2.64786 10.9375 2.40625V1.96875H12.1953C12.708 1.96875 13.125 2.3858 13.125 2.89844V3.9375H0.875V2.89844C0.875 2.3858 1.29205 1.96875 1.80469 1.96875ZM12.1953 13.125H1.80469C1.29205 13.125 0.875 12.708 0.875 12.1953V4.8125H13.125V12.1953C13.125 12.708 12.708 13.125 12.1953 13.125Z" fill="#374151"/>
</svg>
