<svg width="32" height="32" viewBox="0 0 32 32" fill="none" xmlns="http://www.w3.org/2000/svg">
<path d="M10.1708 21.491C7.23023 18.3294 7.28223 13.3738 10.3372 10.2967C11.5345 9.08553 13.0914 8.29389 14.7754 8.03994L14.6857 5.33984C12.3216 5.6253 10.1236 6.7025 8.44963 8.39614C4.35593 12.5171 4.30653 19.1718 8.28973 23.3864L6.02643 25.664L13.1894 26.0553L13.1699 18.4711L10.1708 21.491ZM18.8119 5.94434L18.8314 13.5285L21.8305 10.5099C24.7711 13.6741 24.7191 18.6297 21.6641 21.7042C20.467 22.9158 18.9101 23.7075 17.2259 23.961L17.3156 26.6598C19.6798 26.374 21.8779 25.2974 23.553 23.6048C27.6454 19.4812 27.6948 12.8265 23.7116 8.61454L25.9749 6.33434L18.8119 5.94434Z" fill="#3B82F6"/>
</svg>
