<svg width="16" height="16" viewBox="0 0 16 16" fill="none" xmlns="http://www.w3.org/2000/svg">
<path fill-rule="evenodd" clip-rule="evenodd" d="M7.9987 1.8335C4.59294 1.8335 1.83203 4.59441 1.83203 8.00016C1.83203 8.98756 2.06372 9.91936 2.47523 10.7456C2.64039 11.0772 2.70399 11.4737 2.59978 11.8632L2.20271 13.3472C2.12978 13.6197 2.37914 13.8691 2.65169 13.7962L4.13572 13.3991C4.52518 13.2949 4.9217 13.3585 5.2533 13.5236C6.0795 13.9352 7.0113 14.1668 7.9987 14.1668C11.4044 14.1668 14.1654 11.4059 14.1654 8.00016C14.1654 4.59441 11.4044 1.8335 7.9987 1.8335ZM0.832031 8.00016C0.832031 4.04212 4.04066 0.833496 7.9987 0.833496C11.9568 0.833496 15.1654 4.04212 15.1654 8.00016C15.1654 11.9582 11.9568 15.1668 7.9987 15.1668C6.85316 15.1668 5.76904 14.8977 4.80746 14.4188C4.66397 14.3473 4.51746 14.3321 4.39419 14.3651L2.91016 14.7622C1.89428 15.034 0.964878 14.1046 1.2367 13.0887L1.63376 11.6047C1.66675 11.4814 1.65158 11.3349 1.58012 11.1914C1.10117 10.2298 0.832031 9.1457 0.832031 8.00016ZM4.83203 7.00016C4.83203 6.72403 5.05589 6.50016 5.33203 6.50016H10.6654C10.9415 6.50016 11.1654 6.72403 11.1654 7.00016C11.1654 7.2763 10.9415 7.50016 10.6654 7.50016H5.33203C5.05589 7.50016 4.83203 7.2763 4.83203 7.00016ZM4.83203 9.3335C4.83203 9.05736 5.05589 8.8335 5.33203 8.8335H8.9987C9.27483 8.8335 9.4987 9.05736 9.4987 9.3335C9.4987 9.60963 9.27483 9.8335 8.9987 9.8335H5.33203C5.05589 9.8335 4.83203 9.60963 4.83203 9.3335Z" fill="#737373"/>
</svg>
