<svg width="16" height="16" viewBox="0 0 16 16" fill="none" xmlns="http://www.w3.org/2000/svg">
<g clip-path="url(#clip0_21422_81837)">
<path d="M3.55469 7.81241C4.47231 8.04045 5.41018 8.17741 6.35469 8.2213C6.44863 7.9929 6.58771 7.7858 6.76358 7.61241C5.68017 7.59122 4.60307 7.44203 3.55469 7.16797V7.81241Z" fill="#737373"/>
<path d="M2.67014 12.4454V3.64092C2.82125 3.30314 4.58569 2.70314 7.55903 2.70314C10.5324 2.70314 12.3013 3.30314 12.4479 3.59203V3.72536C12.0835 4.07648 10.4124 4.63648 7.51014 4.63648C6.17935 4.6672 4.85046 4.51921 3.55903 4.19648V4.83648C4.85214 5.15017 6.17965 5.2995 7.51014 5.28092C9.41681 5.28092 11.4213 5.02314 12.4479 4.47203V6.72536C12.2072 6.90592 11.9341 7.03868 11.6435 7.11648H13.3368V3.60981C13.3368 2.19203 9.70569 1.83203 7.55903 1.83203C5.41236 1.83203 1.78125 2.20981 1.78125 3.60981V12.4454C1.78125 13.6143 4.17681 14.0809 6.22569 14.2231V13.3343C4.06125 13.1831 2.79458 12.7209 2.67014 12.4454Z" fill="#737373"/>
<path d="M3.55469 10.7904C4.42867 11.0083 5.32176 11.1407 6.22135 11.1859V10.5637C5.32043 10.5199 4.42662 10.3813 3.55469 10.1504V10.7904Z" fill="#737373"/>
<path d="M14.2205 8H7.99826C7.76252 8 7.53642 8.09365 7.36972 8.26035C7.20303 8.42705 7.10937 8.65314 7.10938 8.88889V14.2222C7.10937 14.458 7.20303 14.6841 7.36972 14.8508C7.53642 15.0175 7.76252 15.1111 7.99826 15.1111H14.2205C14.4562 15.1111 14.6823 15.0175 14.849 14.8508C15.0157 14.6841 15.1094 14.458 15.1094 14.2222V8.88889C15.1094 8.65314 15.0157 8.42705 14.849 8.26035C14.6823 8.09365 14.4562 8 14.2205 8ZM7.99826 14.2222V8.88889H14.2205V14.2222H7.99826Z" fill="#737373"/>
<path d="M9.33455 9.64453C9.25204 9.64453 9.17291 9.67731 9.11456 9.73565C9.05622 9.794 9.02344 9.87313 9.02344 9.95564V13.2845C9.02344 13.367 9.05622 13.4462 9.11456 13.5045C9.17291 13.5629 9.25204 13.5956 9.33455 13.5956C9.41706 13.5956 9.49619 13.5629 9.55454 13.5045C9.61288 13.4462 9.64566 13.367 9.64566 13.2845V9.95564C9.64566 9.87313 9.61288 9.794 9.55454 9.73565C9.49619 9.67731 9.41706 9.64453 9.33455 9.64453Z" fill="#737373"/>
<path d="M11.108 9.69727C11.0255 9.69727 10.9463 9.73004 10.888 9.78839C10.8297 9.84673 10.7969 9.92587 10.7969 10.0084V13.3328C10.7969 13.4153 10.8297 13.4945 10.888 13.5528C10.9463 13.6112 11.0255 13.6439 11.108 13.6439C11.1905 13.6439 11.2696 13.6112 11.328 13.5528C11.3863 13.4945 11.4191 13.4153 11.4191 13.3328V10.0084C11.4191 9.92587 11.3863 9.84673 11.328 9.78839C11.2696 9.73004 11.1905 9.69727 11.108 9.69727Z" fill="#737373"/>
<path d="M12.8892 9.64453C12.8067 9.64453 12.7276 9.67731 12.6692 9.73565C12.6109 9.794 12.5781 9.87313 12.5781 9.95564V13.2845C12.5781 13.367 12.6109 13.4462 12.6692 13.5045C12.7276 13.5629 12.8067 13.5956 12.8892 13.5956C12.9717 13.5956 13.0509 13.5629 13.1092 13.5045C13.1676 13.4462 13.2003 13.367 13.2003 13.2845V9.95564C13.2003 9.87313 13.1676 9.794 13.1092 9.73565C13.0509 9.67731 12.9717 9.64453 12.8892 9.64453Z" fill="#737373"/>
</g>
<defs>
<clipPath id="clip0_21422_81837">
<rect width="16" height="16" fill="white"/>
</clipPath>
</defs>
</svg>
