<svg width="14" height="14" viewBox="0 0 14 14" fill="none" xmlns="http://www.w3.org/2000/svg">
<path fill-rule="evenodd" clip-rule="evenodd" d="M11.6699 2.00304H4.3397C3.60668 2.00304 3.00694 2.60278 3.00694 3.33579V12.6651C3.00694 13.3981 3.60668 13.9978 4.3397 13.9978H11.6699C12.4029 13.9978 13.0026 13.3981 13.0026 12.6651V3.33579C13.0026 2.60278 12.4029 2.00304 11.6699 2.00304ZM4.00651 3.0026H12.003V12.9983H4.00651V3.0026ZM2.04145 11.9646C1.4512 11.8279 1.00781 11.2962 1.00781 10.6659V1.33666C1.00781 0.603646 1.60755 0.00390625 2.34057 0.00390625H9.67072C10.301 0.00390625 10.8327 0.447289 10.9694 1.03754C10.8732 1.01526 10.773 1.00347 10.6703 1.00347H6.67202H2.00738V6.66768V11.6655C2.00738 11.7683 2.01916 11.8684 2.04145 11.9646Z" fill="#374151"/>
</svg>
