<svg width="16" height="16" viewBox="0 0 16 16" fill="none" xmlns="http://www.w3.org/2000/svg">
<g clip-path="url(#clip0_16664_39909)">
<path d="M7.9987 14.6668C11.6806 14.6668 14.6654 11.6821 14.6654 8.00016C14.6654 4.31826 11.6806 1.3335 7.9987 1.3335C4.3168 1.3335 1.33203 4.31826 1.33203 8.00016C1.33203 11.6821 4.3168 14.6668 7.9987 14.6668Z" stroke="#737373" stroke-width="1.25" stroke-linecap="round" stroke-linejoin="round"/>
<path d="M6.05859 5.99989C6.21533 5.55434 6.5247 5.17863 6.9319 4.93931C7.3391 4.7 7.81786 4.61252 8.28338 4.69237C8.7489 4.77222 9.17114 5.01424 9.47531 5.37558C9.77949 5.73691 9.94596 6.19424 9.94526 6.66656C9.94526 7.99989 7.94526 8.66656 7.94526 8.66656" stroke="#737373" stroke-width="1.5" stroke-linecap="round" stroke-linejoin="round"/>
<path d="M8 11.3335H8.00667" stroke="#737373" stroke-width="1.5" stroke-linecap="round" stroke-linejoin="round"/>
</g>
<defs>
<clipPath id="clip0_16664_39909">
<rect width="16" height="16" fill="white"/>
</clipPath>
</defs>
</svg>
