<svg width="16" height="16" viewBox="0 0 16 16" fill="none" xmlns="http://www.w3.org/2000/svg">
<path d="M5.98139 1.89257C5.50339 2.19381 4.65363 6.11838 4.28849 8.04301C2.66199 8.29406 0.803141 9.09619 3.49184 9.6748C6.75813 10.3777 11.0269 9.884 12.753 9.54928C14.7446 8.92169 13.7488 8.67066 12.3546 8.04305C11.9563 1.64157 11.0601 1.13948 10.5622 1.01387C10.0642 0.888438 9.63272 1.64156 9.36717 2.14368C8.76968 3.64992 7.97303 3.90095 7.77386 3.77535C7.53755 3.62637 6.57888 1.51601 5.98139 1.89257Z" stroke="#9F9F9F"/>
<path d="M7.57174 11.9579C7.05149 11.4318 4.10336 11.5195 2.69432 11.6291H2.58594V12.2867C3.01949 12.3963 3.23626 13.2732 3.23626 13.9309C3.23626 14.457 3.66981 14.8078 3.88658 14.9174C4.32013 15.027 5.18723 15.027 5.83755 14.9174C7.78852 14.2597 7.35497 12.6156 7.68013 12.506C7.94026 12.4183 8.14981 12.4694 8.22207 12.506C8.65561 15.2462 10.8234 15.027 11.9072 14.9174C12.9911 14.8078 12.7743 13.3828 12.8827 12.9444C12.9694 12.5936 13.2801 12.3598 13.4246 12.2867V11.6291C8.98078 10.9715 8.98078 11.8483 8.54723 11.9579C8.11368 12.0676 8.22207 12.0675 7.57174 11.9579Z" fill="#9F9F9F"/>
</svg>
