<svg width="32" height="32" viewBox="0 0 32 32" fill="none" xmlns="http://www.w3.org/2000/svg">
<path fill-rule="evenodd" clip-rule="evenodd" d="M17.5282 27.2201L14.0071 16.4825C13.8487 15.791 14.0574 15.0665 14.5594 14.5649C15.0617 14.0631 15.7866 13.8547 16.4789 14.0129L27.2261 17.5309C27.6115 17.5888 27.9091 17.8995 27.9503 18.2868C27.9914 18.6739 27.7658 19.0403 27.4012 19.1778L22.3491 21.4741C21.9528 21.6479 21.6365 21.964 21.4627 22.3598L19.1679 27.4074C19.03 27.7716 18.6635 27.9973 18.2758 27.9561C17.8883 27.9148 17.5774 27.6175 17.5194 27.2324L17.5282 27.2201Z" stroke="#3B82F6" stroke-width="1.75" stroke-linecap="round" stroke-linejoin="round"/>
<path d="M6.76099 15.6998C7.4458 15.6998 8.00097 15.1448 8.00097 14.4601C8.00097 13.7755 7.4458 13.2205 6.76099 13.2205V15.6998ZM4.19506 13.2205C3.51024 13.2205 2.95508 13.7755 2.95508 14.4601C2.95508 15.1448 3.51024 15.6998 4.19506 15.6998V13.2205ZM15.6988 4.20061C15.6988 3.51596 15.1436 2.96094 14.4588 2.96094C13.774 2.96094 13.2188 3.51596 13.2188 4.20061H15.6988ZM13.2188 6.7659C13.2188 7.45055 13.774 8.00558 14.4588 8.00558C15.1436 8.00558 15.6988 7.45055 15.6988 6.7659H13.2188ZM22.5919 8.08215C23.0761 7.59804 23.0761 6.81311 22.5919 6.32899C22.1076 5.84488 21.3226 5.84488 20.8384 6.32899L22.5919 8.08215ZM19.0198 8.14718C18.5355 8.6313 18.5355 9.41622 19.0198 9.90034C19.504 10.3845 20.289 10.3845 20.7733 9.90034L19.0198 8.14718ZM9.89124 20.7797C10.3755 20.2955 10.3755 19.5107 9.89124 19.0266C9.407 18.5425 8.62188 18.5425 8.13765 19.0266L9.89124 20.7797ZM6.31901 20.8448C5.83477 21.3289 5.83477 22.1137 6.31901 22.5978C6.80325 23.082 7.58837 23.082 8.07261 22.5978L6.31901 20.8448ZM8.07261 6.33395C7.58837 5.84984 6.80325 5.84984 6.31901 6.33395C5.83477 6.81807 5.83477 7.603 6.31901 8.08711L8.07261 6.33395ZM8.13765 9.9053C8.62188 10.3894 9.407 10.3894 9.89124 9.9053C10.3755 9.42118 10.3755 8.63625 9.89124 8.15214L8.13765 9.9053ZM6.76099 13.2205H4.19506V15.6998H6.76099V13.2205ZM13.2188 4.20061V6.7659H15.6988V4.20061H13.2188ZM20.8384 6.32899L19.0198 8.14718L20.7733 9.90034L22.5919 8.08215L20.8384 6.32899ZM8.13765 19.0266L6.31901 20.8448L8.07261 22.5978L9.89124 20.7797L8.13765 19.0266ZM6.31901 8.08711L8.13765 9.9053L9.89124 8.15214L8.07261 6.33395L6.31901 8.08711Z" fill="#3B82F6"/>
</svg>
