<svg width="16" height="16" viewBox="0 0 16 16" fill="none" xmlns="http://www.w3.org/2000/svg">
<g clip-path="url(#clip0_21422_81826)">
<path fill-rule="evenodd" clip-rule="evenodd" d="M7.7708 2.0463C7.91622 1.98457 8.08378 1.98457 8.2292 2.0463L13.6837 4.36209C13.8766 4.44395 14 4.62101 14 4.81579V10.6053C14 10.7837 13.8963 10.9486 13.7278 11.038L8.27327 13.9327C8.10429 14.0224 7.89571 14.0224 7.72673 13.9327L2.27216 11.038C2.10371 10.9486 2 10.7837 2 10.6053V4.81579C2 4.62101 2.1234 4.44395 2.31622 4.36209L7.7708 2.0463ZM3.09091 5.62609L7.45455 7.63311V12.6328L3.09091 10.317V5.62609ZM8.54545 12.6328L12.9091 10.317V5.62609L8.54545 7.63311V12.6328ZM8 6.76521L12.1991 4.83381L8 3.05103L3.80089 4.83381L8 6.76521Z" fill="#737373"/>
<path fill-rule="evenodd" clip-rule="evenodd" d="M0 0.375C0 0.167895 0.167895 0 0.375 0H2.625C2.8321 0 3 0.167895 3 0.375C3 0.582105 2.8321 0.75 2.625 0.75H0.75V2.625C0.75 2.8321 0.582105 3 0.375 3C0.167895 3 0 2.8321 0 2.625V0.375Z" fill="#737373"/>
<path fill-rule="evenodd" clip-rule="evenodd" d="M15.625 0C15.8321 0 16 0.167895 16 0.375V2.625C16 2.8321 15.8321 3 15.625 3C15.4179 3 15.25 2.8321 15.25 2.625V0.75H13.375C13.1679 0.75 13 0.582105 13 0.375C13 0.167895 13.1679 0 13.375 0H15.625Z" fill="#737373"/>
<path fill-rule="evenodd" clip-rule="evenodd" d="M0.375 16C0.167895 16 0 15.8321 0 15.625V13.375C0 13.1679 0.167895 13 0.375 13C0.582105 13 0.75 13.1679 0.75 13.375V15.25H2.625C2.8321 15.25 3 15.4179 3 15.625C3 15.8321 2.8321 16 2.625 16H0.375Z" fill="#737373"/>
<path fill-rule="evenodd" clip-rule="evenodd" d="M16 15.625C16 15.8321 15.8321 16 15.625 16H13.375C13.1679 16 13 15.8321 13 15.625C13 15.4179 13.1679 15.25 13.375 15.25H15.25V13.375C15.25 13.1679 15.4179 13 15.625 13C15.8321 13 16 13.1679 16 13.375V15.625Z" fill="#737373"/>
</g>
<defs>
<clipPath id="clip0_21422_81826">
<rect width="16" height="16" fill="white"/>
</clipPath>
</defs>
</svg>
