<svg width="16" height="16" viewBox="0 0 16 16" fill="none" xmlns="http://www.w3.org/2000/svg">
<path d="M6 4C6.00064 3.63469 5.90122 3.27619 5.71252 2.96339C5.52382 2.6506 5.25305 2.39546 4.9296 2.22567C4.60615 2.05587 4.24237 1.97791 3.87775 2.00024C3.51313 2.02257 3.16158 2.14434 2.86127 2.35234C2.56096 2.56033 2.32335 2.8466 2.17423 3.18009C2.02511 3.51357 1.97017 3.88153 2.01538 4.24403C2.0606 4.60653 2.20423 4.94972 2.43069 5.23636C2.65716 5.523 2.9578 5.74214 3.3 5.87V11.13C2.86091 11.2941 2.49339 11.6071 2.26161 12.0146C2.02983 12.422 1.94852 12.8979 2.03188 13.3592C2.11524 13.8204 2.35797 14.2378 2.71769 14.5383C3.07741 14.8389 3.53126 15.0035 4 15.0035C4.46875 15.0035 4.9226 14.8389 5.28232 14.5383C5.64204 14.2378 5.88477 13.8204 5.96812 13.3592C6.05148 12.8979 5.97018 12.422 5.7384 12.0146C5.50662 11.6071 5.1391 11.2941 4.7 11.13V5.87C5.08121 5.72757 5.40989 5.47225 5.64218 5.13811C5.87446 4.80398 5.99929 4.40694 6 4ZM4 13.6C3.88134 13.6 3.76533 13.5648 3.66666 13.4989C3.56799 13.433 3.49109 13.3392 3.44568 13.2296C3.40026 13.12 3.38838 12.9993 3.41153 12.8829C3.43468 12.7666 3.49183 12.6596 3.57574 12.5757C3.65965 12.4918 3.76656 12.4347 3.88295 12.4115C3.99934 12.3884 4.11998 12.4003 4.22961 12.4457C4.33925 12.4911 4.43296 12.568 4.49889 12.6667C4.56481 12.7653 4.6 12.8813 4.6 13C4.6 13.1591 4.53679 13.3117 4.42427 13.4243C4.31175 13.5368 4.15913 13.6 4 13.6ZM4 4.6C3.88134 4.6 3.76533 4.56481 3.66666 4.49888C3.56799 4.43295 3.49109 4.33925 3.44568 4.22961C3.40026 4.11997 3.38838 3.99933 3.41153 3.88295C3.43468 3.76656 3.49183 3.65965 3.57574 3.57574C3.65965 3.49182 3.76656 3.43468 3.88295 3.41153C3.99934 3.38838 4.11998 3.40026 4.22961 3.44567C4.33925 3.49108 4.43296 3.56799 4.49889 3.66666C4.56481 3.76533 4.6 3.88133 4.6 4C4.6 4.15913 4.53679 4.31174 4.42427 4.42426C4.31175 4.53679 4.15913 4.6 4 4.6ZM13.17 11.13V5.67C13.17 5.04144 12.9203 4.43862 12.4758 3.99416C12.0314 3.5497 11.4286 3.3 10.8 3.3H10V1L7 4L10 7V4.7H10.8C11.0652 4.7 11.3196 4.80536 11.5071 4.99289C11.6946 5.18043 11.8 5.43478 11.8 5.7V11.16C11.3609 11.3241 10.9934 11.6371 10.7616 12.0446C10.5298 12.452 10.4485 12.9279 10.5319 13.3892C10.6152 13.8504 10.858 14.2678 11.2177 14.5683C11.5774 14.8689 12.0313 15.0335 12.5 15.0335C12.9687 15.0335 13.4226 14.8689 13.7823 14.5683C14.142 14.2678 14.3848 13.8504 14.4681 13.3892C14.5515 12.9279 14.4702 12.452 14.2384 12.0446C14.0066 11.6371 13.6391 11.3241 13.2 11.16L13.17 11.13ZM12.47 13.6C12.3513 13.6 12.2353 13.5648 12.1367 13.4989C12.038 13.433 11.9611 13.3392 11.9157 13.2296C11.8703 13.12 11.8584 12.9993 11.8815 12.8829C11.9047 12.7666 11.9618 12.6596 12.0457 12.5757C12.1297 12.4918 12.2366 12.4347 12.353 12.4115C12.4693 12.3884 12.59 12.4003 12.6996 12.4457C12.8092 12.4911 12.903 12.568 12.9689 12.6667C13.0348 12.7653 13.07 12.8813 13.07 13C13.07 13.1591 13.0068 13.3117 12.8943 13.4243C12.7817 13.5368 12.6291 13.6 12.47 13.6Z" fill="#9F9F9F"/>
</svg>
