<svg width="20" height="20" viewBox="0 0 20 20" fill="none" xmlns="http://www.w3.org/2000/svg">
<circle cx="10" cy="10" r="9.5" fill="white" stroke="#374151"/>
<path d="M7.07743 15.533L4.26335 16.9918C4.19426 16.9918 3.90526 17.2209 3.76639 17.337C5.63559 18.5723 7.49008 19.8691 9.78246 19.9091C12.0579 19.9487 14.9799 18.573 15.8066 17.5395C15.6593 17.4117 15.4991 17.2964 15.3209 17.2045L12.3615 15.673C11.9792 15.4751 11.7424 15.0802 11.7499 14.6527L11.7702 13.4917C11.8557 13.3984 11.9537 13.2785 12.0589 13.1366C12.4757 12.5741 12.7944 11.9528 13.0192 11.2991C13.4041 11.1887 13.6923 10.8431 13.6996 10.4265L13.7213 9.18716C13.726 8.91455 13.608 8.66882 13.4209 8.49496L13.4522 6.70345C13.4522 6.70345 13.8722 3.922 10.0634 3.85561C6.25468 3.78923 6.5772 6.58362 6.5772 6.58362L6.54588 8.37513C6.35251 8.54236 6.22627 8.78384 6.2215 9.05644L6.19984 10.2957C6.19413 10.6222 6.36222 10.9125 6.61845 11.083C6.90726 12.4365 7.70825 13.4209 7.70825 13.4209L7.68846 14.5533C7.6809 14.9657 7.4465 15.3416 7.07743 15.533Z" fill="#374151"/>
</svg>
