<svg width="14" height="14" viewBox="0 0 14 14" fill="none" xmlns="http://www.w3.org/2000/svg">
<path d="M12.8573 7.09339C12.8299 7.1551 12.7956 7.20996 12.7476 7.25796L11.0333 8.97225C10.9304 9.0751 10.8002 9.1231 10.6699 9.1231C10.5396 9.1231 10.4093 9.0751 10.3064 8.97225C10.1076 8.77339 10.1076 8.44425 10.3064 8.24539L11.143 7.40882H7.41272V11.1391L8.2493 10.3025C8.44815 10.1037 8.7773 10.1037 8.97615 10.3025C9.17501 10.5014 9.17501 10.8305 8.97615 11.0294L7.26187 12.7437C7.21387 12.7917 7.15901 12.826 7.0973 12.8534C7.03558 12.8808 6.96701 12.8945 6.89844 12.8945C6.82987 12.8945 6.7613 12.8808 6.69958 12.8534C6.63787 12.826 6.58301 12.7917 6.53501 12.7437L4.82072 11.0294C4.62187 10.8305 4.62187 10.5014 4.82072 10.3025C5.01958 10.1037 5.34872 10.1037 5.54758 10.3025L6.38415 11.1391V7.40882H2.65387L3.49044 8.24539C3.6893 8.44425 3.6893 8.77339 3.49044 8.97225C3.38758 9.0751 3.25729 9.1231 3.12701 9.1231C2.99672 9.1231 2.86644 9.0751 2.76358 8.97225L1.04929 7.25796C1.00129 7.20996 0.967009 7.1551 0.93958 7.09339C0.884723 6.96996 0.884723 6.82596 0.93958 6.70253C0.967009 6.64082 1.00129 6.58596 1.04929 6.53796L2.76358 4.82367C2.96244 4.62482 3.29158 4.62482 3.49044 4.82367C3.6893 5.02253 3.6893 5.35167 3.49044 5.55053L2.65387 6.3871H6.38415V2.64996L5.54758 3.48653C5.34872 3.68539 5.01958 3.68539 4.82072 3.48653C4.62187 3.28767 4.62187 2.95853 4.82072 2.75967L6.53501 1.04539C6.58301 0.997388 6.63787 0.963103 6.69958 0.935674C6.82301 0.880817 6.96701 0.880817 7.09044 0.935674C7.15215 0.963103 7.20701 0.997388 7.25501 1.04539L8.9693 2.75967C9.16815 2.95853 9.16815 3.28767 8.9693 3.48653C8.86644 3.58939 8.73615 3.63739 8.60587 3.63739C8.47558 3.63739 8.3453 3.58939 8.24244 3.48653L7.40587 2.64996V6.38025H11.1362L10.2996 5.54367C10.1007 5.34482 10.1007 5.01567 10.2996 4.81682C10.4984 4.61796 10.8276 4.61796 11.0264 4.81682L12.7407 6.5311C12.7887 6.5791 12.823 6.63396 12.8504 6.69567C12.9053 6.8191 12.9053 6.9631 12.8504 7.08653L12.8573 7.09339Z" fill="#374151"/>
</svg>
