<svg width="20" height="20" viewBox="0 0 20 20" fill="none" xmlns="http://www.w3.org/2000/svg">
<g clip-path="url(#clip0_15849_29313)">
<path d="M9.98425 12.5C11.4318 12.5 12.6052 11.3807 12.6052 10C12.6052 8.61929 11.4318 7.5 9.98425 7.5C8.53673 7.5 7.36328 8.61929 7.36328 10C7.36328 11.3807 8.53673 12.5 9.98425 12.5Z" stroke="white" stroke-width="1.25" stroke-linecap="round" stroke-linejoin="round"/>
<path d="M16.4464 12.5007C16.3301 12.752 16.2954 13.0308 16.3468 13.3011C16.3982 13.5715 16.5333 13.8209 16.7347 14.0173L16.7871 14.0673C16.9496 14.2221 17.0784 14.4059 17.1664 14.6083C17.2543 14.8106 17.2996 15.0275 17.2996 15.2465C17.2996 15.4655 17.2543 15.6824 17.1664 15.8847C17.0784 16.087 16.9496 16.2709 16.7871 16.4257C16.6248 16.5806 16.4321 16.7035 16.22 16.7874C16.0079 16.8713 15.7805 16.9145 15.5509 16.9145C15.3212 16.9145 15.0939 16.8713 14.8818 16.7874C14.6696 16.7035 14.4769 16.5806 14.3146 16.4257L14.2622 16.3757C14.0563 16.1835 13.7948 16.0547 13.5114 16.0056C13.228 15.9566 12.9357 15.9897 12.6722 16.1007C12.4138 16.2063 12.1934 16.3817 12.0382 16.6053C11.8829 16.8288 11.7996 17.0908 11.7985 17.359V17.5007C11.7985 17.9427 11.6144 18.3666 11.2867 18.6792C10.9591 18.9917 10.5146 19.1673 10.0512 19.1673C9.58779 19.1673 9.14335 18.9917 8.81567 18.6792C8.48798 18.3666 8.30389 17.9427 8.30389 17.5007V17.4257C8.29713 17.1498 8.20352 16.8823 8.03525 16.6579C7.86698 16.4335 7.63182 16.2626 7.36034 16.1673C7.09683 16.0564 6.80453 16.0233 6.52112 16.0723C6.23771 16.1213 5.97619 16.2502 5.77029 16.4423L5.71787 16.4923C5.55559 16.6473 5.36288 16.7702 5.15076 16.8541C4.93864 16.938 4.71127 16.9811 4.48165 16.9811C4.25202 16.9811 4.02465 16.938 3.81253 16.8541C3.60041 16.7702 3.4077 16.6473 3.24542 16.4923C3.08296 16.3375 2.95408 16.1537 2.86615 15.9514C2.77822 15.7491 2.73296 15.5322 2.73296 15.3132C2.73296 15.0941 2.77822 14.8772 2.86615 14.6749C2.95408 14.4726 3.08296 14.2888 3.24542 14.134L3.29784 14.084C3.49925 13.8876 3.63436 13.6381 3.68575 13.3678C3.73714 13.0975 3.70244 12.8187 3.58615 12.5673C3.4754 12.3208 3.29151 12.1106 3.05712 11.9626C2.82273 11.8145 2.54806 11.7351 2.26693 11.734H2.11841C1.65499 11.734 1.21055 11.5584 0.88287 11.2458C0.555185 10.9333 0.371094 10.5093 0.371094 10.0673C0.371094 9.62529 0.555185 9.20137 0.88287 8.88881C1.21055 8.57625 1.65499 8.40065 2.11841 8.40065H2.19703C2.48621 8.3942 2.76666 8.30492 3.00193 8.14441C3.2372 7.9839 3.41641 7.7596 3.51626 7.50065C3.63255 7.2493 3.66724 6.97049 3.61586 6.70016C3.56447 6.42983 3.42936 6.18038 3.22795 5.98398L3.17553 5.93398C3.01307 5.7792 2.88419 5.59538 2.79626 5.39305C2.70833 5.19072 2.66307 4.97384 2.66307 4.75482C2.66307 4.53579 2.70833 4.31891 2.79626 4.11658C2.88419 3.91425 3.01307 3.73044 3.17553 3.57565C3.33781 3.42069 3.53052 3.29776 3.74264 3.21388C3.95476 3.13001 4.18213 3.08684 4.41175 3.08684C4.64138 3.08684 4.86875 3.13001 5.08087 3.21388C5.29299 3.29776 5.4857 3.42069 5.64798 3.57565L5.7004 3.62565C5.9063 3.81777 6.16782 3.94664 6.45123 3.99565C6.73464 4.04467 7.02694 4.01158 7.29045 3.90065H7.36034C7.61874 3.79502 7.83912 3.61961 7.99435 3.39604C8.14958 3.17246 8.23288 2.91047 8.234 2.64232V2.50065C8.234 2.05862 8.41809 1.6347 8.74577 1.32214C9.07346 1.00958 9.51789 0.833984 9.98131 0.833984C10.4447 0.833984 10.8892 1.00958 11.2168 1.32214C11.5445 1.6347 11.7286 2.05862 11.7286 2.50065V2.57565C11.7297 2.84381 11.813 3.1058 11.9683 3.32937C12.1235 3.55295 12.3439 3.72835 12.6023 3.83398C12.8658 3.94491 13.1581 3.978 13.4415 3.92899C13.7249 3.87997 13.9864 3.7511 14.1923 3.55898L14.2448 3.50898C14.407 3.35402 14.5997 3.23109 14.8119 3.14722C15.024 3.06334 15.2514 3.02017 15.481 3.02017C15.7106 3.02017 15.938 3.06334 16.1501 3.14722C16.3622 3.23109 16.5549 3.35402 16.7172 3.50898C16.8797 3.66377 17.0085 3.84759 17.0965 4.04992C17.1844 4.25225 17.2297 4.46913 17.2297 4.68815C17.2297 4.90718 17.1844 5.12405 17.0965 5.32639C17.0085 5.52872 16.8797 5.71253 16.7172 5.86732L16.6648 5.91732C16.4634 6.11372 16.3283 6.36316 16.2769 6.63349C16.2255 6.90382 16.2602 7.18264 16.3765 7.43398V7.50065C16.4872 7.74713 16.6711 7.95733 16.9055 8.1054C17.1399 8.25346 17.4146 8.33292 17.6957 8.33398H17.8442C18.3076 8.33398 18.7521 8.50958 19.0798 8.82214C19.4074 9.1347 19.5915 9.55862 19.5915 10.0007C19.5915 10.4427 19.4074 10.8666 19.0798 11.1792C18.7521 11.4917 18.3076 11.6673 17.8442 11.6673H17.7656C17.4845 11.6684 17.2098 11.7478 16.9754 11.8959C16.741 12.044 16.5571 12.2542 16.4464 12.5007Z" stroke="white" stroke-width="1.25" stroke-linecap="round" stroke-linejoin="round"/>
</g>
<defs>
<clipPath id="clip0_15849_29313">
<rect width="20" height="20" fill="white"/>
</clipPath>
</defs>
</svg>
