<svg width="20" height="20" viewBox="0 0 20 20" fill="none" xmlns="http://www.w3.org/2000/svg">
<mask id="mask0_36406_981" style="mask-type:luminance" maskUnits="userSpaceOnUse" x="1" y="1" width="18" height="18">
<path d="M19 1H1V19H19V1Z" fill="white"/>
</mask>
<g mask="url(#mask0_36406_981)">
<path d="M9.99169 12.25C11.2945 12.25 12.3505 11.2426 12.3505 10C12.3505 8.75736 11.2945 7.75 9.99169 7.75C8.68892 7.75 7.63281 8.75736 7.63281 10C7.63281 11.2426 8.68892 12.25 9.99169 12.25Z" stroke="#646464" stroke-width="1.25" stroke-linecap="round" stroke-linejoin="round"/>
<path d="M15.8037 12.252C15.699 12.4782 15.6678 12.7291 15.7141 12.9724C15.7603 13.2157 15.8819 13.4402 16.0632 13.6169L16.1103 13.6619C16.2566 13.8013 16.3725 13.9667 16.4517 14.1488C16.5308 14.3309 16.5716 14.5261 16.5716 14.7232C16.5716 14.9203 16.5308 15.1155 16.4517 15.2976C16.3725 15.4797 16.2566 15.6452 16.1103 15.7845C15.9643 15.9239 15.7908 16.0345 15.6 16.11C15.4091 16.1855 15.2044 16.2244 14.9978 16.2244C14.791 16.2244 14.5865 16.1855 14.3956 16.11C14.2046 16.0345 14.0312 15.9239 13.8851 15.7845L13.8379 15.7395C13.6526 15.5665 13.4173 15.4506 13.1622 15.4064C12.9072 15.3623 12.6441 15.3921 12.4069 15.492C12.1744 15.587 11.976 15.7449 11.8363 15.9461C11.6966 16.1473 11.6216 16.3831 11.6206 16.6245V16.752C11.6206 17.1498 11.4549 17.5313 11.16 17.8126C10.8651 18.0939 10.4651 18.2519 10.048 18.2519C9.63096 18.2519 9.23097 18.0939 8.93606 17.8126C8.64113 17.5313 8.47545 17.1498 8.47545 16.752V16.6845C8.46937 16.4362 8.38512 16.1954 8.23368 15.9935C8.08223 15.7915 7.87059 15.6377 7.62626 15.5519C7.3891 15.4521 7.12603 15.4223 6.87096 15.4664C6.61589 15.5105 6.38052 15.6265 6.19521 15.7994L6.14804 15.8444C6.00198 15.9839 5.82854 16.0945 5.63764 16.1701C5.44673 16.2456 5.2421 16.2844 5.03544 16.2844C4.82877 16.2844 4.62414 16.2456 4.43323 16.1701C4.24232 16.0945 4.06888 15.9839 3.92283 15.8444C3.77662 15.7051 3.66062 15.5397 3.58149 15.3576C3.50235 15.1756 3.46162 14.9803 3.46162 14.7832C3.46162 14.5861 3.50235 14.3908 3.58149 14.2088C3.66062 14.0267 3.77662 13.8613 3.92283 13.722L3.97001 13.677C4.15128 13.5002 4.27288 13.2757 4.31913 13.0324C4.36538 12.7891 4.33415 12.5382 4.22949 12.3119C4.12981 12.0901 3.96431 11.9009 3.75336 11.7677C3.54241 11.6344 3.29521 11.563 3.04219 11.562H2.90852C2.49144 11.562 2.09145 11.4039 1.79654 11.1226C1.50162 10.8413 1.33594 10.4597 1.33594 10.0619C1.33594 9.66413 1.50162 9.2826 1.79654 9.0013C2.09145 8.71999 2.49144 8.56195 2.90852 8.56195H2.97928C3.23954 8.55615 3.49195 8.4758 3.70369 8.33134C3.91543 8.18688 4.07672 7.98501 4.16659 7.75195C4.27125 7.52574 4.30247 7.27481 4.25623 7.03151C4.20998 6.78821 4.08838 6.56371 3.90711 6.38695L3.85993 6.34195C3.71372 6.20265 3.59772 6.03721 3.51859 5.85511C3.43945 5.67302 3.39872 5.47782 3.39872 5.28071C3.39872 5.08358 3.43945 4.88839 3.51859 4.70629C3.59772 4.52419 3.71372 4.35876 3.85993 4.21945C4.00598 4.07999 4.17942 3.96935 4.37033 3.89386C4.56124 3.81838 4.76587 3.77952 4.97253 3.77952C5.17919 3.77952 5.38383 3.81838 5.57474 3.89386C5.76564 3.96935 5.93908 4.07999 6.08513 4.21945L6.13231 4.26445C6.31762 4.43736 6.55299 4.55334 6.80806 4.59745C7.06313 4.64157 7.3262 4.61179 7.56336 4.51195H7.62626C7.85882 4.41689 8.05716 4.25902 8.19687 4.0578C8.33657 3.85658 8.41155 3.62079 8.41255 3.37946V3.25195C8.41255 2.85413 8.57823 2.4726 8.87315 2.19129C9.16807 1.90999 9.56805 1.75195 9.98513 1.75195C10.4022 1.75195 10.8022 1.90999 11.0971 2.19129C11.392 2.4726 11.5577 2.85413 11.5577 3.25195V3.31945C11.5587 3.5608 11.6337 3.79659 11.7734 3.9978C11.9131 4.19902 12.1115 4.35688 12.344 4.45195C12.5812 4.55179 12.8442 4.58157 13.0993 4.53746C13.3544 4.49334 13.5897 4.37736 13.775 4.20445L13.8223 4.15945C13.9683 4.01999 14.1417 3.90935 14.3327 3.83387C14.5236 3.75837 14.7282 3.71952 14.9349 3.71952C15.1415 3.71952 15.3462 3.75837 15.537 3.83387C15.7279 3.90935 15.9014 4.01999 16.0474 4.15945C16.1937 4.29876 16.3096 4.4642 16.3888 4.6463C16.4679 4.82839 16.5087 5.02358 16.5087 5.2207C16.5087 5.41783 16.4679 5.61301 16.3888 5.79512C16.3096 5.97722 16.1937 6.14264 16.0474 6.28196L16.0003 6.32696C15.819 6.50372 15.6974 6.72821 15.6512 6.97151C15.6049 7.21481 15.6361 7.46574 15.7408 7.69195V7.75195C15.8404 7.97378 16.0059 8.16296 16.2169 8.29623C16.4279 8.42948 16.6751 8.501 16.9281 8.50195H17.0617C17.4788 8.50195 17.8788 8.65999 18.1738 8.94129C18.4686 9.2226 18.6343 9.60412 18.6343 10.002C18.6343 10.3998 18.4686 10.7813 18.1738 11.0626C17.8788 11.3439 17.4788 11.5019 17.0617 11.5019H16.991C16.738 11.5029 16.4908 11.5744 16.2798 11.7077C16.0689 11.841 15.9033 12.0301 15.8037 12.252Z" stroke="#646464" stroke-width="1.25" stroke-linecap="round" stroke-linejoin="round"/>
</g>
</svg>
