<svg width="16" height="16" viewBox="0 0 16 16" fill="none" xmlns="http://www.w3.org/2000/svg">
<path fill-rule="evenodd" clip-rule="evenodd" d="M5.80474 3.13807C6.06509 2.87772 6.06509 2.45561 5.80474 2.19526C5.54439 1.93491 5.12228 1.93491 4.86193 2.19526L2.19526 4.86193C1.93491 5.12228 1.93491 5.54439 2.19526 5.80474L4.86193 8.4714C5.12228 8.73173 5.54439 8.73173 5.80474 8.4714C6.06509 8.21107 6.06509 7.78893 5.80474 7.5286L4.27614 6H10.6667C11.0349 6 11.3333 5.70152 11.3333 5.33333C11.3333 4.96515 11.0349 4.66667 10.6667 4.66667H4.27614L5.80474 3.13807ZM13.8047 10.1953L11.1381 7.5286C10.8777 7.26827 10.4556 7.26827 10.1953 7.5286C9.93493 7.78893 9.93493 8.21107 10.1953 8.4714L11.7239 10H5.33333C4.96515 10 4.66667 10.2985 4.66667 10.6667C4.66667 11.0349 4.96515 11.3333 5.33333 11.3333H11.7239L10.1953 12.8619C9.93493 13.1223 9.93493 13.5444 10.1953 13.8047C10.4556 14.0651 10.8777 14.0651 11.1381 13.8047L13.8047 11.1381C14.0651 10.8777 14.0651 10.4556 13.8047 10.1953Z" fill="#737373"/>
</svg>
