<svg width="14" height="14" viewBox="0 0 14 14" fill="none" xmlns="http://www.w3.org/2000/svg">
<path d="M12.8307 5.25H1.16406M3.4974 10.2083L4.95573 8.75L3.4974 7.29167M6.41406 10.2083H8.7474M1.16406 4.55V9.45C1.16406 10.4301 1.16406 10.9201 1.3548 11.2945C1.52258 11.6238 1.79029 11.8915 2.11958 12.0592C2.49392 12.25 2.98397 12.25 3.96406 12.25H10.0307C11.0108 12.25 11.5008 12.25 11.8752 12.0592C12.2045 11.8915 12.4722 11.6238 12.64 11.2945C12.8307 10.9201 12.8307 10.4301 12.8307 9.45V4.55C12.8307 3.56991 12.8307 3.07987 12.64 2.70552C12.4722 2.37623 12.2045 2.10852 11.8752 1.94074C11.5008 1.75 11.0108 1.75 10.0307 1.75H3.96406C2.98397 1.75 2.49392 1.75 2.11958 1.94074C1.79029 2.10852 1.52258 2.37623 1.3548 2.70552C1.16406 3.07986 1.16406 3.56991 1.16406 4.55Z" stroke="#374151" stroke-width="1.25" stroke-linecap="round" stroke-linejoin="round"/>
</svg>
