<svg width="17" height="16" viewBox="0 0 17 16" fill="none" xmlns="http://www.w3.org/2000/svg">
<path d="M5.05687 7.1999C5.37687 5.5999 6.81687 4.3999 8.49687 4.3999C9.69687 4.3999 10.6569 4.9599 11.2969 5.8399L12.6569 4.2399C11.6969 3.1199 10.1769 2.3999 8.49687 2.3999C5.69687 2.3999 3.37687 4.4799 2.97687 7.1999H1.29688L4.09687 10.3999L6.89687 7.1999H5.05687ZM12.8969 5.5999L10.0969 8.7999H11.9369C11.5369 10.3999 10.1769 11.5999 8.49687 11.5999C7.29687 11.5999 6.33687 11.0399 5.69687 10.1599L4.33687 11.6799C5.29688 12.8799 6.81687 13.5999 8.49687 13.5999C11.2969 13.5999 13.6169 11.5199 14.0169 8.7999H15.6969L12.8969 5.5999Z" fill="#3B82F6"/>
</svg>
