<svg width="16" height="16" viewBox="0 0 16 16" fill="none" xmlns="http://www.w3.org/2000/svg">
<g id="Icons/edit" clip-path="url(#clip0_10961_11100)">
<path id="Vector" d="M7.33203 2.66797H2.66536C2.31174 2.66797 1.9726 2.80844 1.72256 3.05849C1.47251 3.30854 1.33203 3.64768 1.33203 4.0013V13.3346C1.33203 13.6883 1.47251 14.0274 1.72256 14.2774C1.9726 14.5275 2.31174 14.668 2.66536 14.668H11.9987C12.3523 14.668 12.6915 14.5275 12.9415 14.2774C13.1916 14.0274 13.332 13.6883 13.332 13.3346V8.66797" stroke="#737373" stroke-width="1.5" stroke-linecap="round" stroke-linejoin="round"/>
<path id="Vector_2" d="M12.332 1.66812C12.5972 1.4029 12.957 1.25391 13.332 1.25391C13.7071 1.25391 14.0668 1.4029 14.332 1.66812C14.5972 1.93334 14.7462 2.29305 14.7462 2.66812C14.7462 3.04319 14.5972 3.4029 14.332 3.66812L7.9987 10.0015L5.33203 10.6681L5.9987 8.00145L12.332 1.66812Z" stroke="#737373" stroke-width="1.5" stroke-linecap="round" stroke-linejoin="round"/>
</g>
<defs>
<clipPath id="clip0_10961_11100">
<rect width="16" height="16" fill="white"/>
</clipPath>
</defs>
</svg>
