<svg width="20" height="20" viewBox="0 0 20 20" fill="none" xmlns="http://www.w3.org/2000/svg">
<path d="M14.0614 2H5.93647C5.93647 2 4.92021 2 4.92021 3H15.0777C15.0777 2 14.0614 2 14.0614 2ZM17.1092 5C17.1092 4 16.094 4 16.094 4H3.90497C3.90497 4 2.88973 4 2.88973 5V6H17.1092V5ZM19.1397 6L18.5397 5.408V7H1.45921V5.408L0.858229 6C0.257248 6.592 -0.173336 6.75 0.0684853 8C0.309286 9.246 1.47554 16.076 1.64899 17C1.83878 18.014 2.89075 18 2.89075 18H17.1102C17.1102 18 18.1612 18.014 18.352 17C18.5254 16.076 19.6907 9.246 19.9325 8C20.1723 6.75 19.7417 6.592 19.1397 6ZM14.0808 11.997C14.0808 12.551 13.6227 13 13.0574 13H6.9415C6.67008 13 6.40977 12.8943 6.21785 12.7062C6.02592 12.5181 5.9181 12.263 5.9181 11.997V10H6.93844V12H13.0605V10H14.0808V11.997Z" fill="#687D95"/>
</svg>
