<svg width="24" height="24" viewBox="0 0 24 24" fill="none" xmlns="http://www.w3.org/2000/svg">
<g clip-path="url(#clip0_579_23783)">
<path d="M17.8 5.6H14.456C14.12 4.672 13.24 4 12.2 4C11.16 4 10.28 4.672 9.944 5.6H6.6C5.72 5.6 5 6.32 5 7.2V18.4C5 19.28 5.72 20 6.6 20H17.8C18.68 20 19.4 19.28 19.4 18.4V7.2C19.4 6.32 18.68 5.6 17.8 5.6ZM12.2 5.6C12.64 5.6 13 5.96 13 6.4C13 6.84 12.64 7.2 12.2 7.2C11.76 7.2 11.4 6.84 11.4 6.4C11.4 5.96 11.76 5.6 12.2 5.6ZM13.8 16.8H8.2V15.2H13.8V16.8ZM16.2 13.6H8.2V12H16.2V13.6ZM16.2 10.4H8.2V8.8H16.2V10.4Z" fill="#687D95"/>
</g>
<defs>
<clipPath id="clip0_579_23783">
<rect width="24" height="24" fill="white"/>
</clipPath>
</defs>
</svg>
