<svg width="24" height="24" viewBox="0 0 24 24" fill="none" xmlns="http://www.w3.org/2000/svg">
<circle cx="12" cy="12" r="12" fill="#8C8C8C"/>
<path d="M18 16.6673V17.334H6V16.6673L7.33333 15.334V11.334C7.33333 9.26732 8.68667 7.44732 10.6667 6.86065C10.6667 6.79398 10.6667 6.73398 10.6667 6.66732C10.6667 6.3137 10.8071 5.97456 11.0572 5.72451C11.3072 5.47446 11.6464 5.33398 12 5.33398C12.3536 5.33398 12.6928 5.47446 12.9428 5.72451C13.1929 5.97456 13.3333 6.3137 13.3333 6.66732C13.3333 6.73398 13.3333 6.79398 13.3333 6.86065C15.3133 7.44732 16.6667 9.26732 16.6667 11.334V15.334L18 16.6673ZM13.3333 18.0007C13.3333 18.3543 13.1929 18.6934 12.9428 18.9435C12.6928 19.1935 12.3536 19.334 12 19.334C11.6464 19.334 11.3072 19.1935 11.0572 18.9435C10.8071 18.6934 10.6667 18.3543 10.6667 18.0007" fill="white"/>
</svg>
