<svg width="754" height="553" viewBox="0 0 754 553" fill="none" xmlns="http://www.w3.org/2000/svg">
<path d="M564.978 286.113H564.104V385.86H564.978V286.113Z" fill="url(#paint0_linear_548_2608)"/>
<path d="M571.491 286.472C571.491 290.312 568.372 293.431 564.533 293.431C560.693 293.431 557.574 290.312 557.574 286.472C557.574 282.633 560.693 279.514 564.533 279.514C568.389 279.514 571.491 282.633 571.491 286.472Z" fill="url(#paint1_radial_548_2608)"/>
<path d="M92.1216 186.434H90.9219V323.629H92.1216V186.434Z" fill="url(#paint2_linear_548_2608)"/>
<path d="M101.085 186.931C101.085 192.209 96.8001 196.494 91.5214 196.494C86.2427 196.494 81.958 192.209 81.958 186.931C81.958 181.652 86.2427 177.367 91.5214 177.367C96.8001 177.367 101.085 181.652 101.085 186.931Z" fill="url(#paint3_radial_548_2608)"/>
<path d="M375.218 271.661H373.179V504.61H375.218V271.661Z" fill="url(#paint4_linear_548_2608)"/>
<path d="M584.67 311.958H583.213V478.803H584.67V311.958Z" fill="url(#paint5_linear_548_2608)"/>
<path d="M595.587 312.558C595.587 318.985 590.377 324.195 583.95 324.195C577.523 324.195 572.312 318.985 572.312 312.558C572.312 306.131 577.523 300.92 583.95 300.92C590.377 300.92 595.587 306.131 595.587 312.558Z" fill="url(#paint6_radial_548_2608)"/>
<path d="M176.992 141.17H174.747V397.6H176.992V141.17Z" fill="url(#paint7_linear_548_2608)"/>
<path d="M175.878 159.989C185.76 159.989 193.771 151.978 193.771 142.096C193.771 132.214 185.76 124.203 175.878 124.203C165.996 124.203 157.985 132.214 157.985 142.096C157.985 151.978 165.996 159.989 175.878 159.989Z" fill="url(#paint8_radial_548_2608)"/>
<path d="M61.1337 275.435H59.2656V487.475H61.1337V275.435Z" fill="url(#paint9_linear_548_2608)"/>
<path d="M60.1911 290.997C68.3598 290.997 74.9818 284.375 74.9818 276.206C74.9818 268.038 68.3598 261.416 60.1911 261.416C52.0224 261.416 45.4004 268.038 45.4004 276.206C45.4004 284.375 52.0224 290.997 60.1911 290.997Z" fill="url(#paint10_radial_548_2608)"/>
<path d="M431.758 229.264H431.004V314.392H431.758V229.264Z" fill="url(#paint11_linear_548_2608)"/>
<path d="M431.381 235.502C434.656 235.502 437.311 232.847 437.311 229.572C437.311 226.297 434.656 223.642 431.381 223.642C428.106 223.642 425.451 226.297 425.451 229.572C425.451 232.847 428.106 235.502 431.381 235.502Z" fill="url(#paint12_radial_548_2608)"/>
<path d="M128.301 262.427H127.222V384.591H128.301V262.427Z" fill="url(#paint13_linear_548_2608)"/>
<path d="M127.752 271.39C132.457 271.39 136.27 267.577 136.27 262.872C136.27 258.168 132.457 254.354 127.752 254.354C123.048 254.354 119.234 258.168 119.234 262.872C119.234 267.577 123.048 271.39 127.752 271.39Z" fill="url(#paint14_radial_548_2608)"/>
<path d="M256.995 329.679H255.881V455.974H256.995V329.679Z" fill="url(#paint15_linear_548_2608)"/>
<path d="M256.429 338.951C261.295 338.951 265.239 335.007 265.239 330.142C265.239 325.277 261.295 321.333 256.429 321.333C251.564 321.333 247.62 325.277 247.62 330.142C247.62 335.007 251.564 338.951 256.429 338.951Z" fill="url(#paint16_radial_548_2608)"/>
<path d="M316.415 268.117H314.615V474.176H316.415V268.117Z" fill="url(#paint17_linear_548_2608)"/>
<path d="M315.524 283.25C323.465 283.25 329.903 276.813 329.903 268.871C329.903 260.93 323.465 254.492 315.524 254.492C307.582 254.492 301.145 260.93 301.145 268.871C301.145 276.813 307.582 283.25 315.524 283.25Z" fill="url(#paint18_radial_548_2608)"/>
<path d="M713.484 183.349H711.805V374.48H713.484V183.349Z" fill="url(#paint19_linear_548_2608)"/>
<path d="M712.644 197.386C720.009 197.386 725.978 191.416 725.978 184.052C725.978 176.688 720.009 170.718 712.644 170.718C705.28 170.718 699.311 176.688 699.311 184.052C699.311 191.416 705.28 197.386 712.644 197.386Z" fill="url(#paint20_radial_548_2608)"/>
<path d="M183.026 287.483H181.432V468.28H183.026V287.483Z" fill="url(#paint21_linear_548_2608)"/>
<path d="M182.22 300.749C189.186 300.749 194.834 295.101 194.834 288.135C194.834 281.168 189.186 275.521 182.22 275.521C175.253 275.521 169.605 281.168 169.605 288.135C169.605 295.101 175.253 300.749 182.22 300.749Z" fill="url(#paint22_radial_548_2608)"/>
<path d="M33.5065 218.826H32.4268V342.156H33.5065V218.826Z" fill="url(#paint23_linear_548_2608)"/>
<path d="M41.5617 219.272C41.5617 224.019 37.7055 227.875 32.9581 227.875C28.2107 227.875 24.3545 224.019 24.3545 219.272C24.3545 214.524 28.2107 210.668 32.9581 210.668C37.7055 210.668 41.5617 214.524 41.5617 219.272Z" fill="url(#paint24_radial_548_2608)"/>
<path d="M687.879 227.875H685.514V496.576H687.879V227.875Z" fill="url(#paint25_linear_548_2608)"/>
<path d="M686.679 247.602C697.035 247.602 705.429 239.207 705.429 228.852C705.429 218.497 697.035 210.102 686.679 210.102C676.324 210.102 667.93 218.497 667.93 228.852C667.93 239.207 676.324 247.602 686.679 247.602Z" fill="url(#paint26_radial_548_2608)"/>
<path d="M624.603 139.816H621.98V438.047H624.603V139.816Z" fill="url(#paint27_linear_548_2608)"/>
<path d="M623.301 161.703C634.792 161.703 644.107 152.387 644.107 140.896C644.107 129.405 634.792 120.09 623.301 120.09C611.81 120.09 602.494 129.405 602.494 140.896C602.494 152.387 611.81 161.703 623.301 161.703Z" fill="url(#paint28_radial_548_2608)"/>
<path d="M231.048 254.629H230.208V349.834H231.048V254.629Z" fill="url(#paint29_linear_548_2608)"/>
<path d="M237.269 254.972C237.269 258.639 234.304 261.621 230.619 261.621C226.951 261.621 223.986 258.656 223.986 254.972C223.986 251.304 226.951 248.339 230.619 248.339C234.304 248.322 237.269 251.304 237.269 254.972Z" fill="url(#paint30_radial_548_2608)"/>
<path d="M539.063 159.32H536.853V411.379H539.063V159.32Z" fill="url(#paint31_linear_548_2608)"/>
<path d="M537.95 177.813C547.661 177.813 555.534 169.94 555.534 160.229C555.534 150.517 547.661 142.645 537.95 142.645C528.238 142.645 520.365 150.517 520.365 160.229C520.365 169.94 528.238 177.813 537.95 177.813Z" fill="url(#paint32_radial_548_2608)"/>
<path d="M402.143 314.22H400.995V445.948H402.143V314.22Z" fill="url(#paint33_linear_548_2608)"/>
<path d="M410.747 314.7C410.747 319.773 406.633 323.886 401.56 323.886C396.487 323.886 392.374 319.773 392.374 314.7C392.374 309.627 396.487 305.514 401.56 305.514C406.633 305.514 410.747 309.627 410.747 314.7Z" fill="url(#paint34_radial_548_2608)"/>
<path d="M754 297.938H0V298.024H754V297.938Z" fill="url(#paint35_linear_548_2608)"/>
<path d="M754 550.34H0V550.734H754V550.34Z" fill="url(#paint36_linear_548_2608)"/>
<path d="M754 540.536H0V540.913H754V540.536Z" fill="url(#paint37_linear_548_2608)"/>
<path d="M754 531.11H0V531.487H754V531.11Z" fill="url(#paint38_linear_548_2608)"/>
<path d="M754 522.061H0V522.421H754V522.061Z" fill="url(#paint39_linear_548_2608)"/>
<path d="M754 513.337H0V513.68H754V513.337Z" fill="url(#paint40_linear_548_2608)"/>
<path d="M754 504.939H0V505.265H754V504.939Z" fill="url(#paint41_linear_548_2608)"/>
<path d="M754 496.85H0V497.175H754V496.85Z" fill="url(#paint42_linear_548_2608)"/>
<path d="M754 489.052H0V489.36H754V489.052Z" fill="url(#paint43_linear_548_2608)"/>
<path d="M754 481.528H0V481.819H754V481.528Z" fill="url(#paint44_linear_548_2608)"/>
<path d="M754 474.244H0V474.535H754V474.244Z" fill="url(#paint45_linear_548_2608)"/>
<path d="M754 467.234H0V467.508H754V467.234Z" fill="url(#paint46_linear_548_2608)"/>
<path d="M754 460.447H0V460.721H754V460.447Z" fill="url(#paint47_linear_548_2608)"/>
<path d="M754 453.883H0V454.14H754V453.883Z" fill="url(#paint48_linear_548_2608)"/>
<path d="M754 447.524H0V447.781H754V447.524Z" fill="url(#paint49_linear_548_2608)"/>
<path d="M754 441.372H0V441.612H754V441.372Z" fill="url(#paint50_linear_548_2608)"/>
<path d="M754 435.425H0V435.665H754V435.425Z" fill="url(#paint51_linear_548_2608)"/>
<path d="M754 429.649H0V429.872H754V429.649Z" fill="url(#paint52_linear_548_2608)"/>
<path d="M754 424.044H0V424.267H754V424.044Z" fill="url(#paint53_linear_548_2608)"/>
<path d="M754 418.612H0V418.817H754V418.612Z" fill="url(#paint54_linear_548_2608)"/>
<path d="M754 413.333H0V413.539H754V413.333Z" fill="url(#paint55_linear_548_2608)"/>
<path d="M754 408.226H0V408.431H754V408.226Z" fill="url(#paint56_linear_548_2608)"/>
<path d="M754 403.238H0V403.427H754V403.238Z" fill="url(#paint57_linear_548_2608)"/>
<path d="M754 398.405H0V398.594H754V398.405Z" fill="url(#paint58_linear_548_2608)"/>
<path d="M754 393.709H0V393.898H754V393.709Z" fill="url(#paint59_linear_548_2608)"/>
<path d="M754 389.15H0V389.339H754V389.15Z" fill="url(#paint60_linear_548_2608)"/>
<path d="M754 384.694H0V384.866H754V384.694Z" fill="url(#paint61_linear_548_2608)"/>
<path d="M754 380.375H0V380.546H754V380.375Z" fill="url(#paint62_linear_548_2608)"/>
<path d="M754 376.159H0V376.331H754V376.159Z" fill="url(#paint63_linear_548_2608)"/>
<path d="M754 372.046H0V372.2H754V372.046Z" fill="url(#paint64_linear_548_2608)"/>
<path d="M754 368.052H0V368.206H754V368.052Z" fill="url(#paint65_linear_548_2608)"/>
<path d="M754 364.145H0V364.299H754V364.145Z" fill="url(#paint66_linear_548_2608)"/>
<path d="M754 360.357H0V360.511H754V360.357Z" fill="url(#paint67_linear_548_2608)"/>
<path d="M754 356.638H0V356.792H754V356.638Z" fill="url(#paint68_linear_548_2608)"/>
<path d="M754 353.022H0V353.159H754V353.022Z" fill="url(#paint69_linear_548_2608)"/>
<path d="M754 349.491H0V349.628H754V349.491Z" fill="url(#paint70_linear_548_2608)"/>
<path d="M754 346.046H0V346.183H754V346.046Z" fill="url(#paint71_linear_548_2608)"/>
<path d="M754 342.687H0V342.824H754V342.687Z" fill="url(#paint72_linear_548_2608)"/>
<path d="M754 339.396H0V339.534H754V339.396Z" fill="url(#paint73_linear_548_2608)"/>
<path d="M754 336.191H0V336.311H754V336.191Z" fill="url(#paint74_linear_548_2608)"/>
<path d="M754 333.055H0V333.175H754V333.055Z" fill="url(#paint75_linear_548_2608)"/>
<path d="M754 329.987H0V330.107H754V329.987Z" fill="url(#paint76_linear_548_2608)"/>
<path d="M754 326.988H0V327.108H754V326.988Z" fill="url(#paint77_linear_548_2608)"/>
<path d="M754 324.058H0V324.178H754V324.058Z" fill="url(#paint78_linear_548_2608)"/>
<path d="M754 321.195H0V321.315H754V321.195Z" fill="url(#paint79_linear_548_2608)"/>
<path d="M754 318.384H0V318.487H754V318.384Z" fill="url(#paint80_linear_548_2608)"/>
<path d="M754 315.642H0V315.745H754V315.642Z" fill="url(#paint81_linear_548_2608)"/>
<path d="M754 312.952H0V313.054H754V312.952Z" fill="url(#paint82_linear_548_2608)"/>
<path d="M754 310.312H0V310.415H754V310.312Z" fill="url(#paint83_linear_548_2608)"/>
<path d="M754 307.741H0V307.844H754V307.741Z" fill="url(#paint84_linear_548_2608)"/>
<path d="M754 305.205H0V305.307H754V305.205Z" fill="url(#paint85_linear_548_2608)"/>
<path d="M754 302.737H0V302.84H754V302.737Z" fill="url(#paint86_linear_548_2608)"/>
<path d="M754 300.303H0V300.406H754V300.303Z" fill="url(#paint87_linear_548_2608)"/>
<path d="M754 302.36L747.059 297.972H746.579L754 302.668V302.36Z" fill="url(#paint88_linear_548_2608)"/>
<path d="M754 310.295L735.13 297.972H734.65L754 310.638V310.295Z" fill="url(#paint89_linear_548_2608)"/>
<path d="M754 318.761L723.219 297.972H722.722L754 319.121V318.761Z" fill="url(#paint90_linear_548_2608)"/>
<path d="M754 327.828L711.29 297.972H710.793L754 328.222V327.828Z" fill="url(#paint91_linear_548_2608)"/>
<path d="M754 337.563L699.362 297.972H698.882L754 337.974V337.563Z" fill="url(#paint92_linear_548_2608)"/>
<path d="M754 348.017L687.433 297.972H686.953L754 348.463V348.017Z" fill="url(#paint93_linear_548_2608)"/>
<path d="M754 359.294L675.504 297.972H675.024L754 359.774V359.294Z" fill="url(#paint94_linear_548_2608)"/>
<path d="M754 371.48L663.594 297.972H663.097L754 371.994V371.48Z" fill="url(#paint95_linear_548_2608)"/>
<path d="M754 384.711L651.665 297.972H651.168L754 385.277V384.711Z" fill="url(#paint96_linear_548_2608)"/>
<path d="M754 399.125L639.736 297.972H639.239L754 399.742V399.125Z" fill="url(#paint97_linear_548_2608)"/>
<path d="M754 414.875L627.808 297.972H627.328L754 415.544V414.875Z" fill="url(#paint98_linear_548_2608)"/>
<path d="M754 432.151L615.879 297.972H615.399L754 432.888V432.151Z" fill="url(#paint99_linear_548_2608)"/>
<path d="M754 451.209L603.951 297.972H603.471L754 452.032V451.209Z" fill="url(#paint100_linear_548_2608)"/>
<path d="M754 472.307L592.039 297.972H591.542L754 473.232V472.307Z" fill="url(#paint101_linear_548_2608)"/>
<path d="M754 495.838L580.11 297.972H579.613L754 496.85V495.838Z" fill="url(#paint102_linear_548_2608)"/>
<path d="M754 522.198L568.182 297.972H567.702L754 523.346V522.198Z" fill="url(#paint103_linear_548_2608)"/>
<path d="M754 552.019V551.968L556.253 297.972H555.773L753.023 552.019H754Z" fill="url(#paint104_linear_548_2608)"/>
<path d="M729.371 552.019L544.325 297.972H543.845L728.36 552.019H729.371Z" fill="url(#paint105_linear_548_2608)"/>
<path d="M704.692 552.019L532.414 297.972H531.917L703.698 552.019H704.692Z" fill="url(#paint106_linear_548_2608)"/>
<path d="M680.029 552.019L520.485 297.972H519.988L679.018 552.019H680.029Z" fill="url(#paint107_linear_548_2608)"/>
<path d="M655.366 552.019L508.556 297.972H508.076L654.355 552.019H655.366Z" fill="url(#paint108_linear_548_2608)"/>
<path d="M630.687 552.019L496.628 297.972H496.148L629.676 552.019H630.687Z" fill="url(#paint109_linear_548_2608)"/>
<path d="M606.024 552.019L484.7 297.972H484.22L605.013 552.019H606.024Z" fill="url(#paint110_linear_548_2608)"/>
<path d="M581.362 552.019L472.771 297.972H472.291L580.351 552.019H581.362Z" fill="url(#paint111_linear_548_2608)"/>
<path d="M556.682 552.019L460.859 297.972H460.362L555.671 552.019H556.682Z" fill="url(#paint112_linear_548_2608)"/>
<path d="M532.02 552.019L448.932 297.972H448.435L531.009 552.019H532.02Z" fill="url(#paint113_linear_548_2608)"/>
<path d="M507.357 552.019L437.002 297.972H436.522L506.346 552.019H507.357Z" fill="url(#paint114_linear_548_2608)"/>
<path d="M482.677 552.019L425.074 297.972H424.594L481.666 552.019H482.677Z" fill="url(#paint115_linear_548_2608)"/>
<path d="M458.015 552.019L413.146 297.972H412.666L457.004 552.019H458.015Z" fill="url(#paint116_linear_548_2608)"/>
<path d="M433.335 552.019L401.234 297.972H400.737L432.341 552.019H433.335Z" fill="url(#paint117_linear_548_2608)"/>
<path d="M408.672 552.019L389.306 297.972H388.809L407.661 552.019H408.672Z" fill="url(#paint118_linear_548_2608)"/>
<path d="M384.01 552.019L377.377 297.972H376.897L382.999 552.019H384.01Z" fill="url(#paint119_linear_548_2608)"/>
<path d="M359.33 552.019L365.449 297.972H364.969L358.336 552.019H359.33Z" fill="url(#paint120_linear_548_2608)"/>
<path d="M334.667 552.019L353.52 297.972H353.04L333.656 552.019H334.667Z" fill="url(#paint121_linear_548_2608)"/>
<path d="M310.005 552.019L341.592 297.972H341.112L308.994 552.019H310.005Z" fill="url(#paint122_linear_548_2608)"/>
<path d="M285.325 552.019L329.68 297.972H329.183L284.331 552.019H285.325Z" fill="url(#paint123_linear_548_2608)"/>
<path d="M260.663 552.019L317.752 297.972H317.255L259.651 552.019H260.663Z" fill="url(#paint124_linear_548_2608)"/>
<path d="M235.999 552.019L305.823 297.972H305.343L234.988 552.019H235.999Z" fill="url(#paint125_linear_548_2608)"/>
<path d="M211.337 552.019L293.894 297.972H293.415L210.326 552.019H211.337Z" fill="url(#paint126_linear_548_2608)"/>
<path d="M186.658 552.019L281.966 297.972H281.486L185.646 552.019H186.658Z" fill="url(#paint127_linear_548_2608)"/>
<path d="M161.996 552.019L270.055 297.972H269.558L160.984 552.019H161.996Z" fill="url(#paint128_linear_548_2608)"/>
<path d="M137.332 552.019L258.126 297.972H257.629L136.321 552.019H137.332Z" fill="url(#paint129_linear_548_2608)"/>
<path d="M112.653 552.019L246.198 297.972H245.701L111.642 552.019H112.653Z" fill="url(#paint130_linear_548_2608)"/>
<path d="M87.9897 552.019L234.269 297.972H233.789L86.9785 552.019H87.9897Z" fill="url(#paint131_linear_548_2608)"/>
<path d="M63.31 552.019L222.34 297.972H221.86L62.2988 552.019H63.31Z" fill="url(#paint132_linear_548_2608)"/>
<path d="M38.6479 552.019L210.412 297.972H209.932L37.6367 552.019H38.6479Z" fill="url(#paint133_linear_548_2608)"/>
<path d="M13.9848 552.019L198.5 297.972H198.003L12.9736 552.019H13.9848Z" fill="url(#paint134_linear_548_2608)"/>
<path d="M0 538.24L186.572 297.972H186.075L0 536.988V538.24Z" fill="url(#paint135_linear_548_2608)"/>
<path d="M0 509.241L174.643 297.972H174.163L0 508.127V509.241Z" fill="url(#paint136_linear_548_2608)"/>
<path d="M0 483.55L162.715 297.972H162.235L0 482.573V483.55Z" fill="url(#paint137_linear_548_2608)"/>
<path d="M0 460.653L150.786 297.972H150.306L0 459.762V460.653Z" fill="url(#paint138_linear_548_2608)"/>
<path d="M0 440.086L138.875 297.972H138.378L0 439.298V440.086Z" fill="url(#paint139_linear_548_2608)"/>
<path d="M0 421.542L126.946 297.972H126.449L0 420.822V421.542Z" fill="url(#paint140_linear_548_2608)"/>
<path d="M0 404.729L115.018 297.972H114.521L0 404.078V404.729Z" fill="url(#paint141_linear_548_2608)"/>
<path d="M0 389.407L103.089 297.972H102.609L0 388.807V389.407Z" fill="url(#paint142_linear_548_2608)"/>
<path d="M0 375.388L91.1608 297.972H90.6809L0 374.839V375.388Z" fill="url(#paint143_linear_548_2608)"/>
<path d="M0 362.499L79.2322 297.972H78.7523L0 362.002V362.499Z" fill="url(#paint144_linear_548_2608)"/>
<path d="M0 350.639L67.3208 297.972H66.8238L0 350.177V350.639Z" fill="url(#paint145_linear_548_2608)"/>
<path d="M0 339.671L55.3923 297.972H54.8953L0 339.242V339.671Z" fill="url(#paint146_linear_548_2608)"/>
<path d="M0 329.507L43.4637 297.972H42.9839L0 329.113V329.507Z" fill="url(#paint147_linear_548_2608)"/>
<path d="M0 320.047L31.5352 297.972H31.0553L0 319.687V320.047Z" fill="url(#paint148_linear_548_2608)"/>
<path d="M0 311.238L19.6067 297.972H19.1268L0 310.895V311.238Z" fill="url(#paint149_linear_548_2608)"/>
<path d="M0 303.011L7.69528 297.972H7.19825L0 302.685V303.011Z" fill="url(#paint150_linear_548_2608)"/>
<path d="M190.901 254.51H189.371V428.52H190.901V254.51Z" fill="url(#paint151_linear_548_2608)"/>
<path d="M190.14 267.28C196.845 267.28 202.28 261.845 202.28 255.14C202.28 248.435 196.845 243 190.14 243C183.435 243 178 248.435 178 255.14C178 261.845 183.435 267.28 190.14 267.28Z" fill="url(#paint152_radial_548_2608)"/>
<g filter="url(#filter0_f_548_2608)">
<path d="M602.153 122.759C602.717 117.846 599.562 113.148 594.636 111.926C592.179 111.309 589.709 111.684 587.628 112.758C586.984 105.858 580.782 100.059 572.54 101.214C570.486 101.496 567.519 102.932 566.042 104.395C563.774 106.637 562.472 109.416 562.082 112.114C559.8 110.476 557.102 109.335 554.082 108.879C545.678 107.617 537.342 112.45 534.268 120.37C533.221 123.068 532.858 125.82 533.06 128.464C516.521 126.048 511.93 151.513 534.308 151.513C542.201 151.513 596.555 151.513 609.147 151.513C635.471 151.513 628.706 118.235 602.153 122.759Z" fill="url(#paint153_radial_548_2608)"/>
</g>
<g filter="url(#filter1_f_548_2608)">
<path d="M536.455 248.878C536.697 246.757 535.341 244.73 533.22 244.207C532.16 243.938 531.099 244.099 530.2 244.569C529.918 241.589 527.247 239.092 523.689 239.589C522.803 239.71 521.528 240.327 520.884 240.958C519.904 241.924 519.34 243.119 519.179 244.287C518.199 243.589 517.031 243.092 515.729 242.891C512.104 242.354 508.507 244.435 507.191 247.844C506.735 249.012 506.587 250.194 506.668 251.335C499.539 250.288 497.553 261.268 507.205 261.268C510.614 261.268 534.053 261.268 539.489 261.268C550.833 261.282 547.906 246.918 536.455 248.878Z" fill="url(#paint154_radial_548_2608)"/>
</g>
<g filter="url(#filter2_f_548_2608)">
<path d="M255.115 156.709C255.329 154.883 254.148 153.138 252.322 152.668C251.41 152.44 250.483 152.574 249.718 152.977C249.477 150.413 247.168 148.252 244.094 148.681C243.328 148.789 242.228 149.326 241.677 149.863C240.831 150.695 240.348 151.728 240.201 152.735C239.355 152.131 238.348 151.702 237.22 151.527C234.093 151.057 230.992 152.856 229.837 155.809C229.448 156.816 229.314 157.836 229.394 158.816C223.233 157.917 221.528 167.394 229.864 167.394C232.804 167.394 253.047 167.394 257.732 167.394C267.532 167.421 265.008 155.017 255.115 156.709Z" fill="url(#paint155_radial_548_2608)"/>
</g>
<g filter="url(#filter3_f_548_2608)">
<path d="M425.765 207.119C426.332 202.146 423.175 197.409 418.237 196.166C415.773 195.549 413.299 195.921 411.213 197.01C410.565 190.032 404.35 184.171 396.085 185.341C394.025 185.632 391.057 187.074 389.573 188.553C387.298 190.813 386.002 193.626 385.607 196.366C383.322 194.715 380.606 193.553 377.584 193.09C369.166 191.82 360.801 196.702 357.725 204.705C356.673 207.427 356.313 210.213 356.511 212.881C339.935 210.44 335.339 236.191 357.77 236.191C365.685 236.191 420.162 236.191 432.789 236.191C459.169 236.191 452.387 202.536 425.765 207.119Z" fill="url(#paint156_radial_548_2608)"/>
</g>
<g opacity="0.4" filter="url(#filter4_f_548_2608)">
<path d="M260.189 226.433C260.686 222.044 257.88 217.855 253.477 216.754C251.276 216.204 249.074 216.54 247.208 217.506C246.631 211.345 241.087 206.163 233.717 207.197C231.878 207.452 229.234 208.727 227.918 210.029C225.891 212.029 224.737 214.513 224.388 216.929C222.347 215.466 219.931 214.446 217.233 214.043C209.729 212.915 202.278 217.238 199.54 224.299C198.6 226.702 198.278 229.158 198.466 231.521C183.699 229.36 179.592 252.113 199.58 252.113C206.641 252.113 255.182 252.113 266.445 252.113C289.964 252.113 283.91 222.379 260.189 226.433Z" fill="url(#paint157_radial_548_2608)"/>
</g>
<g filter="url(#filter5_f_548_2608)">
<path d="M626.45 243.83C626.611 242.367 625.685 240.971 624.222 240.609C623.497 240.421 622.759 240.542 622.141 240.85C621.953 238.796 620.101 237.078 617.658 237.427C617.04 237.508 616.167 237.937 615.725 238.367C615.053 239.038 614.664 239.857 614.543 240.662C613.859 240.179 613.067 239.83 612.167 239.696C609.67 239.32 607.187 240.756 606.287 243.105C605.979 243.911 605.871 244.73 605.925 245.508C601.012 244.797 599.643 252.355 606.301 252.355C608.65 252.355 624.799 252.355 628.544 252.355C636.357 252.368 634.344 242.475 626.45 243.83Z" fill="url(#paint158_radial_548_2608)"/>
</g>
<g filter="url(#filter6_f_548_2608)">
<path d="M480.276 175.865C480.585 173.207 478.88 170.67 476.222 170.012C474.893 169.676 473.564 169.878 472.437 170.468C472.088 166.736 468.732 163.609 464.275 164.24C463.161 164.401 461.563 165.166 460.771 165.958C459.55 167.166 458.838 168.67 458.637 170.133C457.402 169.247 455.939 168.629 454.314 168.388C449.777 167.703 445.266 170.321 443.615 174.59C443.051 176.053 442.85 177.529 442.958 178.966C434.017 177.664 431.547 191.423 443.629 191.423C447.898 191.423 477.256 191.423 484.075 191.423C498.291 191.41 494.627 173.422 480.276 175.865Z" fill="url(#paint159_radial_548_2608)"/>
</g>
<g opacity="0.3" filter="url(#filter7_f_548_2608)">
<path d="M389.476 106.773C390.04 101.833 386.885 97.1346 381.932 95.8996C379.462 95.2821 376.992 95.658 374.898 96.7319C374.253 89.8051 368.024 83.9925 359.742 85.147C357.675 85.4423 354.708 86.8653 353.218 88.3285C350.949 90.5703 349.634 93.3625 349.244 96.0876C346.949 94.4498 344.237 93.2954 341.217 92.8389C332.786 91.5771 324.41 96.4232 321.322 104.37C320.275 107.082 319.913 109.834 320.114 112.492C303.509 110.075 298.904 135.635 321.376 135.635C329.31 135.635 383.865 135.635 396.51 135.635C422.942 135.635 416.15 102.222 389.476 106.773Z" fill="url(#paint160_radial_548_2608)"/>
</g>
<g filter="url(#filter8_f_548_2608)">
<path d="M158.919 140.801C159.187 138.506 157.71 136.304 155.401 135.727C154.247 135.445 153.093 135.606 152.113 136.116C151.804 132.881 148.904 130.169 145.038 130.706C144.072 130.841 142.689 131.512 141.991 132.196C140.93 133.244 140.326 134.546 140.138 135.821C139.064 135.056 137.803 134.519 136.393 134.304C132.46 133.713 128.553 135.982 127.117 139.687C126.62 140.949 126.459 142.238 126.553 143.473C118.808 142.345 116.66 154.266 127.144 154.266C130.849 154.266 156.301 154.266 162.194 154.266C174.531 154.266 171.363 138.68 158.919 140.801Z" fill="url(#paint161_radial_548_2608)"/>
</g>
<g filter="url(#filter9_f_548_2608)">
<path d="M160.006 272.679C160.193 271.014 159.133 269.43 157.468 269.014C156.636 268.813 155.804 268.933 155.106 269.296C154.891 266.96 152.797 265 150.005 265.403C149.307 265.497 148.313 265.98 147.803 266.477C147.038 267.229 146.595 268.168 146.461 269.081C145.696 268.531 144.769 268.141 143.762 267.994C140.93 267.564 138.111 269.202 137.064 271.873C136.715 272.786 136.594 273.712 136.661 274.612C131.077 273.793 129.52 282.398 137.091 282.398C139.762 282.398 158.126 282.398 162.382 282.398C171.268 282.398 168.986 271.148 160.006 272.679Z" fill="url(#paint162_radial_548_2608)"/>
</g>
<rect x="207" y="251" width="80" height="80" rx="8" fill="white"/>
<path d="M236.297 288.295C236.284 288.775 236.344 289.253 236.476 289.715C236.621 290.11 236.796 290.494 236.998 290.864C237.071 290.974 237.11 291.101 237.112 291.231C237.112 291.391 237.015 291.551 236.802 291.71L235.775 292.38C235.651 292.468 235.503 292.518 235.35 292.524C235.165 292.511 234.99 292.432 234.861 292.301C234.641 292.07 234.444 291.818 234.273 291.551C234.11 291.279 233.947 290.976 233.768 290.609C232.495 292.077 230.896 292.811 228.971 292.811C227.6 292.811 226.507 292.428 225.707 291.662C224.908 290.895 224.5 289.875 224.5 288.598C224.5 287.242 224.989 286.141 225.985 285.311C226.98 284.482 228.302 284.067 229.982 284.067C230.561 284.071 231.139 284.114 231.712 284.194C232.315 284.274 232.935 284.402 233.588 284.545V283.381C233.588 282.167 233.327 281.322 232.821 280.827C232.299 280.333 231.418 280.093 230.162 280.093C229.568 280.093 228.976 280.163 228.399 280.301C227.8 280.441 227.211 280.622 226.637 280.843C226.452 280.925 226.261 280.994 226.066 281.051C225.982 281.078 225.894 281.094 225.805 281.099C225.577 281.099 225.462 280.939 225.462 280.604V279.822C225.462 279.567 225.495 279.375 225.577 279.264C225.7 279.118 225.856 279.003 226.034 278.929C226.688 278.612 227.378 278.371 228.09 278.211C228.921 278.002 229.777 277.9 230.635 277.907C232.577 277.907 233.996 278.338 234.91 279.2C235.807 280.062 236.264 281.37 236.264 283.125V288.295H236.297ZM229.672 290.72C230.245 290.714 230.812 290.617 231.353 290.433C231.952 290.231 232.486 289.878 232.903 289.412C233.166 289.118 233.356 288.768 233.458 288.39C233.57 287.936 233.624 287.469 233.621 287.002V286.332C233.126 286.215 232.625 286.124 232.12 286.061C231.611 285.998 231.099 285.966 230.586 285.966C229.493 285.966 228.693 286.173 228.155 286.604C227.616 287.035 227.355 287.641 227.355 288.439C227.355 289.189 227.551 289.748 227.959 290.131C228.351 290.53 228.922 290.721 229.672 290.721V290.72ZM242.774 292.444C242.48 292.444 242.285 292.396 242.154 292.284C242.023 292.188 241.909 291.965 241.811 291.662L237.977 279.328C237.903 279.121 237.853 278.907 237.83 278.689C237.83 278.434 237.961 278.29 238.222 278.29H239.821C240.131 278.29 240.343 278.338 240.457 278.45C240.588 278.545 240.685 278.769 240.784 279.072L243.525 289.635L246.07 279.072C246.151 278.753 246.249 278.546 246.38 278.45C246.51 278.354 246.739 278.29 247.033 278.29H248.338C248.648 278.29 248.861 278.338 248.991 278.45C249.122 278.546 249.236 278.769 249.301 279.072L251.879 289.763L254.701 279.072C254.799 278.753 254.913 278.546 255.027 278.45C255.158 278.354 255.37 278.29 255.664 278.29H257.181C257.442 278.29 257.589 278.418 257.589 278.689C257.585 278.775 257.574 278.861 257.557 278.945C257.531 279.081 257.493 279.214 257.442 279.344L253.51 291.678C253.412 291.997 253.298 292.205 253.167 292.3C252.983 292.416 252.766 292.472 252.547 292.46H251.144C250.834 292.46 250.622 292.412 250.491 292.3C250.361 292.189 250.247 291.981 250.181 291.662L247.652 281.37L245.14 291.646C245.058 291.965 244.96 292.173 244.83 292.284C244.699 292.396 244.471 292.444 244.177 292.444L242.774 292.444ZM263.74 292.875C262.894 292.875 262.051 292.779 261.227 292.587C260.412 292.396 259.775 292.188 259.351 291.949C259.09 291.805 258.911 291.646 258.845 291.502C258.782 291.361 258.748 291.209 258.747 291.055V290.242C258.747 289.907 258.878 289.747 259.123 289.747C259.223 289.747 259.322 289.764 259.416 289.795C259.514 289.827 259.661 289.891 259.824 289.955C260.401 290.202 261.002 290.39 261.619 290.513C262.258 290.64 262.909 290.704 263.561 290.705C264.589 290.705 265.388 290.529 265.943 290.178C266.209 290.021 266.427 289.798 266.576 289.532C266.725 289.266 266.8 288.966 266.792 288.662C266.797 288.457 266.761 288.252 266.686 288.061C266.61 287.869 266.496 287.694 266.351 287.545C266.057 287.242 265.502 286.971 264.703 286.715L262.337 285.997C261.146 285.63 260.265 285.088 259.726 284.37C259.201 283.707 258.914 282.894 258.911 282.056C258.897 281.438 259.049 280.828 259.351 280.285C259.643 279.771 260.043 279.325 260.526 278.976C261.035 278.6 261.61 278.318 262.223 278.146C262.891 277.958 263.584 277.867 264.279 277.876C264.644 277.873 265.009 277.894 265.372 277.939C265.747 277.987 266.09 278.051 266.432 278.115C266.759 278.195 267.069 278.274 267.362 278.37C267.6 278.442 267.83 278.539 268.048 278.657C268.24 278.752 268.407 278.889 268.537 279.056C268.643 279.212 268.695 279.397 268.684 279.583V280.333C268.684 280.668 268.553 280.844 268.309 280.844C268.178 280.844 267.966 280.78 267.689 280.652C266.758 280.237 265.714 280.03 264.556 280.03C263.626 280.03 262.892 280.173 262.386 280.477C261.88 280.78 261.619 281.243 261.619 281.897C261.614 282.109 261.656 282.319 261.74 282.514C261.824 282.71 261.95 282.885 262.108 283.03C262.435 283.333 263.038 283.636 263.903 283.907L266.22 284.625C267.395 284.992 268.243 285.503 268.749 286.157C269.247 286.799 269.511 287.585 269.5 288.391C269.508 289.032 269.363 289.666 269.075 290.242C268.786 290.788 268.38 291.267 267.884 291.646C267.346 292.056 266.731 292.36 266.073 292.54C265.317 292.767 264.531 292.88 263.74 292.875L263.74 292.875Z" fill="#252F3E"/>
<path d="M267.233 302.228C261.834 305.917 253.99 307.875 247.245 307.875C237.793 307.875 229.276 304.642 222.844 299.268C222.335 298.843 222.794 298.266 223.402 298.6C230.359 302.334 238.942 304.596 247.82 304.596C253.81 304.596 260.39 303.442 266.445 301.074C267.348 300.694 268.119 301.621 267.233 302.228L267.233 302.228Z" fill="#FF9900"/>
<path d="M268.856 299.143C268.158 298.231 264.232 298.704 262.451 298.923C261.919 298.991 261.836 298.518 262.318 298.163C265.446 295.934 270.587 296.576 271.185 297.319C271.785 298.079 271.019 303.297 268.091 305.797C267.642 306.185 267.209 305.983 267.409 305.476C268.075 303.804 269.555 300.038 268.856 299.143Z" fill="#FF9900"/>
<rect x="347" y="251" width="80" height="80" rx="8" fill="white"/>
<path d="M389.26 270.375L374.886 283.591L362.625 306.934H373.682L389.26 270.375ZM391.172 273.467L385.038 291.799L396.798 307.468L373.981 311.625H411.375L391.172 273.467Z" fill="#0072C6"/>
<rect x="487" y="251" width="80" height="80" rx="8" fill="white"/>
<path d="M533.617 281.802L537.961 277.326L538.25 275.443C530.334 268.026 517.75 268.868 510.612 277.197C508.617 279.558 507.168 282.354 506.375 285.375L507.93 285.148L516.619 283.675L517.289 282.968C519.148 280.851 521.72 279.544 524.481 279.314C527.243 279.083 529.986 279.946 532.151 281.727L533.617 281.802Z" fill="#EA4335"/>
<path d="M545.147 285.611C544.145 281.895 542.087 278.555 539.227 276L533.108 282.161C534.383 283.21 535.405 284.537 536.096 286.041C536.788 287.546 537.131 289.189 537.1 290.846V291.939C538.536 291.939 539.913 292.513 540.929 293.536C541.944 294.558 542.515 295.945 542.515 297.391C542.515 298.837 541.944 300.224 540.929 301.246C539.913 302.269 538.536 302.843 537.1 302.843H526.195L525.125 304.014V310.591L526.195 311.624H537.1C540.138 311.657 543.105 310.702 545.562 308.902C548.018 307.102 549.833 304.553 550.736 301.632C551.639 298.712 551.584 295.576 550.577 292.69C549.57 289.804 547.666 287.321 545.147 285.611" fill="#4285F4"/>
<path d="M514.62 311.625H525.125V302.747H514.62C513.877 302.747 513.143 302.577 512.467 302.25L510.977 302.732L506.744 307.17L506.375 308.681C508.745 310.587 511.641 311.621 514.62 311.625Z" fill="#34A853"/>
<path d="M515.318 283.5C512.265 283.519 509.293 284.489 506.819 286.277C504.345 288.064 502.491 290.579 501.516 293.47C500.542 296.361 500.496 299.484 501.384 302.403C502.272 305.321 504.051 307.89 506.471 309.75L513.008 303.219C512.178 302.844 511.45 302.273 510.889 301.556C510.327 300.838 509.949 299.996 509.785 299.1C509.621 298.204 509.678 297.282 509.949 296.413C510.221 295.543 510.699 294.753 511.344 294.109C511.988 293.465 512.78 292.987 513.65 292.715C514.52 292.444 515.443 292.388 516.34 292.552C517.236 292.715 518.08 293.093 518.798 293.654C519.516 294.215 520.087 294.942 520.463 295.772L527 289.241C525.628 287.448 523.859 285.998 521.833 285.002C519.806 284.006 517.577 283.492 515.318 283.5Z" fill="#FBBC05"/>
<g filter="url(#filter10_d_548_2608)">
<path d="M457.537 85.59C452.204 85.6619 447.498 81.1183 445.749 76.0806C443.207 68.7625 437.16 62.8398 429.111 60.8233C427.386 60.3935 425.659 60.1677 423.955 60.1292C418.278 60.001 411.782 56.515 409.16 51.4783C403.524 40.6524 391.515 33.2691 376.733 35.3523C371.863 36.0355 364.845 39.4302 361.336 42.9104C359.422 44.801 357.802 46.8564 356.466 49.0102C353.303 54.1114 345.962 57.218 340.265 55.3293C337.938 54.558 335.508 53.9695 332.988 53.5856C313.083 50.5965 293.305 62.083 286.032 80.9141C284.838 83.9888 284.021 87.0979 283.546 90.1942C282.769 95.257 278.264 99.3438 273.203 100.133C242.52 104.921 237.921 155 286.138 155C304.853 155 433.662 155 463.52 155C522.221 155 511.476 84.8626 457.537 85.59Z" fill="white"/>
</g>
<path fill-rule="evenodd" clip-rule="evenodd" d="M360.545 68.3003C359.065 69.033 359 69.7262 359 84.8258C359 98.5911 359.032 99.3141 359.672 99.8801C360.465 100.581 362.079 100.696 363.165 100.128C363.59 99.906 366.196 97.7674 368.958 95.3756C371.719 92.9838 374.356 90.8587 374.817 90.6532C375.859 90.1896 376.161 90.3968 383.003 96.2629C385.787 98.6503 388.495 100.731 389.021 100.888C390.24 101.25 391.721 100.71 392.436 99.6441C392.908 98.9405 392.986 96.8299 392.999 84.4702C393.008 76.5741 392.92 69.8729 392.804 69.5785C392.549 68.9285 391.128 68.2581 390.006 68.2581C389.231 68.2581 388.032 69.2042 379.812 76.3012C376.852 78.8566 376.179 78.8836 373.396 76.5558C372.251 75.5979 371.146 74.9299 370.918 75.0575C370.691 75.1841 370.624 75.1603 370.768 75.0046C371.128 74.6175 370.339 73.7464 369.88 74.0235C369.674 74.1477 369.617 74.0799 369.749 73.8703C370.036 73.4164 368.145 72.7179 368.093 72.6501C368.04 72.5823 367.975 72.4934 367.975 72.4934C367.975 72.4934 367.185 71.247 365.934 70.1742C363.546 68.1249 361.991 67.5845 360.545 68.3003ZM369.444 77.0785C369.833 77.3376 372.618 79.662 375.633 82.2441C378.806 84.9628 381.414 86.9385 381.828 86.9378C382.222 86.9371 383.647 86.003 384.996 84.8621C386.345 83.7209 387.54 82.7872 387.651 82.7868C387.763 82.7865 387.774 84.5612 387.677 86.7306C387.533 89.9243 387.375 90.8095 386.843 91.3817C386.028 92.2601 384.532 92.6056 383.402 92.177C382.93 91.9982 380.154 89.7928 377.233 87.2764C374.312 84.7601 371.572 82.4741 371.143 82.1967C370.049 81.4885 369.242 81.8397 366.508 84.2125L364.133 86.2732L364.032 82.9145C363.975 81.0672 364.08 79.1327 364.265 78.6152C364.332 78.4717 364.378 78.3202 364.405 78.1716C364.47 77.8044 364.417 77.4551 364.279 77.2906C364.061 77.0314 364.085 77.0097 364.351 77.2231C364.542 77.3764 364.908 77.3375 365.383 77.1217C365.531 77.0546 365.689 76.9704 365.856 76.8695C367.028 76.1618 368.165 76.2278 369.444 77.0785Z" fill="#FED931"/>
<path d="M370.918 75.0575C371.146 74.9299 372.251 75.5979 373.396 76.5558L365.934 70.1742C367.185 71.247 367.975 72.4934 367.975 72.4934C367.975 72.4934 368.04 72.5823 368.093 72.6501C368.145 72.7179 370.036 73.4164 369.749 73.8703C369.617 74.0799 369.674 74.1477 369.88 74.0235C370.339 73.7464 371.128 74.6175 370.768 75.0046C370.624 75.1603 370.691 75.1841 370.918 75.0575Z" fill="#FED931"/>
<path d="M364.279 77.2906C364.417 77.4551 364.47 77.8044 364.405 78.1716C364.561 77.8493 364.861 77.4536 365.383 77.1217C364.908 77.3375 364.542 77.3764 364.351 77.2231C364.085 77.0097 364.061 77.0314 364.279 77.2906Z" fill="#FED931"/>
<path d="M342.917 114.781V129H340.221L334.177 119.137V129H331.491V114.781H334.177L340.241 124.654V114.781H342.917ZM352.545 126.49V118.434H355.143V129H352.701L352.545 126.49ZM352.877 124.303L353.678 124.283C353.678 124.993 353.6 125.647 353.443 126.246C353.287 126.845 353.043 127.366 352.711 127.809C352.385 128.245 351.972 128.587 351.471 128.834C350.969 129.075 350.377 129.195 349.693 129.195C349.173 129.195 348.697 129.124 348.268 128.98C347.838 128.831 347.467 128.6 347.154 128.287C346.848 127.968 346.611 127.561 346.441 127.066C346.272 126.565 346.188 125.963 346.188 125.26V118.434H348.766V125.279C348.766 125.631 348.805 125.924 348.883 126.158C348.967 126.393 349.081 126.585 349.225 126.734C349.374 126.878 349.547 126.982 349.742 127.047C349.944 127.105 350.159 127.135 350.387 127.135C351.012 127.135 351.503 127.011 351.861 126.764C352.226 126.51 352.486 126.171 352.643 125.748C352.799 125.318 352.877 124.837 352.877 124.303ZM362.564 127.164C362.928 127.164 363.254 127.092 363.54 126.949C363.827 126.806 364.055 126.604 364.224 126.344C364.4 126.083 364.494 125.781 364.507 125.436H366.939C366.926 126.152 366.724 126.793 366.333 127.359C365.943 127.926 365.422 128.375 364.771 128.707C364.126 129.033 363.404 129.195 362.603 129.195C361.789 129.195 361.079 129.059 360.474 128.785C359.868 128.512 359.364 128.131 358.96 127.643C358.563 127.154 358.264 126.588 358.062 125.943C357.866 125.299 357.769 124.609 357.769 123.873V123.561C357.769 122.825 357.866 122.135 358.062 121.49C358.264 120.846 358.563 120.279 358.96 119.791C359.364 119.303 359.868 118.922 360.474 118.648C361.079 118.375 361.786 118.238 362.593 118.238C363.446 118.238 364.195 118.404 364.839 118.736C365.49 119.068 365.998 119.537 366.363 120.143C366.734 120.748 366.926 121.461 366.939 122.281H364.507C364.494 121.904 364.409 121.565 364.253 121.266C364.097 120.966 363.876 120.725 363.589 120.543C363.303 120.361 362.954 120.27 362.544 120.27C362.108 120.27 361.743 120.361 361.45 120.543C361.164 120.725 360.939 120.976 360.777 121.295C360.62 121.607 360.51 121.959 360.445 122.35C360.386 122.734 360.357 123.137 360.357 123.561V123.873C360.357 124.303 360.386 124.713 360.445 125.104C360.51 125.494 360.62 125.846 360.777 126.158C360.939 126.464 361.164 126.708 361.45 126.891C361.743 127.073 362.114 127.164 362.564 127.164ZM371.987 114V129H369.399V114H371.987ZM371.577 123.336H370.815C370.815 122.6 370.913 121.923 371.108 121.305C371.303 120.686 371.58 120.149 371.938 119.693C372.296 119.231 372.722 118.873 373.217 118.619C373.718 118.365 374.272 118.238 374.877 118.238C375.398 118.238 375.87 118.313 376.293 118.463C376.723 118.606 377.091 118.837 377.397 119.156C377.703 119.475 377.937 119.892 378.1 120.406C378.269 120.914 378.354 121.533 378.354 122.262V129H375.756V122.242C375.756 121.754 375.685 121.37 375.541 121.09C375.398 120.803 375.193 120.598 374.926 120.475C374.666 120.351 374.343 120.289 373.959 120.289C373.543 120.289 373.185 120.37 372.885 120.533C372.586 120.689 372.338 120.908 372.143 121.188C371.954 121.467 371.811 121.79 371.713 122.154C371.622 122.519 371.577 122.913 371.577 123.336ZM392.854 122.662H389.221L389.202 120.768H392.317C392.851 120.768 393.297 120.693 393.655 120.543C394.013 120.393 394.283 120.175 394.466 119.889C394.654 119.602 394.749 119.254 394.749 118.844C394.749 118.388 394.661 118.017 394.485 117.73C394.316 117.444 394.049 117.236 393.684 117.105C393.32 116.969 392.858 116.9 392.298 116.9H390.091V129H387.405V114.781H392.298C393.105 114.781 393.824 114.859 394.456 115.016C395.094 115.165 395.634 115.4 396.077 115.719C396.52 116.038 396.855 116.438 397.083 116.92C397.317 117.402 397.434 117.975 397.434 118.639C397.434 119.225 397.298 119.765 397.024 120.26C396.757 120.748 396.344 121.145 395.784 121.451C395.231 121.757 394.527 121.933 393.675 121.979L392.854 122.662ZM392.737 129H388.43L389.554 126.891H392.737C393.271 126.891 393.71 126.803 394.055 126.627C394.407 126.451 394.667 126.21 394.837 125.904C395.013 125.592 395.1 125.234 395.1 124.83C395.1 124.387 395.022 124.003 394.866 123.678C394.716 123.352 394.475 123.102 394.143 122.926C393.818 122.75 393.388 122.662 392.854 122.662H390.061L390.081 120.768H393.636L394.251 121.5C395.071 121.507 395.738 121.669 396.253 121.988C396.774 122.307 397.158 122.717 397.405 123.219C397.652 123.72 397.776 124.26 397.776 124.84C397.776 125.751 397.578 126.516 397.18 127.135C396.79 127.753 396.217 128.219 395.462 128.531C394.713 128.844 393.805 129 392.737 129ZM405.451 129.195C404.65 129.195 403.931 129.065 403.293 128.805C402.655 128.544 402.111 128.183 401.662 127.721C401.219 127.252 400.878 126.708 400.637 126.09C400.402 125.465 400.285 124.794 400.285 124.078V123.688C400.285 122.874 400.402 122.135 400.637 121.471C400.871 120.8 401.203 120.224 401.633 119.742C402.062 119.26 402.577 118.889 403.176 118.629C403.775 118.368 404.436 118.238 405.158 118.238C405.907 118.238 406.568 118.365 407.141 118.619C407.714 118.867 408.192 119.218 408.576 119.674C408.96 120.13 409.25 120.676 409.445 121.314C409.641 121.946 409.738 122.646 409.738 123.414V124.498H401.457V122.721H407.199V122.525C407.186 122.115 407.108 121.741 406.965 121.402C406.822 121.057 406.6 120.784 406.301 120.582C406.001 120.374 405.614 120.27 405.139 120.27C404.755 120.27 404.419 120.354 404.133 120.523C403.853 120.686 403.618 120.921 403.43 121.227C403.247 121.526 403.111 121.884 403.02 122.301C402.928 122.717 402.883 123.18 402.883 123.688V124.078C402.883 124.521 402.941 124.931 403.059 125.309C403.182 125.686 403.361 126.015 403.596 126.295C403.837 126.568 404.123 126.783 404.455 126.939C404.794 127.089 405.178 127.164 405.607 127.164C406.148 127.164 406.636 127.06 407.072 126.852C407.515 126.637 407.899 126.321 408.225 125.904L409.523 127.252C409.302 127.577 409.003 127.89 408.625 128.189C408.254 128.489 407.805 128.733 407.277 128.922C406.75 129.104 406.141 129.195 405.451 129.195ZM417.013 129.195C416.212 129.195 415.493 129.065 414.855 128.805C414.217 128.544 413.673 128.183 413.224 127.721C412.781 127.252 412.439 126.708 412.198 126.09C411.964 125.465 411.847 124.794 411.847 124.078V123.688C411.847 122.874 411.964 122.135 412.198 121.471C412.433 120.8 412.765 120.224 413.195 119.742C413.624 119.26 414.139 118.889 414.738 118.629C415.336 118.368 415.997 118.238 416.72 118.238C417.469 118.238 418.129 118.365 418.702 118.619C419.275 118.867 419.754 119.218 420.138 119.674C420.522 120.13 420.812 120.676 421.007 121.314C421.202 121.946 421.3 122.646 421.3 123.414V124.498H413.019V122.721H418.761V122.525C418.748 122.115 418.67 121.741 418.527 121.402C418.383 121.057 418.162 120.784 417.863 120.582C417.563 120.374 417.176 120.27 416.7 120.27C416.316 120.27 415.981 120.354 415.695 120.523C415.415 120.686 415.18 120.921 414.991 121.227C414.809 121.526 414.672 121.884 414.581 122.301C414.49 122.717 414.445 123.18 414.445 123.688V124.078C414.445 124.521 414.503 124.931 414.62 125.309C414.744 125.686 414.923 126.015 415.157 126.295C415.398 126.568 415.685 126.783 416.017 126.939C416.355 127.089 416.739 127.164 417.169 127.164C417.71 127.164 418.198 127.06 418.634 126.852C419.077 126.637 419.461 126.321 419.786 125.904L421.085 127.252C420.864 127.577 420.564 127.89 420.187 128.189C419.816 128.489 419.366 128.733 418.839 128.922C418.312 129.104 417.703 129.195 417.013 129.195Z" fill="#000522"/>
<path d="M387 155C387 192.49 387 213.51 387 251" stroke="#B99700" stroke-width="2" stroke-dasharray="4 4"/>
<path d="M527 218C417.653 218 356.347 218 247 218" stroke="#B99700" stroke-width="2" stroke-dasharray="4 4"/>
<circle cx="247" cy="252" r="6" fill="#B99700"/>
<circle cx="387" cy="252" r="6" fill="#B99700"/>
<circle cx="527" cy="252" r="6" fill="#B99700"/>
<circle cx="387" cy="155" r="6" fill="#B99700"/>
<circle cx="247" cy="252" r="4" fill="white"/>
<circle cx="387" cy="252" r="4" fill="white"/>
<circle cx="527" cy="252" r="4" fill="white"/>
<path d="M247 249C247 239.627 247 234.373 247 225" stroke="#B99700" stroke-width="2" stroke-dasharray="4 4"/>
<path d="M527 249C527 236.894 527 230.106 527 218" stroke="#B99700" stroke-width="2" stroke-dasharray="2 2"/>
<circle cx="387" cy="155" r="4" fill="white"/>
<defs>
<filter id="filter0_f_548_2608" x="517.063" y="99.0664" width="110.747" height="54.4473" filterUnits="userSpaceOnUse" color-interpolation-filters="sRGB">
<feFlood flood-opacity="0" result="BackgroundImageFix"/>
<feBlend mode="normal" in="SourceGraphic" in2="BackgroundImageFix" result="shape"/>
<feGaussianBlur stdDeviation="1" result="effect1_foregroundBlur_548_2608"/>
</filter>
<filter id="filter1_f_548_2608" x="498.632" y="237.525" width="50.0332" height="25.7432" filterUnits="userSpaceOnUse" color-interpolation-filters="sRGB">
<feFlood flood-opacity="0" result="BackgroundImageFix"/>
<feBlend mode="normal" in="SourceGraphic" in2="BackgroundImageFix" result="shape"/>
<feGaussianBlur stdDeviation="1" result="effect1_foregroundBlur_548_2608"/>
</filter>
<filter id="filter2_f_548_2608" x="222.183" y="146.626" width="43.75" height="22.7681" filterUnits="userSpaceOnUse" color-interpolation-filters="sRGB">
<feFlood flood-opacity="0" result="BackgroundImageFix"/>
<feBlend mode="normal" in="SourceGraphic" in2="BackgroundImageFix" result="shape"/>
<feGaussianBlur stdDeviation="1" result="effect1_foregroundBlur_548_2608"/>
</filter>
<filter id="filter3_f_548_2608" x="340.486" y="183.191" width="111" height="55" filterUnits="userSpaceOnUse" color-interpolation-filters="sRGB">
<feFlood flood-opacity="0" result="BackgroundImageFix"/>
<feBlend mode="normal" in="SourceGraphic" in2="BackgroundImageFix" result="shape"/>
<feGaussianBlur stdDeviation="1" result="effect1_foregroundBlur_548_2608"/>
</filter>
<filter id="filter4_f_548_2608" x="183.966" y="205.064" width="99.3633" height="49.0488" filterUnits="userSpaceOnUse" color-interpolation-filters="sRGB">
<feFlood flood-opacity="0" result="BackgroundImageFix"/>
<feBlend mode="normal" in="SourceGraphic" in2="BackgroundImageFix" result="shape"/>
<feGaussianBlur stdDeviation="1" result="effect1_foregroundBlur_548_2608"/>
</filter>
<filter id="filter5_f_548_2608" x="599.766" y="235.382" width="35.7207" height="18.9727" filterUnits="userSpaceOnUse" color-interpolation-filters="sRGB">
<feFlood flood-opacity="0" result="BackgroundImageFix"/>
<feBlend mode="normal" in="SourceGraphic" in2="BackgroundImageFix" result="shape"/>
<feGaussianBlur stdDeviation="1" result="effect1_foregroundBlur_548_2608"/>
</filter>
<filter id="filter6_f_548_2608" x="433.396" y="162.158" width="61.6738" height="31.2651" filterUnits="userSpaceOnUse" color-interpolation-filters="sRGB">
<feFlood flood-opacity="0" result="BackgroundImageFix"/>
<feBlend mode="normal" in="SourceGraphic" in2="BackgroundImageFix" result="shape"/>
<feGaussianBlur stdDeviation="1" result="effect1_foregroundBlur_548_2608"/>
</filter>
<filter id="filter7_f_548_2608" x="304.064" y="83" width="111.177" height="54.6348" filterUnits="userSpaceOnUse" color-interpolation-filters="sRGB">
<feFlood flood-opacity="0" result="BackgroundImageFix"/>
<feBlend mode="normal" in="SourceGraphic" in2="BackgroundImageFix" result="shape"/>
<feGaussianBlur stdDeviation="1" result="effect1_foregroundBlur_548_2608"/>
</filter>
<filter id="filter8_f_548_2608" x="118" y="128.638" width="54.0049" height="27.6274" filterUnits="userSpaceOnUse" color-interpolation-filters="sRGB">
<feFlood flood-opacity="0" result="BackgroundImageFix"/>
<feBlend mode="normal" in="SourceGraphic" in2="BackgroundImageFix" result="shape"/>
<feGaussianBlur stdDeviation="1" result="effect1_foregroundBlur_548_2608"/>
</filter>
<filter id="filter9_f_548_2608" x="129.934" y="263.35" width="40.0732" height="21.0474" filterUnits="userSpaceOnUse" color-interpolation-filters="sRGB">
<feFlood flood-opacity="0" result="BackgroundImageFix"/>
<feBlend mode="normal" in="SourceGraphic" in2="BackgroundImageFix" result="shape"/>
<feGaussianBlur stdDeviation="1" result="effect1_foregroundBlur_548_2608"/>
</filter>
<filter id="filter10_d_548_2608" x="215" y="0" width="333" height="200" filterUnits="userSpaceOnUse" color-interpolation-filters="sRGB">
<feFlood flood-opacity="0" result="BackgroundImageFix"/>
<feColorMatrix in="SourceAlpha" type="matrix" values="0 0 0 0 0 0 0 0 0 0 0 0 0 0 0 0 0 0 127 0" result="hardAlpha"/>
<feOffset dx="5" dy="5"/>
<feGaussianBlur stdDeviation="20"/>
<feColorMatrix type="matrix" values="0 0 0 0 0.95 0 0 0 0 0.822117 0 0 0 0 0.241458 0 0 0 1 0"/>
<feBlend mode="normal" in2="BackgroundImageFix" result="effect1_dropShadow_548_2608"/>
<feBlend mode="normal" in="SourceGraphic" in2="effect1_dropShadow_548_2608" result="shape"/>
</filter>
<linearGradient id="paint0_linear_548_2608" x1="564.043" y1="385.858" x2="565.045" y2="286.114" gradientUnits="userSpaceOnUse">
<stop stop-color="#FED931"/>
<stop offset="0.953125" stop-color="#FDFEFF"/>
</linearGradient>
<radialGradient id="paint1_radial_548_2608" cx="0" cy="0" r="1" gradientUnits="userSpaceOnUse" gradientTransform="translate(564.53 286.473) scale(6.95699 6.957)">
<stop stop-color="white"/>
<stop offset="0.208333" stop-color="#E8F5FF"/>
<stop offset="1" stop-color="white" stop-opacity="0"/>
</radialGradient>
<linearGradient id="paint2_linear_548_2608" x1="90.8384" y1="323.626" x2="92.2202" y2="186.435" gradientUnits="userSpaceOnUse">
<stop stop-color="#FED931"/>
<stop offset="0.953125" stop-color="#FDFEFF"/>
</linearGradient>
<radialGradient id="paint3_radial_548_2608" cx="0" cy="0" r="1" gradientUnits="userSpaceOnUse" gradientTransform="translate(91.5175 186.932) scale(9.56158 9.56159)">
<stop stop-color="white"/>
<stop offset="0.145833" stop-color="white"/>
<stop offset="0.515625" stop-color="#FED931" stop-opacity="0"/>
<stop offset="0.666667" stop-color="#FED931"/>
<stop offset="1" stop-color="white" stop-opacity="0"/>
</radialGradient>
<linearGradient id="paint4_linear_548_2608" x1="373.037" y1="504.606" x2="375.38" y2="271.663" gradientUnits="userSpaceOnUse">
<stop stop-color="#FED931"/>
<stop offset="0.953125" stop-color="#FDFEFF"/>
</linearGradient>
<linearGradient id="paint5_linear_548_2608" x1="583.112" y1="478.8" x2="584.794" y2="311.959" gradientUnits="userSpaceOnUse">
<stop stop-color="#FED931"/>
<stop offset="0.953125" stop-color="#FDFEFF"/>
</linearGradient>
<radialGradient id="paint6_radial_548_2608" cx="0" cy="0" r="1" gradientUnits="userSpaceOnUse" gradientTransform="translate(583.945 312.559) scale(11.635 11.635)">
<stop stop-color="white"/>
<stop offset="0.145833" stop-color="white"/>
<stop offset="0.515625" stop-color="#FED931" stop-opacity="0"/>
<stop offset="0.666667" stop-color="#FED931"/>
<stop offset="1" stop-color="white" stop-opacity="0"/>
</radialGradient>
<linearGradient id="paint7_linear_548_2608" x1="174.591" y1="397.595" x2="177.17" y2="141.173" gradientUnits="userSpaceOnUse">
<stop stop-color="#FED931"/>
<stop offset="0.953125" stop-color="#FDFEFF"/>
</linearGradient>
<radialGradient id="paint8_radial_548_2608" cx="0" cy="0" r="1" gradientUnits="userSpaceOnUse" gradientTransform="translate(175.871 142.098) scale(17.8894)">
<stop stop-color="white"/>
<stop offset="0.145833" stop-color="white"/>
<stop offset="0.515625" stop-color="#FED931" stop-opacity="0"/>
<stop offset="0.666667" stop-color="#FED931"/>
<stop offset="1" stop-color="white" stop-opacity="0"/>
</radialGradient>
<linearGradient id="paint9_linear_548_2608" x1="59.1357" y1="487.471" x2="61.2553" y2="275.437" gradientUnits="userSpaceOnUse">
<stop stop-color="#FED931"/>
<stop offset="0.953125" stop-color="#FDFEFF"/>
</linearGradient>
<radialGradient id="paint10_radial_548_2608" cx="0" cy="0" r="1" gradientUnits="userSpaceOnUse" gradientTransform="translate(60.1851 276.208) scale(14.7879 14.7879)">
<stop stop-color="white"/>
<stop offset="0.145833" stop-color="white"/>
<stop offset="0.515625" stop-color="#FED931" stop-opacity="0"/>
<stop offset="0.666667" stop-color="#FED931"/>
<stop offset="1" stop-color="white" stop-opacity="0"/>
</radialGradient>
<linearGradient id="paint11_linear_548_2608" x1="430.951" y1="314.39" x2="431.798" y2="229.264" gradientUnits="userSpaceOnUse">
<stop stop-color="#FED931"/>
<stop offset="0.953125" stop-color="#FDFEFF"/>
</linearGradient>
<radialGradient id="paint12_radial_548_2608" cx="0" cy="0" r="1" gradientUnits="userSpaceOnUse" gradientTransform="translate(431.379 229.573) scale(5.92887)">
<stop stop-color="white"/>
<stop offset="0.145833" stop-color="white"/>
<stop offset="0.515625" stop-color="#FED931" stop-opacity="0"/>
<stop offset="0.666667" stop-color="#FED931"/>
<stop offset="1" stop-color="white" stop-opacity="0"/>
</radialGradient>
<linearGradient id="paint13_linear_548_2608" x1="127.147" y1="384.589" x2="128.364" y2="262.428" gradientUnits="userSpaceOnUse">
<stop stop-color="#FED931"/>
<stop offset="0.953125" stop-color="#FDFEFF"/>
</linearGradient>
<radialGradient id="paint14_radial_548_2608" cx="0" cy="0" r="1" gradientUnits="userSpaceOnUse" gradientTransform="translate(127.749 262.873) scale(8.51632 8.51632)">
<stop stop-color="white"/>
<stop offset="0.145833" stop-color="white"/>
<stop offset="0.515625" stop-color="#FED931" stop-opacity="0"/>
<stop offset="0.666667" stop-color="#FED931"/>
<stop offset="1" stop-color="white" stop-opacity="0"/>
</radialGradient>
<linearGradient id="paint15_linear_548_2608" x1="255.803" y1="455.972" x2="257.064" y2="329.68" gradientUnits="userSpaceOnUse">
<stop stop-color="#FED931"/>
<stop offset="0.953125" stop-color="#FDFEFF"/>
</linearGradient>
<radialGradient id="paint16_radial_548_2608" cx="0" cy="0" r="1" gradientUnits="userSpaceOnUse" gradientTransform="translate(256.426 330.143) scale(8.80762)">
<stop stop-color="white"/>
<stop offset="0.208333" stop-color="#E8F5FF"/>
<stop offset="1" stop-color="white" stop-opacity="0"/>
</radialGradient>
<linearGradient id="paint17_linear_548_2608" x1="314.49" y1="474.172" x2="316.568" y2="268.119" gradientUnits="userSpaceOnUse">
<stop stop-color="#FED931"/>
<stop offset="0.953125" stop-color="#FDFEFF"/>
</linearGradient>
<radialGradient id="paint18_radial_548_2608" cx="0" cy="0" r="1" gradientUnits="userSpaceOnUse" gradientTransform="translate(315.518 268.873) scale(14.3766)">
<stop stop-color="white"/>
<stop offset="0.145833" stop-color="white"/>
<stop offset="0.515625" stop-color="#FED931" stop-opacity="0"/>
<stop offset="0.666667" stop-color="#FED931"/>
<stop offset="1" stop-color="white" stop-opacity="0"/>
</radialGradient>
<linearGradient id="paint19_linear_548_2608" x1="711.688" y1="374.476" x2="713.603" y2="183.351" gradientUnits="userSpaceOnUse">
<stop stop-color="#FED931"/>
<stop offset="0.953125" stop-color="#FDFEFF"/>
</linearGradient>
<radialGradient id="paint20_radial_548_2608" cx="0" cy="0" r="1" gradientUnits="userSpaceOnUse" gradientTransform="translate(712.639 184.053) scale(13.3314)">
<stop stop-color="white"/>
<stop offset="0.145833" stop-color="white"/>
<stop offset="0.515625" stop-color="#FED931" stop-opacity="0"/>
<stop offset="0.666667" stop-color="#FED931"/>
<stop offset="1" stop-color="white" stop-opacity="0"/>
</radialGradient>
<linearGradient id="paint21_linear_548_2608" x1="181.321" y1="468.276" x2="183.127" y2="287.485" gradientUnits="userSpaceOnUse">
<stop stop-color="#FDFEFF"/>
<stop offset="0.9892" stop-color="#FED931"/>
</linearGradient>
<radialGradient id="paint22_radial_548_2608" cx="0" cy="0" r="1" gradientUnits="userSpaceOnUse" gradientTransform="translate(182.214 288.136) scale(12.6117)">
<stop stop-color="white"/>
<stop offset="0.145833" stop-color="white"/>
<stop offset="0.515625" stop-color="#FED931" stop-opacity="0"/>
<stop offset="0.666667" stop-color="#FED931"/>
<stop offset="1" stop-color="white" stop-opacity="0"/>
</radialGradient>
<linearGradient id="paint23_linear_548_2608" x1="32.3517" y1="342.154" x2="33.5923" y2="218.827" gradientUnits="userSpaceOnUse">
<stop stop-color="#FED931"/>
<stop offset="0.953125" stop-color="#FDFEFF"/>
</linearGradient>
<radialGradient id="paint24_radial_548_2608" cx="0" cy="0" r="1" gradientUnits="userSpaceOnUse" gradientTransform="translate(32.9546 219.273) scale(8.602 8.602)">
<stop stop-color="white"/>
<stop offset="0.145833" stop-color="white"/>
<stop offset="0.515625" stop-color="#FED931" stop-opacity="0"/>
<stop offset="0.666667" stop-color="#FED931"/>
<stop offset="1" stop-color="white" stop-opacity="0"/>
</radialGradient>
<linearGradient id="paint25_linear_548_2608" x1="685.349" y1="496.57" x2="688.038" y2="227.877" gradientUnits="userSpaceOnUse">
<stop stop-color="#FED931"/>
<stop offset="0.953125" stop-color="#FDFEFF"/>
</linearGradient>
<radialGradient id="paint26_radial_548_2608" cx="0" cy="0" r="1" gradientUnits="userSpaceOnUse" gradientTransform="translate(686.672 228.854) scale(18.7462 18.7462)">
<stop stop-color="white"/>
<stop offset="0.145833" stop-color="white"/>
<stop offset="0.515625" stop-color="#FED931" stop-opacity="0"/>
<stop offset="0.666667" stop-color="#FED931"/>
<stop offset="1" stop-color="white" stop-opacity="0"/>
</radialGradient>
<linearGradient id="paint27_linear_548_2608" x1="621.798" y1="438.041" x2="624.785" y2="139.819" gradientUnits="userSpaceOnUse">
<stop stop-color="#FED931"/>
<stop offset="0.953125" stop-color="#FDFEFF"/>
</linearGradient>
<radialGradient id="paint28_radial_548_2608" cx="0" cy="0" r="1" gradientUnits="userSpaceOnUse" gradientTransform="translate(623.292 140.899) scale(20.8024)">
<stop stop-color="white"/>
<stop offset="0.145833" stop-color="white"/>
<stop offset="0.515625" stop-color="#FED931" stop-opacity="0"/>
<stop offset="0.666667" stop-color="#FED931"/>
<stop offset="1" stop-color="white" stop-opacity="0"/>
</radialGradient>
<linearGradient id="paint29_linear_548_2608" x1="230.15" y1="349.833" x2="231.1" y2="254.63" gradientUnits="userSpaceOnUse">
<stop stop-color="#FED931"/>
<stop offset="0.953125" stop-color="#FDFEFF"/>
</linearGradient>
<radialGradient id="paint30_radial_548_2608" cx="0" cy="0" r="1" gradientUnits="userSpaceOnUse" gradientTransform="translate(230.625 254.981) scale(6.63999 6.64002)">
<stop stop-color="white"/>
<stop offset="0.208333" stop-color="#E8F5FF"/>
<stop offset="1" stop-color="white" stop-opacity="0"/>
</radialGradient>
<linearGradient id="paint31_linear_548_2608" x1="536.699" y1="411.374" x2="539.23" y2="159.322" gradientUnits="userSpaceOnUse">
<stop stop-color="#FED931"/>
<stop offset="0.953125" stop-color="#FDFEFF"/>
</linearGradient>
<radialGradient id="paint32_radial_548_2608" cx="0" cy="0" r="1" gradientUnits="userSpaceOnUse" gradientTransform="translate(537.942 160.231) scale(17.581 17.581)">
<stop stop-color="white"/>
<stop offset="0.145833" stop-color="white"/>
<stop offset="0.515625" stop-color="#FED931" stop-opacity="0"/>
<stop offset="0.666667" stop-color="#FED931"/>
<stop offset="1" stop-color="white" stop-opacity="0"/>
</radialGradient>
<linearGradient id="paint33_linear_548_2608" x1="400.915" y1="445.946" x2="402.246" y2="314.222" gradientUnits="userSpaceOnUse">
<stop stop-color="#FDFEFF"/>
<stop offset="0.9892" stop-color="#FED931"/>
</linearGradient>
<radialGradient id="paint34_radial_548_2608" cx="0" cy="0" r="1" gradientUnits="userSpaceOnUse" gradientTransform="translate(401.557 314.701) scale(9.1846)">
<stop stop-color="white"/>
<stop offset="0.208333" stop-color="#E8F5FF"/>
<stop offset="1" stop-color="white" stop-opacity="0"/>
</radialGradient>
<linearGradient id="paint35_linear_548_2608" x1="377" y1="297.938" x2="377" y2="298.024" gradientUnits="userSpaceOnUse">
<stop stop-color="#FED931"/>
<stop offset="1" stop-color="#FFE87E"/>
</linearGradient>
<linearGradient id="paint36_linear_548_2608" x1="377" y1="550.34" x2="377" y2="550.734" gradientUnits="userSpaceOnUse">
<stop stop-color="#FED931"/>
<stop offset="1" stop-color="#FFE87E"/>
</linearGradient>
<linearGradient id="paint37_linear_548_2608" x1="377" y1="540.536" x2="377" y2="540.913" gradientUnits="userSpaceOnUse">
<stop stop-color="#FED931"/>
<stop offset="1" stop-color="#FFE87E"/>
</linearGradient>
<linearGradient id="paint38_linear_548_2608" x1="377" y1="531.11" x2="377" y2="531.487" gradientUnits="userSpaceOnUse">
<stop stop-color="#FED931"/>
<stop offset="1" stop-color="#FFE87E"/>
</linearGradient>
<linearGradient id="paint39_linear_548_2608" x1="377" y1="522.061" x2="377" y2="522.421" gradientUnits="userSpaceOnUse">
<stop stop-color="#FED931"/>
<stop offset="1" stop-color="#FFE87E"/>
</linearGradient>
<linearGradient id="paint40_linear_548_2608" x1="377" y1="513.337" x2="377" y2="513.68" gradientUnits="userSpaceOnUse">
<stop stop-color="#FED931"/>
<stop offset="1" stop-color="#FFE87E"/>
</linearGradient>
<linearGradient id="paint41_linear_548_2608" x1="377" y1="504.939" x2="377" y2="505.265" gradientUnits="userSpaceOnUse">
<stop stop-color="#FED931"/>
<stop offset="1" stop-color="#FFE87E"/>
</linearGradient>
<linearGradient id="paint42_linear_548_2608" x1="377" y1="496.85" x2="377" y2="497.175" gradientUnits="userSpaceOnUse">
<stop stop-color="#FED931"/>
<stop offset="1" stop-color="#FFE87E"/>
</linearGradient>
<linearGradient id="paint43_linear_548_2608" x1="377" y1="489.052" x2="377" y2="489.36" gradientUnits="userSpaceOnUse">
<stop stop-color="#FED931"/>
<stop offset="1" stop-color="#FFE87E"/>
</linearGradient>
<linearGradient id="paint44_linear_548_2608" x1="377" y1="481.528" x2="377" y2="481.819" gradientUnits="userSpaceOnUse">
<stop stop-color="#FED931"/>
<stop offset="1" stop-color="#FFE87E"/>
</linearGradient>
<linearGradient id="paint45_linear_548_2608" x1="377" y1="474.244" x2="377" y2="474.535" gradientUnits="userSpaceOnUse">
<stop stop-color="#FED931"/>
<stop offset="1" stop-color="#FFE87E"/>
</linearGradient>
<linearGradient id="paint46_linear_548_2608" x1="377" y1="467.234" x2="377" y2="467.508" gradientUnits="userSpaceOnUse">
<stop stop-color="#FED931"/>
<stop offset="1" stop-color="#FFE87E"/>
</linearGradient>
<linearGradient id="paint47_linear_548_2608" x1="377" y1="460.447" x2="377" y2="460.721" gradientUnits="userSpaceOnUse">
<stop stop-color="#FED931"/>
<stop offset="1" stop-color="#FFE87E"/>
</linearGradient>
<linearGradient id="paint48_linear_548_2608" x1="377" y1="453.883" x2="377" y2="454.14" gradientUnits="userSpaceOnUse">
<stop stop-color="#FED931"/>
<stop offset="1" stop-color="#FFE87E"/>
</linearGradient>
<linearGradient id="paint49_linear_548_2608" x1="377" y1="447.524" x2="377" y2="447.781" gradientUnits="userSpaceOnUse">
<stop stop-color="#FED931"/>
<stop offset="1" stop-color="#FFE87E"/>
</linearGradient>
<linearGradient id="paint50_linear_548_2608" x1="377" y1="441.372" x2="377" y2="441.612" gradientUnits="userSpaceOnUse">
<stop stop-color="#FED931"/>
<stop offset="1" stop-color="#FFE87E"/>
</linearGradient>
<linearGradient id="paint51_linear_548_2608" x1="377" y1="435.425" x2="377" y2="435.665" gradientUnits="userSpaceOnUse">
<stop stop-color="#FED931"/>
<stop offset="1" stop-color="#FFE87E"/>
</linearGradient>
<linearGradient id="paint52_linear_548_2608" x1="377" y1="429.649" x2="377" y2="429.872" gradientUnits="userSpaceOnUse">
<stop stop-color="#FED931"/>
<stop offset="1" stop-color="#FFE87E"/>
</linearGradient>
<linearGradient id="paint53_linear_548_2608" x1="377" y1="424.044" x2="377" y2="424.267" gradientUnits="userSpaceOnUse">
<stop stop-color="#FED931"/>
<stop offset="1" stop-color="#FFE87E"/>
</linearGradient>
<linearGradient id="paint54_linear_548_2608" x1="377" y1="418.612" x2="377" y2="418.817" gradientUnits="userSpaceOnUse">
<stop stop-color="#FED931"/>
<stop offset="1" stop-color="#FFE87E"/>
</linearGradient>
<linearGradient id="paint55_linear_548_2608" x1="377" y1="413.333" x2="377" y2="413.539" gradientUnits="userSpaceOnUse">
<stop stop-color="#FED931"/>
<stop offset="1" stop-color="#FFE87E"/>
</linearGradient>
<linearGradient id="paint56_linear_548_2608" x1="377" y1="408.226" x2="377" y2="408.431" gradientUnits="userSpaceOnUse">
<stop stop-color="#FED931"/>
<stop offset="1" stop-color="#FFE87E"/>
</linearGradient>
<linearGradient id="paint57_linear_548_2608" x1="377" y1="403.238" x2="377" y2="403.427" gradientUnits="userSpaceOnUse">
<stop stop-color="#FED931"/>
<stop offset="1" stop-color="#FFE87E"/>
</linearGradient>
<linearGradient id="paint58_linear_548_2608" x1="377" y1="398.405" x2="377" y2="398.594" gradientUnits="userSpaceOnUse">
<stop stop-color="#FED931"/>
<stop offset="1" stop-color="#FFE87E"/>
</linearGradient>
<linearGradient id="paint59_linear_548_2608" x1="377" y1="393.709" x2="377" y2="393.898" gradientUnits="userSpaceOnUse">
<stop stop-color="#FED931"/>
<stop offset="1" stop-color="#FFE87E"/>
</linearGradient>
<linearGradient id="paint60_linear_548_2608" x1="377" y1="389.15" x2="377" y2="389.339" gradientUnits="userSpaceOnUse">
<stop stop-color="#FED931"/>
<stop offset="1" stop-color="#FFE87E"/>
</linearGradient>
<linearGradient id="paint61_linear_548_2608" x1="377" y1="384.694" x2="377" y2="384.866" gradientUnits="userSpaceOnUse">
<stop stop-color="#FED931"/>
<stop offset="1" stop-color="#FFE87E"/>
</linearGradient>
<linearGradient id="paint62_linear_548_2608" x1="377" y1="380.375" x2="377" y2="380.546" gradientUnits="userSpaceOnUse">
<stop stop-color="#FED931"/>
<stop offset="1" stop-color="#FFE87E"/>
</linearGradient>
<linearGradient id="paint63_linear_548_2608" x1="377" y1="376.159" x2="377" y2="376.331" gradientUnits="userSpaceOnUse">
<stop stop-color="#FED931"/>
<stop offset="1" stop-color="#FFE87E"/>
</linearGradient>
<linearGradient id="paint64_linear_548_2608" x1="377" y1="372.046" x2="377" y2="372.2" gradientUnits="userSpaceOnUse">
<stop stop-color="#FED931"/>
<stop offset="1" stop-color="#FFE87E"/>
</linearGradient>
<linearGradient id="paint65_linear_548_2608" x1="377" y1="368.052" x2="377" y2="368.206" gradientUnits="userSpaceOnUse">
<stop stop-color="#FED931"/>
<stop offset="1" stop-color="#FFE87E"/>
</linearGradient>
<linearGradient id="paint66_linear_548_2608" x1="377" y1="364.145" x2="377" y2="364.299" gradientUnits="userSpaceOnUse">
<stop stop-color="#FED931"/>
<stop offset="1" stop-color="#FFE87E"/>
</linearGradient>
<linearGradient id="paint67_linear_548_2608" x1="377" y1="360.357" x2="377" y2="360.511" gradientUnits="userSpaceOnUse">
<stop stop-color="#FED931"/>
<stop offset="1" stop-color="#FFE87E"/>
</linearGradient>
<linearGradient id="paint68_linear_548_2608" x1="377" y1="356.638" x2="377" y2="356.792" gradientUnits="userSpaceOnUse">
<stop stop-color="#FED931"/>
<stop offset="1" stop-color="#FFE87E"/>
</linearGradient>
<linearGradient id="paint69_linear_548_2608" x1="377" y1="353.022" x2="377" y2="353.159" gradientUnits="userSpaceOnUse">
<stop stop-color="#FED931"/>
<stop offset="1" stop-color="#FFE87E"/>
</linearGradient>
<linearGradient id="paint70_linear_548_2608" x1="377" y1="349.491" x2="377" y2="349.628" gradientUnits="userSpaceOnUse">
<stop stop-color="#FED931"/>
<stop offset="1" stop-color="#FFE87E"/>
</linearGradient>
<linearGradient id="paint71_linear_548_2608" x1="377" y1="346.046" x2="377" y2="346.183" gradientUnits="userSpaceOnUse">
<stop stop-color="#FED931"/>
<stop offset="1" stop-color="#FFE87E"/>
</linearGradient>
<linearGradient id="paint72_linear_548_2608" x1="377" y1="342.687" x2="377" y2="342.824" gradientUnits="userSpaceOnUse">
<stop stop-color="#FED931"/>
<stop offset="1" stop-color="#FFE87E"/>
</linearGradient>
<linearGradient id="paint73_linear_548_2608" x1="377" y1="339.396" x2="377" y2="339.534" gradientUnits="userSpaceOnUse">
<stop stop-color="#FED931"/>
<stop offset="1" stop-color="#FFE87E"/>
</linearGradient>
<linearGradient id="paint74_linear_548_2608" x1="377" y1="336.191" x2="377" y2="336.311" gradientUnits="userSpaceOnUse">
<stop stop-color="#FED931"/>
<stop offset="1" stop-color="#FFE87E"/>
</linearGradient>
<linearGradient id="paint75_linear_548_2608" x1="377" y1="333.055" x2="377" y2="333.175" gradientUnits="userSpaceOnUse">
<stop stop-color="#FED931"/>
<stop offset="1" stop-color="#FFE87E"/>
</linearGradient>
<linearGradient id="paint76_linear_548_2608" x1="377" y1="329.987" x2="377" y2="330.107" gradientUnits="userSpaceOnUse">
<stop stop-color="#FED931"/>
<stop offset="1" stop-color="#FFE87E"/>
</linearGradient>
<linearGradient id="paint77_linear_548_2608" x1="377" y1="326.988" x2="377" y2="327.108" gradientUnits="userSpaceOnUse">
<stop stop-color="#FED931"/>
<stop offset="1" stop-color="#FFE87E"/>
</linearGradient>
<linearGradient id="paint78_linear_548_2608" x1="377" y1="324.058" x2="377" y2="324.178" gradientUnits="userSpaceOnUse">
<stop stop-color="#FED931"/>
<stop offset="1" stop-color="#FFE87E"/>
</linearGradient>
<linearGradient id="paint79_linear_548_2608" x1="377" y1="321.195" x2="377" y2="321.315" gradientUnits="userSpaceOnUse">
<stop stop-color="#FED931"/>
<stop offset="1" stop-color="#FFE87E"/>
</linearGradient>
<linearGradient id="paint80_linear_548_2608" x1="377" y1="318.384" x2="377" y2="318.487" gradientUnits="userSpaceOnUse">
<stop stop-color="#FED931"/>
<stop offset="1" stop-color="#FFE87E"/>
</linearGradient>
<linearGradient id="paint81_linear_548_2608" x1="377" y1="315.642" x2="377" y2="315.745" gradientUnits="userSpaceOnUse">
<stop stop-color="#FED931"/>
<stop offset="1" stop-color="#FFE87E"/>
</linearGradient>
<linearGradient id="paint82_linear_548_2608" x1="377" y1="312.952" x2="377" y2="313.054" gradientUnits="userSpaceOnUse">
<stop stop-color="#FED931"/>
<stop offset="1" stop-color="#FFE87E"/>
</linearGradient>
<linearGradient id="paint83_linear_548_2608" x1="377" y1="310.312" x2="377" y2="310.415" gradientUnits="userSpaceOnUse">
<stop stop-color="#FED931"/>
<stop offset="1" stop-color="#FFE87E"/>
</linearGradient>
<linearGradient id="paint84_linear_548_2608" x1="377" y1="307.741" x2="377" y2="307.844" gradientUnits="userSpaceOnUse">
<stop stop-color="#FED931"/>
<stop offset="1" stop-color="#FFE87E"/>
</linearGradient>
<linearGradient id="paint85_linear_548_2608" x1="377" y1="305.205" x2="377" y2="305.307" gradientUnits="userSpaceOnUse">
<stop stop-color="#FED931"/>
<stop offset="1" stop-color="#FFE87E"/>
</linearGradient>
<linearGradient id="paint86_linear_548_2608" x1="377" y1="302.737" x2="377" y2="302.84" gradientUnits="userSpaceOnUse">
<stop stop-color="#FED931"/>
<stop offset="1" stop-color="#FFE87E"/>
</linearGradient>
<linearGradient id="paint87_linear_548_2608" x1="377" y1="300.303" x2="377" y2="300.406" gradientUnits="userSpaceOnUse">
<stop stop-color="#FED931"/>
<stop offset="1" stop-color="#FFE87E"/>
</linearGradient>
<linearGradient id="paint88_linear_548_2608" x1="750.29" y1="297.972" x2="750.29" y2="302.668" gradientUnits="userSpaceOnUse">
<stop stop-color="#FED931"/>
<stop offset="1" stop-color="#FFE87E"/>
</linearGradient>
<linearGradient id="paint89_linear_548_2608" x1="744.325" y1="297.972" x2="744.325" y2="310.638" gradientUnits="userSpaceOnUse">
<stop stop-color="#FED931"/>
<stop offset="1" stop-color="#FFE87E"/>
</linearGradient>
<linearGradient id="paint90_linear_548_2608" x1="738.361" y1="297.972" x2="738.361" y2="319.121" gradientUnits="userSpaceOnUse">
<stop stop-color="#FED931"/>
<stop offset="1" stop-color="#FFE87E"/>
</linearGradient>
<linearGradient id="paint91_linear_548_2608" x1="732.396" y1="297.972" x2="732.396" y2="328.222" gradientUnits="userSpaceOnUse">
<stop stop-color="#FED931"/>
<stop offset="1" stop-color="#FFE87E"/>
</linearGradient>
<linearGradient id="paint92_linear_548_2608" x1="726.441" y1="297.972" x2="726.441" y2="337.974" gradientUnits="userSpaceOnUse">
<stop stop-color="#FED931"/>
<stop offset="1" stop-color="#FFE87E"/>
</linearGradient>
<linearGradient id="paint93_linear_548_2608" x1="720.476" y1="297.972" x2="720.476" y2="348.463" gradientUnits="userSpaceOnUse">
<stop stop-color="#FED931"/>
<stop offset="1" stop-color="#FFE87E"/>
</linearGradient>
<linearGradient id="paint94_linear_548_2608" x1="714.512" y1="297.972" x2="714.512" y2="359.774" gradientUnits="userSpaceOnUse">
<stop stop-color="#FED931"/>
<stop offset="1" stop-color="#FFE87E"/>
</linearGradient>
<linearGradient id="paint95_linear_548_2608" x1="708.549" y1="297.972" x2="708.549" y2="371.994" gradientUnits="userSpaceOnUse">
<stop stop-color="#FED931"/>
<stop offset="1" stop-color="#FFE87E"/>
</linearGradient>
<linearGradient id="paint96_linear_548_2608" x1="702.584" y1="297.972" x2="702.584" y2="385.277" gradientUnits="userSpaceOnUse">
<stop stop-color="#FED931"/>
<stop offset="1" stop-color="#FFE87E"/>
</linearGradient>
<linearGradient id="paint97_linear_548_2608" x1="696.62" y1="297.972" x2="696.62" y2="399.742" gradientUnits="userSpaceOnUse">
<stop stop-color="#FED931"/>
<stop offset="1" stop-color="#FFE87E"/>
</linearGradient>
<linearGradient id="paint98_linear_548_2608" x1="690.664" y1="297.972" x2="690.664" y2="415.544" gradientUnits="userSpaceOnUse">
<stop stop-color="#FED931"/>
<stop offset="1" stop-color="#FFE87E"/>
</linearGradient>
<linearGradient id="paint99_linear_548_2608" x1="684.7" y1="297.972" x2="684.7" y2="432.888" gradientUnits="userSpaceOnUse">
<stop stop-color="#FED931"/>
<stop offset="1" stop-color="#FFE87E"/>
</linearGradient>
<linearGradient id="paint100_linear_548_2608" x1="678.735" y1="297.972" x2="678.735" y2="452.032" gradientUnits="userSpaceOnUse">
<stop stop-color="#FED931"/>
<stop offset="1" stop-color="#FFE87E"/>
</linearGradient>
<linearGradient id="paint101_linear_548_2608" x1="672.771" y1="297.972" x2="672.771" y2="473.232" gradientUnits="userSpaceOnUse">
<stop stop-color="#FED931"/>
<stop offset="1" stop-color="#FFE87E"/>
</linearGradient>
<linearGradient id="paint102_linear_548_2608" x1="666.806" y1="297.972" x2="666.806" y2="496.85" gradientUnits="userSpaceOnUse">
<stop stop-color="#FED931"/>
<stop offset="1" stop-color="#FFE87E"/>
</linearGradient>
<linearGradient id="paint103_linear_548_2608" x1="660.851" y1="297.972" x2="660.851" y2="523.346" gradientUnits="userSpaceOnUse">
<stop stop-color="#FED931"/>
<stop offset="1" stop-color="#FFE87E"/>
</linearGradient>
<linearGradient id="paint104_linear_548_2608" x1="654.887" y1="297.972" x2="654.887" y2="552.019" gradientUnits="userSpaceOnUse">
<stop stop-color="#FED931"/>
<stop offset="1" stop-color="#FFE87E"/>
</linearGradient>
<linearGradient id="paint105_linear_548_2608" x1="636.608" y1="297.972" x2="636.608" y2="552.019" gradientUnits="userSpaceOnUse">
<stop stop-color="#FED931"/>
<stop offset="1" stop-color="#FFE87E"/>
</linearGradient>
<linearGradient id="paint106_linear_548_2608" x1="618.305" y1="297.972" x2="618.305" y2="552.019" gradientUnits="userSpaceOnUse">
<stop stop-color="#FED931"/>
<stop offset="1" stop-color="#FFE87E"/>
</linearGradient>
<linearGradient id="paint107_linear_548_2608" x1="600.009" y1="297.972" x2="600.009" y2="552.019" gradientUnits="userSpaceOnUse">
<stop stop-color="#FED931"/>
<stop offset="1" stop-color="#FFE87E"/>
</linearGradient>
<linearGradient id="paint108_linear_548_2608" x1="581.721" y1="297.972" x2="581.721" y2="552.019" gradientUnits="userSpaceOnUse">
<stop stop-color="#FED931"/>
<stop offset="1" stop-color="#FFE87E"/>
</linearGradient>
<linearGradient id="paint109_linear_548_2608" x1="563.418" y1="297.972" x2="563.418" y2="552.019" gradientUnits="userSpaceOnUse">
<stop stop-color="#FED931"/>
<stop offset="1" stop-color="#FFE87E"/>
</linearGradient>
<linearGradient id="paint110_linear_548_2608" x1="545.122" y1="297.972" x2="545.122" y2="552.019" gradientUnits="userSpaceOnUse">
<stop stop-color="#FED931"/>
<stop offset="1" stop-color="#FFE87E"/>
</linearGradient>
<linearGradient id="paint111_linear_548_2608" x1="526.826" y1="297.972" x2="526.826" y2="552.019" gradientUnits="userSpaceOnUse">
<stop stop-color="#FED931"/>
<stop offset="1" stop-color="#FFE87E"/>
</linearGradient>
<linearGradient id="paint112_linear_548_2608" x1="508.522" y1="297.972" x2="508.522" y2="552.019" gradientUnits="userSpaceOnUse">
<stop stop-color="#FED931"/>
<stop offset="1" stop-color="#FFE87E"/>
</linearGradient>
<linearGradient id="paint113_linear_548_2608" x1="490.227" y1="297.972" x2="490.227" y2="552.019" gradientUnits="userSpaceOnUse">
<stop stop-color="#FED931"/>
<stop offset="1" stop-color="#FFE87E"/>
</linearGradient>
<linearGradient id="paint114_linear_548_2608" x1="471.94" y1="297.972" x2="471.94" y2="552.019" gradientUnits="userSpaceOnUse">
<stop stop-color="#FED931"/>
<stop offset="1" stop-color="#FFE87E"/>
</linearGradient>
<linearGradient id="paint115_linear_548_2608" x1="453.635" y1="297.972" x2="453.635" y2="552.019" gradientUnits="userSpaceOnUse">
<stop stop-color="#FED931"/>
<stop offset="1" stop-color="#FFE87E"/>
</linearGradient>
<linearGradient id="paint116_linear_548_2608" x1="435.341" y1="297.972" x2="435.341" y2="552.019" gradientUnits="userSpaceOnUse">
<stop stop-color="#FED931"/>
<stop offset="1" stop-color="#FFE87E"/>
</linearGradient>
<linearGradient id="paint117_linear_548_2608" x1="417.036" y1="297.972" x2="417.036" y2="552.019" gradientUnits="userSpaceOnUse">
<stop stop-color="#FED931"/>
<stop offset="1" stop-color="#FFE87E"/>
</linearGradient>
<linearGradient id="paint118_linear_548_2608" x1="398.74" y1="297.972" x2="398.74" y2="552.019" gradientUnits="userSpaceOnUse">
<stop stop-color="#FED931"/>
<stop offset="1" stop-color="#FFE87E"/>
</linearGradient>
<linearGradient id="paint119_linear_548_2608" x1="380.454" y1="297.972" x2="380.454" y2="552.019" gradientUnits="userSpaceOnUse">
<stop stop-color="#FED931"/>
<stop offset="1" stop-color="#FFE87E"/>
</linearGradient>
<linearGradient id="paint120_linear_548_2608" x1="361.892" y1="297.972" x2="361.892" y2="552.019" gradientUnits="userSpaceOnUse">
<stop stop-color="#FED931"/>
<stop offset="1" stop-color="#FFE87E"/>
</linearGradient>
<linearGradient id="paint121_linear_548_2608" x1="343.588" y1="297.972" x2="343.588" y2="552.019" gradientUnits="userSpaceOnUse">
<stop stop-color="#FED931"/>
<stop offset="1" stop-color="#FFE87E"/>
</linearGradient>
<linearGradient id="paint122_linear_548_2608" x1="325.293" y1="297.972" x2="325.293" y2="552.019" gradientUnits="userSpaceOnUse">
<stop stop-color="#FED931"/>
<stop offset="1" stop-color="#FFE87E"/>
</linearGradient>
<linearGradient id="paint123_linear_548_2608" x1="307.006" y1="297.972" x2="307.006" y2="552.019" gradientUnits="userSpaceOnUse">
<stop stop-color="#FED931"/>
<stop offset="1" stop-color="#FFE87E"/>
</linearGradient>
<linearGradient id="paint124_linear_548_2608" x1="288.701" y1="297.972" x2="288.701" y2="552.019" gradientUnits="userSpaceOnUse">
<stop stop-color="#FED931"/>
<stop offset="1" stop-color="#FFE87E"/>
</linearGradient>
<linearGradient id="paint125_linear_548_2608" x1="270.405" y1="297.972" x2="270.405" y2="552.019" gradientUnits="userSpaceOnUse">
<stop stop-color="#FED931"/>
<stop offset="1" stop-color="#FFE87E"/>
</linearGradient>
<linearGradient id="paint126_linear_548_2608" x1="252.11" y1="297.972" x2="252.11" y2="552.019" gradientUnits="userSpaceOnUse">
<stop stop-color="#FED931"/>
<stop offset="1" stop-color="#FFE87E"/>
</linearGradient>
<linearGradient id="paint127_linear_548_2608" x1="233.806" y1="297.972" x2="233.806" y2="552.019" gradientUnits="userSpaceOnUse">
<stop stop-color="#FED931"/>
<stop offset="1" stop-color="#FFE87E"/>
</linearGradient>
<linearGradient id="paint128_linear_548_2608" x1="215.52" y1="297.972" x2="215.52" y2="552.019" gradientUnits="userSpaceOnUse">
<stop stop-color="#FED931"/>
<stop offset="1" stop-color="#FFE87E"/>
</linearGradient>
<linearGradient id="paint129_linear_548_2608" x1="197.224" y1="297.972" x2="197.224" y2="552.019" gradientUnits="userSpaceOnUse">
<stop stop-color="#FED931"/>
<stop offset="1" stop-color="#FFE87E"/>
</linearGradient>
<linearGradient id="paint130_linear_548_2608" x1="178.92" y1="297.972" x2="178.92" y2="552.019" gradientUnits="userSpaceOnUse">
<stop stop-color="#FED931"/>
<stop offset="1" stop-color="#FFE87E"/>
</linearGradient>
<linearGradient id="paint131_linear_548_2608" x1="160.624" y1="297.972" x2="160.624" y2="552.019" gradientUnits="userSpaceOnUse">
<stop stop-color="#FED931"/>
<stop offset="1" stop-color="#FFE87E"/>
</linearGradient>
<linearGradient id="paint132_linear_548_2608" x1="142.319" y1="297.972" x2="142.319" y2="552.019" gradientUnits="userSpaceOnUse">
<stop stop-color="#FED931"/>
<stop offset="1" stop-color="#FFE87E"/>
</linearGradient>
<linearGradient id="paint133_linear_548_2608" x1="124.024" y1="297.972" x2="124.024" y2="552.019" gradientUnits="userSpaceOnUse">
<stop stop-color="#FED931"/>
<stop offset="1" stop-color="#FFE87E"/>
</linearGradient>
<linearGradient id="paint134_linear_548_2608" x1="105.737" y1="297.972" x2="105.737" y2="552.019" gradientUnits="userSpaceOnUse">
<stop stop-color="#FED931"/>
<stop offset="1" stop-color="#FFE87E"/>
</linearGradient>
<linearGradient id="paint135_linear_548_2608" x1="93.2859" y1="297.972" x2="93.2859" y2="538.24" gradientUnits="userSpaceOnUse">
<stop stop-color="#FED931"/>
<stop offset="1" stop-color="#FFE87E"/>
</linearGradient>
<linearGradient id="paint136_linear_548_2608" x1="87.3217" y1="297.972" x2="87.3217" y2="509.241" gradientUnits="userSpaceOnUse">
<stop stop-color="#FED931"/>
<stop offset="1" stop-color="#FFE87E"/>
</linearGradient>
<linearGradient id="paint137_linear_548_2608" x1="81.3574" y1="297.972" x2="81.3574" y2="483.55" gradientUnits="userSpaceOnUse">
<stop stop-color="#FED931"/>
<stop offset="1" stop-color="#FFE87E"/>
</linearGradient>
<linearGradient id="paint138_linear_548_2608" x1="75.3931" y1="297.972" x2="75.3931" y2="460.653" gradientUnits="userSpaceOnUse">
<stop stop-color="#FED931"/>
<stop offset="1" stop-color="#FFE87E"/>
</linearGradient>
<linearGradient id="paint139_linear_548_2608" x1="69.4374" y1="297.972" x2="69.4374" y2="440.086" gradientUnits="userSpaceOnUse">
<stop stop-color="#FED931"/>
<stop offset="1" stop-color="#FFE87E"/>
</linearGradient>
<linearGradient id="paint140_linear_548_2608" x1="63.4732" y1="297.972" x2="63.4732" y2="421.542" gradientUnits="userSpaceOnUse">
<stop stop-color="#FED931"/>
<stop offset="1" stop-color="#FFE87E"/>
</linearGradient>
<linearGradient id="paint141_linear_548_2608" x1="57.5089" y1="297.972" x2="57.5089" y2="404.729" gradientUnits="userSpaceOnUse">
<stop stop-color="#FED931"/>
<stop offset="1" stop-color="#FFE87E"/>
</linearGradient>
<linearGradient id="paint142_linear_548_2608" x1="51.5446" y1="297.972" x2="51.5446" y2="389.407" gradientUnits="userSpaceOnUse">
<stop stop-color="#FED931"/>
<stop offset="1" stop-color="#FFE87E"/>
</linearGradient>
<linearGradient id="paint143_linear_548_2608" x1="45.5804" y1="297.972" x2="45.5804" y2="375.388" gradientUnits="userSpaceOnUse">
<stop stop-color="#FED931"/>
<stop offset="1" stop-color="#FFE87E"/>
</linearGradient>
<linearGradient id="paint144_linear_548_2608" x1="39.6161" y1="297.972" x2="39.6161" y2="362.499" gradientUnits="userSpaceOnUse">
<stop stop-color="#FED931"/>
<stop offset="1" stop-color="#FFE87E"/>
</linearGradient>
<linearGradient id="paint145_linear_548_2608" x1="33.6604" y1="297.972" x2="33.6604" y2="350.639" gradientUnits="userSpaceOnUse">
<stop stop-color="#FED931"/>
<stop offset="1" stop-color="#FFE87E"/>
</linearGradient>
<linearGradient id="paint146_linear_548_2608" x1="27.6961" y1="297.972" x2="27.6961" y2="339.671" gradientUnits="userSpaceOnUse">
<stop stop-color="#FED931"/>
<stop offset="1" stop-color="#FFE87E"/>
</linearGradient>
<linearGradient id="paint147_linear_548_2608" x1="21.7319" y1="297.972" x2="21.7319" y2="329.507" gradientUnits="userSpaceOnUse">
<stop stop-color="#FED931"/>
<stop offset="1" stop-color="#FFE87E"/>
</linearGradient>
<linearGradient id="paint148_linear_548_2608" x1="15.7676" y1="297.972" x2="15.7676" y2="320.047" gradientUnits="userSpaceOnUse">
<stop stop-color="#FED931"/>
<stop offset="1" stop-color="#FFE87E"/>
</linearGradient>
<linearGradient id="paint149_linear_548_2608" x1="9.80334" y1="297.972" x2="9.80334" y2="311.238" gradientUnits="userSpaceOnUse">
<stop stop-color="#FED931"/>
<stop offset="1" stop-color="#FFE87E"/>
</linearGradient>
<linearGradient id="paint150_linear_548_2608" x1="3.84764" y1="297.972" x2="3.84764" y2="303.011" gradientUnits="userSpaceOnUse">
<stop stop-color="#FED931"/>
<stop offset="1" stop-color="#FFE87E"/>
</linearGradient>
<linearGradient id="paint151_linear_548_2608" x1="189.265" y1="428.516" x2="191.008" y2="254.511" gradientUnits="userSpaceOnUse">
<stop stop-color="#FED931"/>
<stop offset="0.953125" stop-color="#FDFEFF"/>
</linearGradient>
<radialGradient id="paint152_radial_548_2608" cx="0" cy="0" r="1" gradientUnits="userSpaceOnUse" gradientTransform="translate(190.135 255.141) scale(12.1377)">
<stop stop-color="white"/>
<stop offset="0.145833" stop-color="white"/>
<stop offset="0.515625" stop-color="#FED931" stop-opacity="0"/>
<stop offset="0.666667" stop-color="#FED931"/>
<stop offset="1" stop-color="white" stop-opacity="0"/>
</radialGradient>
<radialGradient id="paint153_radial_548_2608" cx="0" cy="0" r="1" gradientUnits="userSpaceOnUse" gradientTransform="translate(572.148 259.112) rotate(-90.1434) scale(401.876 401.88)">
<stop stop-color="white"/>
<stop offset="1" stop-color="#FED931"/>
</radialGradient>
<radialGradient id="paint154_radial_548_2608" cx="0" cy="0" r="1" gradientUnits="userSpaceOnUse" gradientTransform="translate(523.524 307.645) rotate(-90.1434) scale(173.212 173.303)">
<stop stop-color="white"/>
<stop offset="1" stop-color="#FED931"/>
</radialGradient>
<radialGradient id="paint155_radial_548_2608" cx="0" cy="0" r="1" gradientUnits="userSpaceOnUse" gradientTransform="translate(243.576 179.099) rotate(-90) scale(121.185 121.299)">
<stop stop-color="white"/>
<stop offset="1" stop-color="#FED931"/>
</radialGradient>
<radialGradient id="paint156_radial_548_2608" cx="0" cy="0" r="1" gradientUnits="userSpaceOnUse" gradientTransform="translate(395.696 344.97) rotate(-90.1422) scale(406.281 402.831)">
<stop stop-color="white"/>
<stop offset="1" stop-color="#FED931"/>
</radialGradient>
<radialGradient id="paint157_radial_548_2608" cx="0" cy="0" r="1" gradientUnits="userSpaceOnUse" gradientTransform="translate(232.491 280.209) rotate(-90) scale(290.882 291.004)">
<stop stop-color="white"/>
<stop offset="1" stop-color="#FED931"/>
</radialGradient>
<radialGradient id="paint158_radial_548_2608" cx="0" cy="0" r="1" gradientUnits="userSpaceOnUse" gradientTransform="translate(617.54 284.29) rotate(-90.1435) scale(119.278 119.423)">
<stop stop-color="white"/>
<stop offset="1" stop-color="#FED931"/>
</radialGradient>
<radialGradient id="paint159_radial_548_2608" cx="0" cy="0" r="1" gradientUnits="userSpaceOnUse" gradientTransform="translate(464.076 249.577) rotate(-90.1433) scale(217.201 217.128)">
<stop stop-color="white"/>
<stop offset="1" stop-color="#FED931"/>
</radialGradient>
<radialGradient id="paint160_radial_548_2608" cx="0" cy="0" r="1" gradientUnits="userSpaceOnUse" gradientTransform="translate(358.353 167.214) rotate(-90) scale(326.95 327.053)">
<stop stop-color="white"/>
<stop offset="1" stop-color="#0093FF" stop-opacity="0"/>
</radialGradient>
<radialGradient id="paint161_radial_548_2608" cx="0" cy="0" r="1" gradientUnits="userSpaceOnUse" gradientTransform="translate(144.867 204.66) rotate(-90.1434) scale(188.222 188.255)">
<stop stop-color="white"/>
<stop offset="1" stop-color="#FED931"/>
</radialGradient>
<radialGradient id="paint162_radial_548_2608" cx="0" cy="0" r="1" gradientUnits="userSpaceOnUse" gradientTransform="translate(149.872 318.759) rotate(-90.1434) scale(135.806 135.806)">
<stop stop-color="white"/>
<stop offset="1" stop-color="#FED931"/>
</radialGradient>
</defs>
</svg>
