<svg width="32" height="32" viewBox="0 0 32 32" fill="none" xmlns="http://www.w3.org/2000/svg">
<circle cx="16" cy="16" r="16" fill="white"/>
<path d="M11.7186 14.168C11.7135 14.3598 11.7377 14.5513 11.7904 14.7361C11.8484 14.8941 11.9182 15.0478 11.9993 15.1958C12.0283 15.2396 12.0442 15.2904 12.045 15.3426C12.045 15.4064 12.0058 15.4703 11.921 15.5341L11.5098 15.8022C11.4602 15.8371 11.4012 15.8571 11.3402 15.8596C11.2658 15.8546 11.1961 15.8227 11.1444 15.7702C11.0564 15.6778 10.9777 15.5774 10.9094 15.4703C10.8441 15.3618 10.7788 15.2404 10.707 15.0937C10.198 15.6808 9.55839 15.9743 8.78824 15.9743C8.23984 15.9743 7.80276 15.8211 7.48297 15.5146C7.16318 15.2082 7 14.7999 7 14.2893C7 13.7468 7.19578 13.3064 7.59392 12.9745C7.99205 12.6426 8.52064 12.4766 9.19286 12.4766C9.42437 12.4785 9.6555 12.4956 9.88467 12.5277C10.1262 12.5596 10.3742 12.6107 10.6352 12.6681V12.2022C10.6352 11.717 10.5307 11.3789 10.3285 11.181C10.1195 10.9831 9.76719 10.8874 9.26464 10.8874C9.02714 10.8874 8.79049 10.9152 8.55977 10.9704C8.31985 11.0263 8.08431 11.0988 7.85491 11.1874C7.78069 11.2198 7.70439 11.2476 7.62648 11.2703C7.59269 11.2812 7.55756 11.2877 7.52203 11.2895C7.43066 11.2895 7.38496 11.2257 7.38496 11.0916V10.7789C7.38496 10.6767 7.39802 10.6001 7.43066 10.5555C7.47991 10.4973 7.54256 10.4514 7.61346 10.4215C7.87523 10.2948 8.15121 10.1984 8.43581 10.1343C8.76836 10.0508 9.11061 10.01 9.45393 10.013C10.2307 10.013 10.7984 10.1853 11.1639 10.53C11.5228 10.8746 11.7055 11.398 11.7055 12.1001V14.168H11.7186ZM9.06889 15.1382C9.29785 15.1357 9.52487 15.0969 9.74111 15.0233C9.98066 14.9422 10.1944 14.8014 10.3611 14.6147C10.4663 14.497 10.5423 14.3572 10.583 14.2061C10.6278 14.0243 10.6498 13.8378 10.6483 13.6508V13.383C10.4504 13.3359 10.2499 13.2996 10.0479 13.2745C9.84441 13.2493 9.63948 13.2365 9.43434 13.2363C8.99708 13.2363 8.67729 13.3193 8.46192 13.4917C8.24655 13.6642 8.14213 13.9066 8.14213 14.2257C8.14213 14.5257 8.22047 14.7491 8.38361 14.9023C8.5403 15.0619 8.76869 15.1384 9.06889 15.1384V15.1382ZM14.3096 15.8275C14.1921 15.8275 14.1138 15.8084 14.0616 15.7637C14.0094 15.7254 13.9637 15.636 13.9245 15.5148L12.3908 10.581C12.361 10.4985 12.3413 10.4127 12.332 10.3257C12.332 10.2235 12.3843 10.1661 12.4887 10.1661H13.1283C13.2523 10.1661 13.3372 10.1852 13.3828 10.2299C13.4351 10.2682 13.4742 10.3576 13.5134 10.4788L14.6098 14.7041L15.6279 10.4789C15.6606 10.3512 15.6997 10.2683 15.7519 10.23C15.8042 10.1917 15.8955 10.1662 16.0131 10.1662H16.5354C16.6594 10.1662 16.7443 10.1853 16.7965 10.23C16.8487 10.2683 16.8944 10.3577 16.9205 10.4789L17.9517 14.7552L19.0804 10.4789C19.1196 10.3512 19.1652 10.2683 19.211 10.23C19.2632 10.1917 19.348 10.1662 19.4655 10.1662H20.0725C20.1769 10.1662 20.2357 10.2173 20.2357 10.3258C20.2341 10.3601 20.2298 10.3943 20.2226 10.4279C20.2124 10.4824 20.1971 10.5358 20.1769 10.5875L18.604 15.5212C18.5649 15.6489 18.5192 15.7318 18.467 15.7702C18.3932 15.8163 18.3064 15.8387 18.219 15.834H17.6576C17.5336 15.834 17.4487 15.8148 17.3965 15.7702C17.3443 15.7255 17.2986 15.6425 17.2725 15.5148L16.261 11.398L15.2559 15.5084C15.2232 15.6361 15.1841 15.719 15.1319 15.7638C15.0796 15.8085 14.9883 15.8276 14.8707 15.8276L14.3096 15.8275ZM22.696 15.9998C22.3576 16.0002 22.0202 15.9616 21.691 15.8849C21.3647 15.8083 21.1101 15.7254 20.9404 15.6295C20.836 15.5721 20.7642 15.5083 20.7381 15.4508C20.7127 15.3944 20.6994 15.3336 20.699 15.272V14.9467C20.699 14.8127 20.7512 14.7489 20.8491 14.7489C20.889 14.749 20.9287 14.7555 20.9666 14.768C21.0057 14.7808 21.0645 14.8063 21.1297 14.8318C21.3603 14.931 21.6009 15.0059 21.8477 15.0552C22.1033 15.106 22.3635 15.1316 22.6243 15.1318C23.0355 15.1318 23.3553 15.0616 23.5772 14.9212C23.6835 14.8585 23.7709 14.7693 23.8305 14.6628C23.8902 14.5563 23.9199 14.4363 23.9167 14.3149C23.919 14.2327 23.9046 14.1509 23.8743 14.0742C23.8441 13.9975 23.7986 13.9275 23.7405 13.8681C23.623 13.7468 23.401 13.6383 23.0813 13.5361L22.1348 13.2489C21.6583 13.1022 21.3059 12.8851 21.0906 12.5979C20.8805 12.333 20.7657 12.0076 20.7642 11.6724C20.7589 11.4253 20.8197 11.181 20.9404 10.9639C21.057 10.7586 21.2173 10.5801 21.4105 10.4405C21.6139 10.2899 21.844 10.1774 22.0893 10.1085C22.3564 10.0333 22.6334 9.99684 22.9114 10.0002C23.0576 9.99918 23.2037 10.0077 23.3487 10.0258C23.4988 10.0449 23.6359 10.0704 23.7729 10.0959C23.9035 10.1279 24.0274 10.1598 24.1449 10.1981C24.2401 10.2269 24.332 10.2654 24.419 10.313C24.4959 10.3509 24.5628 10.4055 24.6148 10.4726C24.6573 10.5347 24.6779 10.6086 24.6735 10.6832V10.9832C24.6735 11.1172 24.6213 11.1875 24.5234 11.1875C24.4712 11.1875 24.3863 11.1619 24.2754 11.1109C23.9034 10.9449 23.4857 10.8619 23.0223 10.8619C22.6503 10.8619 22.3566 10.9194 22.1543 11.0407C21.952 11.162 21.8476 11.3472 21.8476 11.6088C21.8458 11.6935 21.8623 11.7777 21.896 11.8558C21.9298 11.9339 21.98 12.0041 22.0434 12.0619C22.1739 12.1832 22.4154 12.3045 22.7613 12.413L23.6881 12.7C24.1581 12.8468 24.4973 13.0511 24.6996 13.3127C24.8989 13.5695 25.0045 13.884 24.9998 14.2063C25.0032 14.4627 24.9451 14.7162 24.8302 14.9467C24.7144 15.1651 24.5519 15.3567 24.3537 15.5083C24.1383 15.6724 23.8922 15.7938 23.6293 15.8659C23.327 15.9568 23.0123 16.002 22.696 15.9999L22.696 15.9998Z" fill="#252F3E"/>
<path d="M23.8432 19.5905C21.6836 21.1645 18.546 22 15.8482 22C12.0672 22.0001 8.66047 20.6205 6.08743 18.3276C5.88395 18.1462 6.06773 17.9001 6.31061 18.0425C9.09377 19.6359 12.5268 20.6009 16.0779 20.6009C18.4738 20.6009 21.106 20.1085 23.5282 19.0982C23.8892 18.9363 24.1977 19.3315 23.8434 19.5906L23.8432 19.5905Z" fill="#FF9900"/>
<path d="M24.9254 18.0742C24.6273 17.6851 22.9521 17.8869 22.1926 17.9805C21.9654 18.0094 21.93 17.8075 22.1358 17.6563C23.4703 16.7051 25.6636 16.9789 25.9191 17.296C26.1747 17.6203 25.8482 19.8469 24.5989 20.9133C24.4072 21.0791 24.2227 20.9926 24.3078 20.7764C24.5918 20.063 25.2236 18.4561 24.9254 18.0742Z" fill="#FF9900"/>
</svg>
