<svg width="32" height="32" viewBox="0 0 32 32" fill="none" xmlns="http://www.w3.org/2000/svg">
<circle cx="16" cy="16" r="16" fill="white"/>
<path d="M19.1104 12.5709L20.8822 10.7805L21 10.0271C17.7716 7.06036 12.6391 7.39706 9.72786 10.7289C8.91425 11.673 8.32344 12.7915 8 14L8.63432 13.9093L12.1781 13.3198L12.4512 13.0373C13.2092 12.1905 14.2583 11.6677 15.3846 11.5754C16.5109 11.4832 17.6296 11.8284 18.5128 12.5407L19.1104 12.5709Z" fill="#EA4335"/>
<path d="M23.6274 13.777C23.2457 12.3168 22.4618 11.0041 21.3721 10L19.041 12.4211C19.5267 12.8334 19.916 13.3547 20.1795 13.946C20.4429 14.5372 20.5737 15.1829 20.5619 15.8343V16.2638C21.109 16.2638 21.6337 16.4895 22.0205 16.8913C22.4074 17.2931 22.6247 17.8381 22.6247 18.4063C22.6247 18.9746 22.4074 19.5196 22.0205 19.9214C21.6337 20.3232 21.109 20.5489 20.5619 20.5489H16.4077L16 21.009V23.5938L16.4077 23.9997H20.562C21.7193 24.0124 22.8497 23.6372 23.7854 22.9299C24.7212 22.2225 25.4124 21.2206 25.7566 20.0729C26.1007 18.9252 26.0795 17.6929 25.6959 16.5587C25.3124 15.4246 24.5871 14.4491 23.6275 13.777" fill="#4285F4"/>
<path d="M11.5181 24H16V20.2122H11.5181C11.201 20.212 10.8876 20.1396 10.5994 20L9.96355 20.2056L8.15726 22.0994L8 22.7438C9.01119 23.5572 10.2469 23.9984 11.5181 24Z" fill="#34A853"/>
<path d="M11.5498 13C10.3866 13.0071 9.25463 13.3769 8.312 14.0579C7.36937 14.7388 6.66315 15.6968 6.29194 16.7982C5.92074 17.8995 5.90309 19.0892 6.24147 20.2011C6.57985 21.3129 7.25736 22.2915 8.17938 23L10.6698 20.512C10.3533 20.3692 10.0763 20.1518 9.86242 19.8784C9.64856 19.6051 9.50425 19.2841 9.4419 18.9428C9.37955 18.6015 9.401 18.2502 9.50443 17.9191C9.60785 17.5879 9.79015 17.2867 10.0357 17.0414C10.2812 16.7961 10.5827 16.614 10.9142 16.5107C11.2457 16.4073 11.5973 16.3859 11.9389 16.4482C12.2805 16.5105 12.6019 16.6546 12.8755 16.8683C13.149 17.082 13.3666 17.3588 13.5096 17.6749L16 15.1869C15.4773 14.5042 14.8036 13.9515 14.0316 13.5722C13.2595 13.1928 12.4101 12.997 11.5498 13Z" fill="#FBBC05"/>
</svg>
