<svg width="24" height="25" viewBox="0 0 24 25" fill="none" xmlns="http://www.w3.org/2000/svg">
<g clip-path="url(#clip0_847_27952)">
<path d="M18.2987 6.23219C17.9087 5.84219 17.2787 5.84219 16.8887 6.23219L11.9988 11.1122L7.10875 6.22219C6.71875 5.83219 6.08875 5.83219 5.69875 6.22219C5.30875 6.61219 5.30875 7.24219 5.69875 7.63219L10.5888 12.5222L5.69875 17.4122C5.30875 17.8022 5.30875 18.4322 5.69875 18.8222C6.08875 19.2122 6.71875 19.2122 7.10875 18.8222L11.9988 13.9322L16.8887 18.8222C17.2787 19.2122 17.9087 19.2122 18.2987 18.8222C18.6887 18.4322 18.6887 17.8022 18.2987 17.4122L13.4087 12.5222L18.2987 7.63219C18.6787 7.25219 18.6787 6.61219 18.2987 6.23219Z" fill="#000522"/>
</g>
<defs>
<clipPath id="clip0_847_27952">
<rect width="24" height="24" fill="white" transform="translate(0 0.523438)"/>
</clipPath>
</defs>
</svg>
