<svg width="16" height="16" viewBox="0 0 16 16" fill="none" xmlns="http://www.w3.org/2000/svg">
<rect width="16" height="16" fill="#171717"/>
<rect id="Add Account" x="-9814" y="-3313" width="32724" height="8186" fill="#85F9EB" fill-opacity="0.4"/>
<g id="All Admin - User Group">
<rect width="1512" height="837" transform="translate(-279 -132)" fill="#F3F4F4"/>
<g id="Frame 40154">
<rect x="-135" y="-25" width="1305" height="472" rx="12" fill="white"/>
<g id="Frame 40170">
<g id="Group 39556">
<g id="Frame 39555">
<g id="Frame 40137">
<g id="category-18 1">
<path id="Vector" d="M6 14.5H3C2.60218 14.5 2.22064 14.342 1.93934 14.0607C1.65804 13.7794 1.5 13.3978 1.5 13V10C1.5 9.60218 1.65804 9.22064 1.93934 8.93934C2.22064 8.65804 2.60218 8.5 3 8.5H6C6.39782 8.5 6.77936 8.65804 7.06066 8.93934C7.34196 9.22064 7.5 9.60218 7.5 10V13C7.5 13.3978 7.34196 13.7794 7.06066 14.0607C6.77936 14.342 6.39782 14.5 6 14.5ZM3 9.5C2.86739 9.5 2.74021 9.55268 2.64645 9.64645C2.55268 9.74021 2.5 9.86739 2.5 10V13C2.5 13.1326 2.55268 13.2598 2.64645 13.3536C2.74021 13.4473 2.86739 13.5 3 13.5H6C6.13261 13.5 6.25979 13.4473 6.35355 13.3536C6.44732 13.2598 6.5 13.1326 6.5 13V10C6.5 9.86739 6.44732 9.74021 6.35355 9.64645C6.25979 9.55268 6.13261 9.5 6 9.5H3ZM12.25 14.5H10C9.60218 14.5 9.22064 14.342 8.93934 14.0607C8.65804 13.7794 8.5 13.3978 8.5 13V10C8.5 9.60218 8.65804 9.22064 8.93934 8.93934C9.22064 8.65804 9.60218 8.5 10 8.5H13C13.3978 8.5 13.7794 8.65804 14.0607 8.93934C14.342 9.22064 14.5 9.60218 14.5 10V12.25C14.5 12.3826 14.4473 12.5098 14.3536 12.6036C14.2598 12.6973 14.1326 12.75 14 12.75C13.8674 12.75 13.7402 12.6973 13.6464 12.6036C13.5527 12.5098 13.5 12.3826 13.5 12.25V10C13.5 9.86739 13.4473 9.74021 13.3536 9.64645C13.2598 9.55268 13.1326 9.5 13 9.5H10C9.86739 9.5 9.74021 9.55268 9.64645 9.64645C9.55268 9.74021 9.5 9.86739 9.5 10V13C9.5 13.1326 9.55268 13.2598 9.64645 13.3536C9.74021 13.4473 9.86739 13.5 10 13.5H12.25C12.3826 13.5 12.5098 13.5527 12.6036 13.6464C12.6973 13.7402 12.75 13.8674 12.75 14C12.75 14.1326 12.6973 14.2598 12.6036 14.3536C12.5098 14.4473 12.3826 14.5 12.25 14.5ZM6 7.5H3C2.60218 7.5 2.22064 7.34196 1.93934 7.06066C1.65804 6.77936 1.5 6.39782 1.5 6V3C1.5 2.60218 1.65804 2.22064 1.93934 1.93934C2.22064 1.65804 2.60218 1.5 3 1.5H6C6.39782 1.5 6.77936 1.65804 7.06066 1.93934C7.34196 2.22064 7.5 2.60218 7.5 3V6C7.5 6.39782 7.34196 6.77936 7.06066 7.06066C6.77936 7.34196 6.39782 7.5 6 7.5ZM3 2.5C2.86739 2.5 2.74021 2.55268 2.64645 2.64645C2.55268 2.74021 2.5 2.86739 2.5 3V6C2.5 6.13261 2.55268 6.25979 2.64645 6.35355C2.74021 6.44732 2.86739 6.5 3 6.5H6C6.13261 6.5 6.25979 6.44732 6.35355 6.35355C6.44732 6.25979 6.5 6.13261 6.5 6V3C6.5 2.86739 6.44732 2.74021 6.35355 2.64645C6.25979 2.55268 6.13261 2.5 6 2.5H3ZM13 7.5H10C9.60218 7.5 9.22064 7.34196 8.93934 7.06066C8.65804 6.77936 8.5 6.39782 8.5 6V3C8.5 2.60218 8.65804 2.22064 8.93934 1.93934C9.22064 1.65804 9.60218 1.5 10 1.5H13C13.3978 1.5 13.7794 1.65804 14.0607 1.93934C14.342 2.22064 14.5 2.60218 14.5 3V6C14.5 6.39782 14.342 6.77936 14.0607 7.06066C13.7794 7.34196 13.3978 7.5 13 7.5ZM10 2.5C9.86739 2.5 9.74021 2.55268 9.64645 2.64645C9.55268 2.74021 9.5 2.86739 9.5 3V6C9.5 6.13261 9.55268 6.25979 9.64645 6.35355C9.74021 6.44732 9.86739 6.5 10 6.5H13C13.1326 6.5 13.2598 6.44732 13.3536 6.35355C13.4473 6.25979 13.5 6.13261 13.5 6V3C13.5 2.86739 13.4473 2.74021 13.3536 2.64645C13.2598 2.55268 13.1326 2.5 13 2.5H10Z" fill="#374151"/>
</g>
</g>
</g>
</g>
</g>
</g>
</g>
</svg>
