<svg width="24" height="24" viewBox="0 0 24 24" fill="none" xmlns="http://www.w3.org/2000/svg">
<path d="M8.998 12.748V11.248H4.0585L5.77825 9.52825L4.71775 8.46775L1.1875 11.998L4.71775 15.5282L5.77825 14.4677L4.0585 12.748H8.998ZM19.2782 8.46775L18.2177 9.52825L19.9375 11.248H14.998V12.748H19.9375L18.2177 14.4677L19.2782 15.5282L22.8085 11.998L19.2782 8.46775ZM12.748 19.9375V14.998H11.248V19.9375L9.52825 18.2177L8.46775 19.2782L11.998 22.8085L15.5282 19.2782L14.4677 18.2177L12.748 19.9375ZM11.248 4.0585V8.998H12.748V4.0585L14.4677 5.77825L15.5282 4.71775L11.998 1.1875L8.46775 4.71775L9.52825 5.77825L11.248 4.0585Z" fill="#687D95"/>
</svg>
