<svg width="24" height="24" viewBox="0 0 24 24" fill="none" xmlns="http://www.w3.org/2000/svg">
<path d="M21 17.5597H20V15.5597C20 15.2944 19.8946 15.0401 19.7071 14.8525C19.5196 14.665 19.2652 14.5597 19 14.5597H13V13.4597C14.214 13.2118 15.2928 12.5221 16.0272 11.5241C16.7616 10.5261 17.0992 9.29094 16.9747 8.05813C16.8501 6.82533 16.2723 5.68268 15.3532 4.85172C14.434 4.02076 13.2391 3.56068 12 3.56068C10.7609 3.56068 9.56598 4.02076 8.64685 4.85172C7.72771 5.68268 7.14986 6.82533 7.02532 8.05813C6.90078 9.29094 7.23843 10.5261 7.9728 11.5241C8.70718 12.5221 9.78596 13.2118 11 13.4597V14.5597H5C4.73478 14.5597 4.48043 14.665 4.29289 14.8525C4.10536 15.0401 4 15.2944 4 15.5597V17.5597H3C2.73478 17.5597 2.48043 17.665 2.29289 17.8525C2.10536 18.0401 2 18.2944 2 18.5597V22.5597C2 22.8249 2.10536 23.0792 2.29289 23.2668C2.48043 23.4543 2.73478 23.5597 3 23.5597H7C7.26522 23.5597 7.51957 23.4543 7.70711 23.2668C7.89464 23.0792 8 22.8249 8 22.5597V18.5597C8 18.2944 7.89464 18.0401 7.70711 17.8525C7.51957 17.665 7.26522 17.5597 7 17.5597H6V16.5597H18V17.5597H17C16.7348 17.5597 16.4804 17.665 16.2929 17.8525C16.1054 18.0401 16 18.2944 16 18.5597V22.5597C16 22.8249 16.1054 23.0792 16.2929 23.2668C16.4804 23.4543 16.7348 23.5597 17 23.5597H21C21.2652 23.5597 21.5196 23.4543 21.7071 23.2668C21.8946 23.0792 22 22.8249 22 22.5597V18.5597C22 18.2944 21.8946 18.0401 21.7071 17.8525C21.5196 17.665 21.2652 17.5597 21 17.5597ZM6 21.5597H4V19.5597H6V21.5597ZM9 8.55966C9 7.96631 9.17595 7.38629 9.50559 6.89294C9.83524 6.3996 10.3038 6.01508 10.8519 5.78802C11.4001 5.56095 12.0033 5.50154 12.5853 5.6173C13.1672 5.73306 13.7018 6.01878 14.1213 6.43833C14.5409 6.85789 14.8266 7.39244 14.9424 7.97439C15.0581 8.55633 14.9987 9.15953 14.7716 9.70771C14.5446 10.2559 14.1601 10.7244 13.6667 11.0541C13.1734 11.3837 12.5933 11.5597 12 11.5597C11.2044 11.5597 10.4413 11.2436 9.87868 10.681C9.31607 10.1184 9 9.35531 9 8.55966ZM20 21.5597H18V19.5597H20V21.5597Z" fill="#687D95"/>
<path d="M21.3391 8.91303C19.2601 11.8894 15.8637 13.8297 12.0248 13.8297C8.18584 13.8297 4.78894 11.8894 2.71043 8.91303C2.56593 8.70589 2.56593 8.42575 2.71043 8.21842C4.78938 5.24204 8.18584 3.30176 12.0248 3.30176C15.8637 3.30176 19.2606 5.24204 21.3391 8.21842C21.4838 8.42577 21.4838 8.7057 21.3391 8.91303ZM15.4309 8.56571C15.4309 6.6846 13.906 5.15947 12.0246 5.15947C10.1435 5.15947 8.61841 6.68438 8.61841 8.56571C8.61841 10.4468 10.1433 11.972 12.0246 11.972C13.9058 11.972 15.4309 10.4468 15.4309 8.56571Z" fill="#687D95"/>
</svg>
