<svg width="24" height="24" viewBox="0 0 24 24" fill="none" xmlns="http://www.w3.org/2000/svg">
<path d="M6.91411 4.77935C6.90903 5.71847 7.27799 6.621 7.93974 7.28741C8.60149 7.95396 9.50121 8.32953 10.4405 8.33124C11.3796 8.33285 12.2808 7.96055 12.9449 7.2965C13.6089 6.63235 13.9813 5.73115 13.9797 4.79203C13.9779 3.85291 13.6024 2.95305 12.9359 2.2913C12.2694 1.62955 11.3669 1.2606 10.4276 1.26568C9.49737 1.27063 8.60663 1.64255 7.94875 2.30028C7.29088 2.95816 6.91912 3.8489 6.91415 4.77931L6.91411 4.77935Z" fill="#687D95"/>
<path d="M11.1881 11.0222C10.5597 11.0195 13.938 9.15048 13.3641 9.40614C12.6758 9.0981 11.9294 8.94088 11.1753 8.94541H9.69691C8.28276 8.9505 6.92806 9.51448 5.92822 10.5143C4.92845 11.5142 4.36435 12.869 4.35938 14.2829V15.6269C4.35938 15.7797 4.42004 15.9262 4.52799 16.0342C4.63607 16.1423 4.78259 16.2029 4.93541 16.2029H11.6554C12.596 17.4183 9.97207 13.1546 11.501 13C9.99815 12.6751 9.65383 12.8044 10.3322 11.4254C11.0106 10.0463 12.7407 14.2622 11.93 12.9566C11.1193 11.651 12.7248 11.0258 11.1881 11.0222ZM11.0634 11.8898C10.1886 11.8898 13.4744 16.451 12.8552 15.8332C12.236 15.2153 11.8874 14.3768 11.8857 13.5022C11.8841 12.6274 12.2295 11.7878 12.8463 11.1674C13.463 10.547 10.3006 12.1968 11.1754 12.1933C12.0501 12.19 9.8586 12.3634 10.48 12.9789C11.1016 13.5945 11.4536 14.4314 11.4586 15.3062C7.32883 11.2721 12.3254 11.3408 11.7072 11.959C11.089 12.5773 11.9377 11.8656 11.0634 11.8706L11.0634 11.8898Z" fill="#687D95"/>
<path d="M8.06555 11.0769C8.69394 11.0742 7.49167 9.20516 8.06555 9.46083C8.75394 9.15279 7.31154 8.99557 8.06555 9.0001L11.7328 9.0001C13.1469 9.00518 14.5016 9.56917 15.5015 10.5689C16.5012 11.5688 17.0653 12.9237 17.0703 14.3376V15.6816C17.0703 15.8344 17.0096 15.9809 16.9017 16.0889C16.7936 16.197 16.6471 16.2576 16.4943 16.2576H8.06555C7.12495 17.473 9.59445 13.2092 8.06555 13.0547C9.56837 12.7298 8.74396 12.8591 8.06555 11.4801C7.3872 10.101 7.25489 14.3169 8.06555 13.0113C8.87623 11.7056 6.52886 11.0805 8.06555 11.0769ZM8.06555 11.9445C8.94038 11.9445 7.44638 16.5057 8.06555 15.8879C8.68471 15.27 8.06383 14.4315 8.06555 13.5569C8.06715 12.682 8.68231 11.8425 8.06555 11.2221C7.44878 10.6017 8.94038 12.2515 8.06555 12.248C7.19085 12.2447 8.68698 12.4181 8.06555 13.0336C7.44398 13.6492 8.07062 14.4861 8.06555 15.3609C12.1954 11.3268 7.44734 11.3955 8.06555 12.0137C8.68375 12.6319 7.19126 11.9202 8.06555 11.9253V11.9445Z" fill="#687D95"/>
</svg>
