<svg width="16" height="16" viewBox="0 0 16 16" fill="none" xmlns="http://www.w3.org/2000/svg">
<path d="M13.7753 9.78842C13.7753 9.61165 13.6519 9.52326 13.4051 9.52326H5.80599C5.61974 9.52326 5.42068 9.57756 5.20882 9.68614C4.99696 9.79472 4.8305 9.9273 4.70943 10.0839L2.656 12.8339C2.57219 12.9551 2.53028 13.0561 2.53028 13.1369C2.53028 13.3137 2.65367 13.402 2.90045 13.402H10.4996C10.6858 13.402 10.886 13.3465 11.1002 13.2354C11.3144 13.1243 11.4797 12.9904 11.5961 12.8339L13.6495 10.0839C13.7334 9.97276 13.7753 9.87427 13.7753 9.78841L13.7753 9.78842ZM5.80599 8.55357H11.1701V7.34144C11.1701 7.13942 11.1049 6.9677 10.9745 6.82629C10.8441 6.68488 10.6858 6.61417 10.4995 6.61417H6.4765C6.29025 6.61417 6.13193 6.54347 6.00156 6.40205C5.87118 6.26064 5.80599 6.08892 5.80599 5.8869V5.40205C5.80599 5.20003 5.7408 5.02831 5.61042 4.8869C5.48005 4.74548 5.32174 4.67478 5.13549 4.67478H2.90045C2.7142 4.67478 2.55589 4.74549 2.42551 4.8869C2.29514 5.02832 2.22995 5.20004 2.22995 5.40206V11.8642L4.01797 9.47781C4.22284 9.21014 4.49291 8.98918 4.82816 8.81493C5.16342 8.6407 5.48936 8.55358 5.80599 8.55358V8.55357ZM14.6693 9.78842C14.6693 10.1015 14.5622 10.4046 14.348 10.6975L12.2876 13.4475C12.0874 13.7152 11.8173 13.9361 11.4774 14.1104C11.1375 14.2846 10.8115 14.3717 10.4995 14.3717H2.90045C2.47208 14.3717 2.10423 14.2051 1.79691 13.8717C1.4896 13.5384 1.33594 13.1394 1.33594 12.6748V5.40205C1.33594 4.9374 1.4896 4.53841 1.79691 4.20508C2.10423 3.87174 2.47208 3.70508 2.90045 3.70508H5.13549C5.56387 3.70508 5.93172 3.87174 6.23903 4.20508C6.54635 4.53841 6.70001 4.9374 6.70001 5.40205V5.64448H10.4996C10.9279 5.64448 11.2958 5.81114 11.6031 6.14447C11.9104 6.4778 12.0641 6.8768 12.0641 7.34144V8.55357H13.4051C13.6565 8.55357 13.887 8.61543 14.0966 8.73917C14.3061 8.86291 14.4621 9.04094 14.5645 9.27327C14.6344 9.43487 14.6693 9.60659 14.6693 9.78842Z" fill="white"/>
</svg>
