<svg width="141" height="32" viewBox="0 0 141 32" fill="none" xmlns="http://www.w3.org/2000/svg">
<path fill-rule="evenodd" clip-rule="evenodd" d="M1.45411 0.291175C0.0609564 1.00167 -2.03375e-05 1.67393 -2.03375e-05 16.3159C-2.03375e-05 29.6641 0.0303025 30.3652 0.632746 30.914C1.37914 31.594 2.89824 31.705 3.92019 31.1545C4.31971 30.9392 6.77314 28.8654 9.37184 26.546C11.9709 24.2267 14.4526 22.166 14.8868 21.9667C15.8671 21.5172 16.1517 21.7181 22.5909 27.4065C25.2113 29.7215 27.7604 31.7396 28.2555 31.8912C29.4024 32.2421 30.7966 31.7191 31.4693 30.6852C31.9135 30.0029 31.9871 27.9563 31.9994 15.9711C32.0074 8.31429 31.9248 1.81616 31.8158 1.53069C31.5756 0.900367 30.2384 0.250251 29.1825 0.250251C28.4528 0.250251 27.3242 1.16773 19.5881 8.04962C16.8021 10.5276 16.1686 10.5538 13.5493 8.29651C12.4714 7.36763 11.4314 6.71987 11.2168 6.84365C11.0036 6.96643 10.9406 6.94328 11.0762 6.79233C11.4144 6.41695 10.672 5.57227 10.2402 5.84097C10.0466 5.9614 9.99227 5.89565 10.1169 5.69237C10.3871 5.25225 8.60746 4.57496 8.55781 4.50921C8.50816 4.44346 8.44685 4.35725 8.44685 4.35725C8.44685 4.35725 7.70346 3.1486 6.52656 2.10835C4.2784 0.121101 2.81527 -0.402885 1.45411 0.291175ZM9.82967 8.80339C10.1962 9.05464 12.8172 11.3086 15.6542 13.8124C18.6414 16.4488 21.0958 18.3646 21.4853 18.3639C21.8555 18.3632 23.1974 17.4575 24.4669 16.3512C25.7364 15.2445 26.861 14.3391 26.966 14.3388C27.0709 14.3384 27.0816 16.0593 26.99 18.163C26.855 21.2599 26.7057 22.1183 26.2056 22.6732C25.4382 23.5249 24.0301 23.86 22.9661 23.4444C22.522 23.271 19.9093 21.1324 17.1603 18.6923C14.4113 16.2522 11.8323 14.0355 11.4287 13.7665C10.3991 13.0798 9.63907 13.4203 7.06602 15.7212L4.83152 17.7195L4.73556 14.4625C4.68258 12.6712 4.78154 10.7953 4.95514 10.2935C5.01879 10.1544 5.06197 10.0075 5.08684 9.86334C5.14828 9.50726 5.09789 9.16855 4.96814 9.00902C4.76355 8.75777 4.78587 8.73663 5.03645 8.94361C5.21641 9.09229 5.56023 9.05454 6.0074 8.84525C6.14641 8.78019 6.29542 8.69855 6.45259 8.60078C7.55618 7.91443 8.62611 7.9785 9.82967 8.80339Z" fill="#FED931"/>
<path d="M11.2168 6.84365C11.4314 6.71987 12.4714 7.36763 13.5493 8.29651L6.52656 2.10835C7.70346 3.1486 8.44685 4.35725 8.44685 4.35725C8.44685 4.35725 8.50816 4.44346 8.55781 4.50921C8.60746 4.57496 10.3871 5.25225 10.1169 5.69237C9.99227 5.89565 10.0466 5.9614 10.2402 5.84097C10.672 5.57227 11.4144 6.41695 11.0762 6.79233C10.9406 6.94328 11.0036 6.96643 11.2168 6.84365Z" fill="#FED931"/>
<path d="M4.96814 9.00902C5.09789 9.16855 5.14828 9.50726 5.08684 9.86334C5.2336 9.5508 5.5158 9.16713 6.0074 8.84525C5.56023 9.05454 5.21641 9.09229 5.03645 8.94361C4.78587 8.73663 4.76355 8.75777 4.96814 9.00902Z" fill="#FED931"/>
<path d="M61.9168 8.78125V23H59.2215L53.1766 13.1367V23H50.491V8.78125H53.1766L59.241 18.6543V8.78125H61.9168ZM71.5449 20.4902V12.4336H74.1426V23H71.7012L71.5449 20.4902ZM71.877 18.3027L72.6777 18.2832C72.6777 18.9928 72.5996 19.6471 72.4434 20.2461C72.2871 20.8451 72.043 21.3659 71.7109 21.8086C71.3854 22.2448 70.972 22.5866 70.4707 22.834C69.9694 23.0749 69.377 23.1953 68.6934 23.1953C68.1725 23.1953 67.6973 23.1237 67.2676 22.9805C66.8379 22.8307 66.4668 22.5996 66.1543 22.2871C65.8483 21.9681 65.6107 21.5612 65.4414 21.0664C65.2721 20.5651 65.1875 19.9629 65.1875 19.2598V12.4336H67.7656V19.2793C67.7656 19.6309 67.8047 19.9238 67.8828 20.1582C67.9674 20.3926 68.0814 20.5846 68.2246 20.7344C68.3743 20.8776 68.5469 20.9818 68.7422 21.0469C68.944 21.1055 69.1589 21.1348 69.3867 21.1348C70.0117 21.1348 70.5033 21.0111 70.8613 20.7637C71.2259 20.5098 71.4863 20.1712 71.6426 19.748C71.7988 19.3184 71.877 18.8366 71.877 18.3027ZM81.5637 21.1641C81.9283 21.1641 82.2538 21.0924 82.5402 20.9492C82.8267 20.806 83.0546 20.6042 83.2238 20.3438C83.3996 20.0833 83.494 19.7806 83.507 19.4355H85.9387C85.9257 20.1517 85.7238 20.793 85.3332 21.3594C84.9426 21.9258 84.4217 22.375 83.7707 22.707C83.1262 23.0326 82.4035 23.1953 81.6027 23.1953C80.7889 23.1953 80.0793 23.0586 79.4738 22.7852C78.8684 22.5117 78.3638 22.1309 77.9602 21.6426C77.563 21.1543 77.2635 20.5879 77.0617 19.9434C76.8664 19.2988 76.7688 18.6087 76.7688 17.873V17.5605C76.7688 16.8249 76.8664 16.1348 77.0617 15.4902C77.2635 14.8457 77.563 14.2793 77.9602 13.791C78.3638 13.3027 78.8684 12.9219 79.4738 12.6484C80.0793 12.375 80.7857 12.2383 81.593 12.2383C82.4458 12.2383 83.1945 12.4043 83.8391 12.7363C84.4901 13.0684 84.9979 13.5371 85.3625 14.1426C85.7336 14.748 85.9257 15.4609 85.9387 16.2812H83.507C83.494 15.9036 83.4094 15.5651 83.2531 15.2656C83.0969 14.9661 82.8755 14.7253 82.5891 14.543C82.3026 14.3607 81.9543 14.2695 81.5441 14.2695C81.1079 14.2695 80.7434 14.3607 80.4504 14.543C80.1639 14.7253 79.9393 14.9759 79.7766 15.2949C79.6203 15.6074 79.5096 15.959 79.4445 16.3496C79.3859 16.7337 79.3566 17.1374 79.3566 17.5605V17.873C79.3566 18.3027 79.3859 18.7129 79.4445 19.1035C79.5096 19.4941 79.6203 19.8457 79.7766 20.1582C79.9393 20.4642 80.1639 20.7083 80.4504 20.8906C80.7434 21.0729 81.1145 21.1641 81.5637 21.1641ZM90.9867 8V23H88.3988V8H90.9867ZM90.5766 17.3359H89.8148C89.8148 16.6003 89.9125 15.9232 90.1078 15.3047C90.3031 14.6862 90.5798 14.1491 90.9379 13.6934C91.296 13.2311 91.7224 12.873 92.2172 12.6191C92.7185 12.3652 93.2719 12.2383 93.8773 12.2383C94.3982 12.2383 94.8702 12.3132 95.2934 12.4629C95.723 12.6061 96.0909 12.8372 96.3969 13.1562C96.7029 13.4753 96.9372 13.8919 97.1 14.4062C97.2693 14.9141 97.3539 15.5326 97.3539 16.2617V23H94.7563V16.2422C94.7563 15.7539 94.6846 15.3698 94.5414 15.0898C94.3982 14.8034 94.1931 14.5983 93.9262 14.4746C93.6658 14.3509 93.3435 14.2891 92.9594 14.2891C92.5427 14.2891 92.1846 14.3704 91.8852 14.5332C91.5857 14.6895 91.3383 14.9076 91.143 15.1875C90.9542 15.4674 90.8109 15.7897 90.7133 16.1543C90.6221 16.5189 90.5766 16.9128 90.5766 17.3359ZM111.854 16.6621H108.221L108.202 14.7676H111.317C111.851 14.7676 112.297 14.6927 112.655 14.543C113.013 14.3932 113.283 14.1751 113.466 13.8887C113.654 13.6022 113.749 13.2539 113.749 12.8438C113.749 12.388 113.661 12.0169 113.485 11.7305C113.316 11.444 113.049 11.2357 112.684 11.1055C112.32 10.9688 111.858 10.9004 111.298 10.9004H109.091V23H106.405V8.78125H111.298C112.105 8.78125 112.824 8.85938 113.456 9.01562C114.094 9.16536 114.634 9.39974 115.077 9.71875C115.52 10.0378 115.855 10.4382 116.083 10.9199C116.317 11.4017 116.434 11.9746 116.434 12.6387C116.434 13.2246 116.298 13.765 116.024 14.2598C115.757 14.748 115.344 15.1452 114.784 15.4512C114.231 15.7572 113.527 15.9329 112.675 15.9785L111.854 16.6621ZM111.737 23H107.43L108.554 20.8906H111.737C112.271 20.8906 112.71 20.8027 113.055 20.627C113.407 20.4512 113.667 20.2103 113.837 19.9043C114.013 19.5918 114.1 19.2337 114.1 18.8301C114.1 18.3874 114.022 18.0033 113.866 17.6777C113.716 17.3522 113.475 17.1016 113.143 16.9258C112.818 16.75 112.388 16.6621 111.854 16.6621H109.061L109.081 14.7676H112.636L113.251 15.5C114.071 15.5065 114.738 15.6693 115.253 15.9883C115.774 16.3073 116.158 16.7174 116.405 17.2188C116.652 17.7201 116.776 18.2604 116.776 18.8398C116.776 19.7513 116.578 20.5163 116.18 21.1348C115.79 21.7533 115.217 22.2188 114.462 22.5312C113.713 22.8438 112.805 23 111.737 23ZM124.451 23.1953C123.65 23.1953 122.931 23.0651 122.293 22.8047C121.655 22.5443 121.111 22.1829 120.662 21.7207C120.219 21.252 119.878 20.7083 119.637 20.0898C119.402 19.4648 119.285 18.7943 119.285 18.0781V17.6875C119.285 16.8737 119.402 16.1348 119.637 15.4707C119.871 14.8001 120.203 14.224 120.633 13.7422C121.062 13.2604 121.577 12.8893 122.176 12.6289C122.775 12.3685 123.436 12.2383 124.158 12.2383C124.907 12.2383 125.568 12.3652 126.141 12.6191C126.714 12.8665 127.192 13.2181 127.576 13.6738C127.96 14.1296 128.25 14.6764 128.445 15.3145C128.641 15.946 128.738 16.6458 128.738 17.4141V18.498H120.457V16.7207H126.199V16.5254C126.186 16.1152 126.108 15.7409 125.965 15.4023C125.822 15.0573 125.6 14.7839 125.301 14.582C125.001 14.3737 124.614 14.2695 124.139 14.2695C123.755 14.2695 123.419 14.3542 123.133 14.5234C122.853 14.6862 122.618 14.9206 122.43 15.2266C122.247 15.526 122.111 15.8841 122.02 16.3008C121.928 16.7174 121.883 17.1797 121.883 17.6875V18.0781C121.883 18.5208 121.941 18.931 122.059 19.3086C122.182 19.6862 122.361 20.015 122.596 20.2949C122.837 20.5684 123.123 20.7832 123.455 20.9395C123.794 21.0892 124.178 21.1641 124.607 21.1641C125.148 21.1641 125.636 21.0599 126.072 20.8516C126.515 20.6367 126.899 20.321 127.225 19.9043L128.523 21.252C128.302 21.5775 128.003 21.89 127.625 22.1895C127.254 22.4889 126.805 22.7331 126.277 22.9219C125.75 23.1042 125.141 23.1953 124.451 23.1953ZM136.013 23.1953C135.212 23.1953 134.493 23.0651 133.855 22.8047C133.217 22.5443 132.673 22.1829 132.224 21.7207C131.781 21.252 131.439 20.7083 131.198 20.0898C130.964 19.4648 130.847 18.7943 130.847 18.0781V17.6875C130.847 16.8737 130.964 16.1348 131.198 15.4707C131.433 14.8001 131.765 14.224 132.195 13.7422C132.624 13.2604 133.139 12.8893 133.738 12.6289C134.336 12.3685 134.997 12.2383 135.72 12.2383C136.469 12.2383 137.129 12.3652 137.702 12.6191C138.275 12.8665 138.754 13.2181 139.138 13.6738C139.522 14.1296 139.812 14.6764 140.007 15.3145C140.202 15.946 140.3 16.6458 140.3 17.4141V18.498H132.019V16.7207H137.761V16.5254C137.748 16.1152 137.67 15.7409 137.527 15.4023C137.383 15.0573 137.162 14.7839 136.863 14.582C136.563 14.3737 136.176 14.2695 135.7 14.2695C135.316 14.2695 134.981 14.3542 134.695 14.5234C134.415 14.6862 134.18 14.9206 133.991 15.2266C133.809 15.526 133.672 15.8841 133.581 16.3008C133.49 16.7174 133.445 17.1797 133.445 17.6875V18.0781C133.445 18.5208 133.503 18.931 133.62 19.3086C133.744 19.6862 133.923 20.015 134.157 20.2949C134.398 20.5684 134.685 20.7832 135.017 20.9395C135.355 21.0892 135.739 21.1641 136.169 21.1641C136.71 21.1641 137.198 21.0599 137.634 20.8516C138.077 20.6367 138.461 20.321 138.786 19.9043L140.085 21.252C139.864 21.5775 139.564 21.89 139.187 22.1895C138.816 22.4889 138.366 22.7331 137.839 22.9219C137.312 23.1042 136.703 23.1953 136.013 23.1953Z" fill="white"/>
</svg>
