<svg width="24" height="24" viewBox="0 0 24 24" fill="none" xmlns="http://www.w3.org/2000/svg">
<g clip-path="url(#clip0_447_38349)">
<path d="M20 4L20 20C20 20.55 19.55 21 19 21C18.45 21 18 20.55 18 20L18 4C18 3.45 18.45 3 19 3C19.55 3 20 3.45 20 4Z" fill="#FED931"/>
<path d="M3.29289 11.2929C2.90237 11.6834 2.90237 12.3166 3.29289 12.7071L9.65686 19.0711C10.0474 19.4616 10.6805 19.4616 11.0711 19.0711C11.4616 18.6805 11.4616 18.0474 11.0711 17.6569L5.41421 12L11.0711 6.34315C11.4616 5.95262 11.4616 5.31946 11.0711 4.92893C10.6805 4.53841 10.0474 4.53841 9.65685 4.92893L3.29289 11.2929ZM16 11L4 11L4 13L16 13L16 11Z" fill="#FED931"/>
</g>
<defs>
<clipPath id="clip0_447_38349">
<rect width="24" height="24" fill="white"/>
</clipPath>
</defs>
</svg>
