<svg width="16" height="17" viewBox="0 0 16 17" fill="none" xmlns="http://www.w3.org/2000/svg">
<path d="M2.91216 3.78032C2.90707 4.71944 3.27604 5.62198 3.93778 6.28839C4.59953 6.95494 5.49926 7.33051 6.43852 7.33222C7.37764 7.33383 8.27884 6.96152 8.94298 6.29748C9.607 5.63333 9.97934 4.73213 9.97773 3.79301C9.97599 2.85389 9.60045 1.95402 8.9339 1.29228C8.26745 0.630528 7.36492 0.261579 6.42569 0.266653C5.49542 0.271609 4.60468 0.643522 3.9468 1.30126C3.28893 1.95913 2.91717 2.84988 2.9122 3.78029L2.91216 3.78032Z" fill="#1B73F9"/>
<path d="M11.1871 8.02315C10.5587 8.02047 9.93704 8.15145 9.36316 8.40712C8.67478 8.09908 7.92838 7.94186 7.17436 7.94638H5.69593C4.28178 7.95147 2.92708 8.51546 1.92724 9.51523C0.927473 10.5151 0.36337 11.87 0.358398 13.2839V14.6279C0.358398 14.7807 0.419067 14.9272 0.527015 15.0352C0.635094 15.1432 0.781615 15.2039 0.934433 15.2039H7.65443C8.59503 16.4193 10.0958 17.0639 11.6247 16.9094C13.1538 16.7548 14.4952 15.8229 15.1736 14.4439C15.852 13.0648 15.7716 11.4335 14.961 10.128C14.1503 8.82231 12.7238 8.02678 11.1871 8.02315L11.1871 8.02315ZM11.1871 15.7992C10.3123 15.7992 9.47339 15.452 8.85423 14.8342C8.23506 14.2162 7.88644 13.3778 7.88473 12.5032C7.88312 11.6283 8.22851 10.7887 8.84528 10.1684C9.46204 9.54801 10.2996 9.19778 11.1744 9.19432C12.0491 9.19097 12.8895 9.53476 13.5109 10.1503C14.1325 10.7658 14.4845 11.6028 14.4896 12.4776C14.4845 13.3519 14.1349 14.1889 13.5167 14.8071C12.8985 15.4253 12.0615 15.7749 11.1872 15.78L11.1871 15.7992Z" fill="#1B73F9"/>
<path d="M11.7632 10.3086H10.6112V11.9022H9.01758V13.0543H10.6112V14.6478H11.7632V13.0543H13.3567V11.9022H11.7632V10.3086Z" fill="#1B73F9"/>
</svg>
