<svg width="24" height="24" viewBox="0 0 24 24" fill="none" xmlns="http://www.w3.org/2000/svg">
<path d="M6.45661 6.45744C3.18113 9.73265 3.18113 15.0686 6.45661 18.3443C9.73196 21.6195 15.0682 21.6196 18.3435 18.3443C21.619 15.0689 21.619 9.73275 18.3435 6.45744C15.0681 3.18223 9.73193 3.18209 6.45661 6.45744ZM7.64523 7.64619C10.0748 5.21674 13.8609 5.05587 16.5023 7.10979L7.109 16.5034C5.05508 13.8619 5.21578 10.0758 7.64527 7.64602L7.64523 7.64619ZM8.29759 17.6919L17.6908 8.29831C19.7436 10.9398 19.5837 14.7265 17.1546 17.1553C14.7255 19.5844 10.9389 19.7443 8.29755 17.6917L8.29759 17.6919Z" fill="#1B73F9"/>
</svg>
