<svg width="24" height="24" viewBox="0 0 24 24" fill="none" xmlns="http://www.w3.org/2000/svg">
<path d="M14.7451 12.264C14.7451 13.5465 13.7053 14.5863 12.4227 14.5863C11.1402 14.5863 10.1003 13.5465 10.1003 12.264C10.1003 10.9814 11.1402 9.94159 12.4227 9.94159C13.7053 9.94159 14.7451 10.9814 14.7451 12.264ZM21.737 12.6113C19.6581 15.5877 16.2616 17.5279 12.4227 17.5279C8.58379 17.5279 5.18689 15.5877 3.10838 12.6113C2.96387 12.4041 2.96387 12.124 3.10838 11.9167C5.18733 8.94028 8.58379 7 12.4227 7C16.2616 7 19.6585 8.94028 21.737 11.9167C21.8818 12.124 21.8818 12.4039 21.737 12.6113ZM15.8288 12.264C15.8288 10.3828 14.3039 8.85771 12.4226 8.85771C10.5415 8.85771 9.01635 10.3826 9.01635 12.264C9.01635 14.1451 10.5413 15.6702 12.4226 15.6702C14.3037 15.6702 15.8288 14.1451 15.8288 12.264Z" fill="#1B73F9"/>
</svg>
