<svg width="26" height="20" viewBox="0 0 26 20" fill="none" xmlns="http://www.w3.org/2000/svg"><path opacity=".854" fill-rule="evenodd" clip-rule="evenodd" d="M15.49 1.928a2.57 2.57 0 0 1 1.766.635q.884-.015 1.64.423a7.8 7.8 0 0 1 2.364 2.268q.543 1.192 1.135 2.358.745.396 1.482.816.645.39 1.072.998a.4.4 0 0 1-.22.12q-.63.08-1.23.273.36.339.82.544.544.462.945 1.028l-.063.09q-.312-.3-.694-.513a7.5 7.5 0 0 1-1.135-.605 2 2 0 0 1-.535-.635q-.066-.116.031-.211a5.3 5.3 0 0 1 1.45-.303l-.946-.665-1.26-.484a33 33 0 0 1-1.356-2.69q-1.058-1.588-2.87-2.328a11 11 0 0 1-.945-.121 1.9 1.9 0 0 0-1.356-.514.25.25 0 0 0 0 .242l.63.846q.303.72.568 1.451.152.322.441.545a16 16 0 0 0-.284 1.541q.006.693.347 1.3.086.111.158 0 .064-.492.22-.967a1 1 0 0 1 .348-.363q.517 1.114 1.23 2.117.252.228.472.483-.048.093-.126.03-.643-.525-1.23-1.118l-.315-.605q-.073.33-.126.665-.387.576-.883.06-.852-1.425-.157-2.932a2.4 2.4 0 0 1-.537-.816 24 24 0 0 0-.504-1.27q-.39-.372-.63-.846-.16-.535.283-.847" fill="#00758F"/><path opacity=".759" fill-rule="evenodd" clip-rule="evenodd" d="M17.191 3.56q.712-.044.505.604-.094.12-.19 0a18 18 0 0 1-.315-.605" fill="#00758F"/><path opacity=".927" fill-rule="evenodd" clip-rule="evenodd" d="M12.779 10.998a3.36 3.36 0 0 1 1.703.363q.078.338-.19.605a2.4 2.4 0 0 0-1.387-.212q-1.057.57-.126 1.33.938.473 1.797 1.058.45.741.19 1.572-.617 1.014-1.86.968a2.6 2.6 0 0 1-1.64-.574.8.8 0 0 1 .315-.454 2.6 2.6 0 0 0 1.703.212q1.125-.709 0-1.451l-1.514-.847q-.782-.926-.158-1.965a2.16 2.16 0 0 1 1.167-.605" fill="#F19110"/><path opacity=".939" fill-rule="evenodd" clip-rule="evenodd" d="M17.195 10.998q1.324-.168 2.175.786.701 1.415.379 2.962a2.55 2.55 0 0 1-.788 1.421l1.008.545q-.21.328-.441.634a44 44 0 0 1-1.356-.786q-2.465.573-2.9-1.814a6.3 6.3 0 0 1 .189-2.358q.459-1.183 1.734-1.39m.126.725q1.095-.053 1.356.968.399 1.468-.253 2.842-.94.85-1.828-.061a2.6 2.6 0 0 1-.316-.967 5.8 5.8 0 0 1 .127-1.935q.2-.693.914-.847" fill="#F19110"/><path opacity=".94" fill-rule="evenodd" clip-rule="evenodd" d="M1.05 11.058q.634-.03 1.261.06.688 1.935 1.356 3.87.643-1.94 1.324-3.87.607-.088 1.23-.06.315 2.743.378 5.503H5.59a31 31 0 0 0-.252-4.052A144 144 0 0 0 3.982 16.5a3.2 3.2 0 0 1-.85.06 320 320 0 0 0-1.357-4.171 48 48 0 0 0-.157 4.172H.672a63 63 0 0 1 .378-5.503" fill="#00758F"/><path opacity=".963" fill-rule="evenodd" clip-rule="evenodd" d="M20.598 11.059h.946v4.777h1.828v.725h-2.774z" fill="#F19110"/><path opacity=".929" fill-rule="evenodd" clip-rule="evenodd" d="M7.042 12.51H8.05q.46 1.582.977 3.144.563-1.53.725-3.145.51-.03 1.01.06a15.3 15.3 0 0 1-1.356 4.112 2.87 2.87 0 0 1-1.482 1.3 2.1 2.1 0 0 1-.883-.06 1.4 1.4 0 0 1-.063-.574q1.106.22 1.324-.817a149 149 0 0 0-1.261-4.02" fill="#00758F"/><path opacity=".792" fill-rule="evenodd" clip-rule="evenodd" d="M23.75 15.834h.567v.181h-.189v.545h-.189v-.545h-.189z" fill="#F19110"/><path opacity=".764" fill-rule="evenodd" clip-rule="evenodd" d="M24.445 15.834q.372.04.41.423l.126-.363a.42.42 0 0 1 .284-.06v.726h-.19a.5.5 0 0 0-.03-.242q-.19.483-.379 0a.5.5 0 0 0-.032.241h-.189z" fill="#F19110"/></svg>