<svg width="80" height="80" viewBox="0 0 80 80" fill="none" xmlns="http://www.w3.org/2000/svg">
<path fill-rule="evenodd" clip-rule="evenodd" d="M32.5339 8.00023C35.8911 8.00023 39.0527 9.58103 41.0674 12.2667L44.2674 16.5337H59.2C66.2691 16.5337 72 22.2646 72 29.3337V59.2C72 66.2691 66.2691 72 59.2 72H20.8C13.7309 72 8 66.2691 8 59.2V20.8C8 13.7309 13.7309 8 20.8 8L32.5339 8.00023ZM32.5339 12.2667H20.8002C16.0873 12.2667 12.2672 16.0873 12.2672 20.8002V59.2002C12.2672 63.9132 16.0873 67.7337 20.8002 67.7337H59.2002C63.9132 67.7337 67.7337 63.9132 67.7337 59.2002V29.3339C67.7337 24.621 63.9132 20.8005 59.2002 20.8005L44.2677 20.7982V20.8005H33.6007C32.4225 20.8005 31.4677 19.8455 31.4677 18.667C31.4677 17.4888 32.4226 16.5339 33.6007 16.5339H38.9342L37.6543 14.8272C36.532 13.3307 34.8159 12.4057 32.9637 12.2817L32.5339 12.2667ZM27.2005 48.5342C28.3786 48.5342 29.3339 49.4891 29.3339 50.6672V54.9342C29.3339 56.1124 28.3786 57.0672 27.2005 57.0672H22.9339C21.7558 57.0672 20.8005 56.1123 20.8005 54.9342V50.6672C20.8005 49.489 21.7558 48.5342 22.9339 48.5342H27.2005ZM48.5342 50.6672C49.7123 50.6672 50.6677 51.6226 50.6677 52.8007C50.6677 53.9788 49.7123 54.9342 48.5342 54.9342H37.8677C36.6891 54.9342 35.7342 53.9788 35.7342 52.8007C35.7342 51.6226 36.6891 50.6672 37.8677 50.6672H48.5342ZM27.2005 31.4672C28.3786 31.4672 29.3339 32.4226 29.3339 33.6007V37.8672C29.3339 39.0457 28.3786 40.0007 27.2005 40.0007H22.9339C21.7558 40.0007 20.8005 39.0458 20.8005 37.8672V33.6007C20.8005 32.4225 21.7558 31.4672 22.9339 31.4672H27.2005ZM57.0679 33.6007C58.2461 33.6007 59.2009 34.5556 59.2009 35.7342C59.2009 36.9123 58.246 37.8672 57.0679 37.8672H37.8679C36.6894 37.8672 35.7344 36.9123 35.7344 35.7342C35.7344 34.5557 36.6893 33.6007 37.8679 33.6007H57.0679Z" fill="#D0E4FF"/>
</svg>
