<svg width="24" height="25" viewBox="0 0 24 25" fill="none" xmlns="http://www.w3.org/2000/svg">
<path fill-rule="evenodd" clip-rule="evenodd" d="M10.5001 5.28921C7.91213 6.01544 5.99991 8.5773 5.99991 11.6282V15.9915C5.99991 16.3935 5.70043 16.7195 5.33394 16.7195C4.59709 16.7195 4 17.3724 4 18.1739V19.2658C4 19.4662 4.14811 19.6285 4.33413 19.6285H19.6659C19.8505 19.6285 20 19.4636 20 19.2658V18.1739C20 17.3706 19.4001 16.7195 18.6661 16.7195C18.2982 16.7195 18.0001 16.3961 18.0001 15.9915V11.6282C18.0001 8.57828 16.0883 6.01563 13.4999 5.28921V4.53791C13.4999 3.63188 12.8284 2.90137 12 2.90137C11.1731 2.90137 10.5 3.63415 10.5 4.53791L10.5001 5.28921ZM9.66674 20.356H14.3333C14.3333 21.7617 13.2886 22.9014 12 22.9014C10.7115 22.9014 9.66674 21.7617 9.66674 20.356V20.356Z" fill="#FED931"/>
</svg>
