<svg width="16" height="16" viewBox="0 0 16 16" fill="none" xmlns="http://www.w3.org/2000/svg">
<path d="M9.95078 7.5875C10.6883 7.00625 11.1633 6.1125 11.1633 5.1C11.1633 3.35625 9.74453 1.9375 8.00078 1.9375C6.25703 1.9375 4.84453 3.3625 4.84453 5.1C4.84453 6.10625 5.31953 7.00625 6.05703 7.5875C4.11328 8.3625 2.73828 10.2625 2.73828 12.475V13.5312C2.73828 13.8188 2.97578 14.0562 3.26328 14.0562H12.7445C13.032 14.0562 13.2695 13.8188 13.2695 13.5312V12.475C13.2695 10.2625 11.8945 8.3625 9.95078 7.5875ZM8.00078 2.99375C9.16328 2.99375 10.107 3.9375 10.107 5.1C10.107 6.2625 9.16328 7.20625 8.00078 7.20625C6.83828 7.20625 5.89453 6.2625 5.89453 5.1C5.89453 3.9375 6.83828 2.99375 8.00078 2.99375ZM12.2195 13.0063H3.78828V12.4812C3.78828 10.1562 5.67578 8.26875 8.00703 8.26875C10.332 8.26875 12.2195 10.1562 12.2195 12.4812V13.0063Z" fill="#9F9F9F"/>
<path d="M4.475 7.77042C4.4875 7.73917 4.4875 7.70167 4.49375 7.67042C4.5 7.65167 4.50625 7.63292 4.50625 7.60792C4.5125 7.56417 4.50625 7.52667 4.5 7.48292C4.5 7.46417 4.5 7.43917 4.5 7.42042C4.5 7.40792 4.4875 7.40167 4.4875 7.38917C4.48125 7.36417 4.46875 7.34542 4.45625 7.32042C4.4375 7.27667 4.4125 7.23292 4.375 7.19542C4.36875 7.18917 4.3625 7.18917 4.3625 7.18292C4.3125 7.13292 4.2625 7.09542 4.2 7.06417C3.63125 6.80792 3.2625 6.24542 3.2625 5.62042C3.2625 4.88917 3.75625 4.25792 4.46875 4.08292C4.75 4.01417 4.925 3.72667 4.85625 3.44542C4.7875 3.16417 4.5 2.98917 4.21875 3.05792C3.03125 3.34542 2.20625 4.39542 2.20625 5.62042C2.20625 6.28917 2.4625 6.91417 2.89375 7.38917C1.51875 8.10792 0.625 9.53292 0.625 11.1392V11.9517C0.625 12.2392 0.8625 12.4767 1.15 12.4767C1.4375 12.4767 1.675 12.2392 1.675 11.9517V11.1392C1.675 9.68292 2.65625 8.43292 4.0625 8.07667C4.2375 8.05167 4.4 7.94542 4.475 7.77042Z" fill="#9F9F9F"/>
<path d="M13.1116 7.39284C13.5428 6.91784 13.7991 6.29284 13.7991 5.62409C13.7991 4.43659 12.9991 3.38659 11.8491 3.08034C11.5678 3.00534 11.2803 3.17409 11.2053 3.44909C11.1303 3.73034 11.2991 4.01784 11.5741 4.09284C12.2616 4.28034 12.7428 4.90534 12.7428 5.61784C12.7428 6.24284 12.3741 6.80534 11.8053 7.06159C11.7428 7.08659 11.6866 7.13034 11.6366 7.18034C11.6303 7.18659 11.6303 7.18659 11.6241 7.19284C11.5928 7.23034 11.5678 7.27409 11.5428 7.31784C11.5303 7.34284 11.5178 7.36159 11.5116 7.38659C11.5116 7.39909 11.4991 7.40534 11.4991 7.41784C11.4928 7.43659 11.4991 7.46159 11.4991 7.48034C11.4928 7.51784 11.4928 7.56159 11.4928 7.60534C11.4928 7.62409 11.4991 7.64909 11.5053 7.66784C11.5116 7.69909 11.5116 7.73659 11.5241 7.76784C11.5991 7.94284 11.7616 8.04909 11.9303 8.07409C13.3366 8.43034 14.3178 9.68034 14.3178 11.1366V11.9491C14.3178 12.2366 14.5553 12.4741 14.8428 12.4741C15.1303 12.4741 15.3678 12.2366 15.3678 11.9491V11.1366C15.3741 9.53034 14.4803 8.10534 13.1116 7.39284Z" fill="#9F9F9F"/>
</svg>
