<?xml version="1.0" encoding="utf-8"?>
<!-- Generator: Adobe Illustrator 26.5.0, SVG Export Plug-In . SVG Version: 6.00 Build 0)  -->
<svg version="1.0" id="katman_1" xmlns="http://www.w3.org/2000/svg" xmlns:xlink="http://www.w3.org/1999/xlink" x="0px" y="0px"
	 viewBox="0 0 1190.55 841.89" style="enable-background:new 0 0 1190.55 841.89;" xml:space="preserve">
<style type="text/css">
	.st0{clip-path:url(#SVGID_00000031196753874946121670000001368674819549551801_);}
	.st1{fill:#13AA6A;}
	.st2{fill:#62B775;}
</style>
<g>
	<defs>
		<rect id="SVGID_1_" x="127.99" y="329.85" width="934.01" height="181.29"/>
	</defs>
	<clipPath id="SVGID_00000036951229426581816940000009959240001169408651_">
		<use xlink:href="#SVGID_1_"  style="overflow:visible;"/>
	</clipPath>
	<g style="clip-path:url(#SVGID_00000036951229426581816940000009959240001169408651_);">
		<path class="st1" d="M254.8,392.61v55.78l-48.3,27.89v34.86l78.51-45.32v-90.65L254.8,392.61z"/>
		<path class="st2" d="M206.5,364.73l48.3,27.88l30.21-17.44l-78.51-45.32l-78.51,45.32l30.2,17.44L206.5,364.73z"/>
		<path d="M176.3,437.94v55.78l30.2,17.43v-90.64l-78.51-45.33v34.87L176.3,437.94z"/>
		<path d="M392.77,375.05c-16.9,0-24.91,10.67-24.91,10.67h-0.89l-1.77-8.9h-20.47v90.73h22.24V415.1
			c0-11.56,7.98-19.57,19.57-19.57c11.59,0,19.57,7.98,19.57,19.57v52.46h22.24V413.3C428.35,390.17,413.23,375.05,392.77,375.05z"
			/>
		<path d="M632.6,436.43h-1.28l-15.12-59.6h-22.63l-15.12,59.6h-1.27l-15.13-59.6h-23.13l23.13,90.73h27.09l15.11-58.71h1.28
			l15.12,58.71h27.07l23.13-90.73h-23.13L632.6,436.43z"/>
		<path d="M738.94,384.83h-0.89l-1.78-7.98h-18.68v90.72h22.24v-52.46c0-11.56,5.34-16.9,16.91-16.9h11.4v-21.37h-13.23
			c-3.09,0.01-6.15,0.73-8.92,2.12C743.21,380.35,740.8,382.36,738.94,384.83L738.94,384.83z"/>
		<path d="M817.34,375.05c-26.67,0-46.24,19.57-46.24,47.15c0,27.58,18.46,47.15,46.24,47.15c22.5,0,36.05-13.24,41.7-22.98
			l-20.42-7.28c-2.02,3.69-10.16,10.8-21.28,10.8c-12.97,0-22.23-8.12-24-20.53h67.59c0.62-2.92,0.92-5.91,0.89-8.9
			C861.82,394.62,842.25,375.05,817.34,375.05z M793.34,414.19c2.67-11.56,10.67-20.46,24-20.46c12.46,0,20.46,8.9,22.24,20.46
			H793.34z"/>
		<path d="M488.82,375.05c-26.69,0-46.26,19.57-46.26,47.15c0,27.58,18.43,47.15,46.26,47.15c22.5,0,36.04-13.24,41.68-22.98
			l-20.41-7.28c-2.02,3.69-10.15,10.8-21.27,10.8c-12.97,0-22.24-8.12-24.02-20.53h67.6c0.62-2.92,0.92-5.91,0.89-8.9
			C533.3,394.62,513.73,375.05,488.82,375.05z M464.81,414.19c2.67-11.56,10.67-20.46,24.02-20.46c12.45,0,20.46,8.9,22.24,20.46
			H464.81z"/>
		<path d="M939.56,341.01h-22.24v22.24h22.24V341.01z"/>
		<path d="M1000.93,448.88c-13.34,0-24.02-10.67-24.02-26.69c0-16.01,10.67-26.69,24.02-26.69s18.68,8.9,20.46,14.23l20.14-7.16
			c-4.88-12.67-16.85-27.53-40.6-27.53c-26.69,0-46.26,19.57-46.26,47.15c0,27.58,19.57,47.15,46.26,47.15
			c23.95,0,35.92-15.1,40.71-28.37l-20.25-7.21C1019.61,439.98,1014.27,448.88,1000.93,448.88z"/>
		<path d="M864.29,360.77h12.62v106.79h22.24V341.01h-34.86V360.77z"/>
		<path d="M939.56,376.83h-22.24v90.73h22.24V376.83z"/>
		<path d="M1053.55,450.16c-1.71-0.02-3.37,0.46-4.8,1.38c-1.43,0.93-2.55,2.26-3.22,3.82c-0.67,1.56-0.86,3.29-0.54,4.96
			c0.32,1.67,1.12,3.21,2.32,4.42c1.2,1.21,2.72,2.04,4.39,2.38c1.67,0.34,3.4,0.18,4.97-0.47c1.57-0.65,2.92-1.74,3.87-3.16
			c0.95-1.41,1.45-3.08,1.45-4.78c0.04-1.13-0.15-2.25-0.56-3.3c-0.41-1.05-1.03-2-1.82-2.81c-0.79-0.8-1.73-1.44-2.78-1.86
			C1055.8,450.34,1054.67,450.14,1053.55,450.16z M1053.55,466c-1.44,0.02-2.86-0.38-4.07-1.16c-1.21-0.78-2.16-1.91-2.73-3.23
			c-0.57-1.33-0.73-2.79-0.46-4.21c0.27-1.42,0.95-2.72,1.96-3.75c1.01-1.03,2.31-1.73,3.72-2.02c1.41-0.29,2.88-0.15,4.21,0.39
			c1.34,0.55,2.48,1.48,3.28,2.67s1.24,2.61,1.24,4.05c0.03,0.95-0.13,1.9-0.48,2.78c-0.35,0.89-0.87,1.69-1.54,2.37
			c-0.67,0.68-1.47,1.21-2.35,1.56c-0.88,0.36-1.83,0.53-2.78,0.51V466z"/>
		<path d="M1057.24,457.15c-0.01-0.41-0.09-0.82-0.26-1.19c-0.16-0.38-0.41-0.72-0.71-1c-0.3-0.28-0.66-0.5-1.04-0.63
			c-0.39-0.14-0.8-0.19-1.21-0.17h-3.81v8.94h1.31V460h1.2l3.09,3.1h1.63l-3.09-3.1c0.76,0,1.49-0.3,2.03-0.83
			C1056.92,458.63,1057.22,457.91,1057.24,457.15L1057.24,457.15z M1051.53,458.69v-3.22h2.49c0.24-0.03,0.48-0.01,0.71,0.06
			c0.23,0.07,0.44,0.19,0.62,0.35c0.18,0.16,0.33,0.35,0.43,0.57c0.1,0.22,0.15,0.45,0.15,0.69c0,0.95-0.6,1.54-1.91,1.54H1051.53z"
			/>
	</g>
</g>
</svg>
