<svg width="24" height="24" viewBox="0 0 24 24" fill="none" xmlns="http://www.w3.org/2000/svg">
<path d="M21 17.5595H20V15.5595C20 15.2943 19.8946 15.04 19.7071 14.8524C19.5196 14.6649 19.2652 14.5595 19 14.5595H13V13.4595C14.214 13.2117 15.2928 12.5219 16.0272 11.5239C16.7616 10.5259 17.0992 9.2908 16.9747 8.058C16.8501 6.8252 16.2723 5.68255 15.3532 4.85159C14.434 4.02063 13.2391 3.56055 12 3.56055C10.7609 3.56055 9.56598 4.02063 8.64685 4.85159C7.72771 5.68255 7.14986 6.8252 7.02532 8.058C6.90078 9.2908 7.23843 10.5259 7.9728 11.5239C8.70718 12.5219 9.78596 13.2117 11 13.4595V14.5595H5C4.73478 14.5595 4.48043 14.6649 4.29289 14.8524C4.10536 15.04 4 15.2943 4 15.5595V17.5595H3C2.73478 17.5595 2.48043 17.6649 2.29289 17.8524C2.10536 18.04 2 18.2943 2 18.5595V22.5595C2 22.8247 2.10536 23.0791 2.29289 23.2666C2.48043 23.4542 2.73478 23.5595 3 23.5595H7C7.26522 23.5595 7.51957 23.4542 7.70711 23.2666C7.89464 23.0791 8 22.8247 8 22.5595V18.5595C8 18.2943 7.89464 18.04 7.70711 17.8524C7.51957 17.6649 7.26522 17.5595 7 17.5595H6V16.5595H18V17.5595H17C16.7348 17.5595 16.4804 17.6649 16.2929 17.8524C16.1054 18.04 16 18.2943 16 18.5595V22.5595C16 22.8247 16.1054 23.0791 16.2929 23.2666C16.4804 23.4542 16.7348 23.5595 17 23.5595H21C21.2652 23.5595 21.5196 23.4542 21.7071 23.2666C21.8946 23.0791 22 22.8247 22 22.5595V18.5595C22 18.2943 21.8946 18.04 21.7071 17.8524C21.5196 17.6649 21.2652 17.5595 21 17.5595ZM6 21.5595H4V19.5595H6V21.5595ZM9 8.55953C9 7.96618 9.17595 7.38616 9.50559 6.89282C9.83524 6.39947 10.3038 6.01495 10.8519 5.78789C11.4001 5.56083 12.0033 5.50142 12.5853 5.61717C13.1672 5.73293 13.7018 6.01865 14.1213 6.43821C14.5409 6.85776 14.8266 7.39231 14.9424 7.97426C15.0581 8.5562 14.9987 9.1594 14.7716 9.70758C14.5446 10.2558 14.1601 10.7243 13.6667 11.0539C13.1734 11.3836 12.5933 11.5595 12 11.5595C11.2044 11.5595 10.4413 11.2435 9.87868 10.6808C9.31607 10.1182 9 9.35518 9 8.55953ZM20 21.5595H18V19.5595H20V21.5595Z" fill="#687D95"/>
</svg>
