<svg width="24" height="24" viewBox="0 0 24 24" fill="none" xmlns="http://www.w3.org/2000/svg">
<path d="M21 15.999H20V13.999C20 13.7338 19.8946 13.4794 19.7071 13.2919C19.5196 13.1043 19.2652 12.999 19 12.999H13V11.899C14.214 11.6512 15.2928 10.9614 16.0272 9.96339C16.7616 8.96539 17.0992 7.73026 16.9747 6.49746C16.8501 5.26465 16.2723 4.12201 15.3532 3.29104C14.434 2.46008 13.2391 2 12 2C10.7609 2 9.56598 2.46008 8.64685 3.29104C7.72771 4.12201 7.14986 5.26465 7.02532 6.49746C6.90078 7.73026 7.23843 8.96539 7.9728 9.96339C8.70718 10.9614 9.78596 11.6512 11 11.899V12.999H5C4.73478 12.999 4.48043 13.1043 4.29289 13.2919C4.10536 13.4794 4 13.7338 4 13.999V15.999H3C2.73478 15.999 2.48043 16.1043 2.29289 16.2919C2.10536 16.4794 2 16.7338 2 16.999V20.999C2 21.2642 2.10536 21.5186 2.29289 21.7061C2.48043 21.8936 2.73478 21.999 3 21.999H7C7.26522 21.999 7.51957 21.8936 7.70711 21.7061C7.89464 21.5186 8 21.2642 8 20.999V16.999C8 16.7338 7.89464 16.4794 7.70711 16.2919C7.51957 16.1043 7.26522 15.999 7 15.999H6V14.999H18V15.999H17C16.7348 15.999 16.4804 16.1043 16.2929 16.2919C16.1054 16.4794 16 16.7338 16 16.999V20.999C16 21.2642 16.1054 21.5186 16.2929 21.7061C16.4804 21.8936 16.7348 21.999 17 21.999H21C21.2652 21.999 21.5196 21.8936 21.7071 21.7061C21.8946 21.5186 22 21.2642 22 20.999V16.999C22 16.7338 21.8946 16.4794 21.7071 16.2919C21.5196 16.1043 21.2652 15.999 21 15.999ZM6 19.999H4V17.999H6V19.999ZM9 6.99898C9 6.40564 9.17595 5.82562 9.50559 5.33227C9.83524 4.83892 10.3038 4.4544 10.8519 4.22734C11.4001 4.00028 12.0033 3.94087 12.5853 4.05662C13.1672 4.17238 13.7018 4.4581 14.1213 4.87766C14.5409 5.29722 14.8266 5.83177 14.9424 6.41371C15.0581 6.99565 14.9987 7.59885 14.7716 8.14703C14.5446 8.69521 14.1601 9.16374 13.6667 9.49339C13.1734 9.82303 12.5933 9.99898 12 9.99898C11.2044 9.99898 10.4413 9.68291 9.87868 9.1203C9.31607 8.55769 9 7.79463 9 6.99898ZM20 19.999H18V17.999H20V19.999Z" fill="#61A3FF"/>
</svg>
