<svg width="24" height="25" viewBox="0 0 24 25" fill="none" xmlns="http://www.w3.org/2000/svg">
<path d="M14.0012 16.0238H11.0012V15.0238C10.9955 14.7991 11.0656 14.5789 11.2004 14.3989C11.3351 14.2189 11.5266 14.0896 11.7439 14.0318C11.9612 13.974 12.1916 13.9911 12.398 14.0804C12.6043 14.1697 12.7746 14.3259 12.8812 14.5238C13.0182 14.7502 13.2392 14.9131 13.496 14.9768C13.7528 15.0405 14.0243 14.9999 14.2512 14.8638C14.4695 14.7272 14.6267 14.5117 14.6901 14.262C14.7534 14.0124 14.718 13.748 14.5912 13.5238C14.4624 13.3092 14.308 13.1111 14.1312 12.9338C13.8542 12.6485 13.5233 12.4212 13.1576 12.265C12.7919 12.1087 12.3989 12.0268 12.0012 12.0238C11.2056 12.0238 10.4425 12.3399 9.87991 12.9025C9.3173 13.4651 9.00123 14.2282 9.00123 15.0238V16.2038C8.33986 16.4438 7.78387 16.9086 7.43046 17.517C7.07705 18.1253 6.94869 18.8385 7.06783 19.5319C7.18697 20.2253 7.54603 20.8548 8.08224 21.3103C8.61845 21.7658 9.29769 22.0184 10.0012 22.0238H14.0012C14.7969 22.0238 15.5599 21.7078 16.1226 21.1451C16.6852 20.5825 17.0012 19.8195 17.0012 19.0238C17.0012 18.2282 16.6852 17.4651 16.1226 16.9025C15.5599 16.3399 14.7969 16.0238 14.0012 16.0238ZM14.0012 20.0238H10.0012C9.73602 20.0238 9.48166 19.9185 9.29413 19.7309C9.10659 19.5434 9.00123 19.289 9.00123 19.0238C9.00123 18.7586 9.10659 18.5042 9.29413 18.3167C9.48166 18.1292 9.73602 18.0238 10.0012 18.0238H14.0012C14.2664 18.0238 14.5208 18.1292 14.7083 18.3167C14.8959 18.5042 15.0012 18.7586 15.0012 19.0238C15.0012 19.289 14.8959 19.5434 14.7083 19.7309C14.5208 19.9185 14.2664 20.0238 14.0012 20.0238ZM18.4212 7.24382C17.8102 5.83982 16.7557 4.6749 15.4193 3.92755C14.0829 3.1802 12.5383 2.89165 11.0222 3.10613C9.50611 3.32061 8.10216 4.02627 7.02549 5.115C5.94882 6.20372 5.25882 7.61543 5.06123 9.13382C4.22345 9.33787 3.47403 9.80719 2.92468 10.4718C2.37533 11.1364 2.05545 11.9608 2.01273 12.822C1.97 13.6832 2.20672 14.5352 2.6876 15.2509C3.16847 15.9667 3.86776 16.5079 4.68123 16.7938C4.78494 16.8258 4.89272 16.8426 5.00123 16.8438C5.26645 16.8863 5.53766 16.8216 5.7552 16.6641C5.97274 16.5065 6.1188 16.269 6.16123 16.0038C6.20367 15.7386 6.13901 15.4674 5.98148 15.2499C5.82394 15.0323 5.58645 14.8863 5.32123 14.8438C4.94414 14.7077 4.61666 14.4614 4.38129 14.1369C4.14591 13.8123 4.0135 13.4245 4.00123 13.0238C4.00123 12.4934 4.21195 11.9847 4.58702 11.6096C4.96209 11.2345 5.4708 11.0238 6.00123 11.0238C6.26645 11.0238 6.5208 10.9185 6.70834 10.7309C6.89587 10.5434 7.00123 10.289 7.00123 10.0238C7.00379 8.8411 7.42552 7.69757 8.1915 6.7964C8.95748 5.89523 10.0181 5.29477 11.185 5.10169C12.3518 4.90862 13.5494 5.13543 14.5648 5.74183C15.5802 6.34823 16.3478 7.29496 16.7312 8.41382C16.7884 8.58566 16.8911 8.73875 17.0285 8.85675C17.1659 8.97476 17.3327 9.05324 17.5112 9.08382C18.1126 9.19266 18.6663 9.48255 19.0984 9.9147C19.5305 10.3469 19.8203 10.9007 19.929 11.502C20.0378 12.1034 19.9603 12.7236 19.7069 13.2797C19.4535 13.8358 19.0364 14.3013 18.5112 14.6138C18.2805 14.7464 18.1119 14.9653 18.0425 15.2222C17.9731 15.4791 18.0086 15.7531 18.1412 15.9838C18.2738 16.2146 18.4927 16.3832 18.7496 16.4526C19.0065 16.5219 19.2805 16.4864 19.5112 16.3538C20.2694 15.9137 20.8986 15.282 21.3357 14.522C21.7727 13.762 22.0022 12.9005 22.0012 12.0238C21.9982 10.948 21.6482 9.90176 21.0033 9.04063C20.3583 8.1795 19.4528 7.54936 18.4212 7.24382Z" fill="#687D95"/>
</svg>
