<svg width="16" height="18" viewBox="0 0 16 18" fill="none" xmlns="http://www.w3.org/2000/svg">
<path opacity="0.3" d="M3.59104 4.01824C3.347 3.87746 3.34408 3.51734 3.58582 3.37243L7.29002 1.15188C7.62869 0.948856 8.04753 0.949409 8.38568 1.15333L12.0665 3.37292C12.3072 3.51804 12.3043 3.87682 12.0613 4.01781L8.37005 6.15933C8.03987 6.35094 7.6364 6.35147 7.30575 6.16072L3.59104 4.01824Z" stroke="#737373" stroke-width="0.75"/>
<path opacity="0.4" d="M2.91706 14.3338C2.62421 14.1695 2.62071 13.7494 2.9108 13.5803L7.35583 10.9897C7.76223 10.7528 8.26485 10.7535 8.67063 10.9914L13.0876 13.5809C13.3764 13.7502 13.3729 14.1688 13.0814 14.3333L8.65187 16.8317C8.25566 17.0553 7.77149 17.0559 7.37471 16.8333L2.91706 14.3338Z" stroke="#737373" stroke-width="0.75"/>
<path d="M14.2888 7.31648V10.3536C14.2979 10.5372 14.2105 10.7248 14.0276 10.8281L8.77477 13.7919C8.3049 14.057 7.73073 14.0578 7.2602 13.7938L1.97391 10.8286C1.78671 10.7237 1.69921 10.5304 1.7122 10.3432V7.32689C1.69942 7.14259 1.78393 6.95228 1.96647 6.84586L7.23781 3.7727C7.71976 3.49172 8.3158 3.49249 8.79701 3.7747L14.0351 6.84655C14.2133 6.95112 14.2978 7.13586 14.2888 7.31648Z" stroke="#737373" stroke-width="1.25"/>
<path d="M1.97391 7.73964C1.62662 7.54481 1.62247 7.04642 1.96648 6.84586L7.23779 3.7727C7.71974 3.49172 8.31579 3.49248 8.797 3.77471L14.0351 6.84654C14.3775 7.04739 14.3734 7.54393 14.0276 7.73905L8.77475 10.7028C8.30488 10.968 7.73072 10.9688 7.26019 10.7048L1.97391 7.73964Z" stroke="#737373" stroke-width="1.25"/>
</svg>
