<svg width="16" height="18" viewBox="0 0 16 18" fill="none" xmlns="http://www.w3.org/2000/svg">
<path d="M14.1612 7.37465V10.3546C14.1701 10.5347 14.0844 10.7187 13.9049 10.8201L8.75103 13.7281C8.29002 13.9882 7.72667 13.9889 7.26501 13.7299L2.07833 10.8206C1.89466 10.7176 1.80881 10.528 1.82155 10.3444V7.38486C1.80901 7.20404 1.89192 7.01731 2.07103 6.9129L7.24304 3.89764C7.7159 3.62196 8.30072 3.62271 8.77286 3.89961L13.9122 6.91357C14.0871 7.01617 14.1699 7.19743 14.1612 7.37465Z" stroke="#737373" stroke-width="1.25"/>
<path d="M2.07833 7.78983C1.73758 7.59868 1.73351 7.10967 2.07104 6.91289L7.24302 3.89764C7.71589 3.62196 8.3007 3.62271 8.77284 3.89961L13.9122 6.91357C14.2482 7.11063 14.2441 7.59781 13.9049 7.78925L8.75102 10.6972C8.29 10.9574 7.72665 10.9581 7.26499 10.6991L2.07833 7.78983Z" stroke="#737373" stroke-width="1.25"/>
<path opacity="0.4" d="M1.0625 4.85856L7.23724 1.20623C7.7101 0.930552 8.29491 0.931304 8.76706 1.20821L14.9452 4.85856" stroke="#737373" stroke-linecap="round"/>
<path opacity="0.4" d="M1.0625 13.1414L7.23724 16.7938C7.7101 17.0694 8.29491 17.0687 8.76706 16.7918L14.9452 13.1414" stroke="#737373" stroke-linecap="round"/>
</svg>
