<svg width="14" height="14" viewBox="0 0 14 14" fill="none" xmlns="http://www.w3.org/2000/svg">
<g clip-path="url(#clip0_31892_72322)">
<path d="M3.85 2.80781C3.57152 2.80781 3.30445 2.91844 3.10754 3.11535C2.91062 3.31226 2.8 3.57934 2.8 3.85781V10.1578C2.8 10.4363 2.91062 10.7034 3.10754 10.9003C3.30445 11.0972 3.57152 11.2078 3.85 11.2078H10.15C10.4285 11.2078 10.6955 11.0972 10.8925 10.9003C11.0894 10.7034 11.2 10.4363 11.2 10.1578V3.85781C11.2 3.57934 11.0894 3.31226 10.8925 3.11535C10.6955 2.91844 10.4285 2.80781 10.15 2.80781H3.85ZM3.85 1.75781H10.15C10.707 1.75781 11.2411 1.97906 11.6349 2.37289C12.0287 2.76671 12.25 3.30086 12.25 3.85781V10.1578C12.25 10.7148 12.0287 11.2489 11.6349 11.6427C11.2411 12.0366 10.707 12.2578 10.15 12.2578H3.85C3.29305 12.2578 2.7589 12.0366 2.36508 11.6427C1.97125 11.2489 1.75 10.7148 1.75 10.1578V3.85781C1.75 3.30086 1.97125 2.76671 2.36508 2.37289C2.7589 1.97906 3.29305 1.75781 3.85 1.75781Z" fill="#F87171"/>
<path d="M7 0.0078125C7.13261 0.0078125 7.25979 0.0604909 7.35355 0.154259C7.44732 0.248027 7.5 0.375204 7.5 0.507812V2.50781H6.5V0.507812C6.5 0.375204 6.55268 0.248027 6.64645 0.154259C6.74021 0.0604909 6.86739 0.0078125 7 0.0078125ZM9.5 0.0078125C9.63261 0.0078125 9.75979 0.0604909 9.85355 0.154259C9.94732 0.248027 10 0.375204 10 0.507812V2.50781H9V0.507812C9 0.375204 9.05268 0.248027 9.14645 0.154259C9.24021 0.0604909 9.36739 0.0078125 9.5 0.0078125ZM4.5 0.0078125C4.63261 0.0078125 4.75979 0.0604909 4.85355 0.154259C4.94732 0.248027 5 0.375204 5 0.507812V2.50781H4V0.507812C4 0.375204 4.05268 0.248027 4.14645 0.154259C4.24021 0.0604909 4.36739 0.0078125 4.5 0.0078125ZM7 14.0078C6.86739 14.0078 6.74021 13.9551 6.64645 13.8614C6.55268 13.7676 6.5 13.6404 6.5 13.5078V11.5078H7.5V13.5078C7.5 13.6404 7.44732 13.7676 7.35355 13.8614C7.25979 13.9551 7.13261 14.0078 7 14.0078ZM9.5 14.0078C9.36739 14.0078 9.24021 13.9551 9.14645 13.8614C9.05268 13.7676 9 13.6404 9 13.5078V11.5078H10V13.5078C10 13.6404 9.94732 13.7676 9.85355 13.8614C9.75979 13.9551 9.63261 14.0078 9.5 14.0078ZM4.5 14.0078C4.36739 14.0078 4.24021 13.9551 4.14645 13.8614C4.05268 13.7676 4 13.6404 4 13.5078V11.5078H5V13.5078C5 13.6404 4.94732 13.7676 4.85355 13.8614C4.75979 13.9551 4.63261 14.0078 4.5 14.0078ZM0 7.00781C0 6.8752 0.0526784 6.74803 0.146447 6.65426C0.240215 6.56049 0.367392 6.50781 0.5 6.50781H2.5V7.50781H0.5C0.367392 7.50781 0.240215 7.45513 0.146447 7.36137C0.0526784 7.2676 0 7.14042 0 7.00781ZM0 4.50781C0 4.3752 0.0526784 4.24803 0.146447 4.15426C0.240215 4.06049 0.367392 4.00781 0.5 4.00781H2.5V5.00781H0.5C0.367392 5.00781 0.240215 4.95513 0.146447 4.86137C0.0526784 4.7676 0 4.64042 0 4.50781ZM0 9.50781C0 9.3752 0.0526784 9.24803 0.146447 9.15426C0.240215 9.06049 0.367392 9.00781 0.5 9.00781H2.5V10.0078H0.5C0.367392 10.0078 0.240215 9.95513 0.146447 9.86137C0.0526784 9.7676 0 9.64042 0 9.50781ZM14 7.00781C14 7.14042 13.9473 7.2676 13.8536 7.36137C13.7598 7.45513 13.6326 7.50781 13.5 7.50781H11.5V6.50781H13.5C13.6326 6.50781 13.7598 6.56049 13.8536 6.65426C13.9473 6.74803 14 6.8752 14 7.00781ZM14 4.50781C14 4.64042 13.9473 4.7676 13.8536 4.86137C13.7598 4.95513 13.6326 5.00781 13.5 5.00781H11.5V4.00781H13.5C13.6326 4.00781 13.7598 4.06049 13.8536 4.15426C13.9473 4.24803 14 4.3752 14 4.50781ZM14 9.50781C14 9.64042 13.9473 9.7676 13.8536 9.86137C13.7598 9.95513 13.6326 10.0078 13.5 10.0078H11.5V9.00781H13.5C13.6326 9.00781 13.7598 9.06049 13.8536 9.15426C13.9473 9.24803 14 9.3752 14 9.50781Z" fill="#F87171"/>
</g>
<defs>
<clipPath id="clip0_31892_72322">
<rect width="14" height="14" fill="white"/>
</clipPath>
</defs>
</svg>