<svg width="16" height="16" viewBox="0 0 16 16" fill="none" xmlns="http://www.w3.org/2000/svg">
<path d="M3.15625 11.636V4.36328" stroke="#4ADE80" stroke-linecap="round"/>
<path d="M12.8438 8V11.6364" stroke="#4ADE80" stroke-linecap="round"/>
<path d="M8.00473 6.78598C10.6825 6.78598 12.8532 5.70062 12.8532 4.36174C12.8532 3.02287 10.6825 1.9375 8.00473 1.9375C5.32699 1.9375 3.15625 3.02287 3.15625 4.36174C3.15625 5.70062 5.32699 6.78598 8.00473 6.78598Z" stroke="#4ADE80"/>
<path d="M12.8532 8C12.8532 9.33885 10.6825 10.4242 8.00473 10.4242C5.32699 10.4242 3.15625 9.33885 3.15625 8" stroke="#4ADE80" stroke-linecap="round"/>
<path d="M12.8532 11.6367C12.8532 12.9756 10.6825 14.061 8.00473 14.061C5.32699 14.061 3.15625 12.9756 3.15625 11.6367" stroke="#4ADE80"/>
</svg>