<svg width="14" height="14" viewBox="0 0 14 14" fill="none" xmlns="http://www.w3.org/2000/svg">
<path fill-rule="evenodd" clip-rule="evenodd" d="M6.56091 0.00573865C6.51625 0.0109925 6.36389 0.0267542 6.22291 0.0407645C4.58282 0.204511 2.93048 1.05039 1.81315 2.29906C0.577612 3.67995 -0.050227 5.3936 0.00756567 7.21932C0.108265 10.3725 2.27549 13.0424 5.34989 13.8024C7.15285 14.2481 9.13531 13.9303 10.7062 12.9443C12.2736 11.9592 13.3708 10.4417 13.8095 8.65013C13.9601 8.0363 13.9952 7.72369 13.9952 6.99778C13.9952 6.27187 13.9601 5.95926 13.8095 5.34544C13.116 2.51272 10.7833 0.428676 7.88051 0.0486454C7.63183 0.0162464 6.72728 -0.0126499 6.56091 0.00573865ZM7.75179 1.36124C8.72726 1.48733 9.64056 1.86299 10.4584 2.47419C10.7465 2.6896 11.313 3.25614 11.5285 3.54423C12.0197 4.20184 12.3831 4.97504 12.5477 5.71496C12.7351 6.55996 12.7351 7.43561 12.5477 8.28061C12.1852 9.91018 11.0372 11.3568 9.51534 12.1011C8.96544 12.3699 8.39802 12.5459 7.77543 12.6405C7.40416 12.6974 6.60557 12.6974 6.23429 12.6405C4.52853 12.3813 3.08897 11.4504 2.18267 10.0196C1.99529 9.72455 1.7501 9.20967 1.62751 8.85328C1.41648 8.24295 1.32541 7.68166 1.32541 6.99778C1.32541 6.08798 1.50142 5.31216 1.89108 4.51094C2.1888 3.89974 2.49178 3.47768 2.98827 2.98119C3.48476 2.4847 3.90682 2.18172 4.51802 1.884C5.52765 1.39276 6.62571 1.21588 7.75179 1.36124ZM6.74742 3.74913C6.55128 3.81305 6.44007 3.92514 6.38578 4.11252C6.35426 4.21935 6.35075 4.46366 6.35601 5.96102C6.36301 7.68604 6.36301 7.68692 6.4138 7.78236C6.47772 7.90233 6.60031 8.01091 6.71677 8.05206C6.83236 8.09234 7.17737 8.09234 7.29295 8.05206C7.40941 8.01091 7.532 7.90233 7.59592 7.78236C7.64671 7.68692 7.64671 7.68604 7.65372 5.96102C7.66072 4.07662 7.66072 4.07487 7.52675 3.91638C7.41817 3.78678 7.30171 3.74388 7.03989 3.73687C6.91117 3.73337 6.77982 3.73862 6.74742 3.74913ZM6.81747 9.21317C6.65198 9.26746 6.48823 9.40844 6.40855 9.56518C6.34725 9.68777 6.33674 9.90931 6.38666 10.0582C6.46897 10.3077 6.73954 10.5004 7.00486 10.5004C7.27018 10.5004 7.54076 10.3077 7.62307 10.0582C7.67298 9.90931 7.66247 9.68777 7.60118 9.56518C7.54426 9.4531 7.40766 9.31474 7.29645 9.25695C7.19488 9.20441 6.9208 9.17902 6.81747 9.21317Z" fill="#F87171"/>
</svg>