<svg width="24" height="24" viewBox="0 0 24 24" fill="none" xmlns="http://www.w3.org/2000/svg">
<path d="M7.66854 11.4492C7.66854 11.4492 7.28158 18.0276 11.6349 22.8646C11.6349 22.8646 6.90542 23.9895 5.15329 18.4146C3.55707 13.3357 7.66854 11.4492 7.66854 11.4492Z" fill="#FACF39"/>
<path d="M13.0509 10.582C13.0509 10.582 12.7138 16.3128 16.5062 20.5265C16.5062 20.5265 12.3861 21.5065 10.8598 16.6499C9.46922 12.2254 13.0509 10.582 13.0509 10.582Z" fill="#FACF39"/>
<path d="M3.07329 15.5938C3.07329 15.5938 2.8114 20.046 5.75771 23.3196C5.75771 23.3196 2.95223 23.4927 1.75507 20.1793C0.863029 17.7104 3.07329 15.5938 3.07329 15.5938Z" fill="#FACF39"/>
<path d="M17.6095 8.86214C17.6095 8.86214 7.88712 -3.32719 1.21203 2.04192C-5.46306 7.41103 17.6095 8.86214 17.6095 8.86214Z" fill="#FACF39"/>
<path d="M20.9869 16.6106C22.6516 16.6106 24.0012 15.261 24.0012 13.5963C24.0012 11.9316 22.6516 10.582 20.9869 10.582C19.3222 10.582 17.9727 11.9316 17.9727 13.5963C17.9727 15.261 19.3222 16.6106 20.9869 16.6106Z" fill="#FACF39"/>
</svg>