<svg width="16" height="16" viewBox="0 0 16 16" fill="none" xmlns="http://www.w3.org/2000/svg">
<path d="M11.1042 6.18978C12.064 6.78966 12.5439 7.0896 12.7085 7.47366C12.8522 7.809 12.8522 8.18866 12.7085 8.52406C12.5439 8.90806 12.064 9.208 11.1042 9.80793L6.59603 12.6255C5.53073 13.2913 4.99808 13.6243 4.55852 13.5889C4.17537 13.5581 3.82415 13.3635 3.59496 13.0549C3.33203 12.7009 3.33203 12.0727 3.33203 10.8165V5.18124C3.33203 3.92499 3.33203 3.29687 3.59496 2.94285C3.82415 2.63426 4.17537 2.4396 4.55852 2.4088C4.99808 2.37346 5.53073 2.70637 6.59603 3.37218L11.1042 6.18978Z" stroke="#60A5FA" stroke-width="1.5" stroke-linejoin="round"/>
</svg>