<svg width="16" height="16" viewBox="0 0 16 16" fill="none" xmlns="http://www.w3.org/2000/svg">
<path d="M4.03247 5.32314C4.07954 5.19922 4.17388 5.09906 4.29477 5.04468C4.41566 4.9903 4.55319 4.98615 4.67714 5.03314L7.9998 6.29314L11.3225 5.03314C11.3842 5.00794 11.4504 4.99536 11.5171 4.99613C11.5838 4.99689 11.6497 5.011 11.7108 5.03761C11.772 5.06422 11.8272 5.1028 11.8732 5.15107C11.9193 5.19935 11.9552 5.25634 11.9788 5.31871C12.0025 5.38107 12.0134 5.44753 12.011 5.51419C12.0086 5.58085 11.9929 5.64635 11.9648 5.70683C11.9367 5.76732 11.8967 5.82157 11.8473 5.86639C11.7979 5.91121 11.7401 5.94569 11.6771 5.96781L8.4998 7.17381V10.8345C8.4998 10.9671 8.44712 11.0943 8.35336 11.188C8.25959 11.2818 8.13241 11.3345 7.9998 11.3345C7.8672 11.3345 7.74002 11.2818 7.64625 11.188C7.55248 11.0943 7.4998 10.9671 7.4998 10.8345V7.17447L4.32247 5.96714C4.19855 5.92008 4.09839 5.82573 4.04401 5.70484C3.98963 5.58396 3.98548 5.44642 4.03247 5.32247V5.32314Z" fill="#F87171"/>
<path d="M7.05936 1.67537C7.66177 1.43113 8.33562 1.43113 8.93803 1.67537L13.9367 3.70203C14.152 3.78925 14.3364 3.93875 14.4662 4.1314C14.596 4.32405 14.6654 4.55106 14.6654 4.78337V11.218C14.6654 11.4503 14.596 11.6774 14.4662 11.87C14.3364 12.0626 14.152 12.2122 13.9367 12.2994L8.93803 14.326C8.33562 14.5703 7.66177 14.5703 7.05936 14.326L2.0607 12.2994C1.84539 12.2122 1.66101 12.0626 1.5312 11.87C1.40138 11.6774 1.33203 11.4503 1.33203 11.218V4.78403C1.33203 4.55173 1.40138 4.32471 1.5312 4.13207C1.66101 3.93942 1.84539 3.78991 2.0607 3.7027L7.05936 1.67537ZM8.56203 2.60203C8.20074 2.45563 7.79665 2.45563 7.43536 2.60203L2.43603 4.6287C2.40526 4.64119 2.37892 4.66258 2.36039 4.69014C2.34186 4.7177 2.33199 4.75016 2.33203 4.78337V11.218C2.33199 11.2512 2.34186 11.2837 2.36039 11.3113C2.37892 11.3388 2.40526 11.3602 2.43603 11.3727L7.43536 13.3994C7.79665 13.5458 8.20074 13.5458 8.56203 13.3994L13.5614 11.3727C13.5921 11.3602 13.6185 11.3388 13.637 11.3113C13.6555 11.2837 13.6654 11.2512 13.6654 11.218V4.78403C13.6654 4.75083 13.6555 4.71836 13.637 4.6908C13.6185 4.66325 13.5921 4.64185 13.5614 4.62937L8.56203 2.6027V2.60203Z" fill="#F87171"/>
</svg>