<svg width="24" height="24" viewBox="0 0 24 24" fill="none" xmlns="http://www.w3.org/2000/svg">
<path d="M8 18.72C6.339 20.134 4.82 21 2 21C3 20 4.27 18.65 4.801 16.553C3.067 15.114 2 13.157 2 11C2 6.582 6.477 3 12 3C17.1 3 21.308 6.054 21.923 10" stroke="#374151" stroke-width="1.5" stroke-linecap="round" stroke-linejoin="round"/>
<path d="M16 19.889C12.686 19.889 10 17.899 10 15.444C10 12.99 12.686 11 16 11C19.314 11 22 12.99 22 15.444C22 16.643 21.36 17.73 20.32 18.529C20.637 19.694 21.4 20.444 22 21C20.2 21 19.284 20.456 18.208 19.578C17.524 19.778 16.78 19.889 16 19.889Z" stroke="#374151" stroke-width="1.5" stroke-linecap="round" stroke-linejoin="round"/>
</svg>