<svg width="24" height="24" viewBox="0 0 24 24" fill="none" xmlns="http://www.w3.org/2000/svg">
<path d="M17.62 11.3097L14.5 9.16965C14.3605 9.08602 14.2027 9.03768 14.0403 9.02883C13.8778 9.01997 13.7157 9.05088 13.5679 9.11885C13.4202 9.18683 13.2912 9.28983 13.1922 9.41892C13.0933 9.54801 13.0273 9.69929 13 9.85965V10.9996H7C6.73478 10.9996 6.48043 11.105 6.29289 11.2925C6.10536 11.4801 6 11.7344 6 11.9996C6 12.2649 6.10536 12.5192 6.29289 12.7068C6.48043 12.8943 6.73478 12.9996 7 12.9996H13V14.1396C13.0273 14.3 13.0933 14.4513 13.1922 14.5804C13.2912 14.7095 13.4202 14.8125 13.5679 14.8804C13.7157 14.9484 13.8778 14.9793 14.0403 14.9705C14.2027 14.9616 14.3605 14.9133 14.5 14.8296L17.62 12.6896C17.7356 12.6154 17.8307 12.5133 17.8966 12.3928C17.9624 12.2722 17.9969 12.137 17.9969 11.9996C17.9969 11.8623 17.9624 11.7271 17.8966 11.6065C17.8307 11.486 17.7356 11.3839 17.62 11.3097Z" fill="#FACF39"/>
</svg>