<svg width="12" height="15" viewBox="0 0 12 15" fill="none" xmlns="http://www.w3.org/2000/svg">
<path d="M6 1.4C7.7667 1.9 9.7 2.5 10.6667 2.83333V8.0667C10.6667 9.2 9.4333 11.2 6 13.2C2.56667 11.1667 1.33333 9.2 1.33333 8.0667V2.83333C2.3 2.46667 4.23333 1.9 6 1.4ZM6 0C6 0 0 1.7 0 2V8.0667C0 11.1333 4.43333 13.8333 5.66667 14.5667C5.76533 14.6326 5.88133 14.6678 6 14.6678C6.1187 14.6678 6.2347 14.6326 6.3333 14.5667C7.6 13.8667 12 11.1333 12 8.0667V2C12 1.7 6 0 6 0Z" fill="#60A5FA"/>
<path d="M8.2691 5.38464V7.6989C8.2691 8.6246 7.8063 9.0874 6.8806 9.0874H5.02917C4.10347 9.0874 3.64062 8.6246 3.64062 7.6989V5.38464C3.64062 4.45894 4.10347 3.99609 5.02917 3.99609H6.8806C7.8063 3.99609 8.2691 4.45894 8.2691 5.38464Z" stroke="#60A5FA" stroke-width="0.75" stroke-linecap="round" stroke-linejoin="round"/>
<path d="M9.1986 6.54297H2.71875" stroke="#60A5FA" stroke-width="0.75" stroke-linecap="round" stroke-linejoin="round"/>
</svg>