<svg width="14" height="14" viewBox="0 0 14 14" fill="none" xmlns="http://www.w3.org/2000/svg">
<path d="M6.00343 2.25203L1.06259 10.5004C0.960726 10.6768 0.906825 10.8768 0.906255 11.0805C0.905684 11.2842 0.958464 11.4845 1.05934 11.6615C1.16022 11.8385 1.30568 11.986 1.48126 12.0893C1.65683 12.1926 1.85639 12.2481 2.06009 12.2504H11.9418C12.1455 12.2481 12.345 12.1926 12.5206 12.0893C12.6962 11.986 12.8416 11.8385 12.9425 11.6615C13.0434 11.4845 13.0962 11.2842 13.0956 11.0805C13.095 10.8768 13.0411 10.6768 12.9393 10.5004L7.99843 2.25203C7.89444 2.08059 7.74802 1.93885 7.57329 1.84048C7.39857 1.74211 7.20144 1.69043 7.00093 1.69043C6.80042 1.69043 6.60329 1.74211 6.42856 1.84048C6.25384 1.93885 6.10742 2.08059 6.00343 2.25203Z" stroke="#737373" stroke-linecap="round" stroke-linejoin="round"/>
<path d="M7 5.25V7.58333" stroke="#737373" stroke-width="1.25" stroke-linecap="round" stroke-linejoin="round"/>
<path d="M7 9.91699H7.00583" stroke="#737373" stroke-width="1.25" stroke-linecap="round" stroke-linejoin="round"/>
</svg>
