<svg width="14" height="14" viewBox="0 0 14 14" fill="none" xmlns="http://www.w3.org/2000/svg">
<g clip-path="url(#clip0_17276_22832)">
<path d="M5.5 2.5V1M5.5 13V11.5M8.5 2.5V1M8.5 13V11.5M11.6667 5.5H13M1 5.5H2.33334M11.6667 8.5H13M1 8.5H2.33334M5.5 5.5H8.5V8.5H5.5V5.5ZM3.99998 11.5H10C10.8284 11.5 11.5 10.8284 11.5 10V4C11.5 3.17157 10.8284 2.5 10 2.5H3.99998C3.17156 2.5 2.49998 3.17157 2.49998 4V10C2.49998 10.8284 3.17156 11.5 3.99998 11.5Z" stroke="#737373" stroke-linecap="round" stroke-linejoin="round"/>
</g>
<defs>
<clipPath id="clip0_17276_22832">
<rect width="14" height="14" fill="white"/>
</clipPath>
</defs>
</svg>
