<svg width="14" height="14" viewBox="0 0 14 14" fill="none" xmlns="http://www.w3.org/2000/svg">
<path d="M11.2964 6.05893C11.2263 5.90749 11.114 5.7795 10.9729 5.69034C10.8319 5.60118 10.6681 5.55465 10.5012 5.55633H8.59859L9.52119 1.80993C9.57023 1.61873 9.55328 1.41657 9.47309 1.2362C9.39291 1.05583 9.25418 0.907812 9.07938 0.816118C8.90457 0.724424 8.70394 0.694426 8.50996 0.730981C8.31598 0.767537 8.14003 0.868505 8.01059 1.01753L2.83059 6.99973L2.82219 7.00813C2.71599 7.13652 2.64859 7.29252 2.62789 7.45785C2.60718 7.62317 2.63404 7.79097 2.7053 7.94158C2.77656 8.09219 2.88928 8.21937 3.03025 8.3082C3.17121 8.39703 3.33457 8.44384 3.50119 8.44313H5.40379L4.48119 12.1895C4.42851 12.3827 4.44402 12.5882 4.52511 12.7713C4.6062 12.9544 4.74792 13.1039 4.92639 13.1947C5.05181 13.2599 5.19105 13.294 5.33239 13.2941C5.45923 13.2945 5.58457 13.2668 5.69935 13.2128C5.81412 13.1588 5.91545 13.0799 5.99599 12.9819L11.1844 6.98993C11.2901 6.86169 11.3568 6.70583 11.3767 6.54083C11.3965 6.37582 11.3687 6.20859 11.2964 6.05893ZM5.52839 12.0201L6.38239 8.56633C6.41704 8.43702 6.4216 8.30148 6.39573 8.17013C6.36986 8.03878 6.31423 7.9151 6.23313 7.80859C6.15203 7.70207 6.0476 7.61555 5.92787 7.55567C5.80813 7.49579 5.67626 7.46413 5.54239 7.46313H3.72659L8.47399 1.97933L7.61999 5.43313C7.58534 5.56245 7.58078 5.69798 7.60665 5.82933C7.63253 5.96069 7.68815 6.08437 7.76925 6.19088C7.85035 6.29739 7.95478 6.38391 8.07452 6.4438C8.19425 6.50368 8.32612 6.53533 8.45999 6.53633H10.2758L5.52839 12.0201Z" fill="#737373"/>
</svg>
