<svg width="14" height="14" viewBox="0 0 14 14" fill="none" xmlns="http://www.w3.org/2000/svg">
<path d="M2.33203 2.33366V11.667C2.33203 12.3104 2.85528 12.8337 3.4987 12.8337H10.4987C11.1421 12.8337 11.6654 12.3104 11.6654 11.667V4.66699C11.6654 4.59038 11.6504 4.51451 11.6211 4.44373C11.5917 4.37296 11.5487 4.30867 11.4944 4.25458L8.57778 1.33791C8.5237 1.28363 8.45942 1.24059 8.38864 1.21126C8.31786 1.18193 8.24198 1.16688 8.16536 1.16699H3.4987C2.85528 1.16699 2.33203 1.69024 2.33203 2.33366ZM10.4987 4.90849L10.4993 11.667H3.4987V2.33366H7.92386L10.4987 4.90849Z" fill="#737373"/>
<path d="M4.66797 3.5H5.83464V5.83333H4.66797V3.5ZM7.0013 3.5H8.16797V5.83333H7.0013V3.5Z" fill="#737373"/>
</svg>
