<svg width="14" height="14" viewBox="0 0 14 14" fill="none" xmlns="http://www.w3.org/2000/svg">
<path fill-rule="evenodd" clip-rule="evenodd" d="M12.2513 1.75C12.0047 5.10767 11.1297 7.53823 9.6263 9.04167C9.35967 9.3083 9.06773 9.55204 8.75047 9.7729L8.75046 11.0806L7.00046 12.8306L5.93256 10.9619L3.0417 8.0707L1.16797 7L2.91797 5.25L4.23265 5.25001C4.45151 4.93246 4.69384 4.64079 4.95964 4.375C6.46308 2.87156 8.89363 1.99656 12.2513 1.75ZM10.9388 3.06192L10.6892 3.09977C8.45041 3.45208 6.82167 4.16288 5.78459 5.19996C5.16028 5.82427 4.68539 6.63721 4.3638 7.653L4.34247 7.72158L6.29722 9.67633L6.39392 9.64593C7.3075 9.33922 8.05791 8.9088 8.65521 8.35715L8.80134 8.21671C9.83842 7.17963 10.5492 5.55089 10.9015 3.31214L10.9388 3.06192ZM3.24582 9.11553L2.00839 10.353L1.18343 9.52801L2.42087 8.29057L3.24582 9.11553ZM4.48326 10.353L2.42087 12.4154L1.59591 11.5904L3.6583 9.52801L4.48326 10.353ZM4.89574 10.7654L5.7207 11.5904L4.48326 12.8278L3.6583 12.0029L4.89574 10.7654ZM7.8763 5.25C8.35955 5.25 8.7513 5.64175 8.7513 6.125C8.7513 6.60825 8.35955 7 7.8763 7C7.39305 7 7.0013 6.60825 7.0013 6.125C7.0013 5.64175 7.39305 5.25 7.8763 5.25Z" fill="#737373"/>
</svg>
