<svg width="14" height="14" viewBox="0 0 14 14" fill="none" xmlns="http://www.w3.org/2000/svg">
<g clip-path="url(#clip0_17276_22848)">
<path d="M7.0013 12.8337C10.223 12.8337 12.8346 10.222 12.8346 7.00033C12.8346 3.77866 10.223 1.16699 7.0013 1.16699C3.77964 1.16699 1.16797 3.77866 1.16797 7.00033C1.16797 10.222 3.77964 12.8337 7.0013 12.8337Z" stroke="#737373" stroke-linecap="round" stroke-linejoin="round"/>
<path d="M7 3.5V7L9.33333 8.16667" stroke="#737373" stroke-linecap="round" stroke-linejoin="round"/>
</g>
<rect x="2.33203" y="9.33301" width="9.33333" height="4.66667" rx="1" fill="#737373"/>
<path d="M5.31982 12.1123C5.31982 12.0713 5.31348 12.0347 5.30078 12.0024C5.28906 11.9692 5.26709 11.9395 5.23486 11.9131C5.20361 11.8857 5.15918 11.8594 5.10156 11.834C5.04492 11.8076 4.97168 11.7803 4.88184 11.752C4.78223 11.7207 4.68945 11.6855 4.60352 11.6465C4.51758 11.6074 4.44189 11.562 4.37646 11.5103C4.31201 11.4585 4.26172 11.3989 4.22559 11.3315C4.18945 11.2632 4.17139 11.1841 4.17139 11.0942C4.17139 11.0063 4.18994 10.9263 4.22705 10.854C4.26514 10.7817 4.31885 10.7197 4.38818 10.668C4.45752 10.6152 4.53906 10.5747 4.63281 10.5464C4.72754 10.5181 4.83203 10.5039 4.94629 10.5039C5.10449 10.5039 5.24121 10.5327 5.35645 10.5903C5.47266 10.6479 5.5625 10.7261 5.62598 10.8247C5.68945 10.9233 5.72119 11.0342 5.72119 11.1572H5.31982C5.31982 11.0908 5.30566 11.0322 5.27734 10.9814C5.25 10.9307 5.20801 10.8906 5.15137 10.8613C5.0957 10.832 5.02539 10.8174 4.94043 10.8174C4.8584 10.8174 4.79004 10.8296 4.73535 10.854C4.68164 10.8784 4.64111 10.9116 4.61377 10.9536C4.5874 10.9956 4.57422 11.0425 4.57422 11.0942C4.57422 11.1333 4.5835 11.1685 4.60205 11.1997C4.62061 11.23 4.64844 11.2588 4.68555 11.2861C4.72266 11.3125 4.76855 11.3374 4.82324 11.3608C4.87891 11.3833 4.94336 11.4058 5.0166 11.4282C5.13379 11.4634 5.23633 11.5024 5.32422 11.5454C5.41309 11.5884 5.48682 11.6372 5.54541 11.6919C5.60498 11.7466 5.64941 11.8081 5.67871 11.8765C5.70898 11.9448 5.72412 12.0225 5.72412 12.1094C5.72412 12.2012 5.70605 12.2832 5.66992 12.3555C5.63379 12.4277 5.58203 12.4893 5.51465 12.54C5.44727 12.5908 5.36621 12.6294 5.27148 12.6558C5.17773 12.6821 5.07275 12.6953 4.95654 12.6953C4.85303 12.6953 4.75049 12.6816 4.64893 12.6543C4.54834 12.626 4.45703 12.584 4.375 12.5283C4.29297 12.4717 4.22754 12.4004 4.17871 12.3145C4.12988 12.2275 4.10547 12.126 4.10547 12.0098H4.50977C4.50977 12.0771 4.52051 12.1348 4.54199 12.1826C4.56445 12.2295 4.5957 12.2681 4.63574 12.2983C4.67676 12.3276 4.72461 12.3491 4.7793 12.3628C4.83398 12.3765 4.89307 12.3833 4.95654 12.3833C5.03857 12.3833 5.10596 12.3721 5.15869 12.3496C5.2124 12.3262 5.25244 12.2939 5.27881 12.2529C5.30615 12.2119 5.31982 12.165 5.31982 12.1123ZM7.50818 12.3496V12.666H6.43592V12.3496H7.50818ZM6.5575 10.5332V12.666H6.15467V10.5332H6.5575ZM8.77516 10.8569L8.16725 12.666H7.74098L8.53785 10.5332H8.81031L8.77516 10.8569ZM9.28346 12.666L8.67262 10.8569L8.636 10.5332H8.90992L9.71119 12.666H9.28346ZM9.25563 11.8735V12.1914H8.11158V11.8735H9.25563Z" fill="white"/>
<defs>
<clipPath id="clip0_17276_22848">
<rect width="14" height="14" fill="white"/>
</clipPath>
</defs>
</svg>
