<svg width="24" height="21" viewBox="0 0 24 21" fill="none" xmlns="http://www.w3.org/2000/svg">
<path fill-rule="evenodd" clip-rule="evenodd" d="M11.5827 17.3127H4.45768C4.41352 17.3127 4.37102 17.2943 4.34018 17.2635C4.30852 17.2318 4.29102 17.1902 4.29102 17.146V15.9368C4.29102 15.2452 4.78518 14.6352 5.54685 14.1168C6.90685 13.1885 9.10768 12.6035 11.5827 12.6035C11.9277 12.6035 12.2077 12.3235 12.2077 11.9785C12.2077 11.6343 11.9277 11.3535 11.5827 11.3535C8.81435 11.3535 6.36352 12.046 4.84185 13.0835C3.68102 13.8752 3.04102 14.881 3.04102 15.9368V17.146C3.04102 17.521 3.19018 17.8818 3.45602 18.1477C3.72185 18.4127 4.08185 18.5627 4.45768 18.5627H11.5827C11.9277 18.5618 12.2077 18.2818 12.2077 17.9368C12.2077 17.5927 11.9277 17.3118 11.5827 17.3127Z" fill="white"/>
<path fill-rule="evenodd" clip-rule="evenodd" d="M11.5833 1.46875C9.05333 1.46875 7 3.52208 7 6.05208C7 8.58208 9.05333 10.6354 11.5833 10.6354C14.1133 10.6354 16.1667 8.58208 16.1667 6.05208C16.1667 3.52208 14.1133 1.46875 11.5833 1.46875ZM11.5833 2.71875C13.4233 2.71875 14.9167 4.21208 14.9167 6.05208C14.9167 7.89208 13.4233 9.38542 11.5833 9.38542C9.74333 9.38542 8.25 7.89208 8.25 6.05208C8.25 4.21208 9.74333 2.71875 11.5833 2.71875Z" fill="white"/>
<path fill-rule="evenodd" clip-rule="evenodd" d="M16.5836 12.043C14.9452 12.043 13.6152 13.373 13.6152 15.0113C13.6152 16.6496 14.9452 17.9805 16.5836 17.9805C18.2219 17.9805 19.5527 16.6496 19.5527 15.0113C19.5527 13.373 18.2219 12.043 16.5836 12.043ZM16.5836 13.293C17.5319 13.293 18.3027 14.063 18.3027 15.0113C18.3027 15.9596 17.5319 16.7305 16.5836 16.7305C15.6352 16.7305 14.8644 15.9596 14.8644 15.0113C14.8644 14.063 15.6352 13.293 16.5836 13.293Z" fill="white"/>
<path fill-rule="evenodd" clip-rule="evenodd" d="M17.207 12.6656V11.2598C17.207 10.9148 16.927 10.6348 16.582 10.6348C16.237 10.6348 15.957 10.9148 15.957 11.2598V12.6664C15.957 13.0106 16.237 13.2914 16.582 13.2914C16.927 13.2906 17.207 13.0106 17.207 12.6656Z" fill="white"/>
<path fill-rule="evenodd" clip-rule="evenodd" d="M18.6819 13.7958L19.6761 12.8008C19.9202 12.5575 19.9202 12.1608 19.6761 11.9175C19.4327 11.6733 19.0361 11.6733 18.7927 11.9175L17.7977 12.9117C17.5544 13.1558 17.5544 13.5517 17.7977 13.7958C18.0419 14.0392 18.4377 14.0392 18.6819 13.7958Z" fill="white"/>
<path fill-rule="evenodd" clip-rule="evenodd" d="M18.9269 15.6348H20.3336C20.6786 15.6348 20.9586 15.3548 20.9586 15.0098C20.9586 14.6648 20.6786 14.3848 20.3336 14.3848H18.9269C18.5827 14.3848 18.3027 14.6648 18.3027 15.0098C18.3019 15.3548 18.5827 15.6348 18.9269 15.6348Z" fill="white"/>
<path fill-rule="evenodd" clip-rule="evenodd" d="M17.7977 17.1096L18.7927 18.1038C19.0361 18.348 19.4327 18.348 19.6761 18.1038C19.9202 17.8605 19.9202 17.4638 19.6761 17.2205L18.6819 16.2255C18.4377 15.9821 18.0419 15.9821 17.7977 16.2255C17.5544 16.4696 17.5544 16.8655 17.7977 17.1096Z" fill="white"/>
<path fill-rule="evenodd" clip-rule="evenodd" d="M15.957 17.3535V18.7602C15.957 19.1052 16.237 19.3852 16.582 19.3852C16.927 19.3852 17.207 19.1052 17.207 18.7602V17.3535C17.207 17.0093 16.927 16.7293 16.582 16.7285C16.237 16.7285 15.957 17.0093 15.957 17.3535Z" fill="white"/>
<path fill-rule="evenodd" clip-rule="evenodd" d="M14.4839 16.2255L13.4898 17.2205C13.2456 17.4638 13.2456 17.8605 13.4898 18.1038C13.7331 18.348 14.1298 18.348 14.3731 18.1038L15.3681 17.1096C15.6114 16.8655 15.6114 16.4696 15.3681 16.2255C15.1239 15.9821 14.7281 15.9821 14.4839 16.2255Z" fill="white"/>
<path fill-rule="evenodd" clip-rule="evenodd" d="M14.2379 14.3848H12.832C12.487 14.3848 12.207 14.6648 12.207 15.0098C12.207 15.3548 12.487 15.6348 12.832 15.6348H14.2379C14.5829 15.6348 14.8637 15.3548 14.8629 15.0098C14.8629 14.6648 14.5829 14.3848 14.2379 14.3848Z" fill="white"/>
<path fill-rule="evenodd" clip-rule="evenodd" d="M15.3681 12.9117L14.3731 11.9175C14.1298 11.6733 13.7331 11.6733 13.4898 11.9175C13.2456 12.1608 13.2456 12.5575 13.4898 12.8008L14.4839 13.7958C14.7281 14.0392 15.1239 14.0392 15.3681 13.7958C15.6114 13.5517 15.6114 13.1558 15.3681 12.9117Z" fill="white"/>
</svg>
