<svg width="24" height="23" viewBox="0 0 24 23" fill="none" xmlns="http://www.w3.org/2000/svg">
<g clip-path="url(#clip0_13849_11637)">
<path d="M12 1.28906C13.7726 1.28906 15.5068 1.7777 17.011 2.684L16.1407 2.83748C15.7901 2.89927 15.556 3.23357 15.6179 3.58415C15.6797 3.93469 16.014 4.16879 16.3645 4.10695L18.7683 3.68307C19.1188 3.62128 19.3529 3.28698 19.2911 2.9364L18.8673 0.532727C18.8054 0.182187 18.4711 -0.0519063 18.1206 0.00992578H18.1206C17.77 0.0717578 17.5359 0.406055 17.5978 0.756594L17.7509 1.62521C16.0299 0.569551 14.0373 0 12 0C9.0618 0 6.29946 1.14421 4.2218 3.2218C2.14417 5.29947 1 8.0618 1 11C1 11.356 1.28858 11.6445 1.64453 11.6445C2.00048 11.6445 2.28906 11.356 2.28906 11C2.28906 5.64536 6.64536 1.28906 12 1.28906Z" fill="white"/>
<path d="M22.3557 10.3555C21.9998 10.3555 21.7112 10.644 21.7112 11C21.7112 16.3546 17.3549 20.7109 12.0003 20.7109C10.2277 20.7109 8.49368 20.2223 6.98956 19.316L7.85955 19.1626C8.21009 19.1008 8.44418 18.7665 8.38235 18.4159C8.32052 18.0654 7.98626 17.8313 7.63568 17.8931L5.23192 18.317C4.88139 18.3788 4.64729 18.7131 4.70912 19.0636L5.13297 21.4673C5.1948 21.8178 5.5291 22.0519 5.87964 21.9901C6.23017 21.9282 6.46431 21.5939 6.40248 21.2434L6.24917 20.3739C7.97037 21.4298 9.96278 22 12.0003 22C14.9385 22 17.7008 20.8558 19.7785 18.7782C21.8561 16.7005 23.0003 13.9382 23.0003 11C23.0003 10.644 22.7117 10.3555 22.3557 10.3555Z" fill="white"/>
</g>
<path d="M12.1591 3.9994C11.6405 3.9994 11.1866 4.43713 11.1866 4.93739L11.1866 8.37666L6 11.5033L6 12.7539L11.1866 11.1906L11.1866 14.6299L9.88997 15.5679L9.88997 16.5059L12.1591 15.8805L14.4283 16.5059L14.4283 15.5679L13.1316 14.6299L13.1316 11.1906L18.3182 12.7539L18.3182 11.5033L13.1316 8.37666L13.1316 4.93739C13.1316 4.43713 12.6778 3.9994 12.1591 3.9994Z" fill="white"/>
<defs>
<clipPath id="clip0_13849_11637">
<rect width="22" height="22" fill="white" transform="translate(1)"/>
</clipPath>
</defs>
</svg>
