<svg width="22" height="22" viewBox="0 0 22 22" fill="none" xmlns="http://www.w3.org/2000/svg">
<g clip-path="url(#clip0_13856_11710)">
<path d="M11 2.17188C12.6115 2.17188 14.188 2.61609 15.5554 3.44L14.7643 3.57953C14.4456 3.6357 14.2328 3.93961 14.289 4.25832C14.3452 4.57699 14.6491 4.7898 14.9678 4.73359L17.153 4.34824C17.4717 4.29207 17.6845 3.98816 17.6283 3.66945L17.243 1.4843C17.1868 1.16562 16.8828 0.952812 16.5642 1.00902H16.5641C16.2455 1.06523 16.0327 1.36914 16.0889 1.68781L16.2281 2.47746C14.6635 1.51777 12.8521 1 11 1C8.32891 1 5.8177 2.0402 3.92891 3.92891C2.04016 5.8177 1 8.32891 1 11C1 11.3236 1.26234 11.5859 1.58594 11.5859C1.90953 11.5859 2.17187 11.3236 2.17187 11C2.17187 6.13215 6.13215 2.17188 11 2.17188Z" fill="#737373"/>
<path d="M20.4142 10.4141C20.0906 10.4141 19.8282 10.6764 19.8282 11C19.8282 15.8679 15.868 19.8281 11.0001 19.8281C9.38867 19.8281 7.8123 19.3839 6.44492 18.56L7.23582 18.4205C7.55449 18.3643 7.7673 18.0604 7.71109 17.7417C7.65488 17.423 7.35102 17.2102 7.0323 17.2664L4.84707 17.6518C4.5284 17.708 4.31559 18.0119 4.3718 18.3305L4.75711 20.5157C4.81332 20.8344 5.11723 21.0472 5.4359 20.991C5.75457 20.9348 5.96742 20.6309 5.91121 20.3122L5.77184 19.5218C7.33656 20.4817 9.14785 21 11.0001 21C13.6712 21 16.1824 19.9598 18.0712 18.0711C19.96 16.1823 21.0001 13.6711 21.0001 11C21.0001 10.6764 20.7378 10.4141 20.4142 10.4141Z" fill="#737373"/>
</g>
<path d="M11.1446 4.63635C10.6731 4.63635 10.2605 5.03429 10.2605 5.48907L10.2605 8.61568L5.54541 11.4581L5.54541 12.595L10.2605 11.1738L10.2605 14.3004L9.08175 15.1531L9.08175 16.0059L11.1446 15.4374L13.2075 16.0059L13.2075 15.1531L12.0287 14.3004L12.0287 11.1738L16.7438 12.595L16.7438 11.4581L12.0287 8.61568L12.0287 5.48907C12.0287 5.03429 11.6161 4.63635 11.1446 4.63635Z" fill="#737373"/>
<defs>
<clipPath id="clip0_13856_11710">
<rect width="20" height="20" fill="white" transform="translate(1 1)"/>
</clipPath>
</defs>
</svg>
