<svg width="40" height="40" viewBox="0 0 40 40" fill="none" xmlns="http://www.w3.org/2000/svg">
<rect width="40" height="40" rx="2" fill="#FED931"/>
<path d="M32.0013 27.4134H30.668V24.7467C30.668 24.3931 30.5275 24.0539 30.2774 23.8039C30.0274 23.5538 29.6883 23.4134 29.3346 23.4134H21.3346V21.9467C22.9534 21.6163 24.3917 20.6966 25.3709 19.3659C26.3501 18.0352 26.8003 16.3884 26.6342 14.7447C26.4682 13.1009 25.6977 11.5774 24.4722 10.4694C23.2467 9.36149 21.6534 8.74805 20.0013 8.74805C18.3492 8.74805 16.7559 9.36149 15.5304 10.4694C14.3049 11.5774 13.5344 13.1009 13.3684 14.7447C13.2023 16.3884 13.6525 18.0352 14.6317 19.3659C15.6109 20.6966 17.0492 21.6163 18.668 21.9467V23.4134H10.668C10.3143 23.4134 9.97521 23.5538 9.72516 23.8039C9.47511 24.0539 9.33464 24.3931 9.33464 24.7467V27.4134H8.0013C7.64768 27.4134 7.30854 27.5538 7.05849 27.8039C6.80844 28.0539 6.66797 28.3931 6.66797 28.7467V34.08C6.66797 34.4336 6.80844 34.7728 7.05849 35.0228C7.30854 35.2729 7.64768 35.4134 8.0013 35.4134H13.3346C13.6883 35.4134 14.0274 35.2729 14.2774 35.0228C14.5275 34.7728 14.668 34.4336 14.668 34.08V28.7467C14.668 28.3931 14.5275 28.0539 14.2774 27.8039C14.0274 27.5538 13.6883 27.4134 13.3346 27.4134H12.0013V26.08H28.0013V27.4134H26.668C26.3143 27.4134 25.9752 27.5538 25.7252 27.8039C25.4751 28.0539 25.3346 28.3931 25.3346 28.7467V34.08C25.3346 34.4336 25.4751 34.7728 25.7252 35.0228C25.9752 35.2729 26.3143 35.4134 26.668 35.4134H32.0013C32.3549 35.4134 32.6941 35.2729 32.9441 35.0228C33.1942 34.7728 33.3346 34.4336 33.3346 34.08V28.7467C33.3346 28.3931 33.1942 28.0539 32.9441 27.8039C32.6941 27.5538 32.3549 27.4134 32.0013 27.4134ZM12.0013 32.7467H9.33464V30.08H12.0013V32.7467ZM16.0013 15.4134C16.0013 14.6222 16.2359 13.8489 16.6754 13.1911C17.1149 12.5333 17.7397 12.0206 18.4706 11.7178C19.2015 11.4151 20.0057 11.3359 20.7817 11.4902C21.5576 11.6446 22.2703 12.0255 22.8297 12.5849C23.3891 13.1443 23.7701 13.8571 23.9244 14.633C24.0788 15.4089 23.9996 16.2132 23.6968 16.9441C23.3941 17.675 22.8814 18.2997 22.2236 18.7392C21.5658 19.1788 20.7924 19.4134 20.0013 19.4134C18.9404 19.4134 17.923 18.9919 17.1729 18.2418C16.4227 17.4916 16.0013 16.4742 16.0013 15.4134ZM30.668 32.7467H28.0013V30.08H30.668V32.7467Z" fill="#000522"/>
</svg>
