<svg width="24" height="23" viewBox="0 0 24 23" fill="none" xmlns="http://www.w3.org/2000/svg">
<path fill-rule="evenodd" clip-rule="evenodd" d="M4.21062 18.9902C7.21225 18.9902 16.7898 18.9902 19.7914 18.982C20.6488 18.982 21.4181 18.4464 21.7157 17.64C21.7171 17.6372 21.7178 17.6345 21.7185 17.6317C22.1028 16.5517 22.3125 15.3891 22.3125 14.1777C22.3125 8.48592 17.6918 3.86523 12 3.86523C6.30819 3.86523 1.6875 8.48592 1.6875 14.1777C1.6875 15.387 1.8965 16.5475 2.27119 17.6297C2.27256 17.6338 2.27394 17.6386 2.276 17.6427C2.57506 18.4526 3.34781 18.9902 4.21131 18.9902H4.21062ZM4.21062 17.6152C3.92737 17.6152 3.67369 17.442 3.57056 17.1787C3.24331 16.2327 3.0625 15.2262 3.0625 14.1777C3.0625 9.24492 7.06719 5.24023 12 5.24023C16.9328 5.24023 20.9375 9.24492 20.9375 14.1777C20.9375 15.2255 20.7567 16.2313 20.4253 17.1656C20.3256 17.431 20.0726 17.607 19.7894 17.607C19.7887 17.607 19.788 17.607 19.7873 17.607C16.7871 17.6152 7.21156 17.6152 4.21062 17.6152Z" fill="white"/>
<path fill-rule="evenodd" clip-rule="evenodd" d="M5.93625 15.4159C5.85513 15.0158 5.8125 14.6019 5.8125 14.1777C5.8125 10.7629 8.58519 7.99023 12 7.99023C12.8793 7.99023 13.7167 8.1738 14.4743 8.50586C14.8222 8.6578 15.2278 8.49898 15.3797 8.15111C15.5317 7.80324 15.3729 7.39761 15.0257 7.24567C14.0989 6.84073 13.0752 6.61523 12 6.61523C7.82619 6.61523 4.4375 10.0039 4.4375 14.1777C4.4375 14.6954 4.48975 15.2014 4.58944 15.6895C4.66506 16.0615 5.02806 16.3021 5.4 16.2265C5.77194 16.1509 6.01188 15.7879 5.93625 15.4159Z" fill="white"/>
<path fill-rule="evenodd" clip-rule="evenodd" d="M17.6709 11.7033C18.003 12.4609 18.1865 13.2983 18.1865 14.1776C18.1865 14.6018 18.1439 15.0157 18.0628 15.4158C17.9872 15.7878 18.2271 16.1508 18.599 16.2264C18.971 16.302 19.334 16.0614 19.4096 15.6894C19.5093 15.2013 19.5615 14.6953 19.5615 14.1776C19.5615 13.1024 19.336 12.0787 18.9311 11.1519C18.7792 10.8048 18.3735 10.6459 18.0257 10.7979C17.6778 10.9498 17.519 11.3554 17.6709 11.7033Z" fill="white"/>
<path fill-rule="evenodd" clip-rule="evenodd" d="M12.9514 12.6867L16.4371 9.20109C16.7052 8.93297 17.1411 8.93297 17.4092 9.20109C17.6773 9.46922 17.6773 9.90509 17.4092 10.1732L13.9236 13.6588C14.0528 13.9277 14.125 14.2295 14.125 14.5478C14.125 15.6863 13.201 16.6103 12.0625 16.6103C10.924 16.6103 10 15.6863 10 14.5478C10 13.4093 10.924 12.4853 12.0625 12.4853C12.3808 12.4853 12.6826 12.5575 12.9514 12.6867ZM12.0625 13.8603C12.442 13.8603 12.75 14.1683 12.75 14.5478C12.75 14.9273 12.442 15.2353 12.0625 15.2353C11.683 15.2353 11.375 14.9273 11.375 14.5478C11.375 14.1683 11.683 13.8603 12.0625 13.8603Z" fill="white"/>
</svg>
