<svg viewBox="0 0 24 24" fill="none" xmlns="http://www.w3.org/2000/svg" width="24" height="24"><g stroke-width="0"/><g stroke-linecap="round" stroke-linejoin="round"/><path fill="#fff" fill-opacity=".01" d="M0 0h24v24H0z"/><path d="M24 0H0v24h24z" fill="#fff" fill-opacity=".01"/><path d="M19 4H5a1 1 0 0 0-1 1v14a1 1 0 0 0 1 1h14a1 1 0 0 0 1-1V5a1 1 0 0 0-1-1Z" fill="#374151" stroke="#374151" stroke-width="2" stroke-linejoin="round"/><path d="M15 9H9v6h6z" fill="#43CCF8" stroke="#fff" stroke-width="2" stroke-linejoin="round"/><path fill-rule="evenodd" clip-rule="evenodd" d="M7.455 1v3z" fill="#374151"/><path d="M7.455 1v3" stroke="#374151" stroke-width="2" stroke-linecap="round" stroke-linejoin="round"/><path fill-rule="evenodd" clip-rule="evenodd" d="M7.455 20v3z" fill="#374151"/><path d="M7.455 20v3" stroke="#374151" stroke-width="2" stroke-linecap="round" stroke-linejoin="round"/><path fill-rule="evenodd" clip-rule="evenodd" d="M12 1v3z" fill="#374151"/><path d="M12 1v3" stroke="#374151" stroke-width="2" stroke-linecap="round" stroke-linejoin="round"/><path fill-rule="evenodd" clip-rule="evenodd" d="M12 20v3z" fill="#374151"/><path d="M12 20v3" stroke="#374151" stroke-width="2" stroke-linecap="round" stroke-linejoin="round"/><path fill-rule="evenodd" clip-rule="evenodd" d="M16.545 1v3z" fill="#374151"/><path d="M16.545 1v3" stroke="#374151" stroke-width="2" stroke-linecap="round" stroke-linejoin="round"/><path fill-rule="evenodd" clip-rule="evenodd" d="M16.545 20v3z" fill="#374151"/><path d="M16.545 20v3" stroke="#374151" stroke-width="2" stroke-linecap="round" stroke-linejoin="round"/><path fill-rule="evenodd" clip-rule="evenodd" d="M1 7.455h3z" fill="#374151"/><path d="M1 7.455h3" stroke="#374151" stroke-width="2" stroke-linecap="round" stroke-linejoin="round"/><path fill-rule="evenodd" clip-rule="evenodd" d="M20 7.455h3z" fill="#374151"/><path d="M20 7.455h3" stroke="#374151" stroke-width="2" stroke-linecap="round" stroke-linejoin="round"/><path fill-rule="evenodd" clip-rule="evenodd" d="M1 12h3z" fill="#374151"/><path d="M1 12h3" stroke="#374151" stroke-width="2" stroke-linecap="round" stroke-linejoin="round"/><path fill-rule="evenodd" clip-rule="evenodd" d="M20 12h3z" fill="#374151"/><path d="M20 12h3" stroke="#374151" stroke-width="2" stroke-linecap="round" stroke-linejoin="round"/><path fill-rule="evenodd" clip-rule="evenodd" d="M1 16.545h3z" fill="#374151"/><path d="M1 16.545h3" stroke="#374151" stroke-width="2" stroke-linecap="round" stroke-linejoin="round"/><path fill-rule="evenodd" clip-rule="evenodd" d="M20 16.545h3z" fill="#374151"/><path d="M20 16.545h3" stroke="#374151" stroke-width="2" stroke-linecap="round" stroke-linejoin="round"/></svg>
