<svg width="19" height="18" viewBox="0 0 19 18" fill="none" xmlns="http://www.w3.org/2000/svg">
<g clip-path="url(#clip0_12943_9002)">
<path d="M17.0907 4.29408L9.78365 0.0753311C9.60959 -0.0251104 9.39521 -0.0251104 9.22115 0.0753311L1.91406 4.29408C1.74004 4.39456 1.63281 4.58025 1.63281 4.78121V13.2187C1.63281 13.4197 1.74004 13.6054 1.91406 13.7058L9.22115 17.9246C9.3082 17.9748 9.40526 18 9.5024 18C9.59954 18 9.6966 17.9748 9.78365 17.9246L17.0907 13.7058C17.2648 13.6054 17.372 13.4197 17.372 13.2187V4.78121C17.372 4.58025 17.2648 4.39456 17.0907 4.29408ZM2.75781 5.75546L8.9399 9.32469V16.4632L2.75781 12.894V5.75546ZM16.247 12.894L10.0649 16.4632V9.32469L13.4372 7.37767C13.7062 7.22235 13.7984 6.87831 13.6431 6.6093C13.4877 6.34024 13.1437 6.2481 12.8747 6.40342L9.5024 8.35044L3.32031 4.78121L9.5024 1.21197L16.247 5.10594V12.894Z" fill="#374151"/>
</g>
<defs>
<clipPath id="clip0_12943_9002">
<rect width="18" height="18" fill="white" transform="translate(0.5)"/>
</clipPath>
</defs>
</svg>
