<svg width="15" height="15" viewBox="0 0 15 15" fill="none" xmlns="http://www.w3.org/2000/svg">
<g clip-path="url(#clip0_12900_13074)">
<path d="M7.5 14.5C6.11553 14.5 4.76216 14.0895 3.61101 13.3203C2.45987 12.5511 1.56266 11.4579 1.03285 10.1788C0.503033 8.8997 0.36441 7.49224 0.634506 6.13437C0.904603 4.7765 1.57129 3.52922 2.55026 2.55026C3.52922 1.57129 4.7765 0.904603 6.13437 0.634506C7.49224 0.36441 8.8997 0.503033 10.1788 1.03285C11.4579 1.56266 12.5511 2.45987 13.3203 3.61101C14.0895 4.76216 14.5 6.11553 14.5 7.5C14.498 9.3559 13.7599 11.1352 12.4475 12.4475C11.1352 13.7599 9.3559 14.498 7.5 14.5ZM7.5 1.66667C6.34628 1.66667 5.21846 2.00879 4.25918 2.64976C3.29989 3.29074 2.55222 4.20178 2.11071 5.26768C1.66919 6.33359 1.55368 7.50647 1.77876 8.63803C2.00384 9.76959 2.55941 10.809 3.37521 11.6248C4.19102 12.4406 5.23042 12.9962 6.36198 13.2213C7.49353 13.4463 8.66642 13.3308 9.73232 12.8893C10.7982 12.4478 11.7093 11.7001 12.3502 10.7408C12.9912 9.78154 13.3333 8.65373 13.3333 7.5C13.3316 5.95343 12.7165 4.47068 11.6229 3.37709C10.5293 2.2835 9.04658 1.66837 7.5 1.66667Z" fill="#737373"/>
<path d="M5.13454 9.59883L4.51562 8.6095L6.91546 7.10625V4H8.08213V7.75258L5.13454 9.59883Z" fill="#737373"/>
</g>
<defs>
<clipPath id="clip0_12900_13074">
<rect width="14" height="14" fill="white" transform="translate(0.5 0.5)"/>
</clipPath>
</defs>
</svg>
