<svg width="18" height="18" viewBox="0 0 18 18" fill="none" xmlns="http://www.w3.org/2000/svg">
<path d="M15.7535 2.81152H4.50742C3.88632 2.81152 3.38281 3.31503 3.38281 3.93613C3.38281 4.55723 3.88632 5.06073 4.50742 5.06073H15.7535C16.3746 5.06073 16.8781 4.55723 16.8781 3.93613C16.8781 3.31503 16.3746 2.81152 15.7535 2.81152Z" fill="#374151"/>
<path d="M2.25551 3.93628C2.25424 3.6385 2.13493 3.35338 1.92375 3.14343C1.48512 2.7074 0.776689 2.7074 0.338058 3.14343C0.126843 3.35338 0.00752958 3.6385 0.00629954 3.93628C-0.00209985 4.00913 -0.00209985 4.08272 0.00629954 4.15557C0.0190216 4.22885 0.0397565 4.30051 0.0681528 4.36925C0.0983414 4.43585 0.134083 4.49981 0.17499 4.56043C0.215371 4.62348 0.262499 4.68192 0.315566 4.73474C0.366735 4.7857 0.423282 4.83097 0.484257 4.8697C0.543474 4.91282 0.607682 4.9487 0.675439 4.97653C0.74998 5.01519 0.82944 5.04359 0.911606 5.06088C0.98446 5.06903 1.05805 5.06903 1.1309 5.06088C1.42787 5.06113 1.71289 4.94389 1.92375 4.73474C1.97682 4.68192 2.02395 4.62348 2.06433 4.56043C2.10523 4.49981 2.14097 4.43585 2.17116 4.36925C2.20705 4.30135 2.23534 4.22969 2.25551 4.15557C2.26391 4.08272 2.26391 4.00913 2.25551 3.93628Z" fill="#374151"/>
<path d="M2.25702 8.99682C2.26539 8.92397 2.26539 8.85038 2.25702 8.77752C2.23759 8.70495 2.20926 8.63509 2.17268 8.56947C2.14372 8.50048 2.10791 8.43456 2.06584 8.37267C2.02686 8.31032 1.97956 8.25356 1.92526 8.20398C1.48663 7.76795 0.778202 7.76795 0.339571 8.20398C0.128356 8.41393 0.00904254 8.69905 0.0078125 8.99682C0.00999142 9.14502 0.0385634 9.29161 0.0921578 9.42979C0.120343 9.49632 0.154222 9.56028 0.193372 9.62098C0.236142 9.68209 0.285133 9.73864 0.339571 9.78967C0.389264 9.84386 0.445987 9.89116 0.508262 9.93024C0.567479 9.9734 0.631652 10.0093 0.699444 10.0371C0.76801 10.0659 0.839739 10.0867 0.913119 10.0989C0.985059 10.1151 1.05869 10.1226 1.13242 10.1214C1.20527 10.1298 1.27886 10.1298 1.35172 10.1214C1.42327 10.1092 1.49313 10.0884 1.55977 10.0596C1.62939 10.0319 1.69546 9.99607 1.75657 9.95274C1.81885 9.91366 1.87557 9.86635 1.92526 9.81216C1.97946 9.76247 2.02676 9.70574 2.06584 9.64347C2.10907 9.58429 2.14495 9.52011 2.17268 9.45229C2.21109 9.37764 2.23945 9.29822 2.25702 9.21612C2.26567 9.14327 2.26567 9.06968 2.25702 8.99682Z" fill="#374151"/>
<path d="M2.25709 14.0574C2.26542 13.9845 2.26542 13.9109 2.25709 13.8381C2.23766 13.7637 2.20933 13.692 2.17275 13.6244C2.14256 13.5578 2.10682 13.4938 2.06591 13.4332C2.02683 13.3709 1.97952 13.3142 1.92533 13.2645C1.4867 12.8285 0.778271 12.8285 0.33964 13.2645C0.285448 13.3142 0.238144 13.3709 0.199064 13.4332C0.158157 13.4938 0.122415 13.5578 0.0922268 13.6244C0.0630574 13.6929 0.0422873 13.7646 0.0303735 13.8381C0.0145236 13.9101 0.00700284 13.9836 0.00788144 14.0574C0.00914662 14.3551 0.12846 14.6403 0.33964 14.8502C0.389333 14.9044 0.446056 14.9517 0.508331 14.9908C0.567548 15.0339 0.631721 15.0698 0.699513 15.0976C0.768079 15.1265 0.839808 15.1473 0.913188 15.1595C0.985128 15.1756 1.05875 15.1832 1.13249 15.182C1.20534 15.1904 1.27893 15.1904 1.35178 15.182C1.42334 15.1697 1.4932 15.1489 1.55984 15.1201C1.62946 15.0925 1.69553 15.0566 1.75664 15.0133C1.81892 14.9742 1.87564 14.9269 1.92533 14.8727C1.97952 14.823 2.02683 14.7663 2.06591 14.704C2.10917 14.6449 2.14505 14.5807 2.17275 14.5128C2.21112 14.4382 2.23948 14.3588 2.25709 14.2767C2.26574 14.2038 2.26574 14.1302 2.25709 14.0574Z" fill="#374151"/>
<path d="M16.8781 7.87207H4.50742C3.88632 7.87207 3.38281 8.37558 3.38281 8.99667C3.38281 9.61777 3.88632 10.1213 4.50742 10.1213H16.8781C17.4992 10.1213 18.0027 9.61777 18.0027 8.99667C18.0027 8.37558 17.4992 7.87207 16.8781 7.87207Z" fill="#374151"/>
<path d="M11.8173 12.9331H4.50742C3.88632 12.9331 3.38281 13.4366 3.38281 14.0577C3.38281 14.6788 3.88632 15.1823 4.50742 15.1823H11.8173C12.4384 15.1823 12.942 14.6788 12.942 14.0577C12.942 13.4366 12.4384 12.9331 11.8173 12.9331Z" fill="#374151"/>
</svg>
