<svg width="15" height="15" viewBox="0 0 15 15" fill="none" xmlns="http://www.w3.org/2000/svg">
<g clip-path="url(#clip0_12900_13095)">
<path d="M12.7544 2.68652H4.0075C3.52443 2.68652 3.13281 3.07814 3.13281 3.56122C3.13281 4.04429 3.52443 4.43591 4.0075 4.43591H12.7544C13.2375 4.43591 13.6291 4.04429 13.6291 3.56122C13.6291 3.07814 13.2375 2.68652 12.7544 2.68652Z" fill="#737373"/>
<path d="M2.25428 3.56144C2.2533 3.32984 2.1605 3.10807 1.99625 2.94478C1.65509 2.60565 1.10409 2.60565 0.762934 2.94478C0.598656 3.10807 0.505856 3.32984 0.5049 3.56144C0.498367 3.6181 0.498367 3.67534 0.5049 3.732C0.514795 3.789 0.530922 3.84473 0.553008 3.8982C0.576488 3.94999 0.604287 3.99974 0.636104 4.04689C0.66751 4.09593 0.704166 4.14139 0.74544 4.18247C0.785239 4.22211 0.829219 4.25731 0.876644 4.28743C0.922702 4.32097 0.972641 4.34888 1.02534 4.37053C1.08332 4.4006 1.14512 4.42268 1.20903 4.43613C1.26569 4.44247 1.32293 4.44247 1.37959 4.43613C1.61057 4.43632 1.83225 4.34514 1.99625 4.18247C2.03752 4.14139 2.07418 4.09593 2.10559 4.04689C2.1374 3.99974 2.1652 3.94999 2.18868 3.8982C2.21659 3.84539 2.23859 3.78965 2.25428 3.732C2.26082 3.67534 2.26082 3.6181 2.25428 3.56144Z" fill="#737373"/>
<path d="M2.2572 7.49796C2.2637 7.4413 2.2637 7.38406 2.2572 7.3274C2.24208 7.27095 2.22005 7.21661 2.1916 7.16558C2.16907 7.11192 2.14122 7.06064 2.1085 7.01251C2.07819 6.96402 2.04139 6.91987 1.99916 6.8813C1.65801 6.54217 1.107 6.54217 0.765847 6.8813C0.601569 7.0446 0.508769 7.26636 0.507812 7.49796C0.509507 7.61323 0.53173 7.72724 0.573414 7.83472C0.595336 7.88646 0.621687 7.93621 0.652137 7.98342C0.685402 8.03095 0.723506 8.07493 0.765847 8.11462C0.804497 8.15677 0.848615 8.19356 0.897051 8.22396C0.943109 8.25752 0.993021 8.28543 1.04575 8.30705C1.09908 8.32949 1.15487 8.34565 1.21194 8.35516C1.26789 8.36771 1.32516 8.37358 1.3825 8.37265C1.43917 8.37919 1.49641 8.37919 1.55307 8.37265C1.60872 8.36312 1.66306 8.34696 1.71489 8.32455C1.76904 8.30306 1.82043 8.27515 1.86796 8.24145C1.9164 8.21106 1.96051 8.17426 1.99916 8.13211C2.04131 8.09346 2.0781 8.04935 2.1085 8.00091C2.14212 7.95488 2.17003 7.90497 2.1916 7.85221C2.22147 7.79415 2.24353 7.73238 2.2572 7.66853C2.26392 7.61186 2.26392 7.55463 2.2572 7.49796Z" fill="#737373"/>
<path d="M2.25725 11.4335C2.26373 11.3768 2.26373 11.3196 2.25725 11.2629C2.24214 11.2051 2.2201 11.1493 2.19165 11.0968C2.16817 11.045 2.14037 10.9952 2.10855 10.9481C2.07816 10.8996 2.04137 10.8555 1.99922 10.8169C1.65806 10.4777 1.10706 10.4777 0.7659 10.8169C0.723751 10.8555 0.686959 10.8996 0.656564 10.9481C0.624747 10.9952 0.596948 11.045 0.573468 11.0968C0.550781 11.15 0.534626 11.2058 0.52536 11.2629C0.513032 11.319 0.507183 11.3762 0.507866 11.4335C0.50885 11.6651 0.60165 11.8869 0.7659 12.0502C0.804551 12.0923 0.848668 12.1291 0.897104 12.1595C0.943162 12.1931 0.993074 12.221 1.0458 12.2426C1.09913 12.265 1.15492 12.2812 1.21199 12.2907C1.26795 12.3033 1.32521 12.3091 1.38256 12.3082C1.43922 12.3147 1.49646 12.3147 1.55312 12.3082C1.60878 12.2987 1.66312 12.2825 1.71494 12.2601C1.76909 12.2386 1.82048 12.2107 1.86801 12.177C1.91645 12.1466 1.96057 12.1098 1.99922 12.0677C2.04137 12.029 2.07816 11.9849 2.10855 11.9365C2.1422 11.8905 2.17011 11.8405 2.19165 11.7878C2.2215 11.7297 2.24356 11.6679 2.25725 11.6041C2.26398 11.5474 2.26398 11.4902 2.25725 11.4335Z" fill="#737373"/>
<path d="M13.6291 6.62305H4.0075C3.52443 6.62305 3.13281 7.01466 3.13281 7.49774C3.13281 7.98082 3.52443 8.37243 4.0075 8.37243H13.6291C14.1122 8.37243 14.5038 7.98082 14.5038 7.49774C14.5038 7.01466 14.1122 6.62305 13.6291 6.62305Z" fill="#737373"/>
<path d="M9.69301 10.5586H4.0075C3.52443 10.5586 3.13281 10.9502 3.13281 11.4333C3.13281 11.9164 3.52443 12.308 4.0075 12.308H9.69301C10.1761 12.308 10.5677 11.9164 10.5677 11.4333C10.5677 10.9502 10.1761 10.5586 9.69301 10.5586Z" fill="#737373"/>
</g>
<defs>
<clipPath id="clip0_12900_13095">
<rect width="14" height="14" fill="white" transform="translate(0.5 0.5)"/>
</clipPath>
</defs>
</svg>
