<svg xmlns="http://www.w3.org/2000/svg" width="24" height="23.723" viewBox="0 0 24 23.723" xml:space="preserve">
  <g/>
  <path style="fill:#737373;fill-opacity:1" d="M11.792.139C5.28.139 0 5.418 0 11.93c0 6.512 5.28 11.792 11.792 11.792s11.792-5.28 11.792-11.792S18.304.138 11.792.138zm0 22.069c-1.853 0-3.355-1.238-3.355-2.764h6.71c0 1.526-1.502 2.764-3.355 2.764zm5.542-3.68H6.25v-2.01h11.084v2.01Zm-.04-3.044H6.282a4.305 4.305 0 0 1-.109-.127c-1.135-1.378-1.402-2.097-1.661-2.83-.004-.024 1.376.282 2.354.502 0 0 .504.117 1.24.251-.707-.829-1.127-1.882-1.127-2.959 0-2.364 1.813-4.429 1.159-6.099.637.052 1.317 1.343 1.363 3.363.677-.935.96-2.643.96-3.69 0-1.084.714-2.344 1.429-2.387-.637 1.05.165 1.95.878 4.182.267.839.233 2.25.44 3.145.068-1.857.387-4.569 1.567-5.506-.52 1.179.077 2.655.485 3.364.659 1.145 1.059 2.012 1.059 3.652 0 1.1-.406 2.135-1.091 2.944.779-.146 1.316-.278 1.316-.278l2.529-.493s-.367 1.511-1.779 2.966z"/>
</svg>
