<svg width="17" height="17" viewBox="0 0 17 17" fill="none" xmlns="http://www.w3.org/2000/svg">
<path d="M13.4068 7.42477C13.3267 7.25169 13.1983 7.10542 13.0371 7.00353C12.8759 6.90163 12.6887 6.84845 12.498 6.85037H10.3236L11.378 2.56877C11.4341 2.35026 11.4147 2.11922 11.323 1.91308C11.2314 1.70694 11.0729 1.53778 10.8731 1.43299C10.6733 1.32819 10.444 1.29391 10.2223 1.33569C10.0006 1.37746 9.79954 1.49286 9.65161 1.66317L3.73161 8.49997L3.72201 8.50957C3.60064 8.6563 3.52361 8.83459 3.49995 9.02353C3.47629 9.21248 3.50698 9.40425 3.58842 9.57637C3.66987 9.7485 3.79869 9.89384 3.95979 9.99536C4.12089 10.0969 4.30759 10.1504 4.49801 10.1496H6.67241L5.61801 14.4312C5.5578 14.652 5.57553 14.8868 5.66821 15.096C5.76088 15.3053 5.92285 15.4762 6.12681 15.58C6.27014 15.6545 6.42928 15.6934 6.59081 15.6936C6.73577 15.694 6.87902 15.6623 7.01019 15.6006C7.14136 15.5389 7.25716 15.4488 7.34921 15.3368L13.2788 8.48877C13.3996 8.34221 13.4759 8.16408 13.4986 7.97551C13.5212 7.78694 13.4894 7.59581 13.4068 7.42477ZM6.81481 14.2376L7.79081 10.2904C7.83041 10.1426 7.83563 9.98769 7.80606 9.83757C7.77649 9.68746 7.71292 9.54611 7.62023 9.42438C7.52754 9.30265 7.4082 9.20377 7.27136 9.13533C7.13451 9.06689 6.98381 9.03072 6.83081 9.02957H4.75561L10.1812 2.76237L9.20521 6.70957C9.16561 6.85736 9.1604 7.01226 9.18997 7.16238C9.21954 7.31249 9.28311 7.45384 9.3758 7.57557C9.46848 7.6973 9.58783 7.79618 9.72467 7.86462C9.86151 7.93305 10.0122 7.96923 10.1652 7.97037H12.2404L6.81481 14.2376Z" fill="#737373"/>
</svg>
