<svg fill="white" height="24" width="24" xmlns="http://www.w3.org/2000/svg" viewBox="0 0 39.6 39.6" xml:space="preserve"><g stroke-width="0"/><g stroke-linecap="round" stroke-linejoin="round"/><path d="m39.073 36.527 -5.073 -5.073c1.259 -1.766 2 -3.925 2 -6.254 0 -3.191 -1.392 -6.063 -3.6 -8.042V9c0 -0.994 -0.806 -1.8 -1.8 -1.8h-5.4v-5.4c0 -0.994 -0.806 -1.8 -1.8 -1.8H9c-0.994 0 -1.8 0.806 -1.8 1.8v5.4H1.8c-0.994 0 -1.8 0.806 -1.8 1.8V28.2c0 0.994 0.806 1.8 1.8 1.8h13.727c1.77 3.553 5.441 6 9.673 6 2.329 0 4.488 -0.741 6.255 -2l5.073 5.073C36.879 39.424 37.339 39.6 37.8 39.6s0.921 -0.176 1.273 -0.527c0.703 -0.703 0.703 -1.843 0 -2.546M10.8 3.6h10.8v3.6H10.8zM3.6 26.4V10.8h25.2v4.218A10.752 10.752 0 0 0 25.2 14.4c-5.955 0 -10.8 4.845 -10.8 10.8 0 0.406 0.023 0.806 0.067 1.2zm14.4 -1.2c0 -3.97 3.23 -7.2 7.2 -7.2s7.2 3.23 7.2 7.2 -3.23 7.2 -7.2 7.2 -7.2 -3.23 -7.2 -7.2"/></svg>