<svg width="16" height="16" viewBox="0 0 16 16" fill="none" xmlns="http://www.w3.org/2000/svg">
<path d="M12.0531 6.17803H12.1781C12.1781 4.6499 13.4219 3.40615 14.95 3.40615V3.28115C13.4219 3.28115 12.1781 2.0374 12.1781 0.509277H12.0531C12.0531 2.0374 10.8094 3.28115 9.28125 3.28115V3.40615C10.8094 3.40615 12.0531 4.6499 12.0531 6.17803Z" fill="#FACF39"/>
<path d="M12.1781 9.82178H12.0531C12.0531 11.3499 10.8094 12.5937 9.28125 12.5937V12.7187C10.8094 12.7187 12.0531 13.9624 12.0531 15.4905H12.1781C12.1781 13.9624 13.4219 12.7187 14.95 12.7187V12.5937C13.4219 12.5937 12.1781 11.3499 12.1781 9.82178Z" fill="#FACF39"/>
<path d="M12.8094 8.09707V7.97207H12.7812C9.5875 7.97207 6.99063 5.3752 6.99063 2.18145V2.15332H6.86563V2.18145C6.86563 5.3752 4.26875 7.97207 1.075 7.97207H1.04688V8.09707H1.075C4.26875 8.09707 6.86563 10.6939 6.86563 13.8877V13.9158H6.99063V13.8877C6.99063 10.6939 9.5875 8.09707 12.7812 8.09707H12.8094Z" fill="#FACF39"/>
</svg>
