<svg width="48" height="48" viewBox="0 0 48 48" fill="none" xmlns="http://www.w3.org/2000/svg">
<g clip-path="url(#clip0_35985_58034)">
<path d="M13.332 24C13.332 22.2667 12.2654 20.8 10.6654 20.2667V15.7333C12.2654 15.2 13.332 13.7333 13.332 12C13.332 9.73333 11.5987 8 9.33203 8C7.06536 8 5.33203 9.73333 5.33203 12C5.33203 13.7333 6.3987 15.2 7.9987 15.7333V20.2667C6.3987 20.8 5.33203 22.2667 5.33203 24C5.33203 25.7333 6.3987 27.2 7.9987 27.7333V32.2667C6.3987 32.8 5.33203 34.2667 5.33203 36C5.33203 38.2667 7.06536 40 9.33203 40C11.5987 40 13.332 38.2667 13.332 36C13.332 34.2667 12.2654 32.8 10.6654 32.2667V27.7333C12.2654 27.2 13.332 25.7333 13.332 24Z" fill="#3B82F6"/>
<path d="M41.3346 13.3346H20.0013C19.2013 13.3346 18.668 12.8013 18.668 12.0013C18.668 11.2013 19.2013 10.668 20.0013 10.668H41.3346C42.1346 10.668 42.668 11.2013 42.668 12.0013C42.668 12.8013 42.1346 13.3346 41.3346 13.3346Z" fill="#3B82F6"/>
<path d="M41.3346 25.3346H20.0013C19.2013 25.3346 18.668 24.8013 18.668 24.0013C18.668 23.2013 19.2013 22.668 20.0013 22.668H41.3346C42.1346 22.668 42.668 23.2013 42.668 24.0013C42.668 24.8013 42.1346 25.3346 41.3346 25.3346Z" fill="#3B82F6"/>
<path d="M41.3346 37.3346H20.0013C19.2013 37.3346 18.668 36.8013 18.668 36.0013C18.668 35.2013 19.2013 34.668 20.0013 34.668H41.3346C42.1346 34.668 42.668 35.2013 42.668 36.0013C42.668 36.8013 42.1346 37.3346 41.3346 37.3346Z" fill="#3B82F6"/>
</g>
<defs>
<clipPath id="clip0_35985_58034">
<rect width="48" height="48" fill="white"/>
</clipPath>
</defs>
</svg>
