<svg width="24" height="24" viewBox="0 0 0.72 0.72" xmlns="http://www.w3.org/2000/svg"><path d="M.15.27H.12V.24h.03zM.12.33h.03V.3H.12zm0 .24h.03V.54H.12zm0 .06h.03V.6H.12zM.082.082A.075.075 0 1 1 .06.135.08.08 0 0 1 .082.082M.09.135A.045.045 0 1 0 .103.103.05.05 0 0 0 .09.135m.578.367A.076.076 0 1 1 .58.489L.551.39A.074.074 0 0 1 .482.33H.418A.08.08 0 0 1 .36.388v.123a.075.075 0 1 1-.03 0V.388a.1.1 0 0 1-.038-.02L.289.364.206.411a.074.074 0 1 1-.018-.03l.003.004.083-.047A.075.075 0 1 1 .418.3h.063A.075.075 0 0 1 .555.24l.009.001L.578.2A.075.075 0 0 1 .615.06a.075.075 0 0 1 .053.128.07.07 0 0 1-.062.021L.592.25a.074.074 0 0 1-.011.135l.028.096L.615.48a.08.08 0 0 1 .053.022M.615.18A.045.045 0 1 0 .583.167.05.05 0 0 0 .615.18M.167.403A.045.045 0 1 0 .18.435.05.05 0 0 0 .167.403M.345.54a.045.045 0 1 0 .032.013A.05.05 0 0 0 .345.54M.39.315a.045.045 0 1 0-.013.032A.05.05 0 0 0 .39.315M.555.36A.045.045 0 1 0 .523.347.05.05 0 0 0 .555.36M.66.555a.045.045 0 1 0-.013.032A.05.05 0 0 0 .66.555" fill="#374151"/><path fill="none" d="M0 0h.72v.72H0z"/></svg>