<svg width="28" height="28" viewBox="0 0 28 28" fill="none" xmlns="http://www.w3.org/2000/svg">
<path d="M7 21C7.45749 17.0919 9.18821 13.4582 11.9104 10.6903C14.1411 8.39851 16.9383 6.77671 20 6" stroke="#60A5FA" stroke-width="1.75" stroke-linecap="round" stroke-linejoin="round"/>
<path d="M13.0562 24C12.8889 22.3965 13.0964 20.777 13.6631 19.2628C14.2299 17.7486 15.1413 16.3792 16.3288 15.2571C18.3552 13.2427 21.106 12.0747 24 12" stroke="#60A5FA" stroke-width="1.75" stroke-linecap="round" stroke-linejoin="round"/>
<path d="M14 24C19.5228 24 24 19.5228 24 14C24 8.47715 19.5228 4 14 4C8.47715 4 4 8.47715 4 14C4 19.5228 8.47715 24 14 24Z" stroke="#60A5FA" stroke-width="1.75" stroke-linecap="round" stroke-linejoin="round"/>
</svg>
