<svg width="28" height="28" viewBox="0 0 28 28" fill="none" xmlns="http://www.w3.org/2000/svg">
<path fill-rule="evenodd" clip-rule="evenodd" d="M11.6759 4.02297C12.0321 4.34951 12.0562 4.90301 11.7297 5.25924L6.65707 10.793H23.3346C23.8179 10.793 24.2096 11.1847 24.2096 11.668C24.2096 12.1512 23.8179 12.543 23.3346 12.543H4.66799C4.32099 12.543 4.00679 12.3379 3.86705 12.0203C3.72733 11.7027 3.7885 11.3325 4.02298 11.0767L10.4396 4.07672C10.7662 3.72049 11.3197 3.69642 11.6759 4.02297Z" fill="#FFCC00"/>
<path fill-rule="evenodd" clip-rule="evenodd" d="M24.1355 15.9797C23.9959 15.6621 23.6816 15.457 23.3346 15.457H4.66797C4.18472 15.457 3.79297 15.8488 3.79297 16.332C3.79297 16.8153 4.18472 17.207 4.66797 17.207H21.3456L16.273 22.7408C15.9465 23.0969 15.9705 23.6505 16.3267 23.9771C16.683 24.3036 17.2365 24.2795 17.563 23.9233L23.9797 16.9233C24.2142 16.6676 24.2753 16.2974 24.1355 15.9797Z" fill="#FFCC00"/>
</svg>
