<svg width="28" height="28" viewBox="0 0 28 28" fill="none" xmlns="http://www.w3.org/2000/svg">
<g clip-path="url(#clip0_34820_44231)">
<path d="M22.6429 18.8198V14.785C22.6429 14.3686 22.4773 13.9693 22.1826 13.6748C21.8879 13.3804 21.4882 13.215 21.0714 13.215H14.7857V9.18018C15.5264 8.98912 16.1719 8.53475 16.6012 7.90222C17.0305 7.2697 17.2142 6.50245 17.1178 5.7443C17.0214 4.98615 16.6516 4.28914 16.0776 3.78394C15.5036 3.27873 14.7649 3 14 3C13.235 3 12.4964 3.27873 11.9224 3.78394C11.3484 4.28914 10.9786 4.98615 10.8822 5.7443C10.7858 6.50245 10.9695 7.2697 11.3988 7.90222C11.8281 8.53475 12.4736 8.98912 13.2143 9.18018V13.215H6.92858C6.51181 13.215 6.11211 13.3804 5.81741 13.6748C5.52271 13.9693 5.35715 14.3686 5.35715 14.785V18.8198C4.61649 19.0109 3.971 19.4653 3.54168 20.0978C3.11235 20.7303 2.92867 21.4976 3.02506 22.2557C3.12144 23.0139 3.49128 23.7109 4.06525 24.2161C4.63922 24.7213 5.37791 25 6.14286 25C6.90781 25 7.6465 24.7213 8.22047 24.2161C8.79444 23.7109 9.16428 23.0139 9.26067 22.2557C9.35705 21.4976 9.17337 20.7303 8.74405 20.0978C8.31472 19.4653 7.66924 19.0109 6.92858 18.8198V14.785H21.0714V18.8198C20.3308 19.0109 19.6853 19.4653 19.256 20.0978C18.8266 20.7303 18.6429 21.4976 18.7393 22.2557C18.8357 23.0139 19.2056 23.7109 19.7795 24.2161C20.3535 24.7213 21.0922 25 21.8571 25C22.6221 25 23.3608 24.7213 23.9347 24.2161C24.5087 23.7109 24.8786 23.0139 24.9749 22.2557C25.0713 21.4976 24.8876 20.7303 24.4583 20.0978C24.029 19.4653 23.3835 19.0109 22.6429 18.8198ZM7.71429 21.8499C7.71429 22.1604 7.62213 22.4639 7.44946 22.7221C7.27679 22.9803 7.03136 23.1815 6.74422 23.3003C6.45708 23.4192 6.14112 23.4502 5.83629 23.3897C5.53147 23.3291 5.25146 23.1796 5.0317 22.96C4.81193 22.7404 4.66226 22.4607 4.60163 22.1561C4.541 21.8516 4.57211 21.5359 4.69105 21.2491C4.80999 20.9622 5.0114 20.717 5.26982 20.5445C5.52824 20.372 5.83206 20.2799 6.14286 20.2799C6.55963 20.2799 6.95933 20.4453 7.25403 20.7397C7.54873 21.0342 7.71429 21.4335 7.71429 21.8499ZM12.4286 6.15014C12.4286 5.83963 12.5207 5.53609 12.6934 5.27791C12.8661 5.01973 13.1115 4.8185 13.3986 4.69967C13.6858 4.58084 14.0017 4.54975 14.3066 4.61033C14.6114 4.67091 14.8914 4.82043 15.1112 5.04C15.3309 5.25956 15.4806 5.53931 15.5412 5.84385C15.6019 6.1484 15.5707 6.46406 15.4518 6.75094C15.3329 7.03781 15.1315 7.28301 14.873 7.45552C14.6146 7.62803 14.3108 7.72011 14 7.72011C13.5832 7.72011 13.1835 7.5547 12.8888 7.26028C12.5941 6.96585 12.4286 6.56652 12.4286 6.15014ZM21.8571 23.4198C21.5463 23.4198 21.2425 23.3278 20.9841 23.1552C20.7257 22.9827 20.5243 22.7375 20.4053 22.4507C20.2864 22.1638 20.2553 21.8481 20.3159 21.5436C20.3765 21.239 20.5262 20.9593 20.746 20.7397C20.9657 20.5202 21.2457 20.3706 21.5506 20.3101C21.8554 20.2495 22.1714 20.2806 22.4585 20.3994C22.7456 20.5182 22.9911 20.7195 23.1637 20.9776C23.3364 21.2358 23.4286 21.5394 23.4286 21.8499C23.4286 22.2662 23.263 22.6656 22.9683 22.96C22.6736 23.2544 22.2739 23.4198 21.8571 23.4198Z" fill="#FF8D28"/>
</g>
<defs>
<clipPath id="clip0_34820_44231">
<rect width="28" height="28" fill="white"/>
</clipPath>
</defs>
</svg>
