<svg width="28" height="28" viewBox="0 0 28 28" fill="none" xmlns="http://www.w3.org/2000/svg">
<path fill-rule="evenodd" clip-rule="evenodd" d="M15.5794 23.8034L12.5949 14.6939C12.4606 14.1072 12.6375 13.4927 13.063 13.0671C13.4887 12.6414 14.1032 12.4645 14.69 12.5988L23.7995 15.5833C24.1262 15.6325 24.3785 15.896 24.4134 16.2246C24.4483 16.5531 24.257 16.8639 23.948 16.9806L19.6657 18.9287C19.3298 19.0761 19.0617 19.3443 18.9144 19.68L16.9692 23.9623C16.8524 24.2713 16.5417 24.4627 16.2131 24.4278C15.8847 24.3928 15.6211 24.1405 15.572 23.8138L15.5794 23.8034Z" stroke="#34C759" stroke-width="1.75" stroke-linecap="round" stroke-linejoin="round"/>
<path d="M5.91031 13.9359C6.52535 13.9359 7.02395 13.4373 7.02395 12.8223C7.02395 12.2073 6.52535 11.7086 5.91031 11.7086V13.9359ZM3.60582 11.7086C2.99078 11.7086 2.49219 12.2073 2.49219 12.8223C2.49219 13.4373 2.99078 13.9359 3.60582 13.9359V11.7086ZM13.9374 3.60582C13.9374 2.99078 13.4388 2.49219 12.8238 2.49219C12.2087 2.49219 11.7101 2.99078 11.7101 3.60582H13.9374ZM11.7101 5.91031C11.7101 6.52535 12.2087 7.02395 12.8238 7.02395C13.4388 7.02395 13.9374 6.52535 13.9374 5.91031H11.7101ZM20.1282 7.09274C20.5631 6.65784 20.5631 5.95272 20.1282 5.51782C19.6933 5.08292 18.9883 5.08292 18.5534 5.51782L20.1282 7.09274ZM16.92 7.15115C16.4851 7.58605 16.4851 8.29117 16.92 8.72607C17.3549 9.16097 18.0599 9.16097 18.4948 8.72607L16.92 7.15115ZM8.72162 18.4993C9.15651 18.0644 9.15651 17.3594 8.72162 16.9245C8.28672 16.4896 7.5816 16.4896 7.1467 16.9245L8.72162 18.4993ZM5.51336 18.5578C5.07847 18.9927 5.07847 19.6977 5.51336 20.1326C5.94826 20.5675 6.65339 20.5675 7.08828 20.1326L5.51336 18.5578ZM7.08828 5.52227C6.65339 5.08738 5.94826 5.08738 5.51336 5.52227C5.07847 5.95717 5.07847 6.6623 5.51336 7.09719L7.08828 5.52227ZM7.1467 8.73053C7.5816 9.16542 8.28672 9.16542 8.72162 8.73053C9.15651 8.29563 9.15651 7.5905 8.72162 7.15561L7.1467 8.73053ZM5.91031 11.7086H3.60582V13.9359H5.91031V11.7086ZM11.7101 3.60582V5.91031H13.9374V3.60582H11.7101ZM18.5534 5.51782L16.92 7.15115L18.4948 8.72607L20.1282 7.09274L18.5534 5.51782ZM7.1467 16.9245L5.51336 18.5578L7.08828 20.1326L8.72162 18.4993L7.1467 16.9245ZM5.51336 7.09719L7.1467 8.73053L8.72162 7.15561L7.08828 5.52227L5.51336 7.09719Z" fill="#34C759"/>
</svg>
