<svg width="24" height="24" viewBox="0 0 24 24" fill="none" xmlns="http://www.w3.org/2000/svg">
<mask id="mask0_27511_84963" style="mask-type:luminance" maskUnits="userSpaceOnUse" x="2" y="2" width="20" height="20">
<path d="M22 2H2V22H22V2Z" fill="white"/>
</mask>
<g mask="url(#mask0_27511_84963)">
<path d="M12 2.83398C12 2.83398 4.5 4.95898 4.5 5.33398V12.9173C4.5 16.7506 10.0417 20.1256 11.5833 21.0423C11.7067 21.1248 11.8517 21.1686 12 21.1686C12.1484 21.1686 12.2934 21.1248 12.4166 21.0423C14 20.1673 19.5 16.7506 19.5 12.9173V5.33398C19.5 4.95898 12 2.83398 12 2.83398ZM17.8334 12.9173C17.8334 14.334 16.2916 16.834 12 19.334C7.70834 16.7923 6.16666 14.334 6.16666 12.9173V6.37565C7.20834 5.95898 9.20834 5.37565 11.1667 4.83398V14.459C11.1667 14.68 11.2545 14.8919 11.4107 15.0483C11.567 15.2045 11.779 15.2923 12 15.2923C12.221 15.2923 12.433 15.2045 12.5893 15.0483C12.7455 14.8919 12.8334 14.68 12.8334 14.459V4.83398C14.7916 5.37565 16.7916 6.00065 17.8334 6.37565V12.9173Z" fill="#3B82F6"/>
</g>
</svg>
