<svg width="24" height="24" viewBox="0 0 24 24" fill="none" xmlns="http://www.w3.org/2000/svg">
<path d="M12.6508 3.86838L17.9518 6.42118C18.3631 6.61924 18.6618 6.99381 18.7633 7.43885L20.0726 13.1749C20.1741 13.62 20.0675 14.0871 19.7829 14.444L16.1146 19.044C15.8299 19.4009 15.3983 19.6087 14.9418 19.6087H9.0582C8.60171 19.6087 8.17006 19.4009 7.88545 19.044L4.21708 14.444C3.93246 14.0871 3.82586 13.62 3.92743 13.1749L5.23666 7.43885C5.33824 6.99381 5.63695 6.61924 6.04823 6.42118L11.3492 3.86838C11.7605 3.67032 12.2395 3.67032 12.6508 3.86838Z" stroke="#3B82F6"/>
<path d="M12 15.5996L12 8.39961" stroke="#3B82F6" stroke-width="1.25" stroke-linecap="round" stroke-linejoin="round"/>
<path d="M9.11719 11.2788L11.9972 8.39881L14.8772 11.2788" stroke="#3B82F6" stroke-width="1.25" stroke-linecap="round" stroke-linejoin="round"/>
</svg>
