<svg width="24" height="24" viewBox="0 0 24 24" fill="none" xmlns="http://www.w3.org/2000/svg">
<path d="M17.0026 5.08984C18.0399 6.26507 18.6693 7.80881 18.6693 9.49955C18.6693 11.1903 18.0399 12.7341 17.0026 13.9092M7.0026 5.08984C5.96533 6.26507 5.33594 7.80881 5.33594 9.49955C5.33594 11.1903 5.96533 12.7341 7.0026 13.9092" stroke="#3B82F6" stroke-width="1.25" stroke-linecap="round" stroke-linejoin="round"/>
<path d="M14.4974 7.29688C15.0161 7.88448 15.3307 8.65636 15.3307 9.50172C15.3307 10.3471 15.0161 11.119 14.4974 11.7066M9.4974 7.29688C8.97876 7.88448 8.66406 8.65636 8.66406 9.50172C8.66406 10.3471 8.97876 11.119 9.4974 11.7066" stroke="#3B82F6" stroke-width="1.25" stroke-linecap="round" stroke-linejoin="round"/>
<path d="M12 9.5V18.6667" stroke="#3B82F6" stroke-width="1.25" stroke-linecap="round" stroke-linejoin="round"/>
</svg>
