<svg width="24" height="24" viewBox="0 0 24 24" fill="none" xmlns="http://www.w3.org/2000/svg">
<path d="M18.9915 11.0571C18.967 10.7474 18.9137 10.4406 18.8321 10.1406C18.6065 9.29802 18.1904 8.51723 17.6153 7.85714C17.4885 7.69506 17.347 7.54473 17.1927 7.408C17.4213 6.50857 16.9099 5.73029 16.9099 5.73029C16.0278 5.67771 15.4817 5.98971 15.2704 6.14514C15.2347 6.128 15.1989 6.11086 15.1642 6.11086C15.0234 6.05829 14.8641 5.98971 14.7059 5.95429C14.5466 5.90286 14.3884 5.86857 14.2291 5.81714C14.0709 5.78171 13.8943 5.74743 13.7176 5.712C13.683 5.712 13.6645 5.712 13.6299 5.69486C13.2419 4.50286 12.1486 4 12.1486 4C10.9318 4.76114 10.6847 5.83314 10.6847 5.83314C10.6847 5.83314 10.6847 5.85029 10.6662 5.90171L10.4549 5.95429C10.3672 5.98857 10.261 6.02286 10.1732 6.04114C10.0843 6.07543 9.97927 6.10971 9.89037 6.144C9.71373 6.23086 9.52093 6.31771 9.34428 6.40457C9.16764 6.50743 8.991 6.61143 8.83283 6.71543C8.81436 6.69829 8.79819 6.69829 8.79819 6.69829C7.10451 6.07543 5.60479 6.85371 5.60479 6.85371C5.46393 8.61829 6.27441 9.74286 6.45105 9.95086C6.41641 10.0537 6.38178 10.1749 6.34599 10.2789C6.22287 10.6872 6.12836 11.1034 6.06313 11.5246C6.06313 11.5931 6.04581 11.6457 6.04581 11.7143C4.45835 12.4411 4 13.9977 4 13.9977C5.30461 15.4686 6.84012 15.5714 6.84012 15.5714C7.03293 15.9177 7.26268 16.2286 7.50975 16.5406C7.61596 16.6617 7.72102 16.7829 7.84456 16.904C7.56225 17.7034 7.58732 18.5777 7.91498 19.36C9.37892 19.4114 10.3314 18.7371 10.5254 18.5817C10.6662 18.6331 10.8255 18.6686 10.9664 18.7029C11.4074 18.824 11.8669 18.8754 12.3241 18.9097H12.8898C13.5768 19.8789 14.7763 20 14.7763 20C15.6399 19.1177 15.6757 18.2354 15.6757 18.0457V18.0286V17.9943V17.96C15.8523 17.8377 16.0278 17.6994 16.1871 17.56C16.524 17.2541 16.8256 16.9122 17.0865 16.5406C17.1038 16.5063 17.1396 16.472 17.1569 16.4377C18.1267 16.4891 18.8148 15.8491 18.8148 15.8491C18.6555 14.8629 18.0736 14.3783 17.9501 14.2743L17.9328 14.2571H17.9155C17.9155 14.2571 17.8981 14.2571 17.8981 14.24C17.8981 14.1886 17.9155 14.1189 17.9155 14.0674C17.9155 13.9634 17.9328 13.8594 17.9328 13.7383V13.6V13.4103V13.3234V13.1497L17.9155 13.064C17.8981 12.96 17.8808 12.8389 17.845 12.7349C17.7465 12.3133 17.5796 11.9104 17.3509 11.5417C17.1233 11.1807 16.8441 10.8543 16.5219 10.5726C16.2084 10.3059 15.8581 10.0847 15.4817 9.91543C15.1181 9.7539 14.7313 9.64904 14.3353 9.60457C14.1413 9.58743 13.9474 9.57029 13.7534 9.57029H13.6634H13.4717C13.3655 9.58743 13.2766 9.58743 13.1715 9.60457C12.7836 9.67314 12.4303 9.81143 12.0955 10.0023C11.778 10.192 11.4952 10.4171 11.2666 10.6937C11.0409 10.9497 10.8616 11.2424 10.7366 11.5589C10.6163 11.8569 10.545 12.1722 10.5254 12.4926V12.9417C10.5427 13.0983 10.5785 13.2537 10.6143 13.392C10.702 13.6869 10.8255 13.9463 11.0022 14.1531C11.1603 14.3783 11.3716 14.5509 11.5841 14.7074C11.7953 14.8446 12.0251 14.9497 12.2537 15.0183C12.4834 15.0869 12.6947 15.1051 12.906 15.1051H13.1877C13.2235 15.1051 13.242 15.1051 13.2593 15.088C13.2766 15.088 13.3124 15.0709 13.3297 15.0709C13.3828 15.0526 13.4174 15.0526 13.4705 15.0366L13.7361 14.9314C13.8181 14.896 13.895 14.8499 13.9647 14.7943C13.982 14.776 13.9993 14.76 14.0178 14.76C14.0356 14.7475 14.0505 14.7312 14.0613 14.7123C14.072 14.6935 14.0785 14.6725 14.0801 14.6509C14.0818 14.6293 14.0786 14.6076 14.0708 14.5873C14.063 14.5671 14.0508 14.5488 14.0351 14.5337C13.982 14.4651 13.8943 14.448 13.8238 14.4994C13.8065 14.5166 13.7892 14.5166 13.7707 14.5337C13.7176 14.568 13.6472 14.5863 13.5768 14.6023L13.3655 14.6549C13.3308 14.6549 13.2951 14.672 13.2593 14.672H12.9245C12.5699 14.6274 12.2376 14.4767 11.972 14.24C11.8305 14.1167 11.7111 13.9706 11.6187 13.808C11.5253 13.6343 11.4599 13.4473 11.4247 13.2537C11.4074 13.1509 11.4074 13.064 11.4074 12.96V12.8389V12.8046C11.4074 12.752 11.4247 12.7006 11.4247 12.6491C11.4952 12.2331 11.7249 11.8183 12.0597 11.5063C12.1486 11.4206 12.2364 11.3509 12.3253 11.2994C12.413 11.2309 12.5181 11.1783 12.6243 11.1269C12.7305 11.0743 12.8356 11.04 12.9591 11.0057C13.0734 10.97 13.1926 10.9523 13.3124 10.9531H13.683C13.8065 10.9703 13.9474 10.9874 14.0709 11.0057C14.318 11.0571 14.5639 11.1429 14.7936 11.2823C15.252 11.5246 15.6399 11.9223 15.887 12.3897C16.0105 12.6309 16.0982 12.8731 16.134 13.1326C16.1513 13.2011 16.1513 13.2709 16.1513 13.3234V13.7383C16.1513 13.8069 16.134 13.8766 16.134 13.9463C16.134 14.0149 16.1167 14.0834 16.0994 14.1531L16.0463 14.3611C16.0116 14.4994 15.9574 14.6377 15.9043 14.776C15.7946 15.0455 15.6528 15.301 15.4817 15.5371C14.9505 16.2521 14.1602 16.7354 13.2766 16.8857C13.1357 16.904 12.9764 16.92 12.8356 16.9383H12.607C12.5365 16.9383 12.4476 16.9383 12.3772 16.9211C12.0599 16.8989 11.7462 16.841 11.4421 16.7486C11.1433 16.6618 10.854 16.5458 10.5785 16.4023C9.74527 15.9643 9.06339 15.2897 8.6204 14.4651C8.48311 14.1931 8.37104 13.9093 8.28559 13.6171C8.19784 13.3234 8.16205 13.0297 8.12742 12.7349V12.3897V12.2857C8.12742 12.1303 8.14473 11.9909 8.16205 11.8354C8.17937 11.68 8.21516 11.5246 8.23248 11.3863C8.26711 11.2297 8.3029 11.0914 8.33869 10.936C8.42321 10.6463 8.52933 10.3633 8.65619 10.0891C8.90326 9.552 9.23807 9.06857 9.6433 8.688C9.74952 8.584 9.85574 8.49714 9.9608 8.41029C10.067 8.32457 10.1732 8.25486 10.2956 8.16914C10.411 8.09598 10.5289 8.02661 10.6489 7.96114C10.702 7.92686 10.7724 7.90971 10.8255 7.87429C10.8528 7.85835 10.8824 7.84678 10.9133 7.84C10.9409 7.82395 10.9709 7.81238 11.0022 7.80571C11.1257 7.75314 11.2666 7.70171 11.3901 7.66743C11.4247 7.65029 11.4594 7.65029 11.4952 7.63314C11.5298 7.61486 11.5656 7.61486 11.6014 7.59886C11.6718 7.58057 11.7422 7.56343 11.7953 7.54629C11.83 7.52914 11.8658 7.52914 11.9015 7.52914C11.9362 7.52914 11.9708 7.51086 12.0066 7.51086C12.0412 7.51086 12.077 7.49371 12.1128 7.49371L12.1659 7.47657H12.219C12.2537 7.47657 12.2883 7.45943 12.3241 7.45943C12.3587 7.45943 12.3945 7.44229 12.4476 7.44229C12.4823 7.44229 12.5365 7.42514 12.5712 7.42514H13.4532C13.7188 7.44229 13.9647 7.45943 14.2117 7.51086C14.7059 7.59771 15.1815 7.75314 15.6053 7.96114C16.0278 8.16914 16.4157 8.41029 16.7332 8.688L16.7863 8.73943L16.8394 8.79086C16.8741 8.82514 16.9099 8.86057 16.963 8.89486L17.0692 8.99886L17.1743 9.10171C17.3163 9.24114 17.4398 9.39657 17.5622 9.552C17.7919 9.84686 17.9859 10.1406 18.1279 10.4343C18.1441 10.4514 18.1441 10.4686 18.1625 10.4869C18.1798 10.504 18.1798 10.5211 18.1798 10.5383L18.2329 10.6411L18.2861 10.7463L18.338 10.8491C18.3911 10.9886 18.4442 11.1097 18.48 11.2297C18.5493 11.4206 18.6036 11.5931 18.6382 11.7497C18.6555 11.8011 18.7086 11.8526 18.779 11.8354C18.7953 11.8359 18.8115 11.8331 18.8266 11.8272C18.8417 11.8213 18.8555 11.8124 18.867 11.8011C18.8786 11.7897 18.8877 11.7762 18.8938 11.7613C18.8999 11.7464 18.9029 11.7304 18.9026 11.7143C19.0088 11.4549 19.0088 11.2651 18.9915 11.0571Z" fill="#3B82F6"/>
</svg>
