<svg width="24" height="24" viewBox="0 0 24 24" fill="none" xmlns="http://www.w3.org/2000/svg">
<path d="M8.00688 7.46943L8.02688 7.48818L7.84313 7.67193C7.70975 7.80444 7.57889 7.93946 7.45063 8.07693C7.20438 8.34318 6.98563 8.64193 6.96438 8.72693H8.10187C8.1278 8.72815 8.15365 8.72325 8.17733 8.7126C8.201 8.70196 8.22183 8.68588 8.23813 8.66568C9.13718 7.6771 10.3868 7.07875 11.7206 6.99818C12.4926 6.94895 13.2658 7.07342 13.9834 7.36243C14.7009 7.65143 15.3445 8.09762 15.8669 8.66818C15.8795 8.68597 15.8962 8.70055 15.9155 8.71075C15.9348 8.72095 15.9563 8.72649 15.9781 8.72693L16.7219 8.72568H17.0906C17.1105 8.72345 17.1301 8.71969 17.1494 8.71443C16.8813 8.31996 16.5689 7.95758 16.2181 7.63443L16.2344 7.61818C16.5947 7.33317 16.8998 6.98448 17.1344 6.58943C17.3031 6.32318 17.4306 6.03193 17.5094 5.72693C17.5396 5.60862 17.5489 5.48594 17.5369 5.36443C17.5206 5.19943 17.4294 5.06068 17.2094 5.08693C17.1655 5.09179 17.1224 5.10143 17.0806 5.11568C16.9296 5.17038 16.7898 5.25213 16.6681 5.35693C16.1446 5.79003 15.7466 6.35546 15.5156 6.99443L15.4981 7.03193L15.4906 7.04568C15.4231 7.00818 15.3556 6.96818 15.2906 6.92943C15.1381 6.84193 14.9906 6.75443 14.8356 6.67693C14.6106 6.56443 14.3806 6.46443 14.1444 6.37693C13.7462 6.23445 13.3351 6.13105 12.9169 6.06818C12.8406 6.05568 12.7644 6.04318 12.6881 6.02818C12.8511 5.42325 12.8674 4.78816 12.7356 4.17568C12.6999 3.99675 12.638 3.82406 12.5519 3.66318C12.506 3.56751 12.4357 3.48561 12.3481 3.42568C12.3066 3.39733 12.2574 3.38238 12.2071 3.38282C12.1568 3.38327 12.1079 3.3991 12.0669 3.42818C12.0254 3.45629 11.988 3.48993 11.9556 3.52818C11.8705 3.63367 11.8056 3.75404 11.7644 3.88318C11.6794 4.12943 11.6269 4.38568 11.6081 4.64568C11.5655 5.0954 11.6006 5.5491 11.7119 5.98693L11.7169 6.01568C10.7152 6.07099 9.74214 6.36961 8.88188 6.88568L8.87063 6.87693C8.86723 6.87453 8.86427 6.87157 8.86188 6.86818C8.67887 6.42427 8.41621 6.01758 8.08687 5.66818C7.91292 5.4666 7.70366 5.29843 7.46937 5.17193C7.40583 5.13867 7.33874 5.11268 7.26938 5.09443C7.04813 5.04068 6.89688 5.15568 6.88188 5.38193L6.88062 5.41068V5.43068C6.87187 5.60568 6.91563 5.77068 6.97313 5.93318C7.18063 6.51318 7.52187 7.00318 7.96312 7.42818L8.00688 7.46943ZM16.2181 16.3757C16.5294 16.0882 16.8106 15.7694 17.0556 15.4257L17.0506 15.4044H16.6831C16.4331 15.4044 16.1831 15.4057 15.9331 15.4019C15.894 15.4002 15.8549 15.407 15.8186 15.4219C15.7824 15.4368 15.7498 15.4594 15.7231 15.4882C14.5356 16.6482 13.1156 17.1482 11.4669 16.9882C10.8597 16.9256 10.2696 16.7501 9.72688 16.4707C9.21407 16.2129 8.74804 15.8711 8.34812 15.4594C8.33211 15.4408 8.31209 15.4261 8.28958 15.4164C8.26706 15.4066 8.24263 15.4021 8.21812 15.4032L7.44813 15.4044H7.11437C7.08758 15.4043 7.06082 15.4064 7.03437 15.4107C7.32187 15.8144 7.65563 16.1819 8.03063 16.5069C8.02721 16.5148 8.02302 16.5224 8.01813 16.5294L7.98687 16.5582L7.96938 16.5757C7.57228 16.9473 7.25647 17.3972 7.04187 17.8969C6.96915 18.056 6.91827 18.2242 6.89063 18.3969C6.86569 18.5194 6.87433 18.6464 6.91563 18.7644C6.93082 18.8044 6.95605 18.8398 6.98889 18.8671C7.02174 18.8945 7.06108 18.9129 7.10313 18.9207C7.18063 18.9332 7.25938 18.9257 7.33188 18.8957C7.48592 18.8412 7.6287 18.7591 7.75313 18.6532C8.22313 18.2619 8.59437 17.7657 8.83437 17.2032L8.85937 17.1482L8.87313 17.1182C9.73239 17.6362 10.7051 17.9365 11.7069 17.9932L11.7106 18.0057C11.7131 18.0119 11.7144 18.0157 11.7131 18.0182C11.6482 18.2557 11.6101 18.4997 11.5994 18.7457C11.5794 19.0557 11.5956 19.3669 11.6469 19.6719C11.6869 19.8969 11.7419 20.1169 11.8494 20.3182C11.8869 20.3894 11.9331 20.4557 11.9869 20.5157C12.1219 20.6632 12.2881 20.6619 12.4281 20.5182C12.4601 20.4872 12.4874 20.4519 12.5094 20.4132C12.5644 20.3144 12.6131 20.2132 12.6556 20.1082C12.7431 19.8544 12.7956 19.5894 12.8106 19.3207C12.8499 18.8761 12.811 18.4281 12.6956 17.9969L12.6906 17.9694C13.0256 17.9319 13.3569 17.8694 13.6819 17.7819C14.0006 17.6919 14.3131 17.5782 14.6156 17.4407C14.919 17.2991 15.2114 17.1353 15.4906 16.9507L15.5019 16.9782L15.5156 17.0157C15.7456 17.6557 16.1444 18.2207 16.6694 18.6507C16.7694 18.7307 16.8756 18.7982 16.9906 18.8544C17.0656 18.8907 17.1444 18.9144 17.2281 18.9244C17.2888 18.935 17.3513 18.9231 17.4038 18.8909C17.4562 18.8586 17.4951 18.8083 17.5131 18.7494C17.5269 18.7073 17.5353 18.6636 17.5381 18.6194C17.5487 18.448 17.5227 18.2763 17.4619 18.1157C17.2318 17.4561 16.8238 16.873 16.2831 16.4307L16.2181 16.3757ZM15.5231 10.1694L15.6131 10.1707C15.6794 10.1719 15.7444 10.1744 15.8081 10.1682C15.9131 10.1582 15.9881 10.1957 16.0644 10.2669C16.3969 10.5732 16.7319 10.8769 17.0669 11.1794L17.3969 11.4794C17.4106 11.4919 17.4269 11.5044 17.4431 11.5207L17.4706 11.5444L17.4956 11.5219L17.5456 11.4782L18.9206 10.2257C18.9395 10.2062 18.9623 10.191 18.9875 10.1811C19.0128 10.1712 19.0398 10.1668 19.0669 10.1682C19.1818 10.1726 19.2969 10.173 19.4119 10.1694V13.8569C19.0897 13.8761 18.7667 13.877 18.4444 13.8594V11.9919L18.4256 11.9832L17.4719 12.8532L16.5106 11.9869L16.4919 11.9932V13.8669H15.5319C15.5144 13.8044 15.5069 10.3794 15.5244 10.1694H15.5231ZM7.61938 10.1732H6.66563V11.4807C6.26995 11.4986 5.87363 11.497 5.47812 11.4757V10.1757H4.51562V13.8594C4.59563 13.8782 5.41063 13.8769 5.48313 13.8544V12.4644H6.66563V13.3932C6.66563 13.5507 6.66438 13.7094 6.66813 13.8682H7.62313C7.64313 13.7782 7.63938 10.2344 7.61938 10.1732ZM8.76313 13.8657V10.1857C8.81938 10.1682 10.9169 10.1607 11.0544 10.1794V10.9632L11.0356 10.9657H11.0256C11.004 10.9679 10.9823 10.9692 10.9606 10.9694H9.73563V11.5807H10.9031V12.3932H9.74563C9.72468 12.6218 9.72175 12.8516 9.73688 13.0807L9.76563 13.0819C9.78688 13.0844 9.80812 13.0857 9.83062 13.0857H11.0544V13.8669L8.76313 13.8657ZM12.1519 10.1732C12.1344 10.2419 12.1306 13.7682 12.1481 13.8669H14.4381V12.9019H13.2069L13.1406 12.8982L13.1031 12.8957V10.1744L12.1519 10.1732Z" fill="#3B82F6"/>
</svg>
