<svg width="24" height="24" viewBox="0 0 24 24" fill="none" xmlns="http://www.w3.org/2000/svg">
<mask id="mask0_27511_84953" style="mask-type:luminance" maskUnits="userSpaceOnUse" x="2" y="2" width="20" height="20">
<path d="M22 2H2V22H22V2Z" fill="white"/>
</mask>
<g mask="url(#mask0_27511_84953)">
<path d="M12 5C14.2084 5.625 16.625 6.375 17.8334 6.79166V13.3334C17.8334 14.75 16.2916 17.25 12 19.75C7.70834 17.2084 6.16666 14.75 6.16666 13.3334V6.79166C7.375 6.33334 9.79166 5.625 12 5ZM12 3.25C12 3.25 4.5 5.375 4.5 5.75V13.3334C4.5 17.1666 10.0417 20.5416 11.5833 21.4584C11.7067 21.5407 11.8517 21.5848 12 21.5848C12.1484 21.5848 12.2934 21.5407 12.4166 21.4584C14 20.5834 19.5 17.1666 19.5 13.3334V5.75C19.5 5.375 12 3.25 12 3.25Z" fill="#3B82F6"/>
<path d="M14.8325 9.9808V12.8736C14.8325 14.0308 14.254 14.6093 13.0968 14.6093H10.7826C9.62544 14.6093 9.04688 14.0308 9.04688 12.8736V9.9808C9.04688 8.82368 9.62544 8.24512 10.7826 8.24512H13.0968C14.254 8.24512 14.8325 8.82368 14.8325 9.9808Z" stroke="#3B82F6" stroke-width="0.75" stroke-linecap="round" stroke-linejoin="round"/>
<path d="M15.9982 11.4287H7.89844" stroke="#3B82F6" stroke-width="0.75" stroke-linecap="round" stroke-linejoin="round"/>
</g>
</svg>
