<svg width="24" height="24" viewBox="0 0 24 24" fill="none" xmlns="http://www.w3.org/2000/svg">
<path d="M3.77871 12.4409L6.00093 12.4507C6.17047 12.4506 6.33366 12.5151 6.45732 12.6311C6.58097 12.7471 6.65578 12.9058 6.66654 13.075C6.6773 13.2442 6.62319 13.4112 6.51523 13.5419C6.40727 13.6726 6.25356 13.7573 6.08538 13.7787L5.99471 13.784L4.44271 13.776V18.6658L5.99826 18.6667C6.15921 18.6669 6.31465 18.7253 6.43587 18.8312C6.5571 18.9371 6.63593 19.0832 6.65782 19.2427L6.66493 19.3333C6.66492 19.4944 6.60658 19.6501 6.50069 19.7715C6.39481 19.8929 6.24853 19.9719 6.08893 19.9938L5.99826 20H3.77604C3.61509 19.9998 3.45966 19.9413 3.33844 19.8355C3.21721 19.7296 3.13837 19.5835 3.11649 19.424L3.10938 19.3333V13.1076C3.10925 12.9459 3.16787 12.7897 3.27432 12.6681C3.38077 12.5464 3.5278 12.4676 3.68804 12.4462L3.77871 12.4409ZM20.216 17.3333C20.385 17.3334 20.5475 17.3976 20.671 17.5129C20.7944 17.6282 20.8694 17.786 20.881 17.9546C20.8925 18.1231 20.8396 18.2897 20.733 18.4207C20.6264 18.5517 20.474 18.6374 20.3067 18.6604L20.216 18.6667H8.21871C8.04988 18.6664 7.88743 18.6021 7.76418 18.4867C7.64093 18.3713 7.56604 18.2134 7.55465 18.045C7.54325 17.8765 7.5962 17.71 7.70278 17.5791C7.80937 17.4482 7.96167 17.3626 8.12893 17.3396L8.21871 17.3333H20.216ZM20.216 13.7778C20.385 13.7778 20.5475 13.842 20.671 13.9573C20.7944 14.0726 20.8694 14.2305 20.881 14.399C20.8925 14.5675 20.8396 14.7341 20.733 14.8652C20.6264 14.9962 20.474 15.0819 20.3067 15.1049L20.216 15.1111H8.21871C8.04988 15.1108 7.88743 15.0465 7.76418 14.9311C7.64093 14.8157 7.56604 14.6579 7.55465 14.4894C7.54325 14.321 7.5962 14.1545 7.70278 14.0236C7.80937 13.8926 7.96167 13.807 8.12893 13.784L8.21871 13.7778H20.216ZM3.77871 4L6.00093 4.00978C6.17047 4.0097 6.33366 4.07423 6.45732 4.19021C6.58097 4.3062 6.65578 4.46494 6.66654 4.63414C6.6773 4.80333 6.62319 4.97027 6.51523 5.10099C6.40727 5.2317 6.25356 5.31638 6.08538 5.33778L5.99471 5.34311L4.44271 5.336V10.2178H5.99826C6.15921 10.218 6.31465 10.2764 6.43587 10.3823C6.5571 10.4882 6.63593 10.6343 6.65782 10.7938L6.66404 10.8844C6.66404 11.0455 6.60569 11.2012 6.4998 11.3226C6.39392 11.444 6.24765 11.523 6.08804 11.5449L5.99738 11.5511H3.77515C3.61421 11.5509 3.45877 11.4925 3.33755 11.3866C3.21632 11.2807 3.13749 11.1346 3.1156 10.9751L3.10938 10.8844V4.66667C3.10925 4.50501 3.16787 4.34882 3.27432 4.22716C3.38077 4.10551 3.5278 4.02667 3.68804 4.00533L3.77871 4ZM20.216 8.89244C20.385 8.8925 20.5475 8.95666 20.671 9.07198C20.7944 9.18729 20.8694 9.34515 20.881 9.51367C20.8925 9.68219 20.8396 9.84879 20.733 9.97982C20.6264 10.1108 20.474 10.1965 20.3067 10.2196L20.216 10.2258H8.21871C8.04988 10.2255 7.88743 10.1612 7.76418 10.0458C7.64093 9.93041 7.56604 9.77256 7.55465 9.60411C7.54325 9.43566 7.5962 9.26916 7.70278 9.13823C7.80937 9.00729 7.96167 8.92168 8.12893 8.89867L8.21871 8.89244H20.216ZM20.2205 5.33689C20.3894 5.33694 20.552 5.40111 20.6754 5.51642C20.7988 5.63173 20.8739 5.7896 20.8854 5.95812C20.8969 6.12663 20.844 6.29324 20.7374 6.42427C20.6308 6.55529 20.4785 6.64098 20.3112 6.664L20.2205 6.67022H8.22404C8.05513 6.67017 7.89254 6.606 7.76912 6.49069C7.64569 6.37538 7.57064 6.21751 7.55913 6.049C7.54762 5.88048 7.6005 5.71387 7.70709 5.58285C7.81369 5.45182 7.96604 5.36613 8.13338 5.34311L8.22404 5.33689H20.2205Z" fill="#3B82F6"/>
</svg>
