<svg width="24" height="24" viewBox="0 0 24 24" fill="none" xmlns="http://www.w3.org/2000/svg">
<path d="M12.0009 20.7509C10.4347 20.7509 9.16406 19.7047 9.16406 18.4141H14.8372C14.8378 19.7041 13.5678 20.7509 12.0009 20.7509Z" fill="#3B82F6"/>
<path d="M16.6831 17.6369H7.3125V15.9375H16.6837V17.6369H16.6831Z" fill="#3B82F6"/>
<path d="M16.6519 15.0619H7.34126C7.31001 15.0263 7.27876 14.9913 7.24876 14.955C6.62108 14.2634 6.14279 13.4498 5.84376 12.565C5.84001 12.5444 7.00688 12.8031 7.83438 12.9894C7.83438 12.9894 8.26001 13.0881 8.88251 13.2013C8.27947 12.5067 7.94201 11.621 7.93001 10.7013C7.93001 8.70125 9.46251 6.95625 8.91001 5.545C9.44813 5.58875 10.0238 6.68063 10.0625 8.38813C10.608 7.43971 10.8886 6.36214 10.875 5.26813C10.875 4.35125 11.4788 3.28688 12.0831 3.25C11.5444 4.1375 12.2225 4.89875 12.8256 6.78625C13.0519 7.495 13.0231 8.68875 13.1975 9.445C13.2556 7.87313 13.5256 5.58 14.5225 4.78875C14.085 5.78875 14.585 7.03313 14.9331 7.63313C15.5386 8.54728 15.8508 9.62438 15.8281 10.7206C15.825 11.6334 15.4981 12.5155 14.9056 13.21C15.5638 13.085 16.0188 12.975 16.0188 12.975L18.1569 12.5581C17.8668 13.5029 17.3501 14.3624 16.6519 15.0619Z" fill="#3B82F6"/>
</svg>
