<svg width="24" height="24" viewBox="0 0 24 24" fill="none" xmlns="http://www.w3.org/2000/svg">
<g clip-path="url(#clip0_27511_84971)">
<path d="M10.4795 6.28516H6.67001C6.45962 6.28516 6.28906 6.66892 6.28906 7.1423C6.28906 7.61568 6.45962 7.99944 6.67001 7.99944H10.4795C10.6899 7.99944 10.8605 7.61568 10.8605 7.1423C10.8605 6.66892 10.6899 6.28516 10.4795 6.28516Z" fill="#3B82F6"/>
<path d="M4.86426 7.28059C4.86314 7.01591 4.75709 6.76247 4.56937 6.57584C4.17947 6.18826 3.54976 6.18826 3.15986 6.57584C2.97213 6.76247 2.86607 7.01591 2.86497 7.28059C2.85751 7.34535 2.85751 7.41076 2.86497 7.47552C2.87627 7.54066 2.89471 7.60435 2.91996 7.66546C2.94679 7.72465 2.97856 7.78151 3.01492 7.83539C3.05081 7.89144 3.09271 7.94339 3.13988 7.99034C3.18536 8.03564 3.23562 8.07587 3.28982 8.1103C3.34246 8.14863 3.39953 8.18052 3.45976 8.20527C3.52602 8.23963 3.59665 8.26487 3.66969 8.28024C3.73445 8.28748 3.79986 8.28748 3.86462 8.28024C4.12859 8.28046 4.38194 8.17625 4.56937 7.99034C4.61654 7.94339 4.65844 7.89144 4.69433 7.83539C4.73069 7.78151 4.76246 7.72465 4.78929 7.66546C4.82119 7.60511 4.84633 7.5414 4.86426 7.47552C4.87174 7.41076 4.87174 7.34535 4.86426 7.28059Z" fill="#3B82F6"/>
<path d="M4.86649 11.7767C4.87392 11.7119 4.87392 11.6465 4.86649 11.5818C4.84921 11.5172 4.82403 11.4551 4.79152 11.3968C4.76577 11.3355 4.73394 11.2769 4.69655 11.2219C4.66191 11.1665 4.61985 11.116 4.57159 11.0719C4.1817 10.6844 3.55198 10.6844 3.16209 11.0719C2.97434 11.2586 2.86828 11.512 2.86719 11.7767C2.86913 11.9084 2.89452 12.0387 2.94216 12.1616C2.96722 12.2207 2.99734 12.2776 3.03214 12.3315C3.07015 12.3858 3.1137 12.4361 3.16209 12.4815C3.20626 12.5296 3.25667 12.5717 3.31203 12.6064C3.36467 12.6448 3.42171 12.6767 3.48198 12.7014C3.54292 12.727 3.60668 12.7455 3.67191 12.7563C3.73585 12.7706 3.8013 12.7774 3.86683 12.7763C3.9316 12.7838 3.99702 12.7838 4.06177 12.7763C4.12537 12.7655 4.18747 12.747 4.24671 12.7214C4.30859 12.6968 4.36732 12.6649 4.42164 12.6264C4.477 12.5917 4.52742 12.5496 4.57159 12.5015C4.61976 12.4573 4.6618 12.4069 4.69655 12.3515C4.73497 12.2989 4.76687 12.2418 4.79152 12.1816C4.82566 12.1152 4.85087 12.0446 4.86649 11.9716C4.87417 11.9069 4.87417 11.8415 4.86649 11.7767Z" fill="#3B82F6"/>
<path d="M4.86654 16.2767C4.87395 16.2119 4.87395 16.1465 4.86654 16.0817C4.84927 16.0157 4.82408 15.9519 4.79157 15.8918C4.76474 15.8326 4.73296 15.7758 4.6966 15.7219C4.66187 15.6665 4.61982 15.6161 4.57165 15.5719C4.18175 15.1844 3.55204 15.1844 3.16214 15.5719C3.11397 15.6161 3.07192 15.6665 3.03718 15.7219C3.00083 15.7758 2.96906 15.8326 2.94222 15.8918C2.91629 15.9527 2.89783 16.0165 2.88724 16.0817C2.87315 16.1457 2.86646 16.2112 2.86725 16.2767C2.86837 16.5414 2.97443 16.7949 3.16214 16.9815C3.20631 17.0296 3.25674 17.0717 3.31208 17.1064C3.36472 17.1448 3.42176 17.1767 3.48203 17.2014C3.54298 17.227 3.60674 17.2455 3.67196 17.2564C3.73591 17.2707 3.80135 17.2774 3.8669 17.2764C3.93165 17.2838 3.99707 17.2838 4.06182 17.2764C4.12543 17.2655 4.18754 17.247 4.24676 17.2214C4.30864 17.1968 4.36738 17.1649 4.4217 17.1264C4.47706 17.0917 4.52748 17.0496 4.57165 17.0015C4.61982 16.9573 4.66187 16.9069 4.6966 16.8516C4.73506 16.7989 4.76695 16.7419 4.79157 16.6816C4.82568 16.6152 4.8509 16.5446 4.86654 16.4717C4.87423 16.4069 4.87423 16.3415 4.86654 16.2767Z" fill="#3B82F6"/>
<path d="M11.5638 10.8555H6.72863C6.48586 10.8555 6.28906 11.2392 6.28906 11.7126C6.28906 12.186 6.48586 12.5698 6.72863 12.5698H11.5638C11.8065 12.5698 12.0033 12.186 12.0033 11.7126C12.0033 11.2392 11.8065 10.8555 11.5638 10.8555Z" fill="#3B82F6"/>
<path d="M10.3227 15.4297H6.82688C6.52985 15.4297 6.28906 15.8135 6.28906 16.2868C6.28906 16.7602 6.52985 17.144 6.82688 17.144H10.3227C10.6197 17.144 10.8605 16.7602 10.8605 16.2868C10.8605 15.8135 10.6197 15.4297 10.3227 15.4297Z" fill="#3B82F6"/>
<path d="M16.4702 9.66422C16.0807 9.74107 15.86 9.82736 15.8982 9.9514C15.9337 10.065 16.1795 10.1641 16.5683 10.2234C16.9552 10.2859 17.4712 10.3202 18.0739 10.3919C18.9506 10.495 19.8209 10.7217 20.6834 10.9975C20.7697 11.2182 20.8499 11.4597 20.9198 11.6927C21.0073 11.988 21.0811 12.2839 21.1392 12.5835C21.2495 13.1814 21.3086 13.786 21.2502 14.3633C21.1822 15.19 20.8278 15.9327 20.1912 16.4019C20.0337 16.5201 19.8618 16.6252 19.6792 16.7079C19.5883 16.7575 19.4964 16.7907 19.4051 16.8264L19.2684 16.8814C19.2199 16.8987 19.1595 16.9132 19.1078 16.9284C18.6975 17.0574 18.2924 17.1158 17.865 17.1268C17.0174 17.1444 16.1546 16.9603 15.3255 16.6737C14.4956 16.3846 13.6905 15.9896 12.9232 15.5328C12.5753 15.2973 12.2327 15.0493 11.8993 14.7935C11.6784 14.6246 11.4582 14.4471 11.2485 14.2672C11.3569 14.1524 11.4769 14.0625 11.607 14.0035C11.8343 13.9101 12.1009 13.8877 12.3883 13.9408C12.5302 13.9651 12.6743 14.0109 12.8119 14.0639C12.8484 14.0773 12.8771 14.0926 12.911 14.1067L13.0335 14.1661L13.2804 14.2816L14.2722 14.7372C14.3719 14.7827 14.4896 14.7988 14.6057 14.7737C14.8876 14.7116 15.0643 14.4304 15.0022 14.1485L14.9996 14.138C14.7314 12.9398 14.4553 11.7435 14.176 10.5452L13.7523 8.74614L13.3154 6.97242L13.3147 6.9698C13.2915 6.8616 13.3122 6.7512 13.3727 6.65622C13.4032 6.61003 13.4409 6.57047 13.4864 6.54012C13.5055 6.52722 13.537 6.50854 13.5521 6.50214C13.5547 6.5015 13.5574 6.50087 13.5594 6.49762C13.562 6.49699 13.5614 6.49436 13.5798 6.48995L13.6238 6.47663L13.6315 6.47473L13.6342 6.4741C13.7418 6.44827 13.8548 6.46831 13.9491 6.52614C14.0435 6.58395 14.11 6.67619 14.1332 6.7844C14.1377 6.80276 14.1427 6.82375 14.1497 6.84148L14.1504 6.84411C14.4439 7.65051 14.7368 8.4543 15.0296 9.25808C15.1291 9.53387 15.378 9.93475 15.4914 10.049C15.7145 10.273 15.69 9.88204 15.574 9.32992C15.3962 8.47355 15.1543 7.54656 14.8695 6.5799C14.8713 6.58777 14.8738 6.59826 14.8784 6.60551C14.8255 6.31575 14.6527 6.03534 14.3978 5.85232C14.1431 5.66931 13.8067 5.58633 13.4816 5.64218L13.4521 5.64649L13.4364 5.65027L13.4338 5.6509L13.4154 5.65531L13.4102 5.65657L13.3656 5.66728C13.3498 5.67106 13.3393 5.67358 13.3184 5.67862L13.252 5.70287C13.206 5.71945 13.1686 5.73676 13.1311 5.75409C13.0937 5.7714 13.0575 5.79398 13.0212 5.81655C12.8791 5.90618 12.7548 6.02479 12.6548 6.16259C12.4658 6.42718 12.3833 6.77719 12.4378 7.10819C12.4384 7.12194 12.4383 7.13307 12.4414 7.14619L12.4446 7.1593C12.4879 7.35146 12.5287 7.54425 12.572 7.73641C12.6958 8.28665 12.8234 8.84151 12.9407 9.38775L13.3002 11.0469C13.474 11.8404 13.6452 12.6345 13.8192 13.428L13.6882 13.3679L13.4418 13.255L13.32 13.1982C13.2705 13.1768 13.2203 13.1527 13.1688 13.1347C12.9673 13.0581 12.7636 12.996 12.5473 12.962C12.1214 12.8867 11.6309 12.9128 11.184 13.12C11.0787 13.1785 10.9676 13.2358 10.8707 13.3062C10.781 13.3832 10.6783 13.4523 10.5995 13.5406C10.5235 13.6281 10.4383 13.7125 10.3746 13.8055L10.1926 14.0878C10.0671 14.2816 10.0993 14.5431 10.2811 14.6992L10.3052 14.7184C10.4935 14.8785 10.6656 15.0176 10.8495 15.1593C11.0327 15.2985 11.2153 15.435 11.4052 15.567C11.7797 15.8324 12.1648 16.084 12.5624 16.3187C13.3552 16.7888 14.189 17.1991 15.0769 17.4993C15.4121 17.6241 15.752 17.734 16.1059 17.8211C16.4552 17.912 16.8171 17.975 17.182 18.015C17.6265 18.0637 18.0847 18.0647 18.54 18.0081C18.6546 18 18.7681 17.9756 18.8802 17.9569L19.0499 17.9245L19.0604 17.922L19.0657 17.9207L19.092 17.9144L19.1103 17.9101L19.1471 17.9012L19.2225 17.8804C19.3242 17.8532 19.4212 17.8299 19.527 17.7961L19.8716 17.6718C20.3119 17.494 20.7304 17.2492 21.0928 16.9096C21.4539 16.5759 21.7386 16.1552 21.9254 15.708C22.1148 15.2601 22.2075 14.7911 22.2446 14.3327C22.2783 13.8723 22.2556 13.4199 22.197 12.9789C22.1356 12.5385 22.0409 12.1089 21.9178 11.689C21.8563 11.479 21.7902 11.2729 21.7155 11.066C21.6799 10.9636 21.639 10.8624 21.5974 10.7586C21.5558 10.6548 21.5161 10.5589 21.4635 10.4439L21.4584 10.434C21.4007 10.3091 21.2903 10.208 21.1474 10.1674C20.1593 9.87738 19.1404 9.64468 18.0914 9.57467C17.4486 9.53201 16.859 9.58474 16.4702 9.66422Z" fill="#3B82F6"/>
</g>
<defs>
<clipPath id="clip0_27511_84971">
<rect width="20" height="20" fill="white" transform="translate(2 2)"/>
</clipPath>
</defs>
</svg>
