<svg width="24" height="24" viewBox="0 0 24 24" fill="none" xmlns="http://www.w3.org/2000/svg">
<path d="M12.008 8.69685C10.7156 8.69685 9.66406 7.64328 9.66406 6.34842C9.66406 5.05356 10.7156 4 12.008 4C13.3004 4 14.352 5.05356 14.352 6.34842C14.352 7.64328 13.3004 8.69685 12.008 8.69685Z" fill="#3B82F6"/>
<path d="M4.31335 17.4186C3.66739 16.2971 4.05239 14.8582 5.17173 14.2106C6.31405 13.5504 7.73704 13.9662 8.3736 15.0702C9.02121 16.1933 8.63737 17.6289 7.51568 18.2781C6.39184 18.9275 4.96056 18.541 4.31335 17.4186Z" fill="#3B82F6"/>
<path d="M16.4851 18.2781C15.3642 17.6293 14.9792 16.194 15.6272 15.0702C16.2637 13.9662 17.6867 13.5504 18.8291 14.2106C19.9484 14.8583 20.3334 16.2971 19.6875 17.4186C19.0411 18.5396 17.6106 18.9284 16.4851 18.2781Z" fill="#3B82F6"/>
<path d="M5.92011 12.6132L4.98438 12.5619C5.10614 10.34 6.29095 8.28332 8.15327 7.05957L8.66784 7.84482C7.05317 8.90577 6.02631 10.6886 5.92011 12.6132Z" fill="#3B82F6"/>
<path d="M18.0837 12.6132C17.9775 10.6886 16.9506 8.90574 15.3359 7.84482L15.8505 7.05957C17.7129 8.28332 18.8976 10.34 19.0194 12.5619L18.0837 12.6132Z" fill="#3B82F6"/>
<path d="M11.998 19.9997C10.8827 19.9997 9.81652 19.7456 8.82812 19.2452L9.25113 18.4067C10.9633 19.2746 13.0326 19.2746 14.7447 18.4067L15.1678 19.2452C14.1794 19.7456 13.1132 19.9997 11.998 19.9997Z" fill="#3B82F6"/>
</svg>
