<svg width="24" height="24" viewBox="0 0 24 24" fill="none" xmlns="http://www.w3.org/2000/svg">
<path d="M6.20754 5.56984H16.4932V12.6412H17.779V4.28418H4.92188V19.7127H11.9932V18.427H6.20754V5.56984Z" fill="#3B82F6"/>
<path d="M7.49219 6.85547H15.2065V8.14113H7.49219V6.85547ZM7.49219 9.42697H13.9207V10.7126H7.49219V9.42697ZM7.49219 11.9983H11.3494V13.284H7.49219V11.9983ZM15.8479 13.2841C14.0727 13.2841 12.6336 14.7233 12.6336 16.4985C12.6336 18.2737 14.0727 19.7128 15.8479 19.7128C17.6232 19.7128 19.0623 18.2737 19.0623 16.4985C19.0623 14.7233 17.6232 13.2841 15.8479 13.2841ZM15.8479 18.427C14.7845 18.427 13.9195 17.5618 13.9195 16.4985C13.9195 15.435 14.7846 14.57 15.8479 14.57C16.9114 14.57 17.7764 15.4352 17.7764 16.4985C17.7764 17.5618 16.9113 18.427 15.8479 18.427Z" fill="#3B82F6"/>
<path d="M15.618 16.6699L14.8701 15.9996L14.2266 16.7179L15.7035 18.041L17.5137 15.9585L16.7861 15.3257L15.618 16.6699Z" fill="#3B82F6"/>
</svg>
