<svg width="24" height="24" viewBox="0 0 24 24" fill="none" xmlns="http://www.w3.org/2000/svg">
<path d="M9.84375 17.9735C11.5238 21.4742 14.526 23.1102 14.526 16.2781C14.526 7.73801 17.2794 10.8755 18.5394 14.6554" stroke="#3B82F6"/>
<path d="M9.85192 17.9255C10.7755 17.9255 11.5242 17.1768 11.5242 16.2533C11.5242 15.3297 10.7755 14.5811 9.85192 14.5811C8.92837 14.5811 8.17969 15.3297 8.17969 16.2533C8.17969 17.1768 8.92837 17.9255 9.85192 17.9255Z" stroke="#3B82F6"/>
<path d="M18.5316 17.9255C19.4552 17.9255 20.2038 17.1768 20.2038 16.2533C20.2038 15.3297 19.4552 14.5811 18.5316 14.5811C17.6081 14.5811 16.8594 15.3297 16.8594 16.2533C16.8594 17.1768 17.6081 17.9255 18.5316 17.9255Z" stroke="#3B82F6"/>
<g opacity="0.7">
<path d="M12.2656 8.84343C10.8913 11.7071 8.43539 13.0454 8.43539 7.45656C8.4354 0.470504 6.18306 3.03705 5.15234 6.12911" stroke="#3B82F6" stroke-width="0.75"/>
<path d="M12.2649 8.80375C11.5094 8.80375 10.8969 8.1913 10.8969 7.43581C10.8969 6.68032 11.5094 6.06787 12.2649 6.06787C13.0204 6.06787 13.6328 6.68032 13.6328 7.43581C13.6328 8.1913 13.0204 8.80375 12.2649 8.80375Z" stroke="#3B82F6" stroke-width="0.75"/>
<path d="M5.17112 8.80375C4.41563 8.80375 3.80318 8.1913 3.80318 7.43581C3.80318 6.68032 4.41563 6.06787 5.17112 6.06787C5.92661 6.06787 6.53906 6.68032 6.53906 7.43581C6.53906 8.1913 5.92661 8.80375 5.17112 8.80375Z" stroke="#3B82F6" stroke-width="0.75"/>
</g>
</svg>
