<svg width="24" height="24" viewBox="0 0 24 24" fill="none" xmlns="http://www.w3.org/2000/svg">
<path d="M6.58594 14.5642C8.67896 18.9255 12.4193 20.9637 12.4193 12.452C12.4193 1.81245 15.8495 5.72124 17.4193 10.4304" stroke="#3B82F6"/>
<path d="M6.59896 14.5026C7.74955 14.5026 8.68229 13.5699 8.68229 12.4193C8.68229 11.2687 7.74955 10.3359 6.59896 10.3359C5.44837 10.3359 4.51562 11.2687 4.51562 12.4193C4.51562 13.5699 5.44837 14.5026 6.59896 14.5026Z" stroke="#3B82F6"/>
<path d="M17.4115 14.5026C18.5621 14.5026 19.4948 13.5699 19.4948 12.4193C19.4948 11.2687 18.5621 10.3359 17.4115 10.3359C16.2609 10.3359 15.3281 11.2687 15.3281 12.4193C15.3281 13.5699 16.2609 14.5026 17.4115 14.5026Z" stroke="#3B82F6"/>
</svg>
