<svg width="14" height="14" viewBox="0 0 14 14" fill="none" xmlns="http://www.w3.org/2000/svg">
<path d="M2 2.16667V11.5C2 12.1434 2.52325 12.6667 3.16667 12.6667H10.1667C10.8101 12.6667 11.3333 12.1434 11.3333 11.5V4.5C11.3334 4.42339 11.3184 4.34751 11.289 4.27674C11.2597 4.20596 11.2167 4.14168 11.1624 4.08758L8.24575 1.17092C8.19167 1.11664 8.12739 1.0736 8.05661 1.04427C7.98583 1.01493 7.90995 0.999889 7.83333 1H3.16667C2.52325 1 2 1.52325 2 2.16667ZM10.1667 4.7415L10.1672 11.5H3.16667V2.16667H7.59183L10.1667 4.7415Z" fill="#9F9F9F"/>
<path d="M4.66797 3.5H5.83464V5.83333H4.66797V3.5ZM7.0013 3.5H8.16797V5.83333H7.0013V3.5Z" fill="#9F9F9F"/>
</svg>
