<svg width="36" height="36" viewBox="0 0 36 36" fill="none" xmlns="http://www.w3.org/2000/svg">
<path d="M16.8796 27.3788L23.9524 26.1282L24.0179 26.1134L20.3801 21.7848C19.1601 20.3411 17.9468 18.8919 16.7401 17.4371C16.7401 17.416 20.4984 7.06653 20.5195 7.03061C22.5988 10.5904 24.6649 14.1578 26.7178 17.7329L32.9498 28.5386L32.9984 28.621L9.87006 28.6189L16.8796 27.3788ZM3 26.0606C3 26.0543 4.71329 23.0777 6.80896 19.4462L10.62 12.8402L15.0606 9.1136C17.5028 7.06653 19.5076 5.38281 19.5139 5.38281C19.4982 5.44531 19.4748 5.50563 19.4442 5.56238L14.6191 15.9055L9.88696 26.0627L6.44348 26.0669C4.54851 26.0691 3 26.0669 3 26.0606Z" fill="#0089D6"/>
</svg>
