<svg xmlns="http://www.w3.org/2000/svg" viewBox="0 0 24 24" width="24" height="24"><path d="M12 6.853c-4.72 0-8.547-1.333-8.547-3.093v16.48c0 1.693 3.76 3.067 8.427 3.093H12c4.72 0 8.547-1.333 8.547-3.093V3.76c0 1.72-3.827 3.093-8.547 3.093" fill="url(#e291aba6-8038-4db1-a04d-c7be74f5a3e6)"/><path d="M20.547 3.76c0 1.72-3.827 3.093-8.547 3.093S3.453 5.52 3.453 3.76 7.28.667 12 .667 20.547 2 20.547 3.76" fill="#e8e8e8"/><path d="M18.56 3.507C18.56 4.6 15.613 5.48 12 5.48S5.44 4.6 5.44 3.507s2.947-1.96 6.56-1.96 6.56.88 6.56 1.96" fill="#50e6ff"/><path d="M12 4a15.5 15.5 0 0 0-5.187.76A15.2 15.2 0 0 0 12 5.48a14.9 14.9 0 0 0 5.187-.773A15.7 15.7 0 0 0 12 4" fill="#198ab3"/><path d="M16.853 12v2.173H15.52a.53.53 0 0 1-.387-.187V12h-1.8v2.373a1.227 1.227 0 0 0 1.333 1.187h1.987l.347-.173s-.147.547-.347.573H13.48v1.333h3.547a1.613 1.613 0 0 0 1.64-1.693V12Zm-4.146 0v-.653a.93.93 0 0 0-.64-1.027 2.3 2.3 0 0 0-.667-.107 1.25 1.25 0 0 0-1.213.773l-1.04 2.533-1.333-2.533a1.24 1.24 0 0 0-1.147-.773 1.9 1.9 0 0 0-.68.12c-.467.147-.573.453-.573.973v4.413h1.56v-2.972l.84 2.093a1.44 1.44 0 0 0 1.333.88c.587 0 .827-.347 1.067-.88l.893-2.013v2.867h1.573V12Z" fill="#f2f2f2"/></svg>