<svg xmlns="http://www.w3.org/2000/svg" viewBox="0 0 24 24" width="24" height="24"><path fill="url(#a)" d="M.64.28h22.4a.8.8 0 0 1 .8.8v14.4a.8.8 0 0 1-.8.8H.64a.8.8 0 0 1-.8-.8V1.08a.8.8 0 0 1 .8-.8"/><path fill="#50e6ff" d="M15.84 5.947V10.6l-4 2.347V8.28z"/><path fill="#c3f1ff" d="m15.84 5.947-4 2.347-4-2.347 4-2.333z"/><path fill="#9cebff" d="M11.84 8.293v4.653l-4-2.347V5.947z"/><path fill="#c3f1ff" d="m7.84 10.6 4-2.32v4.667z"/><path fill="#9cebff" d="m15.84 10.6-4-2.32v4.667z"/><path d="M16.653 21.12c-2.373-.373-2.467-2.08-2.467-4.84H9.48c0 2.76-.08 4.467-2.453 4.84a1.333 1.333 0 0 0-1.187 1.333h12a1.333 1.333 0 0 0-1.187-1.333" fill="url(#b)"/></svg>