<svg xmlns="http://www.w3.org/2000/svg" viewBox="0 0 24 24" width="24" height="24"><path d="M.725 7.088h22.549v13.224a.753.753 0 0 1-.753.753H1.479a.753.753 0 0 1-.753-.753z" fill="url(#aa32ebca-eeba-4b3a-9ee4-7e15a794a5d5)"/><path d="M1.483 2.933h21.035a.753.753 0 0 1 .753.753v3.4H.729V3.688a.753.753 0 0 1 .753-.755" fill="#0078d4"/><path d="M18.037 9.796h-5.525a.3.3 0 0 1-.165-.049L10.77 8.698a.27.27 0 0 0-.164-.051H5.963a.293.293 0 0 0-.296.296v9.753a.293.293 0 0 0 .296.296h12.075a.293.293 0 0 0 .296-.296v-8.604a.293.293 0 0 0-.296-.296" fill="#f78d1e"/><path fill="#fff" d="M6.94 9.213h2.636a.12.12 0 0 1 .121.122v.333a.12.12 0 0 1-.121.121H6.94a.12.12 0 0 1-.121-.121v-.333a.12.12 0 0 1 .121-.122"/><path fill="#d15900" d="M6.901 9.213h.411a.083.083 0 0 1 .083.083v.411a.083.083 0 0 1-.083.082h-.411a.083.083 0 0 1-.082-.082v-.411a.083.083 0 0 1 .082-.083"/><path d="M18.037 9.783h-6.068a.3.3 0 0 0-.209.084l-.976.975a.3.3 0 0 1-.209.088H5.963a.293.293 0 0 0-.296.295v7.455a.293.293 0 0 0 .296.296h12.075a.293.293 0 0 0 .296-.296v-8.603a.293.293 0 0 0-.296-.295" fill="#fff"/></svg>