<svg xmlns="http://www.w3.org/2000/svg" viewBox="0 0 24 24" width="24" height="24"><defs><path id="a" x1="5.51" y1="802.5" x2="12.94" y2="810.58" gradientTransform="matrix(1 0 0 1.59 0 -1278.76)" gradientUnits="userSpaceOnUse" d=""><stop offset="0" stop-color="#0078d4"/><stop offset=".02" stop-color="#0d7ed8"/><stop offset=".08" stop-color="#2b8ae0"/><stop offset=".15" stop-color="#4194e7"/><stop offset=".22" stop-color="#519beb"/><stop offset=".29" stop-color="#5b9fee"/><stop offset=".4" stop-color="#5ea0ef"/><stop offset=".55" stop-color="#5b9fee"/><stop offset=".68" stop-color="#509aeb"/><stop offset=".8" stop-color="#3f92e6"/><stop offset=".91" stop-color="#2688df"/><stop offset=".99" stop-color="#127fd9"/></path></defs><path cx="8.96" cy="11.82" rx="7.5" ry="3.08" fill="#76bc2d" d="M21.947 15.76A10 4.107 0 0 1 11.947 19.867A10 4.107 0 0 1 1.947 15.76A10 4.107 0 0 1 21.947 15.76z"/><path cx="9.15" cy="11.79" rx="2.49" ry=".68" fill="#5e9624" d="M15.52 15.72A3.32 0.907 0 0 1 12.2 16.627A3.32 0.907 0 0 1 8.88 15.72A3.32 0.907 0 0 1 15.52 15.72z"/><path cx="8.96" cy="4.99" rx="7.5" ry="3.08" fill="url(#a)" d="M21.947 6.653A10 4.107 0 0 1 11.947 10.76A10 4.107 0 0 1 1.947 6.653A10 4.107 0 0 1 21.947 6.653z"/><path cx="9.15" cy="4.95" rx="2.49" ry=".68" fill="#005ba1" d="M15.52 6.6A3.32 0.907 0 0 1 12.2 7.507A3.32 0.907 0 0 1 8.88 6.6A3.32 0.907 0 0 1 15.52 6.6z"/><path d="M12 19.787c5.533 0 10 -1.84 10 -4.107v2.427c-0.187 2.2 -4.587 4 -10 4S2 20.267 2 18v-2.32c-0.053 2.267 4.427 4.107 10 4.107" fill="#5e9624"/><path d="M12 10.667c5.533 0 10 -1.84 10 -4.107v2.427c-0.187 2.2 -4.587 4 -10 4S2 11.147 2 8.88V6.56C1.947 8.827 6.427 10.667 12 10.667" fill="#0078d4"/></svg>