<svg width="24" height="24" viewBox="0 0 24 24" fill="none" xmlns="http://www.w3.org/2000/svg">
<g clip-path="url(#clip0_18308_59551)" transform="translate(4.892 4)">
<path d="M3.59884 12.6187L2.05469 12.971V2.9707L3.59884 3.32368V12.6187Z" fill="#F68536"/>
<path d="M5.52426 13.2093L3.59766 13.7569V2.19933L5.52426 2.74617V13.2093ZM7.99569 13.8158L5.52426 14.7203V1.23592L7.99569 2.13997V13.8158ZM14.6039 12.6492L7.99569 15.9533V0L14.6039 3.3041V12.6492Z" fill="#F68536"/>
<path d="M6.67806 0.658735L7.99532 0V15.9533L6.67806 15.2948V0.658735ZM4.50417 1.74555L5.52389 1.23572V14.7176L4.50417 14.2078V1.74555ZM2.785 2.60526L3.59728 2.19912V13.7542L2.785 13.3478V2.60526ZM2.05313 2.9711L1.39062 3.30235V12.6512L2.05313 12.9822V2.9711Z" fill="#9D5025"/>
</g>
<defs>
<clipPath id="clip0_18308_59551">
<rect width="13.216" height="16" fill="white" transform="translate(0 0)"/>
</clipPath>
</defs>
</svg>