<svg width="36" height="36" viewBox="0 0 36 36" fill="none" xmlns="http://www.w3.org/2000/svg">
<path d="M22.6272 12.7509L26.4012 9.75091L25.7372 8.92291C24.2305 7.60936 22.4166 6.69756 20.4636 6.27206C18.5105 5.84656 16.4817 5.92115 14.5652 6.48891C12.6561 7.0656 10.9246 8.11754 9.53307 9.54616C8.14153 10.9748 7.13548 12.7333 6.60918 14.6569C6.54918 14.8829 7.23318 14.4609 7.53518 14.5449L12.7512 13.6889C12.7512 13.6889 13.0052 13.4409 13.1532 13.2789C15.4732 10.7469 19.4052 10.4149 22.0832 12.5709L22.6272 12.7509Z" fill="#EA4335"/>
<path d="M29.2749 14.5979C28.674 12.401 27.4435 10.4279 25.7349 8.92188L22.0749 12.5619C22.8359 13.1793 23.4463 13.962 23.8597 14.8505C24.2731 15.739 24.4787 16.71 24.4609 17.6899V18.3359C26.2609 18.3359 27.7209 19.7859 27.7209 21.5759C27.7209 23.3619 26.2609 24.8139 24.4609 24.8139L17.9469 24.8079L17.2969 24.8779V29.8919L17.9469 29.9979H24.4609C26.2764 30.0157 28.0495 29.4495 29.5188 28.3829C30.988 27.3162 32.0755 25.8056 32.6209 24.0739C33.1593 22.3446 33.1242 20.4875 32.5208 18.7798C31.9175 17.072 30.7782 15.6051 29.2729 14.5979H29.2749Z" fill="#4285F4"/>
<path d="M11.4207 29.9944H17.9387V24.8064H11.4187C10.9547 24.8064 10.4967 24.6744 10.0747 24.4844L9.15869 24.7644L6.53269 27.3584L6.30469 28.2524C7.77508 29.3725 9.57027 29.9833 11.4187 29.9924L11.4207 29.9944Z" fill="#34A853"/>
<path d="M11.4216 13.1407C9.66009 13.148 7.94471 13.7045 6.51436 14.7327C5.08401 15.7608 4.00989 17.2094 3.4416 18.8767C2.87929 20.543 2.85336 22.3436 3.36744 24.0254C3.88152 25.7072 4.90976 27.1856 6.3076 28.2527L10.0876 24.4847C9.44533 24.1983 8.91391 23.7104 8.57387 23.0949C8.23382 22.4793 8.10368 21.7697 8.20316 21.0736C8.30265 20.3774 8.62633 19.7326 9.12517 19.237C9.62401 18.7413 10.2708 18.4218 10.9676 18.3267C11.6645 18.2267 12.3751 18.3551 12.993 18.6925C13.6109 19.03 14.103 19.5584 14.3956 20.1987L18.1756 16.4427C17.3792 15.4099 16.3554 14.5746 15.1836 14.0019C14.0119 13.4292 12.7258 13.1345 11.4216 13.1407Z" fill="#FBBC05"/>
</svg>
