<svg width="24" height="24" viewBox="0 0 24 24" fill="none" xmlns="http://www.w3.org/2000/svg">
<g clip-path="url(#clip0_18308_59558)" transform="translate(4.002 4)">
<path d="M0.910156 12.4428L2.56951 14.3874L2.71871 14.2102V1.77194L2.56951 1.58398L0.910156 3.5279V12.4428Z" fill="#1A476F"/>
<path d="M2.57031 14.3871L5.74097 15.9723L5.87285 15.7601L5.875 0.16609L5.74318 0L2.57031 1.58012V14.3871Z" fill="#1F5B98"/>
<path d="M15.0837 3.5279L13.4239 1.58398L13.2383 1.64278L13.2752 14.2287L13.4239 14.3874L15.0837 12.443V3.5279Z" fill="#2D72B8"/>
<path d="M10.2538 15.9723L13.4245 14.3871V1.58012L10.2516 0L10.1016 0.203017L10.1037 15.7416L10.2538 15.9723Z" fill="#5294CF"/>
<path d="M5.74219 0H10.2501V15.9725H5.74219V0Z" fill="#2D72B8"/>
</g>
<defs>
<clipPath id="clip0_18308_59558">
<rect width="14.176" height="16" fill="white" transform="translate(0 0)"/>
</clipPath>
</defs>
</svg>