<svg width="24" height="24" viewBox="0 0 24 24" fill="none" xmlns="http://www.w3.org/2000/svg">
<g clip-path="url(#clip0_18308_59567)" transform="translate(4 4)">
<path fill-rule="evenodd" clip-rule="evenodd" d="M13.3634 3.09375L10.6484 8.03125L13.3634 12.9688L14.4755 12.375V3.6875L13.3634 3.09375Z" fill="#E25444"/>
<path fill-rule="evenodd" clip-rule="evenodd" d="M13.3658 3.09375L7.93589 3.6875L5.17188 8.03125L7.93589 12.375L13.3658 12.9688V3.09375Z" fill="#7B1D13"/>
<path fill-rule="evenodd" clip-rule="evenodd" d="M2.40662 3.09375L1.52344 3.46875V12.5938L2.40662 12.9688L7.93465 8.03125L2.40662 3.09375Z" fill="#58150D"/>
<path fill-rule="evenodd" clip-rule="evenodd" d="M2.39453 3.08301L7.94177 4.55523V11.6385L2.39453 12.9719V3.08301Z" fill="#E25444"/>
<path fill-rule="evenodd" clip-rule="evenodd" d="M7.94525 5.33368L5.58984 4.97255L7.94525 2.41699L10.2948 4.97255L7.94525 5.33368Z" fill="#58150D"/>
<path fill-rule="evenodd" clip-rule="evenodd" d="M10.2948 4.97255L7.94233 5.33921L5.58984 4.97255V2.41699" fill="#58150D"/>
<path fill-rule="evenodd" clip-rule="evenodd" d="M7.94525 10.6943L5.58984 11.111L7.94525 13.3055L10.2948 11.111L7.94525 10.6943Z" fill="#58150D"/>
<path fill-rule="evenodd" clip-rule="evenodd" d="M7.93327 0.5L5.57812 1.6875V4.96875L7.94059 4.33334L7.93327 0.5Z" fill="#7B1D13"/>
<path fill-rule="evenodd" clip-rule="evenodd" d="M8.35249 6L6 6.24447V9.52066L8.35249 9.77778V6Z" fill="#7B1D13"/>
<path fill-rule="evenodd" clip-rule="evenodd" d="M7.94233 11.667L5.58984 11.1035V14.3242L7.94233 15.5004V11.667Z" fill="#7B1D13"/>
<path fill-rule="evenodd" clip-rule="evenodd" d="M10.2939 11.1035L7.94141 11.6672V15.5004L10.2939 14.3242V11.1035Z" fill="#E25444"/>
<path fill-rule="evenodd" clip-rule="evenodd" d="M7.94141 6.13867L10.2939 6.38314V9.65933L7.94141 9.91645V6.13867Z" fill="#E25444"/>
<path fill-rule="evenodd" clip-rule="evenodd" d="M7.93359 0.5L10.2887 1.6875V4.96875L7.93359 4.34375V0.5Z" fill="#E25444"/>
</g>
<defs>
<clipPath id="clip0_18308_59567">
<rect width="14" height="16" fill="white" transform="translate(0 0)"/>
</clipPath>
</defs>
</svg>