<svg width="16" height="16" viewBox="0 0 16 16" fill="none" xmlns="http://www.w3.org/2000/svg">
<path d="M8.19517 6.5C11.5002 6.5 14.0002 5.21 14.0002 3.5C14.0002 1.79 11.5002 0.5 8.19517 0.5C5.21517 0.5 2.00017 1.645 2.00017 3.5C2.00017 5.355 5.21517 6.5 8.19517 6.5ZM8.19517 1.5C11.0252 1.5 13.0002 2.555 13.0002 3.5C13.0002 4.445 11.0252 5.5 8.19517 5.5C5.36517 5.5 3.00017 4.405 3.00017 3.5C3.00017 2.595 5.32017 1.5 8.19517 1.5ZM2.85517 12.145C2.83058 12.1224 2.80377 12.1023 2.77517 12.085C2.7497 12.0651 2.72093 12.0499 2.69017 12.04C2.66096 12.0215 2.62885 12.0079 2.59517 12C2.51484 11.9839 2.43179 11.9878 2.35333 12.0114C2.27486 12.0349 2.20338 12.0774 2.14517 12.135C2.101 12.1836 2.06549 12.2394 2.04017 12.3C2.01324 12.3632 1.99962 12.4313 2.00017 12.5C1.99829 12.5656 2.012 12.6307 2.04017 12.69C2.06558 12.7505 2.10108 12.8063 2.14517 12.855C2.19377 12.8992 2.24958 12.9347 2.31017 12.96C2.37002 12.9865 2.43473 13.0001 2.50017 13.0001C2.56561 13.0001 2.63032 12.9865 2.69017 12.96C2.75072 12.9346 2.80651 12.8991 2.85517 12.855C2.89926 12.8063 2.93476 12.7505 2.96017 12.69C2.98662 12.6301 3.00029 12.5654 3.00029 12.5C3.00029 12.4346 2.98662 12.3699 2.96017 12.31C2.93485 12.2494 2.89934 12.1936 2.85517 12.145ZM6.09517 14.3C5.3464 14.1677 4.62275 13.9197 3.95017 13.565C3.8348 13.4987 3.69782 13.4809 3.56936 13.5156C3.44089 13.5503 3.33147 13.6346 3.26517 13.75C3.19887 13.8654 3.18111 14.0024 3.2158 14.1308C3.2505 14.2593 3.3348 14.3687 3.45017 14.435C4.21642 14.8417 5.04128 15.1268 5.89517 15.28H5.99017C6.12278 15.2926 6.25496 15.252 6.35764 15.1671C6.46031 15.0823 6.52507 14.9601 6.53767 14.8275C6.55027 14.6949 6.50967 14.5627 6.42481 14.46C6.33995 14.3574 6.21778 14.2926 6.08517 14.28L6.09517 14.3ZM13.1952 11.54C13.0741 11.5927 12.9789 11.6912 12.9302 11.8139C12.8815 11.9366 12.8833 12.0736 12.9352 12.195C12.9778 12.291 13 12.3949 13.0002 12.5C13.0002 13.445 11.0252 14.5 8.19517 14.5H8.00017C7.86756 14.5 7.74039 14.5527 7.64662 14.6464C7.55285 14.7402 7.50017 14.8674 7.50017 15C7.50017 15.1326 7.55285 15.2598 7.64662 15.3536C7.74039 15.4473 7.86756 15.5 8.00017 15.5H8.20517C11.5002 15.5 14.0002 14.21 14.0002 12.5C13.9995 12.2609 13.9502 12.0244 13.8552 11.805C13.8295 11.744 13.7921 11.6887 13.7449 11.6423C13.6978 11.5959 13.6419 11.5593 13.5805 11.5347C13.5191 11.51 13.4535 11.4978 13.3873 11.4987C13.3212 11.4996 13.2559 11.5137 13.1952 11.54Z" fill="#737373"/>
<path d="M13.195 5.5397C13.074 5.59243 12.9787 5.6909 12.93 5.81361C12.8813 5.93632 12.8831 6.07331 12.935 6.1947C12.9777 6.29073 12.9998 6.39462 13 6.4997C13 7.4447 11.025 8.4997 8.195 8.4997C5.365 8.4997 3 7.4047 3 6.4997C3.00079 6.40213 3.02479 6.30616 3.07 6.2197C3.10164 6.16069 3.12111 6.09593 3.12725 6.02925C3.13339 5.96257 3.12608 5.89534 3.10574 5.83155C3.08541 5.76775 3.05247 5.70869 3.00887 5.65787C2.96528 5.60705 2.91192 5.5655 2.85197 5.53569C2.79201 5.50588 2.72668 5.48841 2.65984 5.48433C2.59301 5.48025 2.52604 5.48963 2.4629 5.51192C2.39976 5.53421 2.34174 5.56896 2.29229 5.6141C2.24283 5.65924 2.20295 5.71385 2.175 5.7747C2.06107 5.99946 2.00115 6.24771 2 6.4997C2 8.3547 5.215 9.4997 8.195 9.4997C11.5 9.4997 14 8.2097 14 6.4997C13.9994 6.26059 13.95 6.02411 13.855 5.8047C13.8294 5.74371 13.7919 5.68842 13.7448 5.64201C13.6976 5.59561 13.6417 5.55903 13.5803 5.53438C13.5189 5.50973 13.4533 5.49751 13.3871 5.49842C13.321 5.49934 13.2557 5.51337 13.195 5.5397Z" fill="#737373"/>
<path d="M13.195 8.5397C13.074 8.59243 12.9787 8.6909 12.93 8.81361C12.8813 8.93632 12.8831 9.07331 12.935 9.1947C12.9777 9.29073 12.9998 9.39462 13 9.4997C13 10.4447 11.025 11.4997 8.195 11.4997C5.365 11.4997 3 10.4047 3 9.4997C3.00079 9.40213 3.02479 9.30616 3.07 9.2197C3.10164 9.16069 3.12111 9.09593 3.12725 9.02925C3.13339 8.96257 3.12608 8.89534 3.10574 8.83155C3.08541 8.76775 3.05247 8.70869 3.00887 8.65787C2.96528 8.60705 2.91192 8.5655 2.85197 8.53569C2.79201 8.50588 2.72668 8.48841 2.65984 8.48433C2.59301 8.48025 2.52604 8.48963 2.4629 8.51192C2.39976 8.53421 2.34174 8.56896 2.29229 8.6141C2.24283 8.65924 2.20295 8.71385 2.175 8.7747C2.06107 8.99946 2.00115 9.24771 2 9.4997C2 11.3547 5.215 12.4997 8.195 12.4997C11.5 12.4997 14 11.2097 14 9.4997C13.9994 9.26059 13.95 9.02411 13.855 8.8047C13.8294 8.74371 13.7919 8.68842 13.7448 8.64201C13.6976 8.59561 13.6417 8.55903 13.5803 8.53438C13.5189 8.50973 13.4533 8.49751 13.3871 8.49842C13.321 8.49934 13.2557 8.51337 13.195 8.5397Z" fill="#737373"/>
</svg>
