<svg width="20" height="20" viewBox="0 0 20 20" fill="none" xmlns="http://www.w3.org/2000/svg">
<path opacity="0.4" d="M14.9596 6.42516L14.843 6.3585L13.6846 5.69183L11.293 4.3085C10.5596 3.8835 9.44297 3.8835 8.70963 4.3085L6.31797 5.69183L5.15964 6.36683L5.00964 6.45016C3.51797 7.45016 3.41797 7.6335 3.41797 9.24183V13.0835C3.41797 14.6918 3.51797 14.8752 5.04297 15.9002L8.70963 18.0168C9.0763 18.2335 9.53464 18.3335 10.0013 18.3335C10.4596 18.3335 10.9263 18.2335 11.293 18.0168L14.993 15.8752C16.4846 14.8752 16.5846 14.6918 16.5846 13.0835V9.24183C16.5846 7.6335 16.4846 7.45016 14.9596 6.42516Z" fill="white"/>
<path d="M5.16016 6.36699L6.31849 5.69199L8.60182 4.37533L8.71016 4.30866C9.44349 3.88366 10.5602 3.88366 11.2935 4.30866L11.4018 4.37533L13.6852 5.69199L14.8435 6.35866V4.57533C14.8435 2.70033 13.8102 1.66699 11.9352 1.66699H8.06016C6.18516 1.66699 5.16016 2.70033 5.16016 4.57533V6.36699Z" fill="white"/>
<path d="M12.3658 11.1164L11.8491 11.7497C11.7658 11.8414 11.7075 12.0247 11.7158 12.1497L11.7658 12.9664C11.7991 13.4664 11.4408 13.7247 10.9741 13.5414L10.2158 13.2414C10.0991 13.1997 9.89914 13.1997 9.78247 13.2414L9.02414 13.5414C8.55747 13.7247 8.19914 13.4664 8.23247 12.9664L8.28247 12.1497C8.2908 12.0247 8.23247 11.8414 8.14914 11.7497L7.63247 11.1164C7.30747 10.7331 7.44914 10.3081 7.93247 10.1831L8.72414 9.98307C8.84914 9.94974 8.99914 9.83307 9.0658 9.72474L9.50747 9.04141C9.78247 8.61641 10.2158 8.61641 10.4908 9.04141L10.9325 9.72474C10.9991 9.83307 11.1491 9.94974 11.2741 9.98307L12.0658 10.1831C12.5491 10.3081 12.6908 10.7331 12.3658 11.1164Z" fill="white"/>
</svg>
