<svg width="20" height="20" viewBox="0 0 20 20" fill="none" xmlns="http://www.w3.org/2000/svg">
<path fill-rule="evenodd" clip-rule="evenodd" d="M10.0013 2.23145C9.23992 2.23145 8.49308 2.44007 7.84193 2.83466L3.67526 5.35966C3.06254 5.73095 2.5559 6.25397 2.20429 6.87819C1.85268 7.50241 1.66796 8.20675 1.66797 8.92318V14.1665C1.66797 15.2716 2.10696 16.3314 2.88836 17.1128C3.66976 17.8942 4.72957 18.3332 5.83463 18.3332H14.168C15.273 18.3332 16.3328 17.8942 17.1142 17.1128C17.8956 16.3314 18.3346 15.2716 18.3346 14.1665V8.92235C18.3345 8.20608 18.1497 7.50176 17.7981 6.87774C17.4465 6.25372 16.9399 5.73087 16.3274 5.35966L12.1607 2.83466C11.5095 2.44008 10.7627 2.23145 10.0013 2.23145ZM8.70569 4.26003C9.09638 4.02328 9.54447 3.89811 10.0013 3.89811C10.4581 3.89811 10.9062 4.02328 11.2969 4.26003L15.4636 6.78503C15.8311 7.00776 16.1351 7.32147 16.346 7.69589C16.557 8.07025 16.6678 8.49266 16.668 8.92235V14.1665C16.668 14.8296 16.4046 15.4654 15.9357 15.9343C15.4669 16.4031 14.831 16.6665 14.168 16.6665H13.3346V14.1665C13.3346 13.2825 12.9834 12.4346 12.3583 11.8095C11.7332 11.1844 10.8854 10.8332 10.0013 10.8332C9.11725 10.8332 8.2694 11.1844 7.64428 11.8095C7.01916 12.4346 6.66797 13.2825 6.66797 14.1665V16.6665H5.83463C5.17159 16.6665 4.53571 16.4031 4.06687 15.9343C3.59803 15.4654 3.33464 14.8296 3.33464 14.1665V8.92318C3.33463 8.49332 3.44546 8.07069 3.65643 7.69616C3.8674 7.32163 4.17138 7.00782 4.53901 6.78504L8.70569 4.26003ZM11.1798 12.988C11.4924 13.3006 11.668 13.7245 11.668 14.1665V16.6665H8.33463V14.1665C8.33463 13.7245 8.51023 13.3006 8.82279 12.988C9.13535 12.6754 9.55927 12.4999 10.0013 12.4999C10.4433 12.4999 10.8673 12.6754 11.1798 12.988Z" fill="white"/>
</svg>
