<svg width="22" height="12" viewBox="0 0 22 12" fill="none" xmlns="http://www.w3.org/2000/svg">
<path d="M6.4308 2.425C8.29674 2.425 9.80937 3.93764 9.80937 5.80357L9.80937 9.18214L3.05223 9.18214L3.05223 5.80357C3.05223 3.93764 4.56487 2.425 6.4308 2.425Z" fill="white" stroke="white" stroke-width="0.1"/>
<path opacity="0.9" d="M3 2.425C1.37076 2.425 0.0499999 3.74576 0.0499999 5.375L0.0499997 9.325L5.95 9.325L5.95 5.375C5.95 3.74576 4.62924 2.425 3 2.425Z" fill="white" stroke="white" stroke-width="0.1"/>
<path d="M17.24 8.375V7.575H18.848C19.1307 7.575 19.3493 7.487 19.504 7.311C19.6587 7.135 19.736 6.93233 19.736 6.703C19.736 6.54833 19.7013 6.40433 19.632 6.271C19.5627 6.13767 19.4613 6.031 19.328 5.951C19.1947 5.871 19.0347 5.831 18.848 5.831H17.24V5.031H18.712C18.952 5.031 19.144 4.96967 19.288 4.847C19.432 4.72433 19.504 4.543 19.504 4.303C19.504 4.063 19.432 3.88167 19.288 3.759C19.144 3.63633 18.952 3.575 18.712 3.575H17.24V2.775H18.736C19.1147 2.775 19.4293 2.84433 19.68 2.983C19.9307 3.12167 20.1173 3.30033 20.24 3.519C20.3627 3.73767 20.424 3.97233 20.424 4.223C20.424 4.51633 20.3413 4.775 20.176 4.999C20.016 5.223 19.7787 5.40433 19.464 5.543L19.536 5.255C19.888 5.399 20.1627 5.60167 20.36 5.863C20.5573 6.12433 20.656 6.431 20.656 6.783C20.656 7.071 20.584 7.335 20.44 7.575C20.3013 7.815 20.0933 8.00967 19.816 8.159C19.544 8.303 19.208 8.375 18.808 8.375H17.24ZM16.608 8.375V2.775H17.528V8.375H16.608Z" fill="white"/>
<path d="M10.608 8.375V2.775H11.248L13.576 6.607H13.16L15.488 2.775H16.128V8.375H15.208V4.391L15.416 4.447L13.688 7.287H13.048L11.32 4.447L11.528 4.391V8.375H10.608Z" fill="white"/>
</svg>
