<svg xmlns="http://www.w3.org/2000/svg" width="20" height="20" viewBox="0 0 20 20" fill="none">
  <path d="M8.50294 11.9585L8.50877 11.9669L7.67627 13.9777C6.8774 13.4663 6.2696 12.7056 5.94711 11.8135L8.09544 11.4494L8.09877 11.4535C8.164 11.4415 8.23126 11.4475 8.29338 11.4707C8.35551 11.4939 8.41018 11.5335 8.45156 11.5853C8.49295 11.6371 8.51951 11.6992 8.52841 11.7649C8.53731 11.8307 8.52822 11.8976 8.50211 11.9585H8.50294ZM7.80877 10.1844C7.87274 10.1668 7.93075 10.1323 7.97665 10.0844C8.02254 10.0366 8.05459 9.97714 8.06938 9.91249C8.08417 9.84785 8.08116 9.7804 8.06065 9.71733C8.04015 9.65426 8.00292 9.59794 7.95294 9.55435L7.95461 9.54519L6.32044 8.08352C5.82192 8.89498 5.60788 9.84938 5.71211 10.796L7.80711 10.1919L7.80877 10.1844ZM8.76294 8.53435C8.81656 8.57349 8.87981 8.59733 8.94592 8.60334C9.01203 8.60934 9.07853 8.59729 9.13833 8.56846C9.19813 8.53963 9.24898 8.49511 9.28545 8.43964C9.32193 8.38417 9.34266 8.31985 9.34544 8.25352L9.35378 8.24935L9.47878 6.06602C8.53234 6.17665 7.64976 6.59948 6.97044 7.26768L8.75961 8.53685L8.76294 8.53435ZM9.39627 10.826L9.99877 11.1169L10.6004 10.8277L10.7504 10.1777L10.3338 9.65852H9.66377L9.24711 10.1777L9.39627 10.826ZM10.6463 8.24685C10.6491 8.31325 10.6699 8.37763 10.7065 8.43311C10.7431 8.48859 10.794 8.53309 10.8539 8.56185C10.9139 8.59061 10.9805 8.60254 11.0466 8.59638C11.1128 8.59021 11.176 8.56618 11.2296 8.52685L11.2363 8.52935L13.0146 7.26852C12.3376 6.60556 11.4616 6.18336 10.5213 6.06685L10.6446 8.24602L10.6463 8.24685ZM19.7096 13.2219L14.8988 19.206C14.7734 19.361 14.615 19.4859 14.435 19.5716C14.255 19.6573 14.0581 19.7015 13.8588 19.701L6.14127 19.7035C5.94195 19.7037 5.74513 19.6591 5.5653 19.5732C5.38546 19.4872 5.22718 19.362 5.10211 19.2069L0.288775 13.2235C0.164927 13.0686 0.0776083 12.8877 0.0333149 12.6944C-0.0109785 12.5011 -0.0111062 12.3002 0.0329414 12.1069L1.74961 4.64435C1.83961 4.25269 2.10377 3.92435 2.46877 3.75019L9.42044 0.427686C9.60063 0.341571 9.79781 0.296875 9.99753 0.296875C10.1972 0.296875 10.3944 0.341571 10.5746 0.427686L17.5288 3.74852C17.8938 3.92269 18.1579 4.25185 18.2479 4.64269L19.9663 12.1052C20.0563 12.4969 19.9621 12.9077 19.7096 13.2219ZM16.9688 11.5077C16.9338 11.4994 16.8829 11.486 16.8479 11.4794C16.7029 11.4519 16.5854 11.4585 16.4488 11.4477C16.1571 11.4169 15.9171 11.3919 15.7029 11.3244C15.6154 11.291 15.5529 11.1869 15.5229 11.1444L15.3554 11.0952C15.4447 10.4475 15.4151 9.78892 15.2679 9.15185C15.1206 8.5083 14.8562 7.89732 14.4879 7.34935C14.5313 7.31019 14.6129 7.23852 14.6354 7.21685C14.6421 7.14185 14.6363 7.06435 14.7138 6.98185C14.8779 6.82769 15.0838 6.70019 15.3329 6.54685C15.4513 6.47685 15.5604 6.43269 15.6788 6.34519C15.7054 6.32519 15.7421 6.29352 15.7704 6.27102C15.9704 6.11185 16.0163 5.83769 15.8729 5.65769C15.7296 5.47769 15.4513 5.46102 15.2521 5.62019C15.2238 5.64269 15.1854 5.67185 15.1596 5.69352C15.0479 5.79019 14.9788 5.88519 14.8846 5.98519C14.6796 6.19352 14.5096 6.36685 14.3238 6.49269C14.2429 6.53935 14.1246 6.52352 14.0713 6.52019L13.9129 6.63269C13.0015 5.67618 11.7738 5.08306 10.4579 4.96352L10.4479 4.77769C10.3938 4.72602 10.3288 4.68185 10.3121 4.56935C10.2938 4.34602 10.3246 4.10519 10.3596 3.81519C10.3788 3.67935 10.4104 3.56685 10.4163 3.41935C10.4171 3.38602 10.4154 3.33685 10.4154 3.30102C10.4154 3.04602 10.2288 2.83852 9.99877 2.83852C9.76961 2.83852 9.58294 3.04602 9.58294 3.30102L9.58377 3.31269C9.58377 3.34685 9.58211 3.38935 9.58377 3.41935C9.58877 3.56685 9.62044 3.67935 9.63961 3.81519C9.67461 4.10519 9.70461 4.34602 9.68627 4.57019C9.66263 4.65323 9.6158 4.72781 9.55127 4.78519L9.54127 4.96102C8.21703 5.06736 6.97963 5.6623 6.06961 6.63019C6.01914 6.59529 5.96914 6.55973 5.91961 6.52352C5.84461 6.53352 5.76961 6.55685 5.67211 6.49935C5.48627 6.37435 5.31627 6.20102 5.11127 5.99269C5.01711 5.89269 4.94877 5.79769 4.83711 5.70185C4.81211 5.68019 4.77294 5.65019 4.74461 5.62852C4.66222 5.56173 4.56056 5.52317 4.45461 5.51852C4.39169 5.51518 4.32887 5.52672 4.27124 5.5522C4.21361 5.57768 4.16281 5.61639 4.12294 5.66519C3.97961 5.84519 4.02544 6.12019 4.22544 6.27935L4.23127 6.28352L4.31794 6.35269C4.43628 6.44019 4.54461 6.48519 4.66294 6.55435C4.91211 6.70852 5.11794 6.83602 5.28211 6.98935C5.34544 7.05769 5.35711 7.17769 5.36544 7.22935L5.49877 7.34852C4.76239 8.45267 4.4597 9.78987 4.64877 11.1035L4.47544 11.1535C4.42961 11.2135 4.36461 11.3069 4.29627 11.3344C4.08211 11.4019 3.84127 11.426 3.55044 11.4569C3.41377 11.4685 3.29627 11.4619 3.15044 11.4894C3.11961 11.4952 3.07544 11.506 3.03961 11.5144L3.03627 11.516L3.03044 11.5177C2.78461 11.5769 2.62711 11.8027 2.67794 12.0244C2.72877 12.2469 2.96877 12.3819 3.21544 12.3285L3.22127 12.3277L3.22961 12.3252L3.33711 12.301C3.47877 12.2627 3.58211 12.2069 3.71044 12.1577C3.98544 12.0594 4.21377 11.9769 4.43544 11.9444C4.52877 11.9369 4.62711 12.0019 4.67544 12.0285L4.85627 11.9977C5.26357 13.2561 6.11723 14.322 7.25627 14.9944L7.18127 15.176C7.20877 15.246 7.23877 15.3419 7.21794 15.411C7.13711 15.621 6.99877 15.8419 6.84127 16.0885C6.76544 16.2019 6.68711 16.2902 6.61794 16.421C6.60127 16.4519 6.58044 16.5002 6.56461 16.5327C6.45794 16.7619 6.53627 17.0252 6.74211 17.1244C6.94877 17.2244 7.20544 17.1185 7.31711 16.8894V16.8877C7.33377 16.8552 7.35544 16.8127 7.36877 16.7819C7.42711 16.6469 7.44711 16.531 7.48878 16.4002C7.59877 16.1235 7.65961 15.8335 7.81127 15.6527C7.85294 15.6027 7.91961 15.5844 7.99044 15.5652L8.08461 15.3944C9.32 15.8704 10.6876 15.8739 11.9254 15.4044L12.0138 15.5644C12.0854 15.5877 12.1638 15.5994 12.2271 15.6935C12.3404 15.8869 12.4179 16.116 12.5121 16.3935C12.5538 16.5235 12.5738 16.6394 12.6329 16.7744C12.6463 16.8052 12.6688 16.8494 12.6846 16.8819C12.7954 17.1119 13.0529 17.2169 13.2596 17.1169C13.4654 17.0185 13.5438 16.7544 13.4371 16.5252C13.4204 16.4927 13.3996 16.4452 13.3829 16.4135C13.3138 16.2835 13.2354 16.196 13.1596 16.0819C13.0013 15.8352 12.8713 15.631 12.7904 15.421C12.7571 15.3127 12.7963 15.246 12.8221 15.176C12.8071 15.1577 12.7729 15.056 12.7529 15.0077C13.8962 14.3301 14.7504 13.2558 15.1529 11.9894C15.2063 11.9977 15.2996 12.0144 15.3304 12.021C15.3929 11.9794 15.4504 11.926 15.5638 11.9344C15.7854 11.9669 16.0138 12.0494 16.2888 12.1477C16.4171 12.1977 16.5196 12.2544 16.6621 12.2919C16.6921 12.3002 16.7354 12.3077 16.7704 12.3152L16.7779 12.3177L16.7838 12.3185C17.0313 12.3719 17.2704 12.2369 17.3213 12.0144C17.3713 11.7927 17.2146 11.5669 16.9688 11.5077ZM13.6663 8.08435L12.0413 9.53935V9.54352C11.9911 9.58707 11.9536 9.64345 11.933 9.70662C11.9124 9.7698 11.9093 9.8374 11.9241 9.90219C11.9389 9.96698 11.971 10.0265 12.0171 10.0745C12.0631 10.1224 12.1213 10.1569 12.1854 10.1744L12.1879 10.1827L14.2929 10.7894C14.3387 10.3225 14.3083 9.85141 14.2029 9.39435C14.097 8.93097 13.9157 8.48813 13.6663 8.08352V8.08435ZM10.3221 12.5219C10.2899 12.4612 10.2413 12.4108 10.1817 12.3766C10.1221 12.3424 10.0541 12.3257 9.98544 12.3285C9.92129 12.3309 9.8589 12.3501 9.8045 12.3842C9.7501 12.4183 9.7056 12.466 9.67544 12.5227H9.67377L8.61711 14.4327C9.51544 14.7392 10.4899 14.74 11.3888 14.4352L10.3304 12.5219H10.3221ZM11.8954 11.4444C11.8192 11.4303 11.7404 11.4408 11.6704 11.4744C11.5848 11.5153 11.5184 11.5878 11.4851 11.6767C11.4518 11.7656 11.4544 11.8639 11.4921 11.951L11.4896 11.9544L12.3313 13.986C13.1355 13.4726 13.7457 12.7058 14.0654 11.8069L11.8988 11.4402L11.8954 11.4444Z" fill="white"/>
</svg>