<svg width="27" height="18" viewBox="0 0 27 18" fill="none" xmlns="http://www.w3.org/2000/svg">
<rect x="7.25" y="7.4375" width="6.25" height="7.5" fill="#2082CB"/>
<rect x="13.5" y="7.4375" width="6.25" height="7.5" fill="#21435C"/>
<path d="M21.5703 7.63698C21.3104 5.91691 20.5405 4.32379 19.3679 3.07935C18.1953 1.8349 16.6782 1.00105 15.0279 0.693855C13.3776 0.386657 11.6761 0.621396 10.1603 1.3654C8.64441 2.1094 7.38963 3.32565 6.57057 4.84487C5.77601 4.91313 5.00217 5.14325 4.29324 5.52208C3.58432 5.90092 2.95418 6.42104 2.43883 7.05277C1.92347 7.6845 1.53298 8.41545 1.28966 9.20389C1.04633 9.99233 0.954931 10.8228 1.02068 11.648C1.08565 12.473 1.30649 13.2767 1.67057 14.0131C2.03465 14.7495 2.53485 15.4042 3.1426 15.9399C3.75036 16.4756 4.45376 16.8817 5.21266 17.135C5.97155 17.3884 6.77107 17.484 7.56556 17.4165H21.0041C21.6221 17.455 22.2414 17.3666 22.8266 17.1565C23.4117 16.9464 23.9513 16.6186 24.4144 16.1919C24.8776 15.7652 25.2552 15.2479 25.5258 14.6696C25.7964 14.0912 25.9546 13.4632 25.9915 12.8214C26.0667 11.5252 25.643 10.2512 24.8136 9.2794C23.9843 8.30763 22.8172 7.71777 21.569 7.63957L21.5703 7.63698Z" stroke="#63B1FF" stroke-linecap="round" stroke-linejoin="round"/>
<path d="M15.49 14V13.2H17.098C17.3807 13.2 17.5993 13.112 17.754 12.936C17.9087 12.76 17.986 12.5573 17.986 12.328C17.986 12.1733 17.9513 12.0293 17.882 11.896C17.8127 11.7627 17.7113 11.656 17.578 11.576C17.4447 11.496 17.2847 11.456 17.098 11.456H15.49V10.656H16.962C17.202 10.656 17.394 10.5947 17.538 10.472C17.682 10.3493 17.754 10.168 17.754 9.928C17.754 9.688 17.682 9.50667 17.538 9.384C17.394 9.26133 17.202 9.2 16.962 9.2H15.49V8.4H16.986C17.3647 8.4 17.6793 8.46933 17.93 8.608C18.1807 8.74667 18.3673 8.92533 18.49 9.144C18.6127 9.36267 18.674 9.59733 18.674 9.848C18.674 10.1413 18.5913 10.4 18.426 10.624C18.266 10.848 18.0287 11.0293 17.714 11.168L17.786 10.88C18.138 11.024 18.4127 11.2267 18.61 11.488C18.8073 11.7493 18.906 12.056 18.906 12.408C18.906 12.696 18.834 12.96 18.69 13.2C18.5513 13.44 18.3433 13.6347 18.066 13.784C17.794 13.928 17.458 14 17.058 14H15.49ZM14.858 14V8.4H15.778V14H14.858Z" fill="white"/>
<path d="M10.168 14.08C9.72533 14.08 9.34933 14 9.04 13.84C8.73067 13.68 8.45333 13.4453 8.208 13.136L8.832 12.512C8.98667 12.736 9.17067 12.912 9.384 13.04C9.59733 13.1627 9.86933 13.224 10.2 13.224C10.5093 13.224 10.7547 13.16 10.936 13.032C11.1227 12.904 11.216 12.728 11.216 12.504C11.216 12.3173 11.168 12.1653 11.072 12.048C10.976 11.9307 10.848 11.8347 10.688 11.76C10.5333 11.68 10.36 11.6107 10.168 11.552C9.98133 11.488 9.792 11.4187 9.6 11.344C9.41333 11.264 9.24 11.1653 9.08 11.048C8.92533 10.9307 8.8 10.7787 8.704 10.592C8.608 10.4053 8.56 10.168 8.56 9.88C8.56 9.54933 8.64 9.26933 8.8 9.04C8.96533 8.80533 9.18667 8.62667 9.464 8.504C9.74133 8.38133 10.0507 8.32 10.392 8.32C10.76 8.32 11.088 8.392 11.376 8.536C11.6693 8.68 11.9067 8.864 12.088 9.088L11.464 9.712C11.304 9.53067 11.136 9.39733 10.96 9.312C10.7893 9.22133 10.592 9.176 10.368 9.176C10.0907 9.176 9.872 9.232 9.712 9.344C9.55733 9.456 9.48 9.61333 9.48 9.816C9.48 9.98667 9.528 10.1253 9.624 10.232C9.72 10.3333 9.84533 10.4213 10 10.496C10.16 10.5653 10.3333 10.632 10.52 10.696C10.712 10.76 10.9013 10.832 11.088 10.912C11.28 10.992 11.4533 11.096 11.608 11.224C11.768 11.3467 11.896 11.5067 11.992 11.704C12.088 11.9013 12.136 12.1493 12.136 12.448C12.136 12.9493 11.9573 13.3467 11.6 13.64C11.248 13.9333 10.7707 14.08 10.168 14.08Z" fill="white"/>
</svg>
