<svg width="21" height="20" viewBox="0 0 21 20" fill="none" xmlns="http://www.w3.org/2000/svg">
<path fill-rule="evenodd" clip-rule="evenodd" d="M6.70706 10.3653C6.61717 10.654 6.42213 10.9106 6.13502 11.0746L1.88071 13.5115C1.2798 13.8542 0.514364 13.6509 0.169508 13.0582C-0.177527 12.4622 0.0267715 11.7038 0.627137 11.3601L3.00463 10.0008L0.627137 8.63774C0.0267715 8.29452 -0.178617 7.53616 0.169508 6.94233C0.514364 6.34796 1.2798 6.14421 1.88071 6.48688L6.13502 8.92212C6.43412 9.09319 6.63406 9.3645 6.71795 9.66795C6.74628 9.76547 6.75881 9.86298 6.76372 9.96105C6.76699 10.0962 6.74955 10.2329 6.70706 10.3653ZM7.86148 12.6474C8.50924 12.6937 9.02081 13.2309 9.02081 13.8847V18.7568C9.02081 19.4438 8.45858 20 7.76832 20C7.0748 20 6.51475 19.4438 6.51475 18.7568V16.0317L4.12908 17.3953C3.5309 17.7407 2.76601 17.5364 2.41843 16.9432C2.07302 16.3488 2.27732 15.5866 2.8766 15.2434L7.13418 12.8098C7.36299 12.6774 7.61687 12.6267 7.86148 12.6474ZM12.222 7.35256C11.5726 7.30517 11.0622 6.76691 11.0622 6.1137V1.24104C11.0622 0.556237 11.6211 0 12.3152 0C13.0087 0 13.5688 0.556237 13.5688 1.24104V3.96775L15.9528 2.60194C16.5521 2.25872 17.3175 2.46248 17.6629 3.05576C18.0078 3.65231 17.8045 4.41121 17.2047 4.75443L12.9477 7.19022C12.7189 7.32097 12.4655 7.37218 12.222 7.35256ZM2.8766 4.75443C2.27732 4.41121 2.07302 3.65231 2.41843 3.05576C2.76601 2.46248 3.5309 2.25872 4.12908 2.60194L6.51475 3.96775V1.24104C6.51475 0.556237 7.0748 0 7.76832 0C8.45858 0 9.02081 0.556237 9.02081 1.24104V6.1137C9.02081 6.76691 8.50924 7.30517 7.86148 7.35256C7.61687 7.37218 7.36299 7.32097 7.13418 7.19022L2.8766 4.75443ZM10.5228 12.2285C10.4721 12.2802 10.3746 12.3222 10.3005 12.3222H9.78025C9.70888 12.3222 9.60973 12.2802 9.55797 12.2285L7.78957 10.477C7.7389 10.4274 7.69804 10.3282 7.69804 10.2585V9.74149C7.69804 9.67013 7.7389 9.57097 7.78957 9.52085L9.55797 7.76879C9.60973 7.71758 9.70888 7.67672 9.78025 7.67672H10.3005C10.373 7.67672 10.4721 7.71758 10.5228 7.76879L12.2923 9.52085C12.343 9.57097 12.3838 9.67013 12.3838 9.74149V10.2585C12.3838 10.3282 12.343 10.4274 12.2923 10.477L10.5228 12.2285ZM10.878 9.99047C10.878 9.91964 10.835 9.82103 10.7843 9.76873L10.2717 9.26316C10.2215 9.21304 10.1218 9.17164 10.0505 9.17164H10.0303C9.95894 9.17164 9.85979 9.21304 9.81022 9.26316L9.29756 9.76873C9.24635 9.82103 9.20713 9.91964 9.20713 9.99047V10.0106C9.20713 10.0804 9.24635 10.1779 9.29756 10.2291L9.81022 10.7357C9.86034 10.7859 9.95894 10.8273 10.0303 10.8273H10.0505C10.1218 10.8273 10.2215 10.7859 10.2717 10.7357L10.7843 10.2291C10.835 10.1779 10.878 10.0804 10.878 10.0106V9.99047ZM17.2047 15.2434C17.8045 15.5866 18.0078 16.3488 17.6629 16.9432C17.3175 17.5364 16.5515 17.7407 15.9528 17.3953L13.5688 16.0317V18.7568C13.5688 19.4438 13.0087 20 12.3152 20C11.6211 20 11.0622 19.4438 11.0622 18.7568V13.8847C11.0622 13.2309 11.5726 12.6937 12.222 12.6474C12.4655 12.6267 12.7189 12.6774 12.9477 12.8098L17.2047 15.2434ZM17.0778 10.0008L19.4553 11.3601C20.0556 11.7038 20.261 12.4622 19.914 13.0582C19.5675 13.6509 18.801 13.8542 18.2028 13.5115L13.9452 11.0746C13.6608 10.9106 13.4642 10.654 13.3764 10.3653C13.335 10.2329 13.3154 10.0962 13.3203 9.96105C13.3225 9.86298 13.3372 9.76547 13.3645 9.66795C13.4495 9.3645 13.6494 9.09319 13.9452 8.92212L18.2028 6.48688C18.801 6.14421 19.5675 6.34796 19.914 6.94233C20.261 7.53616 20.0556 8.29452 19.4553 8.63774L17.0778 10.0008Z" fill="white"/>
</svg>
