<svg width="24" height="22" viewBox="0 0 24 22" fill="none" xmlns="http://www.w3.org/2000/svg">
    <path d="M15.1397 0.0519146C14.7939 0.182754 15.6631 -0.658358 6.037 8.90228C0.597809 14.3041 0.952945 13.9022 0.990328 14.519C0.999674 14.7153 1.0464 14.8929 1.11182 15.0144C1.22397 15.2293 2.60713 16.6592 2.81274 16.7714C2.99031 16.8648 3.16787 16.8274 3.47628 16.6125C4.2987 16.0798 5.15851 16.0891 5.88747 16.6405C6.45756 17.0704 6.75662 17.734 6.70054 18.4442C6.67251 18.8181 6.56036 19.1358 6.32672 19.4629C6.13046 19.7526 6.09307 19.8648 6.13046 20.0423C6.16784 20.2199 7.60708 21.6498 7.88745 21.8087C8.08371 21.9208 8.14913 21.9302 8.47623 21.9302C8.77529 21.9302 8.87809 21.9115 9.03697 21.8274C9.25192 21.7152 12.4388 18.5751 12.5509 18.3695C12.6537 18.1826 12.6257 18.0143 12.4762 17.8648C12.3267 17.7153 12.1584 17.6966 11.9715 17.79C11.9061 17.8274 11.1397 18.5657 10.2613 19.4442C9.1865 20.5283 8.6351 21.0517 8.55099 21.0704C8.37342 21.1078 8.23324 21.0143 7.66315 20.4349L7.13045 19.9022L7.26129 19.6405C7.47624 19.2106 7.57904 18.7713 7.57904 18.276C7.57904 17.762 7.50427 17.4536 7.27063 16.9863C6.97157 16.3788 6.54167 15.9489 5.90616 15.6499C5.44822 15.4256 5.13981 15.3602 4.63515 15.3602C4.1959 15.3602 3.83142 15.4536 3.37348 15.6592L3.03703 15.8181L2.49498 15.276C1.90621 14.6966 1.81275 14.5658 1.85013 14.3789C1.86882 14.2947 3.38282 12.7621 7.06503 9.10789C11.1865 5.00513 12.2706 3.95841 12.3266 3.98645C12.364 4.00514 12.4668 4.02383 12.5509 4.03318C12.7752 4.06121 12.9808 3.86496 12.9808 3.63131C12.9808 3.53786 12.9622 3.43505 12.9341 3.40702C12.9061 3.35094 13.1584 3.07992 14.1023 2.12666C15.3453 0.874335 15.4481 0.808915 15.6537 0.911718C15.7098 0.939755 16.0089 1.21078 16.3079 1.51919L16.8687 2.07993L16.7285 2.3603C16.3266 3.18272 16.3453 4.17336 16.7845 5.02382C17.0182 5.48176 17.5696 6.01446 18.0462 6.23876C18.5415 6.48175 18.8406 6.55651 19.364 6.55651C19.8593 6.55651 20.2051 6.48175 20.6443 6.28549L20.934 6.1453L21.4761 6.68735C22.0649 7.26679 22.1583 7.40697 22.1209 7.58454C22.1022 7.64996 21.6443 8.14528 20.8873 8.91163C19.7378 10.0611 19.6724 10.1172 19.5883 10.0611C19.5415 10.0238 19.42 10.0051 19.3359 10.0051C19.0182 10.0051 18.8219 10.3602 18.9808 10.6499C19.0369 10.7434 19.0275 10.7714 18.9621 10.8836C18.7191 11.2761 19.1116 11.706 19.5135 11.491C19.5789 11.4537 20.3453 10.706 21.2237 9.81816C23.0368 7.99575 23.0368 8.0051 22.9994 7.43501C22.9901 7.23875 22.9434 7.06118 22.8779 6.93969C22.7658 6.72474 21.3826 5.29485 21.177 5.1827C21.0088 5.08924 20.8219 5.12662 20.5415 5.32288C19.906 5.74344 19.1583 5.79951 18.4948 5.48176C18.364 5.42569 18.1303 5.25746 17.9808 5.11728C17.2518 4.4257 17.121 3.36029 17.6724 2.50048C17.878 2.18273 17.9154 2.00516 17.8313 1.8276C17.7191 1.62199 16.2986 0.238828 16.0743 0.12668C15.85 -0.00415954 15.3733 -0.0415423 15.1397 0.0519146Z" fill="white"/>
    <path d="M13.5021 4.55662C13.3619 4.70615 13.3432 4.87437 13.4367 5.06129C13.5021 5.18278 14.0161 5.70614 14.1937 5.81829C14.3619 5.93044 14.5488 5.9024 14.7077 5.76221C14.8198 5.65941 14.8385 5.60334 14.8385 5.45381C14.8385 5.27624 14.8198 5.2482 14.418 4.84634C14.0161 4.44447 13.9881 4.42578 13.8105 4.42578C13.661 4.42578 13.6049 4.45382 13.5021 4.55662Z" fill="white"/>
    <path d="M15.3619 6.41571C15.2217 6.5559 15.1937 6.72412 15.2778 6.90169C15.3432 7.04187 15.9226 7.61196 16.0535 7.68673C16.3619 7.85495 16.689 7.65869 16.689 7.3129C16.689 7.13533 16.6703 7.10729 16.2684 6.70543C15.8759 6.31291 15.8292 6.28487 15.6703 6.28487C15.5301 6.27553 15.4647 6.30356 15.3619 6.41571Z" fill="white"/>
    <path d="M17.3212 8.17271C17.1343 8.26616 17.0409 8.55588 17.1343 8.74279C17.1997 8.88298 17.7792 9.45306 17.91 9.52783C18.1904 9.67736 18.5081 9.53718 18.5642 9.22877C18.6016 9.0512 18.5081 8.91101 18.0782 8.4998C17.7511 8.18205 17.667 8.12598 17.5455 8.12598C17.4801 8.13532 17.3773 8.15401 17.3212 8.17271Z" fill="white"/>
    <path d="M17.3524 12.3693C16.315 12.5656 15.4832 13.0048 14.7636 13.7338C14.1281 14.3599 13.7262 15.0796 13.4832 15.9674C13.3804 16.3506 13.3711 16.4627 13.3711 17.1637C13.3711 17.8739 13.3804 17.9767 13.4832 18.3692C14.1374 20.7898 16.5019 22.3318 18.9411 21.9393C20.0159 21.7617 20.9131 21.2851 21.6794 20.4907C22.2121 19.9393 22.5392 19.3973 22.7729 18.6963C23.4364 16.7057 22.7635 14.5562 21.0719 13.2665C20.6607 12.9581 19.9224 12.603 19.3897 12.4628C18.857 12.3132 17.857 12.2759 17.3524 12.3693ZM19.1093 13.2945C20.4364 13.6123 21.4925 14.5842 21.9411 15.902C22.2028 16.6683 22.1841 17.715 21.885 18.5281C21.6888 19.0608 21.4364 19.444 20.9504 19.9206C20.4738 20.3973 20.0813 20.6589 19.5579 20.8552C18.7449 21.1449 17.6981 21.173 16.9318 20.9113C15.1468 20.3038 14.0253 18.5468 14.2402 16.7151C14.3524 15.7805 14.7262 15.0141 15.3804 14.3599C16.3711 13.36 17.7449 12.9768 19.1093 13.2945Z" fill="white"/>
    <path d="M18.0144 14.5379C17.9677 14.5566 17.8929 14.622 17.8462 14.6688C17.7621 14.7529 17.7621 14.837 17.7434 15.7248L17.734 16.6874L16.7714 16.6968C15.8275 16.7061 15.8088 16.7061 15.6967 16.8089C15.4724 17.0239 15.5191 17.3697 15.7995 17.5099C15.9303 17.5753 16.0798 17.5846 16.8462 17.5846H17.734V18.4725C17.734 18.9678 17.7527 19.4164 17.7714 19.4725C17.8368 19.7248 18.2107 19.8276 18.435 19.6687C18.6032 19.5379 18.6406 19.3416 18.6406 18.4351V17.594L19.5845 17.5846L20.5284 17.5753L20.6592 17.4538C20.8275 17.2949 20.8555 17.1641 20.7714 16.9772C20.6592 16.7248 20.5377 16.6968 19.5191 16.6968H18.6406V15.8463C18.6406 14.9678 18.6125 14.7435 18.4723 14.6127C18.3789 14.5286 18.1359 14.4912 18.0144 14.5379Z" fill="white"/>
    </svg>
    