<svg width="24" height="24" viewBox="0 0 24 24" fill="none" xmlns="http://www.w3.org/2000/svg">
<path d="M18.6762 19.0148C18.7738 18.9192 18.8513 18.8051 18.9042 18.6792C18.9571 18.5533 18.9844 18.418 18.9844 18.2815C18.9844 18.1449 18.9571 18.0097 18.9042 17.8837C18.8513 17.7578 18.7738 17.6437 18.6762 17.5481L12.9134 11.9992L18.6518 6.45034C18.8318 6.25537 18.9304 5.99889 18.9274 5.73353C18.9243 5.46816 18.8198 5.21403 18.6353 5.02328C18.4508 4.83252 18.2003 4.7196 17.9352 4.70769C17.67 4.69579 17.4104 4.78579 17.2096 4.95923L9.92511 11.9992L17.2096 19.0453C17.3076 19.1402 17.4234 19.2147 17.5504 19.2645C17.6773 19.3144 17.8129 19.3386 17.9493 19.3357C18.0856 19.3329 18.2201 19.303 18.3448 19.248C18.4696 19.1929 18.5822 19.1136 18.6762 19.0148Z" fill="#737373"/>
<path d="M6.81267 19.9453C7.0882 19.9453 7.35245 19.8359 7.54728 19.641C7.74211 19.4462 7.85156 19.182 7.85156 18.9064L7.85156 5.09531C7.85156 4.81978 7.74211 4.55554 7.54728 4.36071C7.35245 4.16588 7.08821 4.05642 6.81268 4.05642C6.53715 4.05642 6.2729 4.16588 6.07807 4.36071C5.88324 4.55554 5.77379 4.81978 5.77379 5.09531L5.77378 18.9064C5.77378 19.182 5.88324 19.4462 6.07807 19.641C6.2729 19.8359 6.53714 19.9453 6.81267 19.9453Z" fill="#737373"/>
</svg>
