<svg width="19" height="18" viewBox="0 0 19 18" fill="none" xmlns="http://www.w3.org/2000/svg">
<g id="Group 39844">
<g id="SvgjsG1007">
<path id="Vector" d="M5.1057 9.68945C5.1057 9.68945 4.84827 14.0658 7.74435 17.2836C7.74435 17.2836 4.59802 18.032 3.4324 14.3232C2.37051 10.9444 5.1057 9.68945 5.1057 9.68945Z" fill="#737373"/>
<path id="Vector_2" d="M8.68275 9.11133C8.68275 9.11133 8.45849 12.9237 10.9814 15.727C10.9814 15.727 8.24049 16.3789 7.22507 13.148C6.3 10.2046 8.68275 9.11133 8.68275 9.11133Z" fill="#737373"/>
<path id="Vector_3" d="M2.0454 12.4473C2.0454 12.4473 1.87118 15.4091 3.83123 17.587C3.83123 17.587 1.96487 17.7021 1.16845 15.4978C0.575008 13.8554 2.0454 12.4473 2.0454 12.4473Z" fill="#737373"/>
<path id="Vector_4" d="M11.7149 7.96751C11.7149 7.96751 5.24697 -0.141519 0.806314 3.43032C-3.63435 7.00215 11.7149 7.96751 11.7149 7.96751Z" fill="#737373"/>
<path id="Vector_5" d="M13.9584 13.1219C15.0659 13.1219 15.9636 12.2241 15.9636 11.1166C15.9636 10.0091 15.0659 9.11133 13.9584 9.11133C12.8509 9.11133 11.9531 10.0091 11.9531 11.1166C11.9531 12.2241 12.8509 13.1219 13.9584 13.1219Z" fill="#737373"/>
</g>
<g id="Group 39843">
<rect id="Rectangle 1074" x="13.75" y="0.412109" width="2.20385" height="6.61156" fill="#EF4444"/>
<rect id="Rectangle 1075" x="18.1562" y="2.61523" width="2.20385" height="6.61156" transform="rotate(90 18.1562 2.61523)" fill="#EF4444"/>
</g>
</g>
</svg>
