<svg width="150" height="152" viewBox="0 0 150 152" fill="none" xmlns="http://www.w3.org/2000/svg">
<path d="M70.9286 151.069C108.956 151.069 139.783 149.311 139.783 147.142C139.783 144.973 108.956 143.215 70.9286 143.215C32.9014 143.215 2.07422 144.973 2.07422 147.142C2.07422 149.311 32.9014 151.069 70.9286 151.069Z" fill="#C7D1EA"/>
<path opacity="0.5" d="M82.1052 88.3475C86.3482 82.5576 79.4046 70.2547 66.5961 60.8683C53.7877 51.4819 39.9647 48.5664 35.7217 54.3563C31.4787 60.1462 38.4224 72.449 51.2308 81.8354C64.0393 91.2218 77.8622 94.1374 82.1052 88.3475Z" fill="#B9D3F9"/>
<path d="M68.8953 91.0529C63.2132 89.6867 56.8915 86.5799 50.9669 82.2226C44.7113 77.6411 39.6619 72.2436 36.6997 66.9637C33.6578 61.6163 33.2195 57.0388 35.37 54.0937C37.5204 51.1486 42.0254 50.212 48.0692 51.473C53.9768 52.7008 60.6513 55.9405 66.9069 60.522C73.1625 65.1035 78.2119 70.501 81.1741 75.7809C84.216 81.1283 84.6543 85.7058 82.5038 88.6509C80.3534 91.596 75.8484 92.5326 69.8046 91.2716C69.4862 91.1948 69.1679 91.1183 68.8953 91.0529ZM48.6347 52.5221C42.8618 51.1343 38.1952 51.7432 36.0554 54.6429C31.9669 60.2475 38.8796 72.2957 51.4706 81.5261C64.0617 90.7562 77.6281 93.7294 81.7162 88.1248C85.8046 82.5202 78.892 70.4719 66.301 61.2418C60.2514 56.8057 53.9988 53.8118 48.6347 52.5221Z" fill="#B9D3F9"/>
<path d="M81.9846 88.8152C81.8938 88.7935 81.8029 88.7714 81.7682 88.715C81.5738 88.5239 61.7969 68.3819 43.4048 59.6806C43.1884 59.5804 43.0614 59.3095 43.2067 59.104C43.3069 58.8876 43.5778 58.7607 43.7833 58.906C62.3119 67.6404 82.2031 87.906 82.3868 88.1424C82.5358 88.3225 82.5612 88.6171 82.3811 88.7661C82.2792 88.7901 82.1209 88.8482 81.9846 88.8152Z" fill="#B9D3F9"/>
<path opacity="0.5" d="M61.2801 96.3915C77.0721 94.7482 89.2718 87.6289 88.529 80.4903C87.7861 73.3516 74.382 68.8967 58.59 70.5401C42.798 72.1834 30.5983 79.3027 31.3412 86.4413C32.084 93.58 45.4882 98.0348 61.2801 96.3915Z" fill="#B9D3F9"/>
<path d="M43.3808 95.9806C42.4262 95.7512 41.4826 95.4763 40.55 95.1556C34.7152 93.2239 31.2741 90.1365 30.901 86.4887C30.5279 82.8408 33.2499 79.1194 38.5629 76.021C43.763 72.9917 50.865 70.8523 58.5576 70.0573C66.2501 69.262 73.6601 69.8416 79.3583 71.7405C85.193 73.6722 88.6341 76.7595 89.0072 80.4074C89.3803 84.0553 86.6584 87.7767 81.3454 90.8751C76.1453 93.9043 69.0433 96.0438 61.3507 96.8387C54.882 97.5435 48.6083 97.2372 43.3808 95.9806ZM76.354 71.8354C71.2174 70.6005 65.0457 70.2705 58.6788 70.9519C51.0881 71.7235 44.1444 73.8048 39.0008 76.7993C34.0151 79.736 31.4715 83.1154 31.7849 86.4125C32.4823 93.3121 45.7317 97.6033 61.2184 95.9893C68.8091 95.2177 75.7528 93.1364 80.851 90.1309C85.8367 87.1941 88.3803 83.8148 88.067 80.5177C87.7426 77.2663 84.5306 74.426 79.0486 72.6273C78.2066 72.329 77.3084 72.0648 76.354 71.8354Z" fill="#B9D3F9"/>
<path d="M38.7614 86.5984C38.6252 86.5656 38.4652 86.431 38.4525 86.2837C38.3706 86.0235 38.5163 85.8181 38.7765 85.7366C65.769 78.6663 88.3811 80.0154 88.6192 80.0248C88.8574 80.0338 89.0411 80.2703 89.0318 80.5088C89.0227 80.7469 88.7863 80.9306 88.5478 80.9213C88.3096 80.9123 65.8448 79.5501 38.9996 86.6077C38.9432 86.6421 38.8523 86.6204 38.7614 86.5984Z" fill="#B9D3F9"/>
<path d="M70.0561 80.696C64.5781 88.5356 54.8246 93.1167 45.2742 92.1905C41.1203 91.8277 36.965 90.6029 33.2296 88.9003C32.2653 88.4457 31.8274 87.3461 32.2716 86.336C32.4991 85.854 32.8939 85.4779 33.3856 85.3199C33.8315 85.172 34.3082 85.1609 34.7801 85.343C40.9001 87.8525 47.748 88.9053 54.1288 86.8047C57.8689 85.5354 61.2475 83.2931 63.8486 80.3623C64.537 79.5854 65.2151 78.7627 65.7813 77.8692C66.464 76.8537 67.4016 76.5478 68.3045 76.7288C69.9078 77.0401 71.2245 78.8532 70.0561 80.696Z" fill="#332E25"/>
<path d="M68.3138 76.7749L66.4249 81.175C66.4249 81.175 56.648 92.7085 40.4545 88.8632C36.4061 87.9019 34.2587 86.6583 33.3945 85.3667C33.8405 85.2187 34.3171 85.2077 34.7891 85.3897C40.9091 87.8992 47.7569 88.9521 54.1378 86.8514C57.8779 85.5821 61.2565 83.3398 63.8576 80.4091C64.546 79.6321 65.2241 78.8091 65.7902 77.9159C66.4279 76.9102 67.4109 76.5938 68.3138 76.7749Z" fill="#3F3A31"/>
<path d="M53.6922 92.1232C50.9549 92.7365 48.0799 92.9496 45.2397 92.6757C41.2331 92.328 37.154 91.2297 33.0482 89.3709C31.8707 88.8201 31.3156 87.4115 31.866 86.2341C32.3711 85.067 33.7342 84.5219 34.9471 85.0165C39.6969 86.9706 46.9112 88.8037 53.9561 86.4585C57.5595 85.22 60.9024 83.0334 63.5138 80.1485C64.3185 79.2496 64.9157 78.4927 65.3657 77.7211C66.4379 76.0914 68.2887 76.0119 69.5273 76.8363C70.7662 77.6607 71.474 79.3228 70.4576 80.9879C66.4513 86.6289 60.353 90.6305 53.6922 92.1232ZM33.7162 85.7233C33.2599 85.8256 32.8902 86.1001 32.7085 86.5721C32.3955 87.313 32.6911 88.2051 33.432 88.5181C37.4259 90.3062 41.4138 91.4248 45.3192 91.7475C54.6769 92.669 64.2684 88.2198 69.6656 80.4464C70.4442 79.2179 69.9047 78.0929 69.0112 77.5267C68.1177 76.9602 66.9159 76.9422 66.0812 78.1353C65.5855 78.9173 64.9532 79.7296 64.1131 80.6846C61.3851 83.6915 57.9714 85.9896 54.1855 87.2692C46.8317 89.7316 39.4601 87.8381 34.5529 85.8232C34.284 85.6919 33.9898 85.6622 33.7162 85.7233Z" fill="#2D1D1D"/>
<path d="M84.9818 120.09C79.3064 123.426 75.6836 129.917 75.5713 136.524C75.5289 137.417 75.5767 139.172 75.8305 140.875C72.6416 140.212 68.8 140.654 68.5625 142.381C68.6827 144.974 74.1053 146.164 77.4853 145.606C79.0482 145.348 80.1421 143.924 80.0379 142.343C79.8141 138.939 79.2867 135.508 80.8022 132.251C82.0147 129.076 84.4273 126.241 87.3357 124.639C90.3262 123.082 87.9499 118.574 84.9818 120.09Z" fill="#332E25"/>
<path d="M68.5608 142.379C68.5034 142.775 68.6961 143.2 69.0565 143.612C69.7569 141.756 73.8718 141.938 76.08 142.192C76.9752 142.311 77.5568 142.417 77.5568 142.417C77.5568 142.417 77.4686 141.995 77.3887 141.364C77.1122 139.345 76.4257 134.966 77.3493 132.219C79.5241 125.838 82.6172 124.871 82.6172 124.871L82.187 121.967C78.1112 125.595 75.5776 130.977 75.4878 136.477C75.4307 137.94 75.5596 139.451 75.7974 140.863C75.4247 140.764 75.0292 140.707 74.634 140.649C71.4895 140.255 68.7592 141.048 68.5608 142.379Z" fill="#3F3A31"/>
<path d="M75.6682 146.236C72.8527 146.236 69.5629 145.391 68.4399 143.585C67.8871 142.697 68.1206 141.547 68.9717 140.968C70.3903 140.003 73.0788 139.92 75.243 140.255C75.0706 138.805 75.0295 137.368 75.071 136.496C75.1869 129.65 78.9777 123.033 84.7279 119.654C84.7363 119.649 84.745 119.645 84.7536 119.64C86.518 118.74 88.147 119.639 88.8454 120.992C89.5365 122.333 89.3194 124.167 87.5668 125.079C84.8024 126.603 82.4445 129.351 81.2701 132.425C81.2658 132.436 81.2614 132.447 81.2564 132.458C79.9921 135.175 80.2096 137.994 80.4404 140.979C80.4922 141.651 80.5456 142.346 80.58 143.031C80.6415 144.258 79.9009 145.394 78.7796 145.793C77.9596 146.085 76.856 146.236 75.6682 146.236ZM72.9759 141.079C71.5146 141.079 70.2236 141.328 69.5358 141.796C69.1307 142.072 69.0231 142.625 69.291 143.056C70.4831 144.973 75.8452 145.773 78.4443 144.849C79.1521 144.597 79.6194 143.87 79.5796 143.081C79.5459 142.409 79.4928 141.721 79.4417 141.056C79.2118 138.079 78.9744 135.002 80.3405 132.051C81.5991 128.768 84.1223 125.833 87.0942 124.196C88.3371 123.549 88.4199 122.352 87.9549 121.451C87.5007 120.569 86.4518 119.906 85.2226 120.526C79.774 123.734 76.1829 130.013 76.0724 136.528C76.0276 137.474 76.0884 139.202 76.3259 140.796C76.3499 140.958 76.2935 141.122 76.1746 141.235C76.0556 141.347 75.889 141.394 75.7283 141.361C74.8127 141.171 73.8628 141.079 72.9759 141.079Z" fill="#2D1D1D"/>
<path opacity="0.5" d="M143.868 95.2933C145.547 88.3132 134.39 79.6449 118.95 75.932C103.509 72.2192 89.6316 74.8678 87.9531 81.8478C86.2747 88.8279 97.4311 97.4962 112.872 101.209C128.312 104.922 142.19 102.273 143.868 95.2933Z" fill="#B9D3F9"/>
<path d="M112.795 101.68C112.75 101.669 112.75 101.669 112.795 101.68C105.249 99.8658 98.4751 96.8425 93.7466 93.1091C88.8819 89.343 86.6797 85.3033 87.5428 81.7122C88.3952 78.1666 92.1934 75.5695 98.2493 74.3807C104.147 73.2501 111.555 73.6369 119.101 75.4509C126.647 77.265 133.421 80.2883 138.15 84.0217C143.015 87.7878 145.217 91.8275 144.354 95.4186C143.501 98.9643 139.703 101.561 133.647 102.75C127.704 103.87 120.296 103.483 112.795 101.68ZM118.837 76.3491C103.654 72.6989 90.0239 75.1921 88.3955 81.9651C86.7782 88.6927 97.82 97.1659 112.957 100.805C128.14 104.455 141.771 101.962 143.399 95.1891C144.164 92.0072 142.078 88.2838 137.544 84.7415C132.885 81.121 126.247 78.1305 118.837 76.3491Z" fill="#B9D3F9"/>
<path d="M129.801 92.7387C129.755 92.7277 129.755 92.7277 129.71 92.717C129.493 92.6168 108.179 83.0687 88.2058 81.3441C87.9677 81.3351 87.784 81.0986 87.7933 80.8601C87.8027 80.6216 88.0388 80.4383 88.2773 80.4476C108.387 82.2049 129.838 91.7861 130.054 91.8863C130.27 91.9865 130.397 92.2574 130.297 92.4738C130.253 92.6552 130.028 92.7931 129.801 92.7387Z" fill="#B9D3F9"/>
<path opacity="0.5" d="M124.767 88.1337C138.703 80.5214 147.21 69.2439 143.769 62.9447C140.328 56.6454 126.241 57.7099 112.306 65.3222C98.371 72.9345 89.8637 84.212 93.3048 90.5113C96.7458 96.8105 110.832 95.746 124.767 88.1337Z" fill="#B9D3F9"/>
<path d="M98.67 94.6316C95.9427 93.9759 93.9919 92.6892 92.9651 90.7596C91.1898 87.5439 92.2607 83.089 95.9924 78.1679C99.6002 73.3612 105.352 68.6375 112.157 64.9358C118.961 61.2342 126.005 58.9367 132.033 58.4628C138.153 58.0105 142.498 59.5363 144.274 62.752C146.049 65.9676 144.978 70.4225 141.246 75.3437C137.639 80.1503 131.887 84.8741 125.082 88.5757C118.278 92.2774 111.234 94.5748 105.205 95.0488C102.667 95.2081 100.488 95.0688 98.67 94.6316ZM112.549 65.7037C98.8734 73.1866 90.4002 84.2287 93.7438 90.322C95.312 93.1996 99.361 94.5578 105.14 94.1199C111.022 93.6586 117.953 91.43 124.644 87.7974C131.336 84.1649 136.964 79.5557 140.505 74.829C143.967 70.2278 145.007 66.1022 143.45 63.1792C141.881 60.3019 137.832 58.9434 132.053 59.3813C126.183 59.7972 119.241 62.0712 112.549 65.7037Z" fill="#B9D3F9"/>
<path d="M93.2505 90.9711C93.1597 90.9494 93.0795 90.8819 93.0451 90.8255C92.8962 90.6454 92.9162 90.3618 93.0508 90.2018C109.518 75.3117 130.791 67.8279 131.006 67.7354C131.22 67.6428 131.482 67.7537 131.564 68.0139C131.656 68.2287 131.545 68.4903 131.285 68.5721C131.07 68.6646 109.955 76.0903 93.6123 90.8659C93.5452 90.9457 93.3872 91.0038 93.2505 90.9711Z" fill="#B9D3F9"/>
<path d="M68.1153 102.911C72.2762 121.846 95.0914 138.537 113.746 128.906C114.401 128.578 115.102 128.158 115.757 127.784C118.281 126.194 120.432 124.09 122.068 121.612C123.19 119.882 124.032 117.966 124.546 115.955C127.024 106.091 122.536 95.01 115.382 88.0439C113.045 85.8467 107.715 80.5166 103.554 76.3089C100.655 73.3635 98.271 70.9325 97.8501 70.4648L67.6947 72.8959C67.4142 73.2232 67.04 75.9348 66.8066 79.6281C66.3386 87.0622 66.3386 98.4701 68.1153 102.911Z" fill="#F9C710"/>
<path d="M68.2574 103.66C72.8392 122.267 95.2803 138.444 113.748 128.953C101.171 132.179 85.8364 125.867 77.9822 112.59C70.0341 99.1716 72.0446 82.3875 72.0446 82.3875L66.8552 79.7227C66.3875 86.829 66.3875 97.5823 67.9304 102.398C68.0236 102.772 68.1639 103.192 68.2574 103.66Z" fill="#F8A01F"/>
<path d="M122.021 121.614C123.143 119.884 123.985 117.967 124.499 115.957C126.977 106.092 122.488 95.0116 115.335 88.0455C112.998 85.8483 107.668 80.5183 103.507 76.3105L98.5977 78.648C98.5977 78.648 110.239 87.0167 117.907 98.7984C125.387 110.206 122.208 121.053 122.021 121.614Z" fill="#FFD95F"/>
<path d="M66.4818 90.7108C93.4111 91.7392 106.642 79.4902 106.642 79.4902C101.312 74.1605 97.8527 70.5137 97.8527 70.5137L73.7752 72.4774L67.744 72.9918C67.744 72.9918 67.0893 76.2646 66.7156 81.1734C66.4818 83.885 66.3415 87.1574 66.4818 90.7108Z" fill="#332E25"/>
<path d="M102.248 132.134C98.4139 132.134 94.4397 131.293 90.5126 129.657C79.2453 124.934 70.0816 114.228 67.6974 103.007C65.3599 91.6466 66.248 80.9401 67.2765 72.852C67.3233 72.665 67.4636 72.4779 67.6974 72.4779L97.8528 70.0469C97.993 70.0469 98.1333 70.0936 98.2269 70.1872C99.1618 71.3092 111.738 83.9326 115.712 87.7194C123.567 95.387 127.307 106.795 125.016 116.051C123.801 120.961 120.528 125.355 116.04 128.16C111.785 130.825 107.11 132.134 102.248 132.134ZM68.5388 102.821C70.8763 113.761 79.8529 124.187 90.8399 128.815C99.4891 132.462 108.232 131.948 115.479 127.366C119.78 124.701 122.912 120.493 124.034 115.818C126.606 105.439 121.369 94.5456 115.011 88.3741C111.177 84.7276 99.3489 72.8523 97.619 70.9354L68.0712 73.3196C67.0895 81.3142 66.2477 91.7401 68.5388 102.821Z" fill="#2D1D1D"/>
<path d="M99.0806 125.897C99.1293 125.383 99.8979 125.035 100.798 125.12C101.698 125.205 102.388 125.691 102.339 126.205C102.29 126.719 101.522 127.067 100.622 126.982C99.7219 126.897 99.0318 126.411 99.0806 125.897Z" fill="#F4B503"/>
<path d="M104.068 126.624C104.196 126.124 105.01 125.9 105.885 126.124C106.76 126.348 107.366 126.935 107.238 127.436C107.111 127.936 106.297 128.16 105.421 127.936C104.546 127.711 103.94 127.124 104.068 126.624Z" fill="#F4B503"/>
<path d="M101.591 128.064C101.498 128.438 101.918 128.859 102.573 128.999C103.227 129.139 103.788 128.999 103.882 128.625C103.975 128.251 103.554 127.83 102.9 127.69C102.246 127.55 101.685 127.69 101.591 128.064Z" fill="#F4B503"/>
<path d="M101.547 131.758C102.716 131.805 103.838 131.758 105.007 131.618C107.999 131.29 110.944 130.402 113.843 128.906C114.03 129 114.264 129 114.451 129.046C118.659 129.981 122.259 130.215 124.97 130.122C128.477 130.028 130.534 129.514 130.534 129.514C126.326 128.672 122.586 124.932 121.37 123.623C121.09 123.342 120.949 123.155 120.949 123.155C123.334 120.163 124.643 116.656 125.064 113.057C125.017 113.244 121.51 125.446 101.547 131.758Z" fill="#332E25"/>
<path d="M121.367 123.623C121.367 123.717 122.022 128.111 125.014 130.122C128.52 130.028 130.577 129.514 130.577 129.514C126.323 128.672 122.583 124.932 121.367 123.623Z" fill="#3F3A31"/>
<path d="M102.245 132.132C102.011 132.132 101.534 132.115 101.3 132.115C101.066 132.115 101.122 131.992 101.122 131.805C101.075 131.571 101.216 131.384 101.45 131.337C121.086 125.119 124.639 113.057 124.639 112.963C124.686 112.729 124.919 112.589 125.153 112.636C125.387 112.683 125.527 112.916 125.527 113.15C125.107 116.937 123.751 120.303 121.554 123.202C122.535 124.277 126.416 128.298 130.67 129.14C130.857 129.186 131.044 129.374 131.044 129.561C131.044 129.748 130.904 129.935 130.717 130.028C130.437 130.075 124.032 131.711 114.447 129.561C114.4 129.561 114.307 129.561 114.26 129.514C114.167 129.514 114.073 129.467 113.933 129.467C110.239 131.244 106.312 132.132 102.245 132.132ZM123.844 116.704C121.507 120.584 116.13 126.896 104.489 131.197C107.668 130.916 110.753 129.981 113.605 128.485C113.746 128.439 113.839 128.439 113.98 128.485C114.073 128.532 114.167 128.532 114.307 128.579C114.4 128.579 114.447 128.626 114.541 128.626C120.993 130.075 125.995 129.748 128.566 129.42C124.359 127.784 120.992 123.95 120.618 123.483L120.571 123.436C120.431 123.296 120.431 123.062 120.571 122.875C122.068 121.052 123.143 118.994 123.844 116.704Z" fill="#2D1D1D"/>
<path d="M68.1172 102.915C68.6316 105.019 69.3327 107.122 70.1744 109.133C70.8759 110.723 71.6705 112.312 72.6522 113.855C72.6522 113.855 98.2726 106.562 112.392 91.5072C113.421 90.3852 114.449 89.2164 115.338 88.0473C114.356 87.0656 113.374 86.1304 112.439 85.2422C112.439 85.2422 111.317 86.3174 109.119 87.9538C103.228 92.2554 89.5298 100.484 68.1172 102.915Z" fill="#332E25"/>
<path d="M109.117 87.9534C109.117 87.9534 111.081 89.9639 112.437 91.5535C113.465 90.4316 114.494 89.2628 115.382 88.0937C114.4 87.112 113.418 86.1767 112.483 85.2886C112.437 85.2418 111.314 86.317 109.117 87.9534Z" fill="#3F3A31"/>
<path d="M72.7446 114.413C72.6043 114.413 72.464 114.319 72.3705 114.179C71.5758 112.823 70.4068 110.813 69.7524 109.27C68.911 107.353 68.2095 105.203 67.6952 103.005C67.6484 102.865 67.6952 102.725 67.7419 102.631C67.8354 102.537 67.929 102.444 68.0693 102.444C97.0559 99.1712 112.017 85.0052 112.157 84.8649C112.344 84.6778 112.625 84.6778 112.765 84.8649C113.7 85.7998 114.682 86.7351 115.664 87.67C115.804 87.8103 115.851 88.0909 115.71 88.278C102.666 105.576 73.1655 114.272 72.8852 114.366C72.8381 114.413 72.7914 114.413 72.7446 114.413ZM68.6772 103.286C69.1916 105.296 69.8459 107.166 70.5942 108.943C71.2021 110.345 72.2305 112.122 72.9784 113.431C76.2512 112.449 102.526 103.94 114.775 88.0909C113.981 87.3427 113.186 86.5948 112.438 85.8469C110.1 87.9042 95.326 100.153 68.6772 103.286Z" fill="#2D1D1D"/>
<path d="M69.5646 91.2265C68.5362 91.2265 67.5074 91.2265 66.4789 91.1797C66.2451 91.1797 66.4789 90.9459 66.4789 90.7121C66.4789 90.4783 66.2919 90.2912 66.5257 90.2912C90.5564 91.1794 103.741 81.3614 105.985 79.4912C101.497 75.0029 98.3642 71.7301 97.6631 70.9823L67.7415 73.4133C67.5077 73.4133 67.2739 73.2262 67.2739 72.9924C67.2739 72.7586 67.461 72.5248 67.6948 72.5248L97.8501 70.0938C97.9904 70.0938 98.1307 70.1405 98.2243 70.234C98.271 70.2808 101.731 73.9273 107.014 79.2106C107.107 79.3041 107.154 79.3977 107.154 79.538C107.154 79.6783 107.107 79.7718 107.014 79.8653C106.826 79.9121 94.2968 91.2265 69.5646 91.2265Z" fill="#2D1D1D"/>
<path d="M114.879 91.3468C115.111 91.0699 115.684 91.1681 116.159 91.5659C116.634 91.9637 116.831 92.5112 116.598 92.7881C116.366 93.065 115.793 92.9668 115.318 92.569C114.843 92.1708 114.647 91.6237 114.879 91.3468Z" fill="#F9C710"/>
<path d="M117.441 93.6554C117.161 93.8892 117.301 94.45 117.675 94.9176C118.049 95.3853 118.61 95.5723 118.89 95.3385C119.171 95.1047 119.031 94.5438 118.657 94.0762C118.236 93.6086 117.675 93.4215 117.441 93.6554Z" fill="#F9C710"/>
<path d="M115.476 93.5143C115.289 93.7014 115.383 94.0755 115.663 94.4492C115.944 94.7766 116.364 94.9169 116.551 94.7298C116.738 94.5428 116.645 94.1687 116.364 93.7949C116.084 93.4675 115.663 93.374 115.476 93.5143Z" fill="#F9C710"/>
<path d="M79.5703 122.082C82.4222 124.654 85.6482 126.898 89.1077 128.581C89.1077 128.581 110.333 120.213 120.759 104.41C121.694 103.008 122.489 101.605 123.237 100.062L121.086 95.4805C121.086 95.4805 120.525 97.1169 118.562 99.7349C114.354 105.252 103.975 114.976 79.5703 122.082Z" fill="#332E25"/>
<path d="M118.516 99.7799C118.516 99.7799 119.731 101.697 120.713 104.455C121.648 103.053 122.443 101.65 123.191 100.107L121.04 95.5254C121.04 95.5254 120.479 97.1614 118.516 99.7799Z" fill="#3F3A31"/>
<path d="M89.3195 128.751C89.2728 128.751 89.0109 128.755 88.9641 128.709C85.5511 127.072 82.4289 125.067 79.4835 122.355C79.3432 122.262 79.1037 122.175 79.1505 122.035C79.1973 121.895 79.2908 121.754 79.4778 121.708C97.8515 116.331 108.09 109.458 113.42 104.643C119.171 99.4537 120.667 95.4327 120.667 95.3859C120.667 95.3392 120.714 95.3392 120.714 95.2924C120.807 95.1521 120.948 95.0586 121.135 95.0586C121.322 95.0586 121.462 95.1521 121.509 95.2924L123.504 99.8973C123.504 99.8973 123.514 100.082 123.56 100.082C123.607 100.176 123.706 100.154 123.66 100.248C114.683 118.762 89.8576 128.767 89.5771 128.861C89.4832 128.908 89.3663 128.751 89.3195 128.751ZM80.5066 122.316C83.1715 124.653 86.0701 126.617 89.1558 128.113C91.4466 127.178 114.262 117.36 122.771 100.108L121.135 96.6014C120.387 98.0975 118.423 101.324 114.122 105.204C108.745 110.02 98.5997 116.892 80.5066 122.316Z" fill="#2D1D1D"/>
<path d="M121.85 132.595C121.8 132.548 121.75 132.501 121.694 132.46C114.868 130.917 108.183 126.522 107.154 119.088C107.575 115.302 101.918 114.553 101.918 118.527C102.602 123.921 105.693 128.822 110.038 131.949C111.305 132.862 112.702 133.576 114.152 134.156C115.207 134.578 116.573 135.181 117.898 135.567C116.483 138.615 116.172 142.893 117.861 143.494C120.793 144.593 124.35 134.113 121.85 132.595Z" fill="#332E25"/>
<path d="M121.183 135.872C120.902 138.49 119.406 142.324 117.863 143.493C119.172 143.914 121.043 141.81 122.071 138.724C123.053 135.826 122.866 133.114 121.697 132.459C121.463 132.319 121.229 132.179 120.949 132.132C119.126 131.758 117.349 131.15 115.713 130.355C114.123 129.561 112.627 128.532 111.365 127.269C109.167 125.072 107.625 122.127 107.157 119.088C107.157 119.275 107.017 125.166 110.196 128.298C113.001 131.103 117.256 132.6 119.594 133.161C119.921 133.254 120.202 133.301 120.435 133.301C121.183 133.441 121.37 134.47 121.183 135.872Z" fill="#3F3A31"/>
<path d="M81.3817 84.821C73.948 100.109 58.5665 110.114 41.595 103.99H41.5483C39.9587 103.382 40.0522 101.512 41.0339 100.67C41.408 100.39 41.8753 100.202 42.3897 100.296C42.53 100.296 42.6235 100.343 42.7638 100.39C44.4937 100.904 46.2236 101.324 48 101.512C60.0155 103.382 70.5813 94.826 75.8646 84.5872C76.0984 84.0728 76.379 83.6055 76.6125 83.0911C77.688 79.6316 82.7842 81.4547 81.3817 84.821Z" fill="#332E25"/>
<path d="M64.584 22.7904C64.0091 21.107 63.3314 19.4038 62.6086 17.7136C61.8857 16.0234 61.0861 14.4034 60.1962 12.8095C59.3515 11.2025 58.3715 9.6339 57.4045 8.11008C56.3924 6.59895 55.3034 5.15864 54.1243 3.74371C53.9002 3.46714 53.9329 3.06899 54.2095 2.84486C54.4861 2.62073 54.8392 2.66615 55.0957 2.88494C56.4097 4.26145 57.6339 5.66369 58.7486 7.19419C59.8632 8.72468 60.9331 10.2679 61.9255 11.8815C62.9179 13.4952 63.8207 15.1346 64.6782 16.7864C65.5486 18.4832 66.3162 20.1607 67.0645 21.941C67.346 22.59 67.0297 23.3603 66.368 23.5968C65.719 23.878 64.9487 23.562 64.7122 22.9003C64.6094 22.8803 64.6094 22.8803 64.584 22.7904Z" fill="#332E25"/>
<path d="M98.481 20.9444C99.2242 19.153 100.043 17.5123 100.96 15.8369C101.831 14.1557 102.788 12.5324 103.786 10.9614C104.784 9.39052 105.876 7.83096 107.053 6.32986C108.185 4.82274 109.49 3.43153 110.79 2.08708C111.057 1.8379 111.434 1.8379 111.689 2.05869C111.944 2.27915 111.938 2.70235 111.717 2.95755C110.511 4.31402 109.391 5.72828 108.352 7.24709C107.313 8.7659 106.367 10.2964 105.461 11.879C104.556 13.4616 103.738 15.1023 102.965 16.7487C102.193 18.3951 101.508 20.0997 100.875 21.7638L100.869 21.8102C100.643 22.4886 99.8946 22.8186 99.2162 22.5922C98.5378 22.3657 98.2078 21.6175 98.4343 20.9391C98.475 20.9909 98.481 20.9444 98.481 20.9444Z" fill="#332E25"/>
<path d="M65.8765 24.1534C65.6444 24.1534 65.4082 24.1063 65.1881 24.0107C64.8283 23.8548 64.5448 23.5895 64.3717 23.2522C64.2752 23.1894 64.2007 23.0912 64.1519 22.9282C63.6352 21.415 62.9939 19.7676 62.1922 17.8924C61.4814 16.23 60.6988 14.6397 59.8006 13.0307C58.9549 11.4224 57.9645 9.83843 57.0219 8.35303C56.0482 6.90002 54.9846 5.48409 53.7758 4.03376C53.5884 3.80295 53.5019 3.5207 53.528 3.23511C53.5547 2.9435 53.695 2.68096 53.9238 2.49591C54.3547 2.14652 54.9426 2.16489 55.3862 2.54301C55.3978 2.55303 55.4092 2.56372 55.4199 2.57474C56.9146 4.14031 58.0874 5.52451 59.1112 6.93009C60.4085 8.71144 61.4243 10.2102 62.3075 11.6468C63.205 13.1059 64.1105 14.7195 65.0765 16.58C65.9126 18.2101 66.6755 19.8578 67.4782 21.7678C67.6629 22.1933 67.6622 22.688 67.4748 23.1202C67.2894 23.5478 66.9494 23.8685 66.5178 24.0228C66.3204 24.1093 66.1007 24.153 65.8765 24.1534ZM64.9747 22.5457C65.0475 22.5988 65.1066 22.67 65.1353 22.7505C65.2048 22.9445 65.3511 23.0985 65.5468 23.1834C65.7513 23.2719 65.9847 23.2726 66.1872 23.1847C66.409 23.1045 66.5629 22.9582 66.6478 22.7618C66.7363 22.5577 66.7366 22.3243 66.6491 22.1222C65.8535 20.2293 65.0996 18.6012 64.2752 16.9939C63.3206 15.1548 62.4254 13.5598 61.5395 12.1195C60.6687 10.7036 59.6657 9.22349 58.3823 7.46152C57.3869 6.09469 56.2439 4.74556 54.7866 3.21774C54.7274 3.17164 54.6065 3.10417 54.492 3.19669C54.4432 3.23611 54.4295 3.28388 54.4265 3.31694C54.4218 3.36738 54.4385 3.41882 54.4729 3.46158C55.6978 4.93128 56.78 6.37193 57.7774 7.86068C58.7361 9.37113 59.7378 10.9728 60.5936 12.6011C61.5021 14.2278 62.2981 15.8459 63.0216 17.5377C63.8166 19.3965 64.4559 21.0363 64.9747 22.5457Z" fill="#2D1D1D"/>
<path d="M99.6511 23.1136C99.4607 23.1136 99.267 23.0832 99.0756 23.0197C98.6316 22.8714 98.2776 22.5534 98.0788 22.1242C97.8864 21.7083 97.8617 21.2367 98.009 20.7958C98.0344 20.7193 98.0795 20.6525 98.138 20.6011C98.8053 19.0104 99.5799 17.4221 100.567 15.6201C101.375 14.0605 102.306 12.4545 103.408 10.7196C104.453 9.07554 105.561 7.50462 106.701 6.05128C107.88 4.48037 109.264 3.01934 110.468 1.77343C110.916 1.35423 111.548 1.33787 111.987 1.71765C112.202 1.90437 112.33 2.18495 112.335 2.48724C112.34 2.76682 112.24 3.04573 112.061 3.25249C110.814 4.65373 109.725 6.04193 108.727 7.50162C107.745 8.93659 106.806 10.4417 105.856 12.1028C105.061 13.491 104.273 15.0282 103.376 16.9401C102.726 18.3267 102.071 19.8953 101.319 21.8727C101.315 21.9001 101.309 21.9271 101.299 21.9532C101.061 22.665 100.384 23.1136 99.6511 23.1136ZM98.8264 21.2387C98.8003 21.4121 98.824 21.5871 98.8972 21.7451C98.9904 21.9465 99.155 22.0951 99.3615 22.1639C99.8 22.3099 100.272 22.1062 100.43 21.705C100.435 21.6699 100.443 21.6355 100.456 21.6028C101.225 19.5796 101.894 17.9763 102.559 16.5567C103.467 14.622 104.265 13.0641 105.072 11.6545C106.035 9.97239 106.986 8.44724 107.982 6.99223C109.002 5.50081 110.114 4.08288 111.383 2.65726C111.413 2.62219 111.434 2.56073 111.433 2.50227C111.432 2.45685 111.418 2.41844 111.396 2.3994C111.309 2.32357 111.193 2.32992 111.1 2.41643C109.931 3.62627 108.57 5.06324 107.416 6.60009C106.288 8.03773 105.198 9.58359 104.169 11.2029C103.081 12.9151 102.163 14.4988 101.362 16.044C100.352 17.8904 99.5709 19.4994 98.8999 21.1168H98.8995C98.8811 21.1602 98.8564 21.2016 98.8264 21.2387Z" fill="#2D1D1D"/>
<path d="M80.5085 80.332C81.0696 80.332 81.5837 80.3788 82.1449 80.3788C102.248 80.7997 117.396 77.0593 117.864 56.9557C118.285 36.8521 99.7239 12.821 83.5942 12.4473C82.6125 12.4473 81.5837 12.494 80.5553 12.6343C80.0876 12.6811 79.6203 12.7746 79.1527 12.8681C63.7712 16.1409 47.8286 37.0859 47.4544 55.4131C47.0336 75.0023 61.1995 79.7241 80.5085 80.332Z" fill="#F9C710"/>
<path d="M80.5085 80.3315C80.5085 80.3315 71.6722 79.6768 60.8725 74.0198C50.1193 68.3628 47.1271 49.9423 56.1972 34.1396C65.2673 18.384 79.0591 12.9608 79.1527 12.9141C63.7712 16.1868 47.8286 37.1318 47.4544 55.4591C47.0336 75.0018 61.1995 79.7236 80.5085 80.3315Z" fill="#F8A01F"/>
<path d="M80.5078 80.332C81.069 80.332 81.583 80.3788 82.1442 80.3788C102.248 80.7997 117.396 77.0593 117.863 56.9557C118.284 36.8521 99.7232 12.821 83.5935 12.4473C82.6118 12.4473 81.583 12.494 80.5546 12.6343C80.5546 12.6343 89.2506 11.1382 101.219 24.5096C113.188 37.8809 116.694 53.9638 114.637 64.1559C112.533 74.3944 99.1153 79.3971 80.5078 80.332Z" fill="#FFD95F"/>
<path d="M84.9008 80.8948C84.0126 80.8948 83.0774 80.8948 82.1424 80.848C70.4542 80.6142 62.4129 78.9778 56.8958 75.7053C50.0701 71.6847 46.8441 65.0456 47.0311 55.4615C47.2182 45.8773 51.7532 34.8435 59.1402 26.0072C66.5739 17.0774 75.7375 11.8412 83.6385 12.0283C91.3528 12.2153 100.189 17.8256 107.295 27.036C114.402 36.2464 118.516 47.4202 118.282 56.9576C118.095 66.5417 114.589 73.0405 107.576 76.7806C102.386 79.5389 95.1393 80.8948 84.9008 80.8948ZM83.2176 12.9165C75.6904 12.9165 66.9477 18.0123 59.7945 26.5684C52.5479 35.2644 48.1063 46.0644 47.9193 55.4615C47.7322 64.6719 50.8179 71.0768 57.3167 74.9107C62.6932 78.09 70.5945 79.6796 82.1424 79.9598C93.6903 80.1936 101.638 78.9314 107.155 75.9859C113.841 72.3858 117.207 66.168 117.394 56.9576C117.815 37.1346 99.4876 13.2438 83.5917 12.9165C83.4515 12.9165 83.3579 12.9165 83.2176 12.9165Z" fill="#A55A0F"/>
<path d="M92.849 34.1405C94.9063 35.4028 97.0567 35.6834 97.6647 34.7484C98.2726 33.8135 97.0568 31.99 94.9998 30.7278C92.9426 29.4655 90.7921 29.1849 90.1842 30.1198C89.5763 31.0548 90.7921 32.8782 92.849 34.1405Z" fill="#F8A01F"/>
<path d="M96.2602 35.7773C96.0732 35.7773 95.9329 35.7773 95.6991 35.7306C94.7174 35.5903 93.5951 35.1694 92.5666 34.5151C91.4914 33.8604 90.6496 33.0657 90.0888 32.2243C89.4809 31.2894 89.3406 30.4477 89.7615 29.8401C90.1356 29.2321 90.977 28.9519 92.0522 29.0922C93.0339 29.2325 94.1562 29.6533 95.1847 30.3077C96.2599 30.9624 97.1016 31.757 97.6625 32.5984C98.2704 33.5334 98.4107 34.3751 97.9898 34.9827C97.7096 35.4968 97.1016 35.7773 96.2602 35.7773ZM90.5564 30.4009C90.3694 30.6815 90.5097 31.1955 90.8838 31.8035C91.3514 32.5049 92.146 33.206 93.0813 33.814C94.0162 34.4219 94.9983 34.7956 95.8397 34.8892C96.5411 34.9827 97.0552 34.8424 97.2423 34.5618C97.4293 34.2813 97.289 33.7672 96.9149 33.1593C96.4473 32.4578 95.6526 31.7567 94.7174 31.1488C92.914 29.9763 90.9616 29.7255 90.5564 30.4009Z" fill="#A55A0F"/>
<path d="M67.6981 33.578C70.0356 32.8766 71.6252 31.4273 71.2982 30.352C70.9708 29.2768 68.8204 28.9962 66.4825 29.7441C64.145 30.4456 62.5554 31.8949 62.8824 32.9701C63.2101 33.9989 65.3606 34.2795 67.6981 33.578Z" fill="#F8A01F"/>
<path d="M64.5163 34.3721C63.441 34.2318 62.6928 33.7642 62.5058 33.0631C62.0849 31.7073 63.768 30.0709 66.3861 29.2763C69.0042 28.4816 71.342 28.8554 71.7626 30.2112C71.9964 30.9126 71.6223 31.7073 70.8277 32.4084C70.0798 33.0631 69.051 33.6239 67.8822 33.998C66.3113 34.4697 65.0029 34.4693 64.5163 34.3721ZM66.6674 30.1644C64.5166 30.8191 63.1608 32.1282 63.3478 32.8293C63.4414 33.1566 63.909 33.3904 64.6101 33.484C65.4515 33.5775 66.4803 33.484 67.5555 33.1566C68.6308 32.8293 69.566 32.3152 70.1736 31.754C70.688 31.2864 70.9683 30.8191 70.8751 30.4918C70.6399 29.7876 68.6712 29.4964 66.6674 30.1644Z" fill="#A55A0F"/>
<path d="M89.4707 15.9098C89.6902 15.4425 90.5313 15.3747 91.3493 15.7588C92.1673 16.1429 92.6526 16.833 92.4332 17.3007C92.2137 17.768 91.3726 17.8358 90.5546 17.4517C89.7366 17.0675 89.2513 16.3771 89.4707 15.9098Z" fill="#F4B503"/>
<path d="M93.9304 18.2633C94.22 17.8358 95.0614 17.9003 95.8096 18.407C96.5578 18.914 96.9296 19.6713 96.64 20.0988C96.3504 20.5264 95.509 20.4619 94.7607 19.9548C94.0125 19.4485 93.6408 18.6909 93.9304 18.2633Z" fill="#F4B503"/>
<path d="M91.1357 18.7866C91.3532 18.466 91.9624 18.4994 92.4969 18.8615C93.0313 19.2235 93.2885 19.777 93.0711 20.0977C92.8536 20.4183 92.2444 20.3849 91.7099 20.0229C91.1755 19.6611 90.9186 19.1076 91.1357 18.7866Z" fill="#F4B503"/>
<path d="M94.5315 51.7195C95.6068 50.8781 97.1964 51.7195 97.0093 53.0753V53.1221C96.1212 59.8543 91.4926 65.6517 82.9837 67.2413C75.4097 68.6906 68.4903 64.3894 66.9475 60.7425C66.4798 59.6205 66.4798 58.5917 67.1345 57.7503C69.2385 55.0387 75.0826 58.9658 83.311 57.1891C88.2198 56.161 92.1473 53.6361 94.5315 51.7195Z" fill="#22213F"/>
<path d="M97.0093 53.0286C97.0093 53.0753 97.0093 53.1221 97.0093 53.1221C84.8068 66.3999 67.1345 60.7896 66.9475 60.7429C66.4798 59.6209 66.4798 58.5921 67.1345 57.7507C69.2385 55.0391 75.0826 58.9662 83.311 57.1895C88.2669 56.1611 92.194 53.543 94.5783 51.6728C95.6535 50.831 97.1964 51.6728 97.0093 53.0286Z" fill="white"/>
<path d="M79.9911 67.942C74.1938 67.942 68.9576 64.9966 66.9471 61.7238C65.9654 60.0874 65.8719 58.5913 66.7601 57.4694C67.9756 55.8797 70.1731 56.2538 72.9783 56.6747C75.7366 57.0956 79.1497 57.6096 83.1703 56.7682C87.8924 55.7398 91.726 53.3084 94.0635 51.4853C94.7182 50.9709 95.6064 50.8774 96.3543 51.2983C97.1025 51.7191 97.4763 52.5138 97.3827 53.3555C96.3075 60.836 90.9775 66.1657 83.0297 67.6618C82.0483 67.8485 81.0196 67.942 79.9911 67.942ZM69.7055 57.1888C68.7238 57.1888 67.9756 57.3758 67.5079 57.9834C66.6665 59.1054 67.2741 60.508 67.7418 61.2562C69.612 64.2951 75.6899 68.1287 82.8898 66.7729C90.417 65.3704 95.5129 60.2742 96.5417 53.2146C96.6352 52.6534 96.3078 52.2329 95.9805 52.0458C95.6532 51.8587 95.1391 51.7652 94.7182 52.1393C92.2872 54.0563 88.3597 56.5808 83.4509 57.6093C79.2432 58.4975 75.7366 57.9367 72.9315 57.5158C71.6692 57.3758 70.5936 57.1888 69.7055 57.1888Z" fill="#A55A0F"/>
<path d="M45.0372 137.488C44.3876 137.627 43.7649 137.202 43.6674 136.574L22.1749 30.7206C22.0356 30.0709 22.4609 29.4483 23.0892 29.3507C23.7388 29.2114 24.3615 29.6366 24.459 30.2649L45.9932 136.139C46.0904 136.768 45.6655 137.39 45.0372 137.488Z" fill="#3A4668"/>
<path d="M44.0903 137.79C43.6744 137.577 43.3237 137.134 43.2038 136.651L21.7114 30.7984C21.533 29.9182 22.1275 29.0675 23.0077 28.8891C23.8878 28.7107 24.7386 29.3053 24.917 30.1854L46.4094 136.038C46.5878 136.919 45.9932 137.769 45.1131 137.948C44.7567 138.028 44.423 137.961 44.0903 137.79ZM23.6661 29.8584C23.5415 29.7943 23.3537 29.7505 23.1861 29.7696C22.7882 29.828 22.5331 30.2225 22.5912 30.6203L44.1254 136.495C44.1838 136.893 44.5783 137.148 44.9762 137.09C45.374 137.031 45.6292 136.637 45.5711 136.239L24.0368 30.3641C23.9974 30.134 23.8324 29.9439 23.6661 29.8584Z" fill="#22213F"/>
<path d="M41.9073 17.112L46.595 41.9868C46.8451 43.3529 45.9409 44.6493 44.6125 44.9188L8.08329 52.1862C6.71713 52.4364 5.42077 51.5322 5.15122 50.2038L0.463521 25.329C0.213337 23.9628 1.11754 22.6665 2.44595 22.3969L38.9752 15.1295C40.3414 14.8794 41.638 15.7836 41.9073 17.112Z" fill="#F5F8FF"/>
<path d="M41.9257 17.168L46.5757 42.0234C46.8258 43.3895 45.9216 44.6859 44.5932 44.9555L8.10174 52.2419L3.4518 27.3864C3.20162 26.0203 4.10582 24.7239 5.43424 24.4544L41.9257 17.168Z" fill="#E6ECFF"/>
<path d="M42.0706 17.908L46.5966 41.9858C46.8468 43.352 45.9426 44.6483 44.6142 44.9179L8.71094 52.0784L39.6179 42.9695C42.0292 42.3523 43.6258 40.0786 43.4635 37.6155L41.9771 17.8125C41.9577 17.8499 41.9955 17.8693 42.0706 17.908Z" fill="#C7D1EA"/>
<path d="M6.28443 52.3574C5.49379 51.9512 4.91459 51.2251 4.73555 50.2764L0.0478528 25.4016C-0.237738 23.8271 0.782388 22.3046 2.37669 21.9812L38.9059 14.7139C40.4805 14.4283 42.003 15.4484 42.3263 17.0427L47.014 41.9175C47.2996 43.4921 46.2795 45.0146 44.6852 45.3379L8.1563 52.6053C7.51097 52.7499 6.8496 52.6477 6.28443 52.3574ZM40.391 15.7149C39.9768 15.5022 39.4851 15.44 39.0679 15.5112L2.53868 22.7782C1.38129 22.9927 0.630725 24.0826 0.845503 25.24L5.5332 50.1148C5.74764 51.2722 6.83756 52.0227 7.99496 51.8079L44.5242 44.5406C45.6816 44.3261 46.4322 43.2362 46.2174 42.0788L41.5297 17.204C41.4411 16.6348 41.1055 16.1769 40.6545 15.8499C40.5794 15.8118 40.5039 15.7731 40.391 15.7149Z" fill="#8196C9"/>
<path d="M43.3241 102.493C41.5006 106.093 32.7579 103.755 33.1788 99.5945C33.3191 96.7426 43.5111 98.0984 43.3241 102.493Z" fill="#332E25"/>
<path d="M75.8181 84.5391C70.909 95.479 65.626 99.1259 58.5197 101.978C52.7223 104.315 45.616 102.632 43.2781 101.978C42.7638 101.838 42.4835 101.744 42.4835 101.744C41.9691 101.323 41.5018 100.949 40.9874 100.669C37.0135 98.2845 33.1328 100.061 33.1328 100.061C33.1328 99.9205 33.1328 99.7335 33.1328 99.5932C33.2731 97.2557 39.8651 97.7698 42.3432 100.248C42.4835 100.248 42.577 100.295 42.7173 100.341C44.4472 100.856 46.1771 101.276 47.9535 101.463C60.0158 103.38 70.5349 94.8247 75.8181 84.5391Z" fill="#3F3A31"/>
<path d="M39.7697 104.642C37.8995 104.642 35.7023 104.081 34.253 102.865C33.1778 101.977 32.6634 100.808 32.7569 99.5456C32.8037 98.8442 33.2713 98.2834 34.1127 97.956C36.2167 97.1614 40.6115 97.8625 42.6684 99.9197C42.8555 100.107 42.8555 100.387 42.6684 100.574C42.4813 100.761 42.2008 100.761 42.0137 100.574C40.237 98.8445 36.2164 98.1434 34.3929 98.8445C33.8785 99.0316 33.5983 99.3122 33.5983 99.6859C33.5515 100.668 33.9257 101.509 34.7671 102.21C36.497 103.66 39.6739 104.054 41.497 103.586C41.497 103.586 41.7799 103.707 41.8734 103.94C41.9202 104.174 41.7799 104.408 41.5461 104.502C41.032 104.595 40.4241 104.642 39.7697 104.642Z" fill="#2D1D1D"/>
<path d="M51.7867 106.326C48.4671 106.326 45.0077 105.718 41.4075 104.455C41.1737 104.362 41.0334 104.128 41.127 103.894C41.2205 103.66 41.4543 103.52 41.6881 103.614C59.3607 109.972 74.0878 98.7044 80.9136 84.6787C81.0071 84.4449 81.2877 84.3514 81.5215 84.4917C81.7553 84.5852 81.8489 84.8658 81.7086 85.0996C76.1451 96.5543 65.2983 106.326 51.7867 106.326Z" fill="#2D1D1D"/>
<path d="M51.3192 102.211C50.1972 102.211 49.0285 102.118 47.9062 101.931C46.1762 101.697 43.9413 101.239 42.1649 100.678C42.0714 100.631 42.6038 100.291 42.5103 100.291C42.2765 100.291 41.875 100.481 41.875 100.248C41.875 100.014 42.1088 99.8267 42.3426 99.8267C42.5297 99.8267 42.67 99.8735 42.857 99.9202C44.5869 100.435 46.3169 100.808 47.9997 101.042C60.7163 103.006 71.4696 93.0009 76.0981 82.8556C76.1917 82.6218 76.4722 82.5282 76.706 82.6218C76.9399 82.7153 77.0334 82.9959 76.9399 83.2297C74.3218 88.9803 70.2076 94.0297 65.3452 97.4424C60.9501 100.575 56.1345 102.211 51.3192 102.211Z" fill="#2D1D1D"/>
<path d="M32.0898 83.5095C33.3407 83.2526 34.5987 85.6279 34.8161 87.0615C34.9878 88.4854 34.1414 89.3075 33.8635 89.4868C33.5859 89.6662 32.342 89.4461 31.5206 87.9303C30.2363 85.4538 31.3352 83.6818 32.0898 83.5095Z" fill="#332E25"/>
<path d="M33.1984 89.9188C33.1526 89.9091 33.1068 89.8991 33.0611 89.8894C32.6953 89.8106 31.7293 89.4115 31.0512 88.1178C30.0345 86.1771 30.4864 84.7441 30.7416 84.2251C31.0165 83.6148 31.4905 83.1906 31.9411 83.0964C32.3462 82.9922 32.8032 83.0907 33.211 83.4177C34.2094 84.1108 35.0275 85.8651 35.2025 87.0509C35.4263 88.6773 34.4489 89.6623 34.0144 89.9038C33.8577 89.9653 33.5638 89.9977 33.1984 89.9188ZM32.4334 83.9198C32.3419 83.9001 32.2965 83.8904 32.1949 83.9164C32.0937 83.9425 31.8158 84.1218 31.6261 84.5591C31.4461 84.9509 31.1087 86.0735 31.9104 87.6809C32.5166 88.8636 33.375 89.0961 33.6232 89.054C33.7899 88.9465 34.4957 88.3332 34.3304 87.102C34.2071 86.119 33.4773 84.6229 32.7334 84.0801C32.6522 84.0146 32.5249 83.9395 32.4334 83.9198Z" fill="#2D1D1D"/>
<path d="M25.0135 124.264C24.7814 124.264 24.5733 124.102 24.5235 123.866L19.292 98.8951C19.2352 98.6242 19.4089 98.3589 19.6798 98.3022C19.95 98.244 20.2159 98.4191 20.273 98.6896L25.5045 123.66C25.5613 123.931 25.3876 124.196 25.1167 124.253C25.082 124.261 25.0476 124.264 25.0135 124.264Z" fill="#B9D3F9"/>
<path d="M20.9979 133.463C20.7657 133.463 20.5576 133.301 20.5079 133.065L15.2764 108.094C15.2196 107.823 15.3933 107.558 15.6642 107.501C15.9347 107.443 16.2006 107.618 16.2574 107.889L21.4889 132.86C21.5457 133.13 21.372 133.396 21.1011 133.452C21.0667 133.46 21.0323 133.463 20.9979 133.463Z" fill="#B9D3F9"/>
<path d="M48.8537 2.91319C51.8729 1.77283 54.7128 1.8864 55.1961 3.16638C55.6798 4.4467 53.6239 6.40875 50.6043 7.54911C47.5851 8.68947 44.7452 8.57591 44.2618 7.29592C43.7785 6.01594 45.8341 4.05355 48.8537 2.91319Z" fill="#332E25"/>
<path d="M46.7647 8.79413C45.2696 8.79413 44.1747 8.33952 43.8416 7.45703C43.2518 5.89513 45.3388 3.76139 48.696 2.49343C52.0533 1.22514 55.0301 1.44693 55.6197 3.00916C55.9216 3.80848 55.5335 4.77782 54.5271 5.73848C53.6169 6.60727 52.2811 7.40058 50.7656 7.9731C49.3046 8.52457 47.9161 8.79413 46.7647 8.79413ZM49.0147 3.33684C46.127 4.42743 44.3474 6.24352 44.6854 7.13837C45.0234 8.03356 47.5593 8.21961 50.4466 7.12935C51.8519 6.59859 53.0794 5.87309 53.9041 5.08613C54.6109 4.4114 54.9369 3.75404 54.7759 3.32782C54.4379 2.4323 51.902 2.24659 49.0147 3.33684Z" fill="#2D1D1D"/>
<path d="M110.613 2.3899C111.118 1.11827 113.959 1.05414 116.957 2.2466C119.956 3.43907 121.977 5.43654 121.471 6.70783C120.966 7.97946 118.125 8.0436 115.126 6.85113C112.128 5.65866 110.107 3.66153 110.613 2.3899Z" fill="#332E25"/>
<path d="M119.093 8.14728C117.867 8.14728 116.409 7.83496 114.966 7.26111C111.632 5.93503 109.582 3.76521 110.199 2.21367C110.515 1.41969 111.455 0.965085 112.846 0.933687C114.099 0.902957 115.625 1.21928 117.131 1.81785C120.465 3.14393 122.515 5.31375 121.898 6.86529C121.582 7.65927 120.642 8.11354 119.251 8.14494C119.199 8.14661 119.146 8.14728 119.093 8.14728ZM113.006 1.83388C112.959 1.83388 112.912 1.83422 112.866 1.83555C111.889 1.8576 111.205 2.12348 111.037 2.54669C110.683 3.43553 112.431 5.28201 115.299 6.42271C116.695 6.97752 118.093 7.27146 119.23 7.24341C120.208 7.22136 120.891 6.95548 121.06 6.53227C121.413 5.6431 119.665 3.79661 116.797 2.65625C115.458 2.12415 114.119 1.83388 113.006 1.83388Z" fill="#2D1D1D"/>
<path d="M66.0586 48.8591C65.974 48.8591 65.8889 48.8381 65.8114 48.794C65.7563 48.7629 60.2579 45.7173 53.9278 48.4767C53.6743 48.5872 53.379 48.471 53.2684 48.2175C53.1579 47.9639 53.2738 47.6687 53.5273 47.5581C57.9965 45.6104 62.0045 46.3195 64.2972 47.0748C62.6552 45.5827 60.6788 44.7987 60.6527 44.7887C60.3952 44.6882 60.2673 44.3979 60.3675 44.14C60.468 43.8822 60.7586 43.7539 61.0155 43.8548C61.1651 43.9129 64.7011 45.3104 66.4804 48.0882C66.6047 48.2823 66.5803 48.5358 66.422 48.7028C66.3251 48.8053 66.1928 48.8591 66.0586 48.8591Z" fill="#22213F"/>
<path d="M92.9387 48.8589C92.7947 48.8589 92.6535 48.7971 92.5559 48.6816C92.4036 48.5012 92.3976 48.239 92.5415 48.0522C94.5594 45.4342 97.4701 43.9371 97.593 43.8746C97.8395 43.7497 98.1408 43.8476 98.2667 44.0941C98.392 44.3406 98.2938 44.6422 98.0476 44.7678C98.0262 44.7788 96.4072 45.6135 94.8076 47.0776C97.1057 46.3587 101.014 45.686 105.198 47.3822C105.455 47.4864 105.579 47.7784 105.474 48.0349C105.37 48.2914 105.078 48.4147 104.822 48.3111C98.7975 45.8687 93.2297 48.7707 93.1742 48.8008C93.0997 48.8399 93.0189 48.8589 92.9387 48.8589Z" fill="#22213F"/>
<path d="M118.309 144.077C118.099 144.077 117.891 144.039 117.686 143.962C117.199 143.789 116.806 143.381 116.557 142.786C115.909 141.242 116.2 138.357 117.217 135.879C116.333 135.589 115.463 135.232 114.679 134.91C114.43 134.808 114.191 134.71 113.967 134.62C112.343 133.971 110.963 133.231 109.746 132.355C105.145 129.044 102.111 124.026 101.422 118.59C101.387 118.315 101.582 118.065 101.856 118.03C102.131 117.996 102.381 118.19 102.416 118.464C103.07 123.625 105.956 128.392 110.331 131.542C111.481 132.369 112.792 133.072 114.339 133.69C114.566 133.781 114.807 133.88 115.06 133.984C115.98 134.361 117.024 134.79 118.04 135.086C118.18 135.127 118.296 135.227 118.356 135.36C118.416 135.493 118.416 135.645 118.354 135.778C117.296 138.054 116.904 141.024 117.481 142.398C117.62 142.731 117.805 142.941 118.03 143.021C118.831 143.322 120.009 142.106 120.964 139.996C122.333 136.971 122.649 133.589 121.615 133.035C120.923 132.665 119.968 132.336 118.863 131.955C114.163 130.334 107.06 127.885 106.654 117.633C106.643 117.356 106.858 117.123 107.134 117.112C107.423 117.098 107.644 117.316 107.655 117.593C108.034 127.161 114.482 129.384 119.189 131.007C120.335 131.403 121.325 131.744 122.087 132.152C124.046 133.199 123.143 137.611 121.877 140.409C120.802 142.785 119.531 144.077 118.309 144.077Z" fill="#2D1D1D"/>
</svg>
