<svg width="30" height="28" viewBox="0 0 30 28" fill="none" xmlns="http://www.w3.org/2000/svg">
<path d="M9.8249 13.3367C9.8249 13.3367 9.35771 21.2788 14.6135 27.1186C14.6135 27.1186 8.90357 28.4767 6.7882 21.746C4.86107 15.6142 9.8249 13.3367 9.8249 13.3367Z" fill="#FACF39"/>
<path d="M16.3256 12.2896C16.3256 12.2896 15.9186 19.2083 20.4972 24.2956C20.4972 24.2956 15.5229 25.4787 13.6802 19.6153C12.0013 14.2736 16.3256 12.2896 16.3256 12.2896Z" fill="#FACF39"/>
<path d="M4.27727 18.3413C4.27727 18.3413 3.96108 23.7165 7.51819 27.6688C7.51819 27.6688 4.13111 27.8778 2.68576 23.8775C1.60879 20.8968 4.27727 18.3413 4.27727 18.3413Z" fill="#FACF39"/>
<path d="M21.8266 10.2126C21.8266 10.2126 10.0886 -4.50372 2.02971 1.97845C-6.02921 8.46062 21.8266 10.2126 21.8266 10.2126Z" fill="#FACF39"/>
<path d="M25.9048 19.5679C27.9146 19.5679 29.5439 17.9386 29.5439 15.9287C29.5439 13.9189 27.9146 12.2896 25.9048 12.2896C23.8949 12.2896 22.2656 13.9189 22.2656 15.9287C22.2656 17.9386 23.8949 19.5679 25.9048 19.5679Z" fill="#FACF39"/>
</svg>
