<svg width="190" height="236" viewBox="0 0 190 236" fill="none" xmlns="http://www.w3.org/2000/svg">
<path d="M71.5747 181.898C63.3635 187.583 58.6618 197.688 59.2234 207.583C59.248 208.937 59.5065 211.579 60.0707 214.117C55.2157 213.448 49.4919 214.513 49.3281 217.127C49.9598 222.6 66.1702 222.741 66.8019 218.32L66.8024 218.319C66.311 212.424 64.3463 206.389 66.592 200.565C68.0657 195.722 71.3638 191.231 75.5746 188.494C79.8555 185.827 75.8551 179.301 71.5747 181.898Z" fill="#332E25"/>
<path d="M49.3292 217.122C49.259 217.754 49.6097 218.385 50.2413 218.946C51.1535 216.069 57.2588 215.929 60.6275 216.069C61.961 216.139 62.8732 216.209 62.8732 216.209C62.8732 216.209 62.7329 215.578 62.5225 214.595C61.8908 211.648 60.4171 205.051 61.5402 200.911C64.1365 191.086 68.6984 189.332 68.6984 189.332L67.7863 185.051C62.0316 190.876 58.8738 199.226 59.2951 207.437C59.3652 209.613 59.7164 211.858 60.2073 214.034C59.6457 213.964 59.0141 213.894 58.3829 213.823C53.4698 213.614 49.4699 215.017 49.3292 217.122Z" fill="#3F3A31"/>
<path d="M58.9589 222.15C56.1303 222.15 53.2101 221.609 51.2711 220.559C49.6948 219.705 48.7805 218.546 48.6256 217.208C48.6209 217.166 48.6199 217.124 48.6225 217.083C48.6696 216.326 49.0621 215.626 49.7571 215.057C51.7641 213.415 55.8514 213.008 59.1808 213.307C58.7564 211.099 58.5392 208.871 58.5162 207.596C57.9353 197.368 62.9023 187.043 71.1716 181.317C71.1831 181.309 71.1951 181.301 71.2071 181.294C73.704 179.78 76.2014 180.926 77.3778 182.839C78.5627 184.766 78.4517 187.534 75.9475 189.094C71.9498 191.693 68.7009 196.061 67.2674 200.771C65.7482 204.717 66.4673 209.758 67.0445 213.809C67.2141 214.998 67.3737 216.121 67.4538 217.075C67.5888 218.692 66.7326 220.25 65.3238 220.953C63.7124 221.757 61.3689 222.149 58.9589 222.15ZM50.0381 217.111C50.1632 217.957 50.8038 218.698 51.9446 219.316C55.1501 221.053 61.5835 221.241 64.6931 219.689C65.5896 219.242 66.1329 218.239 66.046 217.192C65.9696 216.279 65.8126 215.176 65.6462 214.009C65.0454 209.795 64.2975 204.551 65.9324 200.311C67.4433 195.34 70.9099 190.683 75.1892 187.902C77.0125 186.766 76.9953 184.914 76.1747 183.578C75.3656 182.261 73.7495 181.418 71.9586 182.491C64.0965 187.945 59.3745 197.776 59.9287 207.543C59.9548 208.964 60.2254 211.559 60.7603 213.964C60.8105 214.19 60.7472 214.426 60.5902 214.596C60.4337 214.766 60.2034 214.85 59.9742 214.817C56.2224 214.301 52.2147 214.872 50.6525 216.151C50.2794 216.455 50.0779 216.77 50.0381 217.111Z" fill="#2D1D1D"/>
<path d="M69.0974 34.2405C68.6159 31.594 67.9805 28.9239 67.2772 26.2753C66.5743 23.6261 65.7375 21.021 64.8342 18.4362C63.9309 15.8514 62.8942 13.3101 61.723 10.8117C60.5523 8.31276 59.2696 5.92424 57.7864 3.59958C57.5028 3.17463 57.665 2.53302 58.09 2.24884C58.5149 1.96519 59.0681 2.08189 59.3523 2.50684C60.9908 4.85558 62.4954 7.24669 63.7996 9.7022C65.1257 12.2247 66.3844 14.7692 67.4431 17.377C68.5013 19.9853 69.5605 22.5936 70.4182 25.2663C71.2765 27.939 72.1343 30.6122 72.7466 33.4367C73.0014 34.4603 72.3687 35.474 71.3451 35.7289C70.3209 35.9837 69.3077 35.351 69.0529 34.3274C69.1188 34.3075 69.1188 34.3075 69.0974 34.2405Z" fill="#332E25"/>
<path d="M109.126 32.4095C110.209 29.6997 111.307 27.129 112.55 24.6149C113.794 22.1013 115.107 19.5809 116.573 17.1872C117.962 14.7301 119.575 12.3929 121.194 10.1258C122.812 7.85867 124.648 5.64129 126.566 3.55788C126.953 3.16904 127.512 3.1167 127.9 3.5024C128.282 3.81849 128.342 4.44754 128.025 4.8301C126.323 6.96427 124.628 9.16805 123.149 11.4221C121.676 13.7462 120.28 16.1332 119.03 18.5771C117.781 21.0211 116.607 23.5279 115.573 26.0227C114.539 28.5164 113.519 31.1504 112.701 33.6948L112.708 33.7644C112.381 34.7818 111.303 35.3067 110.285 34.9796C109.267 34.6525 108.743 33.5745 109.07 32.5566C109.132 32.4796 109.132 32.4796 109.126 32.4095Z" fill="#332E25"/>
<path d="M70.8962 36.4909C69.7302 36.4909 68.6642 35.6907 68.3669 34.498C68.3387 34.385 68.3397 34.2709 68.3648 34.1647C67.9394 31.8625 67.3595 29.3385 66.5939 26.4564C65.9612 24.0705 65.1898 21.5962 64.1666 18.6692C63.2749 16.1174 62.2371 13.5745 61.0826 11.1111C59.8585 8.49912 58.5858 6.1666 57.19 3.97957C56.707 3.25684 56.9393 2.16779 57.6961 1.66172C58.4481 1.15932 59.433 1.35818 59.9386 2.11441C61.7111 4.65521 63.1807 7.03272 64.4225 9.371C66.037 12.4414 67.1696 14.8279 68.0969 17.1117C69.152 19.7122 70.2279 22.365 71.0904 25.0507C71.9382 27.6915 72.8153 30.4223 73.4365 33.2876C73.7767 34.6535 72.9168 36.066 71.5153 36.415C71.3086 36.4658 71.1003 36.4909 70.8962 36.4909ZM69.8119 34.3714C70.0463 34.8952 70.6063 35.1836 71.1741 35.0434C71.8304 34.8795 72.2203 34.2489 72.0607 33.6073C71.4494 30.7881 70.5827 28.0908 69.7454 25.482C68.8992 22.8465 67.8331 20.2188 66.8022 17.6774C65.879 15.404 64.7643 13.0564 63.1738 10.031C61.9602 7.74553 60.52 5.41613 58.7721 2.91091C58.6957 2.79683 58.58 2.77066 58.4816 2.83607C58.3654 2.91353 58.3178 3.12339 58.3733 3.2066C59.8098 5.458 61.1119 7.84338 62.3622 10.5114C63.5371 13.0181 64.5926 15.6055 65.5006 18.2029C66.5217 21.1247 67.326 23.7058 67.9593 26.0938C68.7526 29.0799 69.3498 31.6909 69.7847 34.0747C69.8035 34.1422 69.825 34.2474 69.8119 34.3714Z" fill="#2D1D1D"/>
<path d="M110.911 35.7848C110.634 35.7848 110.35 35.7419 110.069 35.6513C109.396 35.4352 108.853 34.9694 108.54 34.3409C108.233 33.7213 108.181 33.0106 108.397 32.3396C108.409 32.3009 108.426 32.2632 108.444 32.2277C108.451 32.1994 108.46 32.1722 108.47 32.1465C109.733 28.9871 110.797 26.5672 111.918 24.3006C112.954 22.2057 114.351 19.4613 115.971 16.8174C117.383 14.3196 119.041 11.9258 120.619 9.71469C122.184 7.52347 124.01 5.29091 126.047 3.07876C126.735 2.38534 127.723 2.35395 128.376 2.97881C129.042 3.55344 129.133 4.59958 128.57 5.27992C127.053 7.18225 125.286 9.45407 123.74 11.8091C122.154 14.3117 120.817 16.6337 119.66 18.8982C118.366 21.428 117.21 23.916 116.225 26.2925C115.041 29.1504 114.121 31.6033 113.414 33.7856C113.412 33.8516 113.401 33.917 113.381 33.9803C113.023 35.0924 112.019 35.7848 110.911 35.7848ZM109.715 32.8661C109.645 33.1555 109.676 33.4523 109.805 33.7118C109.947 33.9965 110.193 34.2074 110.501 34.3063C111.12 34.5052 111.755 34.22 111.995 33.6532C111.999 33.5936 112.009 33.5349 112.028 33.4779C112.752 31.227 113.697 28.6998 114.92 25.7513C115.919 23.3403 117.09 20.8183 118.4 18.2545C119.578 15.9508 120.937 13.5921 122.552 11.0429C124.135 8.63034 125.927 6.32555 127.472 4.38867C127.548 4.29709 127.531 4.11341 127.449 4.0459C127.433 4.0323 127.417 4.01815 127.402 4.00297C127.283 3.8847 127.154 3.96685 127.066 4.05529C125.087 6.20464 123.298 8.39168 121.768 10.5353C120.211 12.7155 118.579 15.0716 117.186 17.5339C115.584 20.1506 114.206 22.8583 113.183 24.9271C112.093 27.1319 111.055 29.489 109.826 32.5574C109.812 32.6762 109.772 32.7745 109.715 32.8661Z" fill="#2D1D1D"/>
<path d="M50.3128 1.14707C55.0521 0.135454 59.242 0.943463 59.6706 2.95256C60.0997 4.96165 56.6054 7.41038 51.866 8.42199C47.1267 9.4336 42.9374 8.62556 42.5082 6.61647C42.0796 4.60737 45.5739 2.15868 50.3128 1.14707Z" fill="#332E25"/>
<path d="M47.9121 9.56396C47.0209 9.56396 46.1809 9.49123 45.4205 9.34417C43.3575 8.94591 42.0722 8.02901 41.8017 6.76201C41.5311 5.495 42.3297 4.13382 44.0504 2.92753C45.6 1.8416 47.7651 0.96343 50.1473 0.454222C52.529 -0.0544626 54.8647 -0.137134 56.7225 0.221876C58.7855 0.620136 60.0708 1.537 60.3414 2.80401C60.612 4.07048 59.8134 5.43222 58.0926 6.63852C56.543 7.72444 54.3775 8.60259 51.9958 9.11128C50.5885 9.4122 49.198 9.56396 47.9121 9.56396ZM50.4425 1.83635C48.2413 2.30631 46.2594 3.10494 44.8616 4.08462C43.6705 4.91935 43.043 5.81006 43.1832 6.46737C43.3235 7.12469 44.2598 7.681 45.6879 7.9568C47.3642 8.28022 49.4989 8.19909 51.7006 7.72966C53.9017 7.26022 55.8836 6.46162 57.2815 5.48193C58.4726 4.64668 59.1 3.75649 58.9598 3.09918C58.8195 2.44187 57.8833 1.88556 56.4551 1.60976C54.7783 1.28633 52.6436 1.3664 50.4425 1.83635Z" fill="#2D1D1D"/>
<path d="M126.432 3.97138C127.126 2.03765 131.385 1.7969 135.947 3.43338C140.508 5.06986 143.643 7.96393 142.95 9.89714C142.256 11.8309 137.996 12.0716 133.435 10.4351C128.873 8.79866 125.739 5.90459 126.432 3.97138Z" fill="#332E25"/>
<path d="M139.043 12.2594C137.282 12.2594 135.228 11.8664 133.182 11.1321C130.889 10.31 128.861 9.14974 127.471 7.86652C125.927 6.44095 125.318 4.98504 125.755 3.76619C126.192 2.54681 127.589 1.80993 129.687 1.69114C131.579 1.58385 133.88 1.97792 136.172 2.80061C138.465 3.62277 140.493 4.78301 141.883 6.06624C143.427 7.49181 144.036 8.94826 143.599 10.1671C143.162 11.3865 141.765 12.1229 139.667 12.2417C139.464 12.2537 139.256 12.2594 139.043 12.2594ZM130.318 3.08636C130.13 3.08636 129.946 3.09159 129.767 3.10154C128.315 3.1837 127.312 3.61073 127.085 4.24292C126.858 4.87511 127.36 5.84172 128.429 6.82821C129.683 7.98584 131.541 9.04248 133.659 9.80237C135.778 10.5628 137.885 10.9291 139.587 10.8313C141.039 10.7491 142.041 10.3226 142.268 9.69038C142.495 9.05766 141.993 8.09103 140.924 7.10454C139.67 5.94692 137.813 4.89031 135.694 4.13042C133.799 3.4506 131.914 3.08636 130.318 3.08636Z" fill="#2D1D1D"/>
<path d="M92.0526 236.001C122.671 236.001 147.492 233.361 147.492 230.106C147.492 226.85 122.671 224.211 92.0526 224.211C61.4343 224.211 36.6133 226.85 36.6133 230.106C36.6133 233.361 61.4343 236.001 92.0526 236.001Z" fill="#C7D1EA"/>
<path opacity="0.5" d="M78.3979 137.111C85.388 128.905 76.3379 109.717 58.184 94.2527C40.03 78.7885 19.6468 72.9046 12.6567 81.1106C5.66658 89.3165 14.7167 108.505 32.8706 123.969C51.0246 139.433 71.4079 145.317 78.3979 137.111Z" fill="#B9D3F9"/>
<path d="M68.4877 141.471C65.8207 141.471 62.8032 140.979 59.435 140.067C50.7329 137.541 41.1187 132.067 32.2062 124.488C23.3639 116.979 16.3465 108.277 12.4869 100.136C8.55711 91.7854 8.3462 84.9083 11.9253 80.6975C15.5044 76.4867 22.3115 75.6446 31.2239 78.1713C39.926 80.6975 49.5402 86.1716 58.4527 93.7506C67.295 101.259 74.3124 109.962 78.1721 118.102C82.1018 126.453 82.3127 133.33 78.7336 137.541C76.5581 140.137 72.979 141.471 68.4877 141.471ZM22.2413 78.0311C18.1713 78.0311 15.013 79.2243 13.0484 81.5401C9.82044 85.3296 10.1009 91.7158 13.8203 99.5052C17.6098 107.505 24.487 115.997 33.1891 123.435C41.8911 130.874 51.3646 136.278 59.8563 138.734C68.2072 141.12 74.5233 140.418 77.7513 136.629C80.9792 132.839 80.6987 126.453 76.9794 118.664C73.1899 110.663 66.3127 102.172 57.6106 94.7334C48.9085 87.2947 39.4351 81.8912 30.9434 79.4347C27.7149 78.522 24.8381 78.0311 22.2413 78.0311Z" fill="#B9D3F9"/>
<path d="M78.2388 137.756C78.0285 137.756 77.8882 137.686 77.7474 137.545C77.4669 137.195 50.0979 104.913 23.5008 89.8954C23.1502 89.6851 23.0795 89.3339 23.2203 88.9832C23.4307 88.6326 23.7818 88.5619 24.1325 88.7027C50.9399 103.861 78.4492 136.353 78.7297 136.703C78.9401 136.984 78.9401 137.405 78.6596 137.686C78.5199 137.686 78.3791 137.756 78.2388 137.756Z" fill="#B9D3F9"/>
<path opacity="0.5" d="M46.2378 146.745C70.0556 146.016 89.0966 136.696 88.767 125.929C88.4374 115.162 68.8619 107.025 45.044 107.754C21.2262 108.483 2.18519 117.803 2.51483 128.57C2.84447 139.337 22.4199 147.474 46.2378 146.745Z" fill="#B9D3F9"/>
<path d="M43.2942 147.581C32.7678 147.581 22.9432 145.897 15.2935 142.668C6.80236 139.089 1.9599 134.107 1.81964 128.633C1.67939 123.159 6.10058 117.896 14.3814 113.825C22.5219 109.825 33.3994 107.439 44.9783 107.088C56.6278 106.738 67.575 108.422 75.9264 111.93C84.4176 115.509 89.26 120.492 89.4003 125.966C89.5405 131.439 85.1194 136.703 76.8386 140.773C68.6981 144.773 57.8205 147.159 46.2416 147.51C45.2593 147.581 44.277 147.581 43.2942 147.581ZM45.049 108.493C33.6104 108.843 22.9431 111.159 15.0135 115.089C7.22415 118.879 3.01338 123.721 3.15364 128.633C3.29389 133.546 7.78519 138.107 15.7855 141.475C23.926 144.844 34.7329 146.528 46.172 146.177C57.6112 145.826 68.2778 143.51 76.2075 139.58C83.9968 135.791 88.2076 130.948 88.0673 126.036C87.7167 115.65 68.4181 107.791 45.049 108.493Z" fill="#B9D3F9"/>
<path d="M13.8168 129.752C13.4662 129.752 13.1852 129.542 13.1852 129.191C13.115 128.84 13.3254 128.489 13.7467 128.419C54.9403 120.84 88.6249 125.331 88.9761 125.331C89.3267 125.401 89.6077 125.752 89.5376 126.103C89.4675 126.454 89.1163 126.735 88.7657 126.664C88.4151 126.594 54.9408 122.173 13.9576 129.752C13.887 129.752 13.8168 129.752 13.8168 129.752Z" fill="#B9D3F9"/>
<path opacity="0.5" d="M174.6 161.912C178.939 152.051 164.771 136.276 142.956 126.679C121.141 117.081 99.94 117.294 95.6015 127.155C91.2631 137.016 105.431 152.79 127.245 162.388C149.06 171.986 170.262 171.773 174.6 161.912Z" fill="#B9D3F9"/>
<path d="M151.414 169.868C143.807 169.064 135.378 166.692 127.081 163.065C116.423 158.411 107.282 152.083 101.216 145.374C95.0248 138.51 92.8963 131.934 95.1169 126.947C97.3442 121.889 103.637 119.096 112.89 119.015C121.934 118.911 132.743 121.463 143.402 126.117C154.06 130.771 163.201 137.099 169.267 143.808C175.458 150.671 177.586 157.247 175.366 162.235C173.138 167.292 166.845 170.085 157.592 170.167C155.546 170.163 153.507 170.089 151.414 169.868ZM118.796 120.555C116.702 120.335 114.734 120.268 112.758 120.271C104.07 120.341 98.2255 122.9 96.2661 127.421C92.0868 136.93 106.121 152.384 127.57 161.775C138.019 166.407 148.696 168.875 157.53 168.749C166.217 168.678 172.062 166.119 174.021 161.598C175.98 157.077 173.94 151.005 168.124 144.604C162.19 137.979 153.167 131.875 142.718 127.244C134.554 123.701 126.264 121.344 118.796 120.555Z" fill="#B9D3F9"/>
<path d="M154.808 154.418C154.668 154.403 154.599 154.396 154.466 154.311C154.202 154.142 125.172 134.352 96.2215 126.498C95.8798 126.391 95.6375 126.012 95.7442 125.671C95.851 125.329 96.2294 125.087 96.5711 125.193C125.793 133.148 154.955 153.021 155.29 153.198C155.617 153.444 155.65 153.8 155.473 154.135C155.241 154.322 155.017 154.44 154.808 154.418Z" fill="#B9D3F9"/>
<path opacity="0.5" d="M148.361 146.273C170.972 138.739 186.54 124.347 183.135 114.126C179.73 103.906 158.64 101.728 136.03 109.262C113.419 116.795 97.8504 131.188 101.256 141.408C104.661 151.628 125.751 153.807 148.361 146.273Z" fill="#B9D3F9"/>
<path d="M117.536 151.189C108.394 150.224 102.4 146.839 100.689 141.648C98.9792 136.457 101.696 130.111 108.497 123.842C115.144 117.699 124.886 112.306 135.863 108.596C146.91 104.893 157.93 103.446 166.94 104.327L167.009 104.334C176.152 105.299 182.145 108.684 183.856 113.875C185.566 119.066 182.849 125.412 176.049 131.68C169.402 137.824 159.659 143.216 148.682 146.927C137.636 150.629 126.616 152.077 117.605 151.197C117.536 151.189 117.536 151.189 117.536 151.189ZM136.297 109.841C114.064 117.233 98.6803 131.274 101.943 141.145C105.205 151.016 126.024 153.002 148.187 145.604C170.42 138.213 185.804 124.172 182.541 114.3C179.279 104.43 158.529 102.45 136.297 109.841Z" fill="#B9D3F9"/>
<path d="M101.213 142.055C101.004 142.033 100.802 141.941 100.684 141.717C100.504 141.416 100.549 140.997 100.92 140.825C129.242 123.21 162.63 117.772 162.986 117.739C163.342 117.706 163.669 117.952 163.772 118.316C163.805 118.672 163.558 118.999 163.195 119.102C162.839 119.135 129.738 124.532 101.64 142.03C101.5 142.015 101.353 142.07 101.213 142.055Z" fill="#B9D3F9"/>
<path d="M50.2384 149.819C47.5714 178.802 72.5546 213.048 103.643 207.855C104.766 207.645 105.889 207.434 107.012 207.153C111.293 206.03 115.363 203.996 118.801 201.188C121.187 199.223 123.293 196.837 124.977 194.171C132.977 181.188 131.644 163.293 124.626 150.1C122.31 145.889 117.117 135.854 113.047 127.924C110.24 122.38 107.924 117.818 107.573 116.976L63.3621 106.73C62.8006 107.081 61.0464 110.8 59.0111 115.994C54.9401 126.31 49.747 142.591 50.2384 149.819Z" fill="#F9C710"/>
<path d="M50.1719 150.872C48.2067 179.575 72.9795 212.978 103.647 207.785C84.2077 206.662 65.1896 190.662 59.9264 168.065C54.6632 145.258 65.1896 122.17 65.1896 122.17L59.0142 115.994C55.1546 125.959 50.1719 141.258 50.1719 148.907C50.242 149.539 50.1719 150.241 50.1719 150.872Z" fill="#F8A01F"/>
<path d="M118.801 201.126C121.187 199.16 123.293 196.775 124.977 194.108C132.977 181.126 131.644 163.231 124.626 150.037C122.31 145.826 117.117 135.791 113.047 127.861L104.906 128.914C104.906 128.914 117.748 146.247 123.363 166.528C128.836 186.388 119.292 200.424 118.801 201.126Z" fill="#FFD95F"/>
<path d="M97.4673 208.986C87.853 208.986 78.379 205.337 70.0982 198.249C56.2031 186.319 47.9223 166.881 49.6069 149.757C51.4313 132.424 57.6072 117.547 62.8003 106.459C62.9405 106.178 63.2216 106.037 63.5722 106.108L107.783 116.354C107.994 116.424 108.134 116.564 108.275 116.775C109.117 118.81 121.257 142.6 125.258 149.828C132.977 164.425 133.118 182.39 125.608 194.601C121.678 201.057 114.941 205.899 107.292 207.794C103.924 208.566 100.695 208.986 97.4673 208.986ZM50.9404 149.898C49.3264 166.6 57.3968 185.618 70.9408 197.267C81.6776 206.46 94.3796 209.689 106.871 206.46C114.24 204.565 120.625 200.004 124.415 193.828C132.837 180.214 130.31 162.179 123.994 150.459C120.135 143.512 108.696 121.126 107.081 117.617L63.7125 107.582C58.6596 118.389 52.6946 132.985 50.9404 149.898Z" fill="#2D1D1D"/>
<path d="M83.9952 196.772C83.7147 197.474 84.4866 198.527 85.6793 199.088C86.9426 199.65 88.2054 199.439 88.4865 198.737C88.767 198.036 87.995 196.983 86.8024 196.422C85.539 195.86 84.2757 196 83.9952 196.772Z" fill="#F4B503"/>
<path d="M90.7861 200.086C91.1975 199.429 92.4629 199.48 93.6127 200.201C94.7619 200.921 95.3601 202.037 94.9488 202.694C94.5374 203.351 93.272 203.299 92.1222 202.579C90.973 201.859 90.3748 200.743 90.7861 200.086Z" fill="#F4B503"/>
<path d="M86.5904 201.054C86.3099 201.545 86.7307 202.317 87.5728 202.878C88.4148 203.369 89.327 203.439 89.608 202.948C89.8885 202.457 89.4677 201.685 88.6257 201.124C87.8538 200.562 86.9416 200.562 86.5904 201.054Z" fill="#F4B503"/>
<path d="M84.9062 206.246C86.5202 206.808 88.2043 207.299 89.889 207.65C94.3101 208.562 98.9417 208.632 103.714 207.79C103.995 208.001 104.276 208.141 104.556 208.282C110.17 211.58 115.223 213.475 119.153 214.668C124.206 216.142 127.364 216.352 127.364 216.352C121.749 213.264 118.101 206.176 116.907 203.72C116.627 203.159 116.557 202.878 116.557 202.878C121.329 199.65 124.767 195.299 127.083 190.316C126.872 190.527 116.275 206.387 84.9062 206.246Z" fill="#332E25"/>
<path d="M116.906 203.719C116.906 203.859 115.783 210.456 119.152 214.666C124.205 216.14 127.363 216.351 127.363 216.351C121.749 213.193 118.099 206.105 116.906 203.719Z" fill="#3F3A31"/>
<path d="M127.569 216.364C127.445 216.736 127.083 216.973 126.693 216.934C124.224 216.689 115.327 215.341 104.275 208.843C104.203 208.772 104.131 208.773 104.059 208.697C103.901 208.636 103.724 208.567 103.566 208.505C97.2096 209.539 91.4283 208.788 85.278 206.621C84.9274 206.481 84.2042 206.387 84.2743 206.107C84.3444 205.826 84.6249 205.545 84.9761 205.615C85.0462 205.615 85.1865 205.615 85.2566 205.615C115.854 205.615 126.45 190.036 126.52 189.896C126.731 189.615 127.082 189.475 127.432 189.686C127.713 189.826 127.854 190.247 127.713 190.528C125.327 195.721 121.888 200.002 117.467 203.089C118.348 204.986 121.844 212.049 127.199 215.377C127.535 215.586 127.694 215.988 127.569 216.364ZM103.784 207.159C104.109 207.206 104.315 207.325 104.593 207.51C104.799 207.647 105.011 207.781 105.225 207.904C113.649 212.75 120.814 214.606 124.556 215.299C119.293 211.018 116.275 204.001 115.924 203.229C115.924 203.159 115.854 203.159 115.854 203.089C115.784 202.808 115.854 202.527 116.135 202.317C119.082 200.352 121.538 197.896 123.573 195.018C118.45 199.51 107.924 206.036 89.3271 206.878C94.0288 207.931 98.8011 208.001 103.573 207.159C103.713 207.159 103.714 207.149 103.784 207.159Z" fill="#2D1D1D"/>
<path d="M50.2398 149.822C50.0294 153.12 50.0294 156.419 50.3099 159.646C50.5203 162.243 51.0117 164.91 51.7135 167.577C51.7135 167.577 91.7144 168.84 118.732 153.822C120.767 152.699 122.662 151.506 124.557 150.173C123.575 148.349 122.592 146.524 121.68 144.77C121.68 144.77 119.574 145.822 115.645 147.155C105.328 150.594 81.9593 156.138 50.2398 149.822Z" fill="#332E25"/>
<path d="M115.715 147.085C115.715 147.085 117.61 150.875 118.803 153.752C120.838 152.629 122.732 151.436 124.627 150.103C123.645 148.278 122.662 146.453 121.75 144.699C121.75 144.699 119.645 145.752 115.715 147.085Z" fill="#3F3A31"/>
<path d="M53.3268 168.419C52.4146 168.419 51.9232 168.419 51.8531 168.419C51.5726 168.419 51.3611 167.577 51.291 167.296C50.7295 164.98 50.3244 162.022 50.0439 159.495C49.7634 156.338 49.889 153.892 50.1695 150.454C50.1695 150.243 49.7477 149.471 49.8879 149.331C50.0282 149.19 50.2386 149.19 50.4495 149.19C93.3978 157.752 121.188 144.348 121.468 144.208C121.819 144.067 121.716 144.419 121.926 144.699C122.839 146.453 123.645 148.279 124.627 150.103C124.767 150.384 125.328 150.523 125.047 150.664C101.117 167.507 61.4673 168.419 53.3268 168.419ZM52.4146 167.085C57.5376 167.156 99.0116 167.015 123.714 149.892C122.942 148.418 122.17 147.015 121.398 145.611C118.241 147.015 102.591 153.331 78.591 153.331C70.3102 153.331 60.9764 152.559 50.8713 150.593C50.731 153.681 50.731 156.699 51.0115 159.506C51.2214 161.822 51.8531 164.84 52.4146 167.085Z" fill="#2D1D1D"/>
<path d="M53.4688 131.573C91.5044 145.328 115.996 133.889 115.996 133.889C110.803 123.783 107.505 117.047 107.505 117.047L72.2064 108.766L63.364 106.73C63.364 106.73 60.908 111.082 58.1709 117.959C56.5564 121.818 54.8723 126.45 53.4688 131.573Z" fill="#332E25"/>
<path d="M89.8902 138.948C79.9253 138.948 67.5039 137.334 53.2582 132.211C52.9075 132.071 52.6966 131.72 52.8368 131.369C52.9771 131.019 53.3283 130.808 53.6789 130.948C87.6446 143.229 110.943 135.159 115.083 133.544C110.732 125.053 107.715 118.947 107.083 117.614L63.2225 107.368C62.8719 107.298 62.6609 106.947 62.7311 106.526C62.8012 106.176 63.1524 105.965 63.5731 106.035L107.784 116.281C107.995 116.351 108.135 116.491 108.205 116.631C108.205 116.702 110.592 122.524 115.715 132.489C115.786 132.629 116.767 133.825 116.767 133.965C116.697 134.106 116.556 134.246 116.416 134.387C116.136 134.528 106.382 138.948 89.8902 138.948Z" fill="#2D1D1D"/>
<path d="M77.0689 123.824C77.8571 123.961 78.7086 124.022 79.4904 124.089C109.484 127.466 132.694 123.939 136.071 93.9462C139.447 63.9531 115.031 25.5113 90.9489 22.7764C89.4553 22.6356 87.8984 22.5702 86.4247 22.6387C85.726 22.7047 85.0205 22.7004 84.3287 22.836C60.836 25.6139 34.2599 54.7622 31.1287 82.1245C27.8134 111.267 48.3267 120.259 77.0689 123.824Z" fill="#F9C710"/>
<path d="M77.0701 123.822C77.0701 123.822 63.9621 121.603 48.5791 111.704C33.1961 101.805 31.2681 73.8616 47.0593 51.4392C62.717 29.0995 84.1206 22.8529 84.2603 22.8398C60.7676 25.6177 34.1915 54.7661 31.0603 82.1283C27.8146 111.264 48.3279 120.257 77.0701 123.822Z" fill="#F8A01F"/>
<path d="M77.0703 123.824C77.8585 123.961 78.7099 124.022 79.4918 124.089C109.485 127.466 132.695 123.939 136.072 93.9462C139.449 63.9531 115.033 25.5113 90.9503 22.7764C89.4567 22.6356 87.8998 22.5702 86.426 22.6387C86.426 22.6387 99.644 21.5339 115.714 43.2101C131.784 64.8862 134.863 89.3371 130.357 104.352C125.774 119.305 105.023 124.996 77.0703 123.824Z" fill="#FFD95F"/>
<path d="M103.866 125.456C97.0884 126.095 89.0316 125.867 79.4148 124.8C61.9614 122.849 50.2088 119.305 42.3431 113.631C32.6629 106.649 28.7274 96.3056 30.345 82.0556C31.9564 67.7355 40.189 51.8757 52.4367 39.7254C64.7409 27.429 79.1353 20.8564 90.9575 22.1386C102.5 23.4475 114.966 33.0575 124.322 47.824C133.679 62.5905 138.335 79.8445 136.718 94.0939C135.106 108.414 128.993 117.589 118.01 122.219C114.077 123.859 109.385 124.936 103.866 125.456ZM85.1547 23.3915C75.024 24.3461 63.5508 30.5026 53.4373 40.6187C41.4555 52.6026 33.3369 68.1704 31.769 82.2042C30.2451 95.9518 33.9309 105.896 43.1589 112.568C50.795 118.051 62.3314 121.546 79.5686 123.446C96.8121 125.416 108.856 124.563 117.466 120.932C127.973 116.488 133.833 107.619 135.357 93.871C138.703 64.3034 114.523 26.1222 90.7963 23.4234C89.0175 23.2392 87.1115 23.2073 85.1547 23.3915Z" fill="#A55A0F"/>
<path d="M42.6884 66.3449C46.0236 59.652 52.0457 55.8792 56.1387 57.9187C60.2317 59.9581 60.8456 67.0373 57.5104 73.7308C54.1751 80.4238 48.1531 84.1966 44.0606 82.1571C39.967 80.1171 39.3532 73.0379 42.6884 66.3449Z" fill="white"/>
<path d="M47.1835 83.431C45.9955 83.543 44.7819 83.3755 43.7442 82.8391C39.3083 80.6495 38.5275 73.1097 42.0245 66.0839C45.5214 59.0581 51.9888 55.1357 56.4241 57.3259C60.8599 59.5155 61.6407 67.0552 58.1438 74.0811C56.4838 77.4095 54.066 80.1748 51.4728 81.8291C50.0085 82.7413 48.5808 83.2992 47.1835 83.431ZM53.1805 58.0543C49.7568 58.3767 45.7716 61.713 43.2784 66.6706C40.1415 73.0281 40.634 79.7483 44.3319 81.5852C46.107 82.4749 48.3296 82.1248 50.7333 80.7002C53.1998 79.1988 55.3518 76.5999 56.9611 73.4876C60.098 67.1301 59.6055 60.4099 55.9076 58.573C55.0169 58.0926 54.1581 57.9622 53.1805 58.0543Z" fill="#A55A0F"/>
<path d="M55.4686 74.2442C57.5428 70.082 57.1714 65.6849 54.6391 64.4231C52.1069 63.1612 48.3727 65.5124 46.2985 69.6746C44.2244 73.8368 44.5958 78.2339 47.128 79.4958C49.6603 80.7577 53.3945 78.4065 55.4686 74.2442Z" fill="#22213F"/>
<path d="M52.4514 69.0462C52.5304 69.8846 53.4347 70.5042 54.4123 70.4121C55.3904 70.32 56.0927 69.5486 56.0074 68.6406C55.9284 67.8023 55.0241 67.1826 54.0465 67.2747C53.0752 67.4364 52.3723 68.2078 52.4514 69.0462Z" fill="white"/>
<path d="M95.387 63.8729C98.582 65.6162 101.842 65.802 102.619 64.3194C103.396 62.8362 101.462 60.2692 98.2669 58.5265C95.072 56.7833 91.8121 56.5975 91.0349 58.0801C90.2578 59.5633 92.1915 62.1297 95.387 63.8729Z" fill="#F8A01F"/>
<path d="M72.4315 48.4153C76.0583 48.0029 78.8545 46.2591 78.6331 44.6593C78.4054 42.9893 75.3523 42.008 71.7256 42.4199C68.0988 42.8323 65.3026 44.5761 65.524 46.1759C65.7522 47.8469 68.8048 48.8282 72.4315 48.4153Z" fill="#F8A01F"/>
<path d="M100.276 66.0261C98.7491 66.0261 96.8683 65.4876 95.0476 64.4938C91.4245 62.5177 89.4301 59.6194 90.4077 57.7532C90.7007 57.1943 91.2361 56.7829 91.9562 56.5647C93.6157 56.0618 96.1639 56.5757 98.6037 57.9071C102.226 59.8832 104.221 62.7809 103.243 64.6477C102.949 65.2066 102.415 65.6174 101.695 65.8362C101.274 65.9638 100.795 66.0261 100.276 66.0261ZM93.3588 57.7919C92.9684 57.7919 92.6334 57.8359 92.3665 57.917C92.0122 58.0243 91.7741 58.1897 91.6595 58.4084C91.1529 59.375 92.6978 61.6024 95.7243 63.253C98.0976 64.5482 100.227 64.8047 101.285 64.4833C101.64 64.3761 101.877 64.2107 101.992 63.9919C102.498 63.0253 100.954 60.798 97.9275 59.1474C96.1529 58.1797 94.5148 57.7919 93.3588 57.7919Z" fill="#A55A0F"/>
<path d="M70.8084 49.2177C67.5302 49.2177 65.068 48.0632 64.8236 46.2734C64.7403 45.6736 64.9335 45.0509 65.382 44.4731C66.4375 43.1129 68.8962 42.0323 71.6453 41.7198C75.7425 41.2535 79.0479 42.4781 79.332 44.5657C79.4152 45.165 79.2221 45.7877 78.7742 46.3655C77.7186 47.7257 75.26 48.8063 72.5103 49.1188C71.9252 49.1858 71.3553 49.2177 70.8084 49.2177ZM73.355 43.0339C72.8641 43.0339 72.3455 43.0622 71.8054 43.1234C69.0877 43.4322 67.1822 44.459 66.4988 45.3392C66.2863 45.6129 66.1936 45.8626 66.224 46.0808C66.3726 47.1678 68.9265 48.1056 72.3518 47.7152C75.0695 47.4059 76.9754 46.3796 77.6584 45.4994C77.8709 45.2257 77.9635 44.976 77.9327 44.7578C77.8081 43.843 75.9769 43.0339 73.355 43.0339Z" fill="#A55A0F"/>
<path d="M99.253 28.7663C99.645 28.0975 100.911 28.1111 102.082 28.7966C103.252 29.4822 103.883 30.5802 103.491 31.249C103.099 31.9179 101.833 31.9043 100.662 31.2187C99.4922 30.5336 98.861 29.4351 99.253 28.7663Z" fill="#F4B503"/>
<path d="M105.585 32.8591C106.076 32.2593 107.325 32.4702 108.374 33.3296C109.424 34.1894 109.876 35.3721 109.385 35.9719C108.893 36.5716 107.645 36.3607 106.595 35.5014C105.546 34.6416 105.094 33.4588 105.585 32.8591Z" fill="#F4B503"/>
<path d="M101.313 33.2887C100.933 33.7477 101.292 34.5594 102.057 35.1926C102.821 35.8259 103.749 35.9494 104.059 35.4978C104.439 35.0388 104.08 34.2271 103.316 33.5939C102.62 32.9543 101.692 32.8298 101.313 33.2887Z" fill="#F4B503"/>
<path d="M122.452 154.599C122.031 154.879 122.031 155.792 122.522 156.564C123.014 157.336 123.786 157.757 124.277 157.476C124.698 157.195 124.698 156.283 124.206 155.511C123.645 154.669 122.873 154.248 122.452 154.599Z" fill="#F9C710"/>
<path d="M124.979 159.085C124.488 159.296 124.348 160.138 124.769 161.051C125.12 161.893 125.821 162.454 126.313 162.244C126.804 162.033 126.945 161.191 126.523 160.279C126.173 159.366 125.471 158.875 124.979 159.085Z" fill="#F9C710"/>
<path d="M122.239 157.962C121.889 158.103 121.818 158.734 122.099 159.366C122.38 159.998 122.871 160.348 123.222 160.208C123.573 160.068 123.643 159.436 123.362 158.804C123.152 158.173 122.591 157.822 122.239 157.962Z" fill="#F9C710"/>
<path d="M57.8906 182.459C60.7679 187.442 64.3471 192.144 68.5573 196.073C68.5573 196.073 102.733 193.758 124.839 175.933C126.804 174.389 128.629 172.705 130.383 170.88L129.401 163.371C129.401 163.371 127.787 165.476 123.857 168.284C115.365 174.249 95.9965 183.372 57.8906 182.459Z" fill="#332E25"/>
<path d="M123.785 168.284C123.785 168.284 124.627 171.582 124.838 175.933C126.803 174.389 128.627 172.705 130.381 170.88L129.399 163.371C129.399 163.371 127.786 165.476 123.785 168.284Z" fill="#3F3A31"/>
<path d="M68.8451 196.596C68.7049 196.596 68.4783 196.088 68.3375 195.947C64.1969 192.018 60.9077 187.893 57.8901 182.7C57.7499 182.49 57.1182 182.314 57.2585 182.103C57.3987 181.893 57.6091 181.823 57.82 181.823C112.909 183.156 128.558 163.226 128.698 163.016L128.768 162.946C128.979 162.735 129.19 162.665 129.47 162.805C129.681 162.876 129.892 163.086 129.892 163.367L130.874 170.876V170.946C130.874 171.086 130.804 171.297 130.663 171.437C109.54 193.752 69.0482 196.7 68.5568 196.77L68.8451 196.596ZM59.0833 183.155C61.8204 187.717 65.1185 191.857 68.7677 195.366C72.4169 195.085 109.611 191.436 129.611 170.664L128.839 164.909C127.085 166.734 122.874 170.383 114.874 174.032C105.119 178.524 87.5048 183.716 59.0833 183.155Z" fill="#2D1D1D"/>
<path d="M111.362 217.402C111.274 217.339 111.179 217.293 111.088 217.24C102.908 210.844 96.6526 200.681 99.9936 190.033C103.011 185.12 95.7127 180.559 93.2567 185.963C90.169 195.436 92.4848 206.314 98.9412 213.893C100.201 215.024 102.117 217.389 104.173 219.202C100.32 222.449 97.2236 228.035 99.1515 229.964C102.52 233.403 114.38 220.771 111.362 217.402Z" fill="#332E25"/>
<path d="M108.488 221.683C106.452 225.051 101.961 229.332 99.154 229.964C100.698 231.368 104.557 229.683 107.856 226.174C111.014 222.806 112.488 219.016 111.295 217.472C111.085 217.122 110.803 216.841 110.523 216.56C108.277 214.876 106.242 212.981 104.558 210.806C102.874 208.77 101.47 206.384 100.558 203.858C98.9441 199.507 98.7337 194.454 99.9965 190.033C99.8563 190.314 95.9967 198.174 98.3125 204.489C100.348 210.104 105.19 214.805 108.067 217.051C108.488 217.332 108.839 217.613 109.119 217.823C109.961 218.315 109.54 219.859 108.488 221.683Z" fill="#3F3A31"/>
<path d="M117.89 167.228C109.96 186.246 77.2579 160.421 93.048 161.052C118.662 182.667 115.645 148.421 105.329 133.964C102.803 129.543 109.399 125.684 111.996 130.105C117.961 141.263 123.013 154.877 117.89 167.228Z" fill="#332E25"/>
<path d="M46.9405 151.229C43.8528 161.124 48.5545 171.37 58.59 161.896C62.099 160.352 64.4148 165.405 61.046 167.37C52.7653 176.001 39.5719 170.808 39.5719 158.738C39.0104 149.685 42.7297 141.193 47.221 133.614C50.2386 129.895 57.3267 114.947 62.8003 119.579C64.4142 120.982 64.5545 123.509 63.0808 125.123C56.134 132.703 49.7477 141.264 46.9405 151.229Z" fill="#332E25"/>
<path d="M106.59 168.7C105.326 168.7 103.923 168.42 102.379 167.788C98.6596 166.384 95.4317 163.858 93.1159 161.823C92.8354 161.613 92.7652 161.191 93.0458 160.841C93.2561 160.56 93.6774 160.49 94.0281 160.771C96.3438 162.736 99.4315 165.122 102.941 166.455C106.028 167.648 108.344 167.507 109.958 165.964C113.467 162.525 112.695 152.911 110.8 147.507C109.467 143.086 107.431 138.595 104.765 134.103C104.554 133.753 104.695 133.402 104.975 133.191C105.326 132.981 105.677 133.121 105.887 133.402C108.624 137.963 110.659 142.594 111.993 147.086C113.677 151.928 115.08 162.735 110.799 166.946C109.677 168.139 108.274 168.7 106.59 168.7Z" fill="#2D1D1D"/>
<path d="M51.3623 166.458C50.2392 166.458 49.3972 166.107 48.6954 165.686C45.1163 163.37 44.6254 156.423 46.3095 151.089C49.3972 140.141 56.6255 131.229 62.5905 124.703C62.871 124.422 63.2923 124.422 63.5729 124.632C63.8534 124.913 63.8533 125.334 63.643 125.615C57.7481 132.071 50.6605 140.773 47.6429 151.51C45.9588 156.984 46.8009 162.878 49.4673 164.633C51.4325 165.897 54.169 164.984 57.5377 162.037C57.8182 161.756 58.2395 161.827 58.52 162.107C58.8005 162.388 58.7304 162.809 58.4499 163.089C55.4329 165.616 53.1171 166.458 51.3623 166.458Z" fill="#2D1D1D"/>
<path d="M99.0824 135.086C96.4155 153.613 83.433 171.227 83.433 171.227L88.4859 189.332C74.4505 195.718 59.9241 188.069 59.9241 188.069C60.0644 187.577 60.2748 186.946 60.4857 186.385C62.5911 180.63 67.2927 170.946 67.2927 170.946C55.8541 155.507 52.275 138.805 51.2221 131.998C50.9416 130.033 50.8008 128.91 50.8008 128.91L99.3629 131.928C99.3634 132.981 99.2928 134.034 99.0824 135.086Z" fill="#E6ECFF"/>
<path d="M70.5921 170.384L60.9779 186.525L60.5566 186.385C62.662 180.63 67.3636 170.946 67.3636 170.946C55.925 155.507 52.3459 138.805 51.293 131.998L58.1 135.156C58.1 135.156 59.5743 154.594 70.5921 170.384Z" fill="#C7D1EA"/>
<path d="M83.4347 171.16L88.4875 189.265C74.4521 195.651 59.9258 188.002 59.9258 188.002L74.7331 185.125C78.3824 184.423 80.7683 180.914 80.1366 177.265C79.4348 172.984 79.6452 168.562 80.6981 164.352L88.6283 134.457L99.0846 134.948C96.4176 153.615 83.4347 171.16 83.4347 171.16Z" fill="#F5F8FF"/>
<path d="M76.4173 192.491C67.1542 192.491 59.7856 188.701 59.6454 188.631C59.3649 188.491 59.2241 188.14 59.2947 187.859C60.7684 183.017 65.5402 173.052 66.5231 170.946C52.0669 151.156 50.1719 129.121 50.1719 128.911C50.1719 128.7 50.242 128.56 50.3823 128.419C50.5225 128.279 50.7329 128.209 50.8737 128.209L99.4358 131.227C99.6462 131.227 99.7864 131.297 99.9272 131.437C100.067 131.577 100.138 131.717 100.067 131.928C98.5937 150.315 85.8918 168.841 84.1376 171.298L89.0501 189.122C89.1203 189.473 88.98 189.754 88.6995 189.894C84.5578 191.859 80.347 192.491 76.4173 192.491ZM60.7679 187.719C63.3642 188.912 75.7155 194.034 87.6455 188.912L82.8036 171.368C82.7335 171.157 82.8036 170.946 82.9439 170.806C83.0841 170.596 96.9793 151.578 98.7335 132.56L51.6451 129.613C52.1365 133.683 54.9432 153.051 67.856 170.526C67.9963 170.736 67.9963 171.017 67.9261 171.227C67.9256 171.368 62.5923 182.315 60.7679 187.719Z" fill="#8196C9"/>
<path d="M70.9747 191.808C70.9046 191.808 70.9538 191.555 70.8837 191.555C70.533 191.415 70.3127 191.65 70.4529 191.299L77.0496 171.299C71.4352 151.86 71.9968 133.543 71.9968 133.403C71.9968 133.053 72.3474 132.771 72.6986 132.771C73.0497 132.771 73.3303 133.122 73.3303 133.473C73.3303 133.684 72.7687 151.93 78.3831 171.158C78.4532 171.299 78.4532 171.439 78.3831 171.58L71.7163 191.79C71.6451 191.931 71.2552 191.808 70.9747 191.808Z" fill="#8196C9"/>
<path d="M108.416 137.542L108.346 137.612C106.592 139.507 94.6616 139.648 94.1 131.507C93.4684 123.226 104.626 120.069 106.381 122.946C106.381 123.016 106.451 123.016 106.451 123.086C107.012 124.139 106.801 125.472 106.24 126.665C107.995 126.665 109.749 127.227 110.17 128.349C110.662 129.893 109.398 131.717 107.714 132.56C109.258 134.103 109.609 135.998 108.416 137.542Z" fill="#D11313"/>
<path d="M108.416 137.545L108.346 137.615C105.258 136.773 102.451 134.808 102.241 130.948C101.96 127.299 103.995 124.632 106.452 123.088C107.013 124.14 106.802 125.474 106.241 126.667C107.995 126.667 109.75 127.229 110.171 128.351C110.662 129.895 109.399 131.719 107.715 132.562C109.258 134.106 109.609 136 108.416 137.545Z" fill="#EA2A21"/>
<path d="M103.997 139.393C102.448 139.393 100.741 139.152 99.1592 138.594C95.6707 137.364 93.6239 134.865 93.3957 131.558C92.9844 126.173 97.0999 122.886 100.75 121.71C105.736 120.103 108.363 122.358 107.247 126.021C108.763 126.203 110.349 126.814 110.832 128.103C111.381 129.825 110.304 131.653 108.801 132.729C110.501 134.945 109.81 137.151 108.846 138.115C108.125 138.892 106.225 139.393 103.997 139.393ZM103.723 122.617C102.998 122.617 102.131 122.748 101.182 123.054C98.0226 124.073 94.4555 126.884 94.804 131.456C95.0442 134.934 97.5599 136.532 99.6287 137.262C103.148 138.502 107.106 137.914 107.827 137.135C108.038 136.922 109.345 135.193 107.215 133.062C107.054 132.902 106.981 132.673 107.017 132.45C107.053 132.225 107.195 132.032 107.398 131.931C108.906 131.177 109.847 129.667 109.497 128.566C109.242 127.89 107.868 127.374 106.24 127.374C105.998 127.374 105.773 127.251 105.643 127.047C105.514 126.842 105.498 126.586 105.601 126.367C105.916 125.698 106.363 124.426 105.827 123.421C105.518 122.758 104.452 122.617 103.723 122.617Z" fill="#B7130B"/>
<path d="M82.5215 123.437C79.7143 123.647 77.0479 121.893 76.6266 116.98C76.2053 112.068 78.0302 105.892 80.9777 105.612H81.0478C83.9251 105.472 86.8024 111.226 87.2232 116.068C87.2933 116.56 87.2933 116.98 87.2933 117.402C87.2232 121.331 85.1178 123.156 82.5215 123.437Z" fill="#3145BC"/>
<path d="M87.2912 117.403C87.0809 117.474 86.87 117.474 86.6596 117.474C83.8524 117.684 81.186 115.93 80.7647 111.017C80.6244 109.263 80.7647 107.298 81.1153 105.544C83.9926 105.403 86.87 111.158 87.2907 116C87.2913 116.491 87.2912 116.982 87.2912 117.403Z" fill="#4150D8"/>
<path d="M82.0999 124.158C79.3252 124.158 76.3725 122.307 75.9203 117.039C75.5461 112.675 76.8974 106.576 79.8967 105.184C81.1317 104.611 82.18 105.053 82.4909 105.195C85.3849 106.517 87.5777 112.005 87.9252 116.006C87.9985 116.508 87.9985 116.962 87.9985 117.401C87.9294 121.265 85.9098 123.779 82.5961 124.138C82.5882 124.14 82.5804 124.14 82.573 124.141C82.416 124.152 82.258 124.158 82.0999 124.158ZM80.3494 106.55C78.4366 107.673 76.9498 112.499 77.3287 116.918C77.6636 120.827 79.534 122.945 82.4553 122.731C85.062 122.444 86.5289 120.546 86.5855 117.387C86.5855 116.993 86.5855 116.608 86.5221 116.166C86.1595 112.002 84.086 107.74 82.1219 106.606C81.8461 106.446 81.1616 106.073 80.3494 106.55Z" fill="#31409B"/>
<path d="M99.292 123.508C96.2744 127.017 91.5728 129.754 87.5022 127.017C80.625 122.456 84.9761 110.174 89.2565 109.684C89.3266 109.684 89.3967 109.684 89.4669 109.684C91.7125 109.684 91.9229 113.683 91.8528 113.683C91.9229 113.683 93.4667 110.104 95.7124 109.894C95.7825 109.894 95.9227 109.894 95.9929 109.894C96.1331 109.894 96.2033 109.894 96.3435 109.964C97.9575 110.315 97.8874 114.175 97.4666 116.069C97.5367 115.859 102.028 113.192 102.449 116.701C102.661 118.315 101.327 121.122 99.292 123.508Z" fill="#2DA02D"/>
<path d="M99.2939 123.509C96.8379 124.982 93.9606 125.404 91.4339 123.719C86.6621 120.561 87.2231 113.824 89.4688 109.684C91.7144 109.684 91.9248 113.683 91.8547 113.683C91.9248 113.683 93.4686 110.104 95.7143 109.894C95.7143 110.175 95.7143 110.385 95.7143 110.385C95.7143 110.385 95.8545 110.175 95.9948 109.894C96.135 109.894 96.2052 109.894 96.3454 109.964C97.9594 110.315 97.8893 114.175 97.4685 116.069C97.5386 115.859 102.03 113.192 102.451 116.701C102.663 118.316 101.329 121.123 99.2939 123.509Z" fill="#4FB24F"/>
<path d="M91.0958 128.855C89.7597 128.855 88.4116 128.48 87.109 127.604C83.7418 125.371 82.4335 121.106 83.6126 116.197C84.5687 112.216 86.8567 109.249 89.1767 108.983C90.7802 108.795 91.7986 110.097 92.2566 111.645C94.5681 108.334 99.0165 107.52 98.3791 114.728C99.1934 114.382 100.167 114.134 100.93 114.212C101.66 114.287 102.922 114.697 103.152 116.617C103.423 118.685 101.679 121.801 99.8308 123.967C99.8303 123.968 99.8287 123.969 99.8287 123.969C97.5512 126.618 94.3593 128.855 91.0958 128.855ZM88.9265 110.483C87.3743 111.022 85.7044 113.54 84.9869 116.526C84.5991 118.14 83.6633 123.623 87.894 126.429C91.6113 128.929 95.9419 126.321 98.7575 123.049C100.672 120.804 101.93 118.173 101.75 116.793C101.654 115.991 101.342 115.781 101.115 115.692C100.212 115.338 98.4241 116.202 98.0065 116.528C97.8327 116.732 97.5491 116.825 97.2796 116.751C96.9174 116.65 96.6971 116.284 96.7782 115.917C97.1367 114.305 97.1236 111.865 96.5328 110.942C95.9843 110.087 94.3133 110.633 92.6093 113.791C92.558 113.887 92.5067 113.982 92.4455 114.069C92.4188 114.111 92.389 114.147 92.357 114.178C92.2388 114.304 92.0844 114.391 91.8536 114.391C91.4632 114.391 91.1471 114.075 91.1471 113.685C91.1471 113.641 91.1513 113.599 91.1586 113.558C91.1575 113.152 90.9503 111.49 90.2323 110.739C89.7362 110.22 89.1558 110.403 88.9265 110.483Z" fill="#1C7C1C"/>
<path d="M62.3109 124.699C59.644 125.752 56.6264 124.769 54.802 120.138C54.5916 119.576 54.3807 118.945 54.2405 118.313C53.1174 113.962 53.3985 108.909 55.8545 107.997C56.4861 107.717 57.2581 107.787 58.03 108.138C60.5561 109.19 63.4334 112.769 64.7669 116.278C66.5217 120.91 64.9773 123.647 62.3109 124.699Z" fill="#2DA02D"/>
<path d="M56.1353 117.963C55.5036 118.243 54.872 118.313 54.1702 118.313C53.0471 113.962 53.3281 108.909 55.7841 107.997C56.4158 107.717 57.1877 107.787 57.9597 108.138C58.17 108.629 58.381 109.05 58.5913 109.541C60.4157 114.173 58.8017 116.91 56.1353 117.963Z" fill="#4FB24F"/>
<path d="M60.3777 125.795C59.521 125.795 58.6889 125.589 57.9091 125.178C56.3313 124.347 55.0643 122.74 54.1427 120.4C53.8684 119.669 53.6753 119.041 53.5487 118.47C52.3675 113.896 52.6836 108.424 55.6064 107.338C56.3611 107.001 57.3398 107.052 58.3205 107.497C60.9278 108.583 63.9908 112.256 65.4258 116.031C67.1188 120.498 66.0507 123.985 62.5689 125.36C61.8321 125.65 61.0963 125.795 60.3777 125.795ZM56.7039 108.535C56.4961 108.535 56.3062 108.572 56.1387 108.646C54.307 109.328 53.7679 113.668 54.9224 118.14C55.0407 118.67 55.2155 119.236 55.4615 119.893C56.2512 121.898 57.2979 123.259 58.5675 123.928C59.6262 124.486 60.8309 124.526 62.0493 124.045C64.7591 122.976 65.508 120.238 64.1044 116.532C62.8149 113.139 60.026 109.739 57.7563 108.793C57.3769 108.621 57.02 108.535 56.7039 108.535Z" fill="#1C7C1C"/>
<path d="M70.4522 126.384C66.6627 126.525 64.1365 123.998 62.7329 121.051C61.0488 117.472 61.0488 113.332 62.6628 112.349C63.7859 111.647 65.1188 111.998 66.312 112.7C66.3821 110.805 67.0839 108.84 68.2772 108.489C69.821 107.997 71.5753 109.541 72.3472 111.366C72.5576 111.156 72.6978 111.016 72.9087 110.805C74.3824 109.611 75.9964 109.541 77.3299 110.805C79.575 112.981 78.7329 126.103 70.4522 126.384Z" fill="#D11313"/>
<path d="M64.9786 121.265C64.1365 121.265 63.4347 121.195 62.7329 120.985C61.0488 117.406 61.0488 113.265 62.6628 112.283C63.7859 111.581 65.1188 111.932 66.312 112.633C66.3822 110.738 67.084 108.774 68.2772 108.422C69.821 107.931 71.5752 109.475 72.3472 111.3C72.5575 111.089 72.6978 110.949 72.9087 110.738C72.6983 115.37 70.5228 121.125 64.9786 121.265Z" fill="#EA2A21"/>
<path d="M98.8723 148.418C98.5217 148.629 98.1004 148.699 97.609 148.699C94.7317 148.629 90.8019 144.839 88.9771 140.98C86.8717 136.488 88.4856 133.541 91.2928 132.277C94.1 130.944 97.328 131.646 99.4333 136.067C101.539 140.489 101.75 147.085 98.8723 148.418Z" fill="#2DA02D"/>
<path d="M98.8731 148.422C98.5225 148.632 98.1012 148.702 97.6098 148.702C96.7677 147.65 96.0659 146.527 95.5044 145.334C93.399 140.843 95.013 137.895 97.8202 136.632C98.3817 136.352 98.9433 136.211 99.5043 136.141C101.54 140.492 101.75 147.088 98.8731 148.422Z" fill="#4FB24F"/>
<path d="M74.3113 140.348C73.7498 141.541 73.048 142.663 72.2761 143.786C69.6798 147.295 66.1708 149.892 63.9251 148.839C63.013 148.418 62.3813 147.436 62.1008 146.102C61.399 143.225 62.1008 138.804 63.6446 135.435C65.9604 130.523 69.3291 129.681 72.2059 130.944C75.0832 132.207 76.6271 135.365 74.3113 140.348Z" fill="#2DA02D"/>
<path d="M72.2768 143.72C69.6805 147.229 66.1715 149.825 63.9259 148.772C63.0137 148.351 62.3821 147.369 62.1016 146.035C64.3472 141.684 67.5751 140.983 70.3122 142.246C71.0841 142.597 71.7859 143.088 72.2768 143.72Z" fill="#4FB24F"/>
<path d="M70.1405 127.097C65.5283 127.097 63.1262 123.522 62.0942 121.355C60.4179 117.792 60.0992 113.083 62.2946 111.746C62.9943 111.309 64.1221 110.98 65.7057 111.613C65.9726 109.867 66.7461 108.203 68.0775 107.812C69.736 107.282 71.5028 108.518 72.5363 110.198C74.3115 108.804 76.2793 108.837 77.8158 110.293C79.4434 111.87 79.5418 117.079 78.0246 121.016C76.5592 124.818 73.8787 126.976 70.477 127.091C70.3634 127.095 70.2515 127.097 70.1405 127.097ZM64.0295 112.673C63.6616 112.673 63.3303 112.765 63.0362 112.949C61.865 113.661 61.7943 117.399 63.3711 120.751C64.277 122.653 66.3965 125.808 70.4252 125.679C70.4252 125.679 70.4262 125.678 70.4273 125.678C74.0153 125.557 75.8219 122.799 76.7053 120.507C78.1983 116.634 77.8147 112.259 76.8372 111.312C75.5445 110.088 74.2482 110.639 73.38 111.331L72.8456 111.866C72.6797 112.032 72.4411 112.105 72.2108 112.06C71.98 112.015 71.7869 111.858 71.6953 111.642C71.0652 110.152 69.6292 108.8 68.4904 109.163C67.7232 109.388 67.0826 110.952 67.0167 112.726C67.0073 112.975 66.8681 113.2 66.6498 113.32C66.4316 113.439 66.1668 113.435 65.9522 113.309C65.2326 112.885 64.5889 112.673 64.0295 112.673Z" fill="#B7130B"/>
<path d="M61.187 136.28C57.3975 140.21 50.9411 143.157 48.5552 140.911C46.2394 138.666 48.9058 132.069 52.6959 128.139C56.4853 124.21 59.9943 124.56 62.24 126.736C64.5557 128.911 64.9765 132.42 61.187 136.28Z" fill="#4FB24F"/>
<path d="M97.6087 149.408C94.2096 149.326 90.1548 145.127 88.3383 141.285C87.2356 138.933 87.0142 136.832 87.6789 135.039C88.2331 133.542 89.3824 132.366 91.0031 131.636C93.7972 130.31 97.6558 130.693 100.072 135.766C101.735 139.259 102.213 143.813 101.209 146.595C100.777 147.793 100.102 148.618 99.2028 149.047C98.7747 149.293 98.267 149.408 97.6087 149.408ZM93.815 132.379C93.1012 132.379 92.3575 132.557 91.5955 132.919C90.3149 133.496 89.4232 134.396 89.0029 135.529C88.4822 136.935 88.6942 138.717 89.6158 140.683C91.4291 144.517 95.172 147.935 97.6255 147.996C98.0169 147.996 98.3032 147.939 98.5088 147.815C98.5298 147.803 98.5523 147.791 98.5748 147.781C99.1353 147.521 99.5744 146.961 99.8789 146.116C100.752 143.695 100.287 139.506 98.7951 136.374C97.5475 133.753 95.7985 132.379 93.815 132.379Z" fill="#1C7C1C"/>
<path d="M65.0596 149.796C64.563 149.796 64.0815 149.697 63.6231 149.483C62.5272 148.977 61.739 147.828 61.4072 146.252C60.6939 143.328 61.3471 138.752 63.0003 135.144C65.2046 130.468 68.7502 128.66 72.4879 130.301C74.0522 130.987 75.1752 132.134 75.7357 133.617C76.4637 135.545 76.1921 137.976 74.9502 140.649C74.9497 140.65 74.9492 140.651 74.9492 140.652C74.4389 141.736 73.7936 142.827 72.8563 144.19C70.7949 146.976 67.7203 149.796 65.0596 149.796ZM69.8414 131.132C67.6617 131.132 65.7028 132.725 64.2814 135.74C62.7763 139.025 62.1452 143.317 62.7847 145.939C63.027 147.09 63.5351 147.886 64.2186 148.202C65.9043 148.99 69.0501 146.958 71.7055 143.37C72.5826 142.094 73.1929 141.064 73.6691 140.052C74.7466 137.733 75.0041 135.68 74.4133 134.117C73.9904 132.998 73.1279 132.125 71.9196 131.595C71.212 131.285 70.516 131.132 69.8414 131.132Z" fill="#1C7C1C"/>
<path d="M50.8948 142.412C49.7816 142.412 48.8035 142.114 48.0698 141.423C45.3976 138.832 48.0907 131.892 52.1864 127.646C54.2148 125.542 56.2956 124.458 58.3701 124.423C59.9768 124.396 61.4845 125.018 62.7306 126.225C63.9929 127.411 64.6811 128.892 64.7135 130.501C64.7549 132.546 63.7103 134.714 61.6923 136.77C58.9144 139.649 54.2813 142.412 50.8948 142.412ZM58.4696 125.835C58.4444 125.835 58.4193 125.835 58.3937 125.835C56.7315 125.864 54.937 126.829 53.2032 128.627C49.375 132.596 47.2382 138.648 49.0458 140.401C50.8717 142.119 56.854 139.751 60.6775 135.786C60.6791 135.785 60.6801 135.783 60.6817 135.782C62.4286 134.003 63.334 132.186 63.3005 130.529C63.2759 129.309 62.7416 128.175 61.7551 127.247C60.7969 126.32 59.6649 125.835 58.4696 125.835Z" fill="#1C7C1C"/>
<path d="M91.6449 143.788C90.6626 145.191 88.4871 144.419 87.5042 143.858C87.1536 143.647 86.9427 143.507 86.9427 143.507C86.9427 143.647 89.0481 147.367 87.0128 148.911C85.7495 149.893 82.8021 147.717 81.5392 146.384C81.6795 146.595 80.9076 151.367 77.9601 149.682C76.4864 148.84 75.0127 146.033 74.5213 142.875C73.8896 138.876 74.8719 134.314 79.2931 132.911C87.1536 130.314 93.9607 140.349 91.6449 143.788Z" fill="#D11313"/>
<path d="M87.0111 148.985C85.7477 149.967 82.8003 147.791 81.5375 146.458C81.6777 146.669 80.9058 151.441 77.9584 149.757C76.4847 148.914 75.0109 146.107 74.5195 142.95C75.2915 142.037 76.2737 141.336 77.6072 140.914C81.4668 139.651 85.0459 141.406 87.4318 143.932C87.0812 143.721 86.8703 143.581 86.8703 143.581C86.8708 143.651 89.0463 147.371 87.0111 148.985Z" fill="#EA2A21"/>
<path d="M79.1493 150.748C78.66 150.748 78.1419 150.597 77.6102 150.293C75.8983 149.315 74.3414 146.308 73.8238 142.982C73.1639 138.803 74.198 133.784 79.0802 132.234C83.9405 130.63 88.2308 133.428 90.6235 136.585C92.7524 139.394 93.3988 142.446 92.2317 144.18C92.2296 144.183 92.227 144.187 92.2244 144.191C91.2745 145.549 89.5935 145.431 88.2721 144.974C88.9132 147.056 88.6353 148.565 87.4405 149.472C85.9935 150.595 83.5527 149.071 82.0402 147.807C81.8152 148.577 81.4232 149.399 80.9386 149.918C80.4236 150.47 79.8139 150.748 79.1493 150.748ZM81.9115 133.187C81.1359 133.187 80.3341 133.308 79.5151 133.579C74.4377 135.191 74.9437 141.016 75.2195 142.763C75.723 145.998 77.1884 148.425 78.3114 149.067C79.0111 149.467 79.3874 149.335 79.6093 149.201C80.4519 148.693 80.8376 146.97 80.8491 146.53C80.7947 146.276 80.8842 146.002 81.0992 145.83C81.3866 145.601 81.8005 145.63 82.0528 145.896C83.4899 147.412 85.9098 148.871 86.5796 148.35C87.4599 147.682 87.3961 146.229 86.396 144.027C86.2866 143.785 86.2369 143.676 86.2369 143.504C86.2369 143.244 86.3802 143.005 86.6095 142.882C86.8387 142.759 87.1171 142.772 87.3343 142.916C87.3411 142.92 87.541 143.052 87.8686 143.25C88.5123 143.616 90.3655 144.372 91.0631 143.385C91.8612 142.189 91.2039 139.69 89.4973 137.439C87.8126 135.216 85.0782 133.187 81.9115 133.187Z" fill="#B7130B"/>
<path d="M97.678 131.859C97.3975 131.999 97.1164 132.14 96.8359 132.21C96.9762 132.49 97.1866 132.701 97.3273 133.052C98.4504 135.227 98.2395 137.683 96.906 138.385C95.6427 139.087 93.8184 138.105 92.6953 136.069C92.6251 135.999 92.555 135.859 92.555 135.789C92.4849 135.649 92.4148 135.438 92.3446 135.297C92.2044 135.578 91.994 135.859 91.7831 136.14C90.3094 138.105 88.204 138.947 87.0113 137.964C85.8181 136.982 86.029 134.596 87.5027 132.631C87.5728 132.49 87.7131 132.35 87.7832 132.28C87.1516 132.28 86.4498 132.14 85.8181 131.859C83.6426 130.946 82.3091 129.051 82.8706 127.508C83.4322 126.034 85.6077 125.542 87.8533 126.455C88.3448 126.666 88.8357 126.947 89.2569 127.227C89.2569 127.087 89.2569 126.947 89.2569 126.806C89.4673 124.28 90.8008 122.385 92.3446 122.525C93.8184 122.665 94.8708 124.771 94.7305 127.227C94.9409 127.086 95.2219 126.946 95.4323 126.805C97.3273 125.823 99.3621 125.963 100.204 127.016C100.274 127.156 100.344 127.296 100.415 127.437C101.047 128.701 99.8535 130.736 97.678 131.859Z" fill="#3145BC"/>
<path d="M97.6799 131.855C97.3994 131.996 97.1183 132.136 96.8378 132.206C96.9781 132.487 97.1885 132.697 97.3292 133.048C98.4523 135.224 98.2414 137.68 96.9079 138.381C95.6446 139.083 93.8203 138.101 92.6972 136.066C92.7673 135.996 92.9076 135.925 92.9777 135.855C93.1179 135.785 92.8683 135.608 93.0091 135.538C92.3774 135.327 92.0655 135.013 91.4338 134.522C89.4687 132.978 88.6266 130.593 89.6796 129.259C90.6619 127.926 93.1185 128.066 95.1532 129.68C95.6446 130.031 95.9952 130.452 96.3464 130.874C96.4165 130.733 96.4165 130.593 96.4866 130.452C97.2586 128.417 98.8024 126.943 100.136 126.943C100.206 127.084 100.276 127.224 100.346 127.365C101.049 128.698 99.8554 130.732 97.6799 131.855Z" fill="#4150D8"/>
<path d="M95.1839 139.196C94.0807 138.879 93.023 137.977 92.2453 136.7C91.2028 138.032 89.8495 138.91 88.5987 139.059C87.8168 139.156 87.1134 138.963 86.5634 138.509C85.1902 137.379 85.2038 134.984 86.5137 132.834C86.1751 132.754 85.8438 132.643 85.5324 132.504C82.9519 131.422 81.5169 129.168 82.2082 127.267C82.4861 126.536 83.0435 125.977 83.8232 125.638C85.0191 125.118 86.5854 125.177 88.1209 125.801C88.3019 125.879 88.4768 125.962 88.6421 126.047C88.8944 124.535 89.5365 123.239 90.4199 122.497C91.0217 121.992 91.7094 121.762 92.4101 121.822C93.9979 121.974 95.1974 123.732 95.4151 126.029C101.061 123.43 103.916 129.435 98.0036 132.487C98.001 132.489 97.9984 132.49 97.9957 132.492C97.956 132.511 97.9157 132.531 97.8748 132.552C97.9078 132.616 97.9408 132.684 97.9711 132.756C99.2758 135.309 98.9487 138.11 97.2369 139.011C96.6691 139.325 95.96 139.419 95.1839 139.196ZM95.5743 137.837C95.9526 137.947 96.2855 137.923 96.5649 137.767C97.9952 137.014 97.0616 133.835 96.454 132.934C96.364 132.8 96.2781 132.669 96.2054 132.525C96.1096 132.333 96.1065 132.108 96.1955 131.914C96.2855 131.719 96.4587 131.576 96.6659 131.524C96.8732 131.472 97.1197 131.349 97.3589 131.229C101.543 129.065 99.953 125.291 95.7904 127.417C95.68 127.488 95.5554 127.56 95.4303 127.631C95.3225 127.693 95.2147 127.753 95.1226 127.815C94.8986 127.964 94.6113 127.973 94.3795 127.84C94.1476 127.707 94.0105 127.454 94.0257 127.186C94.1529 124.964 93.2067 123.316 92.2783 123.228C91.958 123.204 91.6388 123.318 91.3274 123.579C90.6078 124.184 90.0865 125.43 89.9641 126.837V127.228C89.9641 127.488 89.8207 127.728 89.5909 127.851C89.3617 127.973 89.0828 127.96 88.8661 127.816C88.562 127.614 88.0916 127.326 87.5761 127.106C86.4205 126.636 85.2232 126.571 84.3858 126.934C84.0907 127.063 83.7023 127.311 83.5312 127.76C83.1198 128.892 84.267 130.443 86.0919 131.208C86.6283 131.446 87.2244 131.575 87.7838 131.575C88.0696 131.575 88.3276 131.747 88.437 132.011C88.5463 132.275 88.4851 132.579 88.2826 132.781C88.1816 132.882 88.146 132.929 88.134 132.951C88.1193 132.977 88.0869 133.031 88.0685 133.055C86.7393 134.828 86.6817 136.777 87.4609 137.419C87.7101 137.624 88.0356 137.704 88.4302 137.657C89.334 137.549 90.4021 136.805 91.2185 135.717C91.4059 135.467 91.6 135.209 91.7131 134.983C91.8329 134.743 92.0773 134.592 92.3453 134.592C92.6132 134.592 92.8576 134.743 92.9775 134.983C93.0204 135.068 93.0643 135.176 93.1078 135.284C93.5489 136.386 94.5621 137.547 95.5743 137.837Z" fill="#31409B"/>
<path d="M87.0814 129.685C88.1338 131.65 87.3618 134.106 85.3271 135.159C83.8534 135.931 82.1693 135.72 80.9761 134.738C80.6956 135.861 79.9938 136.843 78.9408 137.405C78.5902 137.615 78.1689 137.755 77.8177 137.826C76.1336 138.106 74.3789 137.334 73.5368 135.72C72.9052 134.457 72.9753 132.983 73.607 131.861C72.0631 131.931 70.5894 131.159 69.8175 129.685C68.765 127.72 69.5369 125.264 71.5717 124.212C72.4839 123.72 73.5368 123.65 74.5191 123.931C74.2386 122.247 75.0807 120.563 76.6245 119.72C78.2385 118.878 80.0634 119.229 81.3262 120.422C81.6067 120.703 81.8877 121.054 82.0981 121.475C82.1682 121.545 82.1682 121.685 82.2384 121.755C83.0103 121.334 83.8523 121.194 84.6944 121.334C85.5364 121.474 86.3084 121.825 86.9401 122.457C87.2206 122.737 87.5016 123.089 87.712 123.509C88.6943 125.334 88.0626 127.579 86.3785 128.773C86.5198 128.913 86.8009 129.264 87.0814 129.685Z" fill="#F8A01F"/>
<path d="M87.0841 129.683C88.1365 131.648 87.3646 134.104 85.3298 135.156C83.8561 135.928 82.172 135.718 80.9788 134.735C80.6983 135.858 79.9965 136.841 78.9436 137.402C78.5929 137.612 78.1716 137.753 77.8205 137.823C77.5399 137.543 77.2589 137.192 77.0485 136.771C76.4169 135.508 76.487 134.034 77.1187 132.911C75.5748 132.981 74.1011 132.21 73.3292 130.736C72.2767 128.771 73.0487 126.315 75.0834 125.262C75.9956 124.771 77.0486 124.701 78.0309 124.982C77.7503 123.298 78.5924 121.613 80.1363 120.771C80.4869 120.561 80.9082 120.42 81.2593 120.35C81.5398 120.63 81.8209 120.981 82.0312 121.402C82.1014 121.472 82.1014 121.612 82.1715 121.683C82.9434 121.261 83.7855 121.121 84.6275 121.261C84.9782 121.612 85.334 121.32 85.6145 121.811C85.6847 121.881 86.1818 121.834 86.252 121.904L86.5498 122.072C86.9004 121.862 86.5215 122.384 86.8727 122.314C87.1532 122.594 87.4342 122.945 87.6446 123.366C88.6269 125.191 87.9952 127.436 86.3111 128.629C86.5225 128.911 86.8036 129.262 87.0841 129.683Z" fill="#F9C710"/>
<path d="M72.9114 136.043C72.3572 134.935 72.2499 133.65 72.5811 132.496C71.1409 132.246 69.8948 131.35 69.1925 130.01C68.6006 128.904 68.4797 127.628 68.8545 126.422C69.2365 125.19 70.0864 124.181 71.2482 123.58C72.0081 123.171 72.8784 122.999 73.766 123.073C73.8424 121.441 74.7807 119.918 76.2874 119.096C78.1191 118.14 80.2842 118.461 81.8128 119.904C82.1106 120.202 82.3576 120.513 82.5549 120.836C83.2782 120.575 84.0475 120.505 84.8121 120.632C85.8535 120.806 86.7385 121.25 87.4408 121.952C87.8213 122.333 88.1253 122.748 88.3451 123.188C89.3478 125.049 88.9177 127.374 87.3712 128.862C87.4717 128.998 87.5743 129.143 87.6711 129.289C87.6836 129.308 87.6951 129.327 87.7056 129.346C88.3001 130.457 88.4216 131.733 88.0474 132.939C87.6653 134.171 86.8154 135.18 85.6536 135.781C84.2762 136.502 82.67 136.497 81.3444 135.814C79.6195 139.567 74.6426 139.364 72.9114 136.043ZM73.6079 131.15C73.8523 131.15 74.0805 131.277 74.2092 131.486C74.3437 131.705 74.3495 131.979 74.2234 132.203C73.6833 133.163 73.6629 134.388 74.1689 135.4C75.5464 138.04 79.5138 137.673 80.2909 134.562C80.3496 134.327 80.5249 134.138 80.7552 134.062C80.9865 133.986 81.2387 134.034 81.4256 134.188C82.4382 135.022 83.8078 135.153 85 134.529C85.8263 134.102 86.4276 133.389 86.6966 132.521C86.9546 131.689 86.8756 130.811 86.4742 130.044C86.2183 129.663 85.9744 129.363 85.8802 129.27C85.7326 129.122 85.6573 128.918 85.6746 128.71C85.6918 128.503 85.8002 128.313 85.9702 128.193C87.399 127.18 87.8804 125.309 87.0902 123.84C86.9284 123.518 86.7128 123.226 86.4407 122.953C85.9509 122.462 85.3244 122.152 84.5787 122.028C83.8826 121.911 83.2086 122.027 82.5769 122.372C82.3027 122.521 81.9609 122.472 81.739 122.252C81.5967 122.109 81.537 121.95 81.5051 121.854C81.491 121.833 81.4784 121.81 81.4664 121.787C81.3146 121.483 81.0995 121.191 80.8269 120.918C79.7399 119.892 78.2499 119.665 76.9515 120.344C75.6882 121.033 74.9864 122.429 75.2162 123.812C75.2559 124.051 75.1706 124.294 74.9896 124.455C74.809 124.615 74.5578 124.673 74.3244 124.607C73.4803 124.365 72.622 124.444 71.9065 124.83C71.0729 125.261 70.4716 125.974 70.2026 126.84C69.9409 127.683 70.0251 128.574 70.4402 129.349C71.065 130.54 72.241 131.216 73.575 131.151C73.5865 131.15 73.5975 131.15 73.6079 131.15ZM81.5993 121.97L81.6003 121.971L81.5993 121.97Z" fill="#A55A0F"/>
<path d="M94.2403 166.032C89.9594 169.33 78.0995 159.575 80.4859 155.154C83.0121 151.926 96.3457 160.067 94.2403 166.032Z" fill="#332E25"/>
<path d="M61.1183 167.371C51.3638 168.635 65.1883 149.898 69.5393 153.546C72.5574 156.002 65.9608 165.827 61.1183 167.371Z" fill="#332E25"/>
<path d="M117.892 167.225C111.857 179.366 98.453 173.682 90.6631 166.594C86.5225 165.4 80.6983 160.629 80.1367 157.12L80.4873 155.225C80.4873 155.225 83.8561 162.172 91.7857 165.119C91.7857 165.119 102.663 173.4 109.821 171.856C116.979 170.312 118.944 159.154 117.891 151.926C117.119 147.013 114.032 134.101 113.962 133.891C118.875 144.137 122.454 156.278 117.892 167.225Z" fill="#3F3A31"/>
<path d="M89.7515 166.384C89.6813 166.384 89.6112 166.384 89.5411 166.384C85.8918 165.331 80.9798 161.752 79.6463 158.313C79.1549 156.98 78.6671 153.589 82.3127 153.892C85.8918 154.032 92.2776 157.962 95.0147 161.752C95.225 162.033 95.1549 162.454 94.8744 162.664C94.5939 162.875 94.1726 162.805 93.9622 162.524C91.5062 159.155 85.4009 155.296 82.3127 155.226C82.0469 155.226 81.7925 155.235 81.5717 155.267C81.1347 155.33 80.7893 155.671 80.7087 156.105C80.6166 156.603 80.7249 157.161 80.9793 157.822C82.0317 160.559 86.3697 163.961 90.0189 165.014C90.3695 165.084 90.5234 165.542 90.4532 165.892C90.3125 166.243 90.032 166.384 89.7515 166.384Z" fill="#2D1D1D"/>
<path d="M61.1161 167.369C59.6424 168.703 57.8882 169.895 56.0633 170.737C47.2911 174.667 39.9926 167.58 39.642 158.807C39.2207 151.369 41.6071 144.421 44.9052 137.965C44.765 138.315 40.1334 152.702 42.7297 161.053C45.1857 168.913 51.7122 170.387 58.2388 167.018C58.6601 166.808 59.0809 166.527 59.5723 166.246C59.5723 166.246 60.9759 165.264 62.66 163.72C65.4671 161.264 69.1164 157.263 69.5371 153.685C72.5552 156 65.9586 165.825 61.1161 167.369Z" fill="#3F3A31"/>
<path d="M51.1506 172.491C49.1154 172.491 47.1507 171.929 45.396 170.877C41.6065 168.561 39.1505 163.93 38.9396 158.807C38.3079 148.701 43.0802 139.438 46.6588 133.263C46.8692 132.912 47.2905 132.841 47.571 133.052C47.9216 133.263 47.9923 133.684 47.7814 133.964C42.0969 143.579 39.7811 151.228 40.2024 158.737C40.4128 163.368 42.5883 167.579 46.0271 169.684C48.0624 170.948 51.3605 172 55.7115 170.106C57.6065 169.264 59.5711 167.93 61.396 166.106C61.6765 165.825 62.0978 165.825 62.3783 166.106C62.6588 166.386 62.6588 166.807 62.3783 167.088C60.4132 168.983 58.3083 170.456 56.2731 171.299C54.5895 172.14 52.8347 172.491 51.1506 172.491Z" fill="#2D1D1D"/>
<path d="M107.223 174.948C100.626 174.948 93.6085 170.457 89.3276 166.176C89.0471 165.896 89.0471 165.474 89.3276 165.194C89.6081 164.913 90.0294 164.913 90.3099 165.194C95.2225 170.036 103.012 174.457 109.257 173.405C112.766 172.843 115.433 170.597 117.328 166.878C121.328 157.264 119.433 145.334 111.433 130.386C111.293 130.036 111.363 129.684 111.713 129.474C112.064 129.334 112.415 129.404 112.626 129.754C120.766 145.123 122.731 157.404 118.52 167.44C116.415 171.65 113.397 174.106 109.468 174.738C108.696 174.878 107.924 174.948 107.223 174.948Z" fill="#2D1D1D"/>
<path d="M64.7684 128.559C64.1367 130.735 62.0313 132.068 59.8558 131.717C59.926 132.209 59.8558 132.699 59.7156 133.191C59.0839 135.436 56.8383 136.77 54.5926 136.279C54.5225 136.279 54.4524 136.208 54.3121 136.208C52.5579 135.717 51.3647 134.313 51.1543 132.629C50.1018 133.331 48.8385 133.541 47.5752 133.191C45.2594 132.559 43.8558 130.103 44.4875 127.787C44.9088 126.314 46.0313 125.191 47.4349 124.77C46.1716 123.717 45.5399 121.963 46.0313 120.208C46.5227 118.313 48.2068 117.121 50.0312 116.98C50.2416 116.98 50.4525 116.98 50.6628 116.98C50.9434 116.98 51.1543 117.051 51.4348 117.121C52.5579 117.401 53.3999 118.103 53.9609 119.016C54.8731 117.682 56.4871 116.91 58.1717 117.121C58.3821 117.121 58.593 117.191 58.7333 117.261C61.049 117.893 62.4526 120.349 61.8209 122.664C61.8209 122.805 61.7508 122.875 61.6807 123.015C64.0666 123.787 65.4001 126.243 64.7684 128.559Z" fill="#F8A01F"/>
<path d="M62.0306 128.21C61.3288 130.737 58.9429 132.28 56.557 131.93C56.557 132.491 56.557 133.053 56.3466 133.684C56.0661 134.807 55.3643 135.789 54.5223 136.421C54.4522 136.421 54.382 136.351 54.2418 136.351C52.4876 135.86 51.2943 134.456 51.084 132.772C50.0315 133.474 48.7682 133.684 47.5049 133.333C45.1891 132.702 43.7855 130.246 44.4172 127.93C44.8384 126.456 45.961 125.334 47.3646 124.912C46.1013 123.86 45.4696 122.105 45.961 120.351C46.4524 118.456 48.1365 117.263 49.9609 117.123C50.1011 117.263 50.1712 117.404 50.2414 117.544C50.3115 117.404 50.4518 117.264 50.592 117.123C50.8725 117.123 51.0834 117.193 51.3639 117.263C52.487 117.544 53.3291 118.246 53.8901 119.158C54.8023 117.825 56.4162 117.053 58.1009 117.263C58.9429 118.457 59.2239 120 58.8027 121.614C58.7325 121.755 58.7325 121.895 58.6624 122.036C61.2587 122.737 62.7324 125.473 62.0306 128.21Z" fill="#F9C710"/>
<path d="M55.5165 137.086C54.3227 137.086 51.6056 136.484 50.6693 133.685C48.4655 134.601 45.6626 133.839 44.3092 131.471C42.8658 128.946 43.8021 125.872 46.2168 124.52C43.8246 121.423 45.6526 116.608 49.9733 116.275C52.2053 116.148 53.4964 117.328 53.9883 117.876C56.2115 115.654 58.8826 116.553 58.9784 116.597C61.5605 117.337 63.1305 120.013 62.5596 122.605C64.8717 123.699 66.123 126.266 65.4468 128.745C64.8204 130.935 62.8212 132.465 60.5688 132.478C60.3249 135.058 58.141 137.085 55.5165 137.086ZM54.7388 135.588C54.7388 135.588 54.7393 135.588 54.7398 135.588C56.6218 135.999 58.5073 134.863 59.0317 133C59.1641 132.537 59.2024 132.162 59.1526 131.817C59.0841 131.338 59.5033 130.945 59.9649 131.02C61.7882 131.314 63.5576 130.174 64.0851 128.368C64.621 126.393 63.4686 124.338 61.46 123.688C61.2643 123.624 61.1057 123.479 61.0262 123.289C60.9105 123.013 60.9854 122.798 61.1178 122.566C61.1492 122.345 61.5836 121.115 60.7656 119.682C59.9377 118.233 58.6424 118.007 58.4132 117.893C58.2939 117.833 55.965 117.333 54.5405 119.415C54.2594 119.825 53.6288 119.829 53.3556 119.385C52.2456 117.578 50.4579 117.687 50.056 117.687C46.5292 117.98 45.4506 122.199 47.8836 124.227C48.3185 124.588 48.1704 125.287 47.6345 125.446C45.4433 126.105 44.3244 128.65 45.5359 130.77C46.6297 132.685 49.0449 133.184 50.7588 132.041C51.1953 131.75 51.7877 132.021 51.8516 132.542C52.1724 135.109 54.6865 135.567 54.7388 135.588Z" fill="#A55A0F"/>
<path d="M70.8725 132.49C70.6621 132.49 70.4512 132.419 70.2408 132.419C70.4512 132.77 70.6621 133.121 70.8023 133.472C72.0657 136.279 71.5743 139.016 69.82 139.647C68.3463 140.139 66.5219 139.086 65.1885 137.191C64.908 136.77 64.627 136.279 64.4166 135.718C64.3464 135.507 64.2763 135.367 64.2062 135.156C63.7849 135.788 63.2239 136.419 62.5221 136.98C60.2063 138.735 57.329 138.875 56.0656 137.402C54.8023 135.858 55.6444 133.261 57.89 131.507C58.4516 131.085 59.0131 130.805 59.5741 130.524C59.4339 130.454 59.2936 130.314 59.0827 130.244C56.4864 128.49 55.2932 125.823 56.3456 124.279C57.3981 122.805 60.2754 123.016 62.8021 124.77C62.8021 124.42 62.7319 124.069 62.8021 123.718C62.9423 120.77 64.6264 118.595 66.5214 118.876C68.4866 119.086 69.9603 121.683 69.8195 124.56C69.8195 124.911 69.7494 125.332 69.6792 125.613C70.0299 125.613 70.3811 125.613 70.7317 125.613C70.8018 125.613 70.8018 125.613 70.8719 125.613C73.8895 125.823 76.3455 127.578 76.3455 129.473C76.4167 131.437 73.9602 132.77 70.8725 132.49Z" fill="#3145BC"/>
<path d="M70.8726 132.491C70.6623 132.491 70.4513 132.421 70.241 132.421C70.4513 132.771 70.6622 133.123 70.8025 133.473C72.0658 136.28 71.5744 139.017 69.8202 139.649C68.3465 140.14 66.5221 139.087 65.1887 137.193C64.838 137.404 65.5393 136.982 65.1887 137.193C64.9783 137.052 65.3818 136.561 65.1709 136.421C62.0832 134.245 61.048 130.877 62.3108 129.052C63.5742 127.228 67.0826 127.508 70.1708 129.614C70.1007 129.192 70.1007 128.772 70.1708 128.35C70.241 127.368 70.3812 126.385 70.7324 125.613C70.8025 125.613 70.8025 125.613 70.8726 125.613C73.8902 125.824 76.3462 127.578 76.3462 129.473C76.4169 131.438 73.9603 132.771 70.8726 132.491Z" fill="#4150D8"/>
<path d="M69.0754 140.469C67.5562 140.469 65.894 139.423 64.6098 137.598C64.3701 137.238 64.1712 136.894 64.0069 136.554C63.6897 136.903 63.3407 137.23 62.9628 137.532C60.3336 139.525 57.0742 139.665 55.5288 137.862C54.9332 137.135 54.6836 136.226 54.7956 135.22C54.9657 133.694 55.9349 132.137 57.4547 130.95C57.7006 130.765 57.943 130.608 58.1816 130.465C56.6582 129.292 55.6073 127.779 55.3294 126.328C55.1525 125.402 55.3017 124.556 55.7617 123.881C56.902 122.284 59.5407 122.191 62.1051 123.524C62.2328 121.585 62.9905 119.872 64.1492 118.92C64.8981 118.304 65.7533 118.048 66.6251 118.177C68.9242 118.423 70.6863 121.304 70.5251 124.596C70.5251 124.694 70.5203 124.8 70.5109 124.907H70.872C74.302 125.143 77.0521 127.191 77.0521 129.473C77.0835 130.325 76.7361 131.133 76.0473 131.785C75.0284 132.75 73.3453 133.271 71.4681 133.231C72.3081 135.108 72.452 137.102 71.8412 138.543C71.4718 139.414 70.8558 140.026 70.0598 140.313C69.7416 140.418 69.4119 140.469 69.0754 140.469ZM64.2047 134.45C64.2361 134.45 64.2675 134.452 64.2984 134.456C64.5658 134.492 64.7893 134.677 64.8751 134.933C64.9055 135.024 64.9358 135.099 64.9662 135.175C65.0059 135.274 65.0457 135.375 65.0855 135.494C65.2388 135.902 65.4675 136.337 65.7752 136.8C66.9475 138.466 68.4872 139.344 69.5951 138.977C70.0007 138.831 70.3236 138.497 70.5381 137.99C70.9934 136.917 70.8469 135.297 70.1566 133.761C70.0258 133.437 69.8364 133.12 69.6354 132.786C69.5046 132.568 69.5004 132.294 69.6255 132.073C69.7511 131.851 69.985 131.713 70.2393 131.713C70.4031 131.713 70.5512 131.738 70.6711 131.757C70.759 131.772 70.8474 131.776 70.9348 131.786C72.654 131.944 74.2397 131.549 75.0739 130.758C75.4648 130.388 75.6548 129.964 75.6381 129.498C75.6375 127.971 73.3872 126.497 70.8213 126.318L69.6773 126.319C69.4596 126.319 69.2539 126.219 69.1204 126.048C68.9864 125.876 68.9393 125.652 68.9922 125.441C69.0513 125.205 69.1115 124.84 69.1115 124.56C69.2355 122.012 68.0136 119.746 66.4446 119.578C65.9448 119.502 65.4832 119.652 65.0452 120.011C64.1712 120.73 63.5819 122.162 63.506 123.751C63.5045 123.786 63.4998 123.821 63.493 123.856C63.4647 123.997 63.4762 124.171 63.4898 124.372C63.4987 124.504 63.5071 124.637 63.5071 124.769C63.5071 125.033 63.3611 125.273 63.1277 125.395C62.8953 125.517 62.6138 125.499 62.3971 125.349C60.018 123.698 57.6441 123.674 56.9188 124.688C56.62 125.127 56.643 125.678 56.7157 126.061C56.947 127.269 57.9765 128.624 59.4099 129.612C59.5842 129.684 59.7181 129.776 59.8118 129.84C59.839 129.859 59.8641 129.878 59.8898 129.892C60.1206 130.018 60.2729 130.267 60.2682 130.531C60.2635 130.794 60.1237 131.038 59.8882 131.155C59.3371 131.431 58.8211 131.689 58.3119 132.071C57.1187 133.003 56.3243 134.241 56.1981 135.375C56.15 135.806 56.183 136.431 56.6105 136.954C57.6248 138.135 60.1405 137.895 62.0936 136.416C62.6875 135.941 63.2046 135.381 63.6165 134.763C63.7494 134.566 63.9708 134.45 64.2047 134.45Z" fill="#31409B"/>
<path d="M116.414 87.2688C116.237 87.2688 116.059 87.2023 115.922 87.0689C109.114 80.4518 98.9753 81.7701 98.8743 81.7832C98.544 81.8271 98.2306 81.6403 98.1149 81.33C97.9993 81.0196 98.1144 80.6711 98.3923 80.4905C102.093 78.0921 107.659 77.2762 108.137 77.3285C108.525 77.3693 108.806 77.7169 108.766 78.1046C108.728 78.471 108.4 78.7431 108.054 78.7374C107.601 78.764 104.799 79.1879 102.043 80.2488C105.826 80.3592 112.061 81.3441 116.907 86.0547C117.186 86.3268 117.193 86.7743 116.921 87.0537C116.782 87.1976 116.598 87.2688 116.414 87.2688Z" fill="#22213F"/>
<path d="M61.9591 167.295C61.6786 167.295 61.3975 167.084 61.3274 166.803C61.1872 166.453 61.3468 166.061 61.6979 165.921C65.1368 164.797 69.0472 159.646 69.6087 156.417C69.7071 155.875 69.7364 155.227 69.5501 154.721C69.4125 154.347 69.0734 154.098 68.6824 154.025C68.089 153.914 67.4029 153.988 66.5917 154.312C63.7144 155.435 59.5051 159.92 58.0314 163.429C58.0314 163.429 56.991 163.734 56.6404 163.593C56.2898 163.452 56.8838 162.821 57.0245 162.47C58.4983 159.031 62.451 154.383 66.1003 152.979C70.4079 151.417 71.2934 154.523 70.9422 156.558C70.2404 160.277 66.1003 165.892 62.17 167.155C62.0999 167.295 62.0292 167.295 61.9591 167.295Z" fill="#2D1D1D"/>
<path d="M100.66 231.26C99.6718 231.26 99.0344 230.856 98.646 230.46C98.084 229.897 97.8171 229.108 97.8595 228.119C97.9662 225.617 100.183 221.891 103.114 219.195C102.133 218.274 101.204 217.274 100.367 216.373C99.9345 215.906 99.5289 215.47 99.1594 215.092C98.3278 214.24 97.7276 213.552 97.2121 212.858C91.436 205.098 89.6629 194.709 92.5842 185.746C92.7051 185.375 93.1033 185.171 93.4749 185.293C93.8454 185.414 94.0485 185.813 93.9276 186.184C91.1466 194.718 92.8391 204.616 98.3456 212.015C98.8219 212.655 99.3845 213.299 100.17 214.104C100.547 214.489 100.961 214.935 101.402 215.41C102.382 216.466 103.492 217.662 104.639 218.673C104.794 218.809 104.881 219.005 104.878 219.21C104.876 219.417 104.784 219.611 104.628 219.743C101.721 222.193 99.3677 225.898 99.2709 228.178C99.2463 228.756 99.374 229.189 99.6508 229.465C99.7948 229.612 100.217 230.045 101.419 229.74C104.688 228.906 109.96 223.46 110.98 219.863C111.237 218.953 110.893 217.952 110.122 217.373C104.298 212.996 95.2428 203.283 100.034 187.408C100.147 187.034 100.544 186.822 100.915 186.936C101.288 187.049 101.5 187.443 101.387 187.816C97.0718 202.115 104.217 211.167 110.971 216.244C112.205 217.17 112.755 218.78 112.339 220.248C111.173 224.361 105.542 230.147 101.767 231.109C101.357 231.215 100.989 231.26 100.66 231.26Z" fill="#2D1D1D"/>
<path d="M78.8982 98.2303C73.064 98.2303 68.7114 93.4873 68.4979 93.2497C68.2368 92.9598 68.2603 92.5139 68.5497 92.2528C68.8397 91.9916 69.2856 92.0146 69.5472 92.3035C69.6032 92.3653 75.1977 98.4412 81.7164 96.3793C88.2429 94.3168 89.2828 88.6124 89.3242 88.3707C89.3896 87.9871 89.7523 87.7259 90.1374 87.7913C90.5216 87.8557 90.7811 88.2178 90.7178 88.6019C90.6723 88.8783 89.5178 95.3954 82.1419 97.7263C81.024 98.0796 79.937 98.2303 78.8982 98.2303Z" fill="#A55A0F"/>
</svg>
