<svg width="341" height="340" viewBox="0 0 341 340" fill="none" xmlns="http://www.w3.org/2000/svg">
<path d="M308.83 129.709V200.352C308.83 200.352 340.001 201.198 340.001 163.696C340.001 126.194 308.83 129.709 308.83 129.709Z" fill="#1B2D4A"/>
<path d="M33.0918 129.709V200.352C33.0918 200.352 1.92134 201.198 1.92134 163.696C1.92134 126.194 33.0918 129.709 33.0918 129.709Z" fill="#1B2D4A"/>
<path d="M314.825 172.781C314.825 276.839 250.415 304.656 170.961 304.656C91.5076 304.656 27.0977 276.839 27.0977 172.781C27.0977 76.9658 91.5076 40.9062 170.961 40.9062C250.415 40.9062 314.825 76.9658 314.825 172.781Z" fill="#FACF39"/>
<path d="M284.854 172.782C284.854 255.082 233.863 277.083 170.962 277.083C108.062 277.083 57.0703 255.082 57.0703 172.782C57.0703 97.0003 108.062 68.4805 170.962 68.4805C233.863 68.4805 284.854 97.0003 284.854 172.782Z" fill="white"/>
<path opacity="0.1" d="M314.825 173.151C314.825 277.257 250.415 305.087 170.961 305.087C91.5076 305.087 27.0977 277.257 27.0977 173.151C27.0977 129.032 37.403 248.426 170.961 248.426C304.52 248.426 314.825 129.032 314.825 173.151Z" fill="black"/>
<path d="M76.252 152.633C76.252 133.303 91.922 117.633 111.252 117.633H230.672C250.002 117.633 265.672 133.303 265.672 152.633V169.565C265.672 180.61 256.718 189.565 245.672 189.565H96.252C85.2063 189.565 76.252 180.61 76.252 169.565V152.633Z" fill="#1B2D4A"/>
<path d="M87.041 151.746C87.041 139.527 96.9465 129.621 109.165 129.621H232.757C244.976 129.621 254.882 139.527 254.882 151.746V151.746C254.882 158.728 249.222 164.388 242.239 164.388H99.6836C92.7013 164.388 87.041 158.728 87.041 151.746V151.746Z" fill="#233654"/>
<circle cx="218.917" cy="157.194" r="15.483" stroke="white" stroke-width="5"/>
<circle cx="123.006" cy="157.194" r="15.483" stroke="white" stroke-width="5"/>
<path d="M316.025 132.017V44.5" stroke="#1B2D4A" stroke-width="4" stroke-linecap="round"/>
<circle cx="316.025" cy="44.5011" r="9.59091" fill="#1B2D4A"/>
<path d="M27.0996 132.017V44.5" stroke="#1B2D4A" stroke-width="4" stroke-linecap="round"/>
<circle cx="27.0987" cy="44.5011" r="9.59091" fill="#1B2D4A"/>
</svg>
