<svg width="150" height="150" viewBox="0 0 150 150" fill="none" xmlns="http://www.w3.org/2000/svg">
<path d="M78.378 149C97.7852 149 113.518 147.327 113.518 145.264C113.518 143.2 97.7852 141.527 78.378 141.527C58.9709 141.527 43.2383 143.2 43.2383 145.264C43.2383 147.327 58.9709 149 78.378 149Z" fill="#C7D1EA"/>
<path d="M67.0825 137.079C64.9921 133.966 62.1008 131.208 61.5225 127.293C60.8552 124.135 61.3 120.621 62.8125 117.819C64.3694 115.017 60.1438 112.615 58.5869 115.417C55.7844 121.066 56.2739 128.138 59.5652 133.432C59.9883 134.184 60.9465 135.581 62.0451 136.821C59.1598 137.931 56.3324 140.251 57.03 141.75C59.0761 144.596 68.1056 139.703 67.0825 137.079Z" fill="#332E25"/>
<path d="M57.0287 141.749C57.2065 142.104 57.5626 142.371 58.0961 142.46C57.6957 140.592 61.0765 138.635 62.9891 137.701C63.7452 137.345 64.2791 137.123 64.2791 137.123C64.2791 137.123 64.0121 136.856 63.5673 136.366C62.2774 134.899 59.4752 131.74 58.8525 129.072C57.2956 122.844 59.2973 120.487 59.2973 120.487L57.4735 118.396C56.05 123.423 56.8508 129.027 59.6086 133.431C60.3204 134.632 61.2099 135.744 62.0995 136.812C61.7438 136.945 61.3878 137.079 61.0321 137.256C58.2743 138.546 56.4504 140.592 57.0287 141.749Z" fill="#3F3A31"/>
<path d="M59.3844 143.097C58.1586 143.097 57.2354 142.712 56.7091 141.98C56.6949 141.96 56.6823 141.938 56.6719 141.916C56.4733 141.489 56.479 141.009 56.6889 140.49C57.3009 138.975 59.459 137.505 61.3892 136.665C60.4402 135.536 59.6192 134.334 59.221 133.626C55.8091 128.139 55.4178 120.917 58.2332 115.243C58.7526 114.307 59.5698 113.792 60.5425 113.776C60.5579 113.776 60.5733 113.775 60.5884 113.775C61.6212 113.775 62.6285 114.347 63.1649 115.242C63.6764 116.096 63.673 117.079 63.1552 118.011C61.773 120.572 61.3181 123.932 61.9086 127.225C62.4677 130.343 65.9454 135.23 66.9977 136.653C67.5734 137.432 67.6169 138.479 67.1063 139.259C65.8308 141.208 62.2127 143.037 59.5153 143.096C59.4713 143.097 59.4275 143.097 59.3844 143.097ZM57.3714 141.551C57.8662 142.204 58.7961 142.326 59.4983 142.309C61.9348 142.256 65.312 140.564 66.4481 138.828C66.7792 138.322 66.7459 137.636 66.365 137.12C64.9831 135.251 61.7072 130.56 61.134 127.363C60.5123 123.898 60.9973 120.352 62.4648 117.632C62.8429 116.952 62.8508 116.249 62.49 115.646C62.0994 114.995 61.3379 114.562 60.5875 114.562C60.5768 114.562 60.5664 114.562 60.5557 114.562C60.0747 114.57 59.4023 114.758 58.9298 115.608C56.2416 121.028 56.6184 127.949 59.8984 133.224C60.3353 134 61.2787 135.364 62.3386 136.561C62.4242 136.657 62.457 136.79 62.4264 136.915C62.3959 137.04 62.3059 137.143 62.1853 137.189C59.9485 138.049 57.8993 139.595 57.4189 140.785C57.298 141.083 57.2823 141.335 57.3714 141.551Z" fill="#2D1D1D"/>
<path opacity="0.5" d="M67.7739 86.8581C72.2044 81.6569 66.4689 69.4953 54.9631 59.6943C43.4574 49.8934 30.5386 46.1645 26.1081 51.3657C21.6776 56.5668 27.4132 68.7284 38.9189 78.5294C50.4246 88.3303 63.3434 92.0592 67.7739 86.8581Z" fill="#B9D3F9"/>
<path d="M61.5217 89.618C59.8313 89.618 57.9187 89.3066 55.7836 88.7284C50.268 87.1271 44.1741 83.6576 38.525 78.8537C32.9203 74.0941 28.4725 68.5785 26.026 63.4189C23.5351 58.1259 23.4016 53.7668 25.6703 51.0977C27.9389 48.429 32.2533 47.8951 37.9024 49.4964C43.418 51.0977 49.5119 54.5672 55.1609 59.3711C60.7656 64.1306 65.2135 69.6463 67.66 74.8059C70.1508 80.0989 70.2843 84.458 68.0157 87.1271C66.6369 88.7728 64.3683 89.618 61.5217 89.618ZM32.2089 49.4073C29.629 49.4073 27.6273 50.1634 26.382 51.6313C24.3359 54.0334 24.5138 58.0808 26.8712 63.0182C29.2733 68.089 33.6324 73.4712 39.148 78.186C50.4461 87.8385 63.123 91.5746 67.3934 86.5485C69.4394 84.1464 69.2616 80.0989 66.9042 75.1616C64.5021 70.0907 60.143 64.7086 54.6274 59.9938C49.1118 55.279 43.107 51.8538 37.7248 50.2969C35.6784 49.7186 33.8546 49.4073 32.2089 49.4073Z" fill="#B9D3F9"/>
<path d="M67.7049 87.2601C67.5715 87.2601 67.4824 87.2157 67.3936 87.1266C67.2158 86.9041 49.8681 66.4432 33.01 56.9242C32.7874 56.7907 32.743 56.5685 32.8321 56.3459C32.9656 56.1234 33.1878 56.079 33.4104 56.1681C50.402 65.7758 67.8384 86.3705 68.0162 86.593C68.1497 86.7709 68.1497 87.0378 67.9719 87.2157C67.8831 87.2157 67.794 87.2601 67.7049 87.2601Z" fill="#B9D3F9"/>
<path opacity="0.5" d="M47.43 92.9706C62.5281 92.5083 74.5981 86.6008 74.3891 79.7758C74.1802 72.9507 61.7714 67.7926 46.6734 68.2549C31.5753 68.7171 19.5053 74.6246 19.7143 81.4496C19.9232 88.2747 32.332 93.4328 47.43 92.9706Z" fill="#B9D3F9"/>
<path d="M45.5518 93.489C38.8797 93.489 32.6524 92.4215 27.8041 90.3755C22.422 88.1068 19.3529 84.9489 19.2638 81.4794C19.1747 78.0099 21.9772 74.6738 27.2259 72.0938C32.3858 69.5586 39.2801 68.046 46.6196 67.8238C54.0034 67.6012 60.9425 68.669 66.2355 70.8929C71.6177 73.1616 74.6868 76.3195 74.7759 79.789C74.865 83.2585 72.0625 86.5946 66.8138 89.1746C61.6539 91.7098 54.7595 93.2224 47.4201 93.4446C46.7971 93.489 46.1745 93.489 45.5518 93.489ZM48.5766 68.6687C47.9539 68.6687 47.331 68.6687 46.7084 68.7131C39.458 68.9356 32.6971 70.4035 27.6707 72.8943C22.7333 75.2964 20.0646 78.3656 20.1533 81.4791C20.3759 88.0621 32.608 93.0442 47.4201 92.5994C54.6704 92.3768 61.4313 90.909 66.4578 88.4181C71.3951 86.016 74.0639 82.9469 73.9751 79.8334C73.7969 73.517 62.5435 68.6687 48.5766 68.6687Z" fill="#B9D3F9"/>
<path d="M26.8697 82.1882C26.6472 82.1882 26.4693 82.0547 26.4693 81.8325C26.4249 81.61 26.5584 81.3877 26.825 81.3433C52.9353 76.5394 74.286 79.3863 74.5082 79.3863C74.7308 79.4307 74.9086 79.6533 74.8639 79.8755C74.8195 80.098 74.6414 80.2759 74.3747 80.2312C74.1522 80.1868 52.9349 77.3843 26.9582 82.1882C26.9144 82.1882 26.8697 82.1882 26.8697 82.1882Z" fill="#B9D3F9"/>
<path opacity="0.5" d="M124.584 98.0689C126.662 91.5649 116.683 82.5648 102.295 77.9665C87.9061 73.3681 74.5569 74.913 72.4784 81.4169C70.3998 87.9209 80.3791 96.921 94.7677 101.519C109.156 106.118 122.505 104.573 124.584 98.0689Z" fill="#B9D3F9"/>
<path d="M110.461 104.61C105.612 104.61 100.141 103.676 94.67 101.941C87.6422 99.7171 81.4592 96.3364 77.1892 92.5111C72.8301 88.5968 71.051 84.5937 72.1184 81.302C73.1858 77.966 76.9667 75.7864 82.7939 75.1191C88.4874 74.4517 95.4708 75.3416 102.499 77.5656C109.527 79.7895 115.71 83.1703 119.98 86.9955C124.339 90.9098 126.118 94.9132 125.051 98.2046C123.983 101.541 120.202 103.72 114.375 104.388C113.085 104.521 111.795 104.61 110.461 104.61ZM86.6191 75.6973C85.2848 75.6973 84.0392 75.7864 82.7939 75.9199C77.3227 76.5425 73.8088 78.5442 72.8748 81.5246C71.9409 84.5049 73.6309 88.1967 77.7231 91.8441C81.9043 95.625 87.9982 98.8719 94.8925 101.096C109.037 105.633 122.159 104.165 124.205 97.8936C126.207 91.6219 116.332 82.8146 102.187 78.322C96.7605 76.6316 91.3783 75.6973 86.6191 75.6973Z" fill="#B9D3F9"/>
<path d="M111.572 94.6455C111.483 94.6455 111.438 94.6455 111.349 94.6011C111.172 94.512 91.5556 83.9703 72.7845 80.9455C72.562 80.9012 72.3841 80.6786 72.4288 80.4564C72.4732 80.2338 72.6957 80.056 72.918 80.1007C91.8669 83.1698 111.572 93.7563 111.794 93.8453C112.017 93.9788 112.061 94.201 111.972 94.4236C111.839 94.5564 111.705 94.6455 111.572 94.6455Z" fill="#B9D3F9"/>
<path opacity="0.5" d="M107.012 89.9548C120.766 83.6994 129.624 73.588 126.796 67.3705C123.969 61.1529 110.526 61.1837 96.7718 67.4391C83.0173 73.6946 74.1595 83.8059 76.9872 90.0235C79.8149 96.241 93.2573 96.2103 107.012 89.9548Z" fill="#B9D3F9"/>
<path d="M87.8628 95.0908C82.0359 95.0908 78.0325 93.356 76.6094 90.1978C75.1859 87.0396 76.4759 82.8583 80.3458 78.4548C84.1267 74.1401 89.9092 70.0923 96.5813 67.0232C103.298 63.9541 110.148 62.3084 115.886 62.2637H115.93C121.757 62.2637 125.761 63.9984 127.184 67.1567C128.607 70.3149 127.317 74.4961 123.447 78.8996C119.666 83.2143 113.884 87.2621 107.212 90.3312C100.495 93.4004 93.6454 95.0461 87.9072 95.0908C87.8628 95.0908 87.8628 95.0908 87.8628 95.0908ZM115.93 63.1092H115.886C110.281 63.1092 103.564 64.7996 96.9367 67.7796C90.3537 70.76 84.6599 74.7631 80.9681 78.9887C77.3652 83.1253 76.0752 86.9508 77.3651 89.7974C78.6551 92.6443 82.3916 94.2009 87.8625 94.2009H87.9069C93.5116 94.2009 100.228 92.5105 106.856 89.5305C120.378 83.3922 129.14 73.5175 126.427 67.5124C125.093 64.6658 121.401 63.1092 115.93 63.1092Z" fill="#B9D3F9"/>
<path d="M76.9663 90.4212C76.8328 90.4212 76.6994 90.3768 76.6106 90.2434C76.4771 90.0655 76.4771 89.7986 76.6997 89.6651C93.38 76.6769 114.063 71.0278 114.286 70.9831C114.508 70.9387 114.731 71.0722 114.82 71.2944C114.864 71.517 114.731 71.7392 114.508 71.8283C114.286 71.8727 93.7804 77.4774 77.2336 90.3768C77.1442 90.4212 77.0554 90.4212 76.9663 90.4212Z" fill="#B9D3F9"/>
<path d="M49.9559 94.9111C48.2655 113.281 64.1006 134.988 83.8056 131.697C84.5174 131.563 85.2291 131.43 85.9408 131.252C88.6542 130.54 91.2339 129.25 93.4134 127.471C94.9256 126.225 96.2603 124.713 97.3277 123.023C102.399 114.794 101.553 103.451 97.1052 95.0889C95.6374 92.4202 92.3457 86.0594 89.7657 81.0329C87.9866 77.519 86.5188 74.6278 86.2962 74.0939L58.2734 67.5996C57.9177 67.8222 56.8055 70.1796 55.5156 73.4709C52.9362 80.0099 49.6446 90.3294 49.9559 94.9111Z" fill="#F9C710"/>
<path d="M49.9131 95.5795C48.6675 113.772 64.3694 134.945 83.8072 131.653C71.486 130.942 59.4318 120.8 56.0957 106.477C52.7597 92.0209 59.4318 77.387 59.4318 77.387L55.5175 73.4727C53.071 79.7891 49.9128 89.4856 49.9128 94.3342C49.9575 94.7343 49.9131 95.1791 49.9131 95.5795Z" fill="#F8A01F"/>
<path d="M93.4131 127.473C94.9253 126.228 96.26 124.715 97.3274 123.025C102.398 114.796 101.553 103.453 97.1048 95.0911C95.637 92.4224 92.3453 86.0616 89.7654 81.0352L84.6055 81.7025C84.6055 81.7025 92.7454 92.6893 96.304 105.544C99.7736 118.088 93.7244 126.984 93.4131 127.473Z" fill="#FFD95F"/>
<path d="M79.8906 132.408C73.7967 132.408 67.7919 130.095 62.5433 125.602C53.736 118.041 48.4873 105.719 49.5551 94.866C50.7116 83.8791 54.6259 74.4492 57.9175 67.4213C58.0066 67.2435 58.1845 67.1544 58.4067 67.1988L86.4296 73.6931C86.563 73.7374 86.6521 73.8265 86.7409 73.96C87.2747 75.25 94.9699 90.329 97.5052 94.9103C102.398 104.162 102.487 115.549 97.7277 123.289C95.2368 127.381 90.9665 130.45 86.1182 131.651C83.9831 132.141 81.9367 132.408 79.8906 132.408ZM50.3999 94.9551C49.3769 105.542 54.4921 117.596 63.0768 124.98C69.8824 130.807 77.9333 132.853 85.851 130.807C90.5214 129.606 94.5692 126.714 96.9713 122.8C102.309 114.171 100.708 102.739 96.7043 95.3111C94.2579 90.9076 87.0075 76.7181 85.9845 74.4942L58.4955 68.1334C55.2929 74.983 51.5121 84.2351 50.3999 94.9551Z" fill="#2D1D1D"/>
<path d="M71.3587 124.688C71.5514 124.236 72.349 124.143 73.1398 124.48C73.9305 124.818 74.4156 125.458 74.2226 125.909C74.03 126.361 73.2323 126.454 72.4416 126.117C71.6509 125.779 71.1658 125.14 71.3587 124.688Z" fill="#F4B503"/>
<path d="M75.6566 126.777C75.9176 126.36 76.7197 126.393 77.4484 126.849C78.1771 127.306 78.5564 128.013 78.2954 128.43C78.0345 128.846 77.2324 128.813 76.504 128.357C75.775 127.9 75.3957 127.193 75.6566 126.777Z" fill="#F4B503"/>
<path d="M72.9963 127.381C72.8184 127.692 73.0854 128.181 73.6189 128.537C74.1528 128.848 74.731 128.893 74.9089 128.581C75.0867 128.27 74.8198 127.781 74.2862 127.425C73.7968 127.069 73.2185 127.069 72.9963 127.381Z" fill="#F4B503"/>
<path d="M57.2964 82.4764C50.8912 85.1898 39.3261 92.7959 37.8583 99.9128C37.8583 99.9128 39.2817 99.8684 39.9935 99.6903C42.9291 99.2899 42.9738 103.16 40.1713 103.471C31.4531 105.117 33.5436 96.3098 37.3691 92.0395C42.0395 85.99 48.356 81.3196 55.2059 78.0279C58.275 76.6941 60.2764 81.142 57.2964 82.4764Z" fill="#332E25"/>
<path d="M37.9647 100.438C37.6527 100.341 37.4324 100.044 37.4261 99.7177C37.3745 97.1047 43.7847 87.5552 57.1607 82.122C57.3833 82.0329 57.6499 82.122 57.739 82.3446C57.8281 82.5671 57.739 82.8338 57.5164 82.9228C51.772 85.3347 40.6104 92.4412 38.5637 99.2232C38.4189 99.7033 39.1917 99.2906 39.1917 99.2906C39.5896 99.2538 39.6396 99.4064 39.9909 99.3362C40.2135 99.2918 40.4357 99.4253 40.5248 99.6475C40.5692 99.8701 39.6091 100.177 39.3869 100.266C39.3869 100.266 38.5864 100.63 37.9647 100.438Z" fill="#2D1D1D"/>
<path d="M41.5497 102.894C41.9054 102.894 42.2614 102.894 42.6618 102.894C41.7723 103.294 40.8827 103.472 40.2154 103.472C39.7262 103.606 39.1032 103.695 38.3471 103.695C36.3901 103.872 34.1659 102.494 34.0324 100.359C33.7655 97.2004 35.7228 94.3982 37.4128 92.0407C39.4589 89.4164 41.8163 87.0143 44.3519 84.9238L44.441 86.7921C44.441 86.7921 37.4576 92.7525 36.3454 97.3785C35.5446 100.715 36.0706 102.755 38.6506 103.289C39.4514 103.422 40.3932 102.849 41.5497 102.894Z" fill="#3F3A31"/>
<path d="M38.6591 104.049C37.2356 104.049 35.9904 103.693 35.1005 102.982C34.2553 102.314 33.7214 101.38 33.6326 100.357C33.3213 97.0213 35.4118 94.0857 37.1022 91.7726C41.5503 86.0345 47.7777 81.1862 55.1168 77.6279C55.3394 77.5388 55.606 77.6279 55.6951 77.8504C55.7842 78.073 55.6951 78.3396 55.4725 78.4287C48.2222 81.8982 42.1283 86.7021 37.7692 92.3068C36.1679 94.5308 34.2106 97.2886 34.4775 100.313C34.5219 101.114 34.9223 101.826 35.5896 102.315C36.6571 103.16 38.3031 103.382 40.2601 103.027C40.4826 102.982 40.7048 103.116 40.7492 103.382C40.7936 103.605 40.6601 103.827 40.3935 103.872C39.8156 104.005 39.1929 104.049 38.6591 104.049Z" fill="#2D1D1D"/>
<path d="M71.9297 130.673C72.9527 131.029 74.0202 131.341 75.0879 131.563C77.8901 132.141 80.8261 132.186 83.8505 131.652C84.0283 131.786 84.2062 131.875 84.3844 131.963C87.943 134.054 91.1456 135.255 93.6364 136.011C96.839 136.945 98.8407 137.079 98.8407 137.079C95.2821 135.122 92.9694 130.629 92.213 129.072C92.0351 128.716 91.9904 128.538 91.9904 128.538C95.0152 126.492 97.1947 123.734 98.6625 120.576C98.5291 120.71 91.8123 130.762 71.9297 130.673Z" fill="#332E25"/>
<path d="M92.2115 129.074C92.2115 129.163 91.4998 133.344 93.635 136.013C96.8376 136.947 98.8393 137.081 98.8393 137.081C95.2807 135.079 92.9676 130.631 92.2115 129.074Z" fill="#3F3A31"/>
<path d="M98.408 137.399C96.542 137.009 89.1314 135.181 83.8069 132.096C79.7591 132.763 75.7648 132.418 71.8505 131.039C71.6727 130.95 71.4857 130.806 71.5301 130.584C71.5744 130.361 71.7526 130.228 71.9305 130.228C71.9748 130.228 72.0639 130.228 72.153 130.228C91.5467 130.228 98.2632 120.353 98.3076 120.264C98.4411 120.086 98.6633 119.997 98.8859 120.131C99.0637 120.22 99.1528 120.486 99.0637 120.665C97.5515 123.956 95.372 126.669 92.5695 128.627C93.1291 129.832 95.3483 134.384 98.7574 136.49C98.9551 136.612 99.0489 136.849 98.9762 137.069C98.8975 137.308 98.6542 137.451 98.408 137.399ZM97.6236 136.521C94.2875 133.807 91.8137 129.25 91.5911 128.76C91.502 128.582 91.5467 128.315 91.7246 128.226C93.5928 126.981 95.1497 125.424 96.4394 123.6C93.1924 126.447 86.5203 130.584 74.733 131.117C77.6208 131.764 80.6613 131.705 83.5994 131.214C83.7952 131.182 83.9939 131.209 84.1714 131.298C85.5527 131.982 91.615 135.161 97.6236 136.521Z" fill="#2D1D1D"/>
<path d="M49.9545 94.9116C49.8211 97.0021 49.8211 99.0928 49.9989 101.139C50.1324 102.785 50.4437 104.475 50.8885 106.165C50.8885 106.165 76.2426 106.966 93.3677 97.4472C94.6577 96.7354 95.8585 95.9793 97.0594 95.1341C96.4368 93.9776 95.8138 92.8211 95.2356 91.709C95.2356 91.709 93.9012 92.3763 91.4104 93.2212C84.872 95.4007 70.06 98.9147 49.9545 94.9116Z" fill="#332E25"/>
<path d="M91.457 93.1785C91.457 93.1785 92.6579 95.5807 93.414 97.4042C94.704 96.6925 95.9049 95.9364 97.1058 95.0912C96.4832 93.9347 95.8602 92.7781 95.2819 91.666C95.2823 91.7107 93.9479 92.3334 91.457 93.1785Z" fill="#3F3A31"/>
<path d="M51.9122 106.701C51.3339 106.701 51.0226 106.701 50.9782 106.701C50.8004 106.701 50.6225 106.568 50.5778 106.39C50.2221 104.922 49.777 102.787 49.5992 101.186C49.4213 99.1839 49.3766 97.0935 49.5548 94.9139C49.5548 94.7804 49.6439 94.6913 49.7326 94.6026C49.8214 94.5138 49.9552 94.5135 50.0883 94.5135C77.3104 99.94 94.9249 91.4443 95.1028 91.3553C95.3253 91.2662 95.5476 91.3553 95.681 91.5331C96.2593 92.6452 96.8819 93.7571 97.5049 94.9136C97.594 95.0914 97.5493 95.3584 97.3714 95.4474C82.2033 106.123 57.0718 106.701 51.9122 106.701ZM51.3339 105.856C54.5809 105.9 80.869 105.812 96.5262 94.9583C96.0371 94.0243 95.5476 93.1344 95.0584 92.2449C93.0567 93.1344 83.1376 97.1378 67.9252 97.1378C62.6765 97.1378 56.7605 96.6487 50.3553 95.4031C50.2662 97.3601 50.2662 99.273 50.4444 101.052C50.5778 102.52 50.9779 104.433 51.3339 105.856Z" fill="#2D1D1D"/>
<path d="M51.1328 86.326C73.4971 92.6279 91.6352 84.8163 91.6352 84.8163C88.3435 78.4111 86.253 74.1408 86.253 74.1408L63.8349 68.9365L58.2302 67.6465C58.2302 67.6465 56.6733 70.4043 54.9385 74.7634C53.9602 77.1655 52.0224 83.079 51.1328 86.326Z" fill="#332E25"/>
<path d="M51.0102 86.7663C50.9658 86.7663 50.9212 86.7663 50.8768 86.7663C50.6542 86.6772 50.5211 86.4549 50.6098 86.2324C53.2786 77.4698 57.8287 67.5113 57.8731 67.4223C57.9622 67.1997 58.2288 67.1109 58.4514 67.2444C58.6739 67.3335 58.7627 67.6001 58.6292 67.8226C58.5848 67.9117 54.079 77.7811 51.4103 86.4549C51.3663 86.6328 51.1881 86.7663 51.0102 86.7663Z" fill="#2D1D1D"/>
<path d="M95.7262 97.9372C95.4593 98.1151 95.4593 98.6933 95.7706 99.1828C96.0819 99.672 96.5711 99.9389 96.8827 99.7611C97.1497 99.5832 97.1497 99.005 96.8384 98.5155C96.4826 97.9819 95.9932 97.7594 95.7262 97.9372Z" fill="#F9C710"/>
<path d="M97.3266 100.783C97.0153 100.916 96.9262 101.45 97.1932 102.028C97.4157 102.562 97.8605 102.918 98.1718 102.784C98.4832 102.651 98.5722 102.117 98.3053 101.539C98.0831 100.96 97.6383 100.649 97.3266 100.783Z" fill="#F9C710"/>
<path d="M95.5934 100.074C95.3708 100.163 95.3264 100.563 95.5043 100.963C95.6821 101.364 95.9935 101.586 96.216 101.497C96.4386 101.408 96.4829 101.008 96.3051 100.608C96.1713 100.252 95.8156 99.9848 95.5934 100.074Z" fill="#F9C710"/>
<path d="M54.8047 115.595C56.6285 118.753 58.8969 121.733 61.5659 124.224C61.5659 124.224 83.2279 122.756 97.2395 111.458C98.4851 110.48 99.6416 109.412 100.753 108.256L100.131 103.496C100.131 103.496 99.1077 104.83 96.6169 106.61C91.2344 110.391 78.9576 116.218 54.8047 115.595Z" fill="#332E25"/>
<path d="M96.5703 106.61C96.5703 106.61 97.1042 108.7 97.2377 111.458C98.4833 110.48 99.6398 109.412 100.752 108.256L100.129 103.496C100.129 103.496 99.1059 104.831 96.5703 106.61Z" fill="#3F3A31"/>
<path d="M61.564 124.669C61.475 124.669 61.3415 124.624 61.2527 124.535C58.6284 122.044 56.3154 119.109 54.4027 115.817C54.3137 115.684 54.3137 115.506 54.4027 115.372C54.4918 115.239 54.6253 115.15 54.7585 115.15C72.9957 115.595 84.2491 112.348 90.4764 109.501C97.193 106.432 99.6838 103.273 99.7285 103.229C99.7729 103.185 99.7729 103.185 99.8176 103.14C99.9511 103.051 100.085 103.006 100.218 103.095C100.351 103.14 100.441 103.273 100.485 103.451L101.108 108.211V108.255C101.108 108.344 101.063 108.478 100.974 108.566C87.5408 122.756 61.8754 124.624 61.564 124.669ZM55.5593 116.039C57.294 118.931 59.3845 121.555 61.6975 123.779C64.0105 123.601 87.5852 121.288 100.262 108.122L99.7732 104.474C98.6611 105.631 95.9924 107.944 90.9216 110.257C84.7386 113.104 73.5739 116.395 55.5593 116.039Z" fill="#2D1D1D"/>
<path d="M85.8972 138.501C85.8846 138.489 85.8701 138.481 85.8569 138.469C85.855 138.465 85.854 138.461 85.8525 138.457C81.1377 133.742 77.9794 126.847 80.9151 120.308C83.1837 117.462 79.0025 114.037 77.0008 117.239C74.3321 122.977 74.9547 130.005 78.3799 135.254C79.0806 136.078 80.1064 137.734 81.2667 139.038C78.5788 140.766 76.1625 144.036 77.2233 145.396C79.0472 147.798 87.5428 140.859 85.8972 138.501Z" fill="#332E25"/>
<path d="M83.7613 140.903C82.2044 142.86 79.0465 145.173 77.2227 145.351C78.0678 146.374 80.6478 145.618 83.0052 143.661C85.2738 141.793 86.4747 139.524 85.8965 138.456C85.8074 138.234 85.6739 138.012 85.4517 137.834C84.1617 136.588 83.0496 135.209 82.16 133.742C81.2704 132.318 80.6031 130.717 80.203 129.071C79.5357 126.18 79.8026 123.022 80.9591 120.309C80.87 120.442 77.8009 125.112 78.7352 129.249C79.5804 132.941 82.2047 136.277 83.8504 137.923C84.0729 138.146 84.2952 138.324 84.473 138.501C84.9622 138.946 84.6065 139.88 83.7613 140.903Z" fill="#3F3A31"/>
<path d="M78.3627 146.29C77.7668 146.29 77.2591 146.097 76.91 145.637C76.6115 145.254 76.5102 144.755 76.6125 144.156C76.8791 142.59 78.5953 140.417 80.6785 138.962C80.0959 138.268 79.5585 137.517 79.0763 136.843C78.9239 136.629 78.7776 136.426 78.6387 136.236C77.6576 134.893 76.921 133.601 76.3874 132.285C74.3986 127.385 74.4943 121.699 76.6437 117.076C76.6506 117.062 76.6585 117.048 76.667 117.034C77.3053 116.012 78.2163 115.492 79.2375 115.566C80.2932 115.643 81.2662 116.358 81.717 117.388C82.1681 118.419 81.999 119.557 81.2543 120.517C78.7898 126.061 80.6102 132.661 86.1302 138.182C86.1378 138.189 86.145 138.197 86.1516 138.205C86.1567 138.209 86.1608 138.213 86.1646 138.216C86.185 138.235 86.2036 138.256 86.2196 138.279C87.4149 139.991 84.6514 142.942 82.5021 144.507C81.1554 145.488 79.5765 146.29 78.3627 146.29ZM77.3469 117.431C75.298 121.855 75.2114 127.295 77.1165 131.989C77.6255 133.244 78.3315 134.481 79.2743 135.771C79.414 135.963 79.5617 136.17 79.7159 136.385C80.2668 137.155 80.891 138.027 81.5602 138.779C81.6367 138.865 81.6717 138.981 81.6562 139.095C81.6408 139.208 81.576 139.31 81.479 139.372C79.4298 140.689 77.6327 142.848 77.3875 144.288C77.3242 144.66 77.3733 144.951 77.5329 145.157C78.1096 145.916 79.9608 145.384 82.0387 143.871C84.5164 142.066 86.156 139.709 85.6011 138.772C85.5973 138.769 85.5945 138.766 85.5923 138.764C85.5706 138.745 85.551 138.722 85.534 138.699C79.7899 132.931 77.9286 126.001 80.5555 120.15C80.569 120.12 80.5863 120.092 80.6068 120.066C81.4057 119.063 81.1932 118.156 80.9952 117.704C80.6653 116.949 79.9356 116.406 79.1792 116.35C78.6771 116.314 77.9547 116.472 77.3469 117.431Z" fill="#2D1D1D"/>
<path d="M104.641 110.311C102.017 110.178 92.8097 105.596 93.1654 102.705C93.4324 101.459 95.0781 100.837 96.0567 101.682C98.948 103.595 102.017 106.397 105.576 106.308C105.576 106.308 105.52 106.226 105.52 106.181L105.62 106.264C105.099 98.1246 94.4554 87.9819 87.6945 83.6228C84.9811 81.8437 87.828 78.8633 90.5414 80.6425C98.8148 86.3807 107.088 93.3641 109.624 103.461C110.513 107.019 108.823 110.756 104.641 110.311Z" fill="#332E25"/>
<path d="M105.821 106.592C104.325 107.561 97.835 103.552 96.1893 102.35C96.0115 102.217 95.9668 101.95 96.1003 101.772C96.2337 101.594 96.5007 101.55 96.6785 101.683C99.7816 104.262 103.906 105.948 105.151 105.859C104.555 99.3634 96.4563 90.6518 92.0972 87.271C90.6294 86.1145 89.1168 85.047 87.4711 84.024C87.2933 83.8905 87.2042 83.6236 87.3377 83.4458C87.4711 83.2679 87.7381 83.1788 87.9159 83.3123C89.5616 84.3353 91.1185 85.4474 92.5863 86.604C103.832 95.3933 106.772 105.975 105.821 106.592Z" fill="#2D1D1D"/>
<path d="M46.3831 117.413L89.8406 121.084C91.9896 121.277 93.9051 119.657 94.099 117.509L94.2035 116.166L96.3084 91.2375C96.5023 89.0884 94.8821 87.173 92.7334 86.9791L51.6468 83.4904L49.2759 83.3087C47.1269 83.1148 45.2114 84.735 45.0175 86.8837L42.8084 113.155C42.6167 115.348 44.234 117.22 46.3831 117.413Z" fill="#C7D1EA"/>
<path d="M53.0711 112.721L94.1577 116.21L94.2323 115.136L96.2623 91.2806C96.4562 89.1316 94.8361 87.2162 92.6873 87.0222L52.943 83.6377L51.6007 83.5332L49.4958 108.462C49.3047 110.656 50.9221 112.527 53.0711 112.721Z" fill="#E6ECFF"/>
<path d="M52.9883 83.6367L91.7751 91.4839L94.3195 115.088L96.3495 91.2327C96.5434 89.0837 94.9232 87.1683 92.7745 86.9744L52.9883 83.6367Z" fill="#F5F8FF"/>
<path d="M90.1926 121.521C90.0629 121.521 89.9326 121.515 89.801 121.504L46.346 117.833C46.3453 117.833 46.3444 117.833 46.3438 117.833C43.9517 117.618 42.1754 115.501 42.3838 113.115L44.5929 86.8451C44.6971 85.6895 45.2461 84.6406 46.1388 83.8893C47.0344 83.136 48.1616 82.7806 49.3131 82.8823L51.6784 83.0636L92.7684 86.5526C95.1693 86.7692 96.9459 88.8864 96.7309 91.2725L94.6256 116.199L94.5215 117.539C94.3159 119.81 92.4143 121.521 90.1926 121.521ZM46.4174 116.986L89.8746 120.657C91.8017 120.833 93.5 119.4 93.6741 117.467L93.7782 116.13L95.8835 91.1988C96.0566 89.2771 94.6256 87.5735 92.6935 87.3994L51.6091 83.9107L49.2416 83.7294C48.3115 83.6447 47.4058 83.9333 46.6853 84.5399C45.9651 85.1459 45.5225 85.9904 45.4391 86.919L43.2299 113.188C43.0625 115.109 44.4922 116.812 46.4174 116.986Z" fill="#8196C9"/>
<path d="M96.902 104.217C94.1886 106.886 87.5612 100.658 87.8281 98.1673C89.296 94.4312 97.9698 101.192 96.902 104.217Z" fill="#332E25"/>
<path d="M104.639 110.312C101.525 109.956 98.7674 108.132 96.2318 106.398C95.5645 105.864 94.5415 105.285 93.8297 104.574C92.9402 104.218 91.9171 103.64 90.9385 102.883C88.9368 101.326 87.7359 99.4138 87.8249 98.2129C87.8249 97.9903 87.914 97.7681 88.0475 97.5903C88.3588 97.2345 88.848 97.0564 89.5153 97.1455C89.5153 97.1455 88.848 99.5476 93.1183 102.705C93.83 103.239 94.6305 103.773 95.6536 104.351C95.6536 104.351 95.8761 104.529 96.3209 104.84C98.1448 106.175 103.304 109.6 106.685 108.888C110.821 107.999 108.064 99.8142 104.149 94.6543C101.169 90.6956 96.5875 85.7135 94.6302 83.623C101.391 88.783 107.53 95.0547 109.665 103.462C110.51 107.02 108.82 110.757 104.639 110.312Z" fill="#3F3A31"/>
<path d="M44.7058 101.783C43.0601 102.761 39.9019 104.674 38.6563 102.628C38.4338 99.692 42.971 96.8007 45.6842 96.2225C49.9545 95.5552 48.1753 99.5586 44.7058 101.783Z" fill="#332E25"/>
<path d="M39.0901 103.891C38.8676 103.891 38.6145 103.871 38.6145 103.604C38.6145 103.381 38.8751 103.169 39.1421 103.169C40.2542 103.169 42.9736 102.403 44.4858 101.38C45.6867 100.58 46.621 99.6453 47.2436 98.7113C47.7328 97.9108 47.9109 97.2435 47.644 96.8875C47.5996 96.8431 47.5996 96.7984 47.5549 96.7984C47.2436 96.5315 46.5763 96.4427 45.7758 96.6206C45.5088 96.6649 45.1975 96.754 44.8862 96.8431C44.041 97.11 43.1514 97.5992 42.3062 98.1331C41.4167 98.7557 39.9595 99.6274 39.4257 100.25C39.4257 100.25 38.5018 100.2 38.3239 100.066C38.1461 99.8886 38.8981 99.6384 39.0316 99.4605C39.6098 98.7932 40.8828 98.0443 41.8171 97.4217C42.7066 96.799 43.6853 96.3096 44.5749 95.9982C44.9306 95.8648 45.2422 95.7757 45.5535 95.7313C46.6657 95.5087 47.5552 95.6422 48.0888 96.1317C48.1779 96.2208 48.2666 96.3095 48.3113 96.3986C48.7561 97.066 48.6227 98.0443 47.9109 99.1564C47.2436 100.179 46.2206 101.203 44.9306 102.048C43.2405 103.293 40.313 104.04 39.0675 104.04L39.0901 103.891Z" fill="#2D1D1D"/>
<path d="M105.264 110.756C105.041 110.756 104.819 110.756 104.596 110.712C101.483 110.356 98.7249 108.621 96.0115 106.753C95.3442 106.219 94.3211 105.508 94.2768 105.508C94.0989 105.374 94.0098 105.107 94.1433 104.929C94.2768 104.752 94.5437 104.662 94.7215 104.796C94.7659 104.84 95.8337 105.508 96.5007 106.086C99.125 107.91 101.749 109.555 104.685 109.911C106.197 110.045 107.443 109.644 108.288 108.666C109.311 107.465 109.711 105.552 109.267 103.55C106.42 92.3412 95.6111 84.1122 89.4282 80.1979C89.2503 80.0644 89.1612 79.7974 89.2947 79.6196C89.4282 79.4417 89.6951 79.3526 89.873 79.4861C96.1894 83.4448 107.045 91.7686 109.98 103.289C110.514 105.558 110.201 107.776 108.955 109.199C108.021 110.267 106.776 110.756 105.264 110.756Z" fill="#2D1D1D"/>
<path d="M94.5 105.596C94.4556 105.596 94.3218 105.508 94.2775 105.508C92.3205 104.885 88.6731 102.127 87.6944 99.5916C87.3831 98.7464 87.3831 98.0347 87.6944 97.4121L87.7388 97.3677C88.0057 97.012 88.584 96.6116 89.7405 96.745C92.2314 97.0564 96.3981 100.03 97.3321 102.165C97.4212 102.388 98.55 102.958 98.3274 103.047C98.1049 103.136 96.8436 102.812 96.8436 102.812C96.0431 100.944 91.7863 97.8568 89.6067 97.5902C89.0285 97.5011 88.6281 97.5902 88.4058 97.8572C88.228 98.2129 88.228 98.7024 88.4502 99.2806C89.3398 101.505 92.877 104.18 94.6561 104.758C94.6561 104.758 94.9442 105.108 94.8554 105.33C94.856 105.463 94.7226 105.596 94.5 105.596Z" fill="#2D1D1D"/>
<path d="M57.0753 23.8143C56.9922 22.1114 56.814 20.3807 56.5918 18.6582C56.3695 16.9354 56.0598 15.2286 55.7063 13.5298C55.3528 11.8309 54.9118 10.1477 54.3832 8.48066C53.8547 6.81357 53.2466 5.20597 52.5071 3.6223C52.3639 3.33176 52.5194 2.94205 52.8096 2.79882C53.1002 2.65559 53.4383 2.77522 53.5815 3.06576C54.4163 4.67745 55.1639 6.30488 55.7799 7.95623C56.4038 9.65133 56.9843 11.3543 57.4332 13.0812C57.882 14.8081 58.3312 16.5347 58.6489 18.2855C58.9665 20.036 59.2841 21.7868 59.4349 23.6129C59.5101 24.2774 59.0285 24.8619 58.3643 24.9375C57.6998 25.0127 57.1152 24.5311 57.0397 23.8669C57.091 23.9018 57.0831 23.8581 57.0753 23.8143Z" fill="#332E25"/>
<path d="M84.2211 24.1793C84.7587 22.4089 85.3124 20.7264 85.9615 19.0716C86.6106 17.4168 87.3034 15.7541 88.0995 14.1629C88.8439 12.5361 89.7357 10.9726 90.6354 9.45312C91.535 7.93367 92.5738 6.43405 93.6724 5.01406C93.8952 4.74744 94.2453 4.68416 94.5119 4.90703C94.7703 5.08614 94.8418 5.47994 94.6627 5.73869C93.7032 7.17851 92.752 8.66209 91.9398 10.1658C91.1356 11.7133 90.3832 13.2963 89.7263 14.9074C89.0693 16.5184 88.464 18.1654 87.9462 19.7963C87.4284 21.4271 86.9266 23.1458 86.5479 24.7966L86.5558 24.8403C86.4044 25.5007 85.7518 25.8904 85.0914 25.739C84.431 25.5876 84.0413 24.9351 84.1927 24.2747C84.2289 24.223 84.2211 24.1793 84.2211 24.1793Z" fill="#332E25"/>
<path d="M58.234 25.3696C57.4203 25.3696 56.7155 24.75 56.6207 23.9143C56.6129 23.8435 56.6226 23.7736 56.6478 23.71C56.5713 22.2293 56.4161 20.5927 56.1734 18.7122C55.9754 17.1773 55.6877 15.5102 55.2933 13.6159C54.9442 11.9381 54.5029 10.2534 53.9813 8.60863C53.4288 6.86537 52.8216 5.29303 52.1253 3.80159C51.887 3.31777 52.1187 2.66712 52.6246 2.4175C52.8676 2.29725 53.1405 2.27961 53.3936 2.36806C53.6432 2.45494 53.8466 2.63627 53.9656 2.8777C54.8693 4.62223 55.5952 6.23707 56.181 7.80752C56.9424 9.87564 57.4562 11.4684 57.8474 12.974C58.2932 14.6893 58.7502 16.448 59.0697 18.2092C59.3842 19.9424 59.7087 21.7319 59.8611 23.5775C59.9603 24.4523 59.3121 25.2572 58.415 25.3595C58.3546 25.3661 58.2938 25.3696 58.234 25.3696ZM57.4958 23.9672C57.6041 24.3245 57.9419 24.5577 58.3196 24.5149C58.7584 24.4649 59.0644 24.0893 59.0159 23.6603C58.8654 21.843 58.5447 20.074 58.2346 18.3637C57.9202 16.6305 57.4672 14.8879 57.029 13.2023C56.6412 11.7102 56.135 10.1419 55.3843 8.10247C54.8114 6.56665 54.099 4.98202 53.2072 3.26079C53.178 3.20161 53.1408 3.17958 53.1141 3.17045C53.0883 3.16163 53.0483 3.15597 53.0004 3.17957C52.9069 3.22553 52.8582 3.36657 52.8912 3.43393C53.607 4.96724 54.2275 6.57325 54.7912 8.35178C55.3213 10.0239 55.7702 11.7366 56.1253 13.4427C56.5238 15.3585 56.8153 17.0467 57.0161 18.6033C57.2673 20.5502 57.4263 22.2409 57.5015 23.7714C57.5119 23.8466 57.5081 23.9115 57.4958 23.9672Z" fill="#2D1D1D"/>
<path d="M85.3782 26.1947C85.2513 26.1947 85.1229 26.1805 84.9957 26.1513C84.5651 26.0524 84.2022 25.7915 83.9739 25.4165C83.7492 25.047 83.6793 24.6069 83.7782 24.1776C83.7838 24.1524 83.7917 24.1281 83.8018 24.1049C83.8049 24.0875 83.8087 24.0705 83.8137 24.0539C84.4414 21.9873 84.9816 20.4021 85.5652 18.9144C86.1053 17.5372 86.8381 15.7307 87.7189 13.9708C88.476 12.3159 89.3923 10.7156 90.269 9.23484C91.1384 7.76701 92.1699 6.2589 93.3359 4.75203C93.7237 4.28773 94.3328 4.21469 94.7697 4.56724C95.2038 4.88203 95.3177 5.53646 95.0118 5.97873C94.1549 7.26399 93.1609 8.79635 92.3135 10.3659C91.4484 12.0304 90.7298 13.5697 90.1194 15.0659C89.4411 16.7298 88.8458 18.3639 88.351 19.923C87.7554 21.7978 87.3069 23.3982 86.9798 24.8119C86.9823 24.8525 86.9789 24.8934 86.97 24.9334C86.8715 25.3643 86.6103 25.7269 86.2353 25.9555C85.9747 26.1135 85.6797 26.1947 85.3782 26.1947ZM84.5963 24.4187C84.5635 24.6142 84.5994 24.81 84.6998 24.9749C84.8078 25.1521 84.9803 25.2758 85.1855 25.3228C85.3971 25.3715 85.6133 25.3382 85.7931 25.2289C85.9508 25.1329 86.0657 24.9859 86.1227 24.8103C86.1211 24.7731 86.1245 24.7357 86.133 24.6992C86.467 23.2436 86.9272 21.5973 87.5404 19.6652C88.0425 18.0846 88.6453 16.4292 89.3322 14.7445C89.9523 13.2238 90.6816 11.6612 91.5621 9.96735C92.4293 8.36133 93.4366 6.8085 94.3086 5.50058C94.3586 5.42787 94.3356 5.29975 94.2692 5.25379C94.2588 5.24655 94.2487 5.239 94.239 5.23082C94.1386 5.14645 94.0451 5.22829 93.9976 5.28432C92.8634 6.75089 91.8517 8.22975 91.0002 9.66736C90.1358 11.1283 89.2324 12.705 88.4854 14.3375C87.6135 16.0804 86.8904 17.864 86.3565 19.2245C85.7858 20.6785 85.257 22.2297 84.6429 24.2484C84.6372 24.2991 84.624 24.3573 84.5963 24.4187Z" fill="#2D1D1D"/>
<path d="M71.9441 82.5144C72.4512 82.5207 72.9901 82.4729 73.4862 82.4361C92.5957 81.5235 106.764 76.9758 105.852 57.8663C104.939 38.7571 85.7828 17.165 70.4372 17.8827C69.4885 17.945 68.5076 18.0615 67.5922 18.2528C67.1616 18.3646 66.7199 18.4332 66.3007 18.5878C51.8802 22.6957 38.19 43.6164 38.9905 61.0545C39.8549 79.6247 53.5986 83.183 71.9441 82.5144Z" fill="#F9C710"/>
<path d="M71.9445 82.5149C71.9445 82.5149 63.5181 82.4488 52.8936 77.8061C42.3122 73.1521 38.244 55.8724 45.8636 40.2481C53.4083 24.6894 66.1718 18.622 66.2577 18.5996C51.8372 22.7075 38.147 43.6283 38.9475 61.0663C39.8554 79.6252 53.5991 83.1835 71.9445 82.5149Z" fill="#F8A01F"/>
<path d="M71.9417 82.5144C72.4488 82.5207 72.9877 82.4729 73.4838 82.4361C92.5933 81.5235 106.762 76.9758 105.849 57.8663C104.937 38.7571 85.7805 17.165 70.4348 17.8827C69.4861 17.945 68.5052 18.0615 67.5898 18.2528C67.5898 18.2528 75.7496 16.2285 87.9918 28.1716C100.234 40.1148 104.627 55.1048 103.322 64.9552C101.963 74.7739 89.5519 80.4284 71.9417 82.5144Z" fill="#FFD95F"/>
<path d="M88.8748 80.8321C84.6983 81.9153 79.6338 82.5854 73.5084 82.8876C62.39 83.4278 54.6782 82.395 49.184 79.6384C42.4221 76.2454 38.9164 70.1701 38.4911 61.0899C37.5421 41.4846 54.5346 18.237 70.3763 17.4824C77.7312 17.1371 86.5007 21.8935 93.8452 30.1899C101.19 38.4866 105.844 48.8134 106.269 57.8936C106.705 67.0169 103.805 73.3752 97.3994 77.3802C95.1034 78.803 92.276 79.9501 88.8748 80.8321ZM66.8826 18.8942C60.6395 20.5135 54.081 25.5232 48.7729 32.8737C42.4842 41.5815 38.9737 52.1419 39.4084 61.082C39.8416 69.8386 43.1512 75.6892 49.5988 78.934C54.9303 81.5951 62.5021 82.6182 73.4798 82.0686C84.4688 81.5621 91.9191 79.8135 96.9405 76.6729C103.067 72.8322 105.84 66.6908 105.407 57.9342C104.983 49.0372 100.428 38.9144 93.2141 30.7678C86.0116 22.6641 77.5018 18.0245 70.4166 18.3456C69.273 18.366 68.0882 18.5813 66.8826 18.8942Z" fill="#A55A0F"/>
<path d="M90.8822 59.8547C93.563 58.749 94.2703 54.2988 92.4621 49.9147C90.654 45.5306 87.015 42.8729 84.3343 43.9785C81.6536 45.0842 80.9463 49.5345 82.7544 53.9185C84.5626 58.3026 88.2015 60.9603 90.8822 59.8547Z" fill="white"/>
<path d="M90.5634 60.4054C89.2287 60.7517 87.7042 60.3658 86.2273 59.2785C84.642 58.1274 83.2337 56.2408 82.3517 54.0802C80.4661 49.4683 81.2663 44.7576 84.1686 43.5454C85.6197 42.9391 87.3164 43.2803 89.0103 44.4954C90.5955 45.6465 92.0038 47.533 92.8858 49.6937C94.7714 54.3056 93.9712 59.0163 91.0689 60.2285C90.8649 60.327 90.7359 60.3607 90.5634 60.4054ZM84.8435 44.1973C84.7144 44.2306 84.585 44.2643 84.467 44.3408C82.0161 45.344 81.3736 49.6005 83.0933 53.7497C83.942 55.7813 85.2193 57.5176 86.6963 58.6052C88.1078 59.6178 89.524 59.9396 90.6849 59.4548C93.1358 58.4516 93.7783 54.1951 92.0586 50.0459C91.2099 48.0143 89.9326 46.278 88.4556 45.1904C87.2065 44.2735 85.9197 43.9181 84.8435 44.1973Z" fill="#A55A0F"/>
<path d="M89.6557 58.1298C91.3137 57.4459 91.7464 54.6817 90.622 51.9556C89.4977 49.2296 87.2422 47.5741 85.5841 48.2579C83.9261 48.9417 83.4935 51.706 84.6178 54.432C85.7421 57.1581 87.9977 58.8136 89.6557 58.1298Z" fill="#22213F"/>
<path d="M86.4555 50.764C86.6756 51.2582 87.2815 51.4688 87.8733 51.2695C88.4538 51.0272 88.7616 50.4417 88.5303 49.9043C88.3102 49.4101 87.7043 49.1995 87.1125 49.3988C86.532 49.6415 86.2355 50.2698 86.4555 50.764Z" fill="white"/>
<path d="M54.6601 53.1395C56.0725 48.6137 54.9742 44.2448 52.207 43.3812C49.4399 42.5177 46.0517 45.4865 44.6393 50.0123C43.227 54.5381 44.3253 58.9071 47.0924 59.7706C49.8596 60.6342 53.2477 57.6653 54.6601 53.1395Z" fill="white"/>
<path d="M49.1126 60.2206C48.3807 60.4105 47.6469 60.4171 46.9437 60.1857C43.9473 59.2628 42.6979 54.6238 44.1774 49.8747C45.6569 45.1256 49.3084 42.0187 52.3051 42.9416C55.3018 43.8646 56.5509 48.5035 55.0714 53.2526C53.9602 56.9416 51.5666 59.5842 49.1126 60.2206ZM50.3597 43.7679C48.2501 44.315 46.0926 46.8046 45.0324 50.1583C43.7109 54.4529 44.6968 58.6086 47.1955 59.3852C49.7487 60.1936 52.917 57.3498 54.2388 53.0552C55.5602 48.7607 54.5744 44.6049 52.0756 43.8283C51.5125 43.6067 50.9622 43.6118 50.3597 43.7679Z" fill="#A55A0F"/>
<path d="M53.4415 53.6617C54.3196 50.8477 53.6438 48.1335 51.932 47.5993C50.2201 47.0651 48.1205 48.9132 47.2424 51.7271C46.3642 54.5411 47.0401 57.2553 48.7519 57.7895C50.4637 58.3238 52.5633 56.4757 53.4415 53.6617Z" fill="#22213F"/>
<path d="M51.0242 50.7624C51.1583 51.2789 51.7866 51.5755 52.3894 51.4193C52.9922 51.2629 53.3542 50.7095 53.2091 50.1498C53.075 49.6332 52.4467 49.3367 51.8439 49.4928C51.241 49.6493 50.879 50.2027 51.0242 50.7624Z" fill="white"/>
<path d="M74.5732 33.8062C74.9182 32.8077 76.9671 32.61 79.1495 33.3646C81.3319 34.1188 82.8211 35.5397 82.4761 36.5382C82.1311 37.5364 80.0822 37.7344 77.8998 36.9798C75.7174 36.2253 74.2279 34.8044 74.5732 33.8062Z" fill="#F8A01F"/>
<path d="M61.706 34.8953C63.9338 34.2714 65.5077 32.8983 65.2077 31.9194C64.8967 30.8973 62.8871 30.5913 60.6594 31.2149C58.4317 31.8388 56.8578 33.2119 57.1578 34.1908C57.426 35.2243 59.4783 35.5192 61.706 34.8953Z" fill="#F8A01F"/>
<path d="M80.4071 37.8609C79.5962 37.8609 78.6771 37.6947 77.7642 37.3793C75.2828 36.5215 73.7397 34.9249 74.1748 33.6655H74.1751C74.6104 32.4063 76.8092 32.1029 79.2919 32.961C80.4037 33.3453 81.3858 33.91 82.0572 34.5506C82.8127 35.2715 83.1054 36.026 82.8807 36.6754C82.6566 37.3245 81.9606 37.7372 80.9209 37.8376C80.7556 37.853 80.5837 37.8609 80.4071 37.8609ZM74.9781 33.9428C74.7486 34.6063 76.0103 35.8737 78.0419 36.5759C79.041 36.9212 80.0338 37.0682 80.8393 36.9911C81.5082 36.9266 81.9713 36.7044 82.0774 36.3971C82.1838 36.0896 81.9568 35.6294 81.4705 35.1651C80.8853 34.607 80.0127 34.1093 79.0136 33.7637C76.9826 33.0617 75.2072 33.2789 74.9781 33.9428Z" fill="#A55A0F"/>
<path d="M59.492 35.6478C58.6903 35.6478 57.9949 35.5049 57.5013 35.2209C57.105 34.993 56.8441 34.6742 56.7468 34.2989C56.641 33.9549 56.6983 33.5516 56.9174 33.1506C57.4381 32.1984 58.8618 31.2783 60.545 30.807C63.05 30.106 65.2296 30.5316 65.6145 31.797C65.7253 32.1578 65.6677 32.5613 65.4486 32.9624C64.9283 33.9146 63.5042 34.8347 61.8211 35.3059C61.0055 35.5341 60.2063 35.6478 59.492 35.6478ZM62.8489 31.3195C62.2445 31.3195 61.5362 31.4124 60.7741 31.6255C59.0985 32.0948 58.0044 32.9347 57.6631 33.5586C57.5549 33.7569 57.5215 33.9284 57.5643 34.0679C57.6087 34.2369 57.7283 34.371 57.925 34.4843C58.6456 34.8989 60.1194 34.9002 61.5916 34.4878C63.2675 34.0185 64.3617 33.1789 64.7026 32.555C64.8112 32.3567 64.8443 32.1852 64.8015 32.0454C64.6702 31.6132 63.9242 31.3195 62.8489 31.3195Z" fill="#A55A0F"/>
<path d="M76.2348 20.7852C76.4124 20.3272 77.2066 20.2079 78.008 20.5189C78.8097 20.8299 79.3153 21.4535 79.1377 21.9115C78.9599 22.3695 78.166 22.4888 77.3646 22.1778C76.5628 21.8668 76.057 21.2432 76.2348 20.7852Z" fill="#F4B503"/>
<path d="M80.6103 22.7334C80.3553 23.1672 80.7715 23.8865 81.5194 24.2897C82.2787 24.7361 83.0552 24.7184 83.3102 24.2847C83.5652 23.8509 83.149 23.1316 82.4011 22.7284C81.685 22.2707 80.8653 22.2997 80.6103 22.7334Z" fill="#F4B503"/>
<path d="M77.983 23.4138C77.7916 23.7393 78.0979 24.2111 78.6403 24.53C79.1826 24.8489 79.7757 24.8328 79.9239 24.5187C80.1153 24.1932 79.809 23.7213 79.2667 23.4024C78.7674 23.0722 78.1744 23.0883 77.983 23.4138Z" fill="#F4B503"/>
<path d="M71.365 66.12C69.2122 66.6784 66.6288 66.1077 63.6466 64.3537C63.4297 64.2262 63.3626 63.9678 63.4901 63.7509C63.6176 63.534 63.876 63.467 64.0929 63.5945C67.2379 65.4441 69.8852 65.9062 71.9804 64.9493C75.1074 63.541 75.9778 59.4551 75.9665 59.412C75.9967 59.1743 76.2328 59.0213 76.4815 59.0947C76.7191 59.1249 76.8721 59.361 76.7988 59.6096C76.7572 59.8042 75.868 64.1705 72.3213 65.7337C71.9996 65.9094 71.6663 66.0419 71.365 66.12Z" fill="#A55A0F"/>
<path d="M56.1772 89.6934L62.1498 90.2335L61.9884 92.0187L58.442 91.6979L58.3108 93.1481L61.3399 93.4223L61.1882 95.0994L58.159 94.8253L57.8521 98.2193L55.4258 97.9998L56.1772 89.6934Z" fill="#E6ECFF"/>
<path d="M62.7347 98.6613L63.4861 90.3555L67.5125 90.7197C68.2594 90.7874 68.8238 90.907 69.2057 91.0782C69.5881 91.2501 69.8834 91.5309 70.0918 91.9209C70.3002 92.3112 70.3804 92.7705 70.3326 93.2996C70.291 93.7605 70.1626 94.1492 69.9473 94.4669C69.7323 94.7845 69.4534 95.0325 69.1109 95.211C68.8925 95.3243 68.6 95.4087 68.233 95.4631L70.4251 99.3573L67.6953 99.1105L66.6339 96.4556C66.4998 96.1119 66.3736 95.8856 66.2543 95.7757C66.0918 95.6315 65.9001 95.5494 65.6795 95.5296L65.4661 95.5104L65.161 98.8814L62.7344 98.6619L62.7347 98.6613ZM65.608 93.9402L66.627 94.0325C66.7371 94.0425 67.8043 94.2138 67.8883 93.2842C67.9125 93.016 67.8508 92.8032 67.7042 92.6452C67.5571 92.4869 67.2635 92.388 66.8224 92.348L65.761 92.252L65.608 93.9402Z" fill="#E6ECFF"/>
<path d="M72.3058 91.1527L78.7796 91.7382L78.619 93.5116L74.5662 93.1449L74.4469 94.4648L78.2063 94.8048L78.0531 96.4989L74.2936 96.159L74.1457 97.7961L78.3162 98.1733L78.1459 100.054L71.5547 99.4582L72.3061 91.1523L72.3058 91.1527Z" fill="#E6ECFF"/>
<path d="M80.1928 91.8672L86.6666 92.4527L86.5061 94.2262L82.4532 93.8594L82.3339 95.1793L86.0934 95.5193L85.9401 97.2135L82.1806 96.8735L82.0327 98.5107L86.2032 98.8878L86.0329 100.769L79.4414 100.173L80.1928 91.8672Z" fill="#E6ECFF"/>
<path d="M53.1069 103.453L55.5225 103.672L55.2596 106.578L57.8997 106.817L58.1626 103.911L60.5889 104.13L59.8375 112.436L57.4112 112.216L57.7153 108.857L55.0752 108.618L54.7711 111.977L52.3555 111.759L53.1069 103.453Z" fill="#E6ECFF"/>
<path d="M67.2798 104.737L69.6901 104.955L69.2424 109.904C69.1981 110.395 69.0841 110.852 68.9009 111.274C68.7174 111.697 68.4571 112.058 68.1199 112.357C67.7828 112.655 67.4397 112.855 67.0896 112.957C66.6036 113.099 66.0317 113.141 65.3738 113.081C64.9932 113.047 64.5808 112.981 64.136 112.883C63.6913 112.786 63.3255 112.64 63.0387 112.445C62.7516 112.25 62.4973 111.986 62.2744 111.654C62.0519 111.322 61.9093 110.987 61.8463 110.65C61.7447 110.108 61.7122 109.633 61.7491 109.226L62.1967 104.277L64.607 104.495L64.1486 109.562C64.1077 110.015 64.1937 110.379 64.4074 110.656C64.6208 110.932 64.9369 111.089 65.3568 111.127C65.7726 111.164 66.1104 111.068 66.3691 110.839C66.6285 110.609 66.7786 110.264 66.8205 109.804L67.2788 104.737H67.2798Z" fill="#E6ECFF"/>
<path d="M74.7424 110.753L74.8989 109.025L78.6322 109.362L78.3118 112.903C77.5503 113.356 76.8864 113.651 76.3198 113.788C75.7535 113.925 75.0938 113.96 74.3402 113.892C73.4122 113.808 72.6712 113.572 72.1162 113.183C71.5619 112.793 71.1543 112.252 70.8924 111.558C70.6305 110.864 70.5389 110.087 70.6166 109.225C70.6988 108.318 70.9459 107.546 71.3585 106.908C71.7712 106.269 72.3328 105.807 73.0429 105.521C73.597 105.301 74.3219 105.231 75.2178 105.312C76.0818 105.39 76.7202 105.532 77.1339 105.736C77.5472 105.942 77.8793 106.231 78.1304 106.606C78.3816 106.982 78.5538 107.443 78.6473 107.993L76.277 108.224C76.2093 107.902 76.068 107.647 75.8543 107.46C75.6396 107.273 75.355 107.164 74.9996 107.132C74.4699 107.084 74.0298 107.242 73.6801 107.604C73.33 107.966 73.1169 108.571 73.0404 109.416C72.9592 110.315 73.0606 110.972 73.3436 111.386C73.6269 111.8 74.0534 112.033 74.6216 112.084C74.8917 112.108 75.1532 112.09 75.4063 112.029C75.6591 111.969 75.9528 111.853 76.2874 111.681L76.3582 110.899L74.7421 110.753L74.7424 110.753Z" fill="#E6ECFF"/>
<path d="M79.4651 111.441L81.7922 111.71C81.7922 111.71 81.8653 112.208 81.9997 112.43C82.2185 112.788 82.5587 112.988 83.0208 113.03C83.3655 113.061 83.6394 113 83.8415 112.844C84.0436 112.689 84.155 112.499 84.1758 112.272C84.1953 112.057 84.1238 111.856 83.9614 111.67C83.799 111.484 83.4008 111.286 82.7678 111.077C81.7309 110.727 81.0062 110.323 80.5926 109.863C80.1755 109.403 79.9961 108.848 80.055 108.198C80.0937 107.771 80.2463 107.379 80.5139 107.02C80.7808 106.661 81.1583 106.394 81.6452 106.22C82.1325 106.045 82.7832 105.994 83.5972 106.068C84.5963 106.158 85.3452 106.419 85.829 106.867C86.5363 107.52 86.6339 108.4 86.6339 108.4L84.3325 108.316C84.3325 108.316 84.1751 108.108 83.997 107.921C83.8188 107.733 83.5585 107.624 83.2176 107.593C82.9365 107.567 82.7193 107.611 82.5657 107.725C82.412 107.838 82.3264 107.986 82.3101 108.168C82.2981 108.3 82.3459 108.424 82.4536 108.54C82.5575 108.66 82.8184 108.787 83.2365 108.919C84.2705 109.257 85.0052 109.57 85.4396 109.859C85.874 110.147 86.1784 110.485 86.3537 110.869C86.5285 111.254 86.5955 111.674 86.5546 112.127C86.5064 112.66 86.3232 113.138 86.005 113.563C85.687 113.988 85.269 114.293 84.7496 114.48C84.2309 114.668 83.5928 114.727 82.8357 114.659C81.5058 114.539 80.6099 114.183 80.1475 113.593C79.6838 113.002 79.4569 112.285 79.4651 111.441Z" fill="#E6ECFF"/>
<path d="M48.005 1.46715C51.0669 1.22383 53.6327 2.07877 53.7356 3.37662C53.8389 4.67446 51.4402 5.92383 48.3783 6.16716C45.3164 6.41049 42.7507 5.55554 42.6477 4.2577C42.5448 2.95953 44.9431 1.71016 48.005 1.46715Z" fill="#332E25"/>
<path d="M93.589 5.25604C93.9223 3.99754 96.5989 3.61444 99.5673 4.40045C102.536 5.18647 104.672 6.84411 104.339 8.10261C104.006 9.36111 101.329 9.7442 98.3604 8.95819C95.392 8.17218 93.2556 6.51454 93.589 5.25604Z" fill="#332E25"/>
<path d="M47.3394 6.63245C46.1986 6.63245 45.1331 6.48166 44.2643 6.19238C43.0099 5.77435 42.2837 5.09883 42.2194 4.29016C42.1552 3.48148 42.7656 2.69957 43.9382 2.08889C44.9993 1.53613 46.4296 1.16436 47.9655 1.04254C49.5016 0.921036 50.9726 1.06175 52.1077 1.4398C53.3621 1.85784 54.0883 2.53335 54.1525 3.34203C54.2167 4.1507 53.6064 4.93263 52.4338 5.54331C51.3727 6.09607 49.9423 6.46782 48.4062 6.58964C48.0461 6.61829 47.6891 6.63245 47.3394 6.63245ZM49.0386 1.84933C48.7099 1.84933 48.3737 1.86256 48.0332 1.88963C46.6081 2.00296 45.2933 2.34134 44.331 2.84247C43.505 3.27278 43.0325 3.78871 43.0668 4.2228C43.1011 4.65688 43.6495 5.0916 44.5331 5.38592C45.5627 5.72903 46.9147 5.85556 48.3391 5.74224C49.7641 5.62892 51.079 5.29054 52.0413 4.7894C52.8673 4.35909 53.3397 3.84316 53.3054 3.40908C53.2711 2.97499 52.7228 2.54028 51.8392 2.24595C51.0557 1.985 50.0855 1.84933 49.0386 1.84933Z" fill="#2D1D1D"/>
<path d="M101.292 9.79527C100.351 9.79527 99.305 9.65143 98.2508 9.37253C94.9522 8.49933 92.7714 6.68396 93.1774 5.15066C93.3849 4.36653 94.2203 3.83173 95.5292 3.64412C96.7128 3.47508 98.1856 3.59847 99.6755 3.99289C101.165 4.38732 102.506 5.0087 103.451 5.74214C104.495 6.55271 104.956 7.43095 104.749 8.21508C104.541 8.9992 103.706 9.53401 102.397 9.7213C102.051 9.77041 101.68 9.79496 101.292 9.79527ZM96.6382 4.41911C96.2897 4.41911 95.9579 4.44084 95.6491 4.48522C94.7271 4.61711 94.1101 4.94699 93.9987 5.36786C93.7648 6.25145 95.5427 7.77596 98.4683 8.55032C99.8499 8.9161 101.202 9.03319 102.277 8.87926C103.199 8.74737 103.815 8.41747 103.927 7.99661C104.038 7.57575 103.666 6.98364 102.93 6.41294C102.073 5.7478 100.84 5.17995 99.4577 4.81386C98.473 4.55353 97.5032 4.41911 96.6382 4.41911Z" fill="#2D1D1D"/>
<path d="M57.9316 105.371L61.1589 95.4327L62.4991 95.5422L62.6673 97.2549L59.2646 107.404L57.825 107.286L57.9316 105.371ZM57.5269 95.1359L58.6844 105.433L58.3628 107.33L56.7578 107.199L55.0698 94.9351L57.5269 95.1359ZM64.0902 105.833L66.8757 95.8998L69.3328 96.1005L65.6846 107.929L64.0796 107.798L64.0902 105.833ZM63.252 95.6037L64.8363 105.977L64.6173 107.841L63.1778 107.724L61.4519 97.1473L61.92 95.4948L63.252 95.6037ZM73.3205 96.4264L72.3363 108.472L69.8626 108.27L70.8468 96.2242L73.3205 96.4264ZM79.7028 104.752L76.6334 104.501L76.7916 102.565L79.861 102.816C80.3353 102.854 80.7277 102.809 81.0381 102.679C81.349 102.543 81.5849 102.34 81.7458 102.07C81.9067 101.8 82.0015 101.489 82.0304 101.136C82.0597 100.777 82.018 100.438 81.9053 100.118C81.7927 99.7976 81.5951 99.5316 81.3126 99.3197C81.0301 99.1079 80.6517 98.9826 80.1773 98.9438L77.9684 98.7633L77.143 108.865L74.661 108.662L75.6453 96.6163L80.3362 96.9996C81.2793 97.0767 82.0734 97.3137 82.7183 97.7106C83.3692 98.1025 83.8496 98.6109 84.1594 99.2359C84.4693 99.8608 84.5929 100.557 84.5302 101.323C84.4667 102.101 84.2325 102.759 83.8275 103.298C83.4226 103.837 82.8683 104.233 82.1647 104.486C81.4666 104.74 80.6459 104.829 79.7028 104.752Z" fill="#1B2D4A"/>
</svg>
