<svg width="154" height="150" viewBox="0 0 154 150" fill="none" xmlns="http://www.w3.org/2000/svg">
<path d="M81.999 149.369C110.987 149.369 134.486 147.575 134.486 145.361C134.486 143.148 110.987 141.354 81.999 141.354C53.0111 141.354 29.5117 143.148 29.5117 145.361C29.5117 147.575 53.0111 149.369 81.999 149.369Z" fill="#C7D1EA"/>
<path opacity="0.5" d="M117.597 110.929C121.911 105.007 114.788 92.4707 101.688 82.9281C88.588 73.3855 74.4716 70.4501 70.158 76.3717C65.8445 82.2933 72.9673 94.8296 86.0673 104.372C99.1673 113.915 113.284 116.85 117.597 110.929Z" fill="#B9D3F9"/>
<path d="M70.1342 87.2048C68.0008 82.6194 67.8753 78.7311 69.8067 76.096C72.0267 73.0635 76.579 72.1032 82.7543 73.3869C88.7597 74.6446 95.5843 77.8891 102.007 82.5312C108.386 87.1935 113.568 92.6757 116.64 98.0344C119.752 103.48 120.24 108.147 118.02 111.179C115.8 114.212 111.248 115.172 105.072 113.889C99.0671 112.631 92.2425 109.386 85.8202 104.744C79.4411 100.082 74.2592 94.5997 71.1869 89.241C70.8014 88.5257 70.436 87.8537 70.1342 87.2048ZM101.452 83.2626C95.1567 78.6667 88.4588 75.4686 82.5805 74.2571C76.8086 73.0488 72.5158 73.8882 70.5614 76.5868C66.387 82.3179 73.4695 94.599 86.3546 103.97C99.2394 113.34 113.094 116.313 117.269 110.582C119.266 107.863 118.726 103.536 115.818 98.4171C112.826 93.231 107.728 87.8152 101.452 83.2626Z" fill="#B9D3F9"/>
<path d="M69.7495 76.5437C69.6892 76.4138 69.6719 76.264 69.7613 76.1171C69.8739 75.9067 70.1334 75.786 70.3641 75.9419C70.6377 76.0776 96.4833 89.1003 110.76 104.401C110.947 104.578 110.918 104.854 110.742 105.041C110.565 105.228 110.289 105.2 110.102 105.023C95.9723 89.8118 70.2104 76.8555 70 76.7429C69.83 76.7166 69.7896 76.6303 69.7495 76.5437Z" fill="#B9D3F9"/>
<path opacity="0.5" d="M99.658 127.112C106.15 123.716 105.322 109.319 97.8075 94.9568C90.2932 80.5945 78.9388 71.7051 72.4466 75.1018C65.9544 78.4984 66.7829 92.8949 74.2972 107.257C81.8114 121.62 93.1659 130.509 99.658 127.112Z" fill="#B9D3F9"/>
<path d="M81.4978 118.807C78.7222 115.593 76.1307 111.716 73.905 107.461C70.2563 100.462 68.0452 93.2305 67.6497 87.0789C67.2953 80.8288 68.9036 76.4138 72.2453 74.6624C75.5508 72.9421 80.0989 74.1206 85.0608 77.9679C89.8928 81.7378 94.5984 87.6973 98.2471 94.6961C101.896 101.695 104.107 108.926 104.502 115.078C104.857 121.328 103.248 125.743 99.9068 127.494C96.6013 129.214 92.0532 128.036 87.0913 124.189C85.1712 122.695 83.3066 120.901 81.4978 118.807ZM89.8697 83.9011C83.695 76.7515 77.0215 73.185 72.6572 75.5044C69.6667 77.0784 68.2175 81.1669 68.5655 87.0446C68.9036 93.0566 71.0883 100.185 74.6796 107.044C82.0707 121.149 93.1627 129.978 99.4224 126.715C105.682 123.452 104.791 109.281 97.4 95.1753C95.1793 90.852 92.5828 87.0426 89.8697 83.9011Z" fill="#B9D3F9"/>
<path d="M95.2847 120.83C95.2536 120.794 95.2225 120.758 95.1962 120.655C86.0291 93.8361 72.2157 75.506 72.0598 75.3254C71.9039 75.1448 71.9597 74.8446 72.1403 74.6887C72.3209 74.5328 72.6211 74.5886 72.777 74.7692C72.9329 74.9498 86.8037 93.4191 96.0282 120.378C96.112 120.621 95.9577 120.88 95.7508 120.933C95.6064 121.057 95.4095 120.975 95.2847 120.83Z" fill="#B9D3F9"/>
<path d="M131.073 75.9723C121.961 87.3043 105.228 91.5935 92.2706 84.4212C89.1486 82.4844 92.1564 78.1025 94.9791 79.926C105.936 86.2942 120.112 82.7924 128.168 73.342C129.85 71.4928 132.746 74.0281 131.073 75.9723Z" fill="#332E25"/>
<path d="M126.191 75.6071C126.191 75.6071 119.429 83.6313 110.543 84.9173C101.606 86.1606 94.9257 82.7149 94.9257 82.7149L92.832 79.5708C93.4822 79.361 94.2084 79.4309 94.9735 79.8806C101.222 83.3224 108.98 84.1648 115.784 81.7475C116.387 81.5425 117.08 81.2801 117.677 81.0277C120.752 79.6603 123.531 77.7476 126.029 75.4316L126.191 75.6071Z" fill="#3F3A31"/>
<path d="M109.822 88.205C105.645 88.6294 101.381 88.1993 97.2729 86.938C95.2448 86.3289 93.5393 85.5908 92.0663 84.7812C91.0447 84.1656 90.4737 83.2646 90.5051 82.1583C90.5318 81.0045 91.19 79.9306 92.1863 79.35C93.1396 78.8217 94.1984 78.858 95.2201 79.4735C101.468 82.9153 109.07 83.6296 115.646 81.3314C116.249 81.1264 116.937 80.8165 117.492 80.6164C120.661 79.2393 123.658 77.1127 126.455 74.4308C126.631 74.2691 126.915 74.2402 127.082 74.4632C127.244 74.6386 127.272 74.9235 127.05 75.0899C124.167 77.8764 121.075 80.0127 117.816 81.4468C117.266 81.6945 116.526 81.9617 115.928 82.2141C109.166 84.5794 101.232 83.8984 94.7748 80.2863C94.0573 79.8318 93.2881 79.8138 92.6527 80.166C91.9742 80.5705 91.4771 81.3403 91.4642 82.157C91.4466 82.9262 91.8463 83.5568 92.559 83.9642C93.9797 84.7312 95.6329 85.4262 97.6136 86.0405C103.655 87.9205 110.173 87.882 115.924 85.9552C119.915 84.6388 123.709 82.335 127.275 79.1915C127.45 79.0299 127.74 79.0485 127.901 79.224C128.063 79.3994 128.045 79.6891 127.869 79.8507C124.218 83.0988 120.287 85.4644 116.206 86.8379C114.122 87.5767 112.006 87.9834 109.822 88.205Z" fill="#2D1D1D"/>
<path d="M124.067 101.529C122.989 101.303 122.351 100.217 122.582 99.1866L132.66 54.2546C132.886 53.1765 133.972 52.5388 135.003 52.7698C136.081 52.9959 136.719 54.082 136.488 55.1126L126.41 100.045C126.184 101.123 125.145 101.756 124.067 101.529Z" fill="#4150D8"/>
<path d="M124.741 102.039C124.456 102.068 124.214 102.044 123.967 101.974C123.331 101.846 122.813 101.468 122.465 100.879C122.123 100.339 122.008 99.6791 122.182 99.0379L132.26 54.1058C132.388 53.4694 132.766 52.9514 133.355 52.604C133.895 52.2614 134.555 52.1463 135.196 52.3211C135.833 52.4484 136.351 52.8272 136.698 53.4155C137.041 53.9563 137.156 54.6158 136.981 55.257L126.903 100.189C126.776 100.825 126.397 101.344 125.809 101.691C125.491 101.867 125.121 102 124.741 102.039ZM134.419 53.1673C134.181 53.1913 133.996 53.258 133.768 53.377C133.408 53.6054 133.2 53.9143 133.096 54.3085L123.018 99.2406C122.914 99.6348 123.005 100.057 123.229 100.37C123.457 100.731 123.766 100.939 124.16 101.043C124.554 101.147 124.977 101.055 125.29 100.832C125.65 100.604 125.858 100.295 125.962 99.9004L136.04 54.9684C136.144 54.5741 136.053 54.1517 135.829 53.8389C135.601 53.4784 135.292 53.2702 134.898 53.1663C134.756 53.1807 134.561 53.1528 134.419 53.1673Z" fill="#31409B"/>
<path d="M150.583 38.5284C148.547 35.4741 145.353 33.3048 141.72 32.475C133.765 30.6453 125.826 35.5758 123.996 43.5307C123.265 46.722 123.645 49.9925 124.775 52.6113C122.467 49.249 121.611 45.0679 122.582 40.9409C124.412 32.9863 132.351 28.0555 140.306 29.8851C144.97 30.9459 148.749 34.159 150.583 38.5284Z" fill="#F5F8FF"/>
<path d="M151.359 47.6106C149.398 56.1542 140.499 61.0863 132.206 58.2841C132.059 58.251 125.466 56.1391 124.023 50.435C126.116 53.0999 129.034 54.9135 132.278 55.6872C140.185 57.5216 148.172 52.5863 150.002 44.6314C150.497 42.4229 150.546 40.0682 149.972 37.7285C150.191 37.9941 150.362 38.2645 150.581 38.5298C151.772 41.2864 152.095 44.4668 151.359 47.6106Z" fill="#C7D1EA"/>
<path d="M150.048 44.6261C148.218 52.5807 140.279 57.5115 132.324 55.6819C128.933 54.8755 126.053 52.9618 124.07 50.4297C123.511 48.2324 123.464 45.8873 124.04 43.5268C125.869 35.5722 133.809 30.6414 141.764 32.471C145.154 33.2774 148.035 35.1911 150.018 37.7232C150.53 39.9256 150.576 42.2707 150.048 44.6261Z" fill="#E6ECFF"/>
<path d="M140.701 28.1205C131.763 26.0551 122.88 31.6092 120.814 40.547C118.748 49.4847 124.303 58.368 133.24 60.4337C142.178 62.4991 151.061 56.9451 153.127 48.0073C155.197 39.117 149.639 30.1863 140.701 28.1205ZM133.636 58.6669C125.682 56.8373 120.751 48.8977 122.58 40.9431C124.41 32.9885 132.35 28.0577 140.304 29.8873C148.259 31.717 153.19 39.6565 151.36 47.6112C149.53 55.5658 141.596 60.5441 133.636 58.6669Z" fill="#4150D8"/>
<path opacity="0.5" d="M148.06 34.4716L128.568 56.4491C127.071 55.4021 125.787 54.094 124.773 52.6143C124.721 52.5717 124.716 52.5242 124.664 52.4815L143.64 31.084C145.36 31.9645 146.819 33.1109 148.06 34.4716Z" fill="white"/>
<path opacity="0.5" d="M132.207 58.2832L134.231 56.0154L150.064 38.1501L150.197 38.0407L150.282 37.9362C149.863 37.1156 149.397 36.2996 148.84 35.541L148.414 36.0639L131.249 55.4554L129.699 57.1952L132.207 58.2832Z" fill="white"/>
<path d="M138.692 61.2214C136.889 61.4045 135.008 61.3077 133.142 60.874C124.005 58.7329 118.279 49.5792 120.373 40.4468C122.514 31.3095 131.668 25.5841 140.8 27.6778C149.938 29.8189 155.663 38.9725 153.569 48.105C151.867 55.4232 145.717 60.508 138.692 61.2214ZM135.342 28.232C128.649 28.9117 122.855 33.7203 121.256 40.6447C119.257 49.288 124.649 57.9961 133.34 59.9906C141.984 61.9902 150.692 56.5979 152.686 47.9068C154.686 39.2635 149.294 30.5553 140.602 28.5608C138.836 28.165 137.051 28.0585 135.342 28.232ZM138.514 59.4652C136.853 59.6339 135.162 59.5178 133.543 59.1547C129.563 58.2161 126.203 55.8239 124.076 52.3474C121.901 48.8758 121.249 44.8178 122.14 40.8426C123.078 36.8629 125.471 33.5025 128.947 31.3752C132.419 29.2001 136.477 28.5483 140.452 29.4394C144.432 30.378 147.792 32.7702 149.919 36.2467C152.094 39.7183 152.746 43.7763 151.855 47.7515C150.917 51.7312 148.524 55.0916 145.048 57.2189C143.018 58.4801 140.792 59.2336 138.514 59.4652ZM135.525 30.0357C133.389 30.2525 131.301 30.9441 129.409 32.1434C126.16 34.1518 123.896 37.3552 123.023 41.0405C122.156 44.7732 122.783 48.5942 124.839 51.8381C126.848 55.0871 130.051 57.3514 133.736 58.2238C137.469 59.0915 141.29 58.4638 144.534 56.4077C147.783 54.3994 150.047 51.1959 150.92 47.5106C151.787 43.7779 151.16 39.9569 149.104 36.7131C147.095 33.464 143.892 31.1998 140.207 30.3273C138.635 29.9597 137.044 29.8814 135.525 30.0357Z" fill="#31409B"/>
<path d="M126.896 74.5271C126.896 74.5271 128.169 71.952 129.782 71.7881C131.444 71.6194 129.492 74.599 128.895 75.331C128.299 76.063 126.281 79.337 126.281 79.337L126.896 74.5271Z" fill="#332E25"/>
<path d="M133.208 71.4892C131.898 71.3346 131.242 73.8469 131.054 75.3047C130.866 76.7626 131.494 77.7538 131.751 77.9196C132.008 78.0854 133.075 77.7371 133.623 76.0508C134.266 74.3549 134.424 71.6535 133.208 71.4892Z" fill="#332E25"/>
<path d="M125.231 81.5663C125.136 81.5759 124.791 81.77 124.692 81.7321C124.44 81.6138 124.834 81.2917 124.958 81.0874C125.194 80.5838 127.991 75.8548 128.583 75.0753C129.266 74.2387 130.113 72.666 130.027 72.2911C130.027 72.2911 129.98 72.2959 129.885 72.3055C128.745 72.4213 127.372 74.479 126.965 75.1917C126.841 75.3961 126.561 75.4724 126.357 75.3492C126.153 75.2261 126.076 74.946 126.2 74.7417C126.361 74.4376 127.984 71.5392 129.835 71.3512C130.5 71.2839 130.771 71.5918 130.89 71.8195C131.486 72.9579 129.405 75.6151 129.363 75.6674C128.936 76.1903 126.869 79.5487 126.003 81.411C126.003 81.411 125.373 81.5518 125.231 81.5663Z" fill="#2D1D1D"/>
<path d="M131.599 78.3171C131.19 78.0708 130.448 76.8993 130.664 75.2471C130.739 74.568 131.119 72.1796 132.234 71.3469C132.547 71.1233 132.917 70.9899 133.306 71.046C133.695 71.1025 134.004 71.3106 134.233 71.6712C134.923 72.8 134.575 75.0415 134.169 76.2334C133.8 77.3259 132.477 78.8897 131.599 78.3171ZM133.061 71.9345C132.966 71.9441 132.871 71.9538 132.785 72.0583C132.16 72.5055 131.739 74.0349 131.537 75.3504C131.368 76.5186 131.83 77.2868 131.996 77.5097C132.234 77.4857 132.86 77.0385 133.224 75.8985C133.706 74.5067 133.77 72.774 133.37 72.143C133.26 72.0102 133.208 71.9676 133.108 71.9297C133.108 71.9297 133.108 71.9297 133.061 71.9345Z" fill="#2D1D1D"/>
<path d="M80.989 139.424C81.7402 137.814 82.3013 136.091 82.5139 135.2C84.3076 128.692 82.6663 121.303 78.0502 116.35C75.5636 113.995 71.9778 117.726 74.4223 120.103C76.8046 122.567 78.3559 126.011 78.6272 129.483C79.2357 133.694 75.7647 139.516 75.8869 141.239C76.1496 144.936 86.7669 146.673 87.6644 143.001C88.0875 141.269 84.2987 139.693 80.989 139.424Z" fill="#332E25"/>
<path d="M87.6666 142.997C87.6117 143.404 87.2794 143.795 86.8153 144.041C86.6623 142.017 82.6274 141.02 80.3134 140.625C79.413 140.453 78.793 140.403 78.793 140.403C78.793 140.403 78.9768 140.036 79.2821 139.389C80.1363 137.534 82.0901 133.371 81.9599 130.471C81.6529 123.563 78.9229 121.769 78.9229 121.769L80.1841 119.051C83.1733 123.785 84.0362 129.805 82.5581 135.174C82.1854 136.613 81.6417 138.034 81.0111 139.393C81.3957 139.405 81.8024 139.46 82.2091 139.515C85.401 140.039 87.8905 141.583 87.6666 142.997Z" fill="#3F3A31"/>
<path d="M83.4344 145.514C83.1012 145.514 82.7544 145.499 82.3952 145.469C79.1336 145.193 75.577 143.628 75.4096 141.271C75.3563 140.525 75.7942 139.355 76.3998 137.736C77.2937 135.345 78.5181 132.072 78.1537 129.55C77.8868 126.149 76.403 122.839 74.079 120.435C72.6625 119.058 72.9833 117.22 74.0383 116.121C75.0971 115.018 76.93 114.621 78.3837 115.998C83.045 120.997 84.841 128.576 82.9809 135.325C82.7833 136.155 82.3121 137.602 81.7026 139.013C84.1042 139.324 86.8111 140.272 87.7975 141.639C88.1381 142.111 88.2549 142.621 88.1346 143.113C87.7628 144.632 85.9977 145.514 83.4344 145.514ZM76.2965 116.07C75.7021 116.07 75.142 116.36 74.7321 116.787C74.0053 117.544 73.732 118.756 74.76 119.756C77.2472 122.328 78.8289 125.855 79.1093 129.443C79.5051 132.178 78.2313 135.585 77.3008 138.072C76.802 139.406 76.3311 140.666 76.369 141.203C76.4921 142.937 79.635 144.27 82.476 144.51C84.4311 144.673 86.841 144.348 87.1993 142.884C87.2519 142.669 87.1922 142.446 87.0164 142.202C86.2399 141.126 83.5762 140.114 80.9524 139.9C80.7955 139.888 80.6547 139.799 80.5755 139.663C80.4962 139.526 80.4889 139.36 80.5553 139.217C81.2677 137.691 81.8284 136.006 82.0481 135.086C83.8258 128.635 82.1174 121.415 77.7001 116.675C77.2485 116.248 76.7619 116.07 76.2965 116.07Z" fill="#2D1D1D"/>
<path opacity="0.5" d="M53.4764 103.247C65.5941 92.4884 71.4753 79.327 66.6125 73.8497C61.7497 68.3724 47.9844 72.6533 35.8667 83.4114C23.7491 94.1695 17.8679 107.331 22.7306 112.808C27.5934 118.286 41.3588 114.005 53.4764 103.247Z" fill="#B9D3F9"/>
<path d="M48.3088 108.009C44.0269 111.043 39.6315 113.34 35.5501 114.595C29.5531 116.447 24.8796 115.959 22.4161 113.143C19.9138 110.355 19.9645 105.641 22.5149 99.9153C25.0149 94.284 29.6625 88.2998 35.5498 83.0749C41.4759 77.822 47.9573 73.9305 53.8099 72.1217C59.8069 70.2693 64.4805 70.7578 66.944 73.5735C69.4462 76.3616 69.3956 81.0755 66.8452 86.8012C64.3451 92.4325 59.6976 98.4167 53.8103 103.642C52.0018 105.216 50.1773 106.684 48.3088 108.009ZM36.1794 83.7985C24.2768 94.3978 18.3834 107.288 23.0618 112.569C27.7401 117.85 41.2668 113.584 53.1694 102.985C65.072 92.3854 70.9654 79.4955 66.287 74.2147C64.0446 71.7105 59.7033 71.2787 54.1006 73.0272C48.3534 74.8197 41.9888 78.6287 36.1794 83.7985Z" fill="#B9D3F9"/>
<path d="M34.1432 103.781C33.9876 103.891 33.749 103.885 33.5998 103.757C33.384 103.617 33.3628 103.34 33.5023 103.124C33.6694 102.948 48.3649 83.9942 65.65 72.7379C65.8447 72.6 66.1382 72.6844 66.2761 72.8787C66.414 73.0735 66.3297 73.3669 66.1353 73.5049C49.0058 84.6508 34.3995 103.482 34.2327 103.659C34.1823 103.753 34.1432 103.781 34.1432 103.781Z" fill="#B9D3F9"/>
<path opacity="0.5" d="M40.1468 95.2216C56.3468 94.8246 69.3341 88.5664 69.1546 81.2434C68.9751 73.9205 55.6969 68.306 39.4969 68.703C23.2968 69.1 10.3095 75.3583 10.489 82.6812C10.6685 90.0041 23.9467 95.6186 40.1468 95.2216Z" fill="#B9D3F9"/>
<path d="M65.1838 88.728C64.0072 89.6246 62.6013 90.4557 60.9949 91.2601C55.4614 93.917 48.0303 95.5003 40.1401 95.6941C32.2499 95.8878 24.788 94.6753 19.1207 92.2757C13.3576 89.8289 10.1063 86.4282 10.0014 82.6691C9.92537 78.9482 12.9611 75.3753 18.6085 72.6318C24.142 69.9749 31.5731 68.3916 39.4633 68.1978C47.3534 68.0041 54.8154 69.2163 60.4827 71.6162C66.2458 74.063 69.4971 77.4637 69.602 81.2228C69.6796 83.9223 68.1438 86.4724 65.1838 88.728ZM15.0066 75.8558C12.35 77.8798 10.8793 80.2005 10.9262 82.6239C11.0946 89.6935 24.1805 95.1382 40.1324 94.7398C56.0465 94.3706 68.8536 88.2706 68.6852 81.201C68.5168 74.1313 55.4309 68.6867 39.479 69.0851C29.0898 69.3837 19.9781 72.0675 15.0066 75.8558Z" fill="#B9D3F9"/>
<path d="M69.4131 81.6075C69.2993 81.6942 69.1944 81.714 69.0606 81.6961C47.087 77.0254 24.6652 81.2136 24.4179 81.2823C24.1703 81.3509 23.921 81.1812 23.8902 80.9048C23.8216 80.6571 23.9913 80.4079 24.2678 80.3771C24.4776 80.3373 47.1085 76.1093 69.2829 80.8069C69.5126 80.872 69.6858 81.0998 69.6499 81.367C69.5738 81.425 69.527 81.5206 69.4131 81.6075Z" fill="#B9D3F9"/>
<path d="M92.2621 104.071C86.9089 123.107 62.7627 138.813 44.262 127.938C43.6031 127.537 42.9443 127.137 42.3015 126.643C39.831 124.925 37.745 122.642 36.2477 120.022C35.1969 118.202 34.4209 116.186 34.045 114.092C32.1175 103.902 37.2966 92.8672 44.9847 86.2174C47.4635 84.1158 53.1985 79.0265 57.7017 74.9409C60.832 72.1256 63.3972 69.7968 63.8129 69.334L94.3551 73.5601C94.6297 73.9443 94.8488 76.6898 94.8478 80.4626C94.9402 88.024 94.3105 99.6244 92.2621 104.071Z" fill="#F9C710"/>
<path d="M92.042 104.811C86.3045 123.54 62.4881 138.72 44.2539 127.987C56.8814 132.028 72.86 126.424 81.6711 113.335C90.545 100.159 89.4583 82.9031 89.4583 82.9031L94.8943 80.4727C94.9398 87.7357 94.3727 98.6696 92.5049 103.485C92.3326 103.94 92.1678 104.348 92.042 104.811Z" fill="#F8A01F"/>
<path d="M36.2399 120.069C35.1891 118.249 34.4131 116.233 34.0372 114.139C32.1097 103.949 37.2888 92.9145 44.9769 86.2648C47.4557 84.1631 53.1907 79.0739 57.6939 74.9883L62.5721 77.6404C62.5721 77.6404 50.2323 85.4972 41.7275 97.0412C33.4736 108.24 36.0987 119.465 36.2399 120.069Z" fill="#FFD95F"/>
<path d="M94.618 91.6951C67.1339 91.1716 54.3438 77.9603 54.3438 77.9603C60.0864 72.8239 63.8207 69.2871 63.8207 69.2871L88.2688 72.6413L94.4181 73.4741C94.4181 73.4741 94.9195 76.8469 95.0048 81.8434C95.043 84.8009 94.9718 88.1266 94.618 91.6951Z" fill="#332E25"/>
<path d="M52.8995 131.557C48.9936 130.905 45.3308 129.375 41.9977 127.029C37.5824 123.922 34.4931 119.247 33.5449 114.203C31.7114 104.61 36.1691 93.2611 44.6103 85.8665C48.8938 82.2281 62.3874 70.0654 63.4386 68.9831C63.5563 68.8577 63.7051 68.8343 63.8466 68.8577L94.3888 73.0838C94.5771 73.1152 94.7888 73.2955 94.8045 73.4918C95.4069 81.7668 96.1982 92.1535 92.6804 104.191C89.5876 115.478 79.632 125.86 67.9049 130.046C62.7666 131.849 57.6994 132.358 52.8995 131.557ZM63.9797 69.7988C62.0811 71.6102 49.3798 83.0829 45.2692 86.5568C38.4205 92.5243 32.4572 103.332 34.4941 114.023C35.3794 118.863 38.359 123.326 42.5549 126.3C49.6916 131.361 58.5626 132.406 67.6146 129.176C79.0829 125.092 88.8033 114.96 91.8487 103.956C94.8238 92.7947 95.0143 82.7125 94.0042 73.9386L63.9797 69.7988Z" fill="#2D1D1D"/>
<path d="M57.7539 124.852C58.6754 124.817 59.4389 125.215 59.4591 125.742C59.4793 126.269 58.7482 126.724 57.8267 126.759C56.9051 126.794 56.1417 126.396 56.1215 125.869C56.1013 125.342 56.8323 124.887 57.7539 124.852Z" fill="#F4B503"/>
<path d="M52.4215 125.531C53.3264 125.353 54.1424 125.627 54.2444 126.145C54.3464 126.662 53.6953 127.225 52.7904 127.404C51.8855 127.582 51.0695 127.307 50.9675 126.79C50.8658 126.273 51.517 125.709 52.4215 125.531Z" fill="#F4B503"/>
<path d="M56.7176 127.792C56.7959 128.192 56.341 128.599 55.6427 128.725C54.9916 128.858 54.3956 128.662 54.3173 128.262C54.2391 127.862 54.6939 127.454 55.3922 127.329C56.043 127.195 56.6393 127.392 56.7176 127.792Z" fill="#F4B503"/>
<path d="M56.5298 131.533C55.3766 131.486 54.1847 131.383 53.0081 131.187C49.9961 130.684 47.0316 129.609 44.1691 127.922C43.9651 127.985 43.722 127.993 43.526 128.009C39.1963 128.737 35.4703 128.744 32.7018 128.524C29.1172 128.265 27.1016 127.589 27.1016 127.589C31.4158 126.955 35.495 123.379 36.7739 122.093C37.0642 121.803 37.2368 121.638 37.2368 121.638C34.9629 118.453 33.8261 114.829 33.623 111.119C33.6853 111.323 36.5535 123.991 56.5298 131.533Z" fill="#332E25"/>
<path d="M36.813 122.146C36.7972 122.24 35.8629 126.68 32.7409 128.577C29.1563 128.318 27.1406 127.643 27.1406 127.643C31.4546 127.009 35.4949 123.378 36.813 122.146Z" fill="#3F3A31"/>
<path d="M29.6345 128.639C28.0345 128.372 27.0696 128.066 26.9756 128.05C26.7954 127.972 26.6305 127.799 26.67 127.564C26.7014 127.376 26.8348 127.156 27.078 127.148C31.4391 126.522 35.6129 122.671 36.7112 121.597C34.6098 118.538 33.4573 115.008 33.2309 111.148C33.2232 110.905 33.4034 110.694 33.6466 110.686C33.8897 110.678 34.1094 110.812 34.1643 111.062C34.1877 111.212 37.1343 123.699 56.7891 131.139C57.0165 131.225 57.1262 131.437 57.0871 131.673C57.0479 131.908 56.5479 131.723 56.3596 131.692C51.9279 131.581 48.0123 130.69 44.2241 128.462C44.1221 128.493 37.2638 130.013 29.6345 128.639ZM29.1328 127.588C36.2842 129.344 43.9415 127.544 44.0435 127.513C44.1455 127.481 44.2947 127.458 44.4201 127.575C47.2826 129.262 50.3337 130.4 53.5494 130.84C41.9185 125.755 36.8369 119.103 34.673 114.969C35.253 117.29 36.2409 119.487 37.6051 121.456C37.7229 121.621 37.6289 121.922 37.5031 122.068C37.15 122.444 33.5257 126.193 29.1328 127.588Z" fill="#2D1D1D"/>
<path d="M92.2622 104.071C91.6184 106.189 90.7867 108.275 89.8215 110.291C89.0212 111.898 88.0874 113.436 87.0125 114.949C87.0125 114.949 61.3187 106.018 47.7994 89.9277C46.7877 88.7432 45.8389 87.4723 44.9844 86.2171C46.0593 85.284 47.079 84.3901 48.099 83.4961C48.099 83.4961 49.1655 84.6415 51.3301 86.4539C57.1099 91.2393 70.5753 100.404 92.2622 104.071Z" fill="#332E25"/>
<path d="M51.33 86.4537C51.33 86.4537 49.2197 88.3751 47.7525 89.9199C46.7408 88.7353 45.792 87.4645 44.9375 86.2093C46.0124 85.2762 47.0321 84.3823 48.0521 83.4883C48.0913 83.5431 49.1578 84.6886 51.33 86.4537Z" fill="#3F3A31"/>
<path d="M86.8185 115.547C86.7713 115.539 86.7713 115.539 86.7245 115.531C86.4499 115.437 56.921 104.85 44.6023 86.493C44.4926 86.2813 44.4849 86.0381 44.7043 85.8813C45.7792 84.9482 46.7989 84.0542 47.819 83.1602C47.9915 82.9957 48.2818 82.9957 48.4387 83.2154C48.5564 83.3803 62.9853 98.6548 92.3353 103.649C92.4764 103.673 92.5627 103.736 92.6413 103.846C92.7196 103.955 92.5752 104.18 92.5047 104.313C91.7903 106.564 90.888 108.589 89.9385 110.51C89.1931 112.079 87.9559 113.657 87.0144 114.951C86.9352 115.131 86.9596 115.57 86.8185 115.547ZM45.5983 86.3207C57.1484 103.195 83.4617 113.342 86.7479 114.519C87.6422 113.217 88.7565 111.468 89.4705 110.088C90.3414 108.347 91.0949 106.441 91.7229 104.418C64.7495 99.6745 50.3828 86.3451 48.14 84.1328C47.2458 84.8542 46.4454 85.5913 45.5983 86.3207Z" fill="#2D1D1D"/>
<path d="M82.9093 91.1447C63.4736 87.9012 54.1178 78.4556 54.0396 78.3459C53.9613 78.2362 53.9299 78.1342 53.8984 78.0322C53.9219 77.8911 53.9376 77.7968 54.0476 77.7185C59.7354 72.6212 63.4697 69.0845 63.5166 69.0925C63.6263 69.0142 63.7363 68.9356 63.8774 68.9594L94.4196 73.1855C94.6551 73.2246 94.8588 73.4523 94.8196 73.6874C94.7805 73.9229 94.5528 74.1266 94.3176 74.0874L63.9637 69.8928C63.2186 70.5908 59.8371 73.751 55.0044 78.072C57.2315 80.0883 70.0852 90.8916 94.6278 91.3593C94.871 91.3516 94.8508 91.5675 94.8585 91.8106C94.8661 92.0538 94.8629 92.2693 94.6198 92.277C90.3921 92.1032 86.4862 91.7417 82.9093 91.1447Z" fill="#2D1D1D"/>
<path d="M26.353 95.2517C24.5564 97.6122 18.9713 99.7761 16.7911 98.638C12.1012 95.1468 30.496 88.107 26.353 95.2517Z" fill="#332E25"/>
<path d="M43.9529 89.7171C44.4598 89.3386 45.0493 89.2716 45.27 89.567C45.4907 89.8624 45.2588 90.409 44.7523 90.7872C44.2455 91.1657 43.6559 91.2327 43.4352 90.9373C43.2142 90.6419 43.4461 90.0956 43.9529 89.7171Z" fill="#F9C710"/>
<path d="M42.5433 91.8583C42.7941 92.0938 42.645 92.6977 42.2293 93.1603C41.7664 93.6151 41.2095 93.764 40.9584 93.5285C40.7076 93.2931 40.8567 92.6891 41.2724 92.2265C41.6961 91.7168 42.3001 91.5757 42.5433 91.8583Z" fill="#F9C710"/>
<path d="M44.5364 91.8016C44.7481 91.9822 44.6304 92.3976 44.2852 92.727C43.9401 93.0564 43.5321 93.1818 43.3752 92.9621C43.1635 92.7815 43.2813 92.3661 43.6264 92.0367C43.9715 91.7073 44.3247 91.621 44.5364 91.8016Z" fill="#F9C710"/>
<path d="M79.4828 122.981C76.4548 125.474 73.0108 127.56 69.4259 129.042C69.4259 129.042 48.2737 119.272 38.5744 102.61C37.7042 101.159 36.9437 99.6295 36.2852 98.0683L38.7332 93.543C38.7332 93.543 39.2192 95.2687 41.0854 97.9987C44.9984 103.827 55.0518 114.308 79.4828 122.981Z" fill="#332E25"/>
<path d="M41.0385 97.9889C41.0385 97.9889 39.7125 99.8475 38.5276 102.601C37.6573 101.149 36.8968 99.6197 36.2383 98.0585L38.6864 93.5332C38.6864 93.5332 39.2272 95.2198 41.0385 97.9889Z" fill="#3F3A31"/>
<path d="M69.3072 129.46C69.26 129.453 69.2132 129.445 69.1661 129.437C68.8995 129.296 43.8648 117.572 35.8213 98.2357C35.7899 98.1337 35.7588 98.0317 35.8213 97.9454C35.829 97.8983 35.829 97.8983 35.837 97.8515L38.2851 93.3261C38.3557 93.1927 38.5206 93.0753 38.7088 93.1067C38.9048 93.091 39.0306 93.2087 39.1008 93.3656C39.0931 93.4127 39.1399 93.4204 39.1322 93.4676C39.1245 93.5147 40.4179 97.6484 45.9543 103.313C51.1301 108.53 61.137 116.101 79.5839 122.662C79.7173 122.733 79.8427 122.851 79.8661 123C79.8895 123.149 79.299 123.218 79.1813 123.343C75.9961 125.907 73.3479 127.485 69.763 128.967C69.7316 128.865 69.4012 129.476 69.3072 129.46ZM36.7705 98.0555C44.4457 116.121 67.135 127.405 69.4172 128.511C72.6412 127.163 75.7007 125.352 78.5404 123.116C60.3838 116.556 50.4238 108.992 45.2951 103.783C41.1152 99.5541 39.3513 96.2124 38.6533 94.5963L36.7705 98.0555Z" fill="#2D1D1D"/>
<path d="M56.5311 116.152C55.7478 112.152 50.2647 113.994 51.4326 117.72C51.9487 125.352 46.104 131.1 39.5774 133.977C37.0123 135.726 42.8537 145.939 45.6072 144.222C47.1831 143.274 46.0354 139.08 44.0184 136.313C45.3785 135.607 46.7337 134.637 47.7329 134.009C48.2881 133.66 48.8318 133.292 49.3354 132.872C54.1899 128.824 57.0668 122.454 56.5311 116.152Z" fill="#332E25"/>
<path d="M40.7699 137.271C41.6006 139.828 43.8668 143.35 45.6079 144.221C44.3762 144.935 42.0629 143.146 40.4555 140.314C38.9264 137.592 38.5662 134.823 39.5782 133.976C39.7588 133.764 39.9782 133.607 40.2371 133.505C42.0099 132.737 43.6651 131.804 45.1085 130.691C46.552 129.577 47.8385 128.244 48.8586 126.77C50.6003 124.158 51.5815 120.888 51.433 117.719C51.4956 117.923 52.7494 123.743 50.2308 127.531C47.971 130.927 44.0487 133.271 41.7585 134.243C41.4447 134.384 41.1859 134.486 40.927 134.588C40.3076 134.824 40.323 135.89 40.7699 137.271Z" fill="#3F3A31"/>
<path d="M44.929 144.902C43.4814 144.902 41.834 143.213 40.6414 141.384C39.06 138.96 37.4 134.881 39.3086 133.58C39.333 133.563 39.3586 133.549 39.3856 133.537C44.0379 131.486 51.7122 126.458 50.8369 115.825C50.8151 115.56 51.012 115.328 51.277 115.306C51.5451 115.289 51.7741 115.481 51.796 115.746C52.7172 126.938 44.7103 132.23 39.8196 134.397C38.8964 135.102 39.646 138.096 41.4475 140.859C42.9194 143.116 44.5255 144.331 45.3547 143.814C45.5827 143.676 45.7338 143.418 45.8098 143.042C46.1117 141.549 45.1346 138.658 43.6315 136.597C43.5488 136.483 43.5199 136.34 43.5517 136.203C43.5837 136.067 43.6739 135.951 43.7983 135.886C44.7472 135.393 45.696 134.768 46.5332 134.216C46.8722 133.992 47.1901 133.783 47.4788 133.601C48.1306 133.192 48.6085 132.853 49.029 132.502C53.8739 128.463 56.5654 122.214 56.0535 116.193C56.031 115.928 56.2273 115.695 56.4923 115.673C56.7553 115.648 56.9898 115.847 57.0125 116.111C57.5505 122.44 54.7277 129.004 49.6455 133.241C49.1907 133.62 48.6804 133.983 47.9907 134.416C47.7078 134.594 47.3957 134.8 47.0628 135.019C46.3449 135.492 45.5468 136.018 44.7228 136.48C46.2275 138.743 47.0903 141.565 46.7532 143.232C46.6211 143.884 46.3199 144.356 45.8573 144.634C45.5625 144.818 45.2508 144.902 44.929 144.902Z" fill="#2D1D1D"/>
<path d="M57.3877 80.0168C48.8538 80.7209 40.6095 84.0373 33.6823 89.0242C30.976 90.7493 28.8811 93.4469 26.3002 95.2897C24.5196 95.8148 22.8728 93.5085 24.2694 92.0968C28.4355 87.423 33.4484 83.4708 39.0178 80.5304C44.5796 77.6371 51.0978 75.9678 57.4124 75.232C61.0752 74.7313 61.0505 79.8061 57.3877 80.0168Z" fill="#332E25"/>
<path d="M27.0982 95.1341C27.0042 95.1184 26.918 95.0555 26.8785 95.0007C26.714 94.8281 26.6668 94.5301 26.8394 94.3652C28.832 92.2793 31.0443 90.3265 33.4134 88.5937C40.7249 83.3322 49.0318 80.2198 57.3697 79.5315C57.6129 79.5238 57.8246 79.7041 57.8794 79.9552C57.8871 80.1984 57.7068 80.4101 57.4557 80.4649C49.2669 81.1298 41.1557 84.2265 33.9623 89.3626C31.6479 91.0562 29.4905 92.9696 27.5059 95.0087C27.3885 95.1341 27.2394 95.1578 27.0982 95.1341Z" fill="#2D1D1D"/>
<path d="M55.6388 75.4199C55.4348 75.4825 41.8177 79.1113 34.6236 84.8279C30.2147 88.349 27.4218 90.8817 25.8763 92.3168C24.8957 93.2657 24.4249 93.7677 24.4249 93.7677C24.4249 93.7677 17.8675 95.0918 16.7371 98.6763C16.4234 98.5272 16.2194 98.2997 16.0705 98.0329C15.9608 97.8211 15.9528 97.578 16 97.2954C16.212 96.0249 17.9849 94.3858 20.448 93.249C21.758 92.6453 23.0209 92.3239 24.1035 92.2145C24.1583 92.1754 24.174 92.0811 24.2289 92.0419C28.395 87.3681 33.4079 83.4159 38.9773 80.4755C44.0611 77.8411 49.9439 76.2109 55.6388 75.4199Z" fill="#3F3A31"/>
<path d="M24.2075 92.4739C24.1135 92.4582 24.0192 92.4425 23.9801 92.3877C23.8155 92.2151 23.7684 91.9171 23.9409 91.7522C28.1776 86.9449 33.1825 83.0399 38.7991 80.1075C45.3728 76.6577 52.5108 75.3336 57.3424 74.7854C57.5856 74.7777 57.7973 74.958 57.8521 75.2091C57.8598 75.4523 57.6796 75.664 57.4284 75.7188C52.6516 76.2276 45.6076 77.5674 39.191 80.9466C33.6765 83.8476 28.6372 87.9124 24.4715 92.5862C24.4086 92.6725 24.3958 92.5054 24.2075 92.4739Z" fill="#2D1D1D"/>
<path d="M17.4994 99.3355C16.6051 99.1864 15.9934 98.7941 15.7034 98.2135C15.5623 97.8998 15.5154 97.6018 15.578 97.2252C15.8214 95.7664 17.712 94.0019 20.3243 92.8416C21.6343 92.238 22.952 91.8774 24.1286 91.7834C24.3717 91.7757 24.5834 91.956 24.6383 92.2072C24.646 92.4503 24.4657 92.662 24.2146 92.7169C23.132 92.8266 21.9163 93.1557 20.716 93.6808C18.1508 94.849 16.6836 96.3938 16.5188 97.3821C16.4873 97.5704 16.5108 97.7192 16.5893 97.8292C17.0204 98.7235 19.5227 98.8024 22.4487 97.5011C24.5979 96.465 26.9603 94.1882 27.1248 94.0705C27.2974 93.9059 27.3436 94.2549 27.5085 94.4275C27.673 94.6001 27.6811 94.8429 27.5085 95.0078C27.3359 95.1723 25.2118 97.366 22.8327 98.3877C20.7885 99.2656 18.8171 99.5552 17.4994 99.3355Z" fill="#2D1D1D"/>
<path d="M94.3833 22.7263C95.0063 20.8566 95.7036 19.0994 96.5039 17.3147C97.2481 15.5672 98.0856 13.8383 99.0168 12.1286C99.9011 10.4093 100.916 8.76537 101.969 7.1779C103.021 5.59012 104.214 4.03088 105.435 2.57493C105.688 2.28561 106.081 2.26796 106.371 2.52137C106.623 2.71864 106.687 3.1212 106.48 3.41983C105.353 4.89502 104.31 6.43597 103.398 8.05199C102.486 9.668 101.611 11.3405 100.829 13.0319C100.048 14.7232 99.36 16.4336 98.7095 18.2003C98.0683 19.9203 97.455 21.7432 97.0008 23.501L96.9911 23.5478C96.8019 24.2397 96.0802 24.6775 95.3883 24.4883C94.6964 24.299 94.2585 23.5773 94.4478 22.8854C94.3737 22.7732 94.3737 22.7731 94.3833 22.7263Z" fill="#332E25"/>
<path d="M70.5258 23.9453C70.2117 22.1666 69.804 20.3367 69.3486 18.5051C68.8915 16.721 68.3388 14.9334 67.7386 13.1438C67.1385 11.3543 66.4392 9.65649 65.6925 7.95708C64.9457 6.25767 64.0521 4.64775 63.0632 3.03431C62.8836 2.74113 62.9952 2.31548 63.2884 2.13585C63.5815 1.9559 63.9594 2.06592 64.1887 2.31355C65.2749 3.88273 66.3093 5.54558 67.1994 7.25076C68.0892 8.95594 68.9296 10.7067 69.627 12.4523C70.3702 14.2473 71.0181 16.0384 71.6164 17.8758C72.2146 19.7128 72.7176 21.5466 73.1695 23.4734C73.3328 24.1958 72.8767 24.8947 72.2018 25.0599C71.4794 25.2232 70.7805 24.7671 70.6153 24.0922C70.5219 24.0405 70.5219 24.0405 70.5258 23.9453Z" fill="#332E25"/>
<path d="M95.7206 24.9657C95.5724 24.9657 95.4223 24.9461 95.2731 24.9054C94.8276 24.7835 94.4516 24.4961 94.2143 24.0958C94.0061 23.7452 93.9285 23.3474 93.9888 22.9583C93.9503 22.8717 93.931 22.7732 93.9577 22.6408C93.9612 22.6231 93.9654 22.6061 93.9711 22.5891C94.5716 20.7874 95.2705 19.0043 96.1077 17.1371C96.8519 15.3892 97.7035 13.6318 98.6354 11.9208C99.4174 10.3998 100.363 8.81358 101.607 6.93807C102.6 5.43946 103.776 3.87765 105.102 2.29628C105.308 2.06116 105.576 1.92741 105.865 1.91169C106.152 1.89629 106.43 1.99733 106.655 2.19524C107.076 2.52339 107.165 3.19026 106.836 3.66595C105.632 5.24122 104.635 6.74016 103.774 8.26443C102.8 9.9911 101.941 11.6562 101.222 13.2129C100.508 14.7567 99.8193 16.4369 99.1149 18.3493C98.3762 20.3313 97.8216 22.0512 97.419 23.6088L97.4149 23.6326C97.1942 24.4428 96.4859 24.9657 95.7206 24.9657ZM94.8439 22.7117C94.8831 22.8015 94.8908 22.9032 94.8645 22.9991C94.8048 23.2175 94.8385 23.4501 94.9594 23.6537C95.0816 23.86 95.2741 24.0079 95.5018 24.0698C95.9544 24.1939 96.4442 23.902 96.5728 23.4327L96.5754 23.4151C96.9908 21.8049 97.5541 20.057 98.3031 18.0484C99.0148 16.1158 99.7128 14.4144 100.435 12.8494C101.164 11.2716 102.034 9.58566 103.02 7.83845C103.9 6.2789 104.92 4.74725 106.136 3.15625C106.199 3.06323 106.175 2.91825 106.103 2.86179C106.029 2.79764 105.969 2.7723 105.911 2.77647C105.843 2.78032 105.791 2.82362 105.759 2.85987C104.46 4.40948 103.304 5.94498 102.329 7.41697C101.103 9.26521 100.173 10.8251 99.4007 12.3266C98.4772 14.0222 97.6381 15.7546 96.9013 17.4842C96.0965 19.2795 95.4239 20.9888 94.8439 22.7117Z" fill="#2D1D1D"/>
<path d="M71.9121 25.525C71.1701 25.525 70.4914 25.0592 70.2444 24.3567C70.1533 24.2705 70.0975 24.1569 70.094 23.9818C69.8072 22.3635 69.4262 20.6057 68.9299 18.6096C68.5238 17.025 68.0004 15.2814 67.3296 13.2817C66.8142 11.7449 66.1874 10.1568 65.2976 8.13152C64.6355 6.62456 63.8086 5.0772 62.6955 3.26071C62.3947 2.7693 62.5669 2.07132 63.0638 1.76691C63.5113 1.49234 64.1185 1.59883 64.5082 2.01935C64.522 2.03443 64.5348 2.05046 64.5464 2.06714C65.7268 3.77233 66.749 5.44896 67.585 7.05054C68.5947 8.98539 69.3947 10.6996 70.0308 12.2918C70.7374 13.9983 71.3918 15.7824 72.0298 17.7419C72.611 19.5267 73.1223 21.3695 73.5929 23.3749C73.8046 24.3125 73.2272 25.2555 72.3063 25.4807C72.1745 25.5105 72.0423 25.525 71.9121 25.525ZM70.945 23.8188C70.9889 23.8705 71.0232 23.9298 71.038 23.9895C71.1515 24.4546 71.632 24.7452 72.1081 24.6377C72.5658 24.5258 72.8564 24.0456 72.7489 23.5689C72.2848 21.5908 71.7799 19.7714 71.2064 18.0098C70.5754 16.072 69.9288 14.3082 69.2289 12.618C68.6015 11.0482 67.8133 9.35972 66.8174 7.45118C66.0029 5.89098 65.0063 4.25572 63.8551 2.58999C63.7608 2.49953 63.6149 2.44533 63.5167 2.50499C63.4256 2.5608 63.3817 2.72247 63.4343 2.80811C64.5682 4.6586 65.4124 6.23933 66.0908 7.78285C66.9919 9.83285 67.6273 11.4437 68.1511 13.0062C68.8286 15.0257 69.3581 16.7893 69.77 18.3976C70.2707 20.4113 70.655 22.1842 70.945 23.8188Z" fill="#2D1D1D"/>
<path d="M79.93 81.5414C79.359 81.4975 78.8358 81.457 78.2649 81.4131C57.7988 79.9777 42.746 74.7489 44.1849 54.2354C45.6204 33.7693 66.7504 11.0906 83.1729 12.2139C84.1718 12.2909 85.211 12.467 86.2465 12.6903C86.7148 12.8221 87.1869 12.9065 87.6514 13.0858C102.979 17.8571 117.205 40.6321 115.861 59.2868C114.419 79.2258 99.6057 82.6766 79.93 81.5414Z" fill="#F9C710"/>
<path d="M79.9297 81.5415C79.9297 81.5415 88.9608 81.7118 100.43 76.9501C111.895 72.2358 116.668 53.7979 108.932 36.8356C101.237 19.972 87.6957 13.1369 87.6043 13.082C102.932 17.8534 117.158 40.6283 115.814 59.283C114.419 79.2259 99.6054 82.6767 79.9297 81.5415Z" fill="#F8A01F"/>
<path d="M79.93 81.5414C79.359 81.4975 78.8358 81.457 78.2649 81.4131C57.7988 79.9777 42.746 74.7489 44.1849 54.2354C45.6204 33.7693 66.7504 11.0906 83.1729 12.2139C84.1718 12.2909 85.211 12.467 86.2465 12.6903C86.2465 12.6903 77.5271 10.3426 64.1201 22.8508C50.7131 35.359 45.605 51.3302 46.7992 61.9023C47.9427 72.5176 61.0928 78.8441 79.93 81.5414Z" fill="#FFD95F"/>
<path d="M77.3225 81.8176C65.9059 80.9368 58.0718 78.8968 52.7446 75.3754C45.9575 70.928 43.0466 64.004 43.7038 54.2447C44.405 44.5368 49.6072 33.5493 57.6962 24.8422C65.7853 16.135 75.3004 11.2703 83.1531 11.8285C83.2005 11.832 83.2483 11.8358 83.2483 11.8358C91.2402 12.4523 99.999 18.6312 106.715 28.3372C113.387 37.9919 116.941 49.6071 116.233 59.4103C115.528 69.1657 111.633 75.6125 104.332 79.0687C98.4221 81.8667 90.1191 82.8053 78.1754 81.9315C77.9409 81.8651 77.6555 81.8433 77.3225 81.8176ZM83.2297 12.6955C83.1822 12.692 83.1344 12.6881 83.1344 12.6881C66.9535 11.5353 46.072 34.0902 44.6588 54.2704C43.1646 75.4973 59.9268 79.6618 78.2996 80.9359C96.6723 82.21 113.886 80.523 115.384 59.2487C116.074 49.6835 112.549 38.3098 106.012 28.7613C99.4678 19.3077 90.9836 13.2937 83.2297 12.6955Z" fill="#A55A0F"/>
<path d="M69.0866 50.5342C71.1333 45.8777 70.4844 41.0884 67.6373 39.837C64.7902 38.5856 60.8229 41.3459 58.7762 46.0023C56.7295 50.6588 57.3784 55.4481 60.2255 56.6995C63.0727 57.951 67.0399 55.1906 69.0866 50.5342Z" fill="white"/>
<path d="M61.354 57.4723C60.8783 57.4358 60.4574 57.3075 60.0404 57.1317C58.5146 56.4398 57.4868 54.877 57.1763 52.6997C56.9098 50.5737 57.287 48.1621 58.3304 45.8023C60.4796 40.8956 64.7175 38.0645 67.8202 39.4043C69.3461 40.0962 70.3739 41.659 70.6844 43.8363C70.9509 45.9623 70.5737 48.3739 69.5303 50.7337C68.4903 53.0461 66.9972 55.0364 65.2294 56.24C63.9156 57.1435 62.5908 57.5676 61.354 57.4723ZM59.1609 46.2013C58.1797 48.3748 57.8134 50.6433 58.0947 52.5791C58.3359 54.4161 59.1882 55.7739 60.392 56.2974C61.6433 56.8247 63.1474 56.5578 64.7137 55.4823C66.3313 54.3628 67.715 52.5557 68.6959 50.3822C69.6768 48.2087 70.0435 45.9402 69.7622 44.0044C69.5209 42.1674 68.6687 40.8096 67.4648 40.2861C64.8272 39.1256 61.0829 41.7555 59.1609 46.2013Z" fill="#A55A0F"/>
<path d="M60.7183 48.2333C61.9908 45.3381 64.4501 43.6185 66.2111 44.3925C67.9721 45.1665 68.3679 48.1409 67.0954 51.0365C65.823 53.9317 63.3637 55.6513 61.6027 54.8773C59.8417 54.1033 59.4459 51.1285 60.7183 48.2333Z" fill="#22213F"/>
<path d="M65.1692 47.0959C64.935 47.6521 64.2505 47.8385 63.6468 47.6005C63.0467 47.315 62.7141 46.6671 62.9447 46.1586C63.1788 45.6024 63.8634 45.4161 64.467 45.6541C65.1182 45.8956 65.4037 46.5397 65.1692 47.0959Z" fill="white"/>
<path d="M107.145 57.7456C110.133 56.8878 111.418 52.2298 110.015 47.3418C108.612 42.4537 105.052 39.1866 102.064 40.0444C99.0751 40.9022 97.7897 45.5602 99.1928 50.4483C100.596 55.3363 104.156 58.6034 107.145 57.7456Z" fill="white"/>
<path d="M105.837 58.3213C102.983 58.1009 99.9723 54.9498 98.7328 50.5473C98.0124 48.0992 97.9656 45.6072 98.5038 43.5908C99.0972 41.4831 100.309 40.0454 101.923 39.5957C103.536 39.146 105.311 39.7134 106.968 41.1813C108.534 42.5942 109.803 44.7498 110.476 47.1943C111.196 49.6424 111.243 52.1344 110.705 54.1507C110.112 56.2585 108.9 57.6961 107.286 58.1459C106.792 58.347 106.313 58.3579 105.837 58.3213ZM103.298 40.372C102.918 40.3425 102.534 40.3607 102.189 40.4778C100.916 40.8583 99.9129 42.0727 99.393 43.851C98.8656 45.7242 98.9272 48.0261 99.6111 50.3279C100.928 54.9754 104.275 58.1048 107.016 57.3115C108.289 56.9311 109.292 55.7167 109.812 53.9384C110.34 52.0651 110.278 49.7633 109.594 47.4615C108.91 45.1597 107.769 43.2053 106.342 41.851C105.358 40.9615 104.297 40.449 103.298 40.372Z" fill="#A55A0F"/>
<path d="M105.425 55.5376C107.274 55.0069 108.065 52.1128 107.193 49.0735C106.321 46.0342 104.115 44.0006 102.266 44.5313C100.417 45.062 99.6252 47.956 100.498 50.9954C101.37 54.0347 103.576 56.0683 105.425 55.5376Z" fill="#22213F"/>
<path d="M103.194 47.9732C103.007 48.5329 102.363 48.8184 101.708 48.6244C101.053 48.4303 100.669 47.8263 100.856 47.2666C101.042 46.7068 101.687 46.4213 102.342 46.6154C102.949 46.8059 103.333 47.4096 103.194 47.9732Z" fill="white"/>
<path d="M69.1187 35.5794C66.762 36.3547 64.5812 36.0907 64.2338 35.011C63.8864 33.9313 65.5335 32.4314 67.8863 31.7039C70.243 30.9287 72.4238 31.1926 72.7712 32.2723C73.1225 33.3042 71.4753 34.8041 69.1187 35.5794Z" fill="#F8A01F"/>
<path d="M66.1319 36.4505C64.9425 36.3588 64.0681 35.9084 63.7938 35.1216C63.5596 34.4336 63.9112 33.5992 64.7346 32.8493C65.4557 32.1872 66.5537 31.6018 67.7318 31.2144C70.4288 30.3698 72.7928 30.7435 73.213 32.1157C73.4472 32.8038 73.0957 33.6381 72.2723 34.388C71.5512 35.0501 70.4532 35.6355 69.275 36.0229C68.1007 36.3633 67.0358 36.5204 66.1319 36.4505ZM70.8535 31.6945C70.0923 31.6358 69.0787 31.7491 68.0468 32.1C66.9671 32.4474 66.0193 32.9484 65.4008 33.5229C64.8847 34.0095 64.6066 34.5144 64.7272 34.8108C64.9575 35.5463 66.8529 35.7881 69.0598 35.0972C70.1395 34.7498 71.0873 34.2488 71.7058 33.6743C72.2219 33.1877 72.5 32.6828 72.3794 32.3864C72.2184 31.9913 71.6622 31.7571 70.8535 31.6945Z" fill="#A55A0F"/>
<path d="M98.1715 36.1471C95.7895 35.3891 94.1796 33.9252 94.502 32.8493C94.8243 31.7735 97.0492 31.4668 99.3837 32.2209C101.766 32.9789 103.376 34.4429 103.053 35.5187C102.731 36.5946 100.554 36.9054 98.1715 36.1471Z" fill="#F8A01F"/>
<path d="M100.114 37.0132C99.4481 36.9619 98.7417 36.8117 98.0393 36.6138C96.8245 36.2331 95.767 35.673 95.0061 34.992C94.1535 34.2562 93.8356 33.4184 94.0332 32.7159C94.2311 32.0134 94.9849 31.5451 96.0974 31.3918C97.0635 31.275 98.2965 31.4178 99.5151 31.751C102.227 32.5825 103.917 34.244 103.477 35.598C103.279 36.3004 102.525 36.7688 101.413 36.9221C101.021 37.0356 100.59 37.0501 100.114 37.0132ZM97.3669 32.3031C96.9387 32.27 96.5544 32.2883 96.218 32.3101C95.4934 32.3977 94.9958 32.6466 94.9224 32.9757C94.8015 33.3013 95.0979 33.8027 95.6358 34.2748C96.2613 34.8496 97.2274 35.3545 98.3029 35.6769C99.3788 35.9992 100.469 36.1311 101.34 36.0069C102.065 35.9194 102.562 35.6705 102.636 35.3414C102.881 34.6424 101.454 33.2881 99.255 32.6402C98.6 32.4461 97.9854 32.3509 97.3669 32.3031Z" fill="#A55A0F"/>
<path d="M74.9825 14.8699C75.8498 14.5562 76.6983 14.7035 76.8776 15.1994C77.0569 15.6949 76.4991 16.3512 75.6317 16.6649C74.7644 16.9786 73.916 16.8314 73.7367 16.3355C73.5573 15.8399 74.1152 15.1836 74.9825 14.8699Z" fill="#F4B503"/>
<path d="M70.1712 17.1708C70.9789 16.7259 71.8399 16.7393 72.0942 17.2009C72.3486 17.6625 71.8998 18.3974 71.0918 18.8426C70.2842 19.2875 69.4229 19.274 69.1689 18.8124C68.9145 18.3508 69.3632 17.616 70.1712 17.1708Z" fill="#F4B503"/>
<path d="M74.9286 17.9896C75.0932 18.3373 74.8151 18.8422 74.2149 19.1787C73.6148 19.5151 72.9963 19.4673 72.8279 19.1674C72.6634 18.8197 72.9415 18.3148 73.5416 17.9784C74.0943 17.638 74.7166 17.6383 74.9286 17.9896Z" fill="#F4B503"/>
<path d="M79.7505 63.3898C77.8952 63.2467 76.4097 62.6536 75.1989 61.6031C72.1073 58.8763 72.5731 54.079 72.5878 53.8888C72.6061 53.6508 72.8586 53.4791 73.0966 53.4974C73.3346 53.5157 73.5062 53.7682 73.4879 54.0062C73.4844 54.0536 73.044 58.518 75.8247 60.9337C77.6614 62.5587 80.5521 62.9253 84.3541 62.0224C84.5992 61.9457 84.8263 62.1067 84.9029 62.3518C84.9796 62.5969 84.8186 62.824 84.5735 62.9006C82.7657 63.3831 81.1776 63.4998 79.7505 63.3898Z" fill="#A55A0F"/>
<path d="M57.907 1.33718C61.1355 0.680893 63.9781 1.25859 64.2565 2.62729C64.5346 3.99599 62.143 5.63767 58.9145 6.29395C55.686 6.95023 52.8434 6.37254 52.565 5.00383C52.2869 3.63481 54.6785 1.99346 57.907 1.33718Z" fill="#332E25"/>
<path d="M56.3358 6.99792C55.6924 6.99792 55.0864 6.94307 54.5424 6.83208C53.1622 6.55141 52.3076 5.93266 52.1364 5.08969C51.8002 3.43487 54.2415 1.63891 57.8155 0.912699C59.4325 0.584236 61.0138 0.543177 62.2683 0.798506C63.6486 1.07917 64.5031 1.69793 64.6744 2.5409C65.0109 4.19572 62.5692 5.99136 58.9953 6.71789C58.0798 6.90394 57.1756 6.99792 56.3358 6.99792ZM57.9877 1.76144C54.7936 2.41067 52.7875 3.94585 52.9848 4.91712C53.0797 5.38415 53.7264 5.78254 54.715 5.98366C55.8582 6.21622 57.3173 6.17548 58.8227 5.86947C62.0169 5.22024 64.0229 3.68506 63.8257 2.71379C63.7307 2.24676 63.084 1.84837 62.0955 1.64725C60.9522 1.41502 59.4934 1.45543 57.9877 1.76144Z" fill="#2D1D1D"/>
<path d="M105.202 2.86171C105.614 1.52733 108.5 1.23415 111.647 2.20671C114.794 3.17959 117.011 5.04965 116.598 6.38403C116.186 7.71841 113.3 8.01158 110.153 7.03903C107.006 6.06647 104.789 4.19609 105.202 2.86171Z" fill="#332E25"/>
<path d="M113.646 8.0476C112.542 8.0476 111.286 7.8436 110.025 7.45387C108.449 6.96663 107.042 6.24394 106.063 5.4183C104.987 4.50989 104.534 3.55722 104.788 2.7351C105.287 1.12198 108.289 0.717171 111.774 1.79462C113.35 2.28186 114.758 3.00454 115.736 3.83019C116.813 4.73859 117.266 5.69126 117.012 6.51338C116.758 7.3355 115.846 7.86637 114.445 8.00879C114.19 8.03477 113.923 8.0476 113.646 8.0476ZM108.144 2.0631C106.744 2.0631 105.79 2.42749 105.616 2.99107C105.475 3.44591 105.851 4.10605 106.622 4.75624C107.514 5.50875 108.813 6.17305 110.281 6.62661C111.749 7.0805 113.197 7.2659 114.358 7.14754C115.361 7.04553 116.044 6.71322 116.184 6.25806C116.325 5.80289 115.949 5.14276 115.178 4.49257C114.286 3.74006 112.987 3.07575 111.519 2.62219C110.258 2.23214 109.097 2.0631 108.144 2.0631Z" fill="#2D1D1D"/>
</svg>
