<svg width="40" height="40" viewBox="0 0 40 40" fill="none" xmlns="http://www.w3.org/2000/svg">
<rect width="40" height="40" rx="2" fill="#FED931"/>
<path d="M31.5505 23.5768C31.5505 23.2233 31.3037 23.0465 30.8102 23.0465H15.612C15.2395 23.0465 14.8414 23.1551 14.4176 23.3723C13.9939 23.5894 13.661 23.8546 13.4189 24.1677L9.31199 29.6677C9.14438 29.9102 9.06057 30.1122 9.06057 30.2738C9.06057 30.6273 9.30735 30.8041 9.80091 30.8041H24.9991C25.3716 30.8041 25.7721 30.693 26.2004 30.4708C26.6288 30.2485 26.9594 29.9809 27.1922 29.6677L31.2991 24.1677C31.4667 23.9455 31.5505 23.7485 31.5505 23.5768L31.5505 23.5768ZM15.612 21.1071H26.3401V18.6829C26.3401 18.2788 26.2097 17.9354 25.949 17.6526C25.6882 17.3698 25.3716 17.2283 24.9991 17.2283H16.953C16.5805 17.2283 16.2639 17.0869 16.0031 16.8041C15.7424 16.5213 15.612 16.1778 15.612 15.7738V14.8041C15.612 14.4001 15.4816 14.0566 15.2208 13.7738C14.9601 13.491 14.6435 13.3496 14.271 13.3496H9.80091C9.42841 13.3496 9.11178 13.491 8.85103 13.7738C8.59027 14.0566 8.4599 14.4001 8.4599 14.8041V27.7283L12.0359 22.9556C12.4457 22.4203 12.9858 21.9784 13.6563 21.6299C14.3268 21.2814 14.9787 21.1072 15.612 21.1072V21.1071ZM33.3385 23.5768C33.3385 24.2031 33.1244 24.8092 32.696 25.395L28.5751 30.895C28.1747 31.4304 27.6346 31.8723 26.9547 32.2208C26.2749 32.5692 25.623 32.7435 24.9991 32.7435H9.80091C8.94415 32.7435 8.20846 32.4102 7.59382 31.7435C6.97919 31.0768 6.67188 30.2788 6.67188 29.3496V14.8041C6.67188 13.8748 6.97919 13.0768 7.59382 12.4102C8.20846 11.7435 8.94415 11.4102 9.80091 11.4102H14.271C15.1277 11.4102 15.8634 11.7435 16.4781 12.4102C17.0927 13.0768 17.4 13.8748 17.4 14.8041V15.289H24.9991C25.8559 15.289 26.5916 15.6223 27.2062 16.2889C27.8208 16.9556 28.1282 17.7536 28.1282 18.6829V21.1071H30.8102C31.3131 21.1071 31.774 21.2309 32.1931 21.4783C32.6122 21.7258 32.9241 22.0819 33.129 22.5465C33.2687 22.8697 33.3385 23.2132 33.3385 23.5768Z" fill="#000522"/>
</svg>
