<svg width="22" height="23" viewBox="0 0 22 23" fill="none" xmlns="http://www.w3.org/2000/svg">
<g clip-path="url(#clip0_12635_14119)">
<path d="M11 1.71777C12.7726 1.71777 14.5068 2.20641 16.011 3.11271L15.1407 3.2662C14.7901 3.32798 14.556 3.66228 14.6179 4.01286C14.6797 4.3634 15.014 4.5975 15.3645 4.53566L17.7683 4.11178C18.1188 4.04999 18.3529 3.71569 18.2911 3.36511L17.8673 0.961437C17.8054 0.610898 17.4711 0.376805 17.1206 0.438637H17.1206C16.77 0.500469 16.5359 0.834766 16.5978 1.1853L16.7509 2.05392C15.0299 0.998262 13.0373 0.428711 11 0.428711C8.0618 0.428711 5.29946 1.57293 3.2218 3.65051C1.14417 5.72818 0 8.49051 0 11.4287C0 11.7847 0.288578 12.0732 0.644531 12.0732C1.00048 12.0732 1.28906 11.7847 1.28906 11.4287C1.28906 6.07407 5.64536 1.71777 11 1.71777Z" fill="white"/>
<path d="M21.3557 10.7842C20.9998 10.7842 20.7112 11.0728 20.7112 11.4287C20.7112 16.7833 16.3549 21.1396 11.0003 21.1396C9.22769 21.1396 7.49368 20.651 5.98956 19.7447L6.85955 19.5913C7.21009 19.5295 7.44418 19.1952 7.38235 18.8446C7.32052 18.4941 6.98626 18.26 6.63568 18.3218L4.23192 18.7457C3.88139 18.8075 3.64729 19.1418 3.70912 19.4923L4.13297 21.896C4.1948 22.2465 4.5291 22.4806 4.87964 22.4188C5.23017 22.357 5.46431 22.0227 5.40248 21.6721L5.24917 20.8026C6.97037 21.8586 8.96278 22.4287 11.0003 22.4287C13.9385 22.4287 16.7008 21.2845 18.7785 19.2069C20.8561 17.1292 22.0003 14.3669 22.0003 11.4287C22.0003 11.0728 21.7117 10.7842 21.3557 10.7842Z" fill="white"/>
</g>
<g clip-path="url(#clip1_12635_14119)">
<path d="M10.999 18.9597C10.9301 18.9597 10.864 18.9323 10.8153 18.8836C10.7666 18.8349 10.7393 18.7689 10.7393 18.7V17.6611C10.7393 17.5922 10.7666 17.5261 10.8153 17.4774C10.864 17.4287 10.9301 17.4014 10.999 17.4014C11.0679 17.4014 11.1339 17.4287 11.1826 17.4774C11.2313 17.5261 11.2587 17.5922 11.2587 17.6611V18.7C11.2587 18.7689 11.2313 18.8349 11.1826 18.8836C11.1339 18.9323 11.0679 18.9597 10.999 18.9597Z" fill="#737373"/>
<path d="M9.88497 6.03345C9.826 6.03341 9.76881 6.01331 9.72278 5.97644C9.67676 5.93958 9.64465 5.88815 9.63174 5.83061C9.57613 5.52572 9.45099 5.23775 9.26605 4.98907C9.0811 4.74038 8.84132 4.53767 8.56532 4.39669C8.50279 4.3701 8.45317 4.32006 8.4271 4.25732C8.40103 4.19457 8.40059 4.1241 8.42587 4.06103C8.45116 3.99796 8.50015 3.94731 8.56234 3.91995C8.62453 3.89258 8.69497 3.89067 8.75855 3.91464C9.11337 4.08638 9.42303 4.33885 9.6627 4.65182C9.90237 4.96478 10.0654 5.32954 10.1387 5.71685C10.1464 5.75023 10.1474 5.7848 10.1416 5.81857C10.1359 5.85233 10.1235 5.88463 10.1053 5.91359C10.087 5.94256 10.0632 5.96763 10.0352 5.98735C10.0072 6.00708 9.97554 6.02107 9.94211 6.02852C9.92329 6.03218 9.90414 6.03384 9.88497 6.03345Z" fill="#737373"/>
<path d="M12.1139 6.0334C12.0946 6.03335 12.0755 6.03126 12.0567 6.02717C12.0233 6.01971 11.9917 6.00572 11.9637 5.986C11.9357 5.96627 11.9118 5.94121 11.8936 5.91224C11.8753 5.88327 11.8629 5.85098 11.8572 5.81721C11.8514 5.78345 11.8524 5.74888 11.8601 5.7155C11.9334 5.32818 12.0965 4.96343 12.3361 4.65046C12.5758 4.3375 12.8855 4.08503 13.2403 3.91329C13.2721 3.89976 13.3063 3.89272 13.3408 3.89258C13.3754 3.89244 13.4096 3.89919 13.4415 3.91245C13.4735 3.92571 13.5024 3.94521 13.5267 3.9698C13.551 3.99439 13.5701 4.02358 13.583 4.05566C13.5958 4.08774 13.6022 4.12207 13.6016 4.15662C13.601 4.19118 13.5935 4.22527 13.5796 4.25691C13.5657 4.28854 13.5456 4.31708 13.5205 4.34085C13.4954 4.36462 13.4659 4.38314 13.4335 4.39533C13.1572 4.53587 12.9171 4.73845 12.7321 4.98721C12.5471 5.23597 12.4222 5.52417 12.3671 5.82926C12.3544 5.88703 12.3224 5.93876 12.2764 5.97588C12.2303 6.013 12.173 6.03329 12.1139 6.0334Z" fill="#737373"/>
<path d="M13.6201 8.82785C13.7752 8.50435 13.8559 8.15029 13.8565 7.79156C13.8565 6.35789 12.5786 5.19434 10.9995 5.19434C9.42041 5.19434 8.14258 6.35789 8.14258 7.79156C8.14314 8.15029 8.22389 8.50435 8.37893 8.82785H13.6201Z" fill="#737373"/>
<path d="M13.4802 16.103C12.8309 17.2302 11.9609 17.921 10.9999 17.921C10.0389 17.921 9.16884 17.2302 8.51953 16.103L8.66238 15.8433H13.3374L13.4802 16.103Z" fill="#F2C91C"/>
<path d="M14.0673 14.0253L14.0439 14.8591C13.8936 15.2898 13.705 15.7061 13.4803 16.1031H8.51959C8.2949 15.7061 8.10628 15.2898 7.95599 14.8591L7.93262 14.0253L8.14299 13.7656H13.8569L14.0673 14.0253Z" fill="#737373"/>
<path d="M14.1239 11.9472L14.0668 14.025H7.93214L7.875 11.9472L8.14251 11.6875H13.8564L14.1239 11.9472Z" fill="#F2C91C"/>
<path d="M14.1816 9.86959L14.1244 11.9474H7.8755L7.81836 9.86959L8.14301 9.60986H13.8569L14.1816 9.86959Z" fill="#737373"/>
<path d="M14.1893 9.54498L14.1815 9.86963H7.81834L7.81055 9.54498C8.14497 9.00171 8.61469 8.55456 9.17374 8.24726C9.7328 7.93996 10.362 7.78304 10.9999 7.79186C11.6378 7.78304 12.2671 7.93996 12.8261 8.24726C13.3852 8.55456 13.8549 9.00171 14.1893 9.54498Z" fill="#F2C91C"/>
<path d="M9.76437 10.0772C9.55399 12.077 9.00572 13.4434 8.39277 14.3706C8.16906 14.7116 7.85125 14.9804 7.47785 15.1444C7.10445 15.3084 6.6915 15.3606 6.28904 15.2946C5.88659 15.2286 5.51191 15.0473 5.21042 14.7727C4.90893 14.4981 4.69357 14.1419 4.59044 13.7473C4.5855 13.7317 4.58031 13.7135 4.57486 13.698C4.48108 13.3382 4.48432 12.96 4.58423 12.6019C4.68415 12.2438 4.87717 11.9186 5.14365 11.6594C6.75938 10.0985 7.88138 9.4463 8.5564 9.17645C8.75597 9.09447 8.97881 9.08913 9.18208 9.16148C9.38535 9.23382 9.55471 9.37873 9.65762 9.56837C9.7428 9.72366 9.77996 9.90074 9.76437 10.0772Z" fill="white"/>
<path d="M12.2359 10.0772C12.4463 12.077 12.9945 13.4434 13.6075 14.3706C13.8312 14.7116 14.149 14.9804 14.5224 15.1444C14.8958 15.3084 15.3088 15.3606 15.7112 15.2946C16.1137 15.2286 16.4884 15.0473 16.7898 14.7727C17.0913 14.4981 17.3067 14.1419 17.4098 13.7473C17.4148 13.7317 17.4199 13.7135 17.4254 13.698C17.5192 13.3382 17.5159 12.96 17.416 12.6019C17.3161 12.2438 17.1231 11.9186 16.8566 11.6594C15.2409 10.0985 14.1189 9.4463 13.4439 9.17645C13.2443 9.09447 13.0215 9.08913 12.8182 9.16148C12.6149 9.23382 12.4455 9.37873 12.3426 9.56837C12.2575 9.72366 12.2203 9.90074 12.2359 10.0772Z" fill="white"/>
</g>
<defs>
<clipPath id="clip0_12635_14119">
<rect width="22" height="22" fill="white" transform="translate(0 0.428711)"/>
</clipPath>
<clipPath id="clip1_12635_14119">
<rect width="15.5833" height="15.5833" fill="white" transform="translate(3.20801 3.63623)"/>
</clipPath>
</defs>
</svg>
