<svg width="20" height="20" viewBox="0 0 20 20" fill="none" xmlns="http://www.w3.org/2000/svg">
<path d="M19.792 4.00015C19.7859 3.98383 19.7793 3.96969 19.7721 3.95409C19.7634 3.9356 19.7579 3.91638 19.7478 3.89861C19.7235 3.858 19.693 3.82246 19.6611 3.78909C19.6582 3.78619 19.656 3.78257 19.6535 3.78003C19.6024 3.7289 19.5422 3.69155 19.478 3.66181C19.4646 3.65456 19.4504 3.64984 19.4363 3.6444C19.3677 3.61866 19.2952 3.60016 19.2198 3.60016H13.4629V1.59659C13.4629 1.25644 13.1866 0.980469 12.8464 0.980469H6.98983C6.64932 0.980469 6.37299 1.25644 6.37299 1.59659V3.60016H0.616483C0.54323 3.60016 0.472879 3.61757 0.406517 3.64186C0.390561 3.64767 0.37533 3.65347 0.360099 3.66108C0.295187 3.69082 0.234989 3.72853 0.183857 3.77894C0.182769 3.7793 0.181681 3.78003 0.180593 3.78075C0.177692 3.78366 0.176241 3.78837 0.17334 3.79127C0.142153 3.82427 0.112417 3.85908 0.0884833 3.89861C0.0772416 3.91747 0.0714397 3.93778 0.0627364 3.957C0.0554836 3.97259 0.0485929 3.98746 0.0424281 4.00378C0.0177687 4.0705 0.00217572 4.13977 0.00145044 4.21012C0.00145044 4.21229 0 4.21411 0 4.21628V18.403C0 18.7432 0.276329 19.0191 0.616483 19.0191H17.4722C18.7755 19.0191 19.8359 17.9588 19.8359 16.6555V4.21701C19.8359 4.21483 19.8344 4.21266 19.8344 4.21048C19.8337 4.13904 19.8178 4.06833 19.792 4.00015ZM7.60596 2.21271H12.2296V3.5998H7.60596V2.21271ZM18.1946 4.83349L15.766 9.41505H12.0022H7.83405H4.06952L1.64093 4.83313L18.1946 4.83349ZM11.2501 10.648C11.0162 11.1503 10.5071 11.4995 9.91777 11.4995C9.32848 11.4995 8.82007 11.1503 8.58616 10.648H11.2501ZM18.6029 16.6558C18.6029 17.2792 18.096 17.7862 17.4726 17.7862H1.23297V6.696L3.15386 10.3202C3.26156 10.5222 3.4708 10.648 3.6989 10.648H7.29554C7.57586 11.8396 8.64201 12.7321 9.91777 12.7321C11.1943 12.7321 12.2604 11.8396 12.5407 10.648H16.137C16.3655 10.648 16.5747 10.5218 16.682 10.3202L18.6029 6.696V16.6558Z" fill="#475569"/>
</svg>
