<svg width="30" height="20" viewBox="0 0 30 20" fill="none" xmlns="http://www.w3.org/2000/svg">
<path d="M12.8332 1.45703C8.94515 1.45703 5.79325 4.4288 5.79325 8.09468C5.79654 8.61498 5.86469 9.13312 5.99632 9.63841H5.9921C3.43989 9.80803 1.46126 11.8094 1.46094 14.2217C1.46094 16.7596 3.64303 18.817 6.33478 18.817H22.5809C25.8708 18.817 28.5379 16.3024 28.5379 13.2006C28.5379 10.0987 25.8709 7.58409 22.5809 7.58409C21.6382 7.58364 20.7087 7.79417 19.8689 8.19839C19.8706 8.16383 19.8722 8.12926 19.8732 8.09468C19.8732 4.4288 16.7213 1.45703 12.8332 1.45703Z" stroke="white" stroke-width="1.5" stroke-linecap="round" stroke-linejoin="round"/>
</svg>
