<svg width="22" height="23" viewBox="0 0 22 23" fill="none" xmlns="http://www.w3.org/2000/svg">
<g id="dashboard (1)">
<g id="Group">
<g id="Icon">
<g id="Group_2">
<g id="Group_3">
<path id="Vector" fill-rule="evenodd" clip-rule="evenodd" d="M3.21062 18.9912C6.21225 18.9912 15.7898 18.9912 18.7914 18.983C19.6488 18.983 20.4181 18.4474 20.7157 17.641C20.7171 17.6382 20.7178 17.6355 20.7185 17.6327C21.1028 16.5526 21.3125 15.3901 21.3125 14.1787C21.3125 8.4869 16.6918 3.86621 11 3.86621C5.30819 3.86621 0.6875 8.4869 0.6875 14.1787C0.6875 15.388 0.896499 16.5485 1.27119 17.6307C1.27256 17.6348 1.27394 17.6396 1.276 17.6437C1.57506 18.4536 2.34781 18.9912 3.21131 18.9912H3.21062ZM3.21062 17.6162C2.92737 17.6162 2.67369 17.443 2.57056 17.1796C2.24331 16.2336 2.0625 15.2271 2.0625 14.1787C2.0625 9.2459 6.06719 5.24121 11 5.24121C15.9328 5.24121 19.9375 9.2459 19.9375 14.1787C19.9375 15.2265 19.7567 16.2323 19.4253 17.1666C19.3256 17.432 19.0726 17.608 18.7894 17.608C18.7887 17.608 18.788 17.608 18.7873 17.608C15.7871 17.6162 6.21156 17.6162 3.21062 17.6162Z" fill="white"/>
</g>
<g id="Group_4">
<path id="Vector_2" fill-rule="evenodd" clip-rule="evenodd" d="M4.93625 15.4169C4.85513 15.0168 4.8125 14.6029 4.8125 14.1787C4.8125 10.7639 7.58519 7.99121 11 7.99121C11.8793 7.99121 12.7167 8.17477 13.4743 8.50684C13.8222 8.65877 14.2278 8.49996 14.3797 8.15209C14.5317 7.80421 14.3729 7.39859 14.0257 7.24665C13.0989 6.84171 12.0752 6.61621 11 6.61621C6.82619 6.61621 3.4375 10.0049 3.4375 14.1787C3.4375 14.6964 3.48975 15.2024 3.58944 15.6905C3.66506 16.0625 4.02806 16.3031 4.4 16.2275C4.77194 16.1518 5.01188 15.7888 4.93625 15.4169Z" fill="white"/>
</g>
<g id="Group_5">
<path id="Vector_3" fill-rule="evenodd" clip-rule="evenodd" d="M16.6719 11.7043C17.004 12.4619 17.1875 13.2993 17.1875 14.1786C17.1875 14.6028 17.1449 15.0167 17.0638 15.4168C16.9881 15.7887 17.2281 16.1517 17.6 16.2274C17.972 16.303 18.335 16.0624 18.4106 15.6904C18.5103 15.2023 18.5625 14.6963 18.5625 14.1786C18.5625 13.1034 18.337 12.0797 17.9321 11.1529C17.7801 10.8057 17.3745 10.6469 17.0266 10.7989C16.6788 10.9508 16.52 11.3564 16.6719 11.7043Z" fill="white"/>
</g>
</g>
<path id="Vector_4" fill-rule="evenodd" clip-rule="evenodd" d="M11.8889 12.3176L15.3746 8.83195C15.6427 8.56383 16.0786 8.56383 16.3467 8.83195C16.6148 9.10008 16.6148 9.53595 16.3467 9.80408L12.8611 13.2897C12.9903 13.5585 13.0625 13.8603 13.0625 14.1786C13.0625 15.3171 12.1385 16.2411 11 16.2411C9.8615 16.2411 8.9375 15.3171 8.9375 14.1786C8.9375 13.0401 9.8615 12.1161 11 12.1161C11.3183 12.1161 11.6201 12.1883 11.8889 12.3176ZM11 13.4911C11.3795 13.4911 11.6875 13.7991 11.6875 14.1786C11.6875 14.5581 11.3795 14.8661 11 14.8661C10.6205 14.8661 10.3125 14.5581 10.3125 14.1786C10.3125 13.7991 10.6205 13.4911 11 13.4911Z" fill="#FACF39"/>
</g>
</g>
</g>
</svg>
