<svg width="21" height="12" viewBox="0 0 21 12" fill="none" xmlns="http://www.w3.org/2000/svg">
<g clip-path="url(#clip0_4047_742)">
<path d="M1 4.5L4 5.5L7 4.5V6.5H4H1V4.5Z" fill="#36D928"/>
<path d="M1 6L4 7L7 6L6.5 9L4 9.5L1.5 9L1 6Z" fill="#28D98F"/>
<path d="M1.14453 3.85728C1.14453 4.23616 1.44555 4.59953 1.98137 4.86744C2.51719 5.13534 3.24391 5.28585 4.00167 5.28585C4.75944 5.28585 5.48616 5.13534 6.02198 4.86744C6.5578 4.59953 6.85882 4.23616 6.85882 3.85728C6.85882 3.4784 6.5578 3.11504 6.02198 2.84713C5.48616 2.57922 4.75944 2.42871 4.00167 2.42871C3.24391 2.42871 2.51719 2.57922 1.98137 2.84713C1.44555 3.11504 1.14453 3.4784 1.14453 3.85728Z" stroke="#1187FC" stroke-width="0.6" stroke-linecap="round" stroke-linejoin="round"/>
<path d="M1.14453 3.85693V5.7617C1.14453 6.01428 1.44555 6.25652 1.98137 6.43513C2.51719 6.61374 3.24391 6.71408 4.00167 6.71408C4.75944 6.71408 5.48616 6.61374 6.02198 6.43513C6.5578 6.25652 6.85882 6.01428 6.85882 5.7617V3.85693" stroke="#1187FC" stroke-width="0.6" stroke-linecap="round" stroke-linejoin="round"/>
<path d="M1.14453 5.28564V8.14279C1.14453 8.52167 1.44555 8.88503 1.98137 9.15294C2.51719 9.42085 3.24391 9.57136 4.00167 9.57136C4.75944 9.57136 5.48616 9.42085 6.02198 9.15294C6.5578 8.88503 6.85882 8.52167 6.85882 8.14279V5.28564" stroke="#1187FC" stroke-width="0.6" stroke-linecap="round" stroke-linejoin="round"/>
</g>
<path d="M16.24 8.375V7.575H17.848C18.1307 7.575 18.3493 7.487 18.504 7.311C18.6587 7.135 18.736 6.93233 18.736 6.703C18.736 6.54833 18.7013 6.40433 18.632 6.271C18.5627 6.13767 18.4613 6.031 18.328 5.951C18.1947 5.871 18.0347 5.831 17.848 5.831H16.24V5.031H17.712C17.952 5.031 18.144 4.96967 18.288 4.847C18.432 4.72433 18.504 4.543 18.504 4.303C18.504 4.063 18.432 3.88167 18.288 3.759C18.144 3.63633 17.952 3.575 17.712 3.575H16.24V2.775H17.736C18.1147 2.775 18.4293 2.84433 18.68 2.983C18.9307 3.12167 19.1173 3.30033 19.24 3.519C19.3627 3.73767 19.424 3.97233 19.424 4.223C19.424 4.51633 19.3413 4.775 19.176 4.999C19.016 5.223 18.7787 5.40433 18.464 5.543L18.536 5.255C18.888 5.399 19.1627 5.60167 19.36 5.863C19.5573 6.12433 19.656 6.431 19.656 6.783C19.656 7.071 19.584 7.335 19.44 7.575C19.3013 7.815 19.0933 8.00967 18.816 8.159C18.544 8.303 18.208 8.375 17.808 8.375H16.24ZM15.608 8.375V2.775H16.528V8.375H15.608Z" fill="#28D98F"/>
<path d="M10.24 8.375V7.535H11.712C12.096 7.535 12.432 7.45233 12.72 7.287C13.0133 7.12167 13.24 6.89233 13.4 6.599C13.5653 6.30033 13.648 5.95633 13.648 5.567C13.648 5.183 13.5653 4.84433 13.4 4.551C13.2347 4.25767 13.0053 4.02833 12.712 3.863C12.424 3.69767 12.0907 3.615 11.712 3.615H10.24V2.775H11.736C12.1413 2.775 12.5173 2.847 12.864 2.991C13.2107 3.12967 13.512 3.327 13.768 3.583C14.0293 3.83367 14.232 4.12967 14.376 4.471C14.52 4.807 14.592 5.175 14.592 5.575C14.592 5.96967 14.52 6.33767 14.376 6.679C14.232 7.02033 14.032 7.319 13.776 7.575C13.52 7.82567 13.2187 8.023 12.872 8.167C12.5253 8.30567 12.152 8.375 11.752 8.375H10.24ZM9.608 8.375V2.775H10.528V8.375H9.608Z" fill="#36D928"/>
<defs>
<clipPath id="clip0_4047_742">
<rect width="8" height="10" fill="white" transform="translate(0 1)"/>
</clipPath>
</defs>
</svg>
