<svg width="22" height="23" viewBox="0 0 22 23" fill="none" xmlns="http://www.w3.org/2000/svg">
<g id="home (1)">
<path id="Vector" d="M18.1339 8.14631L18.1339 8.14632C18.7836 8.68352 19.1654 9.51106 19.1654 10.3897V16.7555C19.1654 18.3333 17.9627 19.5955 16.4987 19.5955H14.6654H14.6594H14.6535H14.6476H14.6417H14.6358H14.6298H14.6239H14.618H14.6122H14.6063H14.6004H14.5945H14.5886H14.5827H14.5769H14.571H14.5652H14.5593H14.5535H14.5476H14.5418H14.536H14.5301H14.5243H14.5185H14.5127H14.5069H14.5011H14.4953H14.4895H14.4837H14.4779H14.4721H14.4664H14.4606H14.4548H14.4491H14.4433H14.4376H14.4319H14.4261H14.4204H14.4147H14.409H14.4033H14.3976H14.3919H14.3862H14.3805H14.3748H14.3691H14.3634H14.3578H14.3521H14.3465H14.3408H14.3352H14.3296H14.3239H14.3183H14.3127H14.3071H14.3015H14.2959H14.2903H14.2847H14.2791H14.2735H14.268H14.2624H14.2569H14.2513H14.2458H14.2402H14.2347H14.2292H14.2237H14.2182H14.2127H14.2072H14.2017H14.1962H14.1907H14.1853H14.1798H14.1743H14.1689H14.1635H14.158H14.1526H14.1472H14.1418H14.1364H14.131H14.1256H14.1202H14.1148H14.1094H14.1041H14.0987H14.0934H14.088H14.0827H14.0774H14.072H14.0667H14.0614H14.0561H14.0508H14.0455H14.0403H14.035H14.0297H14.0245H14.0192H14.014H14.0088H14.0035H13.9983H13.9931H13.9879H13.9827H13.9775H13.9724H13.9672H13.962H13.9569H13.9517H13.9466H13.9415H13.9364H13.9312H13.9261H13.921H13.9159H13.9109H13.9058H13.9007H13.8957H13.8906H13.8856H13.8806H13.8755H13.8705H13.8655H13.8605H13.8555H13.8506H13.8456H13.8406H13.8357H13.832V15.781C13.832 14.1168 12.5602 12.7744 10.9987 12.7744C9.43717 12.7744 8.16536 14.1168 8.16536 15.781V19.5955H8.16171H8.15676H8.1518H8.14683H8.14185H8.13686H8.13186H8.12686H8.12184H8.11682H8.11179H8.10675H8.10171H8.09665H8.09159H8.08652H8.08144H8.07635H8.07125H8.06615H8.06103H8.05591H8.05078H8.04565H8.0405H8.03535H8.03019H8.02502H8.01985H8.01466H8.00947H8.00427H7.99906H7.99385H7.98862H7.98339H7.97815H7.97291H7.96765H7.96239H7.95712H7.95185H7.94656H7.94127H7.93597H7.93067H7.92536H7.92003H7.91471H7.90937H7.90403H7.89868H7.89332H7.88796H7.88259H7.87721H7.87182H7.86643H7.86103H7.85562H7.85021H7.84479H7.83936H7.83393H7.82849H7.82304H7.81758H7.81212H7.80666H7.80118H7.7957H7.79021H7.78472H7.77921H7.77371H7.76819H7.76267H7.75714H7.75161H7.74607H7.74052H7.73497H7.72941H7.72384H7.71827H7.71269H7.7071H7.70151H7.69591H7.69031H7.6847H7.67909H7.67346H7.66784H7.6622H7.65656H7.65092H7.64526H7.63961H7.63394H7.62827H7.6226H7.61692H7.61123H7.60554H7.59984H7.59414H7.58843H7.58271H7.57699H7.57126H7.56553H7.55979H7.55405H7.5483H7.54255H7.53679H7.53102H7.52525H7.51948H7.5137H7.50791H7.50212H7.49633H7.49052H7.48472H7.47891H7.47309H7.46727H7.46144H7.45561H7.44977H7.44393H7.43808H7.43223H7.42637H7.42051H7.41465H7.40878H7.4029H7.39702H7.39113H7.38524H7.37935H7.37345H7.36755H7.36164H7.35573H7.34981H7.34389H7.33796H7.33203H5.4987C4.03476 19.5955 2.83203 18.3333 2.83203 16.7555V10.3897C2.83203 9.51104 3.21375 8.68351 3.86347 8.14631L8.80068 4.06417C8.80068 4.06417 8.80069 4.06417 8.80069 4.06417C10.094 2.99489 11.9034 2.99488 13.1967 4.06416C13.1967 4.06417 13.1967 4.06417 13.1967 4.06418L18.1339 8.14631Z" stroke="white" stroke-width="2"/>
</g>
</svg>
