<svg width="22" height="23" viewBox="0 0 22 23" fill="none" xmlns="http://www.w3.org/2000/svg">
<g id="kubernetes_logo_icon_247883 1" clip-path="url(#clip0_12635_14078)">
<path id="Vector" d="M9.35324 13.5832L9.35965 13.5923L8.4439 15.8043C7.56515 15.2417 6.89656 14.4049 6.54182 13.4237L8.90499 13.0231L8.90865 13.0277C8.9804 13.0145 9.05438 13.021 9.12272 13.0465C9.19106 13.0721 9.25119 13.1157 9.29672 13.1727C9.34225 13.2297 9.37146 13.2979 9.38125 13.3702C9.39104 13.4425 9.38104 13.5161 9.35232 13.5832H9.35324ZM8.58965 11.6316C8.66001 11.6123 8.72383 11.5743 8.77431 11.5217C8.82479 11.469 8.86004 11.4037 8.87632 11.3326C8.89259 11.2614 8.88927 11.1872 8.86672 11.1179C8.84416 11.0485 8.80322 10.9865 8.74823 10.9386L8.75007 10.9285L6.95249 9.32068C6.40411 10.2133 6.16867 11.2631 6.28332 12.3044L8.58782 11.6398L8.58965 11.6316ZM9.63924 9.8166C9.69822 9.85964 9.76779 9.88587 9.84051 9.89248C9.91323 9.89909 9.98639 9.88583 10.0522 9.85411C10.1179 9.8224 10.1739 9.77343 10.214 9.71241C10.2541 9.6514 10.2769 9.58064 10.28 9.50768L10.2892 9.5031L10.4267 7.10143C9.38558 7.22313 8.41473 7.68823 7.66749 8.42326L9.63557 9.81935L9.63924 9.8166ZM10.3359 12.3374L10.9987 12.6573L11.6605 12.3393L11.8255 11.6243L11.3672 11.0532H10.6302L10.1718 11.6243L10.3359 12.3374ZM11.7109 9.50035C11.714 9.57338 11.7369 9.6442 11.7771 9.70523C11.8174 9.76626 11.8734 9.81521 11.9393 9.84684C12.0052 9.87848 12.0785 9.8916 12.1513 9.88482C12.2241 9.87804 12.2936 9.85161 12.3526 9.80835L12.3599 9.8111L14.3161 8.42418C13.5714 7.69492 12.6078 7.2305 11.5734 7.10235L11.7091 9.49943L11.7109 9.50035ZM21.6806 14.9728L16.3887 21.5554C16.2508 21.7259 16.0765 21.8633 15.8785 21.9576C15.6805 22.0518 15.4639 22.1005 15.2447 22.0999L6.7554 22.1027C6.53615 22.1028 6.31965 22.0539 6.12183 21.9593C5.92401 21.8648 5.7499 21.7271 5.61232 21.5563L0.317652 14.9747C0.18142 14.8043 0.0853691 14.6053 0.0366464 14.3927C-0.0120764 14.18 -0.0122168 13.9591 0.0362356 13.7463L1.92457 5.5376C2.02357 5.10676 2.31415 4.7456 2.71565 4.55401L10.3625 0.899263C10.5607 0.804537 10.7776 0.755371 10.9973 0.755371C11.217 0.755371 11.4339 0.804537 11.6321 0.899263L19.2817 4.55218C19.6832 4.74376 19.9737 5.10585 20.0727 5.53576L21.9629 13.7445C22.0619 14.1753 21.9583 14.6273 21.6806 14.9728ZM18.6657 13.0873C18.6272 13.0781 18.5712 13.0634 18.5327 13.0561C18.3732 13.0258 18.244 13.0332 18.0937 13.0213C17.7728 12.9873 17.5088 12.9598 17.2732 12.8856C17.177 12.8489 17.1082 12.7343 17.0752 12.6876L16.891 12.6335C16.9892 11.921 16.9566 11.1966 16.7947 10.4958C16.6326 9.78794 16.3418 9.11586 15.9367 8.5131C15.9844 8.47001 16.0742 8.39118 16.099 8.36735C16.1063 8.28485 16.0999 8.1996 16.1852 8.10885C16.3657 7.93926 16.5921 7.79901 16.8662 7.63035C16.9964 7.55335 17.1165 7.50476 17.2467 7.40851C17.276 7.38651 17.3163 7.35168 17.3475 7.32693C17.5675 7.15185 17.6179 6.85026 17.4602 6.65226C17.3026 6.45426 16.9964 6.43593 16.7773 6.61101C16.7462 6.63576 16.704 6.66785 16.6756 6.69168C16.5527 6.79801 16.4767 6.90251 16.3731 7.01251C16.1476 7.24168 15.9606 7.43235 15.7562 7.57076C15.6672 7.6221 15.5371 7.60468 15.4784 7.60101L15.3042 7.72476C14.3016 6.67261 12.9511 6.02018 11.5037 5.88868L11.4927 5.68426C11.4332 5.62743 11.3617 5.57885 11.3433 5.4551C11.3232 5.20943 11.3571 4.94451 11.3956 4.62551C11.4167 4.4761 11.4515 4.35235 11.4579 4.1901C11.4588 4.15343 11.457 4.09935 11.457 4.05993C11.457 3.77943 11.2517 3.55118 10.9987 3.55118C10.7466 3.55118 10.5412 3.77943 10.5412 4.05993L10.5422 4.07276C10.5422 4.11035 10.5403 4.1571 10.5422 4.1901C10.5477 4.35235 10.5825 4.4761 10.6036 4.62551C10.6421 4.94451 10.6751 5.20943 10.6549 5.45601C10.6289 5.54736 10.5774 5.6294 10.5064 5.69251L10.4954 5.88593C9.03873 6.0029 7.67759 6.65734 6.67657 7.72201C6.62106 7.68363 6.56605 7.64451 6.51157 7.60468C6.42907 7.61568 6.34657 7.64135 6.23932 7.5781C6.0349 7.4406 5.8479 7.24993 5.6224 7.02076C5.51882 6.91076 5.44365 6.80626 5.32082 6.70085C5.29332 6.67701 5.25024 6.64401 5.21907 6.62018C5.12844 6.54671 5.01662 6.5043 4.90007 6.49918C4.83086 6.4955 4.76175 6.5082 4.69836 6.53623C4.63497 6.56426 4.57909 6.60684 4.53524 6.66051C4.37757 6.85851 4.42799 7.16101 4.64799 7.3361L4.6544 7.34068L4.74974 7.41676C4.8799 7.51301 4.99907 7.56251 5.12924 7.6386C5.40332 7.80818 5.62974 7.94843 5.81032 8.1171C5.87999 8.19226 5.89282 8.32426 5.90199 8.3811L6.04865 8.51218C5.23863 9.72675 4.90567 11.1977 5.11365 12.6427L4.92299 12.6977C4.87257 12.7637 4.80107 12.8663 4.7259 12.8966C4.49032 12.9708 4.2254 12.9974 3.90549 13.0313C3.75515 13.0442 3.6259 13.0368 3.46549 13.0671C3.43157 13.0735 3.38299 13.0854 3.34357 13.0946L3.3399 13.0964L3.33349 13.0983C3.06307 13.1633 2.88982 13.4118 2.94574 13.6556C3.00165 13.9003 3.26565 14.0488 3.53699 13.9902L3.5434 13.9893L3.55257 13.9865L3.67082 13.9599C3.82665 13.9178 3.94032 13.8563 4.08149 13.8023C4.38399 13.6941 4.63515 13.6033 4.87899 13.5676C4.98165 13.5593 5.08982 13.6308 5.14299 13.6602L5.3419 13.6263C5.78993 15.0105 6.72896 16.183 7.9819 16.9226L7.8994 17.1224C7.92965 17.1994 7.96265 17.3048 7.93973 17.3809C7.85082 17.6119 7.69865 17.8548 7.5254 18.1262C7.44199 18.2508 7.35582 18.348 7.27974 18.4919C7.2614 18.5258 7.23849 18.579 7.22107 18.6148C7.10373 18.8668 7.1899 19.1565 7.41632 19.2656C7.64365 19.3756 7.92599 19.2592 8.04882 19.0071V19.0053C8.06715 18.9695 8.09099 18.9228 8.10565 18.8888C8.16982 18.7403 8.19182 18.6129 8.23765 18.469C8.35865 18.1647 8.42557 17.8457 8.5924 17.6468C8.63824 17.5918 8.71157 17.5716 8.78948 17.5505L8.89307 17.3626C10.252 17.8862 11.7563 17.8901 13.118 17.3736L13.2152 17.5496C13.294 17.5753 13.3802 17.5881 13.4498 17.6917C13.5745 17.9043 13.6597 18.1564 13.7633 18.4617C13.8092 18.6047 13.8312 18.7321 13.8962 18.8806C13.9109 18.9145 13.9357 18.9631 13.9531 18.9988C14.075 19.2518 14.3582 19.3673 14.5856 19.2573C14.812 19.1492 14.8982 18.8586 14.7808 18.6065C14.7625 18.5708 14.7396 18.5185 14.7212 18.4837C14.6452 18.3407 14.559 18.2444 14.4756 18.1188C14.3014 17.8475 14.1584 17.6229 14.0695 17.3919C14.0328 17.2728 14.0759 17.1994 14.1043 17.1224C14.0878 17.1023 14.0502 16.9904 14.0282 16.9373C15.2858 16.1919 16.2254 15.0102 16.6682 13.6171C16.7269 13.6263 16.8296 13.6446 16.8635 13.6519C16.9322 13.6061 16.9955 13.5474 17.1202 13.5566C17.364 13.5923 17.6152 13.6831 17.9177 13.7913C18.0588 13.8463 18.1716 13.9086 18.3283 13.9498C18.3613 13.959 18.409 13.9673 18.4475 13.9755L18.4557 13.9783L18.4622 13.9792C18.7344 14.0378 18.9975 13.8893 19.0534 13.6446C19.1084 13.4008 18.9361 13.1523 18.6657 13.0873ZM15.0329 9.3216L13.2454 10.9221V10.9267C13.1902 10.9746 13.149 11.0366 13.1263 11.1061C13.1036 11.1756 13.1002 11.2499 13.1165 11.3212C13.1328 11.3925 13.1681 11.458 13.2188 11.5107C13.2694 11.5635 13.3334 11.6014 13.404 11.6206L13.4067 11.6298L15.7222 12.2971C15.7725 11.7836 15.7391 11.2654 15.6232 10.7626C15.5067 10.2529 15.3073 9.76575 15.0329 9.32068V9.3216ZM11.3543 14.2028C11.3189 14.1361 11.2654 14.0807 11.1999 14.043C11.1343 14.0054 11.0595 13.9871 10.984 13.9902C10.9134 13.9928 10.8448 14.0139 10.7849 14.0514C10.7251 14.0889 10.6762 14.1414 10.643 14.2038H10.6412L9.47882 16.3048C10.467 16.6419 11.5389 16.6429 12.5277 16.3075L11.3635 14.2028H11.3543ZM13.085 13.0176C13.0011 13.0021 12.9144 13.0137 12.8375 13.0506C12.7433 13.0956 12.6702 13.1754 12.6336 13.2732C12.597 13.371 12.5998 13.4791 12.6413 13.5749L12.6386 13.5786L13.5644 15.8134C14.449 15.2487 15.1203 14.4052 15.472 13.4163L13.0887 13.013L13.085 13.0176Z" fill="white"/>
</g>
<defs>
<clipPath id="clip0_12635_14078">
<rect width="22" height="22" fill="white" transform="translate(0 0.428711)"/>
</clipPath>
</defs>
</svg>
