<svg width="19" height="12" viewBox="0 0 19 12" fill="none" xmlns="http://www.w3.org/2000/svg">
<path d="M0.05 3.80357C0.05 1.93764 1.56264 0.425 3.42857 0.425H6.80714V7.18214H3.42857C1.56264 7.18214 0.05 5.66951 0.05 3.80357Z" fill="#67E8F9" stroke="white" stroke-width="0.1"/>
<path d="M7.95 7.23228C7.95 5.36635 6.43736 3.85371 4.57143 3.85371H0.0500002V10.6109H4.57143C6.43736 10.6109 7.95 9.09822 7.95 7.23228Z" fill="#22D3EE" stroke="white" stroke-width="0.1"/>
<path d="M14.24 8.375V7.575H15.848C16.1307 7.575 16.3493 7.487 16.504 7.311C16.6587 7.135 16.736 6.93233 16.736 6.703C16.736 6.54833 16.7013 6.40433 16.632 6.271C16.5627 6.13767 16.4613 6.031 16.328 5.951C16.1947 5.871 16.0347 5.831 15.848 5.831H14.24V5.031H15.712C15.952 5.031 16.144 4.96967 16.288 4.847C16.432 4.72433 16.504 4.543 16.504 4.303C16.504 4.063 16.432 3.88167 16.288 3.759C16.144 3.63633 15.952 3.575 15.712 3.575H14.24V2.775H15.736C16.1147 2.775 16.4293 2.84433 16.68 2.983C16.9307 3.12167 17.1173 3.30033 17.24 3.519C17.3627 3.73767 17.424 3.97233 17.424 4.223C17.424 4.51633 17.3413 4.775 17.176 4.999C17.016 5.223 16.7787 5.40433 16.464 5.543L16.536 5.255C16.888 5.399 17.1627 5.60167 17.36 5.863C17.5573 6.12433 17.656 6.431 17.656 6.783C17.656 7.071 17.584 7.335 17.44 7.575C17.3013 7.815 17.0933 8.00967 16.816 8.159C16.544 8.303 16.208 8.375 15.808 8.375H14.24ZM13.608 8.375V2.775H14.528V8.375H13.608Z" fill="#22D3EE"/>
<path d="M11.168 8.455C10.7253 8.455 10.3493 8.375 10.04 8.215C9.73067 8.055 9.45333 7.82033 9.208 7.511L9.832 6.887C9.98667 7.111 10.1707 7.287 10.384 7.415C10.5973 7.53767 10.8693 7.599 11.2 7.599C11.5093 7.599 11.7547 7.535 11.936 7.407C12.1227 7.279 12.216 7.103 12.216 6.879C12.216 6.69233 12.168 6.54033 12.072 6.423C11.976 6.30567 11.848 6.20967 11.688 6.135C11.5333 6.055 11.36 5.98567 11.168 5.927C10.9813 5.863 10.792 5.79367 10.6 5.719C10.4133 5.639 10.24 5.54033 10.08 5.423C9.92533 5.30567 9.8 5.15367 9.704 4.967C9.608 4.78033 9.56 4.543 9.56 4.255C9.56 3.92433 9.64 3.64433 9.8 3.415C9.96533 3.18033 10.1867 3.00167 10.464 2.879C10.7413 2.75633 11.0507 2.695 11.392 2.695C11.76 2.695 12.088 2.767 12.376 2.911C12.6693 3.055 12.9067 3.239 13.088 3.463L12.464 4.087C12.304 3.90567 12.136 3.77233 11.96 3.687C11.7893 3.59633 11.592 3.551 11.368 3.551C11.0907 3.551 10.872 3.607 10.712 3.719C10.5573 3.831 10.48 3.98833 10.48 4.191C10.48 4.36167 10.528 4.50033 10.624 4.607C10.72 4.70833 10.8453 4.79633 11 4.871C11.16 4.94033 11.3333 5.007 11.52 5.071C11.712 5.135 11.9013 5.207 12.088 5.287C12.28 5.367 12.4533 5.471 12.608 5.599C12.768 5.72167 12.896 5.88167 12.992 6.079C13.088 6.27633 13.136 6.52433 13.136 6.823C13.136 7.32433 12.9573 7.72167 12.6 8.015C12.248 8.30833 11.7707 8.455 11.168 8.455Z" fill="#67E8F9"/>
</svg>
