<svg width="14" height="22" viewBox="0 0 20 21" fill="none" xmlns="http://www.w3.org/2000/svg">
<g id="tickets 1" clip-path="url(#clip0_12635_14145)">
<g id="Group">
<path id="Vector" d="M19.1556 13.9866C19.6607 13.791 20 13.2933 20 12.748V10.2251C20 9.4773 19.3916 8.86891 18.6438 8.86891H18.5054C18.9159 8.33745 18.878 7.56898 18.3908 7.08177L16.6069 5.29781C16.2213 4.91228 15.6295 4.80024 15.134 5.01906C14.8679 5.13663 14.5508 5.0773 14.3451 4.87153C14.1393 4.66573 14.08 4.34867 14.1975 4.08259C14.4163 3.58718 14.3043 2.99526 13.9187 2.60969L12.1348 0.825729C11.6061 0.297062 10.7457 0.296984 10.2169 0.825729L2.17376 8.86891H1.35616C0.608353 8.86891 0 9.4773 0 10.2251V12.748C0 13.2933 0.339333 13.791 0.844392 13.9865C1.11565 14.0916 1.29792 14.3577 1.29792 14.6487C1.29792 14.9397 1.11565 15.2059 0.844392 15.3109C0.339333 15.5066 0 16.0043 0 16.5495V19.0724C0 19.8202 0.608353 20.4286 1.35616 20.4286H18.6438C19.3916 20.4286 20 19.8202 20 19.0724V16.5495C20 16.0043 19.6607 15.5066 19.1556 15.3109C18.8844 15.2058 18.7021 14.9397 18.7021 14.6487C18.7021 14.3577 18.8844 14.0916 19.1556 13.9866ZM11.0488 1.65769C11.1189 1.58761 11.2329 1.58761 11.3029 1.65765L13.0868 3.44161C13.1315 3.48628 13.1453 3.55283 13.1213 3.6073C12.809 4.3144 12.9665 5.15679 13.5131 5.70341C14.0598 6.25008 14.9022 6.40753 15.6093 6.09526C15.6637 6.07126 15.7303 6.08506 15.775 6.12973L17.5589 7.91365C17.629 7.98373 17.629 8.09777 17.5589 8.16777L16.8578 8.86891H13.7926L8.81506 3.89138L11.0488 1.65769ZM7.98318 4.72326L12.1289 8.86891H3.83749L7.98318 4.72326ZM1.17647 19.0724V16.5495C1.17647 16.4864 1.21376 16.4295 1.26926 16.408C1.99008 16.1288 2.47435 15.4218 2.47435 14.6487C2.47435 13.8756 1.99004 13.1686 1.26918 12.8894C1.21373 12.868 1.17647 12.8111 1.17647 12.748V10.2251C1.17647 10.126 1.2571 10.0454 1.35616 10.0454H14.7059V19.2521H1.35616C1.2571 19.2521 1.17647 19.1715 1.17647 19.0724ZM18.8235 12.748C18.8235 12.8111 18.7863 12.868 18.7308 12.8895C18.01 13.1686 17.5256 13.8756 17.5256 14.6487C17.5256 15.4219 18.0099 16.1289 18.7307 16.408C18.7862 16.4295 18.8235 16.4864 18.8235 16.5495V19.0724C18.8235 19.1715 18.7429 19.2521 18.6438 19.2521H15.8824V10.0454H18.6438C18.7429 10.0454 18.8235 10.126 18.8235 10.2251V12.748Z" fill="#000"/>
<path id="Vector_2" d="M4.11719 11.605H12.9407V12.7815H4.11719V11.605Z" fill="#000"/>
<path id="Vector_3" d="M4.11719 13.9575H12.9407V15.134H4.11719V13.9575Z" fill="#000"/>
<path id="Vector_4" d="M4.11719 16.3105H12.9407V17.487H4.11719V16.3105Z" fill="#000"/>
</g>
</g>
<defs>
<clipPath id="clip0_12635_14145">
<rect width="20" height="20" fill="#000" transform="translate(0 0.428711)"/>
</clipPath>
</defs>
</svg>
