<svg width="24" height="22" viewBox="0 0 24 22" fill="none" xmlns="http://www.w3.org/2000/svg">
    <path d="M15.1417 0.0516704C14.7959 0.18251 15.665 -0.658602 6.03895 8.90204C0.599762 14.3038 0.954898 13.902 0.992281 14.5188C1.00163 14.7151 1.04836 14.8926 1.11378 15.0141C1.22592 15.2291 2.60909 16.659 2.81469 16.7711C2.99226 16.8646 3.16983 16.8272 3.47823 16.6122C4.30066 16.0795 5.16046 16.0889 5.88942 16.6403C6.45951 17.0702 6.75857 17.7337 6.7025 18.444C6.67446 18.8178 6.56231 19.1356 6.32867 19.4627C6.13241 19.7524 6.09503 19.8645 6.13241 20.0421C6.16979 20.2197 7.60903 21.6496 7.8894 21.8084C8.08566 21.9206 8.15108 21.9299 8.47818 21.9299C8.77724 21.9299 8.88004 21.9112 9.03892 21.8271C9.25387 21.715 12.4408 18.5748 12.5529 18.3692C12.6557 18.1823 12.6277 18.0141 12.4781 17.8646C12.3286 17.715 12.1604 17.6963 11.9735 17.7898C11.908 17.8272 11.1417 18.5655 10.2632 19.444C9.18845 20.5281 8.63705 21.0514 8.55294 21.0701C8.37538 21.1075 8.23519 21.014 7.6651 20.4346L7.1324 19.9019L7.26324 19.6402C7.47819 19.2103 7.58099 18.7711 7.58099 18.2758C7.58099 17.7617 7.50623 17.4533 7.27258 16.9861C6.97352 16.3786 6.54362 15.9487 5.90811 15.6496C5.45018 15.4253 5.14177 15.3599 4.6371 15.3599C4.19785 15.3599 3.83337 15.4534 3.37543 15.659L3.03899 15.8178L2.49694 15.2758C1.90816 14.6964 1.8147 14.5655 1.85208 14.3786C1.87078 14.2945 3.38478 12.7618 7.06698 9.10764C11.1884 5.00489 12.2725 3.95817 12.3286 3.98621C12.366 4.0049 12.4688 4.02359 12.5529 4.03293C12.7772 4.06097 12.9828 3.86471 12.9828 3.63107C12.9828 3.53761 12.9641 3.43481 12.9361 3.40677C12.908 3.3507 13.1604 3.07967 14.1043 2.12641C15.3473 0.874091 15.4501 0.808671 15.6557 0.911474C15.7117 0.939511 16.0108 1.21054 16.3099 1.51894L16.8706 2.07968L16.7304 2.36006C16.3286 3.18248 16.3472 4.17312 16.7865 5.02358C17.0201 5.48151 17.5715 6.01422 18.0482 6.23852C18.5435 6.4815 18.8425 6.55627 19.3659 6.55627C19.8612 6.55627 20.207 6.4815 20.6463 6.28524L20.936 6.14506L21.478 6.68711C22.0668 7.26654 22.1603 7.40673 22.1229 7.5843C22.1042 7.64972 21.6463 8.14504 20.8893 8.91138C19.7397 10.0609 19.6743 10.117 19.5902 10.0609C19.5435 10.0235 19.422 10.0048 19.3379 10.0048C19.0201 10.0048 18.8239 10.36 18.9827 10.6497C19.0388 10.7431 19.0295 10.7712 18.964 10.8833C18.7211 11.2758 19.1136 11.7057 19.5154 11.4908C19.5809 11.4534 20.3472 10.7058 21.2257 9.81792C23.0388 7.99551 23.0388 8.00485 23.0014 7.43476C22.992 7.23851 22.9453 7.06094 22.8799 6.93944C22.7677 6.72449 21.3846 5.2946 21.179 5.18245C21.0107 5.089 20.8238 5.12638 20.5435 5.32264C19.908 5.7432 19.1603 5.79927 18.4968 5.48152C18.3659 5.42544 18.1323 5.25722 17.9827 5.11703C17.2538 4.42545 17.1229 3.36004 17.6743 2.50024C17.8799 2.18249 17.9173 2.00492 17.8332 1.82735C17.7211 1.62175 16.3005 0.238584 16.0762 0.126436C15.8519 -0.00440369 15.3753 -0.0417865 15.1417 0.0516704Z" fill="#374151"/>
    <path d="M13.5021 4.55625C13.3619 4.70579 13.3432 4.87401 13.4367 5.06092C13.5021 5.18242 14.0161 5.70577 14.1937 5.81792C14.3619 5.93007 14.5488 5.90203 14.7077 5.76185C14.8198 5.65905 14.8385 5.60297 14.8385 5.45344C14.8385 5.27587 14.8198 5.24784 14.418 4.84597C14.0161 4.44411 13.9881 4.42542 13.8105 4.42542C13.661 4.42542 13.6049 4.45345 13.5021 4.55625Z" fill="#374151"/>
    <path d="M15.3638 6.41547C15.2237 6.55565 15.1956 6.72388 15.2797 6.90144C15.3452 7.04163 15.9246 7.61172 16.0554 7.68648C16.3638 7.8547 16.6909 7.65845 16.6909 7.31266C16.6909 7.13509 16.6722 7.10705 16.2704 6.70519C15.8779 6.31267 15.8311 6.28463 15.6723 6.28463C15.5321 6.27528 15.4666 6.30332 15.3638 6.41547Z" fill="#374151"/>
    <path d="M17.3212 8.17283C17.1343 8.26628 17.0409 8.556 17.1343 8.74291C17.1997 8.8831 17.7792 9.45319 17.91 9.52795C18.1904 9.67748 18.5081 9.5373 18.5642 9.22889C18.6016 9.05132 18.5081 8.91114 18.0782 8.49993C17.7511 8.18217 17.667 8.1261 17.5455 8.1261C17.4801 8.13544 17.3773 8.15414 17.3212 8.17283Z" fill="#374151"/>
    <path d="M17.3543 12.3696C16.3169 12.5658 15.4852 13.0051 14.7656 13.734C14.13 14.3602 13.7282 15.0798 13.4852 15.9676C13.3824 16.3508 13.373 16.463 13.373 17.1639C13.373 17.8742 13.3824 17.977 13.4852 18.3695C14.1394 20.79 16.5039 22.3321 18.9431 21.9395C20.0178 21.762 20.915 21.2853 21.6814 20.491C22.2141 19.9396 22.5412 19.3975 22.7748 18.6966C23.4384 16.706 22.7655 14.5564 21.0739 13.2667C20.6627 12.9583 19.9244 12.6032 19.3917 12.463C18.859 12.3135 17.859 12.2761 17.3543 12.3696ZM19.1113 13.2948C20.4384 13.6125 21.4945 14.5845 21.943 15.9022C22.2047 16.6686 22.186 17.7153 21.887 18.5284C21.6907 19.0611 21.4384 19.4442 20.9524 19.9209C20.4758 20.3975 20.0833 20.6592 19.5599 20.8554C18.7468 21.1452 17.7001 21.1732 16.9338 20.9115C15.1487 20.304 14.0272 18.5471 14.2422 16.7153C14.3543 15.7807 14.7282 15.0144 15.3824 14.3602C16.373 13.3602 17.7468 12.977 19.1113 13.2948Z" fill="#374151"/>
    <path d="M18.0144 14.5374C17.9677 14.5561 17.8929 14.6216 17.8462 14.6683C17.7621 14.7524 17.7621 14.8365 17.7434 15.7243L17.734 16.687L16.7714 16.6963C15.8275 16.7056 15.8088 16.7056 15.6967 16.8084C15.4724 17.0234 15.5191 17.3692 15.7995 17.5094C15.9303 17.5748 16.0798 17.5841 16.8462 17.5841H17.734V18.472C17.734 18.9673 17.7527 19.4159 17.7714 19.472C17.8368 19.7243 18.2107 19.8271 18.435 19.6682C18.6032 19.5374 18.6406 19.3411 18.6406 18.4346V17.5935L19.5845 17.5841L20.5284 17.5748L20.6592 17.4533C20.8275 17.2944 20.8555 17.1636 20.7714 16.9767C20.6592 16.7243 20.5377 16.6963 19.5191 16.6963H18.6406V15.8458C18.6406 14.9673 18.6125 14.7431 18.4723 14.6122C18.3789 14.5281 18.1359 14.4907 18.0144 14.5374Z" fill="#374151"/>
    </svg>
    