<svg width="20" height="24" viewBox="0 0 20 24" fill="none" xmlns="http://www.w3.org/2000/svg">
<g id="Group 40123">
<path id="Vector 61" d="M6.72743 2.79525C5.95399 3.25646 4.57897 9.26506 3.98814 12.2117C1.35627 12.5961 -1.65156 13.8241 2.69906 14.71C7.98429 15.7862 14.8916 15.0303 17.6846 14.5178C20.9073 13.557 19.296 13.1727 17.0401 12.2118C16.3955 2.41097 14.9453 1.64225 14.1396 1.44995C13.334 1.25791 12.6357 2.41095 12.206 3.17971C11.2392 5.48579 9.95013 5.87013 9.62786 5.67784C9.24548 5.44974 7.69424 2.21873 6.72743 2.79525Z" stroke="black"/>
<path id="Vector 62" d="M9.92385 18.1364C9.07266 17.221 4.24924 17.3736 1.94393 17.5643H1.7666V18.7084C2.47593 18.8991 2.83059 20.4247 2.83059 21.5689C2.83059 22.4843 3.53992 23.0946 3.89458 23.2853C4.6039 23.476 6.02256 23.476 7.08654 23.2853C10.2785 22.1411 9.56918 19.2805 10.1012 19.0898C10.5268 18.9373 10.8696 19.0263 10.9878 19.0898C11.6972 23.8574 15.2438 23.476 17.0171 23.2853C18.7904 23.0946 18.4358 20.6154 18.6131 19.8526C18.7549 19.2424 19.2633 18.8356 19.4997 18.7084V17.5643C12.2292 16.4202 12.2292 17.9456 11.5198 18.1364C10.8105 18.3273 10.9878 18.327 9.92385 18.1364Z" fill="black"/>
</g>
</svg>
