<svg width="24" height="24" viewBox="0 0 24 24" fill="none" xmlns="http://www.w3.org/2000/svg">
<rect x="0.35" y="0.35" width="23.3" height="23.3" rx="3.65" stroke="#FECACA" stroke-width="0.7"/>
<path d="M5.75 6.7716C5.75 6.34546 6.08635 6 6.50126 6H9.50629C9.9212 6 10.2576 6.34546 10.2576 6.7716V9.85802C10.2576 10.2842 9.9212 10.6296 9.50629 10.6296H6.50126C6.08635 10.6296 5.75 10.2842 5.75 9.85802V6.7716Z" stroke="#F87171" stroke-width="1.25" stroke-linecap="round" stroke-linejoin="round"/>
<path d="M5.75 14.4864C5.75 14.0603 6.08635 13.7148 6.50126 13.7148H9.50629C9.9212 13.7148 10.2576 14.0603 10.2576 14.4864V17.5729C10.2576 17.999 9.9212 18.3445 9.50629 18.3445H6.50126C6.08635 18.3445 5.75 17.999 5.75 17.5729V14.4864Z" stroke="#F87171" stroke-width="1.25" stroke-linecap="round" stroke-linejoin="round"/>
<path d="M13.2637 6.7716C13.2637 6.34546 13.6 6 14.0149 6H17.02C17.4349 6 17.7712 6.34546 17.7712 6.7716V9.85802C17.7712 10.2842 17.4349 10.6296 17.02 10.6296H14.0149C13.6 10.6296 13.2637 10.2842 13.2637 9.85802V6.7716Z" stroke="#F87171" stroke-width="1.25" stroke-linecap="round" stroke-linejoin="round"/>
<rect x="12.5703" y="8.00659" width="5.67951" height="13.3333" rx="2.83976" fill="white"/>
<path d="M15.4102 9.46924L15.4102 15.1421" stroke="#F87171" stroke-width="1.5" stroke-linecap="round"/>
<circle cx="15.4103" cy="18.9416" r="0.935733" fill="#F87171"/>
</svg>
