<svg width="24" height="24" viewBox="0 0 24 24" fill="none" xmlns="http://www.w3.org/2000/svg">
<rect x="0.35" y="0.35" width="23.3" height="23.3" rx="3.65" fill="#F8F8F8"/>
<rect x="0.35" y="0.35" width="23.3" height="23.3" rx="3.65" stroke="#EBEBEB" stroke-width="0.7"/>
<g clip-path="url(#clip0_28160_93469)">
<path fill-rule="evenodd" clip-rule="evenodd" d="M6.91587 7.99437H5V7.06104H6.91587C7.13018 6.06089 8.01918 5.31104 9.08333 5.31104C10.1475 5.31104 11.0365 6.06089 11.2508 7.06104H19V7.99437H11.2508C11.0365 8.99451 10.1475 9.74437 9.08333 9.74437C8.01918 9.74437 7.13018 8.99451 6.91587 7.99437ZM7.8 7.5277C7.8 6.81894 8.37456 6.24437 9.08333 6.24437C9.79209 6.24437 10.3667 6.81894 10.3667 7.5277C10.3667 8.23647 9.79209 8.81104 9.08333 8.81104C8.37456 8.81104 7.8 8.23647 7.8 7.5277ZM5 11.5333H12.3603C12.5747 10.5331 13.4637 9.78326 14.5278 9.78326C15.5919 9.78326 16.4809 10.5331 16.6952 11.5333H19V12.4666H16.6952C16.4809 13.4667 15.5919 14.2166 14.5278 14.2166C13.4637 14.2166 12.5747 13.4667 12.3603 12.4666H5V11.5333ZM14.5278 10.7166C13.819 10.7166 13.2445 11.2912 13.2445 11.9999C13.2445 12.7087 13.819 13.2833 14.5278 13.2833C15.2365 13.2833 15.8111 12.7087 15.8111 11.9999C15.8111 11.2912 15.2365 10.7166 14.5278 10.7166ZM11.2508 16.9388C11.0365 17.939 10.1475 18.6888 9.08333 18.6888C8.01918 18.6888 7.13018 17.939 6.91587 16.9388H5V16.0055H6.91587C7.13018 15.0053 8.01918 14.2555 9.08333 14.2555C10.1475 14.2555 11.0365 15.0053 11.2508 16.0055H19V16.9388H11.2508ZM7.8 16.4721C7.8 15.7634 8.37456 15.1888 9.08333 15.1888C9.79209 15.1888 10.3667 15.7634 10.3667 16.4721C10.3667 17.1809 9.79209 17.7555 9.08333 17.7555C8.37456 17.7555 7.8 17.1809 7.8 16.4721Z" fill="#9F9F9F"/>
</g>
<defs>
<clipPath id="clip0_28160_93469">
<rect width="14" height="14" fill="white" transform="translate(5 5)"/>
</clipPath>
</defs>
</svg>
