<svg width="24" height="24" viewBox="0 0 24 24" fill="none" xmlns="http://www.w3.org/2000/svg">
<rect x="0.35" y="0.35" width="23.3" height="23.3" rx="3.65" stroke="#FECACA" stroke-width="0.7"/>
<g clip-path="url(#clip0_29055_102448)">
<path d="M8.85 7.80781C8.57152 7.80781 8.30445 7.91844 8.10754 8.11535C7.91062 8.31226 7.8 8.57934 7.8 8.85781V15.1578C7.8 15.4363 7.91062 15.7034 8.10754 15.9003C8.30445 16.0972 8.57152 16.2078 8.85 16.2078H15.15C15.4285 16.2078 15.6955 16.0972 15.8925 15.9003C16.0894 15.7034 16.2 15.4363 16.2 15.1578V8.85781C16.2 8.57934 16.0894 8.31226 15.8925 8.11535C15.6955 7.91844 15.4285 7.80781 15.15 7.80781H8.85ZM8.85 6.75781H15.15C15.707 6.75781 16.2411 6.97906 16.6349 7.37289C17.0287 7.76671 17.25 8.30086 17.25 8.85781V15.1578C17.25 15.7148 17.0287 16.2489 16.6349 16.6427C16.2411 17.0366 15.707 17.2578 15.15 17.2578H8.85C8.29305 17.2578 7.7589 17.0366 7.36508 16.6427C6.97125 16.2489 6.75 15.7148 6.75 15.1578V8.85781C6.75 8.30086 6.97125 7.76671 7.36508 7.37289C7.7589 6.97906 8.29305 6.75781 8.85 6.75781Z" fill="#F87171"/>
<path d="M12 5.00781C12.1326 5.00781 12.2598 5.06049 12.3536 5.15426C12.4473 5.24803 12.5 5.3752 12.5 5.50781V7.50781H11.5V5.50781C11.5 5.3752 11.5527 5.24803 11.6464 5.15426C11.7402 5.06049 11.8674 5.00781 12 5.00781ZM14.5 5.00781C14.6326 5.00781 14.7598 5.06049 14.8536 5.15426C14.9473 5.24803 15 5.3752 15 5.50781V7.50781H14V5.50781C14 5.3752 14.0527 5.24803 14.1464 5.15426C14.2402 5.06049 14.3674 5.00781 14.5 5.00781ZM9.5 5.00781C9.63261 5.00781 9.75979 5.06049 9.85355 5.15426C9.94732 5.24803 10 5.3752 10 5.50781V7.50781H9V5.50781C9 5.3752 9.05268 5.24803 9.14645 5.15426C9.24021 5.06049 9.36739 5.00781 9.5 5.00781ZM12 19.0078C11.8674 19.0078 11.7402 18.9551 11.6464 18.8614C11.5527 18.7676 11.5 18.6404 11.5 18.5078V16.5078H12.5V18.5078C12.5 18.6404 12.4473 18.7676 12.3536 18.8614C12.2598 18.9551 12.1326 19.0078 12 19.0078ZM14.5 19.0078C14.3674 19.0078 14.2402 18.9551 14.1464 18.8614C14.0527 18.7676 14 18.6404 14 18.5078V16.5078H15V18.5078C15 18.6404 14.9473 18.7676 14.8536 18.8614C14.7598 18.9551 14.6326 19.0078 14.5 19.0078ZM9.5 19.0078C9.36739 19.0078 9.24021 18.9551 9.14645 18.8614C9.05268 18.7676 9 18.6404 9 18.5078V16.5078H10V18.5078C10 18.6404 9.94732 18.7676 9.85355 18.8614C9.75979 18.9551 9.63261 19.0078 9.5 19.0078ZM5 12.0078C5 11.8752 5.05268 11.748 5.14645 11.6543C5.24021 11.5605 5.36739 11.5078 5.5 11.5078H7.5V12.5078H5.5C5.36739 12.5078 5.24021 12.4551 5.14645 12.3614C5.05268 12.2676 5 12.1404 5 12.0078ZM5 9.50781C5 9.3752 5.05268 9.24803 5.14645 9.15426C5.24021 9.06049 5.36739 9.00781 5.5 9.00781H7.5V10.0078H5.5C5.36739 10.0078 5.24021 9.95513 5.14645 9.86137C5.05268 9.7676 5 9.64042 5 9.50781ZM5 14.5078C5 14.3752 5.05268 14.248 5.14645 14.1543C5.24021 14.0605 5.36739 14.0078 5.5 14.0078H7.5V15.0078H5.5C5.36739 15.0078 5.24021 14.9551 5.14645 14.8614C5.05268 14.7676 5 14.6404 5 14.5078ZM19 12.0078C19 12.1404 18.9473 12.2676 18.8536 12.3614C18.7598 12.4551 18.6326 12.5078 18.5 12.5078H16.5V11.5078H18.5C18.6326 11.5078 18.7598 11.5605 18.8536 11.6543C18.9473 11.748 19 11.8752 19 12.0078ZM19 9.50781C19 9.64042 18.9473 9.7676 18.8536 9.86137C18.7598 9.95513 18.6326 10.0078 18.5 10.0078H16.5V9.00781H18.5C18.6326 9.00781 18.7598 9.06049 18.8536 9.15426C18.9473 9.24803 19 9.3752 19 9.50781ZM19 14.5078C19 14.6404 18.9473 14.7676 18.8536 14.8614C18.7598 14.9551 18.6326 15.0078 18.5 15.0078H16.5V14.0078H18.5C18.6326 14.0078 18.7598 14.0605 18.8536 14.1543C18.9473 14.248 19 14.3752 19 14.5078Z" fill="#F87171"/>
</g>
<defs>
<clipPath id="clip0_29055_102448">
<rect width="14" height="14" fill="white" transform="translate(5 5)"/>
</clipPath>
</defs>
</svg>
