<svg width="24" height="24" viewBox="0 0 24 24" fill="none" xmlns="http://www.w3.org/2000/svg">
<rect x="0.35" y="0.35" width="23.3" height="23.3" rx="3.65" stroke="#FECACA" stroke-width="0.7"/>
<path d="M12 9.33325C15.3137 9.33325 18 8.43782 18 7.33325C18 6.22868 15.3137 5.33325 12 5.33325C8.68629 5.33325 6 6.22868 6 7.33325C6 8.43782 8.68629 9.33325 12 9.33325Z" stroke="#F87171" stroke-width="1.25" stroke-linecap="round" stroke-linejoin="round"/>
<path d="M18 12C18 13.1067 15.3333 14 12 14C8.66667 14 6 13.1067 6 12" stroke="#F87171" stroke-width="1.25" stroke-linecap="round" stroke-linejoin="round"/>
<path d="M6 7.33325V16.6666C6 17.7733 8.66667 18.6666 12 18.6666C15.3333 18.6666 18 17.7733 18 16.6666V7.33325" stroke="#F87171" stroke-width="1.25" stroke-linecap="round" stroke-linejoin="round"/>
</svg>
