<svg width="24" height="24" viewBox="0 0 24 24" fill="none" xmlns="http://www.w3.org/2000/svg">
<rect x="0.35" y="0.35" width="23.3" height="23.3" rx="3.65" stroke="#FECACA" stroke-width="0.7"/>
<path fill-rule="evenodd" clip-rule="evenodd" d="M11.5609 5.00574C11.5163 5.01099 11.3639 5.02675 11.2229 5.04076C9.58282 5.20451 7.93048 6.05039 6.81315 7.29906C5.57761 8.67995 4.94977 10.3936 5.00757 12.2193C5.10827 15.3725 7.27549 18.0424 10.3499 18.8024C12.1528 19.2481 14.1353 18.9303 15.7062 17.9443C17.2736 16.9592 18.3708 15.4417 18.8095 13.6501C18.9601 13.0363 18.9952 12.7237 18.9952 11.9978C18.9952 11.2719 18.9601 10.9593 18.8095 10.3454C18.116 7.51272 15.7833 5.42868 12.8805 5.04865C12.6318 5.01625 11.7273 4.98735 11.5609 5.00574ZM12.7518 6.36124C13.7273 6.48733 14.6406 6.86299 15.4584 7.47419C15.7465 7.6896 16.313 8.25614 16.5285 8.54423C17.0197 9.20184 17.3831 9.97504 17.5477 10.715C17.7351 11.56 17.7351 12.4356 17.5477 13.2806C17.1852 14.9102 16.0372 16.3568 14.5153 17.1011C13.9654 17.3699 13.398 17.5459 12.7754 17.6405C12.4042 17.6974 11.6056 17.6974 11.2343 17.6405C9.52853 17.3813 8.08897 16.4504 7.18267 15.0196C6.99529 14.7245 6.7501 14.2097 6.62751 13.8533C6.41648 13.243 6.32541 12.6817 6.32541 11.9978C6.32541 11.088 6.50142 10.3122 6.89108 9.51094C7.1888 8.89974 7.49178 8.47768 7.98827 7.98119C8.48476 7.4847 8.90682 7.18172 9.51802 6.884C10.5276 6.39276 11.6257 6.21588 12.7518 6.36124ZM11.7474 8.74913C11.5513 8.81305 11.4401 8.92514 11.3858 9.11252C11.3543 9.21935 11.3508 9.46366 11.356 10.961C11.363 12.686 11.363 12.6869 11.4138 12.7824C11.4777 12.9023 11.6003 13.0109 11.7168 13.0521C11.8324 13.0923 12.1774 13.0923 12.293 13.0521C12.4094 13.0109 12.532 12.9023 12.5959 12.7824C12.6467 12.6869 12.6467 12.686 12.6537 10.961C12.6607 9.07662 12.6607 9.07487 12.5267 8.91638C12.4182 8.78678 12.3017 8.74388 12.0399 8.73687C11.9112 8.73337 11.7798 8.73862 11.7474 8.74913ZM11.8175 14.2132C11.652 14.2675 11.4882 14.4084 11.4085 14.5652C11.3473 14.6878 11.3367 14.9093 11.3867 15.0582C11.469 15.3077 11.7395 15.5004 12.0049 15.5004C12.2702 15.5004 12.5408 15.3077 12.6231 15.0582C12.673 14.9093 12.6625 14.6878 12.6012 14.5652C12.5443 14.4531 12.4077 14.3147 12.2965 14.257C12.1949 14.2044 11.9208 14.179 11.8175 14.2132Z" fill="#F87171"/>
</svg>
