<svg width="24" height="24" viewBox="0 0 24 24" fill="none" xmlns="http://www.w3.org/2000/svg">
<rect x="0.35" y="0.35" width="23.3" height="23.3" rx="3.65" fill="#F8F8F8"/>
<rect x="0.35" y="0.35" width="23.3" height="23.3" rx="3.65" stroke="#EBEBEB" stroke-width="0.7"/>
<mask id="mask0_28160_93493" style="mask-type:luminance" maskUnits="userSpaceOnUse" x="5" y="5" width="14" height="14">
<path d="M19 5H5V19H19V5Z" fill="white"/>
</mask>
<g mask="url(#mask0_28160_93493)">
<path d="M12 7.1C13.5459 7.5375 15.2375 8.0625 16.0834 8.35416V12.9334C16.0834 13.925 15.0041 15.675 12 17.425C8.99584 15.6459 7.91666 13.925 7.91666 12.9334V8.35416C8.7625 8.03334 10.4542 7.5375 12 7.1ZM12 5.875C12 5.875 6.75 7.3625 6.75 7.625V12.9334C6.75 15.6166 10.6292 17.9791 11.7083 18.6209C11.7947 18.6785 11.8962 18.7093 12 18.7093C12.1039 18.7093 12.2054 18.6785 12.2916 18.6209C13.4 18.0084 17.25 15.6166 17.25 12.9334V7.625C17.25 7.3625 12 5.875 12 5.875Z" fill="#9F9F9F"/>
<path d="M13.9855 10.5866V12.6115C13.9855 13.4215 13.5805 13.8265 12.7705 13.8265H11.1505C10.3405 13.8265 9.93555 13.4215 9.93555 12.6115V10.5866C9.93555 9.77658 10.3405 9.37158 11.1505 9.37158H12.7705C13.5805 9.37158 13.9855 9.77658 13.9855 10.5866Z" stroke="#9F9F9F" stroke-width="0.75" stroke-linecap="round" stroke-linejoin="round"/>
<path d="M14.7988 11.6001H9.12891" stroke="#9F9F9F" stroke-width="0.75" stroke-linecap="round" stroke-linejoin="round"/>
</g>
</svg>
