<svg width="24" height="24" viewBox="0 0 24 24" fill="none" xmlns="http://www.w3.org/2000/svg">
<rect x="0.35" y="0.35" width="23.3" height="23.3" rx="3.65" fill="#F8F8F8"/>
<rect x="0.35" y="0.35" width="23.3" height="23.3" rx="3.65" stroke="#EBEBEB" stroke-width="0.7"/>
<path d="M7.42597 14.2872C7.2239 14.2872 7.0301 14.3675 6.88722 14.5104C6.74433 14.6532 6.66406 14.847 6.66406 15.0491V17.3348C6.66406 17.5369 6.74433 17.7307 6.88722 17.8736C7.0301 18.0165 7.2239 18.0967 7.42597 18.0967C7.62804 18.0967 7.82183 18.0165 7.96472 17.8736C8.1076 17.7307 8.18787 17.5369 8.18787 17.3348V15.0491C8.18787 14.847 8.1076 14.6532 7.96472 14.5104C7.82183 14.3675 7.62804 14.2872 7.42597 14.2872ZM10.4736 12.0015C10.2715 12.0015 10.0777 12.0818 9.93484 12.2246C9.79195 12.3675 9.71168 12.5613 9.71168 12.7634V17.3348C9.71168 17.5369 9.79195 17.7307 9.93484 17.8736C10.0777 18.0165 10.2715 18.0967 10.4736 18.0967C10.6757 18.0967 10.8694 18.0165 11.0123 17.8736C11.1552 17.7307 11.2355 17.5369 11.2355 17.3348V12.7634C11.2355 12.5613 11.1552 12.3675 11.0123 12.2246C10.8694 12.0818 10.6757 12.0015 10.4736 12.0015ZM16.5688 5.90625C16.3668 5.90625 16.173 5.98652 16.0301 6.12941C15.8872 6.27229 15.8069 6.46609 15.8069 6.66815V17.3348C15.8069 17.5369 15.8872 17.7307 16.0301 17.8736C16.173 18.0165 16.3668 18.0967 16.5688 18.0967C16.7709 18.0967 16.9647 18.0165 17.1076 17.8736C17.2505 17.7307 17.3307 17.5369 17.3307 17.3348V6.66815C17.3307 6.46609 17.2505 6.27229 17.1076 6.12941C16.9647 5.98652 16.7709 5.90625 16.5688 5.90625ZM13.5212 8.95387C13.3191 8.95387 13.1253 9.03414 12.9825 9.17703C12.8396 9.31991 12.7593 9.5137 12.7593 9.71577V17.3348C12.7593 17.5369 12.8396 17.7307 12.9825 17.8736C13.1253 18.0165 13.3191 18.0967 13.5212 18.0967C13.7233 18.0967 13.9171 18.0165 14.06 17.8736C14.2028 17.7307 14.2831 17.5369 14.2831 17.3348V9.71577C14.2831 9.5137 14.2028 9.31991 14.06 9.17703C13.9171 9.03414 13.7233 8.95387 13.5212 8.95387Z" fill="#9F9F9F"/>
</svg>
