<svg width="24" height="24" viewBox="0 0 24 24" fill="none" xmlns="http://www.w3.org/2000/svg">
<rect x="0.35" y="0.35" width="23.3" height="23.3" rx="3.65" stroke="#FECACA" stroke-width="0.7"/>
<path d="M8.03247 9.32314C8.07954 9.19922 8.17388 9.09906 8.29477 9.04468C8.41566 8.9903 8.55319 8.98615 8.67714 9.03314L11.9998 10.2931L15.3225 9.03314C15.3842 9.00794 15.4504 8.99536 15.5171 8.99613C15.5838 8.99689 15.6497 9.011 15.7108 9.03761C15.772 9.06422 15.8272 9.1028 15.8732 9.15107C15.9193 9.19935 15.9552 9.25634 15.9788 9.31871C16.0025 9.38107 16.0134 9.44753 16.011 9.51419C16.0086 9.58085 15.9929 9.64635 15.9648 9.70683C15.9367 9.76732 15.8967 9.82157 15.8473 9.86639C15.7979 9.91121 15.7401 9.94569 15.6771 9.96781L12.4998 11.1738V14.8345C12.4998 14.9671 12.4471 15.0943 12.3534 15.188C12.2596 15.2818 12.1324 15.3345 11.9998 15.3345C11.8672 15.3345 11.74 15.2818 11.6463 15.188C11.5525 15.0943 11.4998 14.9671 11.4998 14.8345V11.1745L8.32247 9.96714C8.19855 9.92008 8.09839 9.82573 8.04401 9.70484C7.98963 9.58396 7.98548 9.44642 8.03247 9.32247V9.32314Z" fill="#F87171"/>
<path d="M11.0594 5.67537C11.6618 5.43113 12.3356 5.43113 12.938 5.67537L17.9367 7.70203C18.152 7.78925 18.3364 7.93875 18.4662 8.1314C18.596 8.32405 18.6654 8.55106 18.6654 8.78337V15.218C18.6654 15.4503 18.596 15.6774 18.4662 15.87C18.3364 16.0626 18.152 16.2122 17.9367 16.2994L12.938 18.326C12.3356 18.5703 11.6618 18.5703 11.0594 18.326L6.0607 16.2994C5.84539 16.2122 5.66101 16.0626 5.5312 15.87C5.40138 15.6774 5.33203 15.4503 5.33203 15.218V8.78403C5.33203 8.55173 5.40138 8.32471 5.5312 8.13207C5.66101 7.93942 5.84539 7.78991 6.0607 7.7027L11.0594 5.67537ZM12.562 6.60203C12.2007 6.45563 11.7967 6.45563 11.4354 6.60203L6.43603 8.6287C6.40526 8.64119 6.37892 8.66258 6.36039 8.69014C6.34186 8.7177 6.33199 8.75016 6.33203 8.78337V15.218C6.33199 15.2512 6.34186 15.2837 6.36039 15.3113C6.37892 15.3388 6.40526 15.3602 6.43603 15.3727L11.4354 17.3994C11.7967 17.5458 12.2007 17.5458 12.562 17.3994L17.5614 15.3727C17.5921 15.3602 17.6185 15.3388 17.637 15.3113C17.6555 15.2837 17.6654 15.2512 17.6654 15.218V8.78403C17.6654 8.75083 17.6555 8.71836 17.637 8.6908C17.6185 8.66325 17.5921 8.64185 17.5614 8.62937L12.562 6.6027V6.60203Z" fill="#F87171"/>
</svg>
