<svg width="24" height="24" viewBox="0 0 24 24" fill="none" xmlns="http://www.w3.org/2000/svg">
<rect x="0.35" y="0.35" width="23.3" height="23.3" rx="3.65" fill="#F8F8F8"/>
<rect x="0.35" y="0.35" width="23.3" height="23.3" rx="3.65" stroke="#EBEBEB" stroke-width="0.7"/>
<path d="M7.15625 15.636V8.36328" stroke="#9F9F9F" stroke-linecap="round"/>
<path d="M16.8438 12V15.6364" stroke="#9F9F9F" stroke-linecap="round"/>
<path d="M12.0047 10.786C14.6825 10.786 16.8532 9.70062 16.8532 8.36174C16.8532 7.02287 14.6825 5.9375 12.0047 5.9375C9.32699 5.9375 7.15625 7.02287 7.15625 8.36174C7.15625 9.70062 9.32699 10.786 12.0047 10.786Z" stroke="#9F9F9F"/>
<path d="M16.8532 12C16.8532 13.3388 14.6825 14.4242 12.0047 14.4242C9.32699 14.4242 7.15625 13.3388 7.15625 12" stroke="#9F9F9F" stroke-linecap="round"/>
<path d="M16.8532 15.6367C16.8532 16.9756 14.6825 18.061 12.0047 18.061C9.32699 18.061 7.15625 16.9756 7.15625 15.6367" stroke="#9F9F9F"/>
</svg>
