<svg width="24" height="24" viewBox="0 0 24 24" fill="none" xmlns="http://www.w3.org/2000/svg">
<rect x="0.35" y="0.35" width="23.3" height="23.3" rx="3.65" fill="#F8F8F8"/>
<rect x="0.35" y="0.35" width="23.3" height="23.3" rx="3.65" stroke="#EBEBEB" stroke-width="0.7"/>
<path d="M14.7166 10.417C15.5565 10.9419 15.9764 11.2044 16.1204 11.5404C16.2462 11.8338 16.2462 12.1661 16.1204 12.4595C15.9764 12.7955 15.5565 13.058 14.7166 13.5829L10.772 16.0483C9.83988 16.6309 9.37381 16.9222 8.98919 16.8912C8.65394 16.8643 8.34662 16.694 8.14608 16.424C7.91602 16.1142 7.91602 15.5646 7.91602 14.4654V9.53456C7.91602 8.43534 7.91602 7.88574 8.14608 7.57597C8.34662 7.30596 8.65394 7.13563 8.98919 7.10867C9.37381 7.07776 9.83988 7.36905 10.772 7.95164L14.7166 10.417Z" stroke="#9F9F9F" stroke-width="1.5" stroke-linejoin="round"/>
</svg>
