<svg width="24" height="24" viewBox="0 0 24 24" fill="none" xmlns="http://www.w3.org/2000/svg">
<rect x="0.35" y="0.35" width="23.3" height="23.3" rx="3.65" stroke="#BBF7D0" stroke-width="0.7"/>
<g clip-path="url(#clip0_29055_102711)">
<path d="M17.4835 10.0821H10.3704C10.2492 10.0812 10.129 10.1044 10.0169 10.1504C9.90472 10.1964 9.80284 10.2642 9.71714 10.35C9.63143 10.4357 9.56362 10.5375 9.51763 10.6497C9.47164 10.7618 9.44839 10.882 9.44924 11.0032V16.1973C9.44839 16.3185 9.47164 16.4387 9.51763 16.5508C9.56362 16.663 9.63143 16.7649 9.71714 16.8506C9.80284 16.9363 9.90472 17.0041 10.0169 17.0501C10.129 17.0961 10.2492 17.1193 10.3704 17.1185H17.4835C17.6047 17.1193 17.7249 17.0961 17.837 17.0501C17.9492 17.0041 18.0511 16.9363 18.1368 16.8506C18.2225 16.7649 18.2903 16.663 18.3363 16.5508C18.3823 16.4387 18.4055 16.3185 18.4047 16.1973V11.0032C18.4055 10.882 18.3823 10.7618 18.3363 10.6497C18.2903 10.5375 18.2225 10.4357 18.1368 10.35C18.0511 10.2642 17.9492 10.1964 17.837 10.1504C17.7249 10.1044 17.6047 10.0812 17.4835 10.0821ZM17.1253 15.8391H10.7286V11.3614H17.1253V15.8391Z" fill="#4ADE80"/>
<path d="M8.42005 12.6399H6.88484V8.16218H13.2816V9.05772H14.5609V7.77838C14.5559 7.53801 14.4564 7.30928 14.284 7.14169C14.1116 6.97409 13.8802 6.8811 13.6398 6.88284H6.52662C6.40542 6.88199 6.28526 6.90523 6.17312 6.95122C6.06097 6.99721 5.95909 7.06503 5.87339 7.15073C5.78768 7.23644 5.71987 7.33832 5.67388 7.45046C5.62789 7.5626 5.60464 7.68276 5.60549 7.80396V12.9981C5.60464 13.1193 5.62789 13.2395 5.67388 13.3516C5.71987 13.4638 5.78768 13.5656 5.87339 13.6513C5.95909 13.737 6.06097 13.8049 6.17312 13.8509C6.28526 13.8968 6.40542 13.9201 6.52662 13.9192H8.44564L8.42005 12.6399Z" fill="#4ADE80"/>
</g>
<defs>
<clipPath id="clip0_29055_102711">
<rect width="16" height="16" fill="white" transform="translate(4 4)"/>
</clipPath>
</defs>
</svg>
