<svg width="24" height="24" viewBox="0 0 24 24" fill="none" xmlns="http://www.w3.org/2000/svg">
<rect x="0.35" y="0.35" width="23.3" height="23.3" rx="3.65" fill="#F8F8F8"/>
<rect x="0.35" y="0.35" width="23.3" height="23.3" rx="3.65" stroke="#EBEBEB" stroke-width="0.7"/>
<g clip-path="url(#clip0_28160_93439)">
<path d="M12 5V6H17V13.5H18V6C17.9997 5.73488 17.8942 5.4807 17.7068 5.29323C17.5193 5.10576 17.2651 5.0003 17 5H12Z" fill="#9F9F9F"/>
<path d="M9.5 7.5V8.5H14.5V16H15.5V8.5C15.4997 8.23488 15.3942 7.9807 15.2068 7.79323C15.0193 7.60576 14.7651 7.5003 14.5 7.5H9.5Z" fill="#9F9F9F"/>
<path d="M7 10H12C12.2651 10.0003 12.5193 10.1058 12.7068 10.2932C12.8942 10.4807 12.9997 10.7349 13 11V18C12.9997 18.2651 12.8942 18.5193 12.7068 18.7068C12.5193 18.8942 12.2651 18.9997 12 19H7C6.73488 18.9997 6.4807 18.8942 6.29323 18.7068C6.10576 18.5193 6.0003 18.2651 6 18V11C6.0003 10.7349 6.10576 10.4807 6.29323 10.2932C6.4807 10.1058 6.73488 10.0003 7 10ZM12 11L7 10.9994V18H12V11Z" fill="#9F9F9F"/>
</g>
<defs>
<clipPath id="clip0_28160_93439">
<rect width="16" height="16" fill="white" transform="translate(4 4)"/>
</clipPath>
</defs>
</svg>
