<svg width="18" height="18" viewBox="0 0 18 18" fill="none" xmlns="http://www.w3.org/2000/svg">
<path d="M4 7C4 6.72386 4.22386 6.5 4.5 6.5H13.5C13.7761 6.5 14 6.72386 14 7C14 7.27614 13.7761 7.5 13.5 7.5H4.5C4.22386 7.5 4 7.27614 4 7Z" fill="#3B82F6"/>
<path d="M4 9C4 8.72385 4.22386 8.5 4.5 8.5H13.5C13.7761 8.5 14 8.72385 14 9C14 9.27615 13.7761 9.5 13.5 9.5H4.5C4.22386 9.5 4 9.27615 4 9Z" fill="#3B82F6"/>
<path d="M4.5 10.5C4.22386 10.5 4 10.7239 4 11C4 11.2761 4.22386 11.5 4.5 11.5H10.5C10.7761 11.5 11 11.2761 11 11C11 10.7239 10.7761 10.5 10.5 10.5H4.5Z" fill="#3B82F6"/>
<path d="M16.5 9C16.5 12.5355 16.5 14.3033 15.4016 15.4016C14.3033 16.5 12.5355 16.5 9 16.5C5.46446 16.5 3.6967 16.5 2.59835 15.4016C1.5 14.3033 1.5 12.5355 1.5 9C1.5 5.46446 1.5 3.6967 2.59835 2.59835C3.6967 1.5 5.46446 1.5 9 1.5C12.5355 1.5 14.3033 1.5 15.4016 2.59835C16.132 3.32866 16.3767 4.35491 16.4587 6" stroke="#3B82F6" stroke-linecap="round"/>
</svg>
