<svg width="16" height="17" viewBox="0 0 16 17" fill="none" xmlns="http://www.w3.org/2000/svg">
<g clip-path="url(#clip0_14469_10012)">
<path d="M14.839 7.8196L13.833 6.7846L14.2718 5.4346C14.317 5.31184 14.3093 5.17746 14.2504 5.05989C14.1915 4.94231 14.0859 4.85076 13.9561 4.8046L12.5755 4.3046L12.3615 2.9096C12.3548 2.84381 12.3342 2.77992 12.301 2.72161C12.2677 2.6633 12.2224 2.61173 12.1676 2.56988C12.1129 2.52804 12.0498 2.49674 11.9821 2.47782C11.9143 2.45889 11.8432 2.45269 11.7729 2.4596L10.296 2.5646L9.48265 1.3946C9.40715 1.28928 9.29165 1.21468 9.15953 1.18591C9.02741 1.15713 8.88852 1.17632 8.77096 1.2396L7.49207 1.9496L6.21319 1.2396C6.09563 1.17632 5.95674 1.15713 5.82462 1.18591C5.69249 1.21468 5.577 1.28928 5.5015 1.3946L4.6721 2.5646L3.21127 2.4596C3.07602 2.45079 2.94223 2.49029 2.83694 2.57011C2.73166 2.64993 2.66272 2.76411 2.64407 2.8896L2.40862 4.2896L1.02806 4.7896C0.898207 4.83576 0.792657 4.92731 0.733738 5.04489C0.674819 5.16246 0.667151 5.29684 0.712356 5.4196L1.15114 6.7696L0.14515 7.8196C0.0471049 7.91306 -0.0078125 8.03872 -0.0078125 8.1696C-0.0078125 8.30047 0.0471049 8.42613 0.14515 8.5196L1.15114 9.5546L0.712356 10.9046C0.667151 11.0274 0.674819 11.1617 0.733738 11.2793C0.792657 11.3969 0.898207 11.4884 1.02806 11.5346L2.40862 12.0346L2.62266 13.4296C2.62935 13.4954 2.64992 13.5593 2.6832 13.6176C2.71647 13.6759 2.76179 13.7275 2.81652 13.7693C2.87126 13.8112 2.93433 13.8425 3.00208 13.8614C3.06984 13.8803 3.14094 13.8865 3.21127 13.8796L4.68815 13.7746L5.51756 14.9446C5.56603 15.0134 5.63193 15.0699 5.70941 15.1092C5.7869 15.1484 5.87355 15.1692 5.96169 15.1696C6.05591 15.1687 6.14821 15.1445 6.22924 15.0996L7.49207 14.3896L8.77096 15.0996C8.88852 15.1629 9.02741 15.1821 9.15953 15.1533C9.29165 15.1245 9.40715 15.0499 9.48265 14.9446L10.3121 13.7746L11.7889 13.8796C11.9242 13.8884 12.058 13.8489 12.1633 13.7691C12.2685 13.6893 12.3375 13.5751 12.3561 13.4496L12.5755 12.0496L13.9561 11.5496C14.0859 11.5034 14.1915 11.4119 14.2504 11.2943C14.3093 11.1767 14.317 11.0424 14.2718 10.9196L13.833 9.5696L14.839 8.5346C14.89 8.48803 14.9305 8.43242 14.9581 8.37103C14.9858 8.30964 15 8.2437 15 8.1771C15 8.11049 14.9858 8.04456 14.9581 7.98317C14.9305 7.92177 14.89 7.86616 14.839 7.8196ZM10.5582 6.4546L6.87671 10.5496C6.82756 10.6048 6.76628 10.6494 6.69703 10.6804C6.62778 10.7115 6.55219 10.7283 6.47538 10.7296H6.44863C6.36831 10.7254 6.29003 10.7044 6.21962 10.668C6.14922 10.6316 6.08849 10.5809 6.04195 10.5196L4.36709 8.3146C4.32294 8.26101 4.29089 8.19962 4.27286 8.13412C4.25483 8.06863 4.25121 8.0004 4.26222 7.93356C4.27322 7.86672 4.29862 7.80266 4.33688 7.74526C4.37514 7.68786 4.42547 7.63831 4.48481 7.5996C4.54168 7.56072 4.6062 7.53273 4.67467 7.51721C4.74315 7.5017 4.81423 7.49897 4.88384 7.50919C4.95344 7.51941 5.0202 7.54238 5.08028 7.57677C5.14037 7.61116 5.19259 7.6563 5.23395 7.7096L6.50749 9.3946L9.71809 5.7896C9.76377 5.73969 9.81951 5.69868 9.88215 5.66891C9.94479 5.63914 10.0131 5.62118 10.0831 5.61608C10.1532 5.61097 10.2237 5.61881 10.2905 5.63914C10.3573 5.65948 10.4192 5.69192 10.4726 5.7346C10.5315 5.77446 10.5811 5.82514 10.6183 5.88352C10.6556 5.9419 10.6797 6.00677 10.6892 6.07415C10.6987 6.14154 10.6935 6.21003 10.6737 6.27544C10.6539 6.34086 10.6201 6.40182 10.5743 6.4546H10.5582Z" fill="#374151"/>
</g>
<defs>
<clipPath id="clip0_14469_10012">
<rect width="16" height="16" fill="white" transform="translate(0 0.168945)"/>
</clipPath>
</defs>
</svg>
