<svg width="18" height="18" viewBox="0 0 18 18" fill="none" xmlns="http://www.w3.org/2000/svg">
<path fill-rule="evenodd" clip-rule="evenodd" d="M12.7109 11.8571V7.85714L9.79427 5H6.8776C6.23327 5 5.71094 5.51167 5.71094 6.14286V11.8571C5.71094 12.4883 6.23327 13 6.8776 13H11.5443C12.1886 13 12.7109 12.4883 12.7109 11.8571Z" stroke="#3B82F6" stroke-width="0.75" stroke-linecap="round" stroke-linejoin="round"/>
<path d="M9.71094 5V6.8C9.71094 7.46274 10.2482 8 10.9109 8H12.7109" stroke="#3B82F6" stroke-width="0.75" stroke-linecap="round" stroke-linejoin="round"/>
<path d="M16.5 9C16.5 12.5355 16.5 14.3033 15.4016 15.4016C14.3033 16.5 12.5355 16.5 9 16.5C5.46446 16.5 3.6967 16.5 2.59835 15.4016C1.5 14.3033 1.5 12.5355 1.5 9C1.5 5.46446 1.5 3.6967 2.59835 2.59835C3.6967 1.5 5.46446 1.5 9 1.5C12.5355 1.5 14.3033 1.5 15.4016 2.59835C16.132 3.32866 16.3767 4.35491 16.4587 6" stroke="#3B82F6" stroke-linecap="round"/>
</svg>
