<svg width="18" height="18" viewBox="0 0 18 18" fill="none" xmlns="http://www.w3.org/2000/svg">
<path d="M5 11L6.83431 8.7071C7.14674 8.3166 7.65328 8.3166 7.96568 8.7071L9.23432 10.2929C9.54672 10.6834 10.0533 10.6834 10.3657 10.2929L13 7M13 7V9.5M13 7H11" stroke="#3B82F6" stroke-linecap="round" stroke-linejoin="round"/>
<path d="M16.5 9C16.5 12.5355 16.5 14.3033 15.4016 15.4016C14.3033 16.5 12.5355 16.5 9 16.5C5.46446 16.5 3.6967 16.5 2.59835 15.4016C1.5 14.3033 1.5 12.5355 1.5 9C1.5 5.46446 1.5 3.6967 2.59835 2.59835C3.6967 1.5 5.46446 1.5 9 1.5C12.5355 1.5 14.3033 1.5 15.4016 2.59835C16.132 3.32866 16.3767 4.35491 16.4587 6" stroke="#3B82F6" stroke-linecap="round"/>
</svg>
