<svg width="20" height="20" viewBox="0 0 20 20" fill="none" xmlns="http://www.w3.org/2000/svg">
<rect width="20" height="20" rx="5" fill="#374151"/>
<path d="M13.057 8.17803H13.182C13.182 6.6499 14.4258 5.40615 15.9539 5.40615V5.28115C14.4258 5.28115 13.182 4.0374 13.182 2.50928H13.057C13.057 4.0374 11.8133 5.28115 10.2852 5.28115V5.40615C11.8133 5.40615 13.057 6.6499 13.057 8.17803Z" fill="#FACF39"/>
<path d="M13.182 11.8218H13.057C13.057 13.3499 11.8133 14.5937 10.2852 14.5937V14.7187C11.8133 14.7187 13.057 15.9624 13.057 17.4905H13.182C13.182 15.9624 14.4258 14.7187 15.9539 14.7187V14.5937C14.4258 14.5937 13.182 13.3499 13.182 11.8218Z" fill="#FACF39"/>
<path d="M13.8055 10.0968V9.97183H13.7773C10.5836 9.97183 7.98672 7.37495 7.98672 4.1812V4.15308H7.86172V4.1812C7.86172 7.37495 5.26484 9.97183 2.07109 9.97183H2.04297V10.0968H2.07109C5.26484 10.0968 7.86172 12.6937 7.86172 15.8875V15.9156H7.98672V15.8875C7.98672 12.6937 10.5836 10.0968 13.7773 10.0968H13.8055Z" fill="#FACF39"/>
</svg>
