<svg width="16" height="16" viewBox="0 0 16 16" fill="none" xmlns="http://www.w3.org/2000/svg">
<g clip-path="url(#clip0_31340_69997)">
<path d="M14.839 7.64675L13.833 6.61175L14.2718 5.26175C14.317 5.13899 14.3093 5.00461 14.2504 4.88703C14.1915 4.76946 14.0859 4.67791 13.9561 4.63175L12.5755 4.13175L12.3615 2.73675C12.3548 2.67096 12.3342 2.60707 12.301 2.54876C12.2677 2.49045 12.2224 2.43888 12.1676 2.39703C12.1129 2.35519 12.0498 2.32389 11.9821 2.30496C11.9143 2.28603 11.8432 2.27984 11.7729 2.28675L10.296 2.39175L9.48265 1.22175C9.40715 1.11642 9.29165 1.04183 9.15953 1.01305C9.02741 0.984278 8.88852 1.00347 8.77096 1.06675L7.49207 1.77675L6.21319 1.06675C6.09563 1.00347 5.95674 0.984278 5.82462 1.01305C5.69249 1.04183 5.577 1.11642 5.5015 1.22175L4.6721 2.39175L3.21127 2.28675C3.07602 2.27794 2.94223 2.31744 2.83694 2.39726C2.73166 2.47707 2.66272 2.59126 2.64407 2.71675L2.40862 4.11675L1.02806 4.61675C0.898207 4.66291 0.792657 4.75446 0.733738 4.87203C0.674819 4.98961 0.667151 5.12399 0.712356 5.24675L1.15114 6.59675L0.14515 7.64675C0.0471049 7.74021 -0.0078125 7.86587 -0.0078125 7.99675C-0.0078125 8.12762 0.0471049 8.25328 0.14515 8.34675L1.15114 9.38175L0.712356 10.7317C0.667151 10.8545 0.674819 10.9889 0.733738 11.1065C0.792657 11.224 0.898207 11.3156 1.02806 11.3617L2.40862 11.8617L2.62266 13.2567C2.62935 13.3225 2.64992 13.3864 2.6832 13.4447C2.71647 13.503 2.76179 13.5546 2.81652 13.5965C2.87126 13.6383 2.93433 13.6696 3.00208 13.6885C3.06984 13.7075 3.14094 13.7137 3.21127 13.7067L4.68815 13.6017L5.51756 14.7717C5.56603 14.8405 5.63193 14.8971 5.70941 14.9363C5.7869 14.9756 5.87355 14.9963 5.96169 14.9967C6.05591 14.9958 6.14821 14.9717 6.22924 14.9267L7.49207 14.2167L8.77096 14.9267C8.88852 14.99 9.02741 15.0092 9.15953 14.9804C9.29165 14.9517 9.40715 14.8771 9.48265 14.7717L10.3121 13.6017L11.7889 13.7067C11.9242 13.7156 12.058 13.6761 12.1633 13.5962C12.2685 13.5164 12.3375 13.4022 12.3561 13.2767L12.5755 11.8767L13.9561 11.3767C14.0859 11.3306 14.1915 11.239 14.2504 11.1215C14.3093 11.0039 14.317 10.8695 14.2718 10.7467L13.833 9.39675L14.839 8.36175C14.89 8.31518 14.9305 8.25957 14.9581 8.19818C14.9858 8.13679 15 8.07085 15 8.00425C15 7.93764 14.9858 7.87171 14.9581 7.81032C14.9305 7.74892 14.89 7.69331 14.839 7.64675ZM10.5582 6.28175L6.87671 10.3767C6.82756 10.4319 6.76628 10.4765 6.69703 10.5076C6.62778 10.5387 6.55219 10.5554 6.47538 10.5567H6.44863C6.36831 10.5526 6.29003 10.5315 6.21962 10.4951C6.14922 10.4588 6.08849 10.4081 6.04195 10.3467L4.36709 8.14175C4.32294 8.08816 4.29089 8.02677 4.27286 7.96127C4.25483 7.89578 4.25121 7.82755 4.26222 7.76071C4.27322 7.69387 4.29862 7.62981 4.33688 7.57241C4.37514 7.51501 4.42547 7.46545 4.48481 7.42675C4.54168 7.38787 4.6062 7.35987 4.67467 7.34436C4.74315 7.32885 4.81423 7.32612 4.88384 7.33634C4.95344 7.34656 5.0202 7.36953 5.08028 7.40392C5.14037 7.43831 5.19259 7.48345 5.23395 7.53675L6.50749 9.22175L9.71809 5.61675C9.76377 5.56684 9.81951 5.52583 9.88215 5.49606C9.94479 5.46629 10.0131 5.44833 10.0831 5.44323C10.1532 5.43812 10.2237 5.44596 10.2905 5.46629C10.3573 5.48663 10.4192 5.51906 10.4726 5.56175C10.5315 5.60161 10.5811 5.65229 10.6183 5.71067C10.6556 5.76905 10.6797 5.83392 10.6892 5.9013C10.6987 5.96869 10.6935 6.03718 10.6737 6.10259C10.6539 6.16801 10.6201 6.22897 10.5743 6.28175H10.5582Z" fill="#4ADE80"/>
</g>
<defs>
<clipPath id="clip0_31340_69997">
<rect width="16" height="16" fill="white"/>
</clipPath>
</defs>
</svg>
